<svg width="150" height="200" viewBox="0 0 150 200" fill="none" xmlns="http://www.w3.org/2000/svg">
<path d="M138.647 22.0386C130.835 14.2267 105.967 28.4368 95.0107 35.3153C89.5913 34.409 82.595 34.0465 74.5837 34.0828C66.5723 34.0465 59.576 34.4181 54.1566 35.3153C43.1999 28.4277 18.3232 14.2357 10.5203 22.0386C2.71738 29.8415 11.6168 51.0661 16.1663 60.5455C10.7921 69.6263 8.82557 79.5588 8.82557 88.123C8.82557 95.5271 9.70464 102.922 11.4809 110.308C14.9428 124.736 26.3526 135.819 40.889 138.765C44.2603 139.444 47.6316 140.024 51.0028 140.505C45.5653 146.269 42.2756 153.754 42.2756 161.938C42.2756 180.135 58.5248 194.889 78.5803 194.889C98.6358 194.889 114.885 180.135 114.885 161.938C114.885 153.21 111.151 145.281 105.052 139.39C106.131 139.191 107.2 138.991 108.278 138.774C122.824 135.828 134.225 124.745 137.686 110.317C139.463 102.922 140.342 95.5271 140.342 88.132C140.342 79.577 138.384 69.6353 133.01 60.5637C137.541 51.0933 146.405 29.8053 138.647 22.0568V22.0386Z" fill="#ADBED9"/>
<path d="M140.17 20.5157C136.064 16.4103 128.551 16.6188 117.214 21.1682C108.668 24.5939 99.8048 29.7686 93.8688 33.5024L96.1616 37.1455C116.815 24.1498 132.512 18.9479 137.125 23.5607C141.547 27.9833 139.87 40.0093 132.702 56.0863C131.125 53.8569 129.313 51.6547 127.21 49.5341C126.376 48.6913 125.008 48.6822 124.165 49.516C123.322 50.3497 123.313 51.7182 124.147 52.561C136.363 64.9042 138.194 80.1384 138.194 88.1226C138.194 95.3273 137.324 102.623 135.602 109.809C132.349 123.358 121.455 133.898 107.861 136.653C96.8232 138.882 85.6309 140.015 74.6018 140.015C63.5635 140.015 52.3803 138.882 41.3421 136.653C27.7391 133.898 16.8459 123.358 13.5924 109.809C11.8706 102.632 11.0005 95.3364 11.0005 88.1226C11.0005 80.1384 12.8221 64.9042 25.0476 52.561C25.8813 51.7182 25.8813 50.3497 25.0294 49.516C24.1866 48.6822 22.8182 48.6822 21.9844 49.5341C19.8819 51.6547 18.0694 53.8569 16.4925 56.0863C9.30584 40.0184 7.62927 27.9833 12.0609 23.5607C16.6737 18.9479 32.3701 24.1589 53.0237 37.1455L55.3166 33.5024C49.3715 29.7686 40.4993 24.5939 31.9714 21.1682C20.6341 16.6188 13.1212 16.4103 9.01584 20.5157C0.787015 28.7445 8.20021 48.6097 13.7465 60.4364C7.78333 71.0215 6.69582 81.7244 6.69582 88.1226C6.69582 95.6717 7.61114 103.302 9.40553 110.815C11.1999 118.301 15.0515 125.071 20.5525 130.39C26.0626 135.719 32.9501 139.353 40.4811 140.876C51.8003 143.16 63.2735 144.329 74.5927 144.32C85.9119 144.32 97.3942 143.16 108.713 140.876C116.244 139.353 123.141 135.728 128.642 130.39C134.134 125.071 137.995 118.301 139.789 110.815C141.592 103.302 142.508 95.6717 142.508 88.1226C142.508 81.7244 141.411 71.0215 135.457 60.4364C137.84 55.3432 140.84 48.1747 142.544 41.1512C144.909 31.3908 144.121 24.4398 140.188 20.5157H140.17Z" fill="#446993"/>
<path d="M109.828 93.9678C109.828 89.8896 106.529 86.5908 102.451 86.5908C98.373 86.5908 95.0742 89.8896 95.0742 93.9678C95.0742 98.0459 98.373 101.345 102.451 101.345C106.529 101.345 109.828 98.0459 109.828 93.9678Z" fill="#446993"/>
<path d="M54.0932 93.9678C54.0932 89.8896 50.7945 86.5908 46.7163 86.5908C42.6381 86.5908 39.3394 89.8896 39.3394 93.9678C39.3394 98.0459 42.6381 101.345 46.7163 101.345C50.7945 101.345 54.0932 98.0459 54.0932 93.9678Z" fill="#446993"/>
<path d="M121.12 106.809H109.466C108.279 106.809 107.309 105.849 107.309 104.653C107.309 103.456 108.269 102.496 109.466 102.496H121.12C122.307 102.496 123.277 103.456 123.277 104.653C123.277 105.849 122.316 106.809 121.12 106.809Z" fill="#446993"/>
<path d="M119 117.757C118.755 117.757 118.501 117.712 118.256 117.621L108.723 114.087C107.608 113.67 107.037 112.437 107.454 111.323C107.871 110.208 109.103 109.637 110.218 110.054L119.752 113.588C120.866 114.005 121.437 115.238 121.021 116.352C120.703 117.222 119.879 117.757 119 117.757Z" fill="#446993"/>
<path d="M39.711 106.809H28.0566C26.8694 106.809 25.8997 105.849 25.8997 104.653C25.8997 103.456 26.8603 102.496 28.0566 102.496H39.711C40.8982 102.496 41.8679 103.456 41.8679 104.653C41.8679 105.849 40.9073 106.809 39.711 106.809Z" fill="#446993"/>
<path d="M30.1679 117.757C29.2888 117.757 28.4732 117.222 28.1469 116.352C27.7301 115.238 28.301 113.996 29.4157 113.588L38.9495 110.054C40.0642 109.637 41.3058 110.208 41.7136 111.323C42.1305 112.437 41.5596 113.679 40.4449 114.087L30.911 117.621C30.6663 117.712 30.4126 117.757 30.1679 117.757Z" fill="#446993"/>
<path d="M97.7656 79.6492H91.6483C90.4611 79.6492 89.4915 78.6886 89.4915 77.4923C89.4915 76.2961 90.4521 75.3354 91.6483 75.3354H97.7656C98.9528 75.3354 99.9225 76.2961 99.9225 77.4923C99.9225 78.6886 98.9618 79.6492 97.7656 79.6492Z" fill="white"/>
<path d="M57.5188 79.6492H51.4015C50.2143 79.6492 49.2446 78.6886 49.2446 77.4923C49.2446 76.2961 50.2053 75.3354 51.4015 75.3354H57.5188C58.706 75.3354 59.6757 76.2961 59.6757 77.4923C59.6757 78.6886 58.715 79.6492 57.5188 79.6492Z" fill="white"/>
<path d="M87.489 93.4148C86.338 93.1248 85.1689 93.8226 84.8789 94.9826C84.4168 96.8132 82.7764 98.1001 80.8733 98.1001C78.5986 98.1001 76.7407 96.2514 76.7407 93.9676V92.6898H77.8645C79.0517 92.6898 80.0214 91.7291 80.0214 90.5329C80.0214 89.3366 79.0608 88.376 77.8645 88.376H71.3213C70.1341 88.376 69.1644 89.3366 69.1644 90.5329C69.1644 91.7291 70.1251 92.6898 71.3213 92.6898H72.4451V93.9676C72.4451 96.2423 70.5963 98.1001 68.3125 98.1001C66.4185 98.1001 64.7691 96.8223 64.3069 94.9826C64.0169 93.8317 62.8478 93.1248 61.6968 93.4148C60.5459 93.7048 59.8481 94.8738 60.129 96.0248C61.0715 99.7767 64.4338 102.396 68.3125 102.396C70.8047 102.396 73.0523 101.308 74.5929 99.5864C76.1426 101.308 78.3811 102.396 80.8823 102.396C84.7521 102.396 88.1143 99.7767 89.0568 96.0248C89.3468 94.8738 88.649 93.7048 87.489 93.4148Z" fill="#446993"/>
<path d="M143.722 63.2459C141.194 62.104 138.647 61.0437 136.082 60.0287C136.517 51.7817 135.665 32.3878 120.703 15.7217C120.087 15.042 119.344 14.471 118.528 14.0542C94.2766 1.52968 74.5745 2.16406 74.5745 2.16406C74.5745 2.16406 54.8725 1.52968 30.621 14.0542C29.8054 14.471 29.0623 15.042 28.446 15.7217C13.4837 32.3878 12.6318 51.7817 13.0668 60.0287C10.5021 61.0346 7.9555 62.104 5.42704 63.2459C2.60858 64.5146 1.35794 67.8315 2.6267 70.65C3.89546 73.4685 7.21237 74.7191 10.0308 73.4503C51.039 54.9355 98.0829 54.9355 139.1 73.4503C139.843 73.7857 140.632 73.9488 141.402 73.9488C143.532 73.9488 145.571 72.7253 146.504 70.6591C147.773 67.8406 146.522 64.5328 143.704 63.2549L143.722 63.2459Z" fill="#FF80A9"/>
<path d="M144.61 61.2881C142.517 60.3456 140.414 59.4393 138.294 58.5875C138.52 49.7424 137.034 30.6838 122.307 14.2805C121.528 13.4195 120.567 12.6764 119.525 12.1417C111.885 8.1995 104.708 5.5351 98.4272 3.73165C97.5663 3.45071 96.6963 3.21508 95.8172 3.0157C83.7821 -0.110888 75.5623 -0.0111988 74.5926 0.00692637C73.623 -0.0202614 65.4032 -0.110888 53.3681 3.00664C52.4799 3.20602 51.6009 3.44165 50.7309 3.72259C44.4505 5.52604 37.282 8.19044 29.6422 12.1236C28.6091 12.6583 27.6485 13.4014 26.86 14.2714C12.1333 30.6656 10.6471 49.7243 10.8736 58.5693C8.75298 59.4212 6.65046 60.3275 4.557 61.27C0.660094 63.0281 -1.07086 67.6229 0.687281 71.5198C2.44542 75.4167 7.04015 77.1476 10.9371 75.3895C51.3834 57.1284 97.7838 57.1284 138.23 75.3895C139.245 75.8426 140.314 76.0783 141.411 76.0783C144.456 76.0783 147.229 74.2839 148.48 71.5198C150.238 67.6229 148.498 63.0281 144.61 61.27V61.2881ZM119.099 17.1624C132.013 31.5447 133.998 48.1474 133.998 56.92C131.524 55.9956 129.032 55.1437 126.53 54.3371C126.277 43.4983 123.522 32.2063 118.863 23.1256C116.987 19.4643 114.867 16.2652 112.52 13.5374C114.169 14.2896 115.846 15.0961 117.54 15.9661C118.12 16.2652 118.664 16.6821 119.099 17.1624ZM74.5111 4.32072C74.5564 4.32072 74.6108 4.32072 74.6561 4.32072C74.9823 4.32072 84.2715 4.14853 97.666 8.02731C106.275 11.0995 111.804 18.7937 115.039 25.0922C119.208 33.2213 121.754 43.2445 122.189 53.014C91.1137 43.9605 58.0625 43.9605 26.9869 53.014C27.4219 43.2536 29.9685 33.2213 34.1373 25.0922C37.3636 18.8027 42.8917 11.1177 51.4831 8.03638C64.9501 4.13946 74.2755 4.31165 74.5201 4.32072H74.5111ZM30.0591 17.1624C30.4941 16.6821 31.0379 16.2652 31.6179 15.9661C33.3126 15.0871 34.9892 14.2805 36.6386 13.5374C34.3004 16.2652 32.1707 19.4734 30.2947 23.1256C25.6366 32.2063 22.8725 43.4983 22.6278 54.3371C20.1265 55.1437 17.6343 55.9956 15.1602 56.92C15.1602 48.1383 17.1449 31.5447 30.0591 17.1624ZM144.556 69.7616C144.003 70.9941 142.77 71.7917 141.411 71.7917C140.922 71.7917 140.45 71.692 139.997 71.4835C119.208 62.0947 96.8957 57.4003 74.5745 57.4003C52.2534 57.4003 29.9413 62.0947 9.15173 71.4835C7.42078 72.2629 5.3817 71.4835 4.59325 69.7616C3.81387 68.0307 4.58419 65.9916 6.31514 65.2032C49.6887 45.6189 99.4422 45.6189 142.816 65.2032C144.547 65.9825 145.317 68.0307 144.538 69.7616H144.556Z" fill="#D6638B"/>
<path d="M94.3401 148.914C88.1413 132.973 71.8014 123.983 55.5704 126.421L52.9785 119.76C51.3925 115.682 46.7978 113.661 42.7105 115.247C38.6324 116.833 36.6114 121.428 38.1974 125.515L40.7893 132.176C27.1773 141.347 21.2232 159.019 27.422 174.96C34.6177 193.439 55.4254 202.583 73.8949 195.396C92.3735 188.201 101.518 167.393 94.331 148.923L94.3401 148.914Z" fill="#FFFFA1"/>
<path d="M84.4464 166.574C87.009 153.56 78.5368 140.933 65.5231 138.371C52.5094 135.808 39.8823 144.28 37.3197 157.294C34.7571 170.308 43.2294 182.935 56.243 185.497C69.2567 188.06 81.8838 179.588 84.4464 166.574Z" fill="#E6FCFC"/>
<path d="M96.3429 148.135C92.6545 138.665 85.5041 131.197 76.1968 127.101C70.0524 124.4 63.4548 123.385 56.966 124.065L54.9904 118.981C52.9694 113.797 47.115 111.214 41.9403 113.235C36.7565 115.247 34.1917 121.11 36.2036 126.294L38.1883 131.387C24.7848 141.356 19.0844 159.427 25.4282 175.731C29.1167 185.201 36.2671 192.669 45.5743 196.765C50.4772 198.922 55.6791 200 60.8811 200C65.5483 200 70.2155 199.13 74.6924 197.39C84.1628 193.702 91.6304 186.551 95.7267 177.244C99.8139 167.937 100.04 157.596 96.352 148.126L96.3429 148.135ZM40.2093 124.736C39.0493 121.763 40.5265 118.401 43.49 117.25C46.4534 116.099 49.8156 117.576 50.9666 120.549L52.616 124.781C50.7491 125.198 48.8913 125.76 47.0787 126.476C45.2481 127.191 43.5081 128.025 41.8587 128.977L40.2093 124.745V124.736ZM91.7754 175.522C88.1504 183.778 81.5256 190.122 73.1246 193.385C64.7236 196.656 55.5523 196.457 47.3053 192.832C39.0493 189.207 32.7055 182.582 29.443 174.181C22.6913 156.835 31.3098 137.242 48.6556 130.49C52.625 128.941 56.7666 128.17 60.9082 128.17C65.5211 128.17 70.1339 129.131 74.484 131.043C82.74 134.668 89.0838 141.293 92.3554 149.694C95.627 158.095 95.4276 167.266 91.8026 175.513L91.7754 175.522Z" fill="#F9CB71"/>
<path d="M53.9934 146.395C53.1324 146.395 52.3168 145.878 51.9905 145.027L50.169 140.341C49.7339 139.236 50.2868 137.985 51.3924 137.559C52.498 137.133 53.7487 137.677 54.1746 138.782L55.9962 143.468C56.4312 144.573 55.8784 145.824 54.7727 146.25C54.519 146.35 54.2562 146.395 53.9934 146.395Z" fill="#DD528B"/>
<path d="M69.5991 186.47C68.7381 186.47 67.9225 185.953 67.5962 185.101L65.7747 180.416C65.3397 179.31 65.8925 178.059 66.9981 177.634C68.1038 177.199 69.3544 177.751 69.7803 178.857L71.6019 183.542C72.0369 184.648 71.4841 185.899 70.3785 186.325C70.1247 186.424 69.8619 186.47 69.5991 186.47Z" fill="#DD528B"/>
<path d="M46.0727 152.204C45.6015 152.204 45.1212 152.05 44.7315 151.733L40.8074 148.588C39.883 147.845 39.7289 146.486 40.4721 145.561C41.2152 144.637 42.5655 144.483 43.499 145.226L47.4231 148.371C48.3474 149.114 48.5015 150.473 47.7584 151.398C47.3324 151.932 46.7071 152.204 46.0818 152.204H46.0727Z" fill="#DD528B"/>
<path d="M79.6223 179.12C79.151 179.12 78.6707 178.966 78.281 178.649L74.3569 175.504C73.4325 174.761 73.2785 173.402 74.0216 172.477C74.7647 171.553 76.1151 171.399 77.0485 172.142L80.9726 175.287C81.897 176.03 82.0511 177.389 81.3079 178.314C80.882 178.839 80.2567 179.12 79.6313 179.12H79.6223Z" fill="#DD528B"/>
<path d="M42.1214 161.203C42.0127 161.203 41.9039 161.203 41.7952 161.176L36.8289 160.415C35.6508 160.233 34.8442 159.137 35.0254 157.959C35.2067 156.781 36.3033 155.974 37.4814 156.155L42.4477 156.917C43.6258 157.098 44.4324 158.194 44.2512 159.373C44.088 160.433 43.1727 161.194 42.1305 161.194L42.1214 161.203Z" fill="#DD528B"/>
<path d="M84.6248 167.737C84.5161 167.737 84.4074 167.737 84.2986 167.71L79.3323 166.949C78.1542 166.768 77.3476 165.671 77.5289 164.493C77.7101 163.315 78.8067 162.508 79.9848 162.69L84.9511 163.451C86.1292 163.632 86.9358 164.729 86.7546 165.907C86.5914 166.967 85.6761 167.728 84.6339 167.728L84.6248 167.737Z" fill="#DD528B"/>
<path d="M38.5053 172.803C37.6443 172.803 36.8287 172.287 36.5024 171.435C36.0674 170.329 36.6203 169.079 37.7259 168.653L42.4113 166.831C43.5169 166.405 44.7675 166.949 45.2025 168.054C45.6375 169.16 45.0847 170.411 43.9791 170.837L39.2937 172.658C39.04 172.758 38.7772 172.803 38.5143 172.803H38.5053Z" fill="#DD528B"/>
<path d="M78.5802 157.198C77.7193 157.198 76.9037 156.681 76.5774 155.829C76.1424 154.724 76.6952 153.473 77.8008 153.047L82.4862 151.226C83.5918 150.8 84.8425 151.343 85.2775 152.449C85.7125 153.555 85.1597 154.805 84.054 155.231L79.3687 157.053C79.1149 157.152 78.8521 157.198 78.5893 157.198H78.5802Z" fill="#DD528B"/>
<path d="M45.8552 182.827C45.3839 182.827 44.9036 182.673 44.5139 182.356C43.5895 181.612 43.4355 180.253 44.1786 179.329L47.3233 175.405C48.0664 174.48 49.4168 174.326 50.3502 175.069C51.2746 175.812 51.4287 177.172 50.6855 178.096L47.5408 182.02C47.1149 182.546 46.4896 182.827 45.8642 182.827H45.8552Z" fill="#DD528B"/>
<path d="M72.7619 149.277C72.2907 149.277 71.8103 149.123 71.4207 148.806C70.4963 148.063 70.3422 146.703 71.0853 145.779L74.23 141.855C74.9732 140.93 76.3235 140.776 77.257 141.519C78.1813 142.263 78.3354 143.622 77.5923 144.546L74.4475 148.47C74.0216 148.996 73.3963 149.277 72.771 149.277H72.7619Z" fill="#DD528B"/>
<path d="M57.2377 187.83C57.1289 187.83 57.0202 187.83 56.9114 187.802C55.7333 187.621 54.9267 186.525 55.108 185.346L55.8692 180.38C56.0505 179.202 57.147 178.395 58.3252 178.577C59.5033 178.758 60.3099 179.855 60.1286 181.033L59.3674 185.999C59.2042 187.059 58.2889 187.83 57.2467 187.83H57.2377Z" fill="#DD528B"/>
<path d="M63.7718 145.316C63.6631 145.316 63.5543 145.316 63.4456 145.289C62.2675 145.108 61.4609 144.011 61.6421 142.833L62.4034 137.867C62.5847 136.689 63.6812 135.882 64.8594 136.064C66.0375 136.245 66.8441 137.341 66.6628 138.519L65.9016 143.486C65.7384 144.546 64.8231 145.316 63.7809 145.316H63.7718Z" fill="#DD528B"/>
<path d="M60.9174 188.11C50.441 188.11 40.5266 181.766 36.5028 171.435C31.2646 157.986 37.9528 142.788 51.4017 137.55C64.8505 132.311 80.0485 139 85.2867 152.449C90.5248 165.897 83.8367 181.095 70.3878 186.334C67.2793 187.548 64.0802 188.119 60.9264 188.119L60.9174 188.11ZM60.863 140.069C58.2258 140.069 55.5523 140.549 52.9604 141.555C41.7228 145.933 36.1403 158.629 40.5175 169.867C44.8857 181.104 57.5914 186.687 68.829 182.31C80.0666 177.933 85.6492 165.236 81.2719 153.998C77.9097 145.362 69.6265 140.06 60.8721 140.06L60.863 140.069Z" fill="#F9CB71"/>
<path d="M60.8809 164.085C60.02 164.085 59.2044 163.569 58.8781 162.717L55.4343 153.872C54.9993 152.766 55.5521 151.516 56.6578 151.09C57.7634 150.655 59.0141 151.207 59.44 152.313L62.8838 161.158C63.3188 162.264 62.766 163.514 61.6603 163.94C61.4066 164.04 61.1438 164.085 60.8809 164.085Z" fill="#DD528B"/>
<path d="M116.516 146.277C115.229 143.54 113.58 141.166 111.74 139.226C111.396 137.867 110.725 136.571 109.71 135.474L104.164 129.466C100.928 125.968 95.4637 125.75 91.9655 128.986L89.3011 131.451C84.4889 135.891 80.7823 140.939 83.3289 143.984C84.8332 145.778 87.1351 145.389 89.3736 144.256L91.5214 146.585C91.603 149.839 92.4368 153.391 94.0771 156.871C98.4996 166.251 107.118 171.489 113.317 168.562C119.516 165.635 120.957 155.666 116.525 146.277H116.516Z" fill="#ADBED9"/>
<path d="M118.455 145.352C117.168 142.643 115.564 140.223 113.67 138.157C113.199 136.634 112.392 135.22 111.278 134.015L105.731 128.007C101.699 123.638 94.8564 123.376 90.4882 127.408L87.8419 129.855C87.8419 129.855 87.8238 129.864 87.8238 129.873C82.9028 134.423 77.8368 140.803 81.6613 145.37C82.7216 146.639 84.1535 147.328 85.821 147.373C85.8753 147.373 85.9297 147.373 85.9841 147.373C86.8994 147.373 87.851 147.165 88.7935 146.83L89.3916 147.473C89.6001 150.881 90.5245 154.424 92.1104 157.786C94.4304 162.698 97.9014 166.74 101.898 169.169C104.481 170.737 107.1 171.534 109.583 171.534C111.205 171.534 112.773 171.19 114.223 170.51C117.893 168.779 120.313 165.1 121.029 160.152C121.691 155.53 120.784 150.282 118.464 145.361L118.455 145.352ZM97.6476 137.35C96.7776 136.534 95.4183 136.58 94.6026 137.45C92.3732 139.824 88.2135 143.141 85.9297 143.078C85.5038 143.069 85.2319 142.933 84.96 142.615C83.7456 141.165 86.0113 137.404 90.7419 133.045L93.4064 130.589C96.0345 128.161 100.14 128.324 102.569 130.943L108.115 136.951C109.293 138.22 109.9 139.879 109.828 141.609C109.755 143.34 109.021 144.945 107.752 146.114L105.088 148.579C102.46 151.007 98.3455 150.844 95.9257 148.216L92.7176 144.745C95.3276 142.942 97.3758 140.803 97.7473 140.404C98.563 139.534 98.5086 138.175 97.6476 137.359V137.35ZM116.761 159.526C116.262 162.997 114.703 165.508 112.383 166.604C110.063 167.701 107.127 167.302 104.136 165.48C100.856 163.487 97.9739 160.097 96.0073 155.937C95.527 154.913 95.1192 153.862 94.7748 152.811C96.5601 153.98 98.6264 154.578 100.693 154.578C103.312 154.578 105.94 153.636 108.015 151.714L110.68 149.249C111.939 148.08 112.882 146.666 113.471 145.099C113.861 145.769 114.232 146.458 114.567 147.174C116.534 151.334 117.313 155.711 116.77 159.508L116.761 159.526Z" fill="#446993"/>
<path d="M34.3727 193.157C41.2059 190.493 44.5953 182.799 41.9309 175.956C39.2665 169.123 31.5723 165.734 24.7301 168.398C17.8969 171.063 17.6884 177.524 20.3438 184.357C23.0082 191.191 27.5304 195.822 34.3636 193.157H34.3727Z" fill="#ADBED9"/>
<path d="M30.6298 196.067C25.4642 196.067 21.1232 192.279 18.3501 185.137C16.755 181.032 16.2566 177.407 16.8728 174.38C17.6341 170.664 20.081 167.9 23.9507 166.387C31.8896 163.296 40.8524 167.239 43.9337 175.177C47.0241 183.107 43.0818 192.079 35.143 195.16C33.5843 195.768 32.0708 196.067 30.6208 196.067H30.6298ZM29.5423 169.649C28.2011 169.649 26.8417 169.894 25.5186 170.411C23.0082 171.389 21.5582 172.975 21.096 175.25C20.6519 177.425 21.096 180.307 22.3648 183.588C23.6426 186.859 25.2648 189.279 27.0683 190.584C28.9533 191.952 31.092 192.134 33.6024 191.155C39.3209 188.925 42.1665 182.464 39.9371 176.745C38.2243 172.35 34.0102 169.649 29.5514 169.649H29.5423Z" fill="#446993"/>
</svg>
