<svg width="153" height="143" viewBox="0 0 153 143" fill="none" xmlns="http://www.w3.org/2000/svg">
<path d="M140.374 78.6396C139.752 78.6396 139.13 78.5619 138.516 78.3924C136.672 77.8978 135.132 76.7181 134.171 75.065C133.698 74.2526 133.98 73.2141 134.793 72.7408C135.605 72.2745 136.643 72.55 137.117 73.3625C137.618 74.2314 138.424 74.846 139.392 75.1074C140.359 75.3688 141.37 75.2345 142.231 74.733C143.044 74.2596 144.082 74.5422 144.556 75.3546C145.029 76.1671 144.746 77.2055 143.934 77.6789C142.832 78.3147 141.61 78.6396 140.366 78.6396H140.374Z" fill="#FFBE8E"/>
<path d="M125.696 107.849C124.905 107.849 124.198 107.297 124.036 106.492C123.845 105.574 124.432 104.677 125.357 104.479C127.377 104.055 128.684 102.07 128.261 100.049C128.07 99.1309 128.656 98.2338 129.582 98.036C130.5 97.8452 131.397 98.4316 131.595 99.357C132.4 103.214 129.914 107.008 126.049 107.806C125.929 107.827 125.816 107.841 125.703 107.841L125.696 107.849Z" fill="#FFBE8E"/>
<path d="M8.60715 72.1052C7.66757 72.1052 6.90461 71.3422 6.90461 70.4026C6.90461 69.2582 6.32531 68.7213 5.12435 67.7252C3.85981 66.6726 2.12195 65.2244 2.12195 62.4339C2.12195 59.6435 3.85981 58.2023 5.12435 57.1426C6.32531 56.1395 6.90461 55.6096 6.90461 54.4652C6.90461 53.3208 6.32531 52.7909 5.12435 51.7878C3.85981 50.7352 2.12195 49.2869 2.12195 46.4965C2.12195 45.5569 2.88491 44.7939 3.82449 44.7939C4.76406 44.7939 5.52703 45.5569 5.52703 46.4965C5.52703 47.6409 6.10631 48.1708 7.30726 49.1739C8.5718 50.2265 10.3097 51.6747 10.3097 54.4652C10.3097 57.2557 8.5718 58.6968 7.30726 59.7565C6.10631 60.7597 5.52703 61.2895 5.52703 62.4339C5.52703 63.5784 6.10631 64.1153 7.30726 65.1114C8.5718 66.164 10.3097 67.6122 10.3097 70.4026C10.3097 71.3422 9.54672 72.1052 8.60715 72.1052Z" fill="#FFA7C7"/>
<path d="M122.175 57.7571C121.229 50.9611 118.58 43.282 113.309 36.6696C115.874 28.6444 120.551 10.7713 113.543 5.47298C106.485 0.139305 88.3013 14.1481 80.3608 20.8311C75.9526 20.711 70.3575 21.1914 64.0066 22.1027C57.6415 22.9575 52.1312 24.0243 47.9208 25.3383C38.4615 21.0784 17.148 12.5445 11.8072 19.609C6.50888 26.6169 15.8905 42.5473 20.5318 49.5694C17.268 57.3685 16.8089 65.4715 17.7484 72.2675C18.5679 78.1451 20.0797 83.9168 22.305 89.5896C26.3318 99.8613 35.4661 107.088 46.2394 108.671C45.971 110.204 45.8297 111.779 45.8297 113.39C45.8297 128.43 59.4597 126.5 74.5 126.5C89.5403 126.5 100.297 128.43 100.297 113.39C100.297 109.66 99.5479 106.106 98.1915 102.871C99.562 102.433 100.933 101.981 102.296 101.5C113.514 97.5583 121.356 87.4985 122.514 75.6655C123.108 69.5971 122.995 63.6347 122.175 57.7571Z" fill="#ADBED9"/>
<path d="M58.2703 27.1749C59.6196 36.9026 63.5474 44.391 67.0231 43.9106C70.5059 43.4231 72.2438 35.1507 70.8945 25.4229C70.7108 24.0877 70.4777 22.802 70.2022 21.5728C66.0694 21.9542 61.965 22.5265 57.8888 23.2894C57.9594 24.5469 58.0866 25.8538 58.2703 27.1749Z" fill="#446993"/>
<path d="M71.389 22.0956C72.7383 31.8163 76.6591 39.3117 80.1418 38.8313C83.4975 38.365 85.2283 30.6436 84.1403 21.3821C81.8938 21.1136 79.5979 21.0288 77.2666 21.1136C75.2744 21.1913 73.2822 21.3114 71.3042 21.4809C71.3254 21.6929 71.3536 21.8907 71.3819 22.1026L71.389 22.0956Z" fill="#446993"/>
<path d="M44.4169 26.8149C45.8863 36.0623 49.6658 43.0632 53.0355 42.597C56.5183 42.1095 58.2491 33.8299 56.8998 24.1092C56.8715 23.8973 56.8433 23.6995 56.808 23.4946C54.5685 23.9256 52.3291 24.4271 50.1038 24.9782C48.1469 25.4656 46.2466 26.0802 44.4239 26.8149H44.4169Z" fill="#446993"/>
<path d="M108.364 21.4457C108.364 21.4457 109.685 23.5862 110.208 26.1153C110.696 28.4536 109.523 30.4529 107.764 31.4631C103.235 27.5565 97.9018 24.5965 92.1019 22.8233C91.9747 21.5376 92.335 20.2024 93.2463 19.1074C96.9057 14.7203 102.119 9.81053 106.45 10.9126C113.988 12.8341 108.364 21.4386 108.364 21.4386V21.4457Z" fill="white"/>
<path d="M57.3589 110.903C54.5049 110.903 51.5873 110.811 48.6979 110.635C42.5518 110.253 36.6883 108.134 31.729 104.51C26.7839 100.893 22.9762 95.9475 20.7297 90.2041C18.469 84.4395 16.9078 78.4842 16.0742 72.4935C15.1205 65.6339 14.8803 52.3174 23.9511 40.1806C24.5162 39.4318 25.5759 39.2764 26.3318 39.8345C27.0806 40.3996 27.236 41.4593 26.6779 42.2152C18.3277 53.37 18.5609 65.6763 19.4439 72.0202C20.2422 77.7424 21.7399 83.4434 23.9016 88.9608C27.9849 99.3738 37.8045 106.544 48.9169 107.237C51.7356 107.413 54.5826 107.498 57.366 107.498C58.3056 107.498 59.0685 108.261 59.0685 109.2C59.0685 110.14 58.3056 110.903 57.366 110.903H57.3589Z" fill="#446993"/>
<path d="M123.857 57.5241C123.15 52.4448 121.102 44.0663 115.196 36.3237C118.297 26.3274 121.992 9.73301 114.567 4.11676C110.858 1.31217 104.931 2.31532 96.4396 7.16861C90.2794 10.6938 84.0485 15.5329 79.7533 19.1217C75.5359 19.0652 70.1881 19.4961 63.7735 20.4145C54.7169 21.6296 47.9632 23.1979 43.7034 25.077C41.0613 26.2427 38.5604 27.5637 36.2645 29.0049C35.4662 29.5065 35.2331 30.552 35.7276 31.3503C36.0525 31.866 36.6036 32.1486 37.1687 32.1486C37.4796 32.1486 37.7904 32.0638 38.073 31.8872C40.2276 30.5379 42.5801 29.2945 45.0739 28.1925C49.0441 26.4475 55.4869 24.964 64.2468 23.7842C72.9785 22.5338 79.5838 22.2018 83.879 22.8023C86.5776 23.1767 89.1773 23.7348 91.6216 24.4483C92.5259 24.7097 93.4655 24.194 93.7269 23.2968C93.9882 22.3925 93.4725 21.453 92.5753 21.1916C90.0816 20.4639 87.4253 19.8917 84.6914 19.489C98.1351 8.72986 108.654 3.90482 112.525 6.82951C116.545 9.86723 116.538 19.6303 112.589 33.2224C111.084 31.6117 109.389 30.0575 107.474 28.5881C106.725 28.0158 105.659 28.1642 105.094 28.906C104.521 29.6548 104.67 30.7215 105.411 31.2867C116.482 39.7499 119.618 51.6465 120.494 57.9904C121.292 63.7197 121.398 69.6114 120.826 75.5032C119.738 86.6368 112.243 96.2091 101.738 99.9039C100.855 100.215 100.389 101.183 100.699 102.073C100.947 102.772 101.604 103.21 102.303 103.21C102.487 103.21 102.678 103.182 102.868 103.111C108.675 101.07 113.748 97.4313 117.527 92.5992C121.299 87.7671 121.921 81.8118 122.522 75.6728C123.122 69.5125 124.697 63.5219 123.864 57.5312L123.857 57.5241Z" fill="#446993"/>
<path d="M42.6224 73.5394C42.1703 70.3038 44.4309 67.3156 47.6664 66.8705C50.9019 66.4254 53.8902 68.679 54.3353 71.9145C54.7874 75.1501 52.5268 78.1383 49.2912 78.5834C46.0557 79.0355 43.0674 76.7749 42.6224 73.5394Z" fill="#446993"/>
<path d="M86.8813 67.3934C86.4292 64.1579 88.6898 61.1696 91.9253 60.7246C95.1608 60.2724 98.1491 62.533 98.5942 65.7686C99.0463 69.0041 96.7857 71.9924 93.5502 72.4374C90.3146 72.8896 87.3264 70.6289 86.8813 67.3934Z" fill="#446993"/>
<path d="M34.8375 84.9766C34.0039 84.9766 33.2762 84.362 33.1562 83.5072C33.029 82.5747 33.6789 81.7199 34.6044 81.5927L43.8588 80.307C44.7913 80.1727 45.6461 80.8297 45.7733 81.7552C45.9004 82.6877 45.2505 83.5425 44.3251 83.6696L35.0706 84.9554C34.9929 84.9695 34.9152 84.9695 34.8375 84.9695V84.9766Z" fill="#446993"/>
<path d="M37.7339 93.4329C37.1263 93.4329 36.54 93.1079 36.2362 92.5357C35.7912 91.7092 36.102 90.6778 36.9285 90.2327L44.1131 86.3755C44.9396 85.9304 45.9711 86.2413 46.4161 87.0678C46.8612 87.8944 46.5503 88.9258 45.7238 89.3708L38.5392 93.228C38.2849 93.3622 38.0094 93.4329 37.7339 93.4329Z" fill="#446993"/>
<path d="M99.4774 75.9976C98.6438 75.9976 97.9161 75.383 97.796 74.5282C97.6689 73.5957 98.3188 72.7409 99.2443 72.6137L108.499 71.328C109.424 71.1937 110.286 71.8507 110.413 72.7762C110.54 73.7087 109.89 74.5635 108.965 74.6907L99.7105 75.9764C99.6328 75.9905 99.5551 75.9905 99.4774 75.9905V75.9976Z" fill="#446993"/>
<path d="M108.266 83.6344C108.145 83.6344 108.018 83.6203 107.898 83.592L99.9365 81.84C99.0182 81.6351 98.4389 80.7309 98.6437 79.8125C98.8486 78.8941 99.7529 78.3148 100.671 78.5197L108.633 80.2717C109.551 80.4766 110.131 81.3808 109.926 82.2992C109.749 83.0904 109.05 83.6344 108.266 83.6344Z" fill="#446993"/>
<path d="M50.3793 60.8302C49.5457 60.8302 48.8181 60.2156 48.698 59.3608C48.5709 58.4283 49.2208 57.5735 50.1462 57.4463L54.9995 56.7752C55.925 56.641 56.7868 57.298 56.914 58.2234C57.0411 59.1559 56.3912 60.0107 55.4658 60.1379L50.6125 60.809C50.5348 60.8232 50.4571 60.8231 50.3793 60.8231V60.8302Z" fill="white"/>
<path d="M82.339 56.3869C81.5054 56.3869 80.7777 55.7723 80.6576 54.9175C80.5305 53.985 81.1804 53.1302 82.1058 53.003L86.9591 52.3319C87.8846 52.1976 88.7464 52.8546 88.8736 53.7801C89.0008 54.7126 88.3508 55.5674 87.4254 55.6946L82.5721 56.3657C82.4944 56.3798 82.4167 56.3798 82.339 56.3798V56.3869Z" fill="white"/>
<path d="M62.6289 87.9862C64.0629 89.3002 65.7443 90.3811 67.5386 91.1158C69.7074 92.0059 72.0246 92.4015 74.2216 92.0836C78.2272 91.5114 81.9502 88.5867 84.1825 84.9485C85.8356 82.2711 86.6834 79.2192 86.2666 76.4288C86.1182 75.4327 85.8144 74.479 85.327 73.5818C81.2578 66.1217 76.7931 72.3738 71.5371 73.1226C66.2812 73.8714 60.234 69.11 58.4184 77.4107C57.5848 81.2114 59.5134 85.1393 62.643 87.9862H62.6289Z" fill="#446993"/>
<path d="M62.629 87.9861C64.0631 89.3001 65.7444 90.3809 67.5388 91.1156C69.7076 92.0058 72.0248 92.4014 74.2218 92.0835C78.2274 91.5112 81.9503 88.5866 84.1827 84.9484C82.7486 83.6344 81.0673 82.5535 79.2729 81.8188C77.1041 80.9287 74.787 80.5331 72.5899 80.851C68.5844 81.4232 64.8614 84.3479 62.629 87.9932V87.9861Z" fill="#FFA7C7"/>
<path d="M86.8035 72.7692C83.2006 66.1427 78.6653 68.3327 75.3591 69.9293C74.4266 70.3814 73.4729 70.8335 72.5333 71.1373L72.1518 68.3751L73.0702 68.2479C74.0027 68.1208 74.6526 67.2589 74.5184 66.3335C74.3912 65.401 73.5294 64.751 72.6039 64.8852L67.4045 65.6058C66.472 65.733 65.8291 66.5948 65.9563 67.5203C66.0764 68.368 66.804 68.9897 67.6376 68.9897C67.7153 68.9897 67.793 68.9897 67.8707 68.9756L68.7891 68.8484L69.1494 71.4481C68.4218 71.3775 67.68 71.2503 66.9524 71.1302C63.3283 70.5227 58.369 69.6891 56.7513 77.0502C55.9389 80.745 57.274 84.8 60.4177 88.1839C63.7451 91.7655 68.4147 93.899 72.724 93.899C73.3104 93.899 73.8967 93.8566 74.469 93.7789C79.2233 93.1007 83.9071 89.4555 86.4008 84.4891C88.4707 80.3635 88.6262 76.0966 86.8176 72.7763L86.8035 72.7692ZM83.349 82.9562C81.3709 86.8981 77.6056 89.8935 73.9745 90.4092C70.3504 90.9249 65.8927 89.1022 62.8973 85.8667C60.5237 83.3094 59.4923 80.3635 60.0574 77.7708C60.6932 74.8885 61.6823 74.1114 63.4413 74.1114C64.2467 74.1114 65.2145 74.2739 66.3731 74.4717C68.0262 74.7472 69.8982 75.0651 71.7562 74.8038C73.6142 74.5424 75.3237 73.7158 76.8285 72.9882C80.2124 71.3563 81.7524 70.6145 83.8152 74.394C85.0798 76.7182 84.9102 79.8407 83.349 82.9562Z" fill="#446993"/>
<path d="M16.6648 108.751C16.6539 106.733 16.1849 104.939 16.2391 103.105C16.4649 95.5309 17.8799 88.2558 22.1197 81.7536C25.6993 76.2663 30.7682 72.7038 37.0437 70.7874C39.1895 70.1327 40.6628 71.447 40.3419 73.6924C39.7442 77.8888 39.5438 82.0909 40.2274 86.2917C40.5692 88.3921 41.1151 90.4474 42.49 92.1314C45.2492 95.5046 47.7505 95.2982 50.0909 91.6414C50.5803 90.874 50.8232 89.9471 51.1367 89.0801C51.4896 88.0973 52.2181 87.4307 53.2027 87.4871C53.9274 87.5275 54.9663 87.9064 55.2692 88.4537C58.2451 93.8239 61.6669 99.0447 63.8721 104.722C69.8172 120.039 61.4757 135.474 45.3872 139.609C36.4374 141.911 27.8921 141.003 20.148 135.725C14.1539 131.642 10.725 125.769 9.13903 118.892C8.30383 115.273 8.05675 111.517 7.57634 107.818C7.4405 106.774 7.86044 105.923 8.81309 105.396C9.73672 104.884 10.6204 105.079 11.4557 105.628C13.0088 106.645 14.556 107.663 16.2611 108.781L16.6648 108.751Z" fill="#F37F3C"/>
<path d="M25.086 114.702C25.0767 113.575 25.0398 112.55 25.0656 111.526C25.1735 107.295 25.9191 103.233 28.1797 99.6073C30.0883 96.5477 32.7983 94.5662 36.1577 93.5064C37.3063 93.1443 38.0981 93.8811 37.9301 95.1351C37.617 97.4786 37.5169 99.8259 37.8905 102.174C38.0773 103.348 38.3734 104.497 39.113 105.441C40.5974 107.33 41.9373 107.219 43.1851 105.18C43.446 104.752 43.5745 104.235 43.741 103.751C43.9284 103.202 44.3177 102.831 44.8453 102.864C45.2337 102.888 45.7911 103.102 45.9543 103.408C47.5583 106.413 49.4008 109.336 50.5923 112.512C53.8045 121.08 49.3615 129.689 40.7477 131.971C35.956 133.242 31.3755 132.719 27.2167 129.757C23.9977 127.466 22.1502 124.178 21.2884 120.334C20.8346 118.31 20.6957 116.212 20.4319 114.144C20.3573 113.56 20.5808 113.086 21.0904 112.793C21.5844 112.509 22.0583 112.619 22.5068 112.927C23.3408 113.498 24.1716 114.069 25.0873 114.697L25.086 114.702Z" fill="#FFDD8E"/>
<path d="M113.506 62.8062C113.889 61.4083 113.913 60.0768 114.305 58.8195C115.929 53.6252 118.318 48.8684 122.51 45.1935C126.049 42.0925 130.245 40.6111 134.956 40.502C136.566 40.4651 137.331 41.6595 136.674 43.1501C135.447 45.9363 134.494 48.8034 134.153 51.8409C133.982 53.3597 133.961 54.8868 134.586 56.3178C135.84 59.1852 137.61 59.5272 139.937 57.452C140.424 57.0161 140.772 56.4222 141.157 55.8834C141.591 55.2721 142.224 54.9523 142.894 55.1821C143.387 55.3505 144.032 55.8139 144.136 56.2511C145.153 60.5415 146.508 64.815 146.932 69.1687C148.075 80.9132 139.316 89.9706 127.388 89.7123C120.753 89.5699 115.02 87.2854 110.687 82.1348C107.333 78.1499 106.1 73.4236 106.336 68.3608C106.46 65.6961 107.017 63.0511 107.401 60.3996C107.51 59.6514 107.965 59.1441 108.726 58.9648C109.464 58.7897 110.037 59.0956 110.509 59.6369C111.386 60.6414 112.258 61.645 113.221 62.749L113.506 62.8062Z" fill="#F37F3C"/>
<path d="M118.176 68.554C118.388 67.7723 118.561 67.0568 118.777 66.3535C119.672 63.4482 120.975 60.7836 123.241 58.7146C125.154 56.9687 127.412 56.1235 129.94 56.0416C130.805 56.0138 131.209 56.6768 130.85 57.5114C130.18 59.0714 129.656 60.6753 129.459 62.3715C129.36 63.2196 129.343 64.0717 129.671 64.8673C130.332 66.4616 131.28 66.6445 132.538 65.4763C132.801 65.231 132.99 64.898 133.199 64.5957C133.435 64.2527 133.776 64.0714 134.135 64.1967C134.399 64.2884 134.743 64.5441 134.796 64.7876C135.323 67.1768 136.031 69.555 136.239 71.9822C136.8 78.5297 132.059 83.6221 125.66 83.5312C122.1 83.4813 119.034 82.2323 116.732 79.3779C114.95 77.1696 114.309 74.5381 114.459 71.7124C114.537 70.2251 114.847 68.7469 115.066 67.2659C115.127 66.8479 115.374 66.5628 115.783 66.4594C116.18 66.3584 116.486 66.5266 116.736 66.8265C117.203 67.383 117.666 67.9391 118.178 68.5507L118.176 68.554Z" fill="#FFDD8E"/>
<path d="M8.40937 130.45C6.52315 124.961 6.91168 119.846 12.4078 117.953C17.8969 116.067 23.8805 118.984 25.7738 124.474C27.66 129.963 24.7424 135.946 19.2533 137.84C13.7642 139.726 10.3026 135.939 8.41642 130.45H8.40937Z" fill="#ADBED9"/>
<path d="M16.5264 140.023C14.6684 140.023 12.9447 139.43 11.4399 138.25C9.50427 136.731 7.94304 134.294 6.81272 131.002C5.68241 127.71 5.4069 124.827 6.00031 122.439C6.72795 119.522 8.75544 117.417 11.8638 116.35C18.236 114.16 25.1945 117.558 27.3915 123.93C28.4512 127.017 28.2463 130.331 26.8193 133.262C25.3852 136.194 22.8985 138.391 19.8184 139.458C18.6952 139.846 17.5931 140.037 16.5405 140.037L16.5264 140.023ZM15.8199 119.077C14.8733 119.077 13.9054 119.232 12.9588 119.557C10.9384 120.25 9.73742 121.465 9.29236 123.259C8.86142 124.976 9.11574 127.265 10.02 129.893C10.9242 132.52 12.1393 134.484 13.531 135.572C14.9863 136.71 16.6818 136.929 18.7022 136.229C20.9275 135.466 22.7219 133.877 23.7533 131.758C24.7847 129.638 24.9331 127.25 24.1701 125.025C22.9126 121.373 19.4864 119.077 15.827 119.077H15.8199Z" fill="#446993"/>
<path d="M98.0998 124.693C98.0998 124.693 113.769 106.262 125.418 92.3593L111.416 88.3325C111.416 88.3325 91.7488 108.064 84.3735 110.006L98.0998 124.7V124.693Z" fill="#ADBED9"/>
<path d="M125.418 92.359C121.815 96.7248 117.372 98.9996 112.999 95.4038C108.633 91.8009 108.011 85.3439 111.607 80.9781C115.21 76.6123 121.667 75.9906 126.033 79.5864C130.399 83.1893 129.014 87.9861 125.411 92.3519L125.418 92.359Z" fill="#ADBED9"/>
<path d="M127.121 78.2795C122.041 74.0902 114.496 74.8179 110.307 79.8972C108.004 82.6877 107.192 86.2199 107.764 89.5332C99.004 97.9964 88.3508 107.201 83.9496 108.36C83.0383 108.6 82.5014 109.526 82.7416 110.437C82.9394 111.2 83.6317 111.701 84.3876 111.701C84.5289 111.701 84.6773 111.68 84.8185 111.645C87.3335 110.981 93.7692 107.668 108.979 93.0866C109.693 94.443 110.682 95.6792 111.932 96.7107C113.691 98.1659 115.577 98.8794 117.499 98.8794C117.576 98.8794 117.654 98.8795 117.732 98.8724C107.559 110.946 96.9412 123.443 96.814 123.591C96.2065 124.304 96.2912 125.378 97.0047 125.986C97.3227 126.254 97.7183 126.388 98.1068 126.388C98.5872 126.388 99.0676 126.184 99.3996 125.788C99.555 125.604 114.998 107.442 126.485 93.7295L126.718 93.4539C126.718 93.4539 126.732 93.4398 126.739 93.4257C131.571 87.5692 131.712 82.0448 127.128 78.2653L127.121 78.2795ZM114.087 94.0897C110.448 91.0944 109.933 85.6971 112.928 82.0589C114.616 80.0102 117.061 78.9506 119.533 78.9506C121.448 78.9506 123.376 79.5864 124.959 80.9004C126.096 81.8329 129.544 84.6799 124.111 91.2781C123.122 92.479 120.65 95.4814 117.584 95.4814C116.481 95.4814 115.302 95.0929 114.087 94.0897Z" fill="#446993"/>
<path d="M12.8527 2.39991L56.5041 22.4277C50.2591 39.6155 35.897 52.5788 18.1652 57.0365L2.7011 11.5696C0.595885 5.3811 6.91859 -0.31991 12.8598 2.39991H12.8527Z" fill="white"/>
<path d="M17.8616 57.3052C26.7204 55.0799 34.7528 50.7211 41.3439 44.7728C47.928 38.8316 53.078 31.2938 56.2005 22.6964L45.6674 17.8643C42.5307 24.5261 38.1154 30.4178 32.7535 35.264C27.3916 40.1032 21.0689 43.8968 14.1245 46.3411L17.8616 57.3122V57.3052Z" fill="#FFA7C7"/>
<path d="M10.253 34.9177C15.3536 32.5723 20.0444 29.471 24.1771 25.7409C28.3027 22.0179 31.8632 17.6733 34.7173 12.8341L23.3294 7.60645C21.0617 10.7572 18.4619 13.6466 15.5938 16.2392C12.7185 18.8319 9.58191 21.1137 6.21216 23.0564L10.246 34.9177H10.253Z" fill="#FFA7C7"/>
<path d="M18.1582 58.7321C17.4447 58.7321 16.7877 58.2799 16.5475 57.5806L1.0834 12.1137C-0.110495 8.59555 0.857338 4.86551 3.61248 2.37882C6.36762 -0.107872 10.1824 -0.694225 13.5522 0.852893L57.2035 20.8807C58.0089 21.248 58.3974 22.1734 58.0937 23.0071C51.6509 40.7459 36.872 54.0836 18.5679 58.6826C18.4267 58.7179 18.2924 58.7321 18.1511 58.7321H18.1582ZM9.73736 3.40316C8.16905 3.40316 6.80561 4.08134 5.89429 4.90082C4.53791 6.12297 3.4076 8.37654 4.30478 11.0187L19.2603 54.9808C35.2684 50.4596 48.2175 38.7679 54.3495 23.3038L12.1463 3.94006C11.3127 3.55858 10.5074 3.39611 9.74443 3.39611L9.73736 3.40316Z" fill="#EC4E8F"/>
</svg>
