<svg width="139" height="152" viewBox="0 0 139 152" fill="none" xmlns="http://www.w3.org/2000/svg">
<path d="M105.807 121.637C114.781 116.257 114.236 100.892 90.3936 96.8347L72.589 109.431C69.4289 121.664 97.0227 126.9 105.807 121.643V121.637Z" fill="#ADBED9"/>
<path d="M32.2288 8.0718C37.9972 2.84962 54.4747 14.3357 61.7016 19.8525C65.4859 19.4756 70.3346 19.5647 75.8599 20.0033C81.3918 20.3871 86.201 21.0039 89.8999 21.9291C97.797 17.5224 118.492 35.43 114.892 42.0228C118.157 48.8281 119.031 56.0857 118.611 62.2536C118.249 67.5854 117.283 72.8624 115.7 78.0914C112.606 88.3028 104.196 95.7043 94.0127 97.0818C86.1484 98.1441 78.3433 98.3908 70.5908 97.822C62.8382 97.2531 55.1448 95.8619 47.504 93.6552C37.6096 90.7974 30.2775 82.2377 28.5891 71.67C27.7284 66.2559 27.4788 60.8898 27.8401 55.558C28.254 49.3969 30.0936 42.338 34.2458 36.081C31.5784 29.029 26.4998 13.2529 32.2288 8.06494V8.0718Z" fill="#ADBED9"/>
<path d="M70.1184 23.4024C69.5206 32.2225 71.4981 39.5555 74.5203 39.7748C77.5491 40.001 80.4924 33.0312 81.0903 24.2111C81.1691 23.0049 81.2085 21.8261 81.1888 20.6885C77.6345 20.2567 74.067 19.9963 70.4864 19.9072C70.3221 21.0312 70.1973 22.2031 70.1119 23.4024H70.1184Z" fill="#446993"/>
<path d="M82.0946 21.374C81.4967 30.1872 83.4677 37.5202 86.4965 37.7464C89.4135 37.9588 92.2583 31.4825 92.9941 23.1215C91.1414 22.4705 89.223 21.9633 87.2389 21.607C85.5438 21.3054 83.8422 21.0382 82.1406 20.8188C82.1209 21.0107 82.1077 21.1889 82.0946 21.3808V21.374Z" fill="#446993"/>
<path d="M58.483 20.5032C58.0691 28.9259 60.0138 35.7928 62.9375 36.0121C65.9662 36.2383 68.9095 29.2617 69.5008 20.4484C69.514 20.2565 69.5271 20.0783 69.5337 19.8864C67.5627 19.8522 65.5851 19.8727 63.6076 19.9481C61.8665 20.0098 60.1518 20.2017 58.483 20.5101V20.5032Z" fill="#446993"/>
<path d="M37.6223 22.1074C37.6223 22.1074 36.6105 24.1085 36.3083 26.4181C36.0258 28.5494 37.1558 30.2764 38.7261 31.0783C42.3987 27.2953 46.8203 24.3073 51.7149 22.3678C51.7477 21.2027 51.3601 20.024 50.5126 19.0988C47.1093 15.3775 42.3264 11.2861 38.6604 12.5402C32.2809 14.7264 37.6223 22.1074 37.6223 22.1074Z" fill="white"/>
<path d="M26.2823 55.4547C26.5911 50.8493 27.8722 43.1942 32.4909 35.875C29.2388 27.0548 25.1128 12.3615 31.2032 6.8446C34.2648 4.07589 39.4616 4.60359 47.0959 8.46882C52.6081 11.2581 58.2385 15.2193 62.1476 18.1799C65.7743 17.8783 70.3995 17.94 75.9643 18.3786C83.8416 18.92 89.7612 19.9206 93.5455 21.3529C95.8909 22.2439 98.1313 23.2787 100.194 24.4369C100.956 24.8618 101.239 25.8487 100.832 26.6436C100.549 27.1919 100.01 27.5003 99.4584 27.5003C99.2088 27.5003 98.9591 27.4386 98.7226 27.3084C96.791 26.2256 94.6952 25.2524 92.4877 24.4232C88.9728 23.1005 83.3489 22.1616 75.7475 21.6339C68.1657 21.0377 62.4696 21.1405 58.8101 21.9423C56.5106 22.4426 54.3031 23.1005 52.2467 23.8886C51.4386 24.197 50.5385 23.7653 50.2429 22.9223C49.9473 22.0794 50.3612 21.1405 51.1693 20.8321C53.2191 20.044 55.4069 19.3929 57.6735 18.8721C45.5914 10.141 36.3737 6.48138 33.253 9.31177C30.0206 12.2381 30.5856 20.9075 34.705 32.7567C35.881 31.2627 37.2213 29.803 38.7455 28.4049C39.3959 27.8087 40.3814 27.8772 40.9464 28.5557C41.5114 29.2342 41.4523 30.2622 40.8019 30.8515C31.7813 39.1028 29.7841 49.9584 29.3965 55.6946C29.0482 60.8756 29.2913 66.1732 30.1323 71.4228C31.7091 81.3189 38.6929 89.4331 47.9237 92.1059C55.4332 94.2715 63.0937 95.6559 70.7083 96.2178C78.3163 96.7798 86.0951 96.5331 93.8148 95.4845C103.308 94.1961 111.317 87.1784 114.215 77.6181C115.752 72.5399 116.711 67.3382 117.059 62.1503C117.447 56.4142 116.934 45.3736 109.116 35.8887C108.558 35.2033 108.63 34.1822 109.281 33.5928C109.931 33.0103 110.916 33.0857 111.481 33.7642C120.029 44.14 120.594 56.1469 120.173 62.3833C119.806 67.8248 118.8 73.28 117.191 78.5981C113.932 89.3646 104.911 97.2664 94.2156 98.7124C89.0451 99.4114 83.8548 99.761 78.7039 99.761C75.9511 99.761 73.2049 99.6582 70.4849 99.4594C62.6667 98.8838 54.7959 97.4651 47.0893 95.2378C36.6957 92.2361 28.8314 83.0939 27.051 71.9573C26.1706 66.4542 25.9144 60.903 26.2823 55.4616V55.4547Z" fill="#4C6396"/>
<path d="M53.6066 58.9709C54.4213 58.9709 55.1046 58.3129 55.1637 57.4563C55.2885 55.6059 54.7169 53.8104 53.5475 52.4123C52.378 51.0074 50.7618 50.1644 48.9814 50.0342C45.3153 49.7669 42.1223 52.659 41.8661 56.4763C41.807 57.3741 42.4508 58.1485 43.3115 58.217C44.1722 58.2855 44.9146 57.6071 44.9803 56.7093C45.1182 54.6739 46.8198 53.1387 48.7645 53.2827C49.7106 53.3512 50.5713 53.8035 51.1889 54.5437C51.8064 55.2907 52.1152 56.2433 52.0495 57.2301C51.9904 58.1279 52.6343 58.9023 53.4949 58.9709C53.5343 58.9709 53.5672 58.9709 53.6066 58.9709Z" fill="#4C6396"/>
<path d="M92.0735 61.8014C92.8882 61.8014 93.5715 61.1435 93.6306 60.2868C93.7554 58.4364 93.1839 56.6409 92.0144 55.2428C90.845 53.8379 89.2287 52.995 87.4483 52.8647C85.6744 52.7345 83.9531 53.3308 82.6128 54.5506C81.266 55.7705 80.4579 57.4564 80.333 59.3137C80.2739 60.2114 80.9177 60.9858 81.7784 61.0544C82.6325 61.1229 83.3815 60.4444 83.4472 59.5467C83.5129 58.5598 83.9465 57.662 84.656 57.0178C85.3722 56.3736 86.2854 56.0515 87.2315 56.12C88.1776 56.1886 89.0382 56.6409 89.6558 57.381C90.2734 58.128 90.5822 59.0806 90.5165 60.0675C90.4573 60.9653 91.1012 61.7397 91.9618 61.8082C92.0013 61.8082 92.0341 61.8082 92.0735 61.8082V61.8014Z" fill="#4C6396"/>
<path d="M43.1541 65.9399C43.9688 65.9399 44.6521 65.282 44.7112 64.4253C44.7703 63.5276 44.1265 62.7532 43.2658 62.6846L35.2176 62.0952C34.3569 62.0336 33.6145 62.7052 33.5488 63.603C33.4897 64.5007 34.1336 65.2751 34.9942 65.3437L43.0424 65.9331C43.0818 65.9331 43.1147 65.9331 43.1541 65.9331V65.9399Z" fill="#446993"/>
<path d="M36.0376 73.3342C36.1822 73.3342 36.3267 73.3136 36.4778 73.2657L43.2317 71.2097C44.0596 70.9561 44.5326 70.0515 44.2895 69.188C44.0464 68.3245 43.1792 67.831 42.3514 68.0846L35.5975 70.1406C34.7696 70.3941 34.2966 71.2988 34.5397 72.1623C34.7368 72.875 35.3609 73.3342 36.0376 73.3342Z" fill="#446993"/>
<path d="M99.3457 70.0726C100.16 70.0726 100.844 69.4147 100.903 68.558C100.962 67.6602 100.318 66.8858 99.4573 66.8173L91.4091 66.2279C90.5485 66.1594 89.8061 66.8378 89.7404 67.7356C89.6812 68.6334 90.3251 69.4078 91.1858 69.4764L99.234 70.0657C99.2734 70.0657 99.3062 70.0657 99.3457 70.0657V70.0726Z" fill="#446993"/>
<path d="M97.3472 77.8509C97.9385 77.8509 98.5101 77.4945 98.7729 76.8914C99.1277 76.069 98.7795 75.1096 97.9977 74.7395L91.5854 71.7104C90.797 71.3403 89.8772 71.7035 89.5224 72.5191C89.1676 73.3415 89.5158 74.3009 90.2977 74.671L96.7099 77.7001C96.9202 77.7961 97.137 77.844 97.3538 77.844L97.3472 77.8509Z" fill="#446993"/>
<path d="M56.7728 47.2867C57.5874 47.2867 58.2707 46.6288 58.3299 45.7722C58.389 44.8744 57.7451 44.1 56.8845 44.0314L52.6666 43.723C51.8059 43.6545 51.0635 44.333 50.9978 45.2307C50.9387 46.1285 51.5825 46.9029 52.4432 46.9715L56.6611 47.2799C56.7005 47.2799 56.7334 47.2799 56.7728 47.2799V47.2867Z" fill="white"/>
<path d="M84.55 49.3291C85.3647 49.3291 86.0479 48.6712 86.1071 47.8145C86.1662 46.9167 85.5224 46.1423 84.6617 46.0738L80.4438 45.7654C79.5831 45.7037 78.8407 46.3753 78.775 47.2731C78.7159 48.1709 79.3597 48.9453 80.2204 49.0138L84.4383 49.3222C84.4777 49.3222 84.5106 49.3222 84.55 49.3222V49.3291Z" fill="white"/>
<path d="M53.2781 65.1728C53.6854 66.9204 54.395 68.5446 55.3542 69.9906C56.7733 72.1425 58.7377 73.8901 61.0635 75.0004C62.4169 75.6514 63.8952 76.0763 65.4588 76.2545C69.7096 76.7137 73.7172 75.1511 76.5949 72.307C77.5147 71.3955 78.3162 70.3538 78.9732 69.2025C79.19 68.8256 79.3871 68.4349 79.5777 68.0374C80.6354 65.7348 79.1637 63.0346 76.7263 62.7673L57.1018 60.6291C54.6644 60.3687 52.6934 62.6988 53.2716 65.1728H53.2781Z" fill="#4C6396"/>
<path d="M61.0632 75.0072C62.4166 75.6582 63.8949 76.0831 65.4585 76.2613C69.7093 76.7205 73.7169 75.158 76.5946 72.3139C77.5144 71.4024 78.3159 70.3607 78.9729 69.2093C75.9507 67.3521 71.2006 65.2961 67.0024 67.311C63.816 68.8393 62.0356 72.0397 61.0566 75.014L61.0632 75.0072Z" fill="#FD80A6"/>
<path d="M52.8776 60.8211C53.9748 59.5121 55.6173 58.8405 57.2729 59.0187L65.6824 59.9371L65.9387 57.4151L65.5182 57.3739C64.6575 57.2985 64.0268 56.5036 64.0991 55.6127C64.1713 54.7149 64.9335 54.057 65.7875 54.1323L70.3011 54.5435C71.1618 54.6189 71.7925 55.4139 71.7202 56.3048C71.6479 57.1546 70.9647 57.792 70.1697 57.792C70.1237 57.792 70.0777 57.792 70.0317 57.792L69.0528 57.7029L68.79 60.2797L76.8908 61.1638C78.5464 61.342 80.0181 62.3562 80.8327 63.8777C81.6408 65.3785 81.6934 67.2015 80.9839 68.7503C78.3756 74.4248 72.8568 77.9817 66.911 77.9817C66.3788 77.9817 65.8401 77.9542 65.2948 77.8926C58.7577 77.1798 53.3178 72.2249 51.7607 65.5636C51.3731 63.8982 51.787 62.1232 52.871 60.828L52.8776 60.8211ZM54.8026 64.7823C56.0443 70.1073 60.4002 74.0685 65.6299 74.6441C70.8596 75.2129 75.9053 72.2729 78.1719 67.3317C78.4479 66.7286 78.4281 66.0433 78.1128 65.4539C77.7909 64.8508 77.2258 64.4602 76.5688 64.3917L56.951 62.2603C56.294 62.1849 55.6698 62.4453 55.2296 62.9662C54.8026 63.4733 54.6449 64.1381 54.796 64.7892L54.8026 64.7823Z" fill="#4C6396"/>
<path d="M23.9855 79.703C19.4982 80.683 16.752 85.4186 18.0134 90.0171C19.8596 96.7744 23.9001 107.075 32.7235 118.047C47.0592 135.879 74.3442 149.085 97.3653 149.729C99.4939 149.791 100.952 147.495 100.066 145.474L96.2024 136.633C94.9344 133.727 96.8594 130.403 99.9144 130.225L109.211 129.677C111.34 129.553 112.608 127.141 111.57 125.202C100.309 104.238 76.4071 85.1924 54.6146 80.2444C41.1988 77.2015 30.5751 78.2569 23.9855 79.6961V79.703Z" fill="#C96BFF"/>
<path d="M97.4434 151.36C98.9348 151.36 100.315 150.592 101.142 149.283C101.996 147.94 102.121 146.261 101.484 144.801L97.6208 135.96C97.2332 135.076 97.2858 134.09 97.7719 133.253C98.2581 132.417 99.0662 131.91 99.9992 131.855L109.296 131.307C110.84 131.218 112.2 130.32 112.942 128.908C113.684 127.497 113.678 125.818 112.922 124.413C101.372 102.9 76.9846 83.6633 54.9359 78.6605C41.2375 75.556 30.3642 76.6456 23.6563 78.1122C21.094 78.6742 18.8471 80.3327 17.5002 82.6628C16.1468 84.9929 15.7855 87.837 16.5016 90.4686C18.3806 97.3424 22.5066 107.89 31.514 119.095C46.0139 137.126 73.6865 150.702 97.3121 151.36C97.3515 151.36 97.3909 151.36 97.4369 151.36H97.4434ZM37.6109 79.9215C42.4661 79.9215 48.0637 80.4355 54.2789 81.8404C75.5327 86.6582 99.0531 105.231 110.209 126.003C110.531 126.606 110.321 127.14 110.209 127.339C110.104 127.545 109.782 128.018 109.118 128.052L99.8218 128.6C97.8705 128.717 96.1098 129.827 95.098 131.568C94.0862 133.308 93.9679 135.453 94.776 137.311L98.6392 146.151C98.9151 146.782 98.6589 147.296 98.5406 147.488C98.4158 147.68 98.0676 148.118 97.404 148.104C74.5931 147.467 47.8863 134.384 33.912 116.998C25.2594 106.231 21.3042 96.1431 19.5107 89.5708C19.0245 87.7821 19.261 85.9249 20.1808 84.3418C21.1006 82.7587 22.5657 81.6759 24.3067 81.2921C27.6903 80.552 32.1841 79.9146 37.6109 79.9146V79.9215Z" fill="#843AD9"/>
<path d="M105.806 121.637C112.172 117.826 113.749 108.972 105.602 102.708L103.231 107.697C103.231 107.697 75.7353 97.1911 72.5818 109.424C69.4216 121.657 97.0154 126.893 105.799 121.637H105.806Z" fill="#ADBED9"/>
<path d="M95.912 125.324C100.136 125.324 103.993 124.604 106.588 123.049C110.983 120.417 113.336 115.606 112.587 110.788C112.054 107.375 109.072 99.0691 92.8372 95.6424C91.9897 95.4643 91.3721 98.6579 92.2197 98.8361C102.153 100.933 108.618 105.6 109.505 111.316C110.051 114.832 108.342 118.251 105.038 120.232C99.4532 123.576 83.981 122.274 76.9445 116.62C74.3888 114.564 73.4625 112.358 74.1063 109.856C74.5005 108.321 75.394 107.197 76.8328 106.423C79.8879 104.771 85.2818 104.709 92.4299 106.251C98.0078 107.451 102.666 109.219 102.712 109.239C103.52 109.548 104.42 109.116 104.716 108.273C105.011 107.43 104.597 106.491 103.789 106.183C102.994 105.881 84.1846 98.7881 75.4006 103.537C73.1734 104.744 71.7214 106.587 71.0973 109.02C70.1118 112.817 71.4783 116.339 75.0458 119.211C79.8813 123.097 88.4814 125.344 95.9251 125.344L95.912 125.324Z" fill="#4C6396"/>
<path d="M21.8833 105.985C25.8581 102.689 31.6397 103.374 34.7998 107.52C37.96 111.666 37.303 117.697 33.3282 120.994C29.3533 124.29 25.418 122.07 22.2578 117.93C19.0977 113.784 17.9085 109.288 21.8833 105.992V105.985Z" fill="#ADBED9"/>
<path d="M29.3593 124.207C31.0675 124.207 32.7428 123.556 34.2999 122.261C38.9383 118.409 39.7136 111.337 36.0213 106.498C32.3289 101.66 25.5487 100.851 20.9104 104.703C18.6437 106.588 17.5794 109.034 17.8422 111.789C18.0524 114.03 19.1299 116.429 21.0352 118.93C22.9405 121.432 24.9443 123.063 26.9876 123.782C27.7825 124.063 28.5709 124.2 29.3593 124.2V124.207ZM27.5986 105.532C29.8455 105.532 32.0727 106.56 33.5772 108.534C36.1986 111.967 35.6533 116.991 32.3552 119.718C30.9164 120.911 29.4841 121.233 27.9862 120.705C26.5408 120.198 24.9837 118.882 23.4792 116.909C21.9747 114.935 21.1009 113.057 20.9498 111.474C20.7921 109.829 21.4162 108.452 22.8551 107.252C24.2545 106.087 25.9364 105.525 27.5986 105.525V105.532Z" fill="#4C6396"/>
<path d="M22.7562 85.7667C23.2752 85.054 24.2607 84.9169 24.944 85.4583C25.2068 85.6708 51.8545 106.724 91.1691 127.195C91.9378 127.599 92.2532 128.572 91.8655 129.381C91.5896 129.95 91.0443 130.279 90.4661 130.279C90.2296 130.279 89.9931 130.224 89.7697 130.107C83.0749 126.619 76.7481 123.117 70.8483 119.704C70.8614 122.548 70.5066 126.646 68.5619 128.928C67.583 130.073 66.2887 130.676 64.817 130.676C57.8989 130.676 50.0149 115.757 47.9914 105.627C32.4469 95.4709 23.2095 88.1722 23.0518 88.0488C22.3686 87.5074 22.2372 86.4794 22.7562 85.7667ZM64.8236 127.421C65.4083 127.421 65.8485 127.215 66.2361 126.763C67.6618 125.091 67.8721 120.711 67.6618 117.84C61.9197 114.454 56.6177 111.179 51.8282 108.108C54.5548 117.415 61.0327 127.421 64.8236 127.421Z" fill="#843AD9"/>
<path d="M102.076 32.7016C102.076 32.7016 133.382 65.9878 136.279 50.2596C139.216 34.3464 112.331 31.1733 112.331 31.1733L102.076 32.7016Z" fill="#FFBE46"/>
<path d="M131.935 56.1059C132.612 56.1059 133.236 56.0169 133.814 55.8318C135.279 55.3726 137.165 54.0842 137.815 50.5685C138.505 46.8335 137.783 43.4274 135.68 40.4394C129.485 31.6467 113.198 29.6318 112.508 29.5496C111.654 29.4468 110.879 30.091 110.78 30.9819C110.682 31.8729 111.299 32.6815 112.153 32.7843C112.344 32.8049 127.79 34.7307 133.164 42.372C134.754 44.6268 135.266 47.1076 134.747 49.9517C134.366 52.0351 133.519 52.5285 132.914 52.7136C128.847 53.9883 119.406 46.5114 115.543 43.2424C108.927 37.6364 103.251 31.6193 103.192 31.5645C102.587 30.9202 101.602 30.9134 100.984 31.5439C100.367 32.1744 100.36 33.2024 100.965 33.8466C101.024 33.9083 106.805 40.0419 113.559 45.7575C121.752 52.6999 127.803 56.1059 131.942 56.1128L131.935 56.1059Z" fill="#446993"/>
<path d="M117.16 44.3182C117.16 44.3182 94.651 38.0543 68.542 19.2284C68.542 19.2284 75.5916 6.44025 84.6712 2.40369C84.6712 2.40369 96.9636 -0.104601 106.116 4.74065C106.116 4.74065 119.315 9.94912 122.79 22.1342C122.79 22.1342 123.217 32.9144 117.166 44.325L117.16 44.3182Z" fill="#FFBE46"/>
<path d="M117.16 45.9426C117.719 45.9426 118.244 45.6273 118.527 45.0996C124.722 33.4285 124.361 22.5113 124.348 22.0521C124.348 21.9151 124.321 21.7849 124.282 21.6546C120.734 9.22286 108.008 3.75396 106.747 3.23997C97.24 -1.7492 84.8951 0.690562 84.3695 0.79336C84.2643 0.81392 84.1592 0.848186 84.0541 0.896159C74.5999 5.0972 67.4781 17.8648 67.1825 18.4062C66.7751 19.1395 66.9788 20.0784 67.6489 20.5581C93.6791 39.3292 116.523 45.8192 116.753 45.8809C116.884 45.9152 117.022 45.9357 117.154 45.9357L117.16 45.9426ZM121.233 22.3879C121.247 23.7997 121.135 32.7775 116.385 42.3857C114.296 41.7278 109.572 40.1242 103.186 37.3006C95.4004 33.8671 83.5351 27.8911 70.658 18.7626C72.6487 15.5347 78.3514 7.07094 85.1316 3.96642C86.5507 3.71285 97.3977 1.94471 105.413 6.18687C105.466 6.21428 105.512 6.23484 105.564 6.2554C105.689 6.30337 117.935 11.2857 121.233 22.3811V22.3879Z" fill="#446993"/>
<path d="M94.7294 27.5619L79.2703 19.2215C79.2703 19.2215 83.2911 9.32541 91.2079 12.6424C99.1312 15.9594 94.7294 27.5619 94.7294 27.5619Z" fill="#4874D7"/>
<path d="M94.7291 29.1859C94.9131 29.1859 95.097 29.1516 95.2744 29.0831C95.6883 28.9186 96.0168 28.5828 96.1811 28.1579C97.9024 23.621 99.1967 14.2252 91.7924 11.1275C84.4012 8.03673 79.4343 14.657 77.8378 18.5839C77.5224 19.3652 77.8378 20.2766 78.5605 20.6673L94.0196 29.0077C94.2429 29.131 94.4926 29.1927 94.7357 29.1927L94.7291 29.1859ZM88.0343 13.5879C88.8687 13.5879 89.7294 13.7798 90.6295 14.1498C95.3992 16.1441 94.5583 22.2093 93.8028 25.2247L81.3855 18.5291C81.8454 17.7341 82.5287 16.7061 83.4288 15.7878C84.8742 14.3212 86.3984 13.5879 88.0343 13.5879Z" fill="#446993"/>
<path d="M110.491 97.8762C110.491 97.8762 116.778 87.144 126.213 88.7339C135.647 90.3239 134.123 100.165 129.149 101.412C124.176 102.667 120.72 95.2993 110.497 97.8762H110.491Z" fill="#93F6F8"/>
<path d="M21.2827 67.9812C21.2827 67.9812 11.1089 63.5011 4.68587 69.5562C-1.7372 75.6113 4.35003 81.9186 8.7763 80.2373C13.2081 78.5585 12.176 71.4382 21.2827 67.9812Z" fill="#93F6F8"/>
</svg>
