<svg width="64" height="34" viewBox="0 0 64 34" fill="none" xmlns="http://www.w3.org/2000/svg">
<g clip-path="url(#clip0_2551_11918)">
<path d="M63.9216 12.8576V20.5207C62.6816 22.7009 59.3006 21.4394 57.1968 21.7724C57.2653 18.4756 57.2595 15.0593 57.1968 11.7626C58.5543 11.9839 62.1174 11.361 63.1321 12.0035C63.4534 12.2072 63.6512 12.597 63.9216 12.8556V12.8576Z" fill="#CBD0D8"/>
<path d="M48.9069 6.28756C49.0988 13.0104 49.1125 20.3699 48.9069 27.0888C48.8168 30.0115 48.1096 32.9596 44.6071 33.3455C37.6982 34.1094 38.9225 26.1211 38.897 21.7705C38.8774 18.4384 38.8774 15.0927 38.897 11.7606C38.9127 9.16906 38.4073 4.45015 39.708 2.32673C41.7903 -1.07583 47.0538 -0.539097 48.5151 3.16121C48.9774 4.33066 48.8736 5.08481 48.9088 6.28756H48.9069Z" fill="#EC5564"/>
<path d="M25.6021 11.7625C25.6275 15.0945 25.6275 18.4403 25.6021 21.7723C25.5825 24.2542 26.0428 29.0221 24.795 31.0535C22.9596 34.0388 18.4875 34.1524 16.464 31.3042C15.4806 29.9212 15.6354 28.8282 15.5942 27.2474C15.412 20.4227 15.4297 13.118 15.5942 6.28942C15.6314 4.7615 15.4532 3.8996 16.2504 2.48726C18.2015 -0.966232 23.5453 -0.682203 25.0928 2.96913C25.9821 5.06512 25.5864 9.34722 25.604 11.7625H25.6021Z" fill="#EC5564"/>
<path d="M15.5924 6.28765C15.4278 13.1163 15.4102 20.4209 15.5924 27.2456C11.7628 29.7236 7.52575 27.9038 7.14769 23.2554C7.10851 22.7657 7.1614 22.2623 7.14769 21.7706C7.04583 18.5404 7.04974 14.9909 7.14769 11.7607C7.16336 11.2221 7.10264 10.652 7.14965 10.1212C7.55318 5.58246 11.9254 3.53544 15.5924 6.28765Z" fill="#D94554"/>
<path d="M57.1969 11.7623C57.2596 15.0591 57.2655 18.4754 57.1969 21.7721C57.1734 22.9181 57.3184 23.9367 56.958 25.0533C55.8943 28.3442 51.4261 29.4901 48.907 27.0905C49.1127 20.3715 49.099 13.0121 48.907 6.28922C51.3634 4.12467 55.4007 4.89451 56.7582 7.90138C57.3693 9.25692 57.1695 10.3343 57.1969 11.7643V11.7623Z" fill="#D94554"/>
<path d="M31.0773 11.7627H38.8972C38.8776 15.0947 38.8776 18.4405 38.8972 21.7725H25.6023C25.6278 18.4405 25.6278 15.0947 25.6023 11.7627H31.0773Z" fill="#CBD0D8"/>
<path d="M7.1478 11.7624C7.04985 14.9926 7.04594 18.542 7.1478 21.7722C5.22027 21.7605 3.28685 21.7879 1.36128 21.7722C1.32015 21.3236 0.900954 21.165 0.705067 20.7869C0.276074 19.9603 0.319165 15.0474 0.419067 13.8682C0.718774 10.3442 4.72272 12.2247 7.14976 11.7624H7.1478Z" fill="#CBD0D8"/>
</g>
<defs>
<clipPath id="clip0_2551_11918">
<rect width="64" height="33.8824" fill="white"/>
</clipPath>
</defs>
</svg>
