<svg width="45" height="48" viewBox="0 0 45 48" fill="none" xmlns="http://www.w3.org/2000/svg">
<path d="M0 25.6841C0 38.0144 9.99754 48 22.3159 48C34.6343 48 44.6319 38.0144 44.6319 25.6841V23.0181H0L0 25.6841Z" fill="#E16D00"/>
<path d="M0 24.9819C0 37.3122 9.99754 47.2978 22.3159 47.2978C34.6343 47.2978 44.6319 37.3122 44.6319 24.9819V22.3159H0L0 24.9819Z" fill="#FF910F"/>
<path d="M0 22.8634C0 35.1937 9.99754 45.1793 22.3159 45.1793C34.6343 45.1793 44.6319 35.1937 44.6319 22.8634V22.3159H0L0 22.8634Z" fill="#FFE50F"/>
<path d="M44.6319 22.3159C44.6319 34.6462 34.6462 44.6319 22.3159 44.6319C9.98563 44.6319 0 34.6462 0 22.3159C0 9.98563 9.99754 0 22.3159 0C34.6343 0 44.6319 9.98563 44.6319 22.3159Z" fill="#FBC616"/>
<path d="M22.3159 0C16.7935 0 11.7471 2.01142 7.85522 5.33203L40.4305 35.3008C43.0608 31.6351 44.6319 27.16 44.6319 22.3159C44.6319 21.2686 44.5367 20.245 44.3938 19.2453L23.5418 0.0714081C23.1372 0.0476044 22.7206 0.0119134 22.3159 0.0119134V0Z" fill="#FBD416"/>
<path d="M25.2914 44.4175C28.6715 43.9653 31.8136 42.7751 34.5391 40.9779L2.68981 11.6875C1.14257 14.5439 0.226135 17.7812 0.0476074 21.209L25.2795 44.4175H25.2914Z" fill="#FBD416"/>
<path d="M37.8017 22.9008C37.8017 31.4939 30.8272 38.4684 22.2341 38.4684C13.641 38.4684 6.6665 31.4939 6.6665 22.9008C6.6665 14.3077 13.641 7.33325 22.2341 7.33325C30.8272 7.33325 37.8017 14.3077 37.8017 22.9008Z" fill="#F5A208"/>
<path d="M16.7747 28.5H11.4317V19.218H16.7747V20.83H13.3947V22.871H16.5407V24.483H13.3947V26.875H16.7747V28.5ZM26.2071 28.5H23.9581L21.8001 24.99L19.6421 28.5H17.5361L20.6171 23.716L17.7311 19.218H19.9021L21.9041 22.559L23.8671 19.218H25.9861L23.0741 23.82L26.2071 28.5ZM30.341 19.218C31.537 19.218 32.408 19.478 32.954 19.998C33.5087 20.5093 33.786 21.2157 33.786 22.117C33.786 22.5243 33.7254 22.9143 33.604 23.287C33.4827 23.651 33.279 23.9803 32.993 24.275C32.7157 24.561 32.3474 24.7863 31.888 24.951C31.4287 25.1157 30.861 25.198 30.185 25.198H29.34V28.5H27.377V19.218H30.341ZM30.237 20.83H29.34V23.586H29.99C30.3627 23.586 30.6834 23.5383 30.952 23.443C31.2207 23.3477 31.4287 23.196 31.576 22.988C31.7234 22.78 31.797 22.5113 31.797 22.182C31.797 21.7227 31.6714 21.3847 31.42 21.168C31.1687 20.9427 30.7744 20.83 30.237 20.83Z" fill="#E16D00"/>
<path d="M22.3159 10.0213C30.3615 10.0213 36.9789 16.1269 37.8002 23.9583C37.8597 23.4227 37.8835 22.8753 37.8835 22.3159C37.8835 13.7227 30.909 6.74829 22.3159 6.74829C13.7228 6.74829 6.74829 13.7227 6.74829 22.3159C6.74829 22.8634 6.784 23.4108 6.8316 23.9583C7.65283 16.1269 14.2702 10.0213 22.3159 10.0213Z" fill="#E16D00"/>
<path d="M22.3158 7.06963C30.8613 7.06963 37.7882 13.9489 37.8715 22.4706C37.8715 22.4111 37.8715 22.3635 37.8715 22.3159C37.8715 13.7227 30.897 6.74829 22.3039 6.74829C13.7108 6.74829 6.73633 13.7227 6.73633 22.3159C6.73633 22.3635 6.73633 22.423 6.73633 22.4706C6.81964 13.9489 13.7584 7.06963 22.292 7.06963H22.3158Z" fill="#FFE50F"/>
</svg>
