<svg width="65" height="65" viewBox="0 0 65 65" fill="none" xmlns="http://www.w3.org/2000/svg">
<path fill-rule="evenodd" clip-rule="evenodd" d="M39.1735 13.4456C43.345 10.8268 52.8128 5.4166 55.7871 8.39083V8.39773C58.7406 11.3478 55.3661 19.4527 53.6409 23.0584C55.687 26.5122 56.4323 30.2973 56.4323 33.5544C56.4323 36.37 56.0976 39.1855 55.4213 42.001C54.1033 47.494 49.7627 51.7138 44.2249 52.8352C43.8143 52.918 43.4071 52.9939 42.9965 53.0698L22.4185 53.4942C21.1349 53.3113 19.8514 53.0905 18.5678 52.8317C13.0334 51.7103 8.6894 47.4905 7.37135 41.9975C6.69508 39.1855 6.36039 36.37 6.36039 33.551C6.36039 30.2904 7.10912 26.5088 9.1552 23.0515C7.42311 19.4424 4.03483 11.3616 7.00561 8.39083C9.97639 5.42005 19.4477 10.8233 23.6192 13.4456C25.6825 13.104 28.3462 12.9626 31.3963 12.9764C34.4465 12.9626 37.1102 13.1006 39.1735 13.4456Z" fill="#ADBED9"/>
<path d="M56.3666 7.81129C54.8036 6.24827 51.9432 6.32762 47.6268 8.05971C44.3731 9.36396 40.9986 11.3341 38.7386 12.7557L39.6116 14.1427C47.475 9.19489 53.451 7.21437 55.2073 8.97062C56.8911 10.6544 56.2527 15.2331 53.5235 21.354C52.9231 20.5052 52.2331 19.6668 51.4326 18.8594C51.1151 18.5385 50.5941 18.5351 50.2732 18.8525C49.9524 19.1699 49.9489 19.6909 50.2663 20.0118C54.9174 24.7112 55.6144 30.5113 55.6144 33.5511C55.6144 36.2942 55.2832 39.0717 54.6276 41.8079C53.3889 46.9662 49.2416 50.979 44.066 52.0279C39.8634 52.8767 35.6022 53.308 31.4031 53.308C27.2005 53.308 22.9428 52.8767 18.7402 52.0279C13.5612 50.979 9.41384 46.9662 8.17515 41.8079C7.51958 39.0752 7.18835 36.2976 7.18835 33.5511C7.18835 30.5113 7.88187 24.7112 12.5364 20.0118C12.8539 19.6909 12.8539 19.1699 12.5295 18.8525C12.2086 18.5351 11.6876 18.5351 11.3702 18.8594C10.5697 19.6668 9.87964 20.5052 9.27928 21.354C6.54313 15.2365 5.90481 10.6544 7.59204 8.97062C9.34828 7.21437 15.3243 9.19834 23.1878 14.1427L24.0607 12.7557C21.7973 11.3341 18.4193 9.36396 15.1725 8.05971C10.8561 6.32762 7.99574 6.24827 6.43271 7.81129C3.29977 10.9442 6.12218 18.5075 8.23381 23.0102C5.96346 27.0403 5.54942 31.1152 5.54942 33.5511C5.54942 36.4253 5.8979 39.3305 6.58108 42.1909C7.26426 45.0409 8.73067 47.6183 10.825 49.6437C12.9229 51.6725 15.5452 53.0561 18.4124 53.6358C22.722 54.5053 27.0901 54.9504 31.3997 54.9469C35.7092 54.9469 40.0808 54.5053 44.3903 53.6358C47.2576 53.0561 49.8833 51.676 51.9777 49.6437C54.0687 47.6183 55.5385 45.0409 56.2217 42.1909C56.9083 39.3305 57.2568 36.4253 57.2568 33.5511C57.2568 31.1152 56.8393 27.0403 54.5724 23.0102C55.4799 21.0711 56.6219 18.3418 57.2706 15.6678C58.1712 11.9517 57.871 9.3053 56.3735 7.81129H56.3666Z" fill="#446993"/>
<path d="M44.8147 35.7764C44.8147 34.2237 43.5588 32.9678 42.0061 32.9678C40.4534 32.9678 39.1975 34.2237 39.1975 35.7764C39.1975 37.3291 40.4534 38.585 42.0061 38.585C43.5588 38.585 44.8147 37.3291 44.8147 35.7764Z" fill="#446993"/>
<path d="M23.5952 35.7764C23.5952 34.2237 22.3393 32.9678 20.7866 32.9678C19.234 32.9678 17.978 34.2237 17.978 35.7764C17.978 37.3291 19.234 38.585 20.7866 38.585C22.3393 38.585 23.5952 37.3291 23.5952 35.7764Z" fill="#446993"/>
<path d="M49.1138 40.6653H44.6767C44.2247 40.6653 43.8555 40.2996 43.8555 39.8441C43.8555 39.3887 44.2212 39.0229 44.6767 39.0229H49.1138C49.5658 39.0229 49.935 39.3887 49.935 39.8441C49.935 40.2996 49.5693 40.6653 49.1138 40.6653Z" fill="#446993"/>
<path d="M48.3069 44.8339C48.2137 44.8339 48.1171 44.8166 48.0239 44.7821L44.3941 43.4365C43.9697 43.2778 43.7524 42.8085 43.9111 42.3841C44.0698 41.9597 44.5391 41.7424 44.9634 41.9011L48.5932 43.2467C49.0176 43.4054 49.235 43.8747 49.0763 44.2991C48.9555 44.6303 48.6416 44.8339 48.3069 44.8339Z" fill="#446993"/>
<path d="M18.1195 40.6653H13.6823C13.2303 40.6653 12.8611 40.2996 12.8611 39.8441C12.8611 39.3887 13.2268 39.0229 13.6823 39.0229H18.1195C18.5715 39.0229 18.9407 39.3887 18.9407 39.8441C18.9407 40.2996 18.5749 40.6653 18.1195 40.6653Z" fill="#446993"/>
<path d="M14.4859 44.8339C14.1512 44.8339 13.8407 44.6303 13.7165 44.2991C13.5578 43.8747 13.7752 43.402 14.1996 43.2467L17.8294 41.9011C18.2537 41.7424 18.7265 41.9597 18.8817 42.3841C19.0404 42.8085 18.8231 43.2812 18.3987 43.4365L14.7689 44.7821C14.6757 44.8166 14.5791 44.8339 14.4859 44.8339Z" fill="#446993"/>
<path d="M40.2222 30.3245H37.8932C37.4412 30.3245 37.072 29.9588 37.072 29.5033C37.072 29.0479 37.4378 28.6821 37.8932 28.6821H40.2222C40.6742 28.6821 41.0434 29.0479 41.0434 29.5033C41.0434 29.9588 40.6777 30.3245 40.2222 30.3245Z" fill="white"/>
<path d="M24.8992 30.3245H22.5702C22.1182 30.3245 21.749 29.9588 21.749 29.5033C21.749 29.0479 22.1148 28.6821 22.5702 28.6821H24.8992C25.3512 28.6821 25.7204 29.0479 25.7204 29.5033C25.7204 29.9588 25.3547 30.3245 24.8992 30.3245Z" fill="white"/>
<path d="M36.31 35.5654C35.8718 35.455 35.4267 35.7207 35.3163 36.1623C35.1403 36.8593 34.5158 37.3492 33.7912 37.3492C32.9252 37.3492 32.2178 36.6453 32.2178 35.7759V35.2894H32.6457C33.0977 35.2894 33.4669 34.9236 33.4669 34.4682C33.4669 34.0127 33.1011 33.647 32.6457 33.647H30.1545C29.7025 33.647 29.3333 34.0127 29.3333 34.4682C29.3333 34.9236 29.6991 35.2894 30.1545 35.2894H30.5823V35.7759C30.5823 36.6419 29.8785 37.3492 29.009 37.3492C28.2878 37.3492 27.6599 36.8627 27.4839 36.1623C27.3735 35.7241 26.9284 35.455 26.4902 35.5654C26.052 35.6758 25.7863 36.1209 25.8933 36.5591C26.2521 37.9875 27.5322 38.9847 29.009 38.9847C29.9578 38.9847 30.8135 38.5707 31.4001 37.9151C31.9901 38.5707 32.8423 38.9847 33.7947 38.9847C35.268 38.9847 36.5481 37.9875 36.9069 36.5591C37.0173 36.1209 36.7516 35.6758 36.31 35.5654Z" fill="#446993"/>
<path d="M57.7192 24.0794C56.7565 23.6446 55.787 23.2409 54.8105 22.8545C54.9761 19.7146 54.6518 12.3308 48.9552 5.98559C48.7206 5.72681 48.4376 5.50944 48.1271 5.35072C38.8939 0.582295 31.3928 0.823821 31.3928 0.823821C31.3928 0.823821 23.8916 0.582295 14.6584 5.35072C14.3479 5.50944 14.065 5.72681 13.8303 5.98559C8.13377 12.3308 7.80943 19.7146 7.97505 22.8545C6.99859 23.2375 6.02904 23.6446 5.06638 24.0794C3.99331 24.5624 3.51716 25.8253 4.00021 26.8983C4.48327 27.9714 5.7461 28.4476 6.81917 27.9645C22.4321 20.9154 40.3431 20.9154 55.9595 27.9645C56.2424 28.0922 56.5426 28.1543 56.8359 28.1543C57.6467 28.1543 58.423 27.6885 58.7784 26.9018C59.2615 25.8287 58.7853 24.5693 57.7123 24.0828L57.7192 24.0794Z" fill="#FF80A9"/>
<path d="M58.0571 23.3341C57.2601 22.9753 56.4596 22.6302 55.6522 22.3059C55.7385 18.9383 55.1726 11.6822 49.5658 5.43698C49.269 5.1092 48.9033 4.82627 48.5065 4.62269C45.5978 3.12178 42.8651 2.10737 40.474 1.42074C40.1462 1.31378 39.815 1.22407 39.4803 1.14816C34.8982 -0.042218 31.7687 -0.00426369 31.3995 0.00263706C31.0303 -0.00771407 27.9008 -0.0422181 23.3187 1.14471C22.9806 1.22062 22.6459 1.31033 22.3147 1.41729C19.9235 2.10392 17.1943 3.11833 14.2856 4.61579C13.8923 4.81937 13.5265 5.1023 13.2264 5.43353C7.6195 11.6753 7.05363 18.9314 7.13989 22.299C6.3325 22.6233 5.53202 22.9684 4.73498 23.3272C3.25132 23.9966 2.59229 25.7459 3.26167 27.2296C3.93104 28.7132 5.68038 29.3723 7.16405 28.7029C22.5631 21.7504 40.229 21.7504 55.6281 28.7029C56.0145 28.8754 56.4217 28.9651 56.8392 28.9651C57.9985 28.9651 59.0543 28.2819 59.5305 27.2296C60.1998 25.7459 59.5373 23.9966 58.0571 23.3272V23.3341ZM48.3443 6.53421C53.2611 12.01 54.0167 18.3311 54.0167 21.671C53.0748 21.3191 52.1259 20.9947 51.1736 20.6877C51.077 16.561 50.0281 12.2618 48.2546 8.80455C47.5404 7.4106 46.733 6.19262 45.8394 5.15405C46.4673 5.44043 47.1056 5.74752 47.7509 6.07876C47.9717 6.19262 48.1787 6.35134 48.3443 6.53421ZM31.3685 1.64502C31.3857 1.64502 31.4064 1.64502 31.4237 1.64502C31.5479 1.64502 35.0845 1.57946 40.1842 3.05622C43.462 4.2259 45.5668 7.15527 46.7986 9.55329C48.3857 12.6483 49.3553 16.4644 49.5209 20.1839C37.6896 16.737 25.106 16.737 13.2747 20.1839C13.4403 16.4678 14.4098 12.6483 15.997 9.55329C17.2254 7.15872 19.3301 4.2328 22.601 3.05967C27.7283 1.57601 31.2787 1.64157 31.3719 1.64502H31.3685ZM14.4443 6.53421C14.61 6.35134 14.817 6.19262 15.0378 6.07876C15.683 5.74407 16.3214 5.43698 16.9493 5.15405C16.0591 6.19262 15.2483 7.41405 14.5341 8.80455C12.7606 12.2618 11.7082 16.561 11.615 20.6877C10.6627 20.9947 9.71388 21.3191 8.77192 21.671C8.77192 18.3276 9.52756 12.01 14.4443 6.53421ZM58.0364 26.5602C57.826 27.0295 57.3567 27.3331 56.8392 27.3331C56.6528 27.3331 56.4734 27.2951 56.3009 27.2158C48.3857 23.6412 39.8909 21.8539 31.3926 21.8539C22.8943 21.8539 14.3995 23.6412 6.48432 27.2158C5.8253 27.5125 5.04896 27.2158 4.74878 26.5602C4.45205 25.9012 4.74533 25.1249 5.40435 24.8247C21.9179 17.3684 40.8604 17.3684 57.374 24.8247C58.033 25.1214 58.3263 25.9012 58.0295 26.5602H58.0364Z" fill="#D6638B"/>
<rect y="46" width="63" height="18" rx="8" fill="#446993"/>
<path d="M9.912 59V56.72C9.912 56.216 10.024 55.852 10.248 55.628C10.472 55.396 10.756 55.236 11.1 55.148L11.112 55.112L9.792 54.608V54.212C9.792 53.884 9.9 53.576 10.116 53.288C10.332 52.992 10.64 52.756 11.04 52.58C11.448 52.396 11.932 52.304 12.492 52.304C12.98 52.304 13.432 52.384 13.848 52.544C14.264 52.696 14.596 52.94 14.844 53.276C15.1 53.604 15.228 54.036 15.228 54.572V59H14.16V54.68C14.16 54.144 13.996 53.764 13.668 53.54C13.348 53.308 12.952 53.192 12.48 53.192C11.992 53.192 11.604 53.296 11.316 53.504C11.028 53.704 10.884 53.96 10.884 54.272L12.18 54.92L12.084 55.496C11.788 55.496 11.528 55.596 11.304 55.796C11.088 55.988 10.98 56.296 10.98 56.72V59H9.912ZM19.0153 59.12C18.5433 59.12 18.1033 59.076 17.6953 58.988C17.2953 58.892 16.9553 58.78 16.6753 58.652L16.9873 57.788C17.1553 57.852 17.3473 57.92 17.5633 57.992C17.7793 58.064 18.0113 58.124 18.2593 58.172C18.5153 58.212 18.7753 58.232 19.0393 58.232C19.4633 58.232 19.8153 58.152 20.0953 57.992C20.3753 57.832 20.5153 57.6 20.5153 57.296C20.5153 57.112 20.4633 56.956 20.3593 56.828C20.2633 56.692 20.1113 56.568 19.9033 56.456C19.6953 56.344 19.4273 56.236 19.0993 56.132C18.5953 55.972 18.1673 55.804 17.8153 55.628C17.4713 55.444 17.2073 55.228 17.0233 54.98C16.8473 54.724 16.7593 54.408 16.7593 54.032C16.7593 53.696 16.8473 53.4 17.0233 53.144C17.2073 52.88 17.4873 52.676 17.8633 52.532C18.2473 52.38 18.7353 52.304 19.3273 52.304C19.7113 52.304 20.0713 52.34 20.4073 52.412C20.7513 52.476 21.0193 52.568 21.2113 52.688V53.588C21.0753 53.524 20.9033 53.46 20.6953 53.396C20.4953 53.332 20.2753 53.28 20.0353 53.24C19.7953 53.2 19.5473 53.18 19.2913 53.18C18.7553 53.18 18.3753 53.264 18.1513 53.432C17.9353 53.592 17.8273 53.776 17.8273 53.984C17.8273 54.16 17.8753 54.308 17.9713 54.428C18.0753 54.548 18.2473 54.664 18.4873 54.776C18.7353 54.888 19.0673 55.016 19.4833 55.16C19.8673 55.288 20.2193 55.436 20.5393 55.604C20.8593 55.772 21.1113 55.984 21.2953 56.24C21.4873 56.488 21.5833 56.808 21.5833 57.2C21.5833 57.536 21.4993 57.852 21.3313 58.148C21.1713 58.436 20.9033 58.672 20.5273 58.856C20.1513 59.032 19.6473 59.12 19.0153 59.12ZM25.3547 59.12C24.4907 59.12 23.8427 58.896 23.4107 58.448C22.9867 57.992 22.7747 57.28 22.7747 56.312C22.7747 56.152 22.7787 55.98 22.7867 55.796C22.8027 55.604 22.8187 55.416 22.8347 55.232H25.3547V56.072H23.8427V56.312C23.8427 56.816 23.8987 57.212 24.0107 57.5C24.1227 57.78 24.2867 57.976 24.5027 58.088C24.7267 58.2 25.0027 58.256 25.3307 58.256C25.6907 58.256 26.0027 58.188 26.2667 58.052C26.5307 57.916 26.7347 57.668 26.8787 57.308C27.0227 56.948 27.0947 56.432 27.0947 55.76C27.0947 55.168 27.0307 54.684 26.9027 54.308C26.7747 53.932 26.5627 53.652 26.2667 53.468C25.9787 53.284 25.5867 53.192 25.0907 53.192C24.8347 53.192 24.5867 53.216 24.3467 53.264C24.1067 53.304 23.8747 53.368 23.6507 53.456C23.4267 53.536 23.2067 53.64 22.9907 53.768V52.772C23.1507 52.684 23.3467 52.608 23.5787 52.544C23.8107 52.472 24.0667 52.416 24.3467 52.376C24.6267 52.328 24.9187 52.304 25.2227 52.304C25.9267 52.304 26.4947 52.448 26.9267 52.736C27.3667 53.016 27.6867 53.416 27.8867 53.936C28.0867 54.448 28.1867 55.056 28.1867 55.76C28.1867 56.464 28.0947 57.068 27.9107 57.572C27.7267 58.076 27.4267 58.46 27.0107 58.724C26.6027 58.988 26.0507 59.12 25.3547 59.12ZM29.8573 59V56.72C29.8573 56.216 29.9693 55.852 30.1933 55.628C30.4173 55.396 30.7013 55.236 31.0453 55.148L31.0573 55.112L29.7373 54.608V54.212C29.7373 53.884 29.8453 53.576 30.0613 53.288C30.2773 52.992 30.5853 52.756 30.9853 52.58C31.3933 52.396 31.8773 52.304 32.4373 52.304C32.9253 52.304 33.3773 52.384 33.7933 52.544C34.2093 52.696 34.5413 52.94 34.7893 53.276C35.0453 53.604 35.1733 54.036 35.1733 54.572V59H34.1053V54.68C34.1053 54.144 33.9413 53.764 33.6133 53.54C33.2933 53.308 32.8973 53.192 32.4253 53.192C31.9373 53.192 31.5493 53.296 31.2613 53.504C30.9733 53.704 30.8293 53.96 30.8293 54.272L32.1253 54.92L32.0293 55.496C31.7333 55.496 31.4733 55.596 31.2493 55.796C31.0333 55.988 30.9253 56.296 30.9253 56.72V59H29.8573ZM38.6006 59.12C38.3846 59.12 38.1766 59.084 37.9766 59.012C37.7766 58.94 37.6126 58.812 37.4846 58.628C37.3566 58.444 37.2926 58.188 37.2926 57.86V52.424H38.3606V57.728C38.3606 57.912 38.4006 58.044 38.4806 58.124C38.5606 58.204 38.6886 58.244 38.8646 58.244C38.9366 58.244 39.0126 58.236 39.0926 58.22C39.1726 58.204 39.2486 58.184 39.3206 58.16L39.4646 58.94C39.3126 59.012 39.1646 59.06 39.0206 59.084C38.8766 59.108 38.7366 59.12 38.6006 59.12ZM44.3865 59V54.62C44.3865 54.1 44.2665 53.732 44.0265 53.516C43.7945 53.292 43.4025 53.18 42.8505 53.18C42.4505 53.18 42.0665 53.236 41.6985 53.348C41.3385 53.452 40.9945 53.6 40.6665 53.792V52.796C40.8985 52.676 41.2105 52.564 41.6025 52.46C42.0025 52.356 42.4505 52.304 42.9465 52.304C43.3705 52.304 43.7385 52.352 44.0505 52.448C44.3625 52.536 44.6185 52.672 44.8185 52.856C45.0265 53.04 45.1825 53.276 45.2865 53.564C45.3905 53.844 45.4425 54.176 45.4425 54.56V59H44.3865ZM42.3225 59.12C41.6185 59.12 41.0785 58.96 40.7025 58.64C40.3345 58.312 40.1505 57.844 40.1505 57.236C40.1505 56.572 40.3905 56.06 40.8705 55.7C41.3585 55.34 42.1465 55.128 43.2345 55.064L44.6025 54.98V55.868L43.3785 55.952C42.5625 56.008 41.9985 56.136 41.6865 56.336C41.3825 56.536 41.2305 56.828 41.2305 57.212C41.2305 57.572 41.3425 57.836 41.5665 58.004C41.7985 58.172 42.1185 58.256 42.5265 58.256C42.6625 58.256 42.7865 58.248 42.8985 58.232C43.0105 58.208 43.1185 58.18 43.2225 58.148L43.3905 58.952C43.2385 59.008 43.0705 59.048 42.8865 59.072C42.7105 59.104 42.5225 59.12 42.3225 59.12ZM49.922 59.108C49.274 59.108 48.754 59.024 48.362 58.856C47.978 58.688 47.698 58.452 47.522 58.148C47.354 57.844 47.27 57.484 47.27 57.068C47.27 56.7 47.322 56.408 47.426 56.192C47.538 55.968 47.674 55.804 47.834 55.7C48.002 55.596 48.174 55.528 48.35 55.496V55.448C48.19 55.4 48.022 55.32 47.846 55.208C47.67 55.096 47.522 54.94 47.402 54.74C47.29 54.54 47.234 54.288 47.234 53.984C47.234 53.704 47.298 53.44 47.426 53.192C47.554 52.944 47.762 52.74 48.05 52.58C48.338 52.42 48.718 52.34 49.19 52.34C49.382 52.34 49.582 52.356 49.79 52.388C49.998 52.412 50.158 52.456 50.27 52.52L50.078 53.348C49.99 53.316 49.874 53.288 49.73 53.264C49.594 53.232 49.45 53.216 49.298 53.216C48.962 53.216 48.714 53.296 48.554 53.456C48.394 53.608 48.314 53.812 48.314 54.068C48.314 54.348 48.382 54.56 48.518 54.704C48.662 54.848 48.842 54.948 49.058 55.004C49.282 55.052 49.514 55.076 49.754 55.076H49.982V55.856H49.754C49.274 55.856 48.918 55.944 48.686 56.12C48.462 56.288 48.35 56.572 48.35 56.972C48.35 57.204 48.394 57.416 48.482 57.608C48.578 57.8 48.738 57.952 48.962 58.064C49.194 58.176 49.514 58.232 49.922 58.232C50.33 58.232 50.646 58.176 50.87 58.064C51.102 57.952 51.266 57.792 51.362 57.584C51.458 57.368 51.506 57.112 51.506 56.816V52.424H52.574V56.744C52.574 57.584 52.358 58.188 51.926 58.556C51.502 58.924 50.834 59.108 49.922 59.108Z" fill="#F6F8FC"/>
<path d="M63.1023 48.2647C62.672 47.3496 62.1206 46.5558 61.5055 45.9073C61.3903 45.4528 61.1661 45.0196 60.8268 44.6529L58.9724 42.6441C57.8907 41.4745 56.0637 41.4018 54.8941 42.4835L54.0033 43.3076C52.3944 44.7923 51.1551 46.48 52.0065 47.4981C52.5095 48.098 53.2791 47.9677 54.0275 47.589L54.7456 48.3677C54.7729 49.4554 55.0516 50.6432 55.6001 51.8067C57.0787 54.9427 59.9602 56.694 62.0327 55.7153C64.1052 54.7367 64.5869 51.4037 63.1053 48.2647H63.1023Z" fill="#ADBED9"/>
<path d="M63.7506 47.9554C63.3204 47.0494 62.7841 46.2404 62.1508 45.5496C61.9933 45.0406 61.7236 44.5679 61.3509 44.1649L59.4966 42.156C58.1482 40.6956 55.8606 40.6077 54.4002 41.9561L53.5154 42.7742C53.5154 42.7742 53.5094 42.7772 53.5094 42.7802C51.8641 44.3013 50.1703 46.4344 51.449 47.9615C51.8035 48.3857 52.2822 48.6159 52.8397 48.6311C52.8579 48.6311 52.8761 48.6311 52.8943 48.6311C53.2003 48.6311 53.5184 48.5614 53.8336 48.4493L54.0335 48.6644C54.1032 49.8037 54.4123 50.9884 54.9425 52.1125C55.7182 53.7548 56.8787 55.1061 58.2149 55.9181C59.0784 56.4423 59.9541 56.709 60.7843 56.709C61.3267 56.709 61.8508 56.5938 62.3356 56.3666C63.5628 55.7879 64.3718 54.5577 64.6111 52.9033C64.8323 51.3581 64.5293 49.6037 63.7537 47.9584L63.7506 47.9554ZM56.7938 45.2799C56.503 45.0072 56.0485 45.0224 55.7758 45.3133C55.0304 46.1071 53.6396 47.2161 52.8761 47.1949C52.7337 47.1918 52.6428 47.1464 52.5519 47.0403C52.1459 46.5556 52.9034 45.2981 54.485 43.8407L55.3758 43.0196C56.2545 42.2076 57.6271 42.2621 58.4391 43.1378L60.2934 45.1466C60.6873 45.5708 60.8904 46.1253 60.8661 46.704C60.8419 47.2827 60.5964 47.819 60.1722 48.2099L59.2814 49.0341C58.4027 49.8461 57.0271 49.7916 56.2181 48.9129L55.1455 47.7524C56.0182 47.1494 56.7029 46.4344 56.8272 46.301C57.0999 46.0102 57.0817 45.5557 56.7938 45.283V45.2799ZM63.184 52.6943C63.0174 53.8547 62.4962 54.694 61.7206 55.0607C60.9449 55.4273 59.9632 55.294 58.9633 54.6849C57.8664 54.0184 56.9029 52.8852 56.2454 51.4944C56.0848 51.152 55.9485 50.8005 55.8333 50.4491C56.4302 50.8399 57.1211 51.0399 57.8119 51.0399C58.6876 51.0399 59.5663 50.7248 60.2601 50.0824L61.1509 49.2583C61.5721 48.8674 61.8872 48.3947 62.0842 47.8706C62.2144 48.0948 62.3387 48.3251 62.4508 48.5644C63.1083 49.9552 63.3689 51.4186 63.1871 52.6882L63.184 52.6943Z" fill="#446993"/>
</svg>
