<svg width="38" height="48" viewBox="0 0 38 48" fill="none" xmlns="http://www.w3.org/2000/svg">
<path d="M0 15.1711V37.0532L18.9447 47.9998V4.2356L0 15.1711Z" fill="#6D2AA6"/>
<path d="M37.8893 15.1711L18.9446 4.2356V47.9998L37.8893 37.0532V15.1711Z" fill="#843AD9"/>
<g style="mix-blend-mode:multiply">
<path d="M0 36.2725V37.0536L18.9447 48.0001L37.8893 37.0536V36.2725L18.9447 47.219L0 36.2725Z" fill="#CEAFE6"/>
</g>
<path d="M0 11.5737V33.4558L18.9447 44.3913V0.638184L0 11.5737Z" fill="#843AD9"/>
<path d="M37.8893 11.5737L18.9446 0.638184V44.3913L37.8893 33.4558V11.5737Z" fill="#9B43FF"/>
<path d="M18.9446 21.8821L37.8893 10.9355L18.9446 0V21.8821Z" fill="#EB95FF"/>
<path d="M18.9447 0L0 10.9355L18.9447 21.8821V0Z" fill="#8935D4"/>
<path d="M0 32.8179L18.9447 43.7644V21.8823L0 32.8179Z" fill="#7B35C7"/>
<path d="M18.9446 21.8823V43.7644L37.8893 32.8179L18.9446 21.8823Z" fill="#843AD9"/>
<path d="M18.9447 21.8821L0 10.9355V32.8176L18.9447 21.8821Z" fill="#6D2AA6"/>
<path d="M18.9446 21.8821L37.8893 32.8176V10.9355L18.9446 21.8821Z" fill="#9B43FF"/>
<path d="M6.88696 14.9181L18.9447 7.9541L31.0024 14.9181V28.846L18.9447 35.81L6.88696 28.846V14.9181Z" fill="#BB59FF"/>
<g opacity="0.3">
<path d="M21.0349 9.16428L18.9446 7.9541L12.0466 11.9367L30.6503 29.0551L31.0023 28.846V18.3396L21.0349 9.16428Z" fill="#EB95FF"/>
<path d="M6.88696 19.9236V28.8458L18.9447 35.8098L22.1461 33.9615L6.88696 19.9236Z" fill="#EB95FF"/>
</g>
</svg>
