<svg width="93" height="97" viewBox="0 0 93 97" fill="none" xmlns="http://www.w3.org/2000/svg">
<path d="M82.7835 64.1803C85.9902 56.6743 81.5423 47.0227 72.266 38.8501C71.5857 31.444 68.1838 23.7915 58.4073 19.6234C48.6369 15.4516 40.7554 18.2882 34.9383 22.917C22.6236 21.874 12.5748 25.3451 9.37414 32.8474C4.54745 44.1539 17.0681 60.3323 37.3374 68.986C57.6068 77.6398 77.9531 75.4807 82.7798 64.1742L82.7835 64.1803Z" fill="#FFFF9D"/>
<path d="M69.1834 58.3813C66.3594 60.0054 56.2548 61.238 43.0566 55.6085C29.8584 49.9791 23.7609 41.8237 22.9756 38.6619C22.9756 38.6619 24.6809 34.743 27.9763 30.2766C30.0086 34.0955 36.0982 40.7296 47.3547 45.5287C58.6052 50.3316 67.6128 50.1418 71.7746 48.9701C70.8387 54.4349 69.1834 58.3813 69.1834 58.3813Z" fill="#89D770"/>
<path d="M84.3329 64.8437C87.6982 56.9588 83.7844 46.9729 73.8746 38.0342C72.8064 28.6337 67.757 21.7878 59.0743 18.08C50.3916 14.3723 41.9529 15.4672 34.4273 21.1969C21.1115 20.2258 11.1973 24.3115 7.832 32.1963C5.64178 37.3318 6.53186 43.4238 10.3161 49.6237C10.9911 50.7296 11.7583 51.8371 12.6179 52.9464C18.072 59.9933 26.6197 66.2385 36.6838 70.5379C46.7441 74.8313 57.1696 76.6791 66.0283 75.7425C75.2461 74.7692 81.7405 70.8965 84.3268 64.8474L84.3329 64.8437ZM57.7537 21.1752C66.5484 24.9307 70.9121 32.1206 70.7205 42.5554C70.5944 49.2925 68.5372 55.3255 67.8506 57.1629C64.8272 58.4194 55.6927 59.176 43.7175 54.0691C31.7386 48.9561 25.9634 41.8315 24.7844 38.7856C25.627 37.0271 28.5276 31.4249 33.2827 26.673C40.6984 19.2686 48.9334 17.4188 57.7513 21.185L57.7537 21.1752ZM65.6787 72.3977C57.3745 73.2779 47.5507 71.519 38.0043 67.4427C28.4617 63.3724 20.3927 57.4903 15.2783 50.8913C10.3846 44.5723 8.83949 38.3991 10.9272 33.5169C13.3859 27.7613 20.8277 24.4217 30.7729 24.4227C24.7157 30.5334 21.578 37.6905 21.4479 37.9938C21.3048 38.33 21.27 38.7078 21.354 39.063C21.5533 39.8786 21.9907 40.8806 22.6841 42.0166C25.3361 46.3614 31.6836 52.5893 42.3993 57.1545C55.9045 62.9201 66.5094 61.8549 70.0212 59.8358C70.3391 59.6501 70.592 59.3713 70.7314 59.0291C70.8615 58.7257 73.8542 51.5079 74.0804 42.9099C80.9657 50.0868 83.7024 57.7638 81.2474 63.5254C79.1597 68.4076 73.6373 71.5627 65.6885 72.4001L65.6787 72.3977Z" fill="#FFCC6B"/>
<path d="M33.83 40.1562C33.592 39.7677 33.3299 39.4166 33.0462 39.0809C33.4818 39.0438 33.9183 38.9779 34.3596 38.868C34.9375 38.7285 35.4859 38.5345 35.9991 38.2946C40.0457 36.4126 38.5644 30.3008 34.1051 30.4761C33.5418 30.5015 32.9641 30.5766 32.3862 30.7161C31.9475 30.8218 31.5273 30.963 31.1225 31.1258C31.22 30.7004 31.2898 30.2631 31.3279 29.8112C31.3747 29.2179 31.36 28.6379 31.292 28.0766C30.7551 23.6492 24.4831 23.1689 23.2731 27.4596C23.1226 28.0038 23.0179 28.5774 22.9711 29.1707C22.9372 29.6253 22.9402 30.0683 22.9731 30.5012C22.5992 30.2781 22.2078 30.0731 21.7881 29.9028C21.2386 29.6784 20.6804 29.5131 20.1273 29.404C15.749 28.5492 13.3521 34.3635 17.0621 36.8406C17.5308 37.1541 18.044 37.4257 18.595 37.657C19.0147 37.8272 19.4379 37.9645 19.8607 38.0661C19.5318 38.3484 19.2173 38.6634 18.9238 39.0097C18.5387 39.4616 18.2061 39.9415 17.9342 40.4369C15.7701 44.3367 20.559 48.4083 24.0607 45.6462C24.5037 45.2962 24.9212 44.8946 25.3089 44.4385C25.6024 44.0923 25.8573 43.7329 26.0887 43.3644C26.2584 43.7677 26.4581 44.1609 26.6961 44.5494C27.01 45.0574 27.3603 45.5182 27.7468 45.9318C30.7863 49.1945 36.1409 45.9023 34.5969 41.7145C34.4033 41.184 34.1467 40.66 33.8369 40.1547L33.83 40.1562Z" fill="#FD80A6"/>
<path d="M31.3816 38.3979C32.4644 35.7662 31.2107 32.7535 28.5791 31.6706C25.9474 30.5878 22.9347 31.8415 21.8518 34.4731C20.769 37.1048 22.0227 40.1175 24.6543 41.2004C27.286 42.2832 30.2987 41.0295 31.3816 38.3979Z" fill="white"/>
<path d="M35.6909 41.3136C35.5144 40.8294 35.2943 40.3584 35.0374 39.8988C35.5357 39.7551 36.0225 39.5745 36.4951 39.3612C39.1923 38.1043 39.8878 35.435 39.3797 33.3376C38.8732 31.247 37.0311 29.1846 34.0551 29.3033C33.5411 29.3252 33.025 29.3869 32.5177 29.4897C32.5368 28.9668 32.5134 28.4459 32.4547 27.9434C32.0976 24.9904 29.7682 23.5023 27.6216 23.3376C25.4751 23.1729 22.9444 24.29 22.1368 27.1518C21.9992 27.6395 21.9016 28.1472 21.8374 28.6764C21.3476 28.4962 20.8446 28.3547 20.3438 28.2557C17.4227 27.6864 15.2902 29.4363 14.4687 31.4246C13.6472 33.4129 13.9283 36.1641 16.4059 37.8241C16.4392 37.8455 16.4725 37.8669 16.5016 37.8857C16.9049 38.1453 17.3227 38.3732 17.7525 38.5735C17.434 38.986 17.1446 39.4172 16.898 39.8641C15.4512 42.4673 16.4592 45.0395 18.1027 46.433C18.2862 46.5865 18.4792 46.7343 18.6829 46.8655C20.3335 47.9283 22.7013 48.206 24.7793 46.5681C25.183 46.2516 25.5601 45.8945 25.9148 45.5171C26.2098 45.9541 26.5345 46.3632 26.8792 46.7321C27.2197 47.0984 27.5811 47.3958 27.9553 47.6367C29.8055 48.828 31.9725 48.559 33.5007 47.6197C35.3344 46.4891 36.7243 44.1022 35.695 41.3163L35.6909 41.3136ZM32.6598 31.8631C33.1463 31.747 33.6499 31.6773 34.153 31.6542C35.9089 31.585 36.838 32.8184 37.0993 33.8924C37.3579 34.9705 37.0968 36.4904 35.5105 37.2275C35.0585 37.4364 34.5755 37.6018 34.0796 37.7236C33.8965 37.7704 33.7078 37.8077 33.5135 37.8355C32.0184 36.2846 30.1202 35.3506 28.2179 35.1902C28.9886 33.628 30.6498 32.3451 32.6651 31.8548L32.6598 31.8631ZM27.4422 25.6805C28.5451 25.7672 29.9131 26.4833 30.1233 28.2302C30.1818 28.7149 30.1954 29.2235 30.157 29.7399C30.1449 29.9321 30.1219 30.1231 30.0906 30.3088C28.1714 31.2433 26.6812 32.7539 25.9344 34.5257C24.6901 33.3069 23.9838 31.3347 24.1416 29.272C24.1827 28.7515 24.2681 28.2536 24.4033 27.7878C24.8811 26.0958 26.3394 25.5938 27.4449 25.6763L27.4422 25.6805ZM17.7108 35.8706C16.2468 34.8926 16.2235 33.3485 16.642 32.3241C17.0647 31.3023 18.1695 30.2258 19.8949 30.5604C20.3765 30.6529 20.8589 30.7988 21.3312 30.997C21.5162 31.075 21.6944 31.1545 21.8631 31.2396C22.1628 33.3499 23.1351 35.2287 24.5859 36.4922C23.3357 37.1458 21.7104 37.3226 20.1116 36.9283C19.7605 36.8434 19.3951 36.7258 19.0334 36.5752C18.5736 36.385 18.1281 36.1452 17.704 35.8721L17.7108 35.8706ZM24.4083 43.6825C24.077 44.0691 23.7164 44.4191 23.3317 44.7243C21.9472 45.8149 20.475 45.361 19.6297 44.6461C18.787 43.9271 18.1052 42.5471 18.9585 41.0027C19.1971 40.5682 19.4868 40.1548 19.8112 39.7697C19.9364 39.621 20.0699 39.4775 20.2076 39.3368C22.3246 39.7118 24.4079 39.3536 26.0505 38.3645C26.2865 39.7516 25.9526 41.348 25.0834 42.7527C24.8909 43.0699 24.6613 43.3808 24.411 43.6784L24.4083 43.6825ZM32.2685 45.6148C31.3245 46.1949 29.7986 46.4181 28.5983 45.1218C28.2676 44.7677 27.9622 44.3652 27.6918 43.9265C27.5876 43.7594 27.493 43.5867 27.4025 43.4167C28.4147 41.5159 28.7133 39.4262 28.2818 37.5663C29.6745 37.769 31.092 38.5818 32.1503 39.8337C32.4021 40.137 32.6306 40.4488 32.825 40.7681C33.0939 41.2 33.3137 41.6532 33.4857 42.1168C34.0936 43.7669 33.2111 45.0278 32.267 45.6079L32.2685 45.6148Z" fill="#F6608E"/>
</svg>
