<svg width="204" height="221" viewBox="0 0 204 221" fill="none" xmlns="http://www.w3.org/2000/svg">
<path d="M150.63 4.26003C140.26 -3.12997 114.68 17.76 103.53 27.68C97.1899 27.68 89.1699 28.6 80.0599 30.17C70.9399 31.66 63.0599 33.41 57.0599 35.47C43.2799 29.72 12.2899 18.32 4.89987 28.69C-2.44013 38.98 11.6799 61.49 18.6599 71.41C14.2799 82.76 13.9399 94.44 15.5699 104.17C16.9799 112.59 19.3899 120.83 22.8199 128.9C29.5099 144.65 44.5899 155.08 61.6899 155.65C74.8899 156.09 87.8799 155.24 100.65 153.1C113.42 150.96 125.98 147.53 138.31 142.8C154.29 136.68 165.15 121.9 166.33 104.83C166.94 96.08 166.53 87.51 165.12 79.09C163.49 69.36 159.36 58.43 151.52 49.13C154.87 37.5 160.89 11.6 150.59 4.26003H150.63Z" fill="#B1B9C6"/>
<path d="M90.1193 34.6702C92.4593 48.6002 90.2893 60.5702 85.3093 61.4102C80.3193 62.2502 74.3693 51.6402 72.0293 37.7002C71.7093 35.7902 71.4693 33.9201 71.3193 32.1101C77.1493 30.8601 83.0293 29.8702 88.9593 29.1602C89.4093 30.9202 89.7893 32.7602 90.1093 34.6602L90.1193 34.6702Z" fill="#91A2B5"/>
<path d="M69.9294 33.3402C72.2594 47.2602 70.1094 59.2402 65.1194 60.0802C60.3194 60.8802 54.6094 51.0402 52.1094 37.8502C55.0794 36.5202 58.1894 35.4002 61.4194 34.5202C64.1894 33.7702 66.9694 33.0702 69.7594 32.4502C69.8194 32.7502 69.8694 33.0402 69.9194 33.3302L69.9294 33.3402Z" fill="#91A2B5"/>
<path d="M108.979 28.2C110.949 41.53 108.779 52.76 103.949 53.57C98.9591 54.41 93.019 43.79 90.679 29.86C90.629 29.56 90.5791 29.27 90.5391 28.97C93.7991 28.6 97.0891 28.32 100.379 28.12C103.279 27.94 106.149 27.98 108.969 28.19L108.979 28.2Z" fill="#91A2B5"/>
<path d="M143.82 27.4401C143.82 27.4401 145.81 30.4601 146.66 34.0801C147.45 37.4201 145.85 40.3501 143.36 41.8701C136.69 36.4401 128.9 32.3901 120.49 30.0801C120.26 28.2301 120.72 26.3001 121.99 24.6901C127.07 18.2301 134.38 10.9601 140.65 12.3701C151.57 14.8301 143.83 27.4201 143.83 27.4201L143.82 27.4401Z" fill="white"/>
<path d="M18.9095 48.38C18.9095 48.38 18.0195 51.89 18.3995 55.59C18.7395 59.01 21.2095 61.25 24.0595 61.88C28.5895 54.57 34.6295 48.21 41.8395 43.28C41.4595 41.46 40.3896 39.78 38.6696 38.68C31.7596 34.23 22.4795 29.74 17.0195 33.12C7.49953 39.01 18.9196 48.39 18.9196 48.39L18.9095 48.38Z" fill="white"/>
<path d="M167.5 78.7001C166.28 71.4301 163 59.4601 154.19 48.5701C158.24 34.0901 162.88 10.08 152.01 2.33005C146.59 -1.52995 138.13 0.140073 126.14 7.45007C117.41 12.7801 108.65 19.9901 102.63 25.3201C96.5697 25.4101 88.8897 26.24 79.6997 27.83C70.4697 29.34 62.9397 31.0501 57.1697 32.9501C49.7297 29.8801 39.0797 25.9101 29.1097 23.7201C15.3897 20.7201 6.84966 21.8901 2.98966 27.3101C-4.77034 38.1901 7.45966 59.3701 16.0197 71.7301C11.2497 84.9001 12.0397 97.2901 13.2597 104.56C14.6997 113.14 17.1897 121.63 20.6697 129.82C24.1297 137.97 29.7897 144.92 37.0397 149.91C44.2997 154.91 52.8097 157.72 61.6497 158.02C63.8997 158.1 66.1497 158.13 68.3997 158.13C79.4297 158.13 90.3897 157.23 101.08 155.44C113.95 153.28 126.77 149.78 139.2 145.02C147.46 141.86 154.59 136.43 159.82 129.33C165.04 122.24 168.13 113.83 168.74 105C169.36 96.1201 168.94 87.2801 167.5 78.7001ZM164 104.67C162.88 120.74 152.48 134.84 137.5 140.58C125.37 145.22 112.85 148.65 100.29 150.75C87.7297 152.86 74.7797 153.7 61.7997 153.27C45.7597 152.73 31.3297 142.79 25.0297 127.96C21.6997 120.12 19.3097 111.98 17.9397 103.77C16.4197 94.6801 15.5797 76.9701 27.1497 60.5701C27.9097 59.5001 27.6497 58.0201 26.5797 57.2601C25.5097 56.5001 24.0297 56.76 23.2697 57.83C21.2497 60.7 19.5797 63.6001 18.1997 66.4901C6.85968 49.4701 2.61968 35.9901 6.84968 30.0601C10.9297 24.3301 27.5297 26.4501 50.7297 35.4801C47.0897 37.2201 43.6497 39.1701 40.4997 41.2701C39.4097 42 39.1197 43.4701 39.8397 44.5601C40.2997 45.2501 41.0497 45.6201 41.8197 45.6201C42.2697 45.6201 42.7297 45.4901 43.1397 45.2201C46.1797 43.1901 49.5197 41.3001 53.0697 39.6201C58.7097 36.9401 67.9297 34.5501 80.4697 32.5101C92.9797 30.3601 102.47 29.61 108.67 30.3C112.57 30.74 116.34 31.43 119.88 32.36C121.15 32.69 122.45 31.9301 122.78 30.6701C123.11 29.4001 122.35 28.1 121.09 27.7701C117.43 26.8101 113.54 26.0901 109.52 25.6301C128.5 9.52007 143.5 2.11007 149.24 6.20007C155.16 10.4201 155.55 24.5401 150.4 44.3401C148.16 42.0601 145.63 39.8601 142.78 37.8101C141.72 37.0401 140.23 37.2801 139.47 38.3501C138.7 39.4101 138.94 40.9001 140.01 41.6701C156.29 53.4001 161.28 70.4101 162.81 79.5001C164.19 87.7101 164.58 96.1801 163.99 104.68L164 104.67Z" fill="#678490"/>
<path d="M139.939 92.6001C139.029 87.2001 134.539 83.4501 129.909 84.2301C125.279 85.0101 122.249 90.0101 123.159 95.4101C124.069 100.81 128.549 104.56 133.189 103.78C137.819 103 140.849 98.0001 139.939 92.6001Z" fill="#605C5D"/>
<path d="M76.5498 103.23C75.6398 97.83 71.1598 94.08 66.5198 94.86C61.8898 95.64 58.8598 100.64 59.7698 106.04C60.6798 111.44 65.1598 115.19 69.7998 114.41C74.4298 113.63 77.4498 108.63 76.5498 103.23Z" fill="#605C5D"/>
<path d="M141.79 108.59C140.65 108.59 139.65 107.77 139.45 106.61C139.23 105.32 140.11 104.09 141.4 103.87L154.66 101.65C155.95 101.43 157.18 102.31 157.39 103.6C157.61 104.89 156.73 106.12 155.44 106.33L142.18 108.55C142.05 108.57 141.91 108.58 141.78 108.58L141.79 108.59Z" fill="#91A2B5"/>
<path d="M154.73 119.23C154.58 119.23 154.43 119.22 154.28 119.19L142.76 116.99C141.47 116.74 140.63 115.5 140.87 114.21C141.12 112.92 142.36 112.08 143.65 112.32L155.17 114.52C156.46 114.77 157.3 116.01 157.06 117.3C156.84 118.44 155.85 119.23 154.73 119.23Z" fill="#91A2B5"/>
<path d="M49.2097 124.12C48.0697 124.12 47.0697 123.3 46.8697 122.14C46.6497 120.85 47.5297 119.62 48.8197 119.41L62.0797 117.19C63.3697 116.97 64.5997 117.85 64.8097 119.14C65.0297 120.43 64.1497 121.66 62.8597 121.88L49.5997 124.1C49.4697 124.12 49.3297 124.13 49.1997 124.13L49.2097 124.12Z" fill="#91A2B5"/>
<path d="M53.7101 136.16C52.8901 136.16 52.0901 135.73 51.6501 134.97C51.0001 133.83 51.3901 132.38 52.5301 131.73L62.7001 125.89C63.8401 125.24 65.2901 125.63 65.9401 126.77C66.5901 127.91 66.2001 129.36 65.0601 130.01L54.8901 135.85C54.5201 136.06 54.1101 136.17 53.7101 136.17V136.16Z" fill="#91A2B5"/>
<path d="M115.119 70.5301C113.979 70.5301 112.979 69.7101 112.779 68.5501C112.559 67.2601 113.439 66.0301 114.729 65.8101L121.679 64.6401C122.969 64.4301 124.199 65.3001 124.419 66.5901C124.639 67.8801 123.759 69.1101 122.469 69.3301L115.519 70.5001C115.389 70.5201 115.249 70.5301 115.119 70.5301Z" fill="white"/>
<path d="M69.3493 78.2004C68.2093 78.2004 67.2093 77.3803 67.0093 76.2203C66.7893 74.9303 67.6693 73.7003 68.9593 73.4903L75.9093 72.3203C77.1993 72.1003 78.4293 72.9803 78.6393 74.2703C78.8593 75.5603 77.9793 76.7903 76.6893 77.0003L69.7393 78.1704C69.6093 78.1904 69.4693 78.2004 69.3393 78.2004H69.3493Z" fill="white"/>
<path d="M112.71 102.9L113.47 107.42C113.83 109.54 113.59 111.63 112.89 113.52C111.46 117.35 108.08 120.34 103.74 121.06C99.4001 121.78 95.2401 120.06 92.6301 116.91C91.3501 115.36 90.4501 113.46 90.0901 111.34L89.3301 106.82C90.5101 107.18 91.7901 107.29 93.0901 107.07C97.5501 106.32 100.55 102.11 99.8001 97.6499C100.55 102.11 104.77 105.11 109.22 104.36C110.52 104.14 111.7 103.63 112.69 102.9H112.71Z" fill="#678490"/>
<path d="M113.25 115.65C111.82 119.48 108.44 122.47 104.11 123.19C99.78 123.92 95.61 122.19 93 119.04C94.43 115.2 97.81 112.21 102.14 111.48C106.47 110.75 110.64 112.48 113.25 115.64V115.65Z" fill="#FD80A6"/>
<path d="M115.81 107.03L115.19 103.36C115.09 102.74 114.74 102.18 114.23 101.82C113.72 101.45 113.08 101.31 112.46 101.41L108.84 102.02C107.31 102.28 105.77 101.92 104.51 101.02C103.67 100.42 103.02 99.6199 102.6 98.6999L103.55 98.5399C104.84 98.3199 105.72 97.0999 105.5 95.8099C105.28 94.5199 104.06 93.6399 102.77 93.8599L95.3197 95.1099C94.0297 95.3299 93.1497 96.5499 93.3697 97.8399C93.5597 98.9999 94.5697 99.8199 95.7097 99.8199C95.8397 99.8199 95.9697 99.8099 96.1097 99.7899L97.5197 99.5499C97.2797 102.1 95.3497 104.28 92.7097 104.73L89.0897 105.34C88.4697 105.44 87.9097 105.79 87.5497 106.3C87.1897 106.81 87.0397 107.45 87.1397 108.07L87.7597 111.74C88.9197 118.68 94.9597 123.61 101.78 123.61C102.56 123.61 103.35 123.55 104.14 123.41C107.89 122.78 111.16 120.73 113.37 117.64C115.57 114.55 116.44 110.78 115.81 107.04V107.03ZM109.5 114.88C108.03 116.94 105.85 118.31 103.35 118.73C98.1997 119.59 93.3097 116.11 92.4397 110.96L92.2197 109.63L93.4897 109.42C96.2697 108.95 98.6997 107.43 100.34 105.14C100.55 104.85 100.74 104.55 100.92 104.24C101.19 104.47 101.47 104.69 101.76 104.9C104.06 106.54 106.85 107.18 109.63 106.72L110.9 106.51L111.12 107.84C111.54 110.33 110.96 112.84 109.49 114.9L109.5 114.88Z" fill="#678490"/>
<path d="M67.1284 182.791C75.441 169.902 76.314 155.67 69.0783 151.004C61.8425 146.337 49.2381 153.002 40.9254 165.891C32.6128 178.78 31.7398 193.012 38.9755 197.678C46.2113 202.345 58.8157 195.68 67.1284 182.791Z" fill="#B1B9C6"/>
<path d="M154.81 122.78L156.36 125.18L158.77 123.63C168.72 117.2 182 120.05 188.43 130C194.86 139.95 192.01 153.23 182.06 159.66L168.89 168.17C154.94 177.19 136.31 173.19 127.29 159.24L118.78 146.07C112.35 136.12 115.2 122.84 125.15 116.41C135.1 109.98 148.38 112.83 154.81 122.78Z" fill="#FD80A6"/>
<path d="M152.61 175.36C141.95 175.36 131.5 170.13 125.3 160.53L116.79 147.36C109.66 136.33 112.83 121.55 123.86 114.42C134.89 107.29 149.67 110.46 156.8 121.49L157.07 121.9L157.48 121.63C168.51 114.5 183.29 117.67 190.42 128.7C197.55 139.73 194.38 154.51 183.35 161.64L170.18 170.15C164.75 173.66 158.64 175.34 152.61 175.34V175.36ZM136.76 115.35C133.13 115.35 129.57 116.39 126.44 118.41C117.61 124.12 115.07 135.95 120.78 144.79L129.29 157.96C137.58 170.79 154.77 174.48 167.6 166.19L180.77 157.68C185.05 154.91 187.99 150.65 189.06 145.67C190.13 140.69 189.19 135.59 186.43 131.31C183.66 127.03 179.4 124.09 174.42 123.02C169.44 121.95 164.34 122.88 160.06 125.65L157.66 127.2C156.56 127.91 155.09 127.6 154.38 126.49L152.83 124.08C150.06 119.8 145.8 116.86 140.82 115.79C139.48 115.5 138.12 115.36 136.78 115.36L136.76 115.35Z" fill="#F6608E"/>
<path d="M175.51 141.08C177.11 148.93 184.77 154.01 192.63 152.41C200.48 150.81 202.04 143.86 200.44 136.01C198.84 128.16 194.69 122.37 186.83 123.97C178.98 125.57 173.9 133.23 175.5 141.09L175.51 141.08Z" fill="#B1B9C6"/>
<path d="M189.69 155.08C186.41 155.08 183.2 154.12 180.41 152.27C176.65 149.78 174.08 145.98 173.18 141.55C171.32 132.42 177.23 123.49 186.36 121.63C194.64 119.94 200.63 125.01 202.77 135.52C203.73 140.23 203.57 144.24 202.29 147.43C200.74 151.3 197.56 153.82 193.11 154.73C191.98 154.96 190.84 155.07 189.7 155.07L189.69 155.08ZM177.83 140.61C178.48 143.79 180.32 146.52 183.03 148.31C185.73 150.1 188.97 150.73 192.15 150.08C195.04 149.49 196.92 148.05 197.87 145.67C198.79 143.39 198.87 140.21 198.11 136.48C196.5 128.59 192.87 125.16 187.31 126.29C180.75 127.63 176.5 134.05 177.84 140.61H177.83Z" fill="#678490"/>
<path d="M44.3495 201.54C41.9295 201.54 39.6696 200.94 37.6996 199.67C33.4496 196.93 31.3395 191.62 31.7595 184.72C32.1495 178.32 34.6995 171.17 38.9395 164.6C48.0995 150.39 61.9095 143.54 70.3795 149C78.8495 154.46 78.2996 169.87 69.1396 184.07C62.1096 194.97 52.3395 201.54 44.3495 201.54ZM63.6895 151.86C57.4495 151.86 48.9195 157.88 42.9295 167.17C39.1295 173.07 36.8395 179.4 36.4995 185.01C36.1895 190.12 37.5295 193.91 40.2695 195.68C41.4595 196.44 42.8495 196.81 44.3795 196.81C50.6195 196.81 59.1496 190.79 65.1396 181.5C72.5996 169.93 73.8195 156.88 67.7995 153C66.6095 152.24 65.2195 151.87 63.6895 151.87V151.86Z" fill="#678490"/>
<path d="M155.299 160.6L122.819 132.66C119.739 130.01 115.439 129.3 111.669 130.82L71.9393 146.85C68.4193 148.27 65.8993 151.42 65.2793 155.16L58.8593 194.07C57.8793 199.99 61.8893 205.59 67.8193 206.56L140.029 218.47C145.949 219.45 151.549 215.44 152.519 209.52L158.939 170.61C159.559 166.87 158.179 163.07 155.299 160.6Z" fill="white"/>
<path d="M93.0892 168.88L93.7992 169.84L94.7592 169.13C98.7092 166.2 104.289 167.03 107.219 170.99C110.149 174.94 109.319 180.52 105.359 183.45L100.129 187.33C94.5792 191.44 86.7592 190.27 82.6492 184.73L78.7692 179.5C75.8392 175.55 76.6692 169.97 80.6292 167.04C84.5792 164.11 90.1592 164.94 93.0892 168.9V168.88Z" fill="#FFA6CA"/>
<path d="M141.829 221C141.109 221 140.379 220.94 139.649 220.82L67.4393 208.91C63.9493 208.33 60.8893 206.43 58.8293 203.56C56.7693 200.68 55.9493 197.18 56.5293 193.69L62.9493 154.78C63.6993 150.25 66.8093 146.37 71.0593 144.65L110.789 128.62C115.399 126.76 120.609 127.62 124.379 130.86L156.859 158.8C160.339 161.79 162.039 166.47 161.289 171L154.869 209.91C154.289 213.4 152.389 216.46 149.519 218.52C147.249 220.15 144.579 221 141.829 221ZM115.749 132.41C114.679 132.41 113.599 132.61 112.559 133.03L72.8293 149.06C70.0993 150.16 68.1093 152.65 67.6293 155.55L61.2093 194.46C60.8393 196.7 61.3693 198.95 62.6893 200.79C64.0093 202.63 65.9693 203.85 68.2093 204.22L140.419 216.13C142.659 216.5 144.909 215.97 146.749 214.65C148.589 213.33 149.809 211.37 150.179 209.13L156.599 170.22C157.079 167.32 155.989 164.32 153.759 162.4L121.279 134.46C119.709 133.11 117.739 132.4 115.749 132.4V132.41Z" fill="#E3E3E3"/>
<path d="M147.019 169.61C146.899 169.61 146.769 169.61 146.649 169.58L76.729 158.53C75.429 158.33 74.549 157.11 74.749 155.81C74.949 154.51 76.179 153.63 77.469 153.83L147.389 164.88C148.689 165.08 149.569 166.3 149.369 167.6C149.179 168.77 148.179 169.6 147.029 169.6L147.019 169.61Z" fill="#E3E3E3"/>
<path d="M144.249 181.44C144.129 181.44 143.999 181.44 143.879 181.41L124.439 178.34C123.139 178.14 122.259 176.92 122.469 175.62C122.669 174.32 123.889 173.44 125.189 173.65L144.629 176.72C145.929 176.92 146.809 178.14 146.599 179.44C146.409 180.61 145.409 181.44 144.259 181.44H144.249Z" fill="#E3E3E3"/>
<path d="M142.99 191.96C142.87 191.96 142.74 191.96 142.62 191.93L123.18 188.86C121.88 188.66 121 187.44 121.21 186.14C121.41 184.84 122.63 183.96 123.93 184.17L143.37 187.24C144.67 187.44 145.55 188.66 145.34 189.96C145.15 191.13 144.15 191.96 143 191.96H142.99Z" fill="#E3E3E3"/>
<path d="M141.209 201.73C141.089 201.73 140.959 201.73 140.839 201.7L121.399 198.63C120.099 198.43 119.219 197.21 119.419 195.91C119.619 194.61 120.839 193.73 122.139 193.93L141.579 197C142.879 197.2 143.759 198.42 143.559 199.72C143.369 200.89 142.369 201.72 141.219 201.72L141.209 201.73Z" fill="#E3E3E3"/>
<path d="M100.06 201.04C99.9395 201.04 99.8095 201.04 99.6895 201.01L80.2495 197.94C78.9495 197.74 78.0695 196.52 78.2695 195.22C78.4695 193.92 79.6895 193.04 80.9895 193.24L100.43 196.31C101.73 196.51 102.61 197.73 102.41 199.03C102.22 200.2 101.22 201.03 100.07 201.03L100.06 201.04Z" fill="#E3E3E3"/>
<path d="M80.3998 159.06C78.7998 166.91 71.1398 171.99 63.2798 170.39C55.4298 168.79 53.8698 161.84 55.4698 153.99C57.0698 146.14 61.2198 140.35 69.0798 141.95C76.9298 143.55 82.0098 151.21 80.4098 159.07L80.3998 159.06Z" fill="#B1B9C6"/>
<path d="M66.1894 173.06C65.0794 173.06 63.9494 172.95 62.8094 172.72C58.3594 171.81 55.1794 169.29 53.6294 165.42C52.3494 162.23 52.1894 158.22 53.1494 153.51C55.2894 142.99 61.2694 137.93 69.5594 139.62C78.6894 141.48 84.5994 150.41 82.7394 159.54C81.1094 167.53 74.0494 173.06 66.1994 173.06H66.1894ZM66.6194 144.06C62.1694 144.06 59.2094 147.55 57.7994 154.46C57.0394 158.19 57.1194 161.37 58.0394 163.65C58.9994 166.03 60.8694 167.47 63.7594 168.06C70.3194 169.4 76.7394 165.15 78.0794 158.59C79.4194 152.03 75.1694 145.61 68.6094 144.27C67.9194 144.13 67.2594 144.06 66.6194 144.06Z" fill="#678490"/>
</svg>
