<svg width="32" height="32" viewBox="0 0 32 32" fill="none" xmlns="http://www.w3.org/2000/svg">
<path d="M6.66667 23.8372H25.3333V14.7613C25.3333 9.70437 21.1547 5.60465 16 5.60465C10.8453 5.60465 6.66667 9.70437 6.66667 14.7613V23.8372ZM16 3C22.6267 3 28 8.2653 28 14.7613V26.4419H4V14.7613C4 8.2653 9.37333 3 16 3ZM12.6667 27.7442H19.3333C19.3333 28.6077 18.9821 29.4358 18.357 30.0464C17.7319 30.657 16.8841 31 16 31C15.1159 31 14.2681 30.657 13.643 30.0464C13.0179 29.4358 12.6667 28.6077 12.6667 27.7442Z" fill="white"/>
</svg>
