<svg width="108" height="108" viewBox="0 0 108 108" fill="none" xmlns="http://www.w3.org/2000/svg">
<path d="M101.15 53.2556L99.4379 52.2212V52.2212L101.15 53.2556ZM54.7444 6.85035L53.7101 5.13859V5.13859L54.7444 6.85035ZM104 54C104 81.6142 81.6142 104 54 104V108C83.8234 108 108 83.8234 108 54H104ZM54 104C26.3858 104 4 81.6142 4 54H0C0 83.8234 24.1766 108 54 108V104ZM4 54C4 26.3858 26.3858 4 54 4V0C24.1766 0 0 24.1766 0 54H4ZM72.2 67.6C54.6373 67.6 40.4 53.3627 40.4 35.8H36.4C36.4 55.5718 52.4282 71.6 72.2 71.6V67.6ZM99.4379 52.2212C93.8659 61.4425 83.751 67.6 72.2 67.6V71.6C85.209 71.6 96.5952 64.66 102.861 54.2899L99.4379 52.2212ZM40.4 35.8C40.4 24.249 46.5575 14.1341 55.7788 8.56211L53.7101 5.13859C43.34 11.4048 36.4 22.791 36.4 35.8H40.4ZM54 4C54.0569 4 54.0122 4.00335 53.9786 3.96845C53.9758 3.96552 54.0391 4.03653 54.0647 4.22624C54.0896 4.41113 54.0641 4.61889 53.9902 4.79544C53.9206 4.96182 53.8226 5.0706 53.7101 5.13859L55.7788 8.56212C57.622 7.4483 58.2559 5.37307 58.0287 3.69088C57.7953 1.96255 56.4971 0 54 0V4ZM102.861 54.2899C102.929 54.1774 103.038 54.0794 103.205 54.0098C103.381 53.9359 103.589 53.9104 103.774 53.9353C103.963 53.961 104.034 54.0242 104.032 54.0214C103.997 53.9878 104 53.9431 104 54H108C108 51.5029 106.037 50.2047 104.309 49.9713C102.627 49.7441 100.552 50.378 99.4379 52.2212L102.861 54.2899Z" fill="white"/>
</svg>
