<svg width="107" height="112" viewBox="0 0 107 112" fill="none" xmlns="http://www.w3.org/2000/svg">
<path d="M66.3508 4.45695C58.1142 1.18102 48.8858 1.18102 40.6492 4.45695C17.2622 13.7586 2 35.9126 2 60.4894V61.77C2 88.3769 24.1421 110 51.5275 110H55.4725C82.8579 110 105 88.3769 105 61.77V60.4894C105 35.9126 89.7378 13.7586 66.3508 4.45695ZM52.0386 27.6641C52.3993 28.4073 52.1026 29.3669 51.1736 29.7762C42.7814 33.4739 36.0684 40.9593 32.9686 50.2907C32.6977 51.1061 31.7021 51.6832 30.6648 51.3704C29.6632 51.0684 29.249 50.1305 29.5042 49.3622C32.8498 39.291 40.161 31.0055 49.59 26.851C50.5656 26.4211 51.6499 26.8633 52.0386 27.6641Z" fill="url(#paint0_linear_195_4625)" fill-opacity="0.7" stroke="white" stroke-width="4" stroke-linecap="round"/>
<defs>
<linearGradient id="paint0_linear_195_4625" x1="4" y1="56" x2="103" y2="56" gradientUnits="userSpaceOnUse">
<stop stop-color="#0099F7"/>
<stop offset="1" stop-color="#12F1E4"/>
</linearGradient>
</defs>
</svg>
