<svg width="374" height="85" viewBox="0 0 374 85" fill="none" xmlns="http://www.w3.org/2000/svg">
<path d="M370.753 22.1554C368.813 19.9832 366.032 18.7351 363.116 18.7351H350.985C351.304 14.4959 349.977 10.2916 347.227 6.98081C344.1 3.2189 339.497 1.05105 334.606 1.03353L43.9353 0C39.0522 0 34.4494 2.14594 31.3094 5.88596C28.3358 9.4289 27.022 14.0141 27.6088 18.5731H10.2313C7.31899 18.5731 4.53806 19.8212 2.59799 21.9934C0.657906 24.1656 -0.266163 27.0736 0.0666726 29.9683L5.28257 75.7551C5.86941 80.9315 10.24 84.8336 15.4515 84.8336H35.5093C42.928 84.8336 49.265 80.1608 51.7657 73.6092H321.533C323.994 80.2484 330.371 85 337.851 85H357.904C363.111 85 367.486 81.098 368.073 75.9215L373.289 30.1348C373.622 27.24 372.698 24.3364 370.758 22.1598L370.753 22.1554Z" fill="#2299D1"/>
<path d="M357.899 78.601H337.846C331.758 78.601 326.818 73.6654 326.818 67.5737V25.1196H363.115C365.41 25.1196 367.197 27.1166 366.934 29.3983C365.195 44.6606 363.457 59.9229 361.718 75.1851C361.495 77.1296 359.852 78.5966 357.899 78.5966V78.601Z" fill="#35B3EF"/>
<path d="M15.4471 78.436H35.5005C41.5879 78.436 46.5278 73.5004 46.5278 67.4086V24.9546H10.2313C7.93646 24.9546 6.14964 26.9516 6.41241 29.2333C8.15103 44.4955 9.88967 59.7578 11.6283 75.0201C11.8517 76.9645 13.4939 78.4316 15.4471 78.4316V78.436Z" fill="#35B3EF"/>
<path d="M327.327 67.2099H51.0825C46.182 67.2099 41.9909 63.6889 41.1413 58.8628C38.7589 45.3173 36.3764 31.7717 33.994 18.2218C32.9036 12.0294 37.6815 6.35805 43.9704 6.37995C140.843 6.72592 237.711 7.07189 334.584 7.41348C340.868 7.43538 345.607 13.133 344.477 19.3167C342.068 32.5162 339.664 45.7202 337.255 58.9197C336.379 63.7152 332.201 67.2056 327.323 67.2056L327.327 67.2099Z" fill="#53C7FE"/>
<g filter="url(#filter0_d_2422_5589)">
<mask id="path-5-outside-1_2422_5589" maskUnits="userSpaceOnUse" x="125.041" y="20.9849" width="124" height="27" fill="black">
<rect fill="white" x="125.041" y="20.9849" width="124" height="27"/>
<path d="M129.778 46.2649C129.069 46.2649 128.444 46.1529 127.902 45.9289C127.361 45.7049 126.941 45.3502 126.642 44.8649C126.344 44.3609 126.194 43.7169 126.194 42.9329V30.6409H129.75V42.4849C129.75 42.8769 129.834 43.1662 130.002 43.3529C130.17 43.5209 130.441 43.6049 130.814 43.6049C130.964 43.6049 131.122 43.5862 131.29 43.5489C131.477 43.5115 131.645 43.4649 131.794 43.4089L132.186 45.7609C131.832 45.9475 131.449 46.0782 131.038 46.1529C130.628 46.2275 130.208 46.2649 129.778 46.2649ZM137.898 46.2649C137.189 46.2649 136.564 46.1529 136.022 45.9289C135.481 45.7049 135.061 45.3502 134.762 44.8649C134.464 44.3609 134.314 43.7169 134.314 42.9329V30.6409H137.87V42.4849C137.87 42.8769 137.954 43.1662 138.122 43.3529C138.29 43.5209 138.561 43.6049 138.934 43.6049C139.084 43.6049 139.242 43.5862 139.41 43.5489C139.597 43.5115 139.765 43.4649 139.914 43.4089L140.306 45.7609C139.952 45.9475 139.569 46.0782 139.158 46.1529C138.748 46.2275 138.328 46.2649 137.898 46.2649ZM151.657 45.9849V35.9329C151.657 34.9062 151.396 34.1782 150.873 33.7489C150.369 33.3009 149.557 33.0769 148.437 33.0769C147.485 33.0769 146.561 33.2169 145.665 33.4969C144.769 33.7769 143.967 34.1222 143.257 34.5329V31.4809C143.799 31.2195 144.545 30.9582 145.497 30.6969C146.468 30.4355 147.579 30.3049 148.829 30.3049C149.8 30.3049 150.668 30.4075 151.433 30.6129C152.217 30.8182 152.88 31.1449 153.421 31.5929C153.981 32.0409 154.401 32.6289 154.681 33.3569C154.98 34.0662 155.129 34.9342 155.129 35.9609V45.9849H151.657ZM146.981 46.2649C145.357 46.2649 144.107 45.8822 143.229 45.1169C142.371 44.3515 141.941 43.2782 141.941 41.8969C141.941 40.3662 142.483 39.1715 143.565 38.3129C144.667 37.4355 146.421 36.9129 148.829 36.7449L152.245 36.4929V39.1529L149.249 39.4049C147.831 39.5355 146.851 39.7969 146.309 40.1889C145.768 40.5622 145.497 41.0942 145.497 41.7849C145.497 42.4382 145.703 42.9329 146.113 43.2689C146.543 43.5862 147.121 43.7449 147.849 43.7449C148.111 43.7449 148.353 43.7262 148.577 43.6889C148.82 43.6329 149.044 43.5769 149.249 43.5209L149.641 45.8449C149.287 45.9755 148.876 46.0782 148.409 46.1529C147.943 46.2275 147.467 46.2649 146.981 46.2649ZM159.13 45.9849V41.0569C159.13 39.8809 159.373 38.9942 159.858 38.3969C160.344 37.7995 161.006 37.3889 161.846 37.1649L161.874 37.0529L158.85 35.9329V35.1209C158.85 34.2622 159.112 33.4689 159.634 32.7409C160.176 32.0129 160.95 31.4249 161.958 30.9769C162.966 30.5289 164.189 30.3049 165.626 30.3049C166.933 30.3049 168.09 30.5102 169.098 30.9209C170.106 31.3315 170.9 31.9569 171.478 32.7969C172.057 33.6182 172.346 34.6822 172.346 35.9889V45.9849H168.79V36.2409C168.79 35.1769 168.492 34.4022 167.894 33.9169C167.297 33.4315 166.513 33.1889 165.542 33.1889C164.572 33.1889 163.825 33.3942 163.302 33.8049C162.798 34.1969 162.528 34.6915 162.49 35.2889L165.206 36.5769L164.926 38.2289C164.236 38.2475 163.685 38.4902 163.274 38.9569C162.882 39.4049 162.686 40.0489 162.686 40.8889V45.9849H159.13ZM185.345 45.9849V35.9329C185.345 34.9062 185.084 34.1782 184.561 33.7489C184.057 33.3009 183.245 33.0769 182.125 33.0769C181.173 33.0769 180.249 33.2169 179.353 33.4969C178.457 33.7769 177.654 34.1222 176.945 34.5329V31.4809C177.486 31.2195 178.233 30.9582 179.185 30.6969C180.156 30.4355 181.266 30.3049 182.517 30.3049C183.506 30.3049 184.374 30.4262 185.121 30.6689C185.886 30.8929 186.446 31.3409 186.801 32.0129C187.529 32.2742 188.042 32.7502 188.341 33.4409C188.658 34.1129 188.817 34.9529 188.817 35.9609V45.9849H185.345ZM180.669 46.2649C179.045 46.2649 177.794 45.8822 176.917 45.1169C176.058 44.3515 175.629 43.2782 175.629 41.8969C175.629 40.3662 176.17 39.1715 177.253 38.3129C178.354 37.4355 180.109 36.9129 182.517 36.7449L185.933 36.4929V39.1529L182.937 39.4049C181.518 39.5355 180.538 39.7969 179.997 40.1889C179.456 40.5622 179.185 41.0942 179.185 41.7849C179.185 42.4382 179.39 42.9329 179.801 43.2689C180.23 43.5862 180.809 43.7449 181.537 43.7449C181.798 43.7449 182.041 43.7262 182.265 43.6889C182.508 43.6329 182.732 43.5769 182.937 43.5209L183.329 45.8449C182.974 45.9755 182.564 46.0782 182.097 46.1529C181.63 46.2275 181.154 46.2649 180.669 46.2649ZM186.717 33.3569L184.757 31.6489C185.336 31.4809 185.821 31.2382 186.213 30.9209C186.624 30.5849 186.829 30.1555 186.829 29.6329H190.049C190.049 30.2115 189.918 30.7529 189.657 31.2569C189.414 31.7422 189.041 32.1715 188.537 32.5449C188.052 32.8995 187.445 33.1702 186.717 33.3569ZM186.315 29.0449C185.307 29.0449 184.505 28.8115 183.907 28.3449C183.291 27.8782 182.983 27.2155 182.983 26.3569C182.983 25.4982 183.291 24.8355 183.907 24.3689C184.505 23.9022 185.307 23.6689 186.315 23.6689C187.342 23.6689 188.163 23.9022 188.779 24.3689C189.377 24.8355 189.675 25.4982 189.675 26.3569C189.675 27.2155 189.377 27.8782 188.779 28.3449C188.163 28.8115 187.342 29.0449 186.315 29.0449ZM186.315 27.5329C186.745 27.5329 187.071 27.4302 187.295 27.2249C187.519 27.0009 187.631 26.7115 187.631 26.3569C187.631 26.0022 187.519 25.7222 187.295 25.5169C187.071 25.2929 186.745 25.1809 186.315 25.1809C185.905 25.1809 185.587 25.2929 185.363 25.5169C185.139 25.7222 185.027 26.0022 185.027 26.3569C185.027 26.7115 185.139 27.0009 185.363 27.2249C185.587 27.4302 185.905 27.5329 186.315 27.5329ZM197.212 45.9849V35.5689C197.212 34.7289 197.016 34.1222 196.624 33.7489C196.251 33.3569 195.616 33.1609 194.72 33.1609C194.085 33.1609 193.497 33.2542 192.956 33.4409C192.415 33.6089 191.901 33.8235 191.416 34.0849V31.1449C191.808 30.9582 192.368 30.7715 193.096 30.5849C193.824 30.3982 194.683 30.3049 195.672 30.3049C196.68 30.3049 197.567 30.4542 198.332 30.7529C199.097 31.0329 199.695 31.5182 200.124 32.2089C200.553 32.8809 200.768 33.7955 200.768 34.9529V45.9849H197.212ZM208.911 46.2649C208.202 46.2649 207.576 46.1529 207.035 45.9289C206.494 45.7049 206.074 45.3502 205.775 44.8649C205.476 44.3609 205.327 43.7169 205.327 42.9329V30.6409H208.883V42.4849C208.883 42.8769 208.967 43.1662 209.135 43.3529C209.303 43.5209 209.574 43.6049 209.947 43.6049C210.096 43.6049 210.255 43.5862 210.423 43.5489C210.61 43.5115 210.778 43.4649 210.927 43.4089L211.319 45.7609C210.964 45.9475 210.582 46.0782 210.171 46.1529C209.76 46.2275 209.34 46.2649 208.911 46.2649ZM218.721 46.3209C217.62 46.3209 216.546 46.2089 215.501 45.9849C214.456 45.7422 213.541 45.4249 212.757 45.0329L213.765 42.2049C214.157 42.3915 214.605 42.5875 215.109 42.7929C215.632 42.9795 216.192 43.1382 216.789 43.2689C217.405 43.3995 218.021 43.4649 218.637 43.4649C219.477 43.4649 220.14 43.3342 220.625 43.0729C221.11 42.7929 221.353 42.3822 221.353 41.8409C221.353 41.4675 221.232 41.1595 220.989 40.9169C220.746 40.6555 220.382 40.4129 219.897 40.1889C219.412 39.9649 218.814 39.7409 218.105 39.5169C217.041 39.1622 216.136 38.7795 215.389 38.3689C214.642 37.9395 214.073 37.4355 213.681 36.8569C213.289 36.2595 213.093 35.5129 213.093 34.6169C213.093 33.6835 213.326 32.8995 213.793 32.2649C214.278 31.6302 214.988 31.1449 215.921 30.8089C216.854 30.4729 217.974 30.3049 219.281 30.3049C220.27 30.3049 221.176 30.3889 221.997 30.5569C222.818 30.7249 223.462 30.9395 223.929 31.2009V34.0569C223.612 33.9075 223.201 33.7582 222.697 33.6089C222.193 33.4595 221.652 33.3382 221.073 33.2449C220.494 33.1329 219.925 33.0769 219.365 33.0769C218.432 33.0769 217.741 33.2169 217.293 33.4969C216.864 33.7582 216.649 34.1035 216.649 34.5329C216.649 34.8689 216.77 35.1582 217.013 35.4009C217.274 35.6249 217.676 35.8395 218.217 36.0449C218.758 36.2502 219.44 36.5022 220.261 36.8009C221.194 37.1182 222.006 37.4822 222.697 37.8929C223.406 38.2849 223.948 38.7795 224.321 39.3769C224.713 39.9742 224.909 40.7209 224.909 41.6169C224.909 42.4382 224.713 43.2035 224.321 43.9129C223.948 44.6222 223.313 45.2009 222.417 45.6489C221.521 46.0969 220.289 46.3209 218.721 46.3209ZM221.108 28.7089C220.548 28.7089 220.072 28.6062 219.68 28.4009C219.288 28.1769 218.989 27.8595 218.784 27.4489L217.384 28.6249C216.245 28.6249 215.34 28.3542 214.668 27.8129C213.977 27.2529 213.632 26.4409 213.632 25.3769C213.632 24.6302 213.79 24.0142 214.108 23.5289C214.425 23.0435 214.836 22.6889 215.34 22.4649C215.844 22.2222 216.394 22.1009 216.992 22.1009H223.824V24.0049H217.58C217.188 24.0049 216.861 24.1262 216.6 24.3689C216.32 24.5929 216.18 24.9569 216.18 25.4609C216.18 25.8342 216.273 26.1329 216.46 26.3569C216.628 26.5809 216.898 26.6929 217.272 26.6929L218.672 25.4329H219.232C219.288 25.8062 219.418 26.1235 219.624 26.3849C219.829 26.6462 220.109 26.7769 220.464 26.7769C220.781 26.7769 221.024 26.6835 221.192 26.4969C221.341 26.3102 221.416 26.0582 221.416 25.7409V25.3489H223.852V25.8529C223.852 26.8235 223.609 27.5422 223.124 28.0089C222.62 28.4755 221.948 28.7089 221.108 28.7089ZM229.497 45.9849V39.4049H227.705V37.0529H232.745V43.2409H232.997C233.706 43.2409 234.303 43.0635 234.789 42.7089C235.274 42.3542 235.638 41.8129 235.881 41.0849C236.123 40.3569 236.245 39.4235 236.245 38.2849C236.245 37.0342 236.086 36.0355 235.769 35.2889C235.451 34.5422 234.966 34.0009 234.313 33.6649C233.659 33.3289 232.829 33.1609 231.821 33.1609C230.869 33.1609 229.991 33.2915 229.189 33.5529C228.405 33.8142 227.686 34.1502 227.033 34.5609V31.5089C227.611 31.1729 228.367 30.8929 229.301 30.6689C230.234 30.4262 231.279 30.3049 232.437 30.3049C234.191 30.3049 235.61 30.6035 236.693 31.2009C237.794 31.7982 238.597 32.6849 239.101 33.8609C239.605 35.0369 239.857 36.4929 239.857 38.2289C239.857 39.8715 239.614 41.2809 239.129 42.4569C238.662 43.6142 237.897 44.4915 236.833 45.0889C235.787 45.6862 234.378 45.9849 232.605 45.9849H229.497ZM246.992 39.3489H243.66L242.96 25.9929H247.692L246.992 39.3489ZM242.904 44.0249C242.904 43.1662 243.137 42.5689 243.604 42.2329C244.07 41.8782 244.64 41.7009 245.312 41.7009C245.965 41.7009 246.525 41.8782 246.992 42.2329C247.458 42.5689 247.692 43.1662 247.692 44.0249C247.692 44.8462 247.458 45.4435 246.992 45.8169C246.525 46.1715 245.965 46.3489 245.312 46.3489C244.64 46.3489 244.07 46.1715 243.604 45.8169C243.137 45.4435 242.904 44.8462 242.904 44.0249Z"/>
</mask>
<path d="M129.778 46.2649C129.069 46.2649 128.444 46.1529 127.902 45.9289C127.361 45.7049 126.941 45.3502 126.642 44.8649C126.344 44.3609 126.194 43.7169 126.194 42.9329V30.6409H129.75V42.4849C129.75 42.8769 129.834 43.1662 130.002 43.3529C130.17 43.5209 130.441 43.6049 130.814 43.6049C130.964 43.6049 131.122 43.5862 131.29 43.5489C131.477 43.5115 131.645 43.4649 131.794 43.4089L132.186 45.7609C131.832 45.9475 131.449 46.0782 131.038 46.1529C130.628 46.2275 130.208 46.2649 129.778 46.2649ZM137.898 46.2649C137.189 46.2649 136.564 46.1529 136.022 45.9289C135.481 45.7049 135.061 45.3502 134.762 44.8649C134.464 44.3609 134.314 43.7169 134.314 42.9329V30.6409H137.87V42.4849C137.87 42.8769 137.954 43.1662 138.122 43.3529C138.29 43.5209 138.561 43.6049 138.934 43.6049C139.084 43.6049 139.242 43.5862 139.41 43.5489C139.597 43.5115 139.765 43.4649 139.914 43.4089L140.306 45.7609C139.952 45.9475 139.569 46.0782 139.158 46.1529C138.748 46.2275 138.328 46.2649 137.898 46.2649ZM151.657 45.9849V35.9329C151.657 34.9062 151.396 34.1782 150.873 33.7489C150.369 33.3009 149.557 33.0769 148.437 33.0769C147.485 33.0769 146.561 33.2169 145.665 33.4969C144.769 33.7769 143.967 34.1222 143.257 34.5329V31.4809C143.799 31.2195 144.545 30.9582 145.497 30.6969C146.468 30.4355 147.579 30.3049 148.829 30.3049C149.8 30.3049 150.668 30.4075 151.433 30.6129C152.217 30.8182 152.88 31.1449 153.421 31.5929C153.981 32.0409 154.401 32.6289 154.681 33.3569C154.98 34.0662 155.129 34.9342 155.129 35.9609V45.9849H151.657ZM146.981 46.2649C145.357 46.2649 144.107 45.8822 143.229 45.1169C142.371 44.3515 141.941 43.2782 141.941 41.8969C141.941 40.3662 142.483 39.1715 143.565 38.3129C144.667 37.4355 146.421 36.9129 148.829 36.7449L152.245 36.4929V39.1529L149.249 39.4049C147.831 39.5355 146.851 39.7969 146.309 40.1889C145.768 40.5622 145.497 41.0942 145.497 41.7849C145.497 42.4382 145.703 42.9329 146.113 43.2689C146.543 43.5862 147.121 43.7449 147.849 43.7449C148.111 43.7449 148.353 43.7262 148.577 43.6889C148.82 43.6329 149.044 43.5769 149.249 43.5209L149.641 45.8449C149.287 45.9755 148.876 46.0782 148.409 46.1529C147.943 46.2275 147.467 46.2649 146.981 46.2649ZM159.13 45.9849V41.0569C159.13 39.8809 159.373 38.9942 159.858 38.3969C160.344 37.7995 161.006 37.3889 161.846 37.1649L161.874 37.0529L158.85 35.9329V35.1209C158.85 34.2622 159.112 33.4689 159.634 32.7409C160.176 32.0129 160.95 31.4249 161.958 30.9769C162.966 30.5289 164.189 30.3049 165.626 30.3049C166.933 30.3049 168.09 30.5102 169.098 30.9209C170.106 31.3315 170.9 31.9569 171.478 32.7969C172.057 33.6182 172.346 34.6822 172.346 35.9889V45.9849H168.79V36.2409C168.79 35.1769 168.492 34.4022 167.894 33.9169C167.297 33.4315 166.513 33.1889 165.542 33.1889C164.572 33.1889 163.825 33.3942 163.302 33.8049C162.798 34.1969 162.528 34.6915 162.49 35.2889L165.206 36.5769L164.926 38.2289C164.236 38.2475 163.685 38.4902 163.274 38.9569C162.882 39.4049 162.686 40.0489 162.686 40.8889V45.9849H159.13ZM185.345 45.9849V35.9329C185.345 34.9062 185.084 34.1782 184.561 33.7489C184.057 33.3009 183.245 33.0769 182.125 33.0769C181.173 33.0769 180.249 33.2169 179.353 33.4969C178.457 33.7769 177.654 34.1222 176.945 34.5329V31.4809C177.486 31.2195 178.233 30.9582 179.185 30.6969C180.156 30.4355 181.266 30.3049 182.517 30.3049C183.506 30.3049 184.374 30.4262 185.121 30.6689C185.886 30.8929 186.446 31.3409 186.801 32.0129C187.529 32.2742 188.042 32.7502 188.341 33.4409C188.658 34.1129 188.817 34.9529 188.817 35.9609V45.9849H185.345ZM180.669 46.2649C179.045 46.2649 177.794 45.8822 176.917 45.1169C176.058 44.3515 175.629 43.2782 175.629 41.8969C175.629 40.3662 176.17 39.1715 177.253 38.3129C178.354 37.4355 180.109 36.9129 182.517 36.7449L185.933 36.4929V39.1529L182.937 39.4049C181.518 39.5355 180.538 39.7969 179.997 40.1889C179.456 40.5622 179.185 41.0942 179.185 41.7849C179.185 42.4382 179.39 42.9329 179.801 43.2689C180.23 43.5862 180.809 43.7449 181.537 43.7449C181.798 43.7449 182.041 43.7262 182.265 43.6889C182.508 43.6329 182.732 43.5769 182.937 43.5209L183.329 45.8449C182.974 45.9755 182.564 46.0782 182.097 46.1529C181.63 46.2275 181.154 46.2649 180.669 46.2649ZM186.717 33.3569L184.757 31.6489C185.336 31.4809 185.821 31.2382 186.213 30.9209C186.624 30.5849 186.829 30.1555 186.829 29.6329H190.049C190.049 30.2115 189.918 30.7529 189.657 31.2569C189.414 31.7422 189.041 32.1715 188.537 32.5449C188.052 32.8995 187.445 33.1702 186.717 33.3569ZM186.315 29.0449C185.307 29.0449 184.505 28.8115 183.907 28.3449C183.291 27.8782 182.983 27.2155 182.983 26.3569C182.983 25.4982 183.291 24.8355 183.907 24.3689C184.505 23.9022 185.307 23.6689 186.315 23.6689C187.342 23.6689 188.163 23.9022 188.779 24.3689C189.377 24.8355 189.675 25.4982 189.675 26.3569C189.675 27.2155 189.377 27.8782 188.779 28.3449C188.163 28.8115 187.342 29.0449 186.315 29.0449ZM186.315 27.5329C186.745 27.5329 187.071 27.4302 187.295 27.2249C187.519 27.0009 187.631 26.7115 187.631 26.3569C187.631 26.0022 187.519 25.7222 187.295 25.5169C187.071 25.2929 186.745 25.1809 186.315 25.1809C185.905 25.1809 185.587 25.2929 185.363 25.5169C185.139 25.7222 185.027 26.0022 185.027 26.3569C185.027 26.7115 185.139 27.0009 185.363 27.2249C185.587 27.4302 185.905 27.5329 186.315 27.5329ZM197.212 45.9849V35.5689C197.212 34.7289 197.016 34.1222 196.624 33.7489C196.251 33.3569 195.616 33.1609 194.72 33.1609C194.085 33.1609 193.497 33.2542 192.956 33.4409C192.415 33.6089 191.901 33.8235 191.416 34.0849V31.1449C191.808 30.9582 192.368 30.7715 193.096 30.5849C193.824 30.3982 194.683 30.3049 195.672 30.3049C196.68 30.3049 197.567 30.4542 198.332 30.7529C199.097 31.0329 199.695 31.5182 200.124 32.2089C200.553 32.8809 200.768 33.7955 200.768 34.9529V45.9849H197.212ZM208.911 46.2649C208.202 46.2649 207.576 46.1529 207.035 45.9289C206.494 45.7049 206.074 45.3502 205.775 44.8649C205.476 44.3609 205.327 43.7169 205.327 42.9329V30.6409H208.883V42.4849C208.883 42.8769 208.967 43.1662 209.135 43.3529C209.303 43.5209 209.574 43.6049 209.947 43.6049C210.096 43.6049 210.255 43.5862 210.423 43.5489C210.61 43.5115 210.778 43.4649 210.927 43.4089L211.319 45.7609C210.964 45.9475 210.582 46.0782 210.171 46.1529C209.76 46.2275 209.34 46.2649 208.911 46.2649ZM218.721 46.3209C217.62 46.3209 216.546 46.2089 215.501 45.9849C214.456 45.7422 213.541 45.4249 212.757 45.0329L213.765 42.2049C214.157 42.3915 214.605 42.5875 215.109 42.7929C215.632 42.9795 216.192 43.1382 216.789 43.2689C217.405 43.3995 218.021 43.4649 218.637 43.4649C219.477 43.4649 220.14 43.3342 220.625 43.0729C221.11 42.7929 221.353 42.3822 221.353 41.8409C221.353 41.4675 221.232 41.1595 220.989 40.9169C220.746 40.6555 220.382 40.4129 219.897 40.1889C219.412 39.9649 218.814 39.7409 218.105 39.5169C217.041 39.1622 216.136 38.7795 215.389 38.3689C214.642 37.9395 214.073 37.4355 213.681 36.8569C213.289 36.2595 213.093 35.5129 213.093 34.6169C213.093 33.6835 213.326 32.8995 213.793 32.2649C214.278 31.6302 214.988 31.1449 215.921 30.8089C216.854 30.4729 217.974 30.3049 219.281 30.3049C220.27 30.3049 221.176 30.3889 221.997 30.5569C222.818 30.7249 223.462 30.9395 223.929 31.2009V34.0569C223.612 33.9075 223.201 33.7582 222.697 33.6089C222.193 33.4595 221.652 33.3382 221.073 33.2449C220.494 33.1329 219.925 33.0769 219.365 33.0769C218.432 33.0769 217.741 33.2169 217.293 33.4969C216.864 33.7582 216.649 34.1035 216.649 34.5329C216.649 34.8689 216.77 35.1582 217.013 35.4009C217.274 35.6249 217.676 35.8395 218.217 36.0449C218.758 36.2502 219.44 36.5022 220.261 36.8009C221.194 37.1182 222.006 37.4822 222.697 37.8929C223.406 38.2849 223.948 38.7795 224.321 39.3769C224.713 39.9742 224.909 40.7209 224.909 41.6169C224.909 42.4382 224.713 43.2035 224.321 43.9129C223.948 44.6222 223.313 45.2009 222.417 45.6489C221.521 46.0969 220.289 46.3209 218.721 46.3209ZM221.108 28.7089C220.548 28.7089 220.072 28.6062 219.68 28.4009C219.288 28.1769 218.989 27.8595 218.784 27.4489L217.384 28.6249C216.245 28.6249 215.34 28.3542 214.668 27.8129C213.977 27.2529 213.632 26.4409 213.632 25.3769C213.632 24.6302 213.79 24.0142 214.108 23.5289C214.425 23.0435 214.836 22.6889 215.34 22.4649C215.844 22.2222 216.394 22.1009 216.992 22.1009H223.824V24.0049H217.58C217.188 24.0049 216.861 24.1262 216.6 24.3689C216.32 24.5929 216.18 24.9569 216.18 25.4609C216.18 25.8342 216.273 26.1329 216.46 26.3569C216.628 26.5809 216.898 26.6929 217.272 26.6929L218.672 25.4329H219.232C219.288 25.8062 219.418 26.1235 219.624 26.3849C219.829 26.6462 220.109 26.7769 220.464 26.7769C220.781 26.7769 221.024 26.6835 221.192 26.4969C221.341 26.3102 221.416 26.0582 221.416 25.7409V25.3489H223.852V25.8529C223.852 26.8235 223.609 27.5422 223.124 28.0089C222.62 28.4755 221.948 28.7089 221.108 28.7089ZM229.497 45.9849V39.4049H227.705V37.0529H232.745V43.2409H232.997C233.706 43.2409 234.303 43.0635 234.789 42.7089C235.274 42.3542 235.638 41.8129 235.881 41.0849C236.123 40.3569 236.245 39.4235 236.245 38.2849C236.245 37.0342 236.086 36.0355 235.769 35.2889C235.451 34.5422 234.966 34.0009 234.313 33.6649C233.659 33.3289 232.829 33.1609 231.821 33.1609C230.869 33.1609 229.991 33.2915 229.189 33.5529C228.405 33.8142 227.686 34.1502 227.033 34.5609V31.5089C227.611 31.1729 228.367 30.8929 229.301 30.6689C230.234 30.4262 231.279 30.3049 232.437 30.3049C234.191 30.3049 235.61 30.6035 236.693 31.2009C237.794 31.7982 238.597 32.6849 239.101 33.8609C239.605 35.0369 239.857 36.4929 239.857 38.2289C239.857 39.8715 239.614 41.2809 239.129 42.4569C238.662 43.6142 237.897 44.4915 236.833 45.0889C235.787 45.6862 234.378 45.9849 232.605 45.9849H229.497ZM246.992 39.3489H243.66L242.96 25.9929H247.692L246.992 39.3489ZM242.904 44.0249C242.904 43.1662 243.137 42.5689 243.604 42.2329C244.07 41.8782 244.64 41.7009 245.312 41.7009C245.965 41.7009 246.525 41.8782 246.992 42.2329C247.458 42.5689 247.692 43.1662 247.692 44.0249C247.692 44.8462 247.458 45.4435 246.992 45.8169C246.525 46.1715 245.965 46.3489 245.312 46.3489C244.64 46.3489 244.07 46.1715 243.604 45.8169C243.137 45.4435 242.904 44.8462 242.904 44.0249Z" fill="white"/>
<path d="M127.902 45.9289L128.285 45.0048L127.902 45.9289ZM126.642 44.8649L125.782 45.3747L125.786 45.3818L125.791 45.389L126.642 44.8649ZM126.194 30.6409V29.6409H125.194V30.6409H126.194ZM129.75 30.6409H130.75V29.6409H129.75V30.6409ZM130.002 43.3529L129.259 44.0218L129.277 44.0414L129.295 44.06L130.002 43.3529ZM131.29 43.5489L131.094 42.5683L131.084 42.5704L131.073 42.5727L131.29 43.5489ZM131.794 43.4089L132.781 43.2445L132.581 42.0459L131.443 42.4725L131.794 43.4089ZM132.186 45.7609L132.652 46.6458L133.291 46.3092L133.173 45.5965L132.186 45.7609ZM131.038 46.1529L131.217 47.1367L131.038 46.1529ZM136.022 45.9289L136.405 45.0048L136.022 45.9289ZM134.762 44.8649L133.902 45.3747L133.906 45.3818L133.911 45.389L134.762 44.8649ZM134.314 30.6409V29.6409H133.314V30.6409H134.314ZM137.87 30.6409H138.87V29.6409H137.87V30.6409ZM138.122 43.3529L137.379 44.0218L137.397 44.0414L137.415 44.06L138.122 43.3529ZM139.41 43.5489L139.214 42.5683L139.204 42.5704L139.193 42.5727L139.41 43.5489ZM139.914 43.4089L140.901 43.2445L140.701 42.0459L139.563 42.4725L139.914 43.4089ZM140.306 45.7609L140.772 46.6458L141.411 46.3092L141.293 45.5965L140.306 45.7609ZM139.158 46.1529L139.337 47.1367L139.158 46.1529ZM129.778 45.2649C129.173 45.2649 128.682 45.1693 128.285 45.0048L127.52 46.8529C128.205 47.1364 128.965 47.2649 129.778 47.2649V45.2649ZM128.285 45.0048C127.932 44.859 127.679 44.6414 127.494 44.3408L125.791 45.389C126.203 46.059 126.79 46.5508 127.52 46.8529L128.285 45.0048ZM127.503 44.3551C127.321 44.0491 127.194 43.5962 127.194 42.9329H125.194C125.194 43.8375 125.366 44.6726 125.782 45.3747L127.503 44.3551ZM127.194 42.9329V30.6409H125.194V42.9329H127.194ZM126.194 31.6409H129.75V29.6409H126.194V31.6409ZM128.75 30.6409V42.4849H130.75V30.6409H128.75ZM128.75 42.4849C128.75 42.9912 128.854 43.5723 129.259 44.0218L130.746 42.6839C130.781 42.7228 130.782 42.7455 130.774 42.7171C130.764 42.6855 130.75 42.6132 130.75 42.4849H128.75ZM129.295 44.06C129.734 44.4987 130.323 44.6049 130.814 44.6049V42.6049C130.698 42.6049 130.642 42.5913 130.628 42.5868C130.618 42.5837 130.658 42.5948 130.709 42.6458L129.295 44.06ZM130.814 44.6049C131.047 44.6049 131.279 44.5759 131.507 44.5251L131.073 42.5727C130.966 42.5965 130.881 42.6049 130.814 42.6049V44.6049ZM131.486 44.5294C131.716 44.4835 131.937 44.4233 132.145 44.3452L131.443 42.4725C131.353 42.5064 131.238 42.5396 131.094 42.5683L131.486 44.5294ZM130.808 43.5733L131.2 45.9253L133.173 45.5965L132.781 43.2445L130.808 43.5733ZM131.721 44.8759C131.46 45.0133 131.174 45.1118 130.859 45.169L131.217 47.1367C131.724 47.0446 132.204 46.8818 132.652 46.6458L131.721 44.8759ZM130.859 45.169C130.509 45.2326 130.149 45.2649 129.778 45.2649V47.2649C130.266 47.2649 130.746 47.2224 131.217 47.1367L130.859 45.169ZM137.898 45.2649C137.293 45.2649 136.802 45.1693 136.405 45.0048L135.64 46.8529C136.325 47.1364 137.085 47.2649 137.898 47.2649V45.2649ZM136.405 45.0048C136.052 44.859 135.799 44.6414 135.614 44.3408L133.911 45.389C134.323 46.059 134.91 46.5508 135.64 46.8529L136.405 45.0048ZM135.623 44.3551C135.441 44.0491 135.314 43.5962 135.314 42.9329H133.314C133.314 43.8375 133.486 44.6726 133.902 45.3747L135.623 44.3551ZM135.314 42.9329V30.6409H133.314V42.9329H135.314ZM134.314 31.6409H137.87V29.6409H134.314V31.6409ZM136.87 30.6409V42.4849H138.87V30.6409H136.87ZM136.87 42.4849C136.87 42.9912 136.974 43.5723 137.379 44.0218L138.866 42.6839C138.901 42.7228 138.902 42.7455 138.894 42.7171C138.884 42.6855 138.87 42.6132 138.87 42.4849H136.87ZM137.415 44.06C137.854 44.4987 138.443 44.6049 138.934 44.6049V42.6049C138.818 42.6049 138.762 42.5913 138.748 42.5868C138.738 42.5837 138.778 42.5948 138.829 42.6458L137.415 44.06ZM138.934 44.6049C139.167 44.6049 139.399 44.5759 139.627 44.5251L139.193 42.5727C139.086 42.5965 139.001 42.6049 138.934 42.6049V44.6049ZM139.606 44.5294C139.836 44.4835 140.057 44.4233 140.265 44.3452L139.563 42.4725C139.473 42.5064 139.358 42.5396 139.214 42.5683L139.606 44.5294ZM138.928 43.5733L139.32 45.9253L141.293 45.5965L140.901 43.2445L138.928 43.5733ZM139.841 44.8759C139.58 45.0133 139.294 45.1118 138.979 45.169L139.337 47.1367C139.844 47.0446 140.324 46.8818 140.772 46.6458L139.841 44.8759ZM138.979 45.169C138.629 45.2326 138.269 45.2649 137.898 45.2649V47.2649C138.386 47.2649 138.866 47.2224 139.337 47.1367L138.979 45.169ZM151.657 45.9849H150.657V46.9849H151.657V45.9849ZM150.873 33.7489L150.209 34.4963L150.224 34.5092L150.239 34.5216L150.873 33.7489ZM145.665 33.4969L145.964 34.4513L145.665 33.4969ZM143.257 34.5329H142.257V36.2673L143.758 35.3983L143.257 34.5329ZM143.257 31.4809L142.823 30.5803L142.257 30.8532V31.4809H143.257ZM145.497 30.6969L145.237 29.7312L145.233 29.7325L145.497 30.6969ZM151.433 30.6129L151.174 31.5787L151.18 31.5802L151.433 30.6129ZM153.421 31.5929L152.784 32.3633L152.79 32.3685L152.797 32.3737L153.421 31.5929ZM154.681 33.3569L153.748 33.7158L153.754 33.7305L153.76 33.7449L154.681 33.3569ZM155.129 45.9849V46.9849H156.129V45.9849H155.129ZM143.229 45.1169L142.564 45.8634L142.572 45.8704L143.229 45.1169ZM143.565 38.3129L144.187 39.0964L144.189 39.095L143.565 38.3129ZM148.829 36.7449L148.899 37.7424L148.903 37.7422L148.829 36.7449ZM152.245 36.4929H153.245V35.4164L152.172 35.4956L152.245 36.4929ZM152.245 39.1529L152.329 40.1493L153.245 40.0723V39.1529H152.245ZM149.249 39.4049L149.166 38.4084L149.158 38.4091L149.249 39.4049ZM146.309 40.1889L146.877 41.0121L146.887 41.0055L146.896 40.9988L146.309 40.1889ZM146.113 43.2689L145.48 44.0428L145.499 44.0584L145.519 44.073L146.113 43.2689ZM148.577 43.6889L148.742 44.6753L148.772 44.6702L148.802 44.6633L148.577 43.6889ZM149.249 43.5209L150.236 43.3545L150.052 42.2655L148.986 42.5561L149.249 43.5209ZM149.641 45.8449L149.987 46.7832L150.765 46.4965L150.628 45.6785L149.641 45.8449ZM148.409 46.1529L148.251 45.1654L148.409 46.1529ZM152.657 45.9849V35.9329H150.657V45.9849H152.657ZM152.657 35.9329C152.657 34.7643 152.361 33.6767 151.508 32.9761L150.239 34.5216C150.431 34.6797 150.657 35.0481 150.657 35.9329H152.657ZM151.538 33.0015C150.763 32.3127 149.652 32.0769 148.437 32.0769V34.0769C149.463 34.0769 149.976 34.289 150.209 34.4963L151.538 33.0015ZM148.437 32.0769C147.386 32.0769 146.361 32.2318 145.367 32.5424L145.964 34.4513C146.762 34.2019 147.585 34.0769 148.437 34.0769V32.0769ZM145.367 32.5424C144.41 32.8413 143.538 33.2148 142.756 33.6674L143.758 35.3983C144.395 35.0296 145.128 34.7124 145.964 34.4513L145.367 32.5424ZM144.257 34.5329V31.4809H142.257V34.5329H144.257ZM143.692 32.3814C144.155 32.1578 144.837 31.9153 145.762 31.6612L145.233 29.7325C144.254 30.0011 143.442 30.2813 142.823 30.5803L143.692 32.3814ZM145.757 31.6625C146.626 31.4287 147.646 31.3049 148.829 31.3049V29.3049C147.511 29.3049 146.311 29.4423 145.237 29.7312L145.757 31.6625ZM148.829 31.3049C149.731 31.3049 150.51 31.4005 151.174 31.5787L151.693 29.647C150.826 29.4146 149.869 29.3049 148.829 29.3049V31.3049ZM151.18 31.5802C151.845 31.7543 152.371 32.0213 152.784 32.3633L154.059 30.8225C153.39 30.2684 152.59 29.8821 151.687 29.6455L151.18 31.5802ZM152.797 32.3737C153.206 32.7014 153.526 33.1384 153.748 33.7158L155.615 32.9979C155.277 32.1193 154.757 31.3804 154.046 30.812L152.797 32.3737ZM153.76 33.7449C153.993 34.2978 154.129 35.0254 154.129 35.9609H156.129C156.129 34.843 155.968 33.8346 155.603 32.9688L153.76 33.7449ZM154.129 35.9609V45.9849H156.129V35.9609H154.129ZM155.129 44.9849H151.657V46.9849H155.129V44.9849ZM146.981 45.2649C145.504 45.2649 144.521 44.9167 143.887 44.3633L142.572 45.8704C143.692 46.8476 145.211 47.2649 146.981 47.2649V45.2649ZM143.895 44.3703C143.292 43.8327 142.941 43.0555 142.941 41.8969H140.941C140.941 43.5009 141.45 44.8704 142.564 45.8634L143.895 44.3703ZM142.941 41.8969C142.941 40.634 143.371 39.7432 144.187 39.0964L142.944 37.5294C141.594 38.5999 140.941 40.0984 140.941 41.8969H142.941ZM144.189 39.095C145.054 38.4055 146.565 37.9053 148.899 37.7424L148.76 35.7473C146.278 35.9204 144.28 36.4655 142.942 37.5307L144.189 39.095ZM148.903 37.7422L152.319 37.4902L152.172 35.4956L148.756 35.7476L148.903 37.7422ZM151.245 36.4929V39.1529H153.245V36.4929H151.245ZM152.162 38.1564L149.166 38.4084L149.333 40.4013L152.329 40.1493L152.162 38.1564ZM149.158 38.4091C147.721 38.5415 146.5 38.8162 145.723 39.3789L146.896 40.9988C147.202 40.7775 147.941 40.5296 149.341 40.4006L149.158 38.4091ZM145.742 39.3657C144.914 39.9365 144.497 40.7851 144.497 41.7849H146.497C146.497 41.4033 146.622 41.1879 146.877 41.0121L145.742 39.3657ZM144.497 41.7849C144.497 42.662 144.784 43.4734 145.48 44.0428L146.747 42.4949C146.621 42.3923 146.497 42.2144 146.497 41.7849H144.497ZM145.519 44.073C146.173 44.5565 146.984 44.7449 147.849 44.7449V42.7449C147.259 42.7449 146.912 42.6158 146.708 42.4647L145.519 44.073ZM147.849 44.7449C148.158 44.7449 148.456 44.7229 148.742 44.6753L148.413 42.7025C148.251 42.7295 148.064 42.7449 147.849 42.7449V44.7449ZM148.802 44.6633C149.056 44.6048 149.293 44.5456 149.513 44.4856L148.986 42.5561C148.796 42.6081 148.585 42.6609 148.353 42.7145L148.802 44.6633ZM148.263 43.6872L148.655 46.0112L150.628 45.6785L150.236 43.3545L148.263 43.6872ZM149.296 44.9065C149.015 45.01 148.669 45.0986 148.251 45.1654L148.567 47.1403C149.083 47.0578 149.559 46.941 149.987 46.7832L149.296 44.9065ZM148.251 45.1654C147.838 45.2315 147.415 45.2649 146.981 45.2649V47.2649C147.518 47.2649 148.047 47.2236 148.567 47.1403L148.251 45.1654ZM159.13 45.9849H158.13V46.9849H159.13V45.9849ZM159.858 38.3969L159.082 37.7663L159.858 38.3969ZM161.846 37.1649L162.104 38.1311L162.674 37.9792L162.817 37.4074L161.846 37.1649ZM161.874 37.0529L162.845 37.2954L163.062 36.4263L162.222 36.1151L161.874 37.0529ZM158.85 35.9329H157.85V36.6289L158.503 36.8706L158.85 35.9329ZM159.634 32.7409L158.832 32.1442L158.827 32.1509L158.822 32.1577L159.634 32.7409ZM161.958 30.9769L161.552 30.0631L161.958 30.9769ZM169.098 30.9209L169.476 29.9948L169.098 30.9209ZM171.478 32.7969L170.655 33.3642L170.661 33.3728L171.478 32.7969ZM172.346 45.9849V46.9849H173.346V45.9849H172.346ZM168.79 45.9849H167.79V46.9849H168.79V45.9849ZM163.302 33.8049L163.916 34.5942L163.92 34.5912L163.302 33.8049ZM162.49 35.2889L161.492 35.2265L161.45 35.9023L162.062 36.1924L162.49 35.2889ZM165.206 36.5769L166.192 36.744L166.319 35.9977L165.635 35.6733L165.206 36.5769ZM164.926 38.2289L164.953 39.2285L165.775 39.2063L165.912 38.396L164.926 38.2289ZM163.274 38.9569L162.524 38.2962L162.522 38.2984L163.274 38.9569ZM162.686 45.9849V46.9849H163.686V45.9849H162.686ZM160.13 45.9849V41.0569H158.13V45.9849H160.13ZM160.13 41.0569C160.13 39.995 160.353 39.3738 160.634 39.0275L159.082 37.7663C158.393 38.6146 158.13 39.7667 158.13 41.0569H160.13ZM160.634 39.0275C160.97 38.6147 161.44 38.3081 162.104 38.1311L161.589 36.1986C160.572 36.4697 159.718 36.9843 159.082 37.7663L160.634 39.0275ZM162.817 37.4074L162.845 37.2954L160.904 36.8103L160.876 36.9223L162.817 37.4074ZM162.222 36.1151L159.198 34.9951L158.503 36.8706L161.527 37.9906L162.222 36.1151ZM159.85 35.9329V35.1209H157.85V35.9329H159.85ZM159.85 35.1209C159.85 34.481 160.04 33.89 160.447 33.3241L158.822 32.1577C158.183 33.0477 157.85 34.0434 157.85 35.1209H159.85ZM160.437 33.3376C160.856 32.7745 161.48 32.2838 162.365 31.8907L161.552 30.0631C160.421 30.5659 159.496 31.2512 158.832 32.1442L160.437 33.3376ZM162.365 31.8907C163.212 31.5139 164.288 31.3049 165.626 31.3049V29.3049C164.09 29.3049 162.721 29.5438 161.552 30.0631L162.365 31.8907ZM165.626 31.3049C166.829 31.3049 167.854 31.4938 168.721 31.847L169.476 29.9948C168.326 29.5266 167.037 29.3049 165.626 29.3049V31.3049ZM168.721 31.847C169.561 32.1892 170.194 32.6956 170.655 33.3642L172.302 32.2296C171.605 31.2181 170.652 30.4738 169.476 29.9948L168.721 31.847ZM170.661 33.3728C171.09 33.9814 171.346 34.8268 171.346 35.9889H173.346C173.346 34.5376 173.024 33.255 172.296 32.2209L170.661 33.3728ZM171.346 35.9889V45.9849H173.346V35.9889H171.346ZM172.346 44.9849H168.79V46.9849H172.346V44.9849ZM169.79 45.9849V36.2409H167.79V45.9849H169.79ZM169.79 36.2409C169.79 34.9972 169.436 33.8812 168.525 33.1407L167.264 34.693C167.547 34.9232 167.79 35.3565 167.79 36.2409H169.79ZM168.525 33.1407C167.707 32.4761 166.681 32.1889 165.542 32.1889V34.1889C166.345 34.1889 166.887 34.3869 167.264 34.693L168.525 33.1407ZM165.542 32.1889C164.447 32.1889 163.448 32.4184 162.685 33.0185L163.92 34.5912C164.202 34.37 164.696 34.1889 165.542 34.1889V32.1889ZM162.688 33.0155C161.975 33.5702 161.549 34.322 161.492 35.2265L163.488 35.3512C163.507 35.061 163.622 34.8235 163.916 34.5942L162.688 33.0155ZM162.062 36.1924L164.778 37.4804L165.635 35.6733L162.919 34.3853L162.062 36.1924ZM164.22 36.4098L163.94 38.0618L165.912 38.396L166.192 36.744L164.22 36.4098ZM164.899 37.2292C163.965 37.2545 163.139 37.5964 162.524 38.2962L164.025 39.6175C164.231 39.384 164.506 39.2406 164.953 39.2285L164.899 37.2292ZM162.522 38.2984C161.915 38.9913 161.686 39.9055 161.686 40.8889H163.686C163.686 40.1923 163.849 39.8184 164.027 39.6154L162.522 38.2984ZM161.686 40.8889V45.9849H163.686V40.8889H161.686ZM162.686 44.9849H159.13V46.9849H162.686V44.9849ZM185.345 45.9849H184.345V46.9849H185.345V45.9849ZM184.561 33.7489L183.897 34.4963L183.911 34.5092L183.926 34.5216L184.561 33.7489ZM179.353 33.4969L179.651 34.4513L179.353 33.4969ZM176.945 34.5329H175.945V36.2673L177.446 35.3983L176.945 34.5329ZM176.945 31.4809L176.51 30.5803L175.945 30.8532V31.4809H176.945ZM179.185 30.6969L178.925 29.7312L178.92 29.7325L179.185 30.6969ZM185.121 30.6689L184.812 31.6199L184.826 31.6245L184.84 31.6286L185.121 30.6689ZM186.801 32.0129L185.917 32.4796L186.098 32.8229L186.463 32.9541L186.801 32.0129ZM188.341 33.4409L187.423 33.8378L187.43 33.8529L187.437 33.8679L188.341 33.4409ZM188.817 45.9849V46.9849H189.817V45.9849H188.817ZM176.917 45.1169L176.252 45.8634L176.26 45.8704L176.917 45.1169ZM177.253 38.3129L177.874 39.0964L177.876 39.095L177.253 38.3129ZM182.517 36.7449L182.587 37.7424L182.591 37.7422L182.517 36.7449ZM185.933 36.4929H186.933V35.4164L185.859 35.4956L185.933 36.4929ZM185.933 39.1529L186.017 40.1493L186.933 40.0723V39.1529H185.933ZM182.937 39.4049L182.853 38.4084L182.845 38.4091L182.937 39.4049ZM179.997 40.1889L180.565 41.0121L180.574 41.0055L180.583 40.9988L179.997 40.1889ZM179.801 43.2689L179.168 44.0428L179.187 44.0584L179.207 44.073L179.801 43.2689ZM182.265 43.6889L182.429 44.6753L182.46 44.6702L182.49 44.6633L182.265 43.6889ZM182.937 43.5209L183.923 43.3545L183.739 42.2655L182.674 42.5561L182.937 43.5209ZM183.329 45.8449L183.675 46.7832L184.453 46.4965L184.315 45.6785L183.329 45.8449ZM182.097 46.1529L181.939 45.1654L182.097 46.1529ZM186.717 33.3569L186.06 34.1108L186.456 34.4561L186.965 34.3255L186.717 33.3569ZM184.757 31.6489L184.478 30.6885L182.719 31.1993L184.1 32.4028L184.757 31.6489ZM186.213 30.9209L186.842 31.6981L186.846 31.6948L186.213 30.9209ZM186.829 29.6329V28.6329H185.829V29.6329H186.829ZM190.049 29.6329H191.049V28.6329H190.049V29.6329ZM189.657 31.2569L188.769 30.7965L188.766 30.8031L188.763 30.8096L189.657 31.2569ZM188.537 32.5449L189.127 33.3523L189.132 33.3484L188.537 32.5449ZM186.345 45.9849V35.9329H184.345V45.9849H186.345ZM186.345 35.9329C186.345 34.7643 186.049 33.6767 185.196 32.9761L183.926 34.5216C184.119 34.6797 184.345 35.0481 184.345 35.9329H186.345ZM185.225 33.0015C184.45 32.3127 183.339 32.0769 182.125 32.0769V34.0769C183.151 34.0769 183.663 34.289 183.897 34.4963L185.225 33.0015ZM182.125 32.0769C181.073 32.0769 180.049 32.2318 179.055 32.5424L179.651 34.4513C180.449 34.2019 181.273 34.0769 182.125 34.0769V32.0769ZM179.055 32.5424C178.098 32.8413 177.226 33.2148 176.444 33.6674L177.446 35.3983C178.083 35.0296 178.816 34.7124 179.651 34.4513L179.055 32.5424ZM177.945 34.5329V31.4809H175.945V34.5329H177.945ZM177.38 32.3814C177.843 32.1578 178.524 31.9153 179.45 31.6612L178.92 29.7325C177.942 30.0011 177.13 30.2813 176.51 30.5803L177.38 32.3814ZM179.445 31.6625C180.313 31.4287 181.334 31.3049 182.517 31.3049V29.3049C181.199 29.3049 179.998 29.4423 178.925 29.7312L179.445 31.6625ZM182.517 31.3049C183.427 31.3049 184.187 31.4168 184.812 31.6199L185.43 29.7178C184.561 29.4356 183.585 29.3049 182.517 29.3049V31.3049ZM184.84 31.6286C185.36 31.7808 185.695 32.0597 185.917 32.4796L187.685 31.5461C187.198 30.622 186.412 30.0049 185.402 29.7091L184.84 31.6286ZM186.463 32.9541C186.939 33.1249 187.238 33.4088 187.423 33.8378L189.259 33.044C188.847 32.0916 188.119 31.4235 187.139 31.0717L186.463 32.9541ZM187.437 33.8679C187.673 34.3676 187.817 35.0507 187.817 35.9609H189.817C189.817 34.855 189.644 33.8581 189.245 33.0139L187.437 33.8679ZM187.817 35.9609V45.9849H189.817V35.9609H187.817ZM188.817 44.9849H185.345V46.9849H188.817V44.9849ZM180.669 45.2649C179.192 45.2649 178.209 44.9167 177.574 44.3633L176.26 45.8704C177.38 46.8476 178.898 47.2649 180.669 47.2649V45.2649ZM177.582 44.3703C176.979 43.8327 176.629 43.0555 176.629 41.8969H174.629C174.629 43.5009 175.137 44.8704 176.252 45.8634L177.582 44.3703ZM176.629 41.8969C176.629 40.634 177.059 39.7432 177.874 39.0964L176.632 37.5294C175.282 38.5999 174.629 40.0984 174.629 41.8969H176.629ZM177.876 39.095C178.742 38.4055 180.252 37.9053 182.587 37.7424L182.447 35.7473C179.966 35.9204 177.967 36.4655 176.63 37.5307L177.876 39.095ZM182.591 37.7422L186.007 37.4902L185.859 35.4956L182.443 35.7476L182.591 37.7422ZM184.933 36.4929V39.1529H186.933V36.4929H184.933ZM185.849 38.1564L182.853 38.4084L183.021 40.4013L186.017 40.1493L185.849 38.1564ZM182.845 38.4091C181.408 38.5415 180.187 38.8162 179.41 39.3789L180.583 40.9988C180.889 40.7775 181.629 40.5296 183.029 40.4006L182.845 38.4091ZM179.429 39.3657C178.601 39.9365 178.185 40.7851 178.185 41.7849H180.185C180.185 41.4033 180.31 41.1879 180.565 41.0121L179.429 39.3657ZM178.185 41.7849C178.185 42.662 178.472 43.4734 179.168 44.0428L180.434 42.4949C180.309 42.3923 180.185 42.2144 180.185 41.7849H178.185ZM179.207 44.073C179.861 44.5565 180.671 44.7449 181.537 44.7449V42.7449C180.946 42.7449 180.6 42.6158 180.395 42.4647L179.207 44.073ZM181.537 44.7449C181.845 44.7449 182.144 44.7229 182.429 44.6753L182.101 42.7025C181.938 42.7295 181.751 42.7449 181.537 42.7449V44.7449ZM182.49 44.6633C182.743 44.6048 182.98 44.5456 183.2 44.4856L182.674 42.5561C182.483 42.6081 182.272 42.6609 182.04 42.7145L182.49 44.6633ZM181.951 43.6872L182.343 46.0112L184.315 45.6785L183.923 43.3545L181.951 43.6872ZM182.983 44.9065C182.702 45.01 182.357 45.0986 181.939 45.1654L182.255 47.1403C182.77 47.0578 183.246 46.941 183.675 46.7832L182.983 44.9065ZM181.939 45.1654C181.526 45.2315 181.103 45.2649 180.669 45.2649V47.2649C181.206 47.2649 181.735 47.2236 182.255 47.1403L181.939 45.1654ZM187.374 32.603L185.414 30.895L184.1 32.4028L186.06 34.1108L187.374 32.603ZM185.036 32.6092C185.718 32.4112 186.329 32.1138 186.842 31.6981L185.584 30.1436C185.313 30.3626 184.953 30.5505 184.478 30.6885L185.036 32.6092ZM186.846 31.6948C187.485 31.1722 187.829 30.4607 187.829 29.6329H185.829C185.829 29.8503 185.762 29.9975 185.58 30.1469L186.846 31.6948ZM186.829 30.6329H190.049V28.6329H186.829V30.6329ZM189.049 29.6329C189.049 30.0545 188.955 30.4376 188.769 30.7965L190.545 31.7172C190.881 31.0681 191.049 30.3685 191.049 29.6329H189.049ZM188.763 30.8096C188.6 31.1339 188.339 31.447 187.942 31.7413L189.132 33.3484C189.743 32.8961 190.228 32.3505 190.551 31.7041L188.763 30.8096ZM187.947 31.7375C187.586 32.001 187.103 32.2255 186.469 32.3882L186.965 34.3255C187.787 34.1149 188.517 33.7981 189.127 33.3523L187.947 31.7375ZM183.907 28.3449L184.523 27.5568L184.517 27.5523L184.511 27.5478L183.907 28.3449ZM183.907 24.3689L184.511 25.166L184.517 25.1615L184.523 25.1569L183.907 24.3689ZM188.779 24.3689L189.395 23.5808L189.389 23.5763L189.383 23.5718L188.779 24.3689ZM188.779 28.3449L189.383 29.142L189.389 29.1375L189.395 29.1329L188.779 28.3449ZM187.295 27.2249L187.971 27.962L187.987 27.9473L188.002 27.932L187.295 27.2249ZM187.295 25.5169L186.588 26.224L186.604 26.2393L186.62 26.254L187.295 25.5169ZM185.363 25.5169L186.039 26.254L186.055 26.2393L186.07 26.224L185.363 25.5169ZM185.363 27.2249L184.656 27.932L184.672 27.9473L184.688 27.962L185.363 27.2249ZM186.315 28.0449C185.457 28.0449 184.894 27.8469 184.523 27.5568L183.292 29.1329C184.115 29.7762 185.158 30.0449 186.315 30.0449V28.0449ZM184.511 27.5478C184.175 27.293 183.983 26.9424 183.983 26.3569H181.983C181.983 27.4886 182.408 28.4634 183.303 29.142L184.511 27.5478ZM183.983 26.3569C183.983 25.7713 184.175 25.4207 184.511 25.166L183.303 23.5718C182.408 24.2504 181.983 25.2251 181.983 26.3569H183.983ZM184.523 25.1569C184.894 24.8669 185.457 24.6689 186.315 24.6689V22.6689C185.158 22.6689 184.115 22.9375 183.292 23.5808L184.523 25.1569ZM186.315 24.6689C187.195 24.6689 187.783 24.8683 188.175 25.166L189.383 23.5718C188.544 22.9361 187.489 22.6689 186.315 22.6689V24.6689ZM188.164 25.1569C188.484 25.4072 188.675 25.7596 188.675 26.3569H190.675C190.675 25.2368 190.269 24.2639 189.395 23.5808L188.164 25.1569ZM188.675 26.3569C188.675 26.9541 188.484 27.3065 188.164 27.5568L189.395 29.1329C190.269 28.4498 190.675 27.4769 190.675 26.3569H188.675ZM188.175 27.5478C187.783 27.8454 187.195 28.0449 186.315 28.0449V30.0449C187.489 30.0449 188.544 29.7777 189.383 29.142L188.175 27.5478ZM186.315 28.5329C186.892 28.5329 187.499 28.3951 187.971 27.962L186.62 26.4877C186.644 26.4653 186.598 26.5329 186.315 26.5329V28.5329ZM188.002 27.932C188.437 27.4973 188.631 26.9421 188.631 26.3569H186.631C186.631 26.481 186.602 26.5045 186.588 26.5178L188.002 27.932ZM188.631 26.3569C188.631 25.7732 188.437 25.2065 187.971 24.7797L186.62 26.254C186.622 26.2565 186.622 26.2565 186.62 26.2541C186.618 26.2517 186.618 26.2505 186.619 26.2523C186.62 26.2553 186.631 26.2847 186.631 26.3569H188.631ZM188.002 24.8098C187.532 24.3394 186.913 24.1809 186.315 24.1809V26.1809C186.445 26.1809 186.521 26.1981 186.558 26.2108C186.59 26.2219 186.593 26.2292 186.588 26.224L188.002 24.8098ZM186.315 24.1809C185.721 24.1809 185.119 24.3473 184.656 24.8098L186.07 26.224C186.072 26.2225 186.073 26.2213 186.076 26.2195C186.079 26.2176 186.087 26.2132 186.102 26.2079C186.133 26.1969 186.199 26.1809 186.315 26.1809V24.1809ZM184.688 24.7797C184.222 25.2065 184.027 25.7732 184.027 26.3569H186.027C186.027 26.2847 186.039 26.2553 186.04 26.2523C186.041 26.2505 186.04 26.2517 186.039 26.2541C186.037 26.2565 186.036 26.2565 186.039 26.254L184.688 24.7797ZM184.027 26.3569C184.027 26.9421 184.222 27.4973 184.656 27.932L186.07 26.5178C186.057 26.5045 186.027 26.481 186.027 26.3569H184.027ZM184.688 27.962C185.153 28.3883 185.744 28.5329 186.315 28.5329V26.5329C186.066 26.5329 186.022 26.4721 186.039 26.4877L184.688 27.962ZM197.212 45.9849H196.212V46.9849H197.212V45.9849ZM196.624 33.7489L195.9 34.4385L195.917 34.4562L195.934 34.473L196.624 33.7489ZM192.956 33.4409L193.252 34.3959L193.267 34.3913L193.282 34.3862L192.956 33.4409ZM191.416 34.0849H190.416V35.7591L191.89 34.9653L191.416 34.0849ZM191.416 31.1449L190.986 30.242L190.416 30.5135V31.1449H191.416ZM193.096 30.5849L193.344 31.5535L193.096 30.5849ZM198.332 30.7529L197.968 31.6844L197.978 31.6883L197.988 31.692L198.332 30.7529ZM200.124 32.2089L199.275 32.7368L199.281 32.7473L200.124 32.2089ZM200.768 45.9849V46.9849H201.768V45.9849H200.768ZM198.212 45.9849V35.5689H196.212V45.9849H198.212ZM198.212 35.5689C198.212 34.6035 197.99 33.6692 197.314 33.0247L195.934 34.473C196.042 34.5752 196.212 34.8543 196.212 35.5689H198.212ZM197.348 33.0592C196.694 32.3721 195.718 32.1609 194.72 32.1609V34.1609C195.514 34.1609 195.807 34.3416 195.9 34.4385L197.348 33.0592ZM194.72 32.1609C193.986 32.1609 193.287 32.269 192.63 32.4955L193.282 34.3862C193.708 34.2394 194.184 34.1609 194.72 34.1609V32.1609ZM192.66 32.4858C192.058 32.6723 191.485 32.9117 190.942 33.2044L191.89 34.9653C192.317 34.7354 192.771 34.5454 193.252 34.3959L192.66 32.4858ZM192.416 34.0849V31.1449H190.416V34.0849H192.416ZM191.846 32.0477C192.152 31.9017 192.641 31.734 193.344 31.5535L192.848 29.6162C192.095 29.8091 191.463 30.0146 190.986 30.242L191.846 32.0477ZM193.344 31.5535C193.97 31.393 194.742 31.3049 195.672 31.3049V29.3049C194.624 29.3049 193.678 29.4034 192.848 29.6162L193.344 31.5535ZM195.672 31.3049C196.583 31.3049 197.342 31.44 197.968 31.6844L198.695 29.8213C197.791 29.4684 196.777 29.3049 195.672 29.3049V31.3049ZM197.988 31.692C198.544 31.8954 198.963 32.2363 199.275 32.7368L200.973 31.6809C200.426 30.8001 199.65 30.1703 198.675 29.8137L197.988 31.692ZM199.281 32.7473C199.571 33.2014 199.768 33.9048 199.768 34.9529H201.768C201.768 33.6862 201.535 32.5603 200.967 31.6705L199.281 32.7473ZM199.768 34.9529V45.9849H201.768V34.9529H199.768ZM200.768 44.9849H197.212V46.9849H200.768V44.9849ZM207.035 45.9289L207.417 45.0048L207.035 45.9289ZM205.775 44.8649L204.915 45.3747L204.919 45.3818L204.923 45.389L205.775 44.8649ZM205.327 30.6409V29.6409H204.327V30.6409H205.327ZM208.883 30.6409H209.883V29.6409H208.883V30.6409ZM209.135 43.3529L208.392 44.0218L208.409 44.0414L208.428 44.06L209.135 43.3529ZM210.423 43.5489L210.227 42.5683L210.217 42.5704L210.206 42.5727L210.423 43.5489ZM210.927 43.4089L211.913 43.2445L211.714 42.0459L210.576 42.4725L210.927 43.4089ZM211.319 45.7609L211.785 46.6458L212.424 46.3092L212.305 45.5965L211.319 45.7609ZM210.171 46.1529L210.35 47.1367L210.171 46.1529ZM208.911 45.2649C208.306 45.2649 207.815 45.1693 207.417 45.0048L206.653 46.8529C207.338 47.1364 208.098 47.2649 208.911 47.2649V45.2649ZM207.417 45.0048C207.065 44.859 206.812 44.6414 206.627 44.3408L204.923 45.389C205.336 46.059 205.923 46.5508 206.653 46.8529L207.417 45.0048ZM206.635 44.3551C206.454 44.0491 206.327 43.5962 206.327 42.9329H204.327C204.327 43.8375 204.499 44.6726 204.915 45.3747L206.635 44.3551ZM206.327 42.9329V30.6409H204.327V42.9329H206.327ZM205.327 31.6409H208.883V29.6409H205.327V31.6409ZM207.883 30.6409V42.4849H209.883V30.6409H207.883ZM207.883 42.4849C207.883 42.9912 207.987 43.5723 208.392 44.0218L209.878 42.6839C209.913 42.7228 209.915 42.7455 209.906 42.7171C209.897 42.6855 209.883 42.6132 209.883 42.4849H207.883ZM208.428 44.06C208.867 44.4987 209.455 44.6049 209.947 44.6049V42.6049C209.831 42.6049 209.775 42.5913 209.76 42.5868C209.75 42.5837 209.791 42.5948 209.842 42.6458L208.428 44.06ZM209.947 44.6049C210.179 44.6049 210.411 44.5759 210.64 44.5251L210.206 42.5727C210.099 42.5965 210.013 42.6049 209.947 42.6049V44.6049ZM210.619 44.5294C210.849 44.4835 211.07 44.4233 211.278 44.3452L210.576 42.4725C210.486 42.5064 210.371 42.5396 210.227 42.5683L210.619 44.5294ZM209.941 43.5733L210.333 45.9253L212.305 45.5965L211.913 43.2445L209.941 43.5733ZM210.853 44.8759C210.592 45.0133 210.307 45.1118 209.992 45.169L210.35 47.1367C210.857 47.0446 211.336 46.8818 211.785 46.6458L210.853 44.8759ZM209.992 45.169C209.642 45.2326 209.282 45.2649 208.911 45.2649V47.2649C209.399 47.2649 209.879 47.2224 210.35 47.1367L209.992 45.169ZM215.501 45.9849L215.275 46.959L215.283 46.9609L215.292 46.9627L215.501 45.9849ZM212.757 45.0329L211.815 44.6971L211.518 45.5313L212.31 45.9273L212.757 45.0329ZM213.765 42.2049L214.195 41.302L213.195 40.8258L212.823 41.8691L213.765 42.2049ZM215.109 42.7929L214.732 43.719L214.752 43.7272L214.773 43.7346L215.109 42.7929ZM216.789 43.2689L216.575 44.2458L216.582 44.2471L216.789 43.2689ZM220.625 43.0729L221.099 43.9533L221.112 43.9464L221.125 43.939L220.625 43.0729ZM220.989 40.9169L220.256 41.5973L220.269 41.6109L220.282 41.624L220.989 40.9169ZM219.897 40.1889L220.316 39.2809L219.897 40.1889ZM218.105 39.5169L217.789 40.4655L217.796 40.4681L217.804 40.4704L218.105 39.5169ZM215.389 38.3689L214.891 39.2358L214.899 39.2405L214.907 39.2451L215.389 38.3689ZM213.681 36.8569L212.845 37.4055L212.849 37.4116L212.853 37.4177L213.681 36.8569ZM213.793 32.2649L212.999 31.6574L212.993 31.6649L212.988 31.6725L213.793 32.2649ZM215.921 30.8089L215.582 29.868V29.868L215.921 30.8089ZM221.997 30.5569L221.797 31.5366L221.997 30.5569ZM223.929 31.2009H224.929V30.6147L224.418 30.3284L223.929 31.2009ZM223.929 34.0569L223.503 34.9617L224.929 35.6326V34.0569H223.929ZM222.697 33.6089L222.981 32.6501L222.697 33.6089ZM221.073 33.2449L220.883 34.2266L220.898 34.2296L220.914 34.2321L221.073 33.2449ZM217.293 33.4969L217.813 34.3511L217.823 34.3449L217.293 33.4969ZM217.013 35.4009L216.306 36.108L216.333 36.1351L216.362 36.1601L217.013 35.4009ZM218.217 36.0449L217.863 36.9799L218.217 36.0449ZM220.261 36.8009L219.919 37.7407L219.929 37.7443L219.939 37.7476L220.261 36.8009ZM222.697 37.8929L222.186 38.7524L222.2 38.7605L222.213 38.7681L222.697 37.8929ZM224.321 39.3769L223.473 39.9069L223.479 39.9163L223.485 39.9255L224.321 39.3769ZM224.321 43.9129L223.446 43.4292L223.441 43.4381L223.436 43.4471L224.321 43.9129ZM222.417 45.6489L222.864 46.5433L222.417 45.6489ZM218.721 45.3209C217.688 45.3209 216.685 45.2159 215.711 45.0071L215.292 46.9627C216.408 47.2019 217.552 47.3209 218.721 47.3209V45.3209ZM215.727 45.0108C214.742 44.7821 213.904 44.4885 213.204 44.1384L212.31 45.9273C213.178 46.3612 214.17 46.7023 215.275 46.959L215.727 45.0108ZM213.699 45.3686L214.707 42.5406L212.823 41.8691L211.815 44.6971L213.699 45.3686ZM213.335 43.1077C213.748 43.3044 214.214 43.5081 214.732 43.719L215.486 41.8668C214.996 41.667 214.566 41.4787 214.195 41.302L213.335 43.1077ZM214.773 43.7346C215.339 43.9369 215.941 44.1069 216.575 44.2458L217.003 42.292C216.443 42.1695 215.924 42.0221 215.445 41.8511L214.773 43.7346ZM216.582 44.2471C217.264 44.3919 217.95 44.4649 218.637 44.4649V42.4649C218.092 42.4649 217.546 42.4071 216.997 42.2906L216.582 44.2471ZM218.637 44.4649C219.563 44.4649 220.412 44.3237 221.099 43.9533L220.151 42.1924C219.868 42.3447 219.391 42.4649 218.637 42.4649V44.4649ZM221.125 43.939C221.906 43.4882 222.353 42.7548 222.353 41.8409H220.353C220.353 42.0096 220.315 42.0975 220.125 42.2067L221.125 43.939ZM222.353 41.8409C222.353 41.228 222.144 40.6574 221.696 40.2098L220.282 41.624C220.32 41.6617 220.353 41.7071 220.353 41.8409H222.353ZM221.722 40.2364C221.358 39.8442 220.867 39.5349 220.316 39.2809L219.478 41.0968C219.898 41.2908 220.135 41.4669 220.256 41.5973L221.722 40.2364ZM220.316 39.2809C219.781 39.0339 219.142 38.7955 218.406 38.5633L217.804 40.4704C218.487 40.6863 219.043 40.8958 219.478 41.0968L220.316 39.2809ZM218.421 38.5682C217.398 38.227 216.551 37.8668 215.871 37.4926L214.907 39.2451C215.72 39.6923 216.684 40.0974 217.789 40.4655L218.421 38.5682ZM215.888 37.502C215.243 37.1311 214.798 36.7232 214.509 36.296L212.853 37.4177C213.348 38.1479 214.042 38.748 214.891 39.2358L215.888 37.502ZM214.517 36.3082C214.256 35.9108 214.093 35.3674 214.093 34.6169H212.093C212.093 35.6583 212.322 36.6082 212.845 37.4055L214.517 36.3082ZM214.093 34.6169C214.093 33.8561 214.28 33.2902 214.599 32.8573L212.988 31.6725C212.373 32.5089 212.093 33.511 212.093 34.6169H214.093ZM214.588 32.8723C214.931 32.4234 215.464 32.0364 216.26 31.7497L215.582 29.868C214.512 30.2533 213.626 30.837 212.999 31.6574L214.588 32.8723ZM216.26 31.7498C217.056 31.4631 218.055 31.3049 219.281 31.3049V29.3049C217.894 29.3049 216.653 29.4827 215.582 29.868L216.26 31.7498ZM219.281 31.3049C220.215 31.3049 221.052 31.3842 221.797 31.5366L222.198 29.5771C221.3 29.3935 220.326 29.3049 219.281 29.3049V31.3049ZM221.797 31.5366C222.568 31.6942 223.1 31.8826 223.441 32.0734L224.418 30.3284C223.825 29.9965 223.069 29.7555 222.198 29.5771L221.797 31.5366ZM222.929 31.2009V34.0569H224.929V31.2009H222.929ZM224.355 33.152C223.975 32.9734 223.512 32.8074 222.981 32.6501L222.413 34.5677C222.89 34.709 223.248 34.8417 223.503 34.9617L224.355 33.152ZM222.981 32.6501C222.432 32.4873 221.849 32.357 221.232 32.2576L220.914 34.2321C221.455 34.3194 221.954 34.4318 222.413 34.5677L222.981 32.6501ZM221.263 32.2631C220.625 32.1396 219.992 32.0769 219.365 32.0769V34.0769C219.858 34.0769 220.364 34.1261 220.883 34.2266L221.263 32.2631ZM219.365 32.0769C218.37 32.0769 217.45 32.2193 216.763 32.6489L217.823 34.3449C218.032 34.2144 218.494 34.0769 219.365 34.0769V32.0769ZM216.773 32.6427C216.106 33.049 215.649 33.6897 215.649 34.5329H217.649C217.649 34.5096 217.652 34.4978 217.653 34.4937C217.654 34.4899 217.656 34.486 217.659 34.4798C217.667 34.4679 217.701 34.4191 217.813 34.3511L216.773 32.6427ZM215.649 34.5329C215.649 35.1404 215.88 35.6823 216.306 36.108L217.72 34.6938C217.661 34.6341 217.649 34.5974 217.649 34.5329H215.649ZM216.362 36.1601C216.751 36.4935 217.276 36.7575 217.863 36.9799L218.572 35.1099C218.075 34.9215 217.798 34.7562 217.664 34.6416L216.362 36.1601ZM217.863 36.9799C218.41 37.1874 219.096 37.4411 219.919 37.7407L220.603 35.8611C219.784 35.5633 219.107 35.313 218.572 35.1099L217.863 36.9799ZM219.939 37.7476C220.821 38.0474 221.567 38.3843 222.186 38.7524L223.208 37.0333C222.446 36.5801 221.568 36.189 220.583 35.8541L219.939 37.7476ZM222.213 38.7681C222.797 39.0904 223.203 39.4742 223.473 39.9069L225.169 38.8469C224.693 38.0849 224.016 37.4793 223.181 37.0176L222.213 38.7681ZM223.485 39.9255C223.746 40.3229 223.909 40.8663 223.909 41.6169H225.909C225.909 40.5754 225.68 39.6255 225.157 38.8282L223.485 39.9255ZM223.909 41.6169C223.909 42.2714 223.755 42.87 223.446 43.4292L225.196 44.3965C225.671 43.5371 225.909 42.605 225.909 41.6169H223.909ZM223.436 43.4471C223.182 43.9295 222.726 44.3764 221.97 44.7544L222.864 46.5433C223.9 46.0253 224.713 45.3149 225.206 44.3786L223.436 43.4471ZM221.97 44.7544C221.269 45.1047 220.213 45.3209 218.721 45.3209V47.3209C220.365 47.3209 221.773 47.089 222.864 46.5433L221.97 44.7544ZM219.68 28.4009L219.183 29.2691L219.199 29.2782L219.215 29.2867L219.68 28.4009ZM218.784 27.4489L219.678 27.0016L219.111 25.8678L218.14 26.6832L218.784 27.4489ZM217.383 28.6249V29.6249H217.748L218.027 29.3906L217.383 28.6249ZM214.668 27.8129L214.038 28.5896L214.04 28.5916L214.668 27.8129ZM214.107 23.5289L214.944 24.0761L214.107 23.5289ZM215.34 22.4649L215.746 23.3787L215.76 23.3725L215.773 23.3659L215.34 22.4649ZM223.824 22.1009H224.824V21.1009H223.824V22.1009ZM223.824 24.0049V25.0049H224.824V24.0049H223.824ZM216.6 24.3689L217.224 25.1497L217.253 25.1267L217.28 25.1017L216.6 24.3689ZM216.46 26.3569L217.26 25.7569L217.244 25.7364L217.228 25.7167L216.46 26.3569ZM217.271 26.6929V27.6929H217.655L217.94 27.4362L217.271 26.6929ZM218.672 25.4329V24.4329H218.288L218.003 24.6896L218.672 25.4329ZM219.232 25.4329L220.22 25.2845L220.093 24.4329H219.232V25.4329ZM221.191 26.4969L221.935 27.1658L221.954 27.1442L221.972 27.1216L221.191 26.4969ZM221.415 25.3489V24.3489H220.415V25.3489H221.415ZM223.852 25.3489H224.852V24.3489H223.852V25.3489ZM223.124 28.0089L223.803 28.7426L223.81 28.7362L223.817 28.7297L223.124 28.0089ZM221.107 27.7089C220.667 27.7089 220.359 27.6281 220.144 27.515L219.215 29.2867C219.784 29.5843 220.428 29.7089 221.107 29.7089V27.7089ZM220.176 27.5326C219.958 27.4083 219.797 27.2389 219.678 27.0016L217.889 27.8961C218.181 28.4801 218.617 28.9454 219.183 29.2691L220.176 27.5326ZM218.14 26.6832L216.74 27.8592L218.027 29.3906L219.427 28.2146L218.14 26.6832ZM217.383 27.6249C216.4 27.6249 215.739 27.3922 215.295 27.0341L214.04 28.5916C214.94 29.3162 216.09 29.6249 217.383 29.6249V27.6249ZM215.297 27.0361C214.888 26.7039 214.632 26.2051 214.632 25.3769H212.632C212.632 26.6766 213.066 27.8019 214.038 28.5896L215.297 27.0361ZM214.632 25.3769C214.632 24.7692 214.76 24.3579 214.944 24.0761L213.271 22.9816C212.82 23.6705 212.632 24.4912 212.632 25.3769H214.632ZM214.944 24.0761C215.162 23.7432 215.427 23.5204 215.746 23.3787L214.933 21.5511C214.244 21.8573 213.688 22.3439 213.271 22.9816L214.944 24.0761ZM215.773 23.3659C216.133 23.1927 216.534 23.1009 216.992 23.1009V21.1009C216.254 21.1009 215.554 21.2517 214.906 21.5639L215.773 23.3659ZM216.992 23.1009H223.824V21.1009H216.992V23.1009ZM222.824 22.1009V24.0049H224.824V22.1009H222.824ZM223.824 23.0049H217.579V25.0049H223.824V23.0049ZM217.579 23.0049C216.962 23.0049 216.384 23.204 215.919 23.6361L217.28 25.1017C217.337 25.0484 217.413 25.0049 217.579 25.0049V23.0049ZM215.975 23.588C215.372 24.0701 215.18 24.7826 215.18 25.4609H217.18C217.18 25.2974 217.203 25.2082 217.218 25.1688C217.23 25.1374 217.235 25.1414 217.224 25.1497L215.975 23.588ZM215.18 25.4609C215.18 26.0012 215.317 26.5479 215.691 26.997L217.228 25.7167C217.224 25.7125 217.214 25.7001 217.204 25.6666C217.193 25.6303 217.18 25.5653 217.18 25.4609H215.18ZM215.66 26.9569C216.076 27.5116 216.697 27.6929 217.271 27.6929V25.6929C217.181 25.6929 217.157 25.679 217.171 25.6848C217.179 25.6882 217.194 25.6959 217.213 25.71C217.232 25.7243 217.247 25.7408 217.26 25.7569L215.66 26.9569ZM217.94 27.4362L219.34 26.1762L218.003 24.6896L216.603 25.9496L217.94 27.4362ZM218.672 26.4329H219.232V24.4329H218.672V26.4329ZM218.243 25.5812C218.321 26.1023 218.511 26.5874 218.837 27.0027L220.41 25.767C220.325 25.6597 220.254 25.5101 220.22 25.2845L218.243 25.5812ZM218.837 27.0027C219.246 27.5234 219.826 27.7769 220.464 27.7769V25.7769C220.436 25.7769 220.42 25.7744 220.413 25.7729C220.406 25.7715 220.406 25.7708 220.41 25.7727C220.415 25.7746 220.418 25.777 220.42 25.7784C220.421 25.7797 220.418 25.7771 220.41 25.767L218.837 27.0027ZM220.464 27.7769C220.984 27.7769 221.53 27.6161 221.935 27.1658L220.448 25.8279C220.459 25.8158 220.473 25.8036 220.488 25.7931C220.503 25.7827 220.516 25.7766 220.525 25.7735C220.54 25.7676 220.526 25.7769 220.464 25.7769V27.7769ZM221.972 27.1216C222.304 26.707 222.415 26.2107 222.415 25.7409H220.415C220.415 25.8226 220.406 25.8668 220.401 25.8838C220.396 25.8982 220.397 25.8894 220.411 25.8722L221.972 27.1216ZM222.415 25.7409V25.3489H220.415V25.7409H222.415ZM221.415 26.3489H223.852V24.3489H221.415V26.3489ZM222.852 25.3489V25.8529H224.852V25.3489H222.852ZM222.852 25.8529C222.852 26.6728 222.647 27.0801 222.43 27.288L223.817 28.7297C224.571 28.0043 224.852 26.9742 224.852 25.8529H222.852ZM222.444 27.2751C222.164 27.5343 221.755 27.7089 221.107 27.7089V29.7089C222.14 29.7089 223.075 29.4167 223.803 28.7426L222.444 27.2751ZM229.497 45.9849H228.497V46.9849H229.497V45.9849ZM229.497 39.4049H230.497V38.4049H229.497V39.4049ZM227.705 39.4049H226.705V40.4049H227.705V39.4049ZM227.705 37.0529V36.0529H226.705V37.0529H227.705ZM232.745 37.0529H233.745V36.0529H232.745V37.0529ZM232.745 43.2409H231.745V44.2409H232.745V43.2409ZM234.789 42.7089L234.199 41.9015L234.789 42.7089ZM235.769 35.2889L234.848 35.68V35.68L235.769 35.2889ZM234.313 33.6649L234.77 32.7756V32.7756L234.313 33.6649ZM229.189 33.5529L228.879 32.602L228.872 32.6042L229.189 33.5529ZM227.033 34.5609H226.033V36.3706L227.565 35.4075L227.033 34.5609ZM227.033 31.5089L226.53 30.6441L226.033 30.9332V31.5089H227.033ZM229.301 30.6689L229.534 31.6412L229.543 31.6391L229.552 31.6367L229.301 30.6689ZM236.693 31.2009L236.209 32.0765L236.216 32.0799L236.693 31.2009ZM239.101 33.8609L240.02 33.4669L239.101 33.8609ZM239.129 42.4569L238.204 42.0754L238.201 42.0829L239.129 42.4569ZM236.833 45.0889L236.343 44.2169L236.336 44.2206L236.833 45.0889ZM230.497 45.9849V39.4049H228.497V45.9849H230.497ZM229.497 38.4049H227.705V40.4049H229.497V38.4049ZM228.705 39.4049V37.0529H226.705V39.4049H228.705ZM227.705 38.0529H232.745V36.0529H227.705V38.0529ZM231.745 37.0529V43.2409H233.745V37.0529H231.745ZM232.745 44.2409H232.997V42.2409H232.745V44.2409ZM232.997 44.2409C233.879 44.2409 234.693 44.0175 235.379 43.5163L234.199 41.9015C233.914 42.1096 233.533 42.2409 232.997 42.2409V44.2409ZM235.379 43.5163C236.073 43.009 236.539 42.2715 236.829 41.4011L234.932 40.7686C234.737 41.3542 234.475 41.6994 234.199 41.9015L235.379 43.5163ZM236.829 41.4011C237.118 40.5346 237.245 39.4842 237.245 38.2849H235.245C235.245 39.3629 235.128 40.1791 234.932 40.7686L236.829 41.4011ZM237.245 38.2849C237.245 36.9651 237.079 35.8166 236.689 34.8977L234.848 35.68C235.092 36.2545 235.245 37.1033 235.245 38.2849H237.245ZM236.689 34.8977C236.29 33.96 235.653 33.2298 234.77 32.7756L233.855 34.5541C234.279 34.772 234.612 35.1244 234.848 35.68L236.689 34.8977ZM234.77 32.7756C233.932 32.3449 232.932 32.1609 231.821 32.1609V34.1609C232.726 34.1609 233.386 34.3128 233.855 34.5541L234.77 32.7756ZM231.821 32.1609C230.777 32.1609 229.793 32.3042 228.879 32.602L229.498 34.5037C230.189 34.2788 230.96 34.1609 231.821 34.1609V32.1609ZM228.872 32.6042C228.018 32.889 227.226 33.2581 226.5 33.7142L227.565 35.4075C228.146 35.0422 228.791 34.7394 229.505 34.5015L228.872 32.6042ZM228.033 34.5609V31.5089H226.033V34.5609H228.033ZM227.535 32.3737C228.002 32.1024 228.658 31.8515 229.534 31.6412L229.067 29.6965C228.077 29.9342 227.221 30.2433 226.53 30.6441L227.535 32.3737ZM229.552 31.6367C230.389 31.4191 231.348 31.3049 232.437 31.3049V29.3049C231.211 29.3049 230.079 29.4333 229.049 29.701L229.552 31.6367ZM232.437 31.3049C234.089 31.3049 235.324 31.5878 236.209 32.0764L237.176 30.3253C235.896 29.6193 234.294 29.3049 232.437 29.3049V31.3049ZM236.216 32.0799C237.115 32.5675 237.764 33.2809 238.181 34.2548L240.02 33.4669C239.429 32.0888 238.473 31.0289 237.169 30.3218L236.216 32.0799ZM238.181 34.2548C238.617 35.2704 238.857 36.5828 238.857 38.2289H240.857C240.857 36.4029 240.592 34.8033 240.02 33.4669L238.181 34.2548ZM238.857 38.2289C238.857 39.7771 238.627 41.05 238.204 42.0754L240.053 42.8384C240.6 41.5117 240.857 39.966 240.857 38.2289H238.857ZM238.201 42.0829C237.817 43.0344 237.204 43.7336 236.343 44.2169L237.322 45.9608C238.589 45.2494 239.506 44.194 240.056 42.8308L238.201 42.0829ZM236.336 44.2206C235.497 44.7002 234.281 44.9849 232.605 44.9849V46.9849C234.475 46.9849 236.077 46.6722 237.329 45.9571L236.336 44.2206ZM232.605 44.9849H229.497V46.9849H232.605V44.9849ZM246.992 39.3489V40.3489H247.941L247.99 39.4012L246.992 39.3489ZM243.66 39.3489L242.661 39.4012L242.711 40.3489H243.66V39.3489ZM242.96 25.9929V24.9929H241.906L241.961 26.0452L242.96 25.9929ZM247.692 25.9929L248.69 26.0452L248.746 24.9929H247.692V25.9929ZM243.604 42.2329L244.188 43.0444L244.199 43.0368L244.209 43.029L243.604 42.2329ZM246.992 42.2329L246.387 43.029L246.397 43.0368L246.407 43.0444L246.992 42.2329ZM246.992 45.8169L247.597 46.613L247.607 46.6055L247.616 46.5977L246.992 45.8169ZM243.604 45.8169L242.979 46.5977L242.989 46.6055L242.999 46.613L243.604 45.8169ZM246.992 38.3489H243.66V40.3489H246.992V38.3489ZM244.658 39.2965L243.958 25.9405L241.961 26.0452L242.661 39.4012L244.658 39.2965ZM242.96 26.9929H247.692V24.9929H242.96V26.9929ZM246.693 25.9405L245.993 39.2965L247.99 39.4012L248.69 26.0452L246.693 25.9405ZM243.904 44.0249C243.904 43.3219 244.093 43.1129 244.188 43.0444L243.019 41.4213C242.181 42.0248 241.904 43.0105 241.904 44.0249H243.904ZM244.209 43.029C244.477 42.8255 244.825 42.7009 245.312 42.7009V40.7009C244.455 40.7009 243.664 40.9309 242.999 41.4367L244.209 43.029ZM245.312 42.7009C245.773 42.7009 246.114 42.8217 246.387 43.029L247.597 41.4367C246.936 40.9347 246.157 40.7009 245.312 40.7009V42.7009ZM246.407 43.0444C246.503 43.1129 246.692 43.3219 246.692 44.0249H248.692C248.692 43.0105 248.414 42.0248 247.576 41.4213L246.407 43.0444ZM246.692 44.0249C246.692 44.663 246.516 44.9168 246.367 45.036L247.616 46.5977C248.401 45.9703 248.692 45.0294 248.692 44.0249H246.692ZM246.387 45.0207C246.114 45.228 245.773 45.3489 245.312 45.3489V47.3489C246.157 47.3489 246.936 47.1151 247.597 46.613L246.387 45.0207ZM245.312 45.3489C244.825 45.3489 244.477 45.2242 244.209 45.0207L242.999 46.613C243.664 47.1188 244.455 47.3489 245.312 47.3489V45.3489ZM244.228 45.036C244.079 44.9168 243.904 44.663 243.904 44.0249H241.904C241.904 45.0294 242.195 45.9703 242.979 46.5977L244.228 45.036Z" fill="#449FCA" mask="url(#path-5-outside-1_2422_5589)"/>
</g>
<defs>
<filter id="filter0_d_2422_5589" x="125.194" y="21.1011" width="123.551" height="28.2476" filterUnits="userSpaceOnUse" color-interpolation-filters="sRGB">
<feFlood flood-opacity="0" result="BackgroundImageFix"/>
<feColorMatrix in="SourceAlpha" type="matrix" values="0 0 0 0 0 0 0 0 0 0 0 0 0 0 0 0 0 0 127 0" result="hardAlpha"/>
<feOffset dy="2"/>
<feComposite in2="hardAlpha" operator="out"/>
<feColorMatrix type="matrix" values="0 0 0 0 0.212049 0 0 0 0 0.624784 0 0 0 0 0.820833 0 0 0 1 0"/>
<feBlend mode="normal" in2="BackgroundImageFix" result="effect1_dropShadow_2422_5589"/>
<feBlend mode="normal" in="SourceGraphic" in2="effect1_dropShadow_2422_5589" result="shape"/>
</filter>
</defs>
</svg>
