<svg width="71" height="76" viewBox="0 0 71 76" fill="none" xmlns="http://www.w3.org/2000/svg">
<g clip-path="url(#clip0_1991_5336)">
<path d="M43.8272 29.308V18.82H44.8463C46.5902 18.82 48.0172 17.3924 48.0172 15.6478C48.0172 13.9031 46.5902 12.4755 44.8463 12.4755H25.4364C23.6926 12.4755 22.2656 13.9031 22.2656 15.6478C22.2656 17.3924 23.6926 18.82 25.4364 18.82H26.4555V29.308C17.4145 32.7973 11 41.5725 11 51.8478C11 65.1865 21.8082 75.9996 35.141 75.9996C48.4738 75.9996 59.282 65.1865 59.282 51.8478C59.282 41.5725 52.8674 32.7973 43.8268 29.308H43.8272Z" fill="#D1E1EB"/>
<path d="M31.5599 16.2665H30.5408C28.7969 16.2665 27.3699 14.8389 27.3699 13.0943C27.3699 12.8828 27.3917 12.6757 27.4319 12.4755H25.436C23.6922 12.4755 22.2652 13.9031 22.2652 15.6478C22.2652 17.3924 23.6922 18.82 25.436 18.82H26.4551V29.308C17.4145 32.7973 11 41.5725 11 51.8478C11 65.1865 21.8082 75.9996 35.141 75.9996C37.705 75.9996 40.1748 75.5984 42.4929 74.8576C41.1871 74.9877 39.8773 75.0703 38.5651 75.094C35.0975 75.1561 31.5897 74.8052 28.2715 73.7603C24.9831 72.725 21.9427 70.9852 19.4672 68.5751C16.635 65.8178 14.6399 62.3406 13.5749 58.5395C11.6619 51.7132 13.2596 43.8988 17.3328 38.1621C17.3328 38.1621 21.7679 31.6118 31.487 30.7602C31.4991 30.759 31.6049 20.5457 31.6049 20.5457L38.0904 18.8196H44.8459C46.3784 18.8196 47.6648 17.7171 47.9548 16.2661H31.5599V16.2665Z" fill="#9ECDE6"/>
<path d="M54.8688 46.7878C54.4508 48.0092 45.7654 48.9845 35.1098 48.9845C24.4542 48.9845 16.1734 48.0543 15.3923 46.8728C14.9928 48.4652 14.7778 50.1313 14.7778 51.8477C14.7778 63.0991 23.8945 72.2199 35.1408 72.2199C46.3871 72.2199 55.5038 63.0991 55.5038 51.8477C55.5038 50.1007 55.2823 48.406 54.8688 46.7878Z" fill="#A75A97"/>
<path d="M35.1955 67.2462C34.5602 66.202 33.9256 65.1575 33.2802 64.1198C32.7169 63.2143 32.1805 62.2616 31.9108 61.2219C31.6523 60.2269 31.6801 59.1651 32.0714 58.2075C32.3891 57.4305 32.7789 56.6849 33.2021 55.9606C34.1809 54.2848 35.33 52.7094 36.5339 51.1899C37.1359 50.4302 37.7564 49.685 38.393 48.9534C37.3251 48.974 36.2287 48.9848 35.1098 48.9848C24.703 48.9848 16.1734 48.0547 15.3923 46.8732C14.9928 48.4656 14.7778 50.1317 14.7778 51.8481C14.7778 63.0995 23.8945 72.2203 35.1408 72.2203C36.143 72.2203 37.1278 72.1465 38.0918 72.0068C37.1262 70.42 36.1611 68.8333 35.1955 67.2466V67.2462Z" fill="#65488F"/>
<path d="M35.1103 48.9845C45.7659 48.9845 54.4513 48.0092 54.8693 46.7878C54.8798 46.7572 54.8866 46.7266 54.8866 46.6956C54.8866 45.4315 46.0324 44.4067 35.1103 44.4067C24.1881 44.4067 15.334 45.4315 15.334 46.6956C15.334 46.7552 15.3537 46.8144 15.3924 46.8728C16.1739 48.0539 24.7031 48.9845 35.1099 48.9845H35.1103Z" fill="#CC7AA8"/>
<path d="M50.353 41.5047C51.5286 39.4677 49.1959 35.9184 45.1428 33.5773C41.0897 31.2362 36.851 30.9898 35.6755 33.0269C34.4999 35.0639 36.8325 38.6132 40.8856 40.9543C44.9387 43.2954 49.1774 43.5418 50.353 41.5047Z" fill="white"/>
<path d="M53.9 44.777C53.3484 45.3852 52.2463 45.2837 51.4394 44.5506C50.6321 43.8174 50.4252 42.7302 50.9772 42.1219C51.5288 41.5137 52.6309 41.6152 53.4378 42.3483C54.2451 43.0815 54.452 44.1687 53.9 44.777Z" fill="white"/>
<path d="M35.3252 2.2929C30.8353 2.83712 27.1161 2.90721 26.7505 2.46893L27.1753 12.4751H42.9082L43.6817 0.448761L43.6745 0.449567C43.2843 0.963976 39.7157 1.76036 35.3252 2.2925V2.2929Z" fill="#F39452"/>
<path d="M39.3121 10.7603C37.9902 10.579 36.6116 10.3035 35.4359 9.64326C34.9623 9.3774 34.5271 9.0358 34.2046 8.59511C33.7882 8.02551 33.6521 7.30606 33.5785 6.61844C33.4307 5.23554 33.5845 3.85626 33.6763 2.47537C29.9542 2.84678 27.0697 2.85201 26.75 2.46933L27.1748 12.4755H42.9077L43.0003 11.0382C41.767 11.0032 40.5341 10.9279 39.3117 10.7603H39.3121Z" fill="#EF7747"/>
<path d="M35.325 2.29288C39.7155 1.76075 43.2841 0.963956 43.6743 0.449949C43.7013 0.414501 43.7133 0.380663 43.7093 0.348034C43.6481 -0.157512 39.7948 -0.106354 35.1032 0.462437C30.4112 1.03123 26.6573 1.90173 26.7185 2.40728C26.7213 2.42903 26.7334 2.44958 26.7499 2.46891C27.1155 2.90679 30.8347 2.83669 35.3246 2.29288H35.325Z" fill="#F8B88A"/>
</g>
<defs>
<clipPath id="clip0_1991_5336">
<rect width="48.2824" height="76" fill="white" transform="translate(11)"/>
</clipPath>
</defs>
</svg>
