<svg width="19" height="21" viewBox="0 0 19 21" fill="none" xmlns="http://www.w3.org/2000/svg">
<path d="M0 11.2367C0 16.6312 4.25599 20.9999 9.49998 20.9999C14.744 20.9999 19 16.6312 19 11.2367V10.0703H0V11.2367Z" fill="#A1A1A1"/>
<path d="M0 10.9296C0 16.3241 4.25599 20.6928 9.49998 20.6928C14.744 20.6928 19 16.3241 19 10.9296V9.76318H0V10.9296Z" fill="#929292"/>
<path d="M0 10.0027C0 15.3972 4.25599 19.7659 9.49998 19.7659C14.744 19.7659 19 15.3972 19 10.0027V9.76318H0V10.0027Z" fill="#A3A3A3"/>
<path d="M19 9.76322C19 15.1577 14.749 19.5264 9.49998 19.5264C4.25092 19.5264 0 15.1577 0 9.76322C0 4.36871 4.25599 0 9.49998 0C14.744 0 19 4.36871 19 9.76322Z" fill="#CDCDCD"/>
<path d="M9.49998 0C7.14905 0 5.00079 0.879997 3.34399 2.33276L17.2114 15.4441C18.3312 13.8403 19 11.8825 19 9.76322C19 9.305 18.9594 8.8572 18.8986 8.41981L10.0218 0.031241C9.84958 0.0208269 9.67224 0.00521213 9.49998 0.00521213V0Z" fill="#D7D7D7"/>
<path d="M10.7666 19.4327C12.2056 19.2348 13.5432 18.7141 14.7034 17.9278L1.14506 5.11328C0.486395 6.36297 0.0962635 7.77929 0.0202637 9.27892L10.7616 19.4327H10.7666Z" fill="#D7D7D7"/>
<path d="M16.1272 9.76296C16.1272 13.5225 13.1581 16.5738 9.49999 16.5738C5.84186 16.5738 2.8728 13.5225 2.8728 9.76296C2.8728 6.00347 5.84186 2.95215 9.49999 2.95215C13.1581 2.95215 16.1272 6.00347 16.1272 9.76296Z" fill="#EBEBEB"/>
<path d="M6.94252 12.6001H4.47652V8.3161H6.94252V9.0601H5.38252V10.0021H6.83452V10.7461H5.38252V11.8501H6.94252V12.6001ZM11.2959 12.6001H10.2579L9.26195 10.9801L8.26595 12.6001H7.29395L8.71595 10.3921L7.38395 8.3161H8.38595L9.30995 9.8581L10.2159 8.3161H11.1939L9.84995 10.4401L11.2959 12.6001ZM13.2039 8.3161C13.7559 8.3161 14.1579 8.4361 14.4099 8.6761C14.6659 8.9121 14.7939 9.2381 14.7939 9.6541C14.7939 9.8421 14.7659 10.0221 14.7099 10.1941C14.6539 10.3621 14.5599 10.5141 14.4279 10.6501C14.2999 10.7821 14.1299 10.8861 13.9179 10.9621C13.7059 11.0381 13.4439 11.0761 13.1319 11.0761H12.7419V12.6001H11.8359V8.3161H13.2039ZM13.1559 9.0601H12.7419V10.3321H13.0419C13.2139 10.3321 13.3619 10.3101 13.4859 10.2661C13.6099 10.2221 13.7059 10.1521 13.7739 10.0561C13.8419 9.9601 13.8759 9.8361 13.8759 9.6841C13.8759 9.4721 13.8179 9.3161 13.7019 9.2161C13.5859 9.1121 13.4039 9.0601 13.1559 9.0601Z" fill="#A1A1A1"/>
<path d="M9.49999 4.38409C12.925 4.38409 15.7421 7.0553 16.0917 10.4815C16.117 10.2472 16.1272 10.0077 16.1272 9.76296C16.1272 6.00347 13.1581 2.95215 9.49999 2.95215C5.84186 2.95215 2.8728 6.00347 2.8728 9.76296C2.8728 10.0025 2.888 10.242 2.90827 10.4815C3.25787 7.0553 6.07493 4.38409 9.49999 4.38409Z" fill="#A1A1A1"/>
<path d="M9.49993 3.09273C13.1378 3.09273 16.0866 6.10241 16.122 9.83066C16.122 9.80462 16.122 9.78379 16.122 9.76296C16.122 6.00347 13.153 2.95215 9.49486 2.95215C5.83673 2.95215 2.86768 6.00347 2.86768 9.76296C2.86768 9.78379 2.86768 9.80983 2.86768 9.83066C2.90314 6.10241 5.857 3.09273 9.48979 3.09273H9.49993Z" fill="#A3A3A3"/>
</svg>
