<svg width="390" height="844" viewBox="0 0 390 844" fill="none" xmlns="http://www.w3.org/2000/svg">
<g clip-path="url(#clip0_641_8704)">
<rect width="390" height="844" fill="white"/>
<path d="M640.498 955.146C673.856 901.165 680.035 819.704 642.697 744.041C578.332 613.608 437.565 599.704 392.271 607.117C346.974 614.531 308.36 637.683 305.889 663.355C302.429 699.286 291.034 708.839 256.129 722.68C237.259 730.163 157.445 742.014 134.916 848.633C117.982 928.775 172.347 1063.02 280.326 1116.34L640.499 955.143L640.498 955.146Z" fill="#EBF3FA"/>
<path d="M640.498 955.146C673.856 901.165 680.035 819.704 642.697 744.041C578.332 613.608 437.565 599.704 392.271 607.117C346.974 614.531 308.36 637.683 305.889 663.355C302.429 699.286 291.034 708.839 256.129 722.68C237.259 730.163 157.445 742.014 134.916 848.633C117.982 928.775 172.347 1063.02 280.326 1116.34L640.499 955.143L640.498 955.146Z" fill="#EBF3FA"/>
</g>
<defs>
<clipPath id="clip0_641_8704">
<rect width="390" height="844" fill="white"/>
</clipPath>
</defs>
</svg>
