<svg width="302" height="292" viewBox="0 0 302 292" fill="none" xmlns="http://www.w3.org/2000/svg">
<g clip-path="url(#clip0_476_11068)">
<path d="M249.345 259C277.638 239.044 298.612 198.83 296.903 151.626C293.956 70.2533 227.772 30.9548 203.86 24.3841C179.946 17.8133 155.854 20.8132 148.987 33.3666C139.375 50.9364 131.666 53.2121 111.449 52.3024C100.519 51.8107 58.6493 39.6129 24.0949 88.9439C-1.8787 126.025 -4.69104 207.06 36.6877 258.999H249.347L249.345 259Z" fill="#EBF3FA"/>
<path d="M113.323 89.1307L231.772 70.5096C233.894 70.1753 235.918 71.4549 236.293 73.3674L263.936 214.335C264.311 216.247 262.894 218.067 260.773 218.401L142.325 237.022C140.202 237.355 138.178 236.077 137.803 234.164L110.16 93.1968C109.785 91.2843 111.202 89.4649 113.323 89.1307Z" fill="#EF3A4C"/>
<path d="M144.692 227.298L119.043 95.0984L229.001 77.9954L250.018 186.32L228.871 214.205L144.692 227.298Z" fill="white"/>
<path d="M214.389 128.543L151.839 138.271C150.112 138.54 148.467 137.504 148.167 135.956C147.867 134.409 149.024 132.936 150.753 132.668L213.302 122.94C215.03 122.671 216.674 123.707 216.974 125.255C217.274 126.802 216.118 128.274 214.389 128.543Z" fill="#CDEBEA"/>
<path d="M226.632 145.925L146.86 158.334C145.133 158.602 143.488 157.566 143.188 156.018C142.888 154.472 144.045 152.999 145.774 152.73L225.546 140.322C227.274 140.054 228.918 141.089 229.218 142.637C229.518 144.184 228.361 145.657 226.632 145.925Z" fill="#CDEBEA"/>
<path d="M228.647 156.313L148.875 168.721C147.148 168.989 145.503 167.954 145.203 166.405C144.903 164.859 146.06 163.386 147.789 163.117L227.561 150.709C229.288 150.441 230.933 151.477 231.233 153.025C231.533 154.571 230.376 156.044 228.647 156.313Z" fill="#CDEBEA"/>
<path d="M230.662 166.7L150.89 179.108C149.163 179.377 147.518 178.341 147.218 176.793C146.918 175.246 148.075 173.773 149.804 173.505L229.576 161.097C231.304 160.828 232.948 161.864 233.248 163.412C233.548 164.959 232.391 166.432 230.662 166.7Z" fill="#CDEBEA"/>
<path d="M232.678 177.089L152.906 189.497C151.178 189.765 149.533 188.73 149.233 187.182C148.933 185.635 150.09 184.162 151.819 183.894L231.591 171.485C233.319 171.217 234.964 172.253 235.264 173.801C235.564 175.348 234.407 176.82 232.678 177.089Z" fill="#CDEBEA"/>
<path d="M170.955 70.7385C161.225 72.2523 154.707 80.5422 156.398 89.254C156.399 89.265 156.402 89.276 156.404 89.2869L191.641 83.8055C191.639 83.7946 191.637 83.7836 191.634 83.7727C189.944 75.0608 180.685 69.2246 170.955 70.7385ZM173.253 82.5863C171.532 82.8548 169.893 81.8218 169.593 80.2792C169.293 78.7379 170.447 77.2706 172.17 77.0021C173.891 76.7336 175.53 77.7666 175.83 79.3092C176.13 80.8505 174.976 82.3177 173.253 82.5863Z" fill="#FFB357"/>
<path d="M250.019 186.32L228.871 214.205L224.238 190.33L250.019 186.32Z" fill="#DCF4FF"/>
<path d="M86.5655 276.01L74.0583 277.408L74.2389 288.012L86.795 287.857L86.5655 276.01Z" fill="white"/>
<path d="M64.9466 276.01L52.438 277.408L52.6185 288.012L65.1761 287.857L64.9466 276.01Z" fill="white"/>
<path d="M76.6165 281.115C78.9178 281.11 82.1173 280.865 85.664 279.895C87.3778 279.426 88.5682 278.03 88.5973 276.426L89.5628 191.319C89.5658 191.112 89.321 190.562 89.2858 190.358L88.9048 189.366C88.507 187.046 86.9325 186.395 84.4843 187.237L69.1465 192.512C67.5093 193.075 66.452 194.503 66.5117 196.071C66.9279 207.022 68.7365 249.855 72.5388 277.879C72.7897 279.726 74.5386 281.121 76.6165 281.115Z" fill="#E53567"/>
<path d="M54.5354 281.893C56.9667 282.059 60.668 282.035 64.8422 281.043C66.2575 280.706 67.2888 279.612 67.4143 278.305L74.6945 202.769L79.1778 181.797L49.6482 193.863C49.6482 193.863 48.6047 246.534 51.3267 279.023C51.4553 280.56 52.8186 281.776 54.5369 281.893H54.5354Z" fill="#F7597F"/>
<path d="M96.0106 287.148L86.6127 283.416C82.8288 286.716 78.5353 283.988 78.5353 283.988C75.6969 282.842 73.8333 285.089 73.8333 285.089V289.77H99.4611C99.4611 288.178 96.0106 287.149 96.0106 287.149V287.148Z" fill="#33192C"/>
<path d="M73.9267 285.089H73.7385V289.064H73.9267V285.089Z" fill="black"/>
<path d="M82.9374 284.938C82.916 284.941 80.6974 285.219 78.5873 283.92L78.4802 284.058C79.992 284.99 81.5588 285.132 82.3805 285.132C82.7401 285.132 82.9573 285.105 82.9635 285.104L82.9359 284.936L82.9374 284.938Z" fill="black"/>
<path d="M75.0242 287.533L74.9192 287.673L76.1202 288.396L76.2252 288.256L75.0242 287.533Z" fill="black"/>
<path d="M99.6111 291.407C100.144 291.407 100.575 291.021 100.575 290.544V290.014C100.575 289.537 100.144 289.152 99.6111 289.152H73.6222C73.408 289.152 73.2351 289.307 73.2351 289.498V291.06C73.2351 291.252 73.408 291.407 73.6222 291.407H99.6111Z" fill="#EF9029"/>
<path d="M99.2285 289.188L99.3984 289.115C99.3769 289.075 98.8613 288.129 96.938 287.394C95.0483 286.672 86.7337 283.371 86.6495 283.338L86.573 283.492C86.6572 283.525 94.9718 286.828 96.8645 287.55C98.7159 288.257 99.2239 289.178 99.2285 289.188Z" fill="black"/>
<path d="M89.8812 284.803C88.8224 286.284 87.5065 288.126 86.7935 289.123H88.5408C89.2998 288.063 90.3678 286.567 91.243 285.343C90.7763 285.158 90.3188 284.977 89.8812 284.803Z" fill="#D7E4F7"/>
<path d="M87.6977 283.939C86.6083 285.462 84.87 287.896 83.9902 289.124H85.7376C86.697 287.782 88.1368 285.768 89.058 284.479C88.5438 284.275 88.0802 284.091 87.6962 283.939H87.6977Z" fill="#D7E4F7"/>
<path d="M100.189 291.204C100.494 290.973 100.668 290.637 100.668 290.279C100.668 289.611 100.061 289.067 99.3141 289.067H73.8669C73.466 289.067 73.1416 289.359 73.1416 289.716V290.841H73.3298V289.716C73.3298 289.45 73.5716 289.235 73.8669 289.235H99.3141C99.9568 289.235 100.48 289.704 100.48 290.279C100.48 290.586 100.33 290.877 100.068 291.075L100.191 291.204H100.189Z" fill="black"/>
<path d="M74.4574 287.148L65.0595 283.416C61.2755 286.716 56.9821 283.988 56.9821 283.988C54.1437 282.842 52.28 285.089 52.28 285.089V289.77H77.9078C77.9078 288.178 74.4574 287.149 74.4574 287.149V287.148Z" fill="#49263E"/>
<path d="M52.3738 285.089H52.1855V289.064H52.3738V285.089Z" fill="black"/>
<path d="M61.3845 284.938C61.363 284.941 59.1444 285.219 57.0344 283.92L56.9272 284.058C58.439 284.99 60.0058 285.132 60.8275 285.132C61.1871 285.132 61.4043 285.105 61.4105 285.104L61.3829 284.936L61.3845 284.938Z" fill="black"/>
<path d="M53.4627 287.553L53.3577 287.692L54.5587 288.416L54.6637 288.276L53.4627 287.553Z" fill="black"/>
<path d="M54.3277 287.341L54.2224 287.481L55.4222 288.206L55.5275 288.066L54.3277 287.341Z" fill="black"/>
<path d="M78.0579 291.407C78.5904 291.407 79.0219 291.021 79.0219 290.544V290.014C79.0219 289.537 78.5904 289.152 78.0579 289.152H52.069C51.8548 289.152 51.6819 289.307 51.6819 289.498V291.06C51.6819 291.252 51.8548 291.407 52.069 291.407H78.0579Z" fill="#FFB357"/>
<path d="M77.6753 289.188L77.8451 289.115C77.8237 289.075 77.3081 288.129 75.3847 287.394C73.495 286.672 65.1804 283.371 65.0963 283.338L65.0198 283.492C65.1039 283.525 73.4185 286.828 75.3113 287.55C77.1627 288.257 77.6707 289.178 77.6753 289.188Z" fill="black"/>
<path d="M68.328 284.803C67.2692 286.284 65.9533 288.126 65.2402 289.123H66.9876C67.7465 288.063 68.8146 286.567 69.6898 285.343C69.2231 285.158 68.7656 284.977 68.328 284.803Z" fill="#D7E4F7"/>
<path d="M66.1449 283.939C65.0554 285.462 63.3172 287.896 62.439 289.124H64.1863C65.1457 287.782 66.5856 285.768 67.5067 284.479C66.9926 284.275 66.5289 284.091 66.1449 283.939Z" fill="#D7E4F7"/>
<path d="M78.6364 291.204C78.9408 290.973 79.1153 290.637 79.1153 290.279C79.1153 289.611 78.5078 289.067 77.7611 289.067H52.3139C51.913 289.067 51.5886 289.359 51.5886 289.716V290.841H51.7768V289.716C51.7768 289.45 52.0186 289.235 52.3139 289.235H77.7611C78.4038 289.235 78.9271 289.704 78.9271 290.279C78.9271 290.586 78.7771 290.877 78.5155 291.075L78.6379 291.204H78.6364Z" fill="black"/>
<path d="M89.6455 165.824L80.4465 168.444L80.8474 234.323L90.1444 233.261L89.6455 165.824Z" fill="white"/>
<path d="M64.5182 234.053C64.5182 234.053 65.8953 179.576 63.5772 165.312C61.2591 151.049 43.4624 173.825 43.4624 173.825L44.8472 234.053C44.8472 234.053 60.9209 234.659 64.5167 234.053H64.5182Z" fill="white"/>
<path d="M98.9287 166.118C98.9287 166.118 87.7298 162.684 87.2249 162.676L92.0707 175.143L103.386 177.731L98.9287 166.118Z" fill="white"/>
<path d="M68.5209 129.555C68.5209 129.555 55.5517 129.58 50.6186 130.039C42.9543 130.751 41.2819 141.877 41.2819 141.877C40.9024 151.8 40.627 166.797 43.4638 173.826C43.9794 175.103 47.7114 182.744 48.38 183.569C54.9595 191.679 62.3668 189.088 62.3668 189.088L81.2697 186.491L102.446 181.17C102.446 181.17 101.167 174.625 98.8155 170.282L91.0594 169.669L85.121 142.012C85.121 142.012 83.9015 132.466 69.6822 129.767C70.2208 130.011 68.5193 129.555 68.5193 129.555H68.5209Z" fill="white"/>
<path d="M97.1674 165.813C97.1674 165.813 97.1704 165.813 97.172 165.813C97.3005 165.848 97.4367 165.787 97.4765 165.676C97.5162 165.564 97.4428 165.443 97.3127 165.406L89.9652 163.317C89.8305 163.284 89.6959 163.34 89.6561 163.453C89.6163 163.565 89.6897 163.686 89.8198 163.723L97.1674 165.812V165.813Z" fill="#E0E0E0"/>
<path d="M90.9017 209.342C92.386 210.36 94.5235 210.04 95.5548 208.644L132.239 158.991L127.606 155.811L127.301 155.601L122.668 152.422L78.6532 197.045C77.4154 198.3 77.625 200.232 79.1092 201.25L90.9002 209.341L90.9017 209.342Z" fill="#FBB2C1"/>
<path d="M131.344 159.957C131.991 160.4 134.058 160.502 134.554 159.922L138.641 155.447L124.91 146.024L120.676 150.969C120.18 151.549 120.303 152.379 120.95 152.824L131.344 159.957Z" fill="#F7597F"/>
<path d="M135.396 159.661L138.869 155.603L138.413 155.289L134.94 159.347C134.121 160.303 132.588 160.484 131.52 159.753L124.045 154.623L123.695 155.032L131.169 160.161C132.488 161.066 134.384 160.842 135.396 159.661Z" fill="#E0E0E0"/>
<g opacity="0.5">
<path d="M173.726 148.051C186.073 136.996 186.073 119.072 173.726 108.017C161.378 96.9619 141.36 96.9619 129.013 108.017C116.666 119.072 116.666 136.996 129.013 148.051C141.36 159.106 161.378 159.106 173.726 148.051Z" fill="#88DFED"/>
</g>
<path d="M111.887 103.918C117.735 101.26 121.326 97.0777 119.91 94.5761C118.491 92.0759 112.602 92.2033 106.754 94.8611C100.906 97.5189 97.3144 101.702 98.7313 104.203C100.15 106.703 106.039 106.576 111.887 103.918Z" fill="#F3FFFE"/>
<path d="M131.101 159.799L94.8245 209.153L95.305 209.436L131.582 160.083L131.101 159.799Z" fill="#E4E4E4"/>
<path d="M180.454 147.993C192.765 133.61 189.724 113.015 173.661 101.992C157.597 90.9691 134.595 93.6926 122.284 108.075C109.973 122.457 113.015 143.052 129.078 154.075C145.141 165.098 168.143 162.375 180.454 147.993ZM126.275 110.814C136.897 98.4041 156.742 96.0545 170.602 105.565C184.462 115.076 187.086 132.844 176.464 145.254C165.842 157.663 145.996 160.013 132.136 150.502C118.277 140.992 115.653 123.223 126.275 110.814Z" fill="#F26683"/>
<path d="M129.252 153.871C121.867 148.804 116.978 141.485 115.484 133.265L114.917 133.347C116.433 141.697 121.4 149.131 128.903 154.28C145.068 165.371 168.295 162.621 180.684 148.149C193.072 133.676 190.001 112.88 173.837 101.787C166.26 96.5861 156.862 94.2324 147.375 95.1586L147.438 95.6709C156.777 94.7599 166.029 97.0765 173.488 102.196C189.399 113.115 192.423 133.588 180.228 147.836C168.033 162.083 145.167 164.79 129.255 153.871H129.252Z" fill="#E0E0E0"/>
<path d="M107.746 166.748L112.64 163.75C113.146 163.441 113.328 162.787 112.998 162.324C112.647 161.834 112.012 161.823 111.48 162.15C111.48 162.15 109.795 163.054 108.525 163.624L104.59 164.861C104.105 164.768 104.35 164.746 102.784 164.759C101.051 164.772 97.5116 169.243 97.5116 169.243C97.3831 169.595 97.7549 170.255 98.1971 170.724C100.792 176.323 101.244 177.167 102.099 178.619L108.438 175.493C110.268 174.591 112.265 173.994 114.332 173.732L114.851 173.666C115.49 173.586 115.931 173.047 115.821 172.475C115.717 171.933 115.089 171.561 114.482 171.639L110.726 172.114C110.608 172.129 110.492 172.076 110.438 171.98C110.358 171.84 110.443 171.669 110.611 171.626L116.018 170.269C116.638 170.113 116.907 169.566 116.615 169.052C116.324 168.538 115.579 168.245 114.959 168.401L109.445 169.785C109.316 169.817 109.182 169.765 109.121 169.658L109.078 169.582C109.007 169.459 109.062 169.31 109.2 169.247L114.857 166.677C115.403 166.429 115.68 165.801 115.418 165.304C115.142 164.778 114.436 164.563 113.861 164.824L108.161 167.415C108.023 167.478 107.857 167.429 107.786 167.305L107.652 167.067C107.589 166.955 107.627 166.819 107.743 166.748H107.746Z" fill="#FE9F73"/>
<path d="M47.1177 147.971C47.4665 147.129 59.0341 128.899 59.0341 128.899C59.0341 128.899 50.4074 128.364 46.2042 130.33C39.9323 133.264 41.0829 148.858 41.0829 148.858C41.0829 148.858 46.7688 148.813 47.1192 147.972L47.1177 147.971Z" fill="white"/>
<path d="M63.3492 171.347C63.3935 171.355 63.4425 171.351 63.4869 171.333C63.6077 171.287 63.6644 171.162 63.6123 171.054C63.545 170.911 56.785 156.763 53.3208 147.736C53.278 147.625 53.1418 147.566 53.0194 147.603C52.8955 147.642 52.8297 147.762 52.871 147.875C56.3397 156.917 63.1059 171.08 63.1747 171.221C63.2069 171.288 63.2742 171.333 63.3492 171.345V171.347Z" fill="#E0E0E0"/>
<path d="M56.8139 170.939L63.3275 171.241C63.4591 171.247 63.5708 171.156 63.5769 171.04C63.5846 170.922 63.4836 170.824 63.352 170.817L56.8383 170.514C56.7068 170.508 56.5951 170.599 56.5889 170.715C56.5828 170.822 56.667 170.915 56.7817 170.936C56.7924 170.937 56.8032 170.939 56.8139 170.94V170.939Z" fill="#E0E0E0"/>
<path d="M102.901 166.079L109.319 163.253L104.302 160.605L102.901 166.079Z" fill="#FBB2C1"/>
<path d="M79.6875 154.307L78.8766 145.276L78.6899 144.325C78.6899 144.325 76.5202 132.891 73.7859 131.072C71.0516 129.252 63.4929 128.965 63.4929 128.965L57.5989 128.844C57.5989 128.844 63.7071 164.26 63.9412 171.129L80.7861 168.068L79.686 154.304L79.6875 154.307Z" fill="#4CB7D8"/>
<path d="M83.3707 167.893C83.4258 167.89 83.4763 167.871 83.5145 167.84C83.5665 167.797 83.5987 167.736 83.5941 167.668C83.5834 167.493 82.4587 150.105 81.3188 144.332C81.2959 144.217 81.1719 144.139 81.0434 144.159C80.9148 144.18 80.8276 144.289 80.8506 144.406C81.9859 150.154 83.1075 167.518 83.1197 167.693C83.1274 167.811 83.2391 167.9 83.3707 167.893Z" fill="#E0E0E0"/>
<path d="M87.9317 165.826C87.9424 165.831 87.9546 165.837 87.9669 165.842C88.0709 165.882 88.1964 165.848 88.2591 165.759L89.9468 163.36L89.93 163.278L85.3581 141.98C85.332 141.789 84.9587 139.311 82.7309 136.524C80.6713 133.947 76.5706 130.637 68.7074 129.381C68.6952 129.524 68.6722 129.665 68.6355 129.803C76.3212 131.033 80.3209 134.253 82.3284 136.754C84.5379 139.507 84.8822 142.014 84.8853 142.039L84.8883 142.054L89.445 163.276L87.8552 165.533C87.7848 165.633 87.82 165.764 87.9302 165.827L87.9317 165.826Z" fill="#E0E0E0"/>
<path d="M102.945 175.355C102.737 169.992 99.7931 165.543 99.7931 165.543L89.9392 166.782L90.7226 184.159L102.944 181.277C102.944 181.277 103.152 180.719 102.944 175.355H102.945Z" fill="white"/>
<path d="M80.7863 186.329L64.6804 189.057L64.9252 209.277L80.8475 206.974L80.7863 186.329Z" fill="#4CB7D8"/>
<path d="M55.2944 172.801C55.3234 172.806 55.3556 172.806 55.3862 172.801C55.7197 172.739 88.689 166.657 99.6905 165.76C100.082 166.356 101.949 169.458 102.783 175.536C102.8 175.653 102.916 175.736 103.048 175.721C103.178 175.706 103.271 175.601 103.254 175.484C102.308 168.596 100.107 165.546 100.013 165.419L99.9353 165.313L99.7945 165.324C88.917 166.181 55.6249 172.322 55.2898 172.384C55.1613 172.407 55.0786 172.521 55.1046 172.636C55.1245 172.724 55.201 172.787 55.2928 172.802L55.2944 172.801Z" fill="#E0E0E0"/>
<path d="M56.1651 189.332C59.412 189.91 65.3014 189.341 71.8212 188.295C85.3519 186.125 101.6 181.907 102.602 181.645C102.749 181.607 102.833 181.469 102.791 181.338C102.748 181.207 102.599 181.13 102.446 181.17C102.084 181.264 66.1246 190.602 56.2722 188.847C46.5346 187.113 42.3084 169.266 42.2671 169.086C42.2365 168.952 42.0881 168.863 41.9397 168.893C41.7897 168.921 41.6933 169.052 41.7239 169.187C41.8968 169.935 46.0664 187.536 56.1636 189.334L56.1651 189.332Z" fill="#E0E0E0"/>
<path d="M70.7729 116.641L70.6612 114.756C70.5465 112.829 69.0913 111.16 67.0196 110.631C63.4406 109.716 59.5695 111.413 59.5695 111.413C59.5695 111.413 58.2704 113.368 58.1465 113.595C58.0225 113.822 59.6934 113.014 59.6934 113.014L70.7744 116.64L70.7729 116.641Z" fill="#FE9F73"/>
<path d="M71.1205 122.493L70.6492 114.545L59.103 112.03L59.3172 121.734L59.5621 124.23C59.5621 124.23 59.0709 129.355 59.3983 130.407C59.7258 131.459 61.5696 133.508 64.7415 133.357C65.7422 133.309 66.6143 133.114 67.3411 132.869C68.8269 132.369 69.6868 130.976 69.4114 129.577L68.6677 125.814C71.4219 125.326 71.1205 122.493 71.1205 122.493Z" fill="#FE9F73"/>
<path d="M63.3062 118.616C63.3704 118.55 64.8837 117.011 66.4184 118.003C66.4781 118.042 66.5607 118.029 66.6035 117.976C66.6464 117.922 66.6326 117.848 66.5729 117.81C64.8409 116.691 63.1225 118.442 63.1042 118.459C63.0568 118.509 63.0629 118.584 63.118 118.627C63.1455 118.647 63.1792 118.657 63.2113 118.655C63.2465 118.654 63.2801 118.64 63.3046 118.614L63.3062 118.616Z" fill="#21111D"/>
<path d="M68.7029 117.654C68.7136 117.644 69.7923 116.726 70.4457 117.176C70.5038 117.215 70.5864 117.206 70.6308 117.154C70.6752 117.102 70.6645 117.028 70.6063 116.988C69.7724 116.414 68.5697 117.439 68.5192 117.482C68.4672 117.528 68.4657 117.603 68.5162 117.65C68.5437 117.676 68.582 117.688 68.6187 117.685C68.6493 117.684 68.6799 117.673 68.7029 117.652V117.654Z" fill="#21111D"/>
<path d="M65.9136 119.007C65.9014 118.811 65.7147 118.661 65.4959 118.672C65.2771 118.683 65.1087 118.85 65.121 119.046C65.1332 119.242 65.3199 119.392 65.5387 119.381C65.7575 119.37 65.9258 119.203 65.9136 119.007Z" fill="black"/>
<path d="M70.1074 118.453C70.0952 118.257 69.9085 118.106 69.6897 118.117C69.4709 118.128 69.3026 118.295 69.3148 118.491C69.3271 118.687 69.5137 118.838 69.7326 118.827C69.9514 118.816 70.1197 118.649 70.1074 118.453Z" fill="black"/>
<path d="M55.501 113.974C54.8048 116.644 56.3395 117.965 56.416 118.747C56.4925 119.529 56.2125 124.842 60.3331 124.252L60.9344 115.469L59.2865 112.062L59.565 111.289C59.565 111.289 56.1987 111.304 55.5041 113.974H55.501Z" fill="#21111D"/>
<path d="M60.3806 121.283C61.6949 121.22 62.7033 120.216 62.6329 119.04C62.5625 117.863 61.4409 116.961 60.1281 117.024C58.8137 117.087 57.8054 118.091 57.8758 119.266C57.9462 120.443 59.0677 121.346 60.3806 121.283Z" fill="#FE9F73"/>
<path d="M59.5756 118.953C60.2228 118.55 60.8165 119.016 60.8425 119.035L61.02 119.176L60.9496 118.973C60.8257 118.61 60.6054 118.359 60.2963 118.226C59.7607 117.996 59.1579 118.203 59.1319 118.213C59.0982 118.225 59.0814 118.259 59.0952 118.289C59.1089 118.32 59.1472 118.335 59.1808 118.322C59.187 118.321 59.7577 118.125 60.2397 118.333C60.4631 118.429 60.6344 118.598 60.7507 118.835C60.4967 118.702 60.0086 118.537 59.4991 118.855C59.1548 119.07 59.0294 119.459 59.1808 119.846C59.3094 120.173 59.6598 120.49 60.1525 120.466C60.157 120.466 60.1616 120.466 60.1662 120.466C60.2029 120.464 60.2305 120.436 60.2274 120.403C60.2244 120.37 60.1938 120.346 60.1586 120.349C60.154 120.349 60.1494 120.349 60.1448 120.349C59.6904 120.37 59.4088 120.072 59.3048 119.807C59.2053 119.553 59.2145 119.176 59.5725 118.953H59.5756Z" fill="#F07162"/>
<path d="M68.666 125.813C68.666 125.813 64.4123 126.792 62.0896 123.708C62.0896 123.708 62.5578 128.452 69.2153 128.59L68.6675 125.815L68.666 125.813Z" fill="#F07162"/>
<path d="M67.39 121.298C67.4007 121.323 67.4267 121.336 67.4558 121.335C67.4619 121.335 67.4695 121.334 67.4757 121.331L68.8788 120.84L68.2744 117.973C68.2683 117.942 68.2331 117.918 68.1963 117.926C68.1612 117.932 68.1367 117.963 68.1443 117.995L68.7288 120.766L67.4282 121.221C67.3946 121.234 67.3777 121.268 67.39 121.298Z" fill="#F07162"/>
<path d="M59.7241 120.866L59.5022 124.896L61.0797 124.935L60.8426 120.924L59.7241 120.866Z" fill="#FE9F73"/>
<path d="M57.6047 114.715C57.6047 114.715 62.3817 118.306 60.9404 115.593C59.499 112.881 60.1784 111.181 60.1784 111.181C57.6782 110.641 57.6047 114.715 57.6047 114.715Z" fill="#21111D"/>
<path d="M66.8928 108.342C63.8937 109.379 58.2339 109.531 56.7956 112.14C55.3557 114.748 60.9406 115.593 60.9406 115.593C60.9406 115.593 71.0103 114.577 71.5076 112.429C72.0049 110.281 69.6255 110.338 69.6255 110.338C69.6255 110.338 69.8918 107.306 66.8928 108.343V108.342Z" fill="#21111D"/>
<path d="M61.7638 118.231C61.7638 118.231 62.486 115.819 61.8235 114.71C61.1594 113.6 58.8704 115.349 58.8704 115.349L60.8212 117.114L61.3553 118.744L61.7653 118.231H61.7638Z" fill="#21111D"/>
<path d="M69.2629 122.25C69.2201 122.242 66.4873 122.16 66.4873 122.16C66.4873 122.16 66.8193 123.175 67.8338 123.208C68.8498 123.241 69.2629 122.25 69.2629 122.25Z" fill="#FBFDFC"/>
<path d="M117.734 180.97C118.184 181.215 118.845 181.004 119.23 180.46C119.653 179.864 119.587 179.141 119.102 178.878L115.405 176.865C115.405 176.865 114.467 176.99 114.051 177.649C113.635 178.306 113.901 178.883 114.02 178.949L117.734 180.97Z" fill="#FE9F73"/>
<path d="M116.48 183.221C116.923 183.477 117.585 183.28 117.978 182.741C118.408 182.151 118.358 181.423 117.88 181.148L113.839 178.816C113.839 178.816 113.253 178.87 112.827 179.522C112.4 180.174 112.423 180.879 112.54 180.947L116.48 183.221Z" fill="#FE9F73"/>
<path d="M115.21 185.303C115.619 185.547 116.235 185.371 116.606 184.873C117.011 184.326 116.971 183.647 116.531 183.384L112.803 181.156C112.803 181.156 112.259 181.198 111.856 181.804C111.454 182.408 111.466 183.067 111.575 183.132L115.21 185.303Z" fill="#FE9F73"/>
<path d="M117.861 180.772L113.873 178.578C113.786 178.53 113.658 178.579 113.589 178.689C113.528 178.783 113.531 178.891 113.589 178.95C113.598 178.959 113.609 178.967 113.619 178.974L117.607 181.168C118.15 181.464 118.929 181.197 119.379 180.56C119.619 180.219 119.735 179.834 119.706 179.475C119.677 179.12 119.501 178.831 119.226 178.681L115.567 176.689C115.48 176.641 115.351 176.691 115.283 176.799C115.214 176.909 115.229 177.035 115.315 177.084L118.973 179.076C119.164 179.181 119.281 179.374 119.302 179.619C119.322 179.864 119.242 180.129 119.077 180.361C118.77 180.797 118.234 180.977 117.858 180.772H117.861Z" fill="#F07162"/>
<path d="M119.438 179.164C119.874 179.411 120.523 179.23 120.918 178.708C121.371 178.109 121.32 177.363 120.832 177.087L117.138 175.001C116.728 174.769 116.012 175.128 115.758 175.503C115.32 176.15 115.362 176.861 115.481 176.928L119.44 179.165L119.438 179.164Z" fill="#FE9F73"/>
<path d="M119.571 178.969L115.624 176.714C115.536 176.665 115.409 176.713 115.339 176.821C115.278 176.916 115.279 177.024 115.337 177.084C115.347 177.094 115.356 177.102 115.368 177.108L119.317 179.364C119.856 179.668 120.635 179.411 121.091 178.778C121.335 178.439 121.455 178.054 121.43 177.693C121.406 177.336 121.234 177.043 120.961 176.89L117.337 174.842C117.25 174.792 117.123 174.842 117.053 174.95C116.982 175.058 116.996 175.186 117.082 175.236L120.705 177.284C120.895 177.391 121.008 177.587 121.026 177.834C121.043 178.08 120.961 178.343 120.794 178.576C120.482 179.009 119.946 179.182 119.574 178.971L119.571 178.969Z" fill="#F07162"/>
<path d="M116.665 182.999L112.869 180.716C112.784 180.666 112.657 180.711 112.583 180.819C112.519 180.915 112.52 181.027 112.58 181.086C112.588 181.094 112.597 181.101 112.606 181.107L116.405 183.391C116.944 183.702 117.668 183.471 118.125 182.844C118.372 182.507 118.494 182.122 118.471 181.76C118.448 181.403 118.28 181.108 118.007 180.952L113.966 178.62C113.881 178.571 113.752 178.617 113.682 178.727C113.61 178.835 113.622 178.964 113.709 179.013L117.75 181.345C117.94 181.455 118.052 181.651 118.067 181.897C118.082 182.144 117.998 182.408 117.83 182.638C117.518 183.066 117.037 183.214 116.665 182.999Z" fill="#F07162"/>
<path d="M115.461 184.989L111.826 182.818C111.74 182.767 111.613 182.812 111.54 182.92C111.475 183.016 111.477 183.127 111.537 183.188C111.544 183.196 111.553 183.203 111.563 183.208L115.198 185.38C115.697 185.678 116.431 185.449 116.871 184.859C117.105 184.544 117.224 184.181 117.207 183.838C117.19 183.501 117.034 183.221 116.78 183.068L113.053 180.841C112.967 180.79 112.839 180.835 112.767 180.944C112.695 181.052 112.706 181.182 112.791 181.231L116.519 183.459C116.69 183.562 116.791 183.742 116.802 183.97C116.814 184.197 116.734 184.438 116.578 184.648C116.288 185.04 115.796 185.189 115.46 184.988L115.461 184.989Z" fill="#F07162"/>
</g>
<defs>
<clipPath id="clip0_476_11068">
<rect width="302" height="292" fill="white"/>
</clipPath>
</defs>
</svg>
