<svg width="390" height="253" viewBox="0 0 390 253" fill="none" xmlns="http://www.w3.org/2000/svg">
<path d="M211.328 116.795C206.087 72.7593 121.278 3.34563 73.3595 60.6538C71.4083 41.5824 73.5864 20.8732 46.5417 9.46425C23.6036 -0.231443 -13.7416 15.6017 -14.3542 35.1249L-16.5 135H297C290.171 120.824 289.172 110.544 275.242 97.8739C251.805 76.5999 210.421 89.402 211.328 116.776V116.795Z" fill="white"/>
<path d="M394 80.9999H-2.5V254H394V80.9999Z" fill="#4874D7"/>
<path d="M396.531 42.3617C389.014 19.5355 363.465 -5.70128 332.193 2.15227C294.107 11.7385 272.828 51.4582 277.007 80.9138C256.726 42.55 207.014 84.0401 195 106H396.531V42.3617Z" fill="#DAF3FF"/>
<path d="M131.19 194.88C127.4 194.88 124.43 193.07 124.43 190.75C124.43 190.33 124.73 190 125.11 190C125.49 190 125.79 190.34 125.79 190.75C125.79 191.99 128.01 193.38 131.2 193.38C131.57 193.38 131.88 193.72 131.88 194.13C131.88 194.54 131.58 194.88 131.2 194.88H131.19Z" fill="#6389DE"/>
<path d="M119.02 194.88C115.23 194.88 112.26 193.07 112.26 190.75C112.26 190.33 112.56 190 112.94 190C113.32 190 113.62 190.34 113.62 190.75C113.62 191.99 115.84 193.38 119.03 193.38C122.22 193.38 124.44 191.99 124.44 190.75C124.44 190.33 124.74 190 125.12 190C125.5 190 125.8 190.34 125.8 190.75C125.8 193.07 122.83 194.88 119.04 194.88H119.02Z" fill="#6389DE"/>
<path d="M106.85 194.88C103.06 194.88 100.09 193.07 100.09 190.75C100.09 190.33 100.39 190 100.77 190C101.15 190 101.45 190.34 101.45 190.75C101.45 191.99 103.67 193.38 106.86 193.38C110.05 193.38 112.27 191.99 112.27 190.75C112.27 190.33 112.57 190 112.95 190C113.33 190 113.63 190.34 113.63 190.75C113.63 193.07 110.66 194.88 106.87 194.88H106.85Z" fill="#6389DE"/>
<path d="M94.68 194.88C94.31 194.88 94 194.54 94 194.13C94 193.72 94.3 193.38 94.68 193.38C97.87 193.38 100.09 191.99 100.09 190.75C100.09 190.33 100.39 190 100.77 190C101.15 190 101.45 190.34 101.45 190.75C101.45 193.07 98.48 194.88 94.69 194.88H94.68Z" fill="#6389DE"/>
<path d="M397.81 190.208C394.02 190.208 391.05 188.398 391.05 186.078C391.05 185.658 391.35 185.328 391.73 185.328C392.11 185.328 392.41 185.668 392.41 186.078C392.41 187.318 394.63 188.708 397.82 188.708C398.19 188.708 398.5 189.048 398.5 189.458C398.5 189.868 398.2 190.208 397.82 190.208H397.81Z" fill="#3843D0"/>
<path d="M385.64 190.208C381.85 190.208 378.88 188.398 378.88 186.078C378.88 185.658 379.18 185.328 379.56 185.328C379.94 185.328 380.24 185.668 380.24 186.078C380.24 187.318 382.46 188.708 385.65 188.708C388.84 188.708 391.06 187.318 391.06 186.078C391.06 185.658 391.36 185.328 391.74 185.328C392.12 185.328 392.42 185.668 392.42 186.078C392.42 188.398 389.45 190.208 385.66 190.208H385.64Z" fill="#3843D0"/>
<path d="M373.47 190.208C369.68 190.208 366.71 188.398 366.71 186.078C366.71 185.658 367.01 185.328 367.39 185.328C367.77 185.328 368.07 185.668 368.07 186.078C368.07 187.318 370.29 188.708 373.48 188.708C376.67 188.708 378.89 187.318 378.89 186.078C378.89 185.658 379.19 185.328 379.57 185.328C379.95 185.328 380.25 185.668 380.25 186.078C380.25 188.398 377.28 190.208 373.49 190.208H373.47Z" fill="#3843D0"/>
<path d="M361.3 190.208C360.93 190.208 360.62 189.868 360.62 189.458C360.62 189.048 360.92 188.708 361.3 188.708C364.49 188.708 366.71 187.318 366.71 186.078C366.71 185.658 367.01 185.328 367.39 185.328C367.77 185.328 368.07 185.668 368.07 186.078C368.07 188.398 365.1 190.208 361.31 190.208H361.3Z" fill="#3843D0"/>
<path d="M81.19 256.88C77.4 256.88 74.43 255.06 74.43 252.75C74.43 252.33 74.73 252 75.11 252C75.49 252 75.79 252.34 75.79 252.75C75.79 253.99 78.01 255.38 81.2 255.38C81.57 255.38 81.88 255.72 81.88 256.13C81.88 256.54 81.58 256.88 81.2 256.88H81.19Z" fill="#3843D0"/>
<path d="M69.02 256.88C65.23 256.88 62.26 255.06 62.26 252.75C62.26 252.33 62.56 252 62.94 252C63.32 252 63.62 252.34 63.62 252.75C63.62 253.99 65.84 255.38 69.03 255.38C72.22 255.38 74.44 253.99 74.44 252.75C74.44 252.33 74.74 252 75.12 252C75.5 252 75.8 252.34 75.8 252.75C75.8 255.07 72.83 256.88 69.04 256.88H69.02Z" fill="#3843D0"/>
<path d="M56.85 256.88C53.06 256.88 50.09 255.06 50.09 252.75C50.09 252.33 50.39 252 50.77 252C51.15 252 51.45 252.34 51.45 252.75C51.45 253.99 53.67 255.38 56.86 255.38C60.05 255.38 62.27 253.99 62.27 252.75C62.27 252.33 62.57 252 62.95 252C63.33 252 63.63 252.34 63.63 252.75C63.63 255.07 60.66 256.88 56.87 256.88H56.85Z" fill="#3843D0"/>
<path d="M44.68 256.88C44.31 256.88 44 256.54 44 256.13C44 255.72 44.3 255.38 44.68 255.38C47.87 255.38 50.09 253.99 50.09 252.75C50.09 252.33 50.39 252 50.77 252C51.15 252 51.45 252.34 51.45 252.75C51.45 255.07 48.48 256.88 44.69 256.88H44.68Z" fill="#3843D0"/>
<path d="M236.24 174.508C232.45 174.508 229.48 172.688 229.48 170.378C229.48 169.968 229.78 169.628 230.16 169.628C230.54 169.628 230.84 169.968 230.84 170.378C230.84 171.618 233.06 173.008 236.25 173.008C236.62 173.008 236.93 173.348 236.93 173.758C236.93 174.168 236.63 174.508 236.25 174.508H236.24Z" fill="#6389DE"/>
<path d="M224.07 174.508C220.28 174.508 217.31 172.688 217.31 170.378C217.31 169.968 217.61 169.628 217.99 169.628C218.37 169.628 218.67 169.968 218.67 170.378C218.67 171.618 220.89 173.008 224.08 173.008C227.27 173.008 229.49 171.618 229.49 170.378C229.49 169.968 229.79 169.628 230.17 169.628C230.55 169.628 230.85 169.968 230.85 170.378C230.85 172.698 227.88 174.508 224.09 174.508H224.07Z" fill="#6389DE"/>
<path d="M211.91 174.508C208.12 174.508 205.15 172.688 205.15 170.378C205.15 169.968 205.45 169.628 205.83 169.628C206.21 169.628 206.51 169.968 206.51 170.378C206.51 171.618 208.73 173.008 211.92 173.008C215.11 173.008 217.33 171.618 217.33 170.378C217.33 169.968 217.63 169.628 218.01 169.628C218.39 169.628 218.69 169.968 218.69 170.378C218.69 172.698 215.72 174.508 211.93 174.508H211.91Z" fill="#6389DE"/>
<path d="M199.74 174.508C199.37 174.508 199.06 174.168 199.06 173.758C199.06 173.348 199.36 173.008 199.74 173.008C202.93 173.008 205.15 171.618 205.15 170.378C205.15 169.968 205.45 169.628 205.83 169.628C206.21 169.628 206.51 169.968 206.51 170.378C206.51 172.698 203.54 174.508 199.75 174.508H199.74Z" fill="#6389DE"/>
<path d="M302.18 261.88C298.39 261.88 295.42 260.06 295.42 257.75C295.42 257.34 295.72 257 296.1 257C296.48 257 296.78 257.34 296.78 257.75C296.78 258.99 299 260.38 302.19 260.38C302.56 260.38 302.87 260.72 302.87 261.13C302.87 261.54 302.57 261.88 302.19 261.88H302.18Z" fill="#3843D0"/>
<path d="M290.01 261.88C286.22 261.88 283.25 260.06 283.25 257.75C283.25 257.34 283.55 257 283.93 257C284.31 257 284.61 257.34 284.61 257.75C284.61 258.99 286.83 260.38 290.02 260.38C293.21 260.38 295.43 258.99 295.43 257.75C295.43 257.34 295.73 257 296.11 257C296.49 257 296.79 257.34 296.79 257.75C296.79 260.07 293.82 261.88 290.03 261.88H290.01Z" fill="#3843D0"/>
<path d="M277.85 261.88C274.06 261.88 271.09 260.06 271.09 257.75C271.09 257.34 271.39 257 271.77 257C272.15 257 272.45 257.34 272.45 257.75C272.45 258.99 274.67 260.38 277.86 260.38C281.05 260.38 283.27 258.99 283.27 257.75C283.27 257.34 283.57 257 283.95 257C284.33 257 284.63 257.34 284.63 257.75C284.63 260.07 281.66 261.88 277.87 261.88H277.85Z" fill="#3843D0"/>
<path d="M265.68 261.88C265.31 261.88 265 261.54 265 261.13C265 260.72 265.3 260.38 265.68 260.38C268.87 260.38 271.09 258.99 271.09 257.75C271.09 257.34 271.39 257 271.77 257C272.15 257 272.45 257.34 272.45 257.75C272.45 260.07 269.48 261.88 265.69 261.88H265.68Z" fill="#3843D0"/>
<path d="M169.18 104.88C165.39 104.88 162.42 103.06 162.42 100.75C162.42 100.34 162.72 99.9999 163.1 99.9999C163.48 99.9999 163.78 100.34 163.78 100.75C163.78 101.99 166 103.38 169.19 103.38C169.56 103.38 169.87 103.72 169.87 104.13C169.87 104.54 169.57 104.88 169.19 104.88H169.18Z" fill="#6389DE"/>
<path d="M157.01 104.88C153.22 104.88 150.25 103.06 150.25 100.75C150.25 100.34 150.55 99.9999 150.93 99.9999C151.31 99.9999 151.61 100.34 151.61 100.75C151.61 101.99 153.83 103.38 157.02 103.38C160.21 103.38 162.43 101.99 162.43 100.75C162.43 100.34 162.73 99.9999 163.11 99.9999C163.49 99.9999 163.79 100.34 163.79 100.75C163.79 103.07 160.82 104.88 157.03 104.88H157.01Z" fill="#6389DE"/>
<path d="M144.85 104.88C141.06 104.88 138.09 103.06 138.09 100.75C138.09 100.34 138.39 99.9999 138.77 99.9999C139.15 99.9999 139.45 100.34 139.45 100.75C139.45 101.99 141.67 103.38 144.86 103.38C148.05 103.38 150.27 101.99 150.27 100.75C150.27 100.34 150.57 99.9999 150.95 99.9999C151.33 99.9999 151.63 100.34 151.63 100.75C151.63 103.07 148.66 104.88 144.87 104.88H144.85Z" fill="#6389DE"/>
<path d="M132.68 104.88C132.31 104.88 132 104.54 132 104.13C132 103.72 132.3 103.38 132.68 103.38C135.87 103.38 138.09 101.99 138.09 100.75C138.09 100.34 138.39 99.9999 138.77 99.9999C139.15 99.9999 139.45 100.34 139.45 100.75C139.45 103.07 136.48 104.88 132.69 104.88H132.68Z" fill="#6389DE"/>
<path d="M68.74 130.94C63.36 130.94 59.15 128.37 59.15 125.08C59.15 124.49 59.58 124.01 60.11 124.01C60.64 124.01 61.07 124.49 61.07 125.08C61.07 126.84 64.22 128.81 68.74 128.81C69.27 128.81 69.7 129.29 69.7 129.88C69.7 130.47 69.27 130.95 68.74 130.95V130.94Z" fill="#6389DE"/>
<path d="M51.48 130.94C46.1 130.94 41.89 128.37 41.89 125.08C41.89 124.49 42.32 124.01 42.85 124.01C43.38 124.01 43.81 124.49 43.81 125.08C43.81 126.84 46.96 128.81 51.48 128.81C56 128.81 59.15 126.84 59.15 125.08C59.15 124.49 59.58 124.01 60.11 124.01C60.64 124.01 61.07 124.49 61.07 125.08C61.07 128.37 56.86 130.94 51.48 130.94Z" fill="#6389DE"/>
<path d="M34.22 130.94C28.84 130.94 24.63 128.37 24.63 125.08C24.63 124.49 25.06 124.01 25.59 124.01C26.12 124.01 26.55 124.49 26.55 125.08C26.55 126.84 29.7 128.81 34.22 128.81C38.74 128.81 41.89 126.84 41.89 125.08C41.89 124.49 42.32 124.01 42.85 124.01C43.38 124.01 43.81 124.49 43.81 125.08C43.81 128.37 39.6 130.94 34.22 130.94Z" fill="#6389DE"/>
<path d="M16.96 130.94C16.43 130.94 16 130.46 16 129.87C16 129.28 16.43 128.8 16.96 128.8C21.48 128.8 24.63 126.83 24.63 125.07C24.63 124.48 25.06 124 25.59 124C26.12 124 26.55 124.48 26.55 125.07C26.55 128.36 22.34 130.93 16.96 130.93V130.94Z" fill="#6389DE"/>
<path d="M303.256 147.71H293.025L290.061 163.564H306.219L303.256 147.71Z" fill="#E7E7E7"/>
<path d="M312.082 163.564V149.805H317.249V153.099L323.498 163.564H312.082Z" fill="#3843D0"/>
<path d="M312.043 151.081L306.258 144.508C306.142 144.377 306.155 144.182 306.284 144.078C306.4 143.974 306.58 143.974 306.696 144.078L313.384 149.766C313.783 150.105 313.822 150.69 313.487 151.094C313.139 151.484 312.533 151.524 312.147 151.185C312.108 151.159 312.082 151.12 312.043 151.094V151.081Z" fill="#3843D0"/>
<path d="M317.249 152.239L325.405 152.786C325.573 152.786 325.715 152.942 325.702 153.112C325.702 153.268 325.56 153.385 325.405 153.398L317.249 153.945C316.759 153.984 316.347 153.619 316.308 153.151C316.27 152.682 316.643 152.265 317.12 152.226C317.159 152.226 317.198 152.226 317.236 152.226L317.249 152.239Z" fill="#3843D0"/>
<path d="M373.428 172.272H278.426V184.104H373.428V172.272Z" fill="#E7E7E7"/>
<path d="M373.428 172.272H329.606V184.104H373.428V172.272Z" fill="#3843D0"/>
<path d="M321.926 172.272H288.142V184.104H321.926V172.272Z" fill="#3843D0"/>
<path d="M373.428 172.272H278.426V175.773H373.428V172.272Z" fill="#E7E7E7"/>
<path d="M265 184.39L271.262 207.56C272.138 210.788 275.102 213.027 278.504 213.027H384.587C388.104 213.027 391.158 210.619 391.905 207.235L398 179.613L265 184.39Z" fill="#E7E7E7"/>
<path d="M385.888 180.043L381.687 199.073C380.94 202.457 377.899 204.865 374.369 204.865H270.347L271.082 207.573C271.958 210.801 274.922 213.04 278.323 213.04H384.406C387.924 213.04 390.978 210.632 391.725 207.248L397.82 179.626L385.888 180.056V180.043Z" fill="#E7E7E7"/>
<path d="M266.894 191.406L396.428 186.759L396.84 184.885L266.404 189.584L266.894 191.406Z" fill="#C9303F"/>
<path d="M308.925 201.338C308.925 203.447 307.186 205.165 305.034 205.165C302.882 205.165 301.143 203.46 301.143 201.338C301.143 199.216 302.882 197.511 305.034 197.511C307.186 197.511 308.925 199.216 308.925 201.338Z" fill="#3843D0"/>
<path d="M298.411 201.338C298.411 203.447 296.672 205.165 294.52 205.165C292.368 205.165 290.628 203.46 290.628 201.338C290.628 199.216 292.368 197.511 294.52 197.511C296.672 197.511 298.411 199.216 298.411 201.338Z" fill="#3843D0"/>
<path d="M311.644 201.338C311.644 203.447 313.384 205.165 315.535 205.165C317.687 205.165 319.427 203.46 319.427 201.338C319.427 199.216 317.687 197.511 315.535 197.511C313.384 197.511 311.644 199.216 311.644 201.338Z" fill="#3843D0"/>
<path d="M385.27 193.736H376.907V196.327H385.27V193.736Z" fill="#C9303F"/>
<path d="M278.504 163.564H373.351C373.673 163.564 373.982 163.72 374.163 163.98L379.02 170.723C379.484 171.374 379.02 172.259 378.208 172.259H273.646C272.834 172.259 272.37 171.361 272.834 170.723L277.692 163.98C277.872 163.72 278.181 163.564 278.504 163.564Z" fill="#E7E7E7"/>
<path d="M363.777 167.911C363.777 169.187 362.721 170.215 361.432 170.215C360.144 170.215 359.087 169.187 359.087 167.911C359.087 166.636 360.144 165.607 361.432 165.607C362.721 165.607 363.777 166.636 363.777 167.911Z" fill="#3843D0"/>
<path d="M341.898 167.911C341.898 169.187 340.842 170.215 339.553 170.215C338.265 170.215 337.208 169.187 337.208 167.911C337.208 166.636 338.265 165.607 339.553 165.607C340.842 165.607 341.898 166.636 341.898 167.911Z" fill="#3843D0"/>
<path d="M320.019 167.911C320.019 169.187 318.963 170.215 317.674 170.215C316.386 170.215 315.329 169.187 315.329 167.911C315.329 166.636 316.386 165.607 317.674 165.607C318.963 165.607 320.019 166.636 320.019 167.911Z" fill="#3843D0"/>
<path d="M298.14 167.911C298.14 169.187 297.084 170.215 295.795 170.215C294.507 170.215 293.45 169.187 293.45 167.911C293.45 166.636 294.507 165.607 295.795 165.607C297.084 165.607 298.14 166.636 298.14 167.911Z" fill="#3843D0"/>
<path d="M291.827 154.153H304.454L303.913 151.276H292.368L291.827 154.153Z" fill="#C9303F"/>
<path d="M16 128.571C16 128.571 21.65 112.951 40.07 110.981C58.49 109.011 67.64 128.571 67.64 128.571H16Z" fill="#3843D0"/>
<path d="M80.61 128.571C80.61 128.571 86.9 125.631 84.53 121.871C82.16 118.111 86.6 118.301 87.56 121.871C88.53 125.441 87.56 128.571 87.56 128.571H80.61Z" fill="#3843D0"/>
<path d="M93.83 111.801C91.3 112.001 86.82 112.941 85.44 117.111C84.62 120.631 85.55 122.571 85.55 122.571C85.55 122.571 89.44 122.311 91.14 120.751C92.84 119.191 91.34 116.951 91.92 116.161C92.27 115.681 93.55 114.181 94.5 113.061C94.95 112.541 94.53 111.751 93.83 111.801Z" fill="#3843D0"/>
<path d="M74.8 114.911C77.25 114.291 81.81 113.771 84.51 117.271C86.47 120.341 86.24 122.461 86.24 122.461C86.24 122.461 82.48 123.451 80.35 122.511C78.22 121.571 78.89 118.991 78.07 118.421C77.58 118.081 75.86 117.061 74.59 116.311C73.99 115.961 74.12 115.081 74.8 114.911Z" fill="#3843D0"/>
<path d="M40.44 108.811C40.44 108.811 40.74 107.791 41.44 106.841C41.78 106.361 42.26 105.911 42.76 105.641C43.26 105.371 43.7 105.301 43.7 105.301L44.43 105.181C45.21 105.061 45.95 105.571 46.08 106.331C46.21 107.091 45.68 107.811 44.9 107.931C44.51 107.991 44.13 107.891 43.83 107.691C43.83 107.701 43.74 107.631 43.51 107.611C43.28 107.601 42.87 107.691 42.47 107.911C42.06 108.121 41.66 108.411 41.38 108.651C41.09 108.891 40.92 109.071 40.92 109.071C40.81 109.181 40.63 109.191 40.52 109.081C40.44 109.011 40.41 108.901 40.44 108.801V108.811Z" fill="#3843D0"/>
<path d="M39.32 109.821C39.32 109.821 39.19 109.521 38.85 109.111C38.52 108.711 37.98 108.271 37.39 107.981C36.79 107.691 36.16 107.521 35.67 107.461C35.18 107.391 34.85 107.381 34.85 107.381C33.89 107.351 33.14 106.561 33.17 105.631C33.2 104.701 34.01 103.971 34.97 104.001C35.22 104.001 35.45 104.071 35.66 104.171L35.82 104.251C35.82 104.251 36.24 104.451 36.83 104.821C37.42 105.181 38.16 105.771 38.75 106.481C39.34 107.191 39.73 108.001 39.9 108.631C40.08 109.251 40.07 109.711 40.07 109.711C40.07 109.921 39.89 110.091 39.67 110.091C39.51 110.091 39.37 109.991 39.31 109.861V109.841L39.32 109.821Z" fill="#3843D0"/>
</svg>
