<svg width="64" height="65" viewBox="0 0 64 65" fill="none" xmlns="http://www.w3.org/2000/svg">
<rect y="0.56897" width="64" height="64" rx="12" fill="white"/>
<g clip-path="url(#clip0_1297_6162)">
<path d="M21.9237 19.4126C22.3946 19.051 22.8811 18.7154 23.4001 18.4253C23.4626 18.5736 23.5315 18.7193 23.5862 18.8715C24.2561 20.7459 24.5657 22.6946 24.7582 24.6666C24.8427 27.3229 24.6658 29.9492 23.9413 32.5222C23.646 33.5733 23.6603 33.5811 24.7582 33.7658C28.0102 34.3121 31.0372 35.4881 33.9263 37.0477C34.2775 37.2376 34.6353 37.4159 34.9891 37.598C35.0788 37.4484 35.0086 37.3391 34.9839 37.235C34.5195 35.2279 34.0473 33.2233 33.5842 31.2162C33.2382 29.715 32.9013 28.2126 32.5605 26.7115C33.3579 27.0354 34.1813 27.237 35.0463 27.2669C36.0922 27.302 37.1445 27.1746 38.1839 27.3853C39.1478 27.8497 39.6148 28.6549 39.7865 29.6786C39.8398 29.996 39.9556 30.3017 40.0427 30.6139C40.1572 31.1616 40.273 31.7105 40.3875 32.2581C40.0531 32.2685 39.7175 32.279 39.3832 32.2881C39.1192 32.2751 38.8564 32.2633 38.5923 32.2503C37.8196 31.315 36.5592 31.2058 35.7318 32.0006C34.9449 32.7564 34.954 34.0337 35.7514 34.7804C36.5852 35.5609 37.8197 35.4542 38.5728 34.5346L39.4704 34.4942C39.9621 34.5046 40.4551 34.515 40.9468 34.5255C41.1328 35.2877 41.3201 36.05 41.5062 36.811C41.1679 36.8188 40.8297 36.8279 40.4915 36.8357C40.1767 36.7082 39.8424 36.8188 39.5224 36.7564C38.8109 35.8549 37.5699 35.7482 36.7387 36.517C35.9153 37.2767 35.9127 38.5658 36.7322 39.3307C37.5556 40.0994 38.7862 39.998 39.5198 39.103C39.7995 39.0861 40.0792 39.0679 40.3588 39.051C40.9143 39.0484 41.4697 39.0445 42.0265 39.0419C42.2073 39.8068 42.3894 40.5716 42.5702 41.3365C42.1878 41.3469 41.804 41.3573 41.4216 41.3677C41.125 41.3547 40.8297 41.343 40.5331 41.33C39.7826 40.409 38.5429 40.2933 37.7078 41.0659C36.8922 41.8204 36.8948 43.1394 37.713 43.8835C38.5572 44.6523 39.7904 44.53 40.537 43.6051C40.8323 43.5947 41.1263 43.5843 41.4216 43.5739C41.9862 43.583 42.552 43.5934 43.1166 43.6025C43.3026 44.439 43.4899 45.2741 43.6759 46.1105C42.5234 46.29 41.3696 46.4513 40.221 46.6516C38.526 46.9456 37.0574 46.0194 36.6463 44.3479C36.3393 43.1043 36.0466 41.8568 35.7696 40.6068C35.6863 40.2334 35.5211 39.9759 35.1855 39.7755C33.2044 38.5905 31.1556 37.5459 28.9936 36.729C27.3338 36.102 25.6297 35.6572 23.8697 35.4204C23.0671 35.3124 23.0164 35.3528 22.6704 36.102C22.2437 37.0282 21.8301 37.9661 21.2486 38.8116C20.7829 38.4292 20.3614 38.0025 19.9751 37.5407C21.9901 33.9349 23.0905 30.091 22.9956 25.9362C23.0385 23.6962 22.6118 21.5329 21.9237 19.4126Z" fill="#FDE052"/>
<path d="M38.1811 27.3866C37.1417 27.1771 36.0894 27.3046 35.0435 27.2682C34.1785 27.2383 33.355 27.038 32.5576 26.7128C32.4198 26.6295 32.2806 26.5489 32.144 26.463C30.6793 25.5394 29.6763 24.2932 29.4175 22.5332C29.969 22.0311 30.531 21.542 31.0695 21.0256C32.2884 19.8575 33.4929 18.675 34.7053 17.5004C34.7976 17.4106 34.9108 17.3404 35.0019 17.2493C36.0933 16.1619 37.2744 15.1667 38.3189 14.0311C40.8399 16.4636 43.2972 18.9599 45.7596 21.451C44.5056 22.4968 43.2477 23.5401 41.9989 24.5924C41.705 24.8396 41.3654 25.0399 41.1378 25.3638L41.143 25.3534C41.1014 25.3807 41.0611 25.4093 41.0194 25.4367C39.9124 25.8516 38.9537 26.4825 38.1811 27.3853V27.3866Z" fill="#F7F5F6"/>
<path d="M45.76 21.4522C43.2989 18.9599 40.8403 16.4636 38.3193 14.0324C38.3167 14.0025 38.3154 13.9725 38.3154 13.9426C38.4533 13.9283 38.5496 13.8451 38.6445 13.754C39.3444 13.0854 40.0403 12.4116 40.748 11.7508C41.3723 11.1693 42.011 10.6021 42.6432 10.0298C43.6722 10.2431 44.5971 10.7296 45.5245 11.1875C47.9779 12.3947 50.1515 14.0025 52.0988 15.9186C52.1665 15.9849 52.212 16.0747 52.268 16.154C50.2296 17.8282 48.1912 19.5023 46.1515 21.1738C46.028 21.2753 45.8901 21.3612 45.76 21.4535V21.4522Z" fill="#FEC3AB"/>
<path d="M38.1812 27.3865C38.9538 26.4837 39.9125 25.8528 41.0195 25.4379C41.0781 25.4353 41.1405 25.4392 41.1431 25.3546L41.1379 25.365C41.5216 25.3325 41.9067 25.2766 42.2904 25.274C42.894 25.2701 43.2959 25.5875 43.4338 26.1273C43.5639 26.6398 43.3428 27.1432 42.799 27.4021C41.4007 28.0694 40.5148 29.1621 40.04 30.6151C39.9529 30.3042 39.8371 29.9972 39.7838 29.6798C39.612 28.6561 39.1451 27.8509 38.1812 27.3865Z" fill="#FE9648"/>
<path d="M40.9454 34.5267C40.4537 34.5163 39.9606 34.5059 39.4689 34.4955C38.946 34.2379 38.6234 33.8724 38.6911 33.235C38.7405 32.7706 39.0644 32.5404 39.3805 32.2893C39.7148 32.2789 40.0504 32.2685 40.3847 32.2594C40.6098 32.2646 40.8348 32.2711 41.0611 32.2763C41.7232 32.2919 42.2071 32.7069 42.2527 33.3C42.2995 33.9036 41.8884 34.3901 41.2341 34.5007C41.1392 34.5163 41.0416 34.5202 40.9454 34.528V34.5267Z" fill="#F7F5F6"/>
<path d="M44.2094 42.515C44.1365 43.1706 43.7489 43.5088 43.1167 43.6025C42.5509 43.5934 41.9863 43.583 41.4205 43.5739C40.77 43.2265 40.5918 42.9144 40.6465 42.2796C40.6894 41.7853 41.064 41.5888 41.4191 41.369C41.8016 41.3586 42.1853 41.3482 42.5678 41.3378C42.7759 41.3456 42.9866 41.3404 43.1935 41.3638C43.7892 41.434 44.104 41.7983 44.2081 42.5163L44.2094 42.515Z" fill="#F7F5F6"/>
<path d="M42.0252 39.0431C41.4698 39.0457 40.9143 39.0483 40.3576 39.0522C40.2665 38.9638 40.1859 38.8623 40.0844 38.7908C39.4093 38.3082 39.5238 37.0008 40.4903 36.8395C40.8285 36.8317 41.1667 36.8226 41.5049 36.8148C41.6974 36.8213 41.89 36.8265 42.0838 36.8343C42.7589 36.8603 43.2051 37.2688 43.2311 37.8867C43.2571 38.502 42.8513 38.939 42.1696 39.0288C42.1215 39.0353 42.0734 39.0392 42.0252 39.0431Z" fill="#F7F5F6"/>
<path d="M19.9736 37.542C20.36 38.0038 20.7814 38.4305 21.2471 38.8129C21.2653 38.8402 21.2796 38.8701 21.3017 38.8923C25.8286 43.4204 30.3528 47.9498 34.8861 52.4715C35.824 53.4067 36.9817 53.9036 38.3034 53.9102C42.2357 53.9284 46.1681 53.9128 50.1004 53.9102C50.103 54.2835 50.1108 54.6568 50.1069 55.0301C50.0952 55.9602 49.5099 56.5521 48.5811 56.5573C47.0383 56.5651 45.4956 56.5625 43.9528 56.5638C41.7102 56.5625 39.4663 56.5417 37.2237 56.5664C35.6185 56.5846 34.2982 56.0162 33.1691 54.8793C29.1821 50.8675 25.1743 46.8754 21.1743 42.8767C21.0364 42.7388 20.8907 42.61 20.7489 42.4773C19.0721 40.7914 17.3954 39.1069 15.7199 37.421C15.5717 37.2727 15.4312 37.1167 15.2881 36.9632C15.9424 36.2763 16.598 35.5882 17.2523 34.9014C17.3863 35.0171 17.5281 35.1251 17.6543 35.25C18.4295 36.0123 19.2022 36.7784 19.9762 37.5433L19.9736 37.542Z" fill="#F7F5F6"/>
<path d="M21.9237 19.4126C22.6118 21.5329 23.0385 23.6961 22.9956 25.9361C22.859 25.953 22.7627 26.0363 22.6639 26.1235C21.9627 26.7426 21.2512 27.3423 20.6229 28.0474C19.1855 29.6617 18.1474 31.4724 17.5985 33.568C17.4892 33.9856 17.5009 34.4422 17.2382 34.8155C15.7579 33.3469 14.2762 31.8782 12.7959 30.4083C13.7962 26.5059 15.9699 23.4282 19.2948 21.1608C20.165 20.5677 21.047 19.994 21.9237 19.4113V19.4126Z" fill="#F38337"/>
<path d="M38.3152 13.9427C38.3152 13.9726 38.3178 14.0025 38.3191 14.0324C37.2746 15.168 36.0934 16.1631 35.002 17.2506C34.911 17.3417 34.7978 17.4119 34.7055 17.5017C33.4931 18.6763 32.2872 19.8587 31.0697 21.0269C30.5324 21.5433 29.9692 22.0324 29.4177 22.5345C29.3942 22.5254 29.3708 22.515 29.3487 22.5033C29.177 21.0997 29.4541 19.7248 29.6583 18.3524C29.7741 17.5758 29.5829 16.9514 29.0938 16.3804C31.0268 14.4513 32.9611 12.5235 34.8941 10.5944C35.0476 10.7374 35.205 10.8753 35.3533 11.0223C36.3406 11.9953 37.3266 12.9696 38.3126 13.9427H38.3152Z" fill="#DDD9EC"/>
<path d="M29.0953 16.3791C29.5831 16.9502 29.7757 17.5746 29.6599 18.3511C29.4557 19.7235 29.1773 21.0985 29.3503 22.502C29.3113 22.6672 29.1812 22.7271 29.0381 22.7713C27.5344 23.2305 26.1555 23.9694 24.7584 24.6679C24.5659 22.6959 24.2576 20.7472 23.5864 18.8728C23.5318 18.7219 23.4628 18.5749 23.4004 18.4266C24.4996 17.6799 25.5845 16.9137 26.7019 16.1944C27.524 15.6663 28.337 15.8133 29.0966 16.3791H29.0953Z" fill="#F38337"/>
<path d="M38.3155 13.9426C37.3295 12.9683 36.3435 11.994 35.3562 11.0223C35.2066 10.8753 35.0505 10.7361 34.897 10.5943C35.5045 9.96215 36.1106 9.32995 36.7181 8.69775C38.3584 8.79141 39.9519 9.13613 41.522 9.60052C41.9045 9.71369 42.3207 9.75531 42.6433 10.0311C42.0111 10.6047 41.3724 11.1706 40.7493 11.7521C40.0417 12.4129 39.3458 13.0854 38.6459 13.7553C38.551 13.8464 38.4547 13.9296 38.3168 13.9439L38.3155 13.9426Z" fill="#F3B098"/>
<path d="M12.7946 30.4097C14.275 31.8783 15.7566 33.3469 17.2369 34.8168C17.2421 34.8454 17.246 34.8728 17.2499 34.9014C16.5956 35.5882 15.94 36.2763 15.2857 36.9632C14.1904 35.8783 13.0769 34.8116 12.0076 33.702C11.5901 33.2689 11.555 32.7004 11.832 32.158C12.1351 31.5661 12.472 30.9924 12.7946 30.4097Z" fill="#DDD9EC"/>
<path d="M50.0994 53.9101C46.1671 53.9127 42.2347 53.927 38.3024 53.9101C36.9807 53.9036 35.823 53.4067 34.8851 52.4714C30.3518 47.9497 25.8276 43.4203 21.3007 38.8922C21.2786 38.8701 21.2643 38.8388 21.2461 38.8128C21.8276 37.966 22.2412 37.0294 22.6692 36.1032C23.0152 35.354 23.0659 35.3136 23.8685 35.4216C25.6285 35.6584 27.3326 36.1032 28.9924 36.7302C31.1544 37.5471 33.2032 38.5904 35.1843 39.7767C35.5199 39.9784 35.6851 40.2359 35.7684 40.608C36.0454 41.858 36.3381 43.1055 36.6451 44.3491C37.0562 46.0206 38.5248 46.9468 40.2197 46.6528C41.3684 46.4538 42.5235 46.2912 43.6747 46.1117C43.771 46.4707 43.8854 46.8258 43.9596 47.1901C44.0155 47.4632 44.1456 47.5699 44.424 47.5634C44.943 47.5504 45.4633 47.5504 45.9837 47.5699C48.2484 47.6506 50.0578 49.4912 50.1072 51.7546C50.115 52.1436 50.1189 52.5338 50.1254 52.924C50.1176 53.2532 50.1085 53.5836 50.1007 53.9127L50.0994 53.9101Z" fill="#FE9648"/>
<path d="M24.757 24.6666C26.1541 23.968 27.533 23.2292 29.0367 22.77C29.1798 22.7258 29.3099 22.6659 29.3489 22.5007C29.371 22.5124 29.3944 22.5228 29.4178 22.532C29.6767 24.292 30.6796 25.5381 32.1443 26.4617C32.2809 26.5476 32.4201 26.6282 32.558 26.7115C32.8988 28.2139 33.2357 29.7163 33.5817 31.2162C34.0448 33.2233 34.5183 35.2279 34.9814 37.235C35.0048 37.3391 35.0764 37.4471 34.9866 37.598C34.6328 37.4146 34.2751 37.2363 33.9239 37.0477C31.0348 35.488 28.0091 34.3121 24.7557 33.7658C23.6578 33.5811 23.6435 33.5733 23.9388 32.5222C24.6634 29.9492 24.8403 27.3215 24.7557 24.6666H24.757Z" fill="#FE9648"/>
<path d="M17.2513 34.9013C17.2474 34.8727 17.2422 34.8454 17.2383 34.8167C17.501 34.4421 17.488 33.9855 17.5986 33.5692C18.1475 31.4749 19.1856 29.6629 20.623 28.0486C21.2513 27.3436 21.9628 26.7439 22.664 26.1247C22.7628 26.0375 22.8591 25.9543 22.9957 25.9374C23.0906 30.0922 21.9914 33.9361 19.9752 37.5419C19.2012 36.7771 18.4285 36.0109 17.6532 35.2486C17.5271 35.125 17.3866 35.0158 17.2513 34.9V34.9013Z" fill="#FE9648"/>
<path d="M40.4904 36.8382C39.5239 36.9995 39.4094 38.3068 40.0845 38.7894C40.186 38.8623 40.2679 38.9637 40.3577 39.0509C40.078 39.0678 39.7983 39.086 39.5187 39.1029C39.066 39.0938 38.612 39.1029 38.1619 39.073C37.4478 39.0262 36.9548 38.5436 36.9561 37.927C36.9561 37.2896 37.4842 36.8044 38.2126 36.7797C38.6484 36.7654 39.0855 36.7641 39.5226 36.7576C39.8426 36.82 40.1769 36.7094 40.4917 36.8369L40.4904 36.8382Z" fill="#DBD7E8"/>
<path d="M41.4203 41.3676C41.0639 41.5875 40.6905 41.7839 40.6476 42.2782C40.5917 42.913 40.7699 43.2252 41.4216 43.5725C41.1263 43.5829 40.8323 43.5933 40.5371 43.6037C40.0505 43.5985 39.564 43.5959 39.0788 43.5855C38.4492 43.5725 37.9536 43.099 37.9341 42.4954C37.9146 41.8919 38.4349 41.3637 39.0749 41.3468C39.5614 41.3338 40.0479 41.3338 40.5331 41.3286C40.8297 41.3416 41.125 41.3533 41.4216 41.3663L41.4203 41.3676Z" fill="#DDD9EC"/>
<path d="M39.3807 32.2893C39.0647 32.5417 38.7395 32.7706 38.6913 33.235C38.6237 33.8724 38.9476 34.2379 39.4692 34.4955C39.17 34.5085 38.8708 34.5228 38.5716 34.5358C38.0851 34.5293 37.5999 34.5358 37.1134 34.515C36.4734 34.489 35.9583 33.9492 35.9817 33.3521C36.0064 32.742 36.4838 32.2906 37.1316 32.2737C37.6169 32.2607 38.1033 32.2581 38.5899 32.2516C38.8539 32.2646 39.1167 32.2763 39.3807 32.2893Z" fill="#DDD9EC"/>
<path d="M40.5316 41.3313C40.0451 41.3365 39.5586 41.3365 39.0734 41.3495C38.4334 41.3664 37.9131 41.8945 37.9326 42.4981C37.9521 43.1017 38.4464 43.5752 39.0773 43.5882C39.5638 43.5973 40.0503 43.5999 40.5355 43.6064C39.7889 44.5313 38.5557 44.6523 37.7115 43.8848C36.8933 43.1407 36.8907 41.8217 37.7063 41.0672C38.5414 40.2945 39.7811 40.4103 40.5316 41.3313Z" fill="#5F595F"/>
<path d="M38.5896 32.2516C38.1031 32.2581 37.6179 32.2607 37.1314 32.2737C36.4836 32.2906 36.0049 32.742 35.9815 33.3521C35.9581 33.9491 36.4732 34.489 37.1132 34.515C37.5984 34.5345 38.0849 34.5293 38.5714 34.5358C37.8182 35.4555 36.5838 35.5621 35.7499 34.7817C34.9526 34.035 34.9434 32.7576 35.7304 32.0018C36.5578 31.207 37.8182 31.3163 38.5909 32.2516H38.5896Z" fill="#5F595F"/>
<path d="M39.5211 36.7589C39.084 36.7654 38.6483 36.7667 38.2112 36.781C37.4827 36.8057 36.9559 37.2909 36.9546 37.9283C36.9546 38.5462 37.4476 39.0288 38.1604 39.0743C38.6118 39.1043 39.0658 39.0951 39.5172 39.1042C38.7835 40.0005 37.5517 40.1007 36.7296 39.3332C35.91 38.5683 35.9126 37.2792 36.7361 36.5195C37.5673 35.7508 38.8083 35.8587 39.5198 36.7589H39.5211Z" fill="#5F595F"/>
<path d="M41.1431 25.3534C41.1405 25.4379 41.0781 25.4353 41.0195 25.4366C41.0612 25.4093 41.1015 25.3807 41.1431 25.3534Z" fill="#6AC1F0"/>
</g>
<defs>
<clipPath id="clip0_1297_6162">
<rect width="40.7154" height="48" fill="white" transform="translate(11.6421 8.56897)"/>
</clipPath>
</defs>
</svg>
