<svg width="64" height="65" viewBox="0 0 64 65" fill="none" xmlns="http://www.w3.org/2000/svg">
<rect y="0.56897" width="64" height="64" rx="12" fill="white"/>
<g clip-path="url(#clip0_1297_6370)">
<path d="M33.1655 56.5065H29.4265C28.6361 56.2796 27.8082 56.2958 27.009 56.1237C27.0041 55.9991 26.9966 55.8756 26.9966 55.751C26.9966 50.3351 26.9966 44.9192 26.9966 39.5033C28.9328 39.4646 30.8565 39.6267 32.7279 40.1179C35.5493 40.8597 38.3819 41.4682 41.3205 41.3597C41.6921 41.346 41.6609 41.5667 41.6609 41.8073C41.6596 44.4354 41.6572 47.0636 41.6609 49.693C41.6621 51.1542 41.6734 52.6166 41.6808 54.0778C41.6135 54.1938 41.4926 54.2337 41.3804 54.2848C39.4953 55.155 37.5329 55.7722 35.4882 56.1412C34.7165 56.2808 33.926 56.2983 33.1655 56.5052V56.5065ZM30.3578 42.4169C30.3454 42.0579 30.0212 41.7412 29.6621 41.7412C29.2844 41.7412 28.9502 42.0841 28.964 42.4606C28.9764 42.8209 29.3006 43.1363 29.6596 43.1376C30.0374 43.1376 30.3715 42.7947 30.3578 42.4182V42.4169ZM38.2099 44.3133C38.2124 43.9542 37.9007 43.6275 37.5404 43.6113C37.1639 43.5951 36.8173 43.9243 36.8148 44.3033C36.8123 44.6623 37.124 44.989 37.4843 45.0052C37.8608 45.0214 38.2074 44.691 38.2099 44.3133ZM35.755 46.7818C36.1153 46.7718 36.432 46.4489 36.4345 46.0899C36.437 45.7121 36.0954 45.3767 35.7189 45.388C35.3586 45.3992 35.0419 45.7208 35.0394 46.0799C35.0369 46.4577 35.3785 46.793 35.755 46.7818ZM31.2405 51.0819C31.5996 51.0869 31.9275 50.7777 31.9462 50.4161C31.9649 50.0396 31.637 49.6917 31.258 49.6868C30.8989 49.6818 30.571 49.991 30.5523 50.3525C30.5336 50.729 30.8615 51.0769 31.2405 51.0819ZM37.2761 53.0006C37.2761 52.6416 36.9619 52.3174 36.6016 52.3037C36.225 52.29 35.8809 52.6229 35.8809 53.0006C35.8809 53.3597 36.1951 53.6839 36.5554 53.6976C36.932 53.7113 37.2761 53.3784 37.2773 53.0006H37.2761Z" fill="#5596FA"/>
<path d="M19.4949 11.8154C20.2205 10.2196 21.4049 9.1698 23.1254 8.75588C23.1877 8.74092 23.2426 8.72221 23.2576 8.6499C23.8186 8.6499 24.3796 8.6499 24.9394 8.6499C25.4257 8.81821 25.9119 8.98528 26.3981 9.15359C27.8631 9.97894 28.8131 11.1821 29.1036 12.8627C29.1834 13.3252 29.1746 13.794 29.151 14.2603C29.1298 14.6655 28.863 14.8575 28.4852 14.9211C26.3084 14.9211 24.1303 14.9211 21.9534 14.9211C21.254 14.9223 20.5546 14.9248 19.8539 14.9273C19.3602 14.84 19.1632 14.5346 19.1532 14.0459C19.137 13.2803 19.2642 12.541 19.4924 11.8154H19.4949ZM24.159 13.5097C25.2324 13.5097 26.3071 13.4985 27.3793 13.5172C27.7022 13.5235 27.7758 13.4162 27.7346 13.1158C27.5015 11.4127 25.9468 10.0612 24.1976 10.0525C22.411 10.0438 20.865 11.3766 20.6132 13.107C20.5621 13.4611 20.6606 13.521 20.9835 13.516C22.0407 13.4985 23.0992 13.5097 24.1577 13.5097H24.159Z" fill="#169F8E"/>
<path d="M24.2001 55.4056C22.118 54.8209 20.203 53.8721 18.384 52.7201C17.9651 52.4545 17.5362 52.2002 17.1709 51.8598C17.1746 48.5759 17.1796 45.2919 17.1796 42.008C17.1809 36.8414 17.1834 31.6737 17.1746 26.5071C17.1746 25.9722 17.3193 25.5209 17.7269 25.1818C18.0486 24.915 18.4002 24.6844 18.7381 24.4363C19.6644 23.7568 20.5945 23.0823 21.5146 22.3941C22.2477 21.8455 22.2689 21.0488 22.2315 20.2384C24.3148 20.2384 26.3969 20.2384 28.4802 20.2372C28.5176 20.7695 28.7794 21.1685 29.2033 21.479C30.3167 22.2956 31.4088 23.1421 32.5434 23.9288C33.264 24.4288 33.5832 25.0459 33.5532 25.9299C33.5096 27.2626 33.5495 28.5979 33.5532 29.9332C32.8762 30.8259 32.5508 31.8307 32.597 32.9516C30.7306 32.9566 28.8642 32.9628 26.9991 32.9678C26.1912 32.9628 25.382 32.9703 24.5741 32.9453C24.2637 32.9354 24.1864 33.0388 24.1864 33.3393C24.1963 40.6952 24.1976 48.051 24.1988 55.4068L24.2001 55.4056Z" fill="#38D0BE"/>
<path d="M26.9988 32.9678C28.8652 32.9628 30.7316 32.9566 32.5967 32.9516C32.6217 33.0576 32.6491 33.1623 32.6703 33.2695C33.0269 35.1409 34.4494 36.4737 36.3058 36.6756C38.0775 36.8676 39.7693 35.8453 40.5099 34.1335L40.4999 34.1073C40.5136 34.0662 40.5273 34.0263 40.541 33.9851C40.7318 33.666 40.7006 33.287 40.8253 32.9491C41.8988 32.9491 42.9735 32.9603 44.0469 32.9454C44.3698 32.9404 44.4932 33.0451 44.4783 33.373C44.4571 33.8231 44.4808 34.2756 44.4708 34.727C44.4658 34.9738 44.5456 35.0785 44.8112 35.1072C47.2623 35.3703 49.0713 37.501 49.1723 39.7701C49.2384 41.2637 49.2533 42.7498 49.1511 44.2385C49.0302 46.0001 47.463 47.884 45.7014 48.3714C45.4919 48.43 45.2774 48.5323 45.0692 48.5223C44.4808 48.4936 44.4558 48.8302 44.4658 49.2828C44.4883 50.3563 44.4721 51.4297 44.4708 52.5044C44.0344 52.9557 43.4522 53.1864 42.9198 53.4831C42.5234 53.7038 42.1705 54.0429 41.6818 54.0778C41.6756 52.6166 41.6644 51.1542 41.6619 49.693C41.6581 47.0648 41.6606 44.4367 41.6619 41.8073C41.6619 41.5667 41.693 41.346 41.3215 41.3597C38.3829 41.4669 35.5503 40.8585 32.7289 40.1179C30.8587 39.6267 28.935 39.4646 26.9976 39.5033C26.9976 37.3252 26.9976 35.1459 26.9976 32.9678H26.9988ZM44.4733 41.8297C44.4733 43.4642 44.477 45.0987 44.4696 46.7332C44.4683 47.0387 44.5219 47.2032 44.8897 47.1359C46.5167 46.8354 47.7435 45.3992 47.7535 43.746C47.761 42.5005 47.7597 41.255 47.7535 40.0107C47.7473 38.2927 46.6589 36.9574 44.982 36.5522C44.5656 36.4512 44.4633 36.5747 44.4658 36.9736C44.4808 38.5919 44.4721 40.2114 44.4721 41.8297H44.4733Z" fill="#E7F2FD"/>
<path d="M40.8256 32.9491C40.7022 33.2858 40.7321 33.666 40.5413 33.9852C40.5276 34.0263 40.5139 34.0662 40.5002 34.1074C40.5002 34.1074 40.5102 34.1335 40.5102 34.1323C40.4354 34.1323 40.3431 34.1024 40.2882 34.136C39.5365 34.5861 38.7148 34.6572 37.8621 34.6397C36.0455 34.6036 34.2041 32.7696 34.1979 30.9468C34.1954 30.3908 34.2378 29.8347 34.2602 29.2787L34.2677 29.2974C34.3462 29.2687 34.3724 29.2051 34.3836 29.1303C35.0831 28.4234 35.785 27.7202 36.4769 27.0059C36.6477 26.8288 36.7674 26.8413 36.9345 27.0108C37.8945 27.9858 38.8844 28.9321 39.8195 29.9295C40.6049 30.7673 40.8468 31.8221 40.8268 32.9479L40.8256 32.9491Z" fill="#0B66E9"/>
<path d="M21.9561 14.921C24.1329 14.921 26.311 14.921 28.4878 14.921C28.484 16.2014 28.4816 17.4831 28.4778 18.7635C27.5328 18.8745 26.5852 18.8084 25.639 18.8084C24.4109 18.8084 23.1829 18.8633 21.9561 18.776C21.9561 17.4906 21.9561 16.2064 21.9561 14.921Z" fill="#38D0BE"/>
<path d="M34.2588 29.2799C34.2363 29.836 34.1939 30.392 34.1964 30.9481C34.2039 32.7708 36.0454 34.6048 37.8607 34.6409C38.7134 34.6584 39.535 34.5861 40.2868 34.1373C40.3417 34.1048 40.434 34.1335 40.5088 34.1335C39.7682 35.8453 38.0763 36.8676 36.3047 36.6756C34.4483 36.4737 33.0257 35.1409 32.6692 33.2695C32.6492 33.1623 32.6205 33.0576 32.5956 32.9516C32.5495 31.8295 32.8749 30.8259 33.5519 29.9332C33.8112 29.7412 33.9645 29.4358 34.2575 29.2799H34.2588Z" fill="#0B57C6"/>
<path d="M42.3228 23.1222C42.7779 22.6559 43.2379 22.1958 43.6843 21.7221C43.8551 21.5413 43.9785 21.56 44.1431 21.7295C44.7291 22.3292 45.3549 22.8915 45.9097 23.5174C46.6578 24.3602 46.861 25.3364 46.4384 26.4099C46.2052 26.4934 45.9746 26.5807 45.7402 26.658C44.547 27.0557 43.2255 26.5158 42.5772 25.4386C42.152 24.7305 42.253 23.9762 42.2268 23.2244L42.2256 23.2294C42.258 23.1932 42.2904 23.1571 42.3228 23.1222Z" fill="#55A3F8"/>
<path d="M21.9557 18.7748C23.1825 18.8621 24.4106 18.8072 25.6386 18.8072C26.5849 18.8072 27.5325 18.8733 28.4775 18.7623C28.5847 18.7773 28.6919 18.7885 28.7979 18.8072C29.167 18.8733 29.3864 19.1102 29.3964 19.468C29.4076 19.8507 29.1832 20.0976 28.7979 20.1761C28.6919 20.1973 28.586 20.216 28.48 20.236C26.3967 20.236 24.3146 20.236 22.2313 20.2372C21.4358 20.2372 20.6392 20.2347 19.8437 20.2335C19.7066 20.2048 19.567 20.1886 19.4348 20.145C19.0969 20.0353 18.9286 19.7946 18.9548 19.4406C18.981 19.0877 19.173 18.8708 19.5308 18.8172C19.638 18.801 19.7465 18.7935 19.855 18.7835C20.5556 18.8297 21.2563 18.8484 21.957 18.7735L21.9557 18.7748Z" fill="#169F8E"/>
<path d="M42.2279 23.2245C42.2541 23.9763 42.1519 24.7306 42.5783 25.4387C43.2253 26.5159 44.5481 27.0558 45.7413 26.658C45.9757 26.5795 46.2076 26.4922 46.4394 26.4099C46.0392 27.5582 44.8636 28.199 43.8263 28.1579C42.5284 28.1055 41.4362 27.1555 41.2118 25.9486C41.0061 24.8428 41.3539 23.9339 42.2267 23.2245H42.2279Z" fill="#5596FA"/>
<path d="M34.3812 29.1316C34.3699 29.2064 34.3438 29.27 34.2652 29.2987C34.254 29.2089 34.3051 29.1615 34.3812 29.1316Z" fill="#0B57C6"/>
<path d="M42.3228 23.1222C42.2904 23.1583 42.258 23.1945 42.2256 23.2294C42.258 23.1933 42.2904 23.1571 42.3228 23.1222Z" fill="#5596FA"/>
<path d="M19.8439 20.2347C20.6393 20.2347 21.436 20.2372 22.2314 20.2385C22.2688 21.0489 22.2476 21.8455 21.5146 22.3941C20.5944 23.0823 19.6644 23.7568 18.738 24.4363C18.4002 24.6844 18.0486 24.9151 17.7269 25.1819C17.3192 25.521 17.1734 25.9723 17.1746 26.5072C17.1846 31.6737 17.1808 36.8415 17.1796 42.008C17.1796 45.292 17.1734 48.5759 17.1709 51.8599C16.2745 51.2714 15.4429 50.6094 14.7422 49.7903C14.7509 49.5883 14.7671 49.3876 14.7671 49.1856C14.7684 41.4221 14.7734 33.6573 14.7609 25.8938C14.7596 25.0584 15.0377 24.445 15.7346 23.9613C16.8455 23.1908 17.9102 22.3517 19.0086 21.5638C19.4786 21.2272 19.7915 20.8195 19.8439 20.2347Z" fill="#22BFAC"/>
<path d="M21.956 18.7748C21.2554 18.8496 20.5547 18.8309 19.854 18.7847C19.854 17.4981 19.8553 16.2127 19.8565 14.926C20.5559 14.9235 21.2554 14.9223 21.956 14.9198C21.956 16.2052 21.956 17.4894 21.956 18.7748Z" fill="#22BFAC"/>
<path d="M26.9992 32.9678C26.9992 35.1459 26.9992 37.3252 26.9992 39.5033C26.9992 44.9191 26.9992 50.335 26.9992 55.7509C26.9992 55.8756 27.0079 55.999 27.0116 56.1237C26.0616 55.9392 25.1166 55.7322 24.2014 55.4068C24.1989 48.051 24.1989 40.6951 24.189 33.3393C24.189 33.0388 24.265 32.9366 24.5767 32.9453C25.3846 32.9703 26.1937 32.9628 27.0016 32.9678H26.9992Z" fill="#C7E1FC"/>
<path d="M30.3576 42.417C30.3701 42.7935 30.0372 43.1376 29.6594 43.1364C29.3003 43.1364 28.9762 42.8197 28.9637 42.4594C28.9513 42.0829 29.2841 41.7387 29.6619 41.74C30.021 41.74 30.3451 42.0567 30.3576 42.4157V42.417Z" fill="#0B66E9"/>
<path d="M38.2096 44.3133C38.2071 44.6923 37.8605 45.0215 37.484 45.0053C37.1237 44.9891 36.812 44.6624 36.8145 44.3034C36.817 43.9243 37.1636 43.5952 37.5401 43.6114C37.9004 43.6276 38.2133 43.9543 38.2096 44.3133Z" fill="#0B66E9"/>
<path d="M35.7547 46.7818C35.3782 46.7931 35.0354 46.4577 35.0391 46.0799C35.0416 45.7209 35.3583 45.3979 35.7186 45.388C36.0951 45.3767 36.438 45.7121 36.4342 46.0899C36.4317 46.449 36.115 46.7719 35.7547 46.7818Z" fill="#0B66E9"/>
<path d="M31.2402 51.0819C30.8612 51.077 30.5333 50.7291 30.552 50.3526C30.5707 49.991 30.8986 49.6818 31.2577 49.6868C31.6367 49.6918 31.9646 50.0409 31.9459 50.4162C31.9272 50.7777 31.5993 51.0869 31.2402 51.0819Z" fill="#0B66E9"/>
<path d="M37.2762 53.0007C37.2762 53.3785 36.9309 53.7113 36.5544 53.6976C36.1941 53.6839 35.8799 53.3585 35.8799 53.0007C35.8799 52.6229 36.224 52.29 36.6005 52.3038C36.9608 52.3175 37.275 52.6416 37.275 53.0007H37.2762Z" fill="#0B66E9"/>
</g>
<defs>
<clipPath id="clip0_1297_6370">
<rect width="34.5351" height="48" fill="white" transform="translate(14.7324 8.56897)"/>
</clipPath>
</defs>
</svg>
