<svg width="64" height="65" viewBox="0 0 64 65" fill="none" xmlns="http://www.w3.org/2000/svg">
<rect y="0.56897" width="64" height="64" rx="12" fill="white"/>
<g clip-path="url(#clip0_1297_6133)">
<path d="M5.62038 48.1784C6.54663 45.4803 7.68849 42.8665 8.78912 40.2378C10.2835 36.6697 11.551 33.0453 12.0929 29.1978C20.2416 29.194 28.3904 29.1884 36.5391 29.1865C38.1779 29.1865 39.8166 29.1996 41.4554 29.2053C41.461 30.9809 41.4666 32.7584 41.4722 34.534C41.4722 35.2447 41.4685 35.9534 41.4666 36.664C41.4685 37.8772 41.4722 39.0884 41.4741 40.3015C41.4779 41.0496 41.4797 41.7978 41.4835 42.544C41.4835 43.7197 41.4798 44.8953 41.4779 46.0709C41.4779 46.819 41.4779 47.5671 41.4779 48.3134C41.4779 49.489 41.4816 50.6647 41.4835 51.8403C41.461 52.2565 41.4366 52.6747 41.4141 53.0909C41.0635 53.1022 40.7072 53.074 40.3641 53.1303C38.5004 53.4415 36.6179 53.5896 34.7372 53.6384C31.9154 53.7097 29.0935 53.7059 26.2754 53.3984C24.3329 53.1865 22.3997 52.924 20.476 52.5828C15.3554 51.6771 10.4991 49.8809 5.61475 48.1765L5.62038 48.1784ZM33.1922 43.1478C33.1922 42.5628 33.1997 41.9778 33.1904 41.3928C33.1772 40.5996 32.7798 40.1665 32.0841 40.1609C31.381 40.1571 30.9572 40.5884 30.9497 41.3628C30.9366 42.5328 30.9385 43.7028 30.9497 44.8728C30.9572 45.5496 31.5047 46.1872 32.056 46.1984C32.626 46.2097 33.181 45.5497 33.1922 44.8315C33.2016 44.2709 33.1922 43.7084 33.1922 43.1459V43.1478Z" fill="#FEC3AB"/>
<path d="M10.0977 9.95464C21.2408 10.234 32.3858 9.99963 43.5308 10.0728C45.1002 10.084 46.6695 10.0596 48.237 10.0521L48.2333 10.0878C47.8676 11.6196 47.4627 13.144 47.1477 14.6853C46.6152 17.2915 45.9401 19.879 45.9833 22.5715C45.3758 22.5846 44.7683 22.5978 44.1627 22.6128C42.942 22.6128 41.7233 22.6109 40.5027 22.609C39.8014 22.609 39.1002 22.609 38.3989 22.6109C37.1783 22.6109 35.9577 22.6109 34.737 22.6109C34.0358 22.6109 33.3345 22.6109 32.6333 22.6109C31.4127 22.6109 30.192 22.6109 28.9714 22.6109C28.2702 22.6109 27.5689 22.6109 26.8677 22.609C25.647 22.609 24.4283 22.6109 23.2077 22.6128C22.4614 22.6128 21.717 22.6128 20.9708 22.6128C19.7952 22.6128 18.6177 22.6128 17.442 22.6128H15.2052C14.2677 22.5978 13.3283 22.5865 12.3908 22.5753C12.3289 19.9746 11.817 17.4453 11.2245 14.9253C10.8364 13.2715 10.4727 11.6103 10.0977 9.95276V9.95464Z" fill="#FEC3AB"/>
<path d="M40.5031 22.6091C41.7237 22.6091 42.9424 22.6109 44.1631 22.6128C44.1631 23.1978 44.1556 23.7828 44.1593 24.3678C44.1649 25.1778 44.5662 25.6766 45.2055 25.6822C45.8224 25.6878 46.383 25.0859 46.3999 24.3697C46.413 23.7847 46.3999 23.1997 46.3999 22.6147C46.9193 22.6147 47.4368 22.6147 47.9562 22.6147C47.9562 24.8122 47.9562 27.0078 47.9562 29.2053L47.9618 29.2016C47.1143 29.2016 46.2668 29.2016 45.4193 29.1997C44.0993 29.2016 42.7793 29.2053 41.4574 29.2072C39.8187 29.1997 38.1799 29.1866 36.5412 29.1884C28.3924 29.1903 20.2437 29.1959 12.0949 29.1997C10.1562 29.1791 10.4168 29.1078 10.4093 27.4409C10.4037 26.1603 10.4056 24.8778 10.4093 23.5972C10.4093 22.6897 10.5049 22.6016 11.4143 22.5959C11.7406 22.5941 12.0668 22.5866 12.3912 22.5809C13.3287 22.5922 14.2681 22.6053 15.2056 22.6166C15.2056 23.4791 15.1981 24.3397 15.2018 25.2022C15.2056 26.0722 15.5824 26.5372 16.2706 26.5334C17.0318 26.5297 17.4256 26.0984 17.4424 25.2041C17.4574 24.3416 17.4424 23.4809 17.4424 22.6184C18.6181 22.6184 19.7956 22.6184 20.9712 22.6184C20.9712 23.1753 20.9618 23.7341 20.9674 24.2909C20.9768 25.0841 21.4849 25.6972 22.1112 25.6878C22.8124 25.6784 23.1968 25.1947 23.2099 24.2891C23.2174 23.7322 23.2099 23.1753 23.2081 22.6166C24.4287 22.6166 25.6474 22.6147 26.8681 22.6128C26.8681 23.5016 26.8624 24.3884 26.8662 25.2772C26.8681 26.1922 27.1437 26.5241 27.8937 26.5334C28.5668 26.5409 28.9681 26.0872 28.9756 25.2791C28.9831 24.3903 28.9756 23.5034 28.9737 22.6147C30.1943 22.6147 31.4149 22.6147 32.6356 22.6147C32.6356 23.2653 32.6187 23.9178 32.6356 24.5684C32.6543 25.2116 33.0837 25.6653 33.6518 25.6859C34.2424 25.7084 34.7168 25.2378 34.7374 24.5684C34.7562 23.9178 34.7393 23.2672 34.7374 22.6147C35.9581 22.6147 37.1787 22.6147 38.3993 22.6147C38.3993 23.5484 38.3806 24.4841 38.3993 25.4178C38.4143 26.1041 38.8606 26.5391 39.4774 26.5316C40.1843 26.5222 40.4956 26.1959 40.5031 25.4159C40.5124 24.4822 40.5031 23.5466 40.5031 22.6109V22.6091Z" fill="#F89945"/>
<path d="M52.0323 29.194C52.5142 32.9627 53.7648 36.4971 55.2292 39.979C56.3711 42.6921 57.5129 45.409 58.4973 48.1858C56.8042 48.7258 55.1729 49.4515 53.4386 49.8696C53.3504 49.7346 53.2323 49.6108 53.1817 49.4627C51.6311 45.0321 49.6679 40.7665 47.9973 36.3846C47.986 33.9902 47.9748 31.594 47.9617 29.1996L47.9561 29.2033C49.3136 29.1996 50.6711 29.1977 52.0304 29.194H52.0323Z" fill="#F3B098"/>
<path d="M47.9559 22.6127C47.4365 22.6127 46.919 22.6127 46.3997 22.6127C46.2609 22.5977 46.1222 22.5846 45.9834 22.5696C45.9403 19.8771 46.6172 17.2896 47.1478 14.6834C47.4628 13.1421 47.8678 11.6177 48.2334 10.0859C50.1572 10.084 52.0828 10.0821 54.0065 10.0784C53.4234 12.6921 52.8122 15.3002 52.2647 17.9215C51.9459 19.4496 51.7678 21.004 51.7397 22.5696C50.4778 22.5827 49.2178 22.5977 47.9559 22.6109V22.6127Z" fill="#F3B098"/>
<path d="M47.9561 22.6128C49.2179 22.5997 50.4798 22.5847 51.7398 22.5715C51.8336 22.5772 51.9254 22.5903 52.0192 22.5903C53.8923 22.5697 53.7292 22.5115 53.7273 24.3603C53.7273 25.6184 53.7273 26.8784 53.7273 28.1365C53.7273 29.0178 53.5923 29.1547 52.7298 29.1697C52.4973 29.1734 52.2648 29.1847 52.0323 29.1922C50.6748 29.1959 49.3173 29.1978 47.9579 29.2015C47.9579 27.004 47.9579 24.8084 47.9579 22.6109L47.9561 22.6128Z" fill="#E58937"/>
<path d="M43.938 54.0865C44.5062 54.1053 45.0049 54.0134 45.393 53.3778L45.4081 52.6447C44.9168 51.8834 44.2455 51.814 43.5255 51.8365C43.0574 51.8508 42.5893 51.8472 42.1212 51.8436C41.9106 51.8419 41.6999 51.8403 41.4893 51.8403C41.478 52.0484 41.4663 52.257 41.4546 52.4656C41.4429 52.6742 41.4312 52.8828 41.4199 53.0909C41.4405 53.4228 41.4593 53.7528 41.478 54.0847C41.7198 54.0841 41.9613 54.0819 42.2027 54.0798C42.7816 54.0746 43.3598 54.0693 43.938 54.0865Z" fill="#FFC694"/>
<path fill-rule="evenodd" clip-rule="evenodd" d="M47.964 29.2756L47.9637 29.1997L47.9618 29.1978C47.1161 29.1959 46.2703 29.1959 45.4245 29.1959L45.4193 29.1959V40.9728L45.4081 41.7397V52.6447L45.393 53.3778V55.8191C45.5827 55.8746 45.806 55.9609 46.0408 56.0517C46.9369 56.3982 48.0006 56.8095 48.0029 55.8191C48.0048 55.0336 48.0052 54.1182 48.0057 53.1953C48.006 52.6497 48.0062 52.1015 48.0068 51.5759C48.0029 51.1308 47.9983 50.6854 47.9936 50.24C47.9824 49.1695 47.9712 48.0983 47.9712 47.0272C47.9726 44.2685 47.982 41.5098 47.9914 38.7511C47.9941 37.9623 47.9968 37.1735 47.9993 36.3847C47.9863 34.016 47.9752 31.6455 47.964 29.2768L47.964 29.2756Z" fill="#F89945"/>
<path d="M43.5255 42.5478C44.2455 42.5703 44.9168 42.5009 45.4081 41.7397L45.4193 40.9728C44.9355 40.2847 44.3055 40.279 43.653 40.2997C43.1634 40.3149 42.6728 40.3104 42.1826 40.3059C41.9483 40.3037 41.714 40.3015 41.4799 40.3015C41.4818 40.6754 41.4832 41.0497 41.4846 41.4242C41.486 41.7973 41.4874 42.1707 41.4893 42.544C41.7 42.544 41.9107 42.5424 42.1213 42.5408C42.5894 42.5372 43.0575 42.5336 43.5255 42.5478Z" fill="#FFC694"/>
<path d="M45.419 29.1959V40.9728C44.9352 40.2847 44.3052 40.279 43.6527 40.2997C42.929 40.3222 42.2034 40.3034 41.4796 40.3015C41.4777 39.0884 41.474 37.8772 41.4721 36.6641C42.0758 36.6622 42.6796 36.664 43.2834 36.6547C43.9846 36.6453 44.4234 36.2572 44.4402 35.644C44.459 34.9953 44.0202 34.564 43.2871 34.5434C42.6834 34.5265 42.0796 34.5359 41.4759 34.534C41.4702 32.7584 41.4646 30.9809 41.459 29.2053C42.779 29.2034 44.099 29.1997 45.419 29.1978V29.1959Z" fill="#E58937"/>
<path d="M41.489 42.544C42.1678 42.544 42.8465 42.5271 43.5253 42.5477C44.2453 42.5702 44.9165 42.5009 45.4078 41.7396V52.6446C44.9165 51.8834 44.2453 51.814 43.5253 51.8365C42.8465 51.8571 42.1678 51.8403 41.489 51.8403C41.489 50.6646 41.4853 49.489 41.4834 48.3134C42.0909 48.3134 42.6984 48.3265 43.304 48.3059C43.9884 48.2834 44.4215 47.8559 44.4384 47.2278C44.4572 46.5659 44.0147 46.1028 43.304 46.0784C42.6984 46.0578 42.0909 46.0728 41.4834 46.0709C41.4834 44.8953 41.4872 43.7196 41.489 42.544Z" fill="#E58937"/>
<path d="M33.1921 43.1477C33.1921 43.7102 33.1996 44.2709 33.1921 44.8334C33.1808 45.5515 32.6258 46.2115 32.0558 46.2002C31.5046 46.189 30.9571 45.5515 30.9496 44.8746C30.9383 43.7046 30.9365 42.5346 30.9496 41.3646C30.959 40.5902 31.3808 40.159 32.084 40.1627C32.7815 40.1665 33.1771 40.6015 33.1902 41.3946C33.1996 41.9796 33.1921 42.5646 33.1921 43.1496V43.1477Z" fill="#F3B098"/>
<path d="M41.4834 46.0709C42.0909 46.0709 42.6984 46.0578 43.304 46.0784C44.0165 46.1028 44.4572 46.5659 44.4384 47.2278C44.4215 47.8578 43.9884 48.2834 43.304 48.3059C42.6984 48.3265 42.0909 48.3115 41.4834 48.3134C41.4834 47.5653 41.4834 46.8171 41.4834 46.0709Z" fill="#FFC694"/>
<path d="M41.4759 34.534C42.0797 34.534 42.6834 34.5246 43.2872 34.5433C44.0203 34.564 44.459 34.9952 44.4403 35.644C44.4215 36.259 43.9847 36.6452 43.2834 36.6546C42.6797 36.664 42.0759 36.6602 41.4722 36.664C41.4722 35.9533 41.4759 35.2446 41.4778 34.534H41.4759Z" fill="#FFC694"/>
<path d="M17.4443 22.6147C17.4443 23.4772 17.4612 24.3397 17.4443 25.2003C17.4275 26.0947 17.0337 26.5259 16.2725 26.5297C15.5843 26.5315 15.2075 26.0684 15.2037 25.1984C15.2 24.3359 15.2037 23.4753 15.2075 22.6128C15.9537 22.6128 16.6981 22.6147 17.4443 22.6165V22.6147Z" fill="#FFC694"/>
<path d="M28.9735 22.6109C28.9735 23.4996 28.9829 24.3865 28.9754 25.2753C28.9679 26.0834 28.5685 26.5371 27.8935 26.5296C27.1435 26.5203 26.8698 26.1884 26.866 25.2734C26.8641 24.3846 26.866 23.4978 26.8679 22.609C27.5691 22.609 28.2704 22.609 28.9716 22.6109H28.9735Z" fill="#FFC694"/>
<path d="M40.503 22.609C40.503 23.5446 40.5123 24.4784 40.503 25.414C40.4955 26.194 40.1842 26.5221 39.4773 26.5296C38.8605 26.5371 38.4142 26.1021 38.3992 25.4159C38.3786 24.4821 38.3955 23.5465 38.3992 22.6128C39.1005 22.6128 39.8017 22.6128 40.503 22.6109V22.609Z" fill="#FFC694"/>
<path d="M23.2097 22.6128C23.2097 23.1697 23.219 23.7284 23.2115 24.2853C23.1984 25.1928 22.814 25.6747 22.1128 25.684C21.4846 25.6915 20.9784 25.0803 20.969 24.2872C20.9615 23.7303 20.969 23.1734 20.9728 22.6147C21.719 22.6147 22.4634 22.6147 23.2097 22.6147V22.6128Z" fill="#FFC694"/>
<path d="M45.9836 22.5715C46.1224 22.5865 46.2611 22.5997 46.3999 22.6147C46.3999 23.1997 46.413 23.7847 46.3999 24.3697C46.383 25.084 45.8224 25.6878 45.2055 25.6822C44.5661 25.6765 44.1649 25.1778 44.1593 24.3678C44.1555 23.7828 44.1593 23.1978 44.163 22.6128C44.7705 22.5997 45.378 22.5865 45.9836 22.5715Z" fill="#FFC694"/>
<path d="M34.7371 22.6108C34.7371 23.2615 34.7558 23.914 34.7371 24.5646C34.7165 25.234 34.2421 25.7046 33.6515 25.6821C33.0834 25.6615 32.654 25.2077 32.6352 24.5646C32.6165 23.914 32.6334 23.2633 32.6352 22.6108C33.3365 22.6108 34.0377 22.6108 34.739 22.6108H34.7371Z" fill="#FFC694"/>
<path d="M53.4255 49.9896C51.7999 50.4828 50.1761 50.9778 48.5505 51.4671C48.3742 51.5196 48.1867 51.5403 48.0049 51.5759C47.9917 50.059 47.9692 48.5421 47.9692 47.0271C47.973 43.4796 47.988 39.9321 47.9973 36.3846C49.6698 40.7665 51.6311 45.0321 53.1817 49.4628C53.2342 49.6109 53.3523 49.7347 53.4386 49.8697C53.433 49.909 53.4292 49.9503 53.4236 49.9896H53.4255Z" fill="#FEC3AB"/>
</g>
<defs>
<clipPath id="clip0_1297_6133">
<rect width="54" height="48" fill="white" transform="translate(5 8.56897)"/>
</clipPath>
</defs>
</svg>
