<svg width="24" height="24" viewBox="0 0 24 24" fill="none" xmlns="http://www.w3.org/2000/svg">
<path d="M12 5.854V20.9999" stroke="#B5B5B5" stroke-width="2"/>
<path d="M20.082 3.01775L20.1168 4.01714L20.082 3.01775ZM16.5 3.48744L16.2132 2.52945L16.5 3.48744ZM13.6738 4.80275L13.1729 3.93725L13.1729 3.93725L13.6738 4.80275ZM3.9824 3.07489L3.92106 4.07301L3.9824 3.07489ZM7 3.48744L7.25515 2.52054L7 3.48744ZM10.2823 4.87546L9.8148 5.75948V5.75948L10.2823 4.87546ZM13.6276 20.0692L13.1572 19.1868H13.1572L13.6276 20.0692ZM17 18.6334L16.7449 17.6665L17 18.6334ZM19.9851 18.2228L20.0476 19.2209L19.9851 18.2228ZM10.3724 20.0692L10.8428 19.1868H10.8428L10.3724 20.0692ZM7 18.6334L7.25515 17.6665V17.6665L7 18.6334ZM4.01486 18.2228L3.95244 19.2209H3.95244L4.01486 18.2228ZM23 10.5384C23 9.9861 22.5523 9.53839 22 9.53839C21.4477 9.53839 21 9.9861 21 10.5384H23ZM21 7C21 7.55229 21.4477 8 22 8C22.5523 8 23 7.55229 23 7H21ZM20.0472 2.01835C18.9056 2.05812 17.3905 2.17702 16.2132 2.52945L16.7868 4.44544C17.7034 4.17104 19.0012 4.056 20.1168 4.01714L20.0472 2.01835ZM16.2132 2.52945C15.189 2.83606 14.0491 3.43018 13.1729 3.93725L14.1747 5.66826C15.0215 5.17819 15.9957 4.68226 16.7868 4.44544L16.2132 2.52945ZM3.92106 4.07301C4.88358 4.13216 5.95741 4.24655 6.74485 4.45435L7.25515 2.52054C6.26957 2.26047 5.03397 2.13763 4.04375 2.07677L3.92106 4.07301ZM6.74485 4.45435C7.67794 4.70057 8.84111 5.24461 9.8148 5.75948L10.7497 3.99144C9.75111 3.46341 8.42048 2.82805 7.25515 2.52054L6.74485 4.45435ZM14.098 20.9517C15.0862 20.4249 16.2922 19.8544 17.2551 19.6003L16.7449 17.6665C15.5449 17.9831 14.168 18.648 13.1572 19.1868L14.098 20.9517ZM17.2551 19.6003C18.0335 19.3949 19.0924 19.2806 20.0476 19.2209L19.9227 17.2248C18.9391 17.2863 17.7199 17.4092 16.7449 17.6665L17.2551 19.6003ZM10.8428 19.1868C9.83204 18.648 8.45512 17.9831 7.25515 17.6665L6.74485 19.6003C7.70778 19.8544 8.91383 20.4249 9.90202 20.9517L10.8428 19.1868ZM7.25515 17.6665C6.28013 17.4092 5.06092 17.2863 4.07728 17.2248L3.95244 19.2209C4.90764 19.2806 5.96645 19.3949 6.74485 19.6003L7.25515 17.6665ZM21 16.1436C21 16.6876 20.5443 17.1859 19.9227 17.2248L20.0476 19.2209C21.6436 19.121 23 17.8215 23 16.1436H21ZM23 4.93319C23 3.3396 21.7283 1.95979 20.0472 2.01835L20.1168 4.01714C20.5792 4.00103 21 4.38189 21 4.93319H23ZM1 16.1436C1 17.8215 2.35636 19.121 3.95244 19.2209L4.07728 17.2248C3.45573 17.1859 3 16.6876 3 16.1436H1ZM13.1572 19.1868C12.4384 19.5699 11.5616 19.5699 10.8428 19.1868L9.90202 20.9517C11.2088 21.6483 12.7912 21.6483 14.098 20.9517L13.1572 19.1868ZM13.1729 3.93725C12.4283 4.36823 11.5013 4.38886 10.7497 3.99144L9.8148 5.75948C11.1843 6.48362 12.8428 6.43911 14.1747 5.66826L13.1729 3.93725ZM3 4.9978C3 4.43428 3.44114 4.04351 3.92106 4.07301L4.04375 2.07677C2.33146 1.97153 1 3.36498 1 4.9978H3ZM23 16.1436V10.5384H21V16.1436H23ZM23 7V4.93319H21V7H23ZM3 16.1436V14H1V16.1436H3ZM3 14V4.9978H1V14H3Z" fill="#B5B5B5"/>
</svg>
