<svg width="24" height="24" viewBox="0 0 24 24" fill="none" xmlns="http://www.w3.org/2000/svg">
<g clip-path="url(#clip0_141_7981)">
<mask id="path-1-inside-1_141_7981" fill="white">
<path fill-rule="evenodd" clip-rule="evenodd" d="M17.3396 0.860982L17.4138 0.880877C18.6412 1.20973 19.6138 1.47034 20.3788 1.74669C21.1613 2.02937 21.7994 2.35274 22.3251 2.8451C23.0906 3.56206 23.6263 4.48992 23.8645 5.51133C24.028 6.21278 23.989 6.92709 23.8426 7.74611C23.6994 8.54683 23.4388 9.51948 23.1099 10.7469L22.5121 12.9778C22.1833 14.2051 21.9227 15.1777 21.6463 15.9427C21.3636 16.7252 21.0403 17.3633 20.5479 17.889C19.8537 18.6301 18.9619 19.1559 17.9789 19.4047C17.6917 20.0632 17.2723 20.6593 16.7432 21.1549C16.2175 21.6473 15.5793 21.9706 14.7968 22.2533C14.0318 22.5297 13.0592 22.7903 11.8319 23.1191L11.7577 23.139C10.5304 23.4679 9.55771 23.7285 8.75698 23.8717C7.93796 24.0181 7.22365 24.0571 6.5222 23.8936C5.50079 23.6554 4.57294 23.1197 3.85598 22.3542C3.36361 21.8286 3.04024 21.1904 2.75756 20.4079C2.48121 19.6429 2.22061 18.6703 1.89175 17.4429L1.29397 15.212C0.965102 13.9847 0.704486 13.0121 0.561308 12.2114C0.414852 11.3923 0.375836 10.678 0.53939 9.97658C0.77755 8.95517 1.31325 8.02731 2.07874 7.31035C2.60443 6.81799 3.24255 6.49462 4.02507 6.21194C4.79009 5.93559 5.7627 5.67498 6.99004 5.34613L7.02715 5.33618C7.3224 5.25707 7.60175 5.18235 7.86623 5.11247C8.30343 3.55049 8.68815 2.44631 9.43796 1.64575C10.1549 0.880263 11.0828 0.344567 12.1042 0.106407C12.8056 -0.0571478 13.5199 -0.0181312 14.339 0.128324C15.1397 0.271501 16.1123 0.532115 17.3396 0.860982ZM7.36024 6.9806C6.14016 7.30761 5.26592 7.54421 4.59402 7.78693C3.91366 8.0327 3.51419 8.2603 3.22348 8.53258C2.69972 9.02313 2.33319 9.65798 2.17024 10.3568C2.07979 10.7447 2.08242 11.2045 2.20976 11.9166C2.33893 12.639 2.58043 13.543 2.92145 14.8157L3.49934 16.9724C3.84036 18.2451 4.08323 19.1488 4.33255 19.839C4.57832 20.5193 4.80592 20.9188 5.0782 21.2095C5.56875 21.7333 6.2036 22.0998 6.90246 22.2627C7.29036 22.3532 7.75012 22.3506 8.46221 22.2232C9.18458 22.0941 10.0886 21.8526 11.3613 21.5115C12.634 21.1705 13.5377 20.9276 14.2279 20.6783C14.9082 20.4326 15.3077 20.205 15.5984 19.9327C15.752 19.7888 15.8921 19.6326 16.0174 19.466C15.8176 19.4379 15.6119 19.4019 15.399 19.3595C14.649 19.2104 13.7481 18.969 12.6361 18.671L12.572 18.6539C11.3447 18.325 10.3721 18.0644 9.60706 17.7881C8.82453 17.5054 8.18641 17.182 7.66072 16.6896C6.89523 15.9727 6.35953 15.0448 6.12137 14.0234C5.95782 13.322 5.99683 12.6077 6.14329 11.7886C6.28647 10.9879 6.54709 10.0153 6.87596 8.78799L7.36024 6.9806ZM14.0442 1.77677C13.3321 1.64944 12.8723 1.64681 12.4844 1.73726C11.7856 1.90021 11.1507 2.26674 10.6602 2.79049C10.1733 3.31032 9.87371 4.11339 9.35266 6.02098C9.26797 6.33101 9.17844 6.66514 9.08132 7.02759L8.50343 9.1843C8.16241 10.457 7.92091 11.361 7.79174 12.0834C7.6644 12.7955 7.66178 13.2553 7.75222 13.6432C7.91517 14.342 8.2817 14.9769 8.80546 15.4674C9.09617 15.7397 9.49565 15.9673 10.176 16.2131C10.8662 16.4624 11.7698 16.7053 13.0425 17.0463C14.1873 17.353 15.0357 17.5799 15.7256 17.7171C16.4125 17.8537 16.8786 17.8872 17.2606 17.8401C17.3437 17.8298 17.4236 17.8156 17.5014 17.7975C18.2003 17.6345 18.8351 17.268 19.3257 16.7443C19.5979 16.4535 19.8256 16.0541 20.0713 15.3737C20.3206 14.6835 20.5635 13.7799 20.9045 12.5072L21.4824 10.3504C21.8234 9.07775 22.0649 8.17371 22.1941 7.45134C22.3214 6.73925 22.3241 6.27949 22.2336 5.89159C22.0707 5.19273 21.7041 4.55788 21.1804 4.06733C20.8897 3.79505 20.4902 3.56745 19.8099 3.32167C19.1197 3.07236 18.216 2.82949 16.9433 2.48847C15.6706 2.14745 14.7666 1.90594 14.0442 1.77677ZM11.3764 9.55176C11.496 9.10509 11.9552 8.84001 12.4018 8.9597L17.7936 10.4044C18.2403 10.5241 18.5054 10.9832 18.3857 11.4299C18.266 11.8766 17.8069 12.1416 17.3602 12.022L11.9684 10.5772C11.5217 10.4575 11.2567 9.99843 11.3764 9.55176ZM10.5091 12.7867C10.6288 12.3401 11.0879 12.075 11.5346 12.1947L14.7696 13.0615C15.2163 13.1812 15.4814 13.6403 15.3617 14.087C15.242 14.5337 14.7829 14.7987 14.3362 14.6791L11.1011 13.8122C10.6545 13.6925 10.3894 13.2334 10.5091 12.7867Z"/>
</mask>
<path fill-rule="evenodd" clip-rule="evenodd" d="M17.3396 0.860982L17.4138 0.880877C18.6412 1.20973 19.6138 1.47034 20.3788 1.74669C21.1613 2.02937 21.7994 2.35274 22.3251 2.8451C23.0906 3.56206 23.6263 4.48992 23.8645 5.51133C24.028 6.21278 23.989 6.92709 23.8426 7.74611C23.6994 8.54683 23.4388 9.51948 23.1099 10.7469L22.5121 12.9778C22.1833 14.2051 21.9227 15.1777 21.6463 15.9427C21.3636 16.7252 21.0403 17.3633 20.5479 17.889C19.8537 18.6301 18.9619 19.1559 17.9789 19.4047C17.6917 20.0632 17.2723 20.6593 16.7432 21.1549C16.2175 21.6473 15.5793 21.9706 14.7968 22.2533C14.0318 22.5297 13.0592 22.7903 11.8319 23.1191L11.7577 23.139C10.5304 23.4679 9.55771 23.7285 8.75698 23.8717C7.93796 24.0181 7.22365 24.0571 6.5222 23.8936C5.50079 23.6554 4.57294 23.1197 3.85598 22.3542C3.36361 21.8286 3.04024 21.1904 2.75756 20.4079C2.48121 19.6429 2.22061 18.6703 1.89175 17.4429L1.29397 15.212C0.965102 13.9847 0.704486 13.0121 0.561308 12.2114C0.414852 11.3923 0.375836 10.678 0.53939 9.97658C0.77755 8.95517 1.31325 8.02731 2.07874 7.31035C2.60443 6.81799 3.24255 6.49462 4.02507 6.21194C4.79009 5.93559 5.7627 5.67498 6.99004 5.34613L7.02715 5.33618C7.3224 5.25707 7.60175 5.18235 7.86623 5.11247C8.30343 3.55049 8.68815 2.44631 9.43796 1.64575C10.1549 0.880263 11.0828 0.344567 12.1042 0.106407C12.8056 -0.0571478 13.5199 -0.0181312 14.339 0.128324C15.1397 0.271501 16.1123 0.532115 17.3396 0.860982ZM7.36024 6.9806C6.14016 7.30761 5.26592 7.54421 4.59402 7.78693C3.91366 8.0327 3.51419 8.2603 3.22348 8.53258C2.69972 9.02313 2.33319 9.65798 2.17024 10.3568C2.07979 10.7447 2.08242 11.2045 2.20976 11.9166C2.33893 12.639 2.58043 13.543 2.92145 14.8157L3.49934 16.9724C3.84036 18.2451 4.08323 19.1488 4.33255 19.839C4.57832 20.5193 4.80592 20.9188 5.0782 21.2095C5.56875 21.7333 6.2036 22.0998 6.90246 22.2627C7.29036 22.3532 7.75012 22.3506 8.46221 22.2232C9.18458 22.0941 10.0886 21.8526 11.3613 21.5115C12.634 21.1705 13.5377 20.9276 14.2279 20.6783C14.9082 20.4326 15.3077 20.205 15.5984 19.9327C15.752 19.7888 15.8921 19.6326 16.0174 19.466C15.8176 19.4379 15.6119 19.4019 15.399 19.3595C14.649 19.2104 13.7481 18.969 12.6361 18.671L12.572 18.6539C11.3447 18.325 10.3721 18.0644 9.60706 17.7881C8.82453 17.5054 8.18641 17.182 7.66072 16.6896C6.89523 15.9727 6.35953 15.0448 6.12137 14.0234C5.95782 13.322 5.99683 12.6077 6.14329 11.7886C6.28647 10.9879 6.54709 10.0153 6.87596 8.78799L7.36024 6.9806ZM14.0442 1.77677C13.3321 1.64944 12.8723 1.64681 12.4844 1.73726C11.7856 1.90021 11.1507 2.26674 10.6602 2.79049C10.1733 3.31032 9.87371 4.11339 9.35266 6.02098C9.26797 6.33101 9.17844 6.66514 9.08132 7.02759L8.50343 9.1843C8.16241 10.457 7.92091 11.361 7.79174 12.0834C7.6644 12.7955 7.66178 13.2553 7.75222 13.6432C7.91517 14.342 8.2817 14.9769 8.80546 15.4674C9.09617 15.7397 9.49565 15.9673 10.176 16.2131C10.8662 16.4624 11.7698 16.7053 13.0425 17.0463C14.1873 17.353 15.0357 17.5799 15.7256 17.7171C16.4125 17.8537 16.8786 17.8872 17.2606 17.8401C17.3437 17.8298 17.4236 17.8156 17.5014 17.7975C18.2003 17.6345 18.8351 17.268 19.3257 16.7443C19.5979 16.4535 19.8256 16.0541 20.0713 15.3737C20.3206 14.6835 20.5635 13.7799 20.9045 12.5072L21.4824 10.3504C21.8234 9.07775 22.0649 8.17371 22.1941 7.45134C22.3214 6.73925 22.3241 6.27949 22.2336 5.89159C22.0707 5.19273 21.7041 4.55788 21.1804 4.06733C20.8897 3.79505 20.4902 3.56745 19.8099 3.32167C19.1197 3.07236 18.216 2.82949 16.9433 2.48847C15.6706 2.14745 14.7666 1.90594 14.0442 1.77677ZM11.3764 9.55176C11.496 9.10509 11.9552 8.84001 12.4018 8.9597L17.7936 10.4044C18.2403 10.5241 18.5054 10.9832 18.3857 11.4299C18.266 11.8766 17.8069 12.1416 17.3602 12.022L11.9684 10.5772C11.5217 10.4575 11.2567 9.99843 11.3764 9.55176ZM10.5091 12.7867C10.6288 12.3401 11.0879 12.075 11.5346 12.1947L14.7696 13.0615C15.2163 13.1812 15.4814 13.6403 15.3617 14.087C15.242 14.5337 14.7829 14.7987 14.3362 14.6791L11.1011 13.8122C10.6545 13.6925 10.3894 13.2334 10.5091 12.7867Z" fill="#B5B5B5"/>
<path d="M17.3396 0.860982L16.6925 3.27579L16.6925 3.2758L17.3396 0.860982ZM17.4138 0.880877L16.7668 3.29569L16.7668 3.2957L17.4138 0.880877ZM20.3788 1.74669L19.5294 4.09798V4.09798L20.3788 1.74669ZM22.3251 2.8451L20.6162 4.66976L20.6162 4.66976L22.3251 2.8451ZM23.8645 5.51133L26.2992 4.94364V4.94364L23.8645 5.51133ZM23.8426 7.74611L26.3035 8.18618V8.18617L23.8426 7.74611ZM23.1099 10.7469L20.6951 10.0998L20.6951 10.0998L23.1099 10.7469ZM22.5121 12.9778L20.0973 12.3307L20.0973 12.3307L22.5121 12.9778ZM21.6463 15.9427L23.9976 16.792V16.792L21.6463 15.9427ZM20.5479 17.889L22.3726 19.598L22.3726 19.598L20.5479 17.889ZM17.9789 19.4047L17.3654 16.9812L16.1773 17.2819L15.6874 18.4052L17.9789 19.4047ZM16.7432 21.1549L15.0342 19.3302L16.7432 21.1549ZM14.7968 22.2533L15.6462 24.6046L15.6462 24.6046L14.7968 22.2533ZM11.8319 23.1191L11.1849 20.7043L11.1848 20.7043L11.8319 23.1191ZM11.7577 23.139L12.4048 25.5538L12.4048 25.5538L11.7577 23.139ZM8.75698 23.8717L9.19704 26.3326H9.19705L8.75698 23.8717ZM6.5222 23.8936L7.0899 21.4589L7.08989 21.4589L6.5222 23.8936ZM3.85598 22.3542L2.03132 24.0632H2.03132L3.85598 22.3542ZM2.75756 20.4079L5.10885 19.5585L5.10885 19.5585L2.75756 20.4079ZM1.89175 17.4429L4.30657 16.7959L4.30656 16.7959L1.89175 17.4429ZM1.29397 15.212L3.70879 14.565L3.70878 14.565L1.29397 15.212ZM0.561308 12.2114L3.02227 11.7713L0.561308 12.2114ZM0.53939 9.97658L-1.8953 9.40889L0.53939 9.97658ZM2.07874 7.31035L0.369756 5.48569H0.369756L2.07874 7.31035ZM4.02507 6.21194L4.87445 8.56323H4.87445L4.02507 6.21194ZM6.99004 5.34613L7.63707 7.76095L7.63712 7.76093L6.99004 5.34613ZM7.02715 5.33618L6.3801 2.92137L6.38007 2.92138L7.02715 5.33618ZM7.86623 5.11247L8.50485 7.52953L9.88808 7.16406L10.2737 5.78631L7.86623 5.11247ZM9.43796 1.64575L7.6133 -0.0632268L7.6133 -0.0632265L9.43796 1.64575ZM12.1042 0.106407L11.5365 -2.32829L12.1042 0.106407ZM14.339 0.128324L14.779 -2.33264L14.339 0.128324ZM4.59402 7.78693L3.74464 5.43564L4.59402 7.78693ZM7.36024 6.9806L9.77506 7.62765L10.8959 3.44477L6.71305 4.56583L7.36024 6.9806ZM3.22348 8.53258L4.93246 10.3572L4.93246 10.3572L3.22348 8.53258ZM2.17024 10.3568L4.60493 10.9245L2.17024 10.3568ZM2.20976 11.9166L-0.251209 12.3567L-0.251209 12.3567L2.20976 11.9166ZM2.92145 14.8157L5.33627 14.1687L2.92145 14.8157ZM3.49934 16.9724L1.08453 17.6195L1.08453 17.6195L3.49934 16.9724ZM4.33255 19.839L6.68384 18.9896L4.33255 19.839ZM5.0782 21.2095L3.25354 22.9185L3.25354 22.9185L5.0782 21.2095ZM6.90246 22.2627L7.47015 19.8281L7.47015 19.8281L6.90246 22.2627ZM8.46221 22.2232L8.90227 24.6842L8.90228 24.6842L8.46221 22.2232ZM11.3613 21.5115L12.0084 23.9263L12.0084 23.9263L11.3613 21.5115ZM14.2279 20.6783L15.0772 23.0296L15.0772 23.0296L14.2279 20.6783ZM15.5984 19.9327L13.8894 18.108L13.8894 18.108L15.5984 19.9327ZM16.0174 19.466L18.0149 20.9694L20.5645 17.5817L16.3661 16.9904L16.0174 19.466ZM15.399 19.3595L15.8866 16.9075L15.8866 16.9075L15.399 19.3595ZM12.6361 18.671L13.2832 16.2562L13.2831 16.2562L12.6361 18.671ZM12.572 18.6539L11.925 21.0687L11.925 21.0687L12.572 18.6539ZM9.60706 17.7881L10.4564 15.4368L10.4564 15.4368L9.60706 17.7881ZM7.66072 16.6896L5.95174 18.5143L5.95174 18.5143L7.66072 16.6896ZM6.12137 14.0234L8.55607 13.4557V13.4557L6.12137 14.0234ZM6.14329 11.7886L3.68233 11.3486L6.14329 11.7886ZM6.87596 8.78799L9.29077 9.43505L9.29077 9.43504L6.87596 8.78799ZM12.4844 1.73726L13.0521 4.17195H13.0521L12.4844 1.73726ZM14.0442 1.77677L13.6041 4.23774L14.0442 1.77677ZM10.6602 2.79049L8.83552 1.08151L8.83552 1.08151L10.6602 2.79049ZM9.35266 6.02098L6.941 5.36225V5.36225L9.35266 6.02098ZM9.08132 7.02759L11.4961 7.67463V7.67463L9.08132 7.02759ZM8.50343 9.1843L10.9182 9.83135V9.83135L8.50343 9.1843ZM7.79174 12.0834L5.33077 11.6433L7.79174 12.0834ZM7.75222 13.6432L5.31753 14.2108L5.31753 14.2109L7.75222 13.6432ZM8.80546 15.4674L10.5144 13.6428L10.5144 13.6428L8.80546 15.4674ZM10.176 16.2131L11.0254 13.8618L11.0254 13.8618L10.176 16.2131ZM13.0425 17.0463L13.6896 14.6315L13.6896 14.6315L13.0425 17.0463ZM15.7256 17.7171L16.2132 15.2651H16.2132L15.7256 17.7171ZM17.2606 17.8401L17.5667 20.3213L17.5667 20.3213L17.2606 17.8401ZM17.5014 17.7975L18.0691 20.2322L18.0691 20.2322L17.5014 17.7975ZM19.3257 16.7443L17.501 15.0353V15.0353L19.3257 16.7443ZM20.0713 15.3737L22.4226 16.2231L22.4226 16.2231L20.0713 15.3737ZM20.9045 12.5072L18.4897 11.8601L18.4897 11.8601L20.9045 12.5072ZM21.4824 10.3504L23.8972 10.9975L23.8972 10.9975L21.4824 10.3504ZM22.1941 7.45134L19.7332 7.01128L19.7331 7.01128L22.1941 7.45134ZM22.2336 5.89159L19.7989 6.45928V6.45928L22.2336 5.89159ZM21.1804 4.06733L22.8894 2.24267L22.8894 2.24267L21.1804 4.06733ZM19.8099 3.32167L18.9605 5.67296L18.9605 5.67296L19.8099 3.32167ZM16.9433 2.48847L16.2963 4.90328L16.9433 2.48847ZM12.4018 8.9597L13.0489 6.54488H13.0489L12.4018 8.9597ZM11.3764 9.55176L13.7912 10.1988V10.1988L11.3764 9.55176ZM17.7936 10.4044L18.4407 7.98961H18.4407L17.7936 10.4044ZM18.3857 11.4299L20.8005 12.0769V12.0769L18.3857 11.4299ZM17.3602 12.022L16.7131 14.4368H16.7131L17.3602 12.022ZM11.9684 10.5772L11.3214 12.992H11.3214L11.9684 10.5772ZM11.5346 12.1947L10.8875 14.6095L11.5346 12.1947ZM10.5091 12.7867L8.09426 12.1397L8.09426 12.1397L10.5091 12.7867ZM14.7696 13.0615L15.4167 10.6467H15.4167L14.7696 13.0615ZM15.3617 14.087L17.7765 14.734V14.734L15.3617 14.087ZM14.3362 14.6791L14.9832 12.2642L14.3362 14.6791ZM11.1011 13.8122L10.4541 16.227H10.4541L11.1011 13.8122ZM21.2282 -0.604595C20.3405 -0.925242 19.2492 -1.21554 18.0609 -1.53394L16.7668 3.2957C18.0332 3.63501 18.887 3.86592 19.5294 4.09798L21.2282 -0.604595ZM24.0341 1.02044C23.1578 0.199661 22.1636 -0.266699 21.2282 -0.604596L19.5294 4.09798C20.1591 4.32544 20.4411 4.50581 20.6162 4.66976L24.0341 1.02044ZM26.2992 4.94364C25.9487 3.44069 25.1605 2.07541 24.0341 1.02044L20.6162 4.66976C21.0208 5.04872 21.3039 5.53914 21.4298 6.07902L26.2992 4.94364ZM26.3035 8.18617C26.4786 7.20716 26.5718 6.11296 26.2992 4.94364L21.4298 6.07902C21.4842 6.31259 21.4994 6.64701 21.3816 7.30605L26.3035 8.18617ZM25.5247 11.3939C25.8431 10.2056 26.1374 9.11523 26.3035 8.18618L21.3816 7.30605C21.2614 7.97844 21.0344 8.83339 20.6951 10.0998L25.5247 11.3939ZM23.9976 16.792C24.3182 15.9044 24.6085 14.8131 24.9269 13.6248L20.0973 12.3307C19.758 13.5971 19.5271 14.4509 19.295 15.0933L23.9976 16.792ZM22.3726 19.598C23.1933 18.7216 23.6597 17.7274 23.9976 16.792L19.295 15.0933C19.0676 15.723 18.8872 16.005 18.7232 16.18L22.3726 19.598ZM18.5924 21.8283C20.0389 21.4621 21.3511 20.6885 22.3726 19.598L18.7232 16.18C18.3563 16.5717 17.8849 16.8496 17.3654 16.9812L18.5924 21.8283ZM18.4521 22.9796C19.2305 22.2506 19.8477 21.3733 20.2704 20.4042L15.6874 18.4052C15.5357 18.753 15.3141 19.0681 15.0342 19.3302L18.4521 22.9796ZM15.6462 24.6046C16.5816 24.2667 17.5758 23.8003 18.4521 22.9796L15.0342 19.3302C14.8591 19.4942 14.5771 19.6746 13.9474 19.902L15.6462 24.6046ZM12.4789 25.5339C13.6672 25.2155 14.7586 24.9252 15.6462 24.6046L13.9474 19.902C13.3051 20.1341 12.4512 20.365 11.1849 20.7043L12.4789 25.5339ZM9.19705 26.3326C10.1261 26.1665 11.2164 25.8722 12.4048 25.5538L11.1107 20.7242C9.84427 21.0635 8.98931 21.2905 8.31692 21.4107L9.19705 26.3326ZM5.95451 26.3283C7.12383 26.6009 8.21804 26.5077 9.19704 26.3326L8.31692 21.4107C7.65788 21.5286 7.32346 21.5134 7.0899 21.4589L5.95451 26.3283ZM2.03132 24.0632C3.08628 25.1896 4.45156 25.9778 5.95451 26.3283L7.08989 21.4589C6.55002 21.333 6.05959 21.0499 5.68063 20.6453L2.03132 24.0632ZM0.406276 21.2573C0.744173 22.1927 1.21053 23.1869 2.03132 24.0632L5.68064 20.6453C5.51669 20.4702 5.33631 20.1882 5.10885 19.5585L0.406276 21.2573ZM-0.523071 18.09C-0.204669 19.2783 0.0856288 20.3697 0.406276 21.2573L5.10885 19.5585C4.87679 18.9161 4.64588 18.0623 4.30657 16.7959L-0.523071 18.09ZM-1.89966 12.6514C-1.73353 13.5805 -1.43925 14.6708 -1.12084 15.8591L3.70878 14.565C3.36946 13.2986 3.1425 12.4437 3.02227 11.7713L-1.89966 12.6514ZM-1.8953 9.40889C-2.16795 10.5782 -2.07472 11.6724 -1.89966 12.6514L3.02227 11.7713C2.90442 11.1123 2.91962 10.7778 2.97408 10.5443L-1.8953 9.40889ZM0.369756 5.48569C-0.756618 6.54066 -1.54486 7.90594 -1.8953 9.40889L2.97408 10.5443C3.09996 10.0044 3.38311 9.51397 3.78772 9.13501L0.369756 5.48569ZM3.1757 3.86066C2.24031 4.19855 1.2461 4.66491 0.369756 5.48569L3.78772 9.13501C3.96277 8.97106 4.24478 8.79069 4.87445 8.56323L3.1757 3.86066ZM6.343 2.93131C5.15469 3.24971 4.06332 3.54001 3.1757 3.86066L4.87445 8.56323C5.51685 8.33117 6.37071 8.10026 7.63707 7.76095L6.343 2.93131ZM6.38007 2.92138L6.34295 2.93132L7.63712 7.76093L7.67423 7.75099L6.38007 2.92138ZM7.22762 2.69541C6.95851 2.76651 6.67543 2.84224 6.3801 2.92137L7.6742 7.751C7.96937 7.67191 8.24499 7.59818 8.50485 7.52953L7.22762 2.69541ZM7.6133 -0.0632265C6.39143 1.24135 5.88202 2.92643 5.45876 4.43863L10.2737 5.78631C10.7248 4.17455 10.9849 3.65127 11.2626 3.35473L7.6133 -0.0632265ZM11.5365 -2.32829C10.0335 -1.97785 8.66826 -1.1896 7.6133 -0.0632268L11.2626 3.35473C11.6416 2.95013 12.132 2.66698 12.6719 2.5411L11.5365 -2.32829ZM14.779 -2.33264C13.8 -2.5077 12.7058 -2.60093 11.5365 -2.32829L12.6719 2.5411C12.9054 2.48664 13.2399 2.47144 13.8989 2.58929L14.779 -2.33264ZM17.9866 -1.55383C16.7983 -1.87224 15.7081 -2.16651 14.779 -2.33264L13.8989 2.58929C14.5713 2.70952 15.4262 2.93647 16.6925 3.27579L17.9866 -1.55383ZM5.4434 10.1382C5.99319 9.93961 6.75005 9.73238 8.00744 9.39538L6.71305 4.56583C5.53027 4.88283 4.53865 5.14881 3.74464 5.43564L5.4434 10.1382ZM4.93246 10.3572C4.87213 10.4137 4.91509 10.3291 5.4434 10.1382L3.74464 5.43564C2.91224 5.73634 2.15625 6.10686 1.5145 6.70792L4.93246 10.3572ZM4.60493 10.9245C4.65561 10.7072 4.76959 10.5098 4.93246 10.3572L1.5145 6.70792C0.629856 7.53648 0.0107774 8.60875 -0.264453 9.78915L4.60493 10.9245ZM4.67072 11.4765C4.57184 10.9236 4.6237 10.844 4.60493 10.9245L-0.264453 9.78915C-0.464115 10.6455 -0.407 11.4854 -0.251209 12.3567L4.67072 11.4765ZM5.33627 14.1687C4.98394 12.8538 4.7768 12.0698 4.67072 11.4765L-0.251209 12.3567C-0.098951 13.2081 0.176919 14.2322 0.506636 15.4627L5.33627 14.1687ZM5.91415 16.3254L5.33627 14.1687L0.506636 15.4627L1.08453 17.6195L5.91415 16.3254ZM6.68384 18.9896C6.47908 18.4228 6.26648 17.6403 5.91415 16.3254L1.08453 17.6195C1.41424 18.85 1.68738 19.8748 1.98126 20.6883L6.68384 18.9896ZM6.90287 19.5005C6.95937 19.5609 6.87468 19.5179 6.68384 18.9896L1.98126 20.6883C2.28196 21.5208 2.65248 22.2767 3.25354 22.9185L6.90287 19.5005ZM7.47015 19.8281C7.25283 19.7774 7.05541 19.6634 6.90286 19.5005L3.25354 22.9185C4.0821 23.8031 5.15437 24.4222 6.33477 24.6974L7.47015 19.8281ZM8.02215 19.7623C7.4692 19.8611 7.38965 19.8093 7.47015 19.8281L6.33477 24.6974C7.19108 24.8971 8.03104 24.84 8.90227 24.6842L8.02215 19.7623ZM10.7143 19.0967C9.39939 19.449 8.61542 19.6562 8.02215 19.7623L8.90228 24.6842C9.75375 24.5319 10.7778 24.2561 12.0084 23.9263L10.7143 19.0967ZM13.3785 18.327C12.8117 18.5318 12.0292 18.7444 10.7143 19.0967L12.0084 23.9263C13.2389 23.5966 14.2637 23.3235 15.0772 23.0296L13.3785 18.327ZM13.8894 18.108C13.9498 18.0515 13.9068 18.1362 13.3785 18.327L15.0772 23.0296C15.9096 22.7289 16.6656 22.3584 17.3074 21.7573L13.8894 18.108ZM14.02 17.9627C13.981 18.0145 13.9374 18.0631 13.8894 18.108L17.3074 21.7573C17.5666 21.5145 17.8032 21.2507 18.0149 20.9694L14.02 17.9627ZM14.9115 21.8115C15.1598 21.8609 15.4128 21.9055 15.6688 21.9416L16.3661 16.9904C16.2224 16.9702 16.064 16.9428 15.8866 16.9075L14.9115 21.8115ZM11.9891 21.0859C13.0722 21.3761 14.0631 21.6429 14.9115 21.8115L15.8866 16.9075C15.235 16.778 14.424 16.5619 13.2832 16.2562L11.9891 21.0859ZM8.75768 20.1393C9.64531 20.46 10.7367 20.7503 11.925 21.0687L13.2191 16.2391C11.9527 15.8997 11.0988 15.6688 10.4564 15.4368L8.75768 20.1393ZM5.95174 18.5143C6.82808 19.3351 7.8223 19.8014 8.75768 20.1393L10.4564 15.4368C9.82676 15.2093 9.54475 15.0289 9.3697 14.865L5.95174 18.5143ZM3.68668 14.5911C4.03712 16.0941 4.82536 17.4593 5.95174 18.5143L9.3697 14.865C8.96509 14.486 8.68195 13.9956 8.55607 13.4557L3.68668 14.5911ZM3.68233 11.3486C3.50726 12.3276 3.41403 13.4218 3.68668 14.5911L8.55607 13.4557C8.5016 13.2222 8.48641 12.8877 8.60425 12.2287L3.68233 11.3486ZM4.46114 8.14093C4.14273 9.32924 3.84845 10.4195 3.68233 11.3486L8.60425 12.2287C8.72448 11.5563 8.95144 10.7014 9.29077 9.43505L4.46114 8.14093ZM13.0521 4.17195C12.9716 4.19072 13.0512 4.13886 13.6041 4.23774L14.4843 -0.684192C13.613 -0.839983 12.7731 -0.897098 11.9168 -0.697436L13.0521 4.17195ZM12.4848 4.49948C12.6374 4.3366 12.8348 4.22262 13.0521 4.17195L11.9168 -0.697436C10.7364 -0.422205 9.66408 0.196874 8.83552 1.08151L12.4848 4.49948ZM11.7643 6.67972C12.0238 5.72982 12.1977 5.17206 12.3417 4.81068C12.4746 4.47706 12.5279 4.45351 12.4848 4.49947L8.83552 1.08151C7.84544 2.13862 7.42052 3.60672 6.941 5.36225L11.7643 6.67972ZM11.4961 7.67463C11.5936 7.3108 11.6815 6.9828 11.7643 6.67972L6.941 5.36225C6.85442 5.67922 6.76325 6.01949 6.66651 6.38054L11.4961 7.67463ZM10.9182 9.83135L11.4961 7.67463L6.66651 6.38054L6.08862 8.53725L10.9182 9.83135ZM10.2527 12.5235C10.3588 11.9302 10.5659 11.1462 10.9182 9.83135L6.08862 8.53725C5.7589 9.76777 5.48303 10.7919 5.33077 11.6433L10.2527 12.5235ZM10.1869 13.0755C10.2057 13.156 10.1538 13.0764 10.2527 12.5235L5.33077 11.6433C5.17498 12.5146 5.11787 13.3545 5.31753 14.2108L10.1869 13.0755ZM10.5144 13.6428C10.3516 13.4902 10.2376 13.2928 10.1869 13.0755L5.31753 14.2109C5.59276 15.3912 6.21184 16.4635 7.09648 17.2921L10.5144 13.6428ZM11.0254 13.8618C10.4971 13.6709 10.4541 13.5863 10.5144 13.6428L7.09648 17.2921C7.73823 17.8931 8.49422 18.2637 9.32663 18.5644L11.0254 13.8618ZM13.6896 14.6315C12.3747 14.2791 11.5922 14.0665 11.0254 13.8618L9.32662 18.5644C10.1402 18.8582 11.165 19.1314 12.3955 19.4611L13.6896 14.6315ZM16.2132 15.2651C15.6222 15.1476 14.8652 14.9465 13.6896 14.6315L12.3955 19.4611C13.5095 19.7596 14.4493 20.0123 15.2381 20.1691L16.2132 15.2651ZM16.9546 15.3589C16.9575 15.3585 16.7929 15.3804 16.2132 15.2651L15.2381 20.1691C16.0321 20.327 16.7997 20.4159 17.5667 20.3213L16.9546 15.3589ZM16.9337 15.3628C16.9444 15.3603 16.952 15.3592 16.9546 15.3589L17.5667 20.3213C17.7355 20.3004 17.9027 20.271 18.0691 20.2322L16.9337 15.3628ZM17.501 15.0353C17.3485 15.1982 17.151 15.3121 16.9337 15.3628L18.0691 20.2322C19.2495 19.957 20.3218 19.3379 21.1503 18.4532L17.501 15.0353ZM17.72 14.5243C17.5292 15.0526 17.4445 15.0956 17.501 15.0353L21.1503 18.4532C21.7514 17.8115 22.1219 17.0555 22.4226 16.2231L17.72 14.5243ZM18.4897 11.8601C18.1374 13.175 17.9248 13.9575 17.72 14.5243L22.4226 16.2231C22.7165 15.4096 22.9896 14.3847 23.3193 13.1542L18.4897 11.8601ZM19.0676 9.7034L18.4897 11.8601L23.3193 13.1542L23.8972 10.9975L19.0676 9.7034ZM19.7331 7.01128C19.6271 7.60455 19.4199 8.38852 19.0676 9.7034L23.8972 10.9975C24.227 9.76697 24.5028 8.74288 24.6551 7.8914L19.7331 7.01128ZM19.7989 6.45928C19.7802 6.37878 19.832 6.45833 19.7332 7.01128L24.6551 7.89141C24.8109 7.02017 24.868 6.1802 24.6683 5.3239L19.7989 6.45928ZM19.4714 5.89199C19.6343 6.04454 19.7483 6.24195 19.7989 6.45928L24.6683 5.3239C24.3931 4.1435 23.774 3.07123 22.8894 2.24267L19.4714 5.89199ZM18.9605 5.67296C19.4888 5.86381 19.5317 5.94849 19.4714 5.89199L22.8894 2.24267C22.2476 1.64161 21.4916 1.27109 20.6592 0.970386L18.9605 5.67296ZM16.2963 4.90328C17.6111 5.2556 18.3936 5.4682 18.9605 5.67296L20.6592 0.970387C19.8457 0.676507 18.8209 0.40337 17.5904 0.0736532L16.2963 4.90328ZM13.6041 4.23774C14.1974 4.34382 14.9814 4.55096 16.2963 4.90328L17.5904 0.0736533C16.3598 -0.256064 15.3357 -0.531934 14.4843 -0.684192L13.6041 4.23774ZM13.0489 6.54488C11.2685 6.06784 9.43858 7.12437 8.96154 8.90471L13.7912 10.1988C13.5535 11.0858 12.6418 11.6122 11.7548 11.3745L13.0489 6.54488ZM18.4407 7.98961L13.0489 6.54488L11.7548 11.3745L17.1466 12.8192L18.4407 7.98961ZM20.8005 12.0769C21.2775 10.2966 20.221 8.46665 18.4407 7.98961L17.1466 12.8192C16.2596 12.5816 15.7332 11.6698 15.9709 10.7829L20.8005 12.0769ZM16.7131 14.4368C18.4935 14.9138 20.3234 13.8573 20.8005 12.0769L15.9709 10.7828C16.2085 9.89585 17.1202 9.36947 18.0072 9.60714L16.7131 14.4368ZM11.3214 12.992L16.7131 14.4368L18.0072 9.60714L12.6155 8.16242L11.3214 12.992ZM8.96154 8.90471C8.4845 10.685 9.54103 12.515 11.3214 12.992L12.6155 8.16242C13.5025 8.40009 14.0288 9.31181 13.7912 10.1988L8.96154 8.90471ZM12.1816 9.77987C10.4013 9.30283 8.5713 10.3594 8.09426 12.1397L12.9239 13.4338C12.6862 14.3208 11.7745 14.8472 10.8875 14.6095L12.1816 9.77987ZM15.4167 10.6467L12.1816 9.77987L10.8875 14.6095L14.1226 15.4763L15.4167 10.6467ZM17.7765 14.734C18.2535 12.9537 17.197 11.1237 15.4167 10.6467L14.1226 15.4763C13.2356 15.2387 12.7092 14.3269 12.9469 13.4399L17.7765 14.734ZM13.6892 17.0939C15.4695 17.5709 17.2995 16.5144 17.7765 14.734L12.9469 13.4399C13.1845 12.553 14.0963 12.0266 14.9832 12.2642L13.6892 17.0939ZM10.4541 16.227L13.6892 17.0939L14.9832 12.2642L11.7482 11.3974L10.4541 16.227ZM8.09426 12.1397C7.61722 13.92 8.67375 15.75 10.4541 16.227L11.7482 11.3974C12.6352 11.6351 13.1616 12.5468 12.9239 13.4338L8.09426 12.1397ZM18.0609 -1.53394L17.9866 -1.55383L16.6925 3.2758L16.7668 3.29569L18.0609 -1.53394ZM24.9269 13.6248L25.5247 11.3939L20.6951 10.0998L20.0973 12.3307L24.9269 13.6248ZM12.4048 25.5538L12.479 25.5339L11.1848 20.7043L11.1107 20.7242L12.4048 25.5538ZM-1.12084 15.8591L-0.523067 18.09L4.30656 16.7959L3.70879 14.565L-1.12084 15.8591ZM11.925 21.0687L11.9891 21.0859L13.2831 16.2562L13.219 16.2391L11.925 21.0687ZM4.94543 6.33356L4.46114 8.14094L9.29077 9.43504L9.77506 7.62765L4.94543 6.33356Z" fill="#B5B5B5" mask="url(#path-1-inside-1_141_7981)"/>
</g>
<defs>
<clipPath id="clip0_141_7981">
<rect width="24" height="24" fill="white"/>
</clipPath>
</defs>
</svg>
