<svg width="24" height="24" viewBox="0 0 24 24" fill="none" xmlns="http://www.w3.org/2000/svg">
<g clip-path="url(#clip0_309_4883)">
<path fill-rule="evenodd" clip-rule="evenodd" d="M22.5951 10.4585L21.9739 12.7767C21.2488 15.4828 20.8863 16.8359 20.0644 17.7134C19.4154 18.4063 18.5756 18.8912 17.651 19.1068C17.5355 19.1337 17.4182 19.1545 17.298 19.1693C16.1999 19.3047 14.86 18.9457 12.4209 18.2922C9.71484 17.5671 8.36178 17.2045 7.48424 16.3826C6.79134 15.7336 6.30645 14.8938 6.09087 13.9692C5.81785 12.7983 6.1804 11.4452 6.9055 8.73915L7.52666 6.42093C7.63092 6.03184 7.72774 5.67048 7.81945 5.33474C8.36554 3.33549 8.73251 2.23558 9.43621 1.48424C10.0852 0.791343 10.925 0.306448 11.8496 0.0908735C13.0205 -0.182149 14.3736 0.1804 17.0797 0.905496C19.7858 1.63059 21.1388 1.99314 22.0164 2.81505C22.7093 3.46402 23.1941 4.30388 23.4097 5.22843C23.6827 6.39936 23.3202 7.75241 22.5951 10.4585ZM10.8629 9.36706C10.9915 8.88694 11.485 8.60202 11.9652 8.73067L17.7607 10.2836C18.2408 10.4122 18.5258 10.9057 18.3971 11.3859C18.2685 11.866 17.775 12.1509 17.2948 12.0222L11.4993 10.4693C11.0192 10.3407 10.7342 9.84718 10.8629 9.36706ZM9.93067 12.844C10.0593 12.3639 10.5528 12.079 11.0329 12.2076L14.5103 13.1394C14.9904 13.268 15.2753 13.7615 15.1467 14.2416C15.018 14.7218 14.5245 15.0067 14.0444 14.878L10.5671 13.9463C10.0869 13.8176 9.80202 13.3241 9.93067 12.844Z" fill="#4874D7"/>
<path opacity="0.5" d="M17.2979 19.1694C17.0477 19.9355 16.6078 20.6285 16.0164 21.1824C15.1388 22.0043 13.7858 22.3668 11.0797 23.0919C8.37357 23.817 7.02053 24.1796 5.8496 23.9066C4.92505 23.691 4.08518 23.2061 3.43622 22.5132C2.61431 21.6356 2.25176 20.2826 1.52666 17.5765L0.905496 15.2583C0.1804 12.5522 -0.182149 11.1991 0.0908735 10.0282C0.306448 9.10365 0.791343 8.26379 1.48424 7.61482C2.36178 6.79291 3.71483 6.43037 6.42093 5.70527C6.93288 5.56809 7.39643 5.44389 7.81945 5.33451C7.81942 5.33464 7.81949 5.33438 7.81945 5.33451C7.72774 5.67026 7.63092 6.03198 7.52666 6.42106L6.9055 8.73929C6.1804 11.4454 5.81785 12.7984 6.09087 13.9694C6.30645 14.8939 6.79134 15.7338 7.48424 16.3827C8.36178 17.2047 9.71484 17.5672 12.4209 18.2923C14.86 18.9458 16.1998 19.3048 17.2979 19.1694Z" fill="#4874D7"/>
</g>
<defs>
<clipPath id="clip0_309_4883">
<rect width="24" height="24" rx="5" fill="white"/>
</clipPath>
</defs>
</svg>
