<svg width="57" height="56" viewBox="0 0 57 56" fill="none" xmlns="http://www.w3.org/2000/svg">
<path d="M0.768921 28C0.768921 12.536 13.3049 0 28.7689 0V0C44.2329 0 56.7689 12.536 56.7689 28V28C56.7689 43.464 44.2329 56 28.7689 56V56C13.3049 56 0.768921 43.464 0.768921 28V28Z" fill="#4874D7"/>
<path d="M28.6965 27.7274L28.6428 22.6577L28.5891 17.588C28.5891 16.711 29.3023 16 30.182 16H35.9798C36.8702 16 37.3653 17.0268 36.809 17.72L35.6407 19.176L36.809 20.632C37.3653 21.3252 36.8702 22.3521 35.9798 22.3521H30.6996M43.4092 39.9752L39.7589 33.8903C39.2285 33.006 37.8965 32.9212 37.2416 33.7299L35.7839 35.5299L32.9133 30.0019L29.9895 31.9719C29.3505 32.4025 28.4908 32.4165 27.836 32.007L24.5966 29.9813L21.5647 35.7939C21.4295 35.741 21.3118 35.6516 21.2285 35.5343L20.1191 33.972C19.4905 33.0868 18.0741 33.1475 17.5356 34.0828L14.1285 40" stroke="white" stroke-width="2"/>
</svg>
