<svg width="60" height="70" viewBox="0 0 60 70" fill="none" xmlns="http://www.w3.org/2000/svg">
<path d="M45.5 5.35999H35.14V36.57H45.5V5.35999Z" fill="#E94311"/>
<path d="M24.78 5.35999H14.42V36.57H24.78V5.35999Z" fill="#E94311"/>
<path d="M46.89 6.60001H13.03C11.21 6.60001 9.72998 5.11999 9.72998 3.29999C9.72998 1.47999 11.21 0 13.03 0H46.89C48.71 0 50.19 1.47999 50.19 3.29999C50.19 5.11999 48.71 6.60001 46.89 6.60001Z" fill="#FFC33D"/>
<path d="M45.4901 6.60001H14.42V8.35001H45.4901V6.60001Z" fill="#A53E11"/>
<path d="M35.14 5.35999H24.78V36.57H35.14V5.35999Z" fill="#FFFAFF"/>
<path d="M35.14 6.60001H24.78V8.35001H35.14V6.60001Z" fill="#FFDEA3"/>
<path d="M50.19 3.29999C50.19 5.11999 48.71 6.60001 46.89 6.60001H13.03C11.21 6.60001 9.72998 5.11999 9.72998 3.29999" fill="#EE7C1C"/>
<path d="M50.62 48.95L59.17 40.39L50.62 31.84V19.74H38.52L29.96 11.18L21.41 19.74H9.31V31.84L0.75 40.39L9.31 48.95V61.05H21.41L29.96 69.6L38.52 61.05H50.62V48.95Z" fill="#FFC33D"/>
<path d="M9.31006 19.74L29.9601 40.39L21.4101 19.74H9.31006Z" fill="#F2970E"/>
<path d="M29.9601 11.18V40.39L21.41 19.74L29.9601 11.18Z" fill="#F17C00"/>
<path d="M0.75 40.39H29.96L9.31 31.84L0.75 40.39Z" fill="#FFA82D"/>
<path d="M9.31006 19.74L29.9601 40.39L9.31006 31.84V19.74Z" fill="#D45700"/>
<path d="M50.62 19.74L29.96 40.39L50.62 31.84V19.74Z" fill="#F2970E"/>
<path d="M59.17 40.39H29.96L50.62 31.84L59.17 40.39Z" fill="#FFA82D"/>
<path d="M29.96 11.18V40.39L38.52 19.74L29.96 11.18Z" fill="#FFA82D"/>
<path d="M50.62 19.74L29.96 40.39L38.52 19.74H50.62Z" fill="#F17C00"/>
<path d="M50.62 61.05L29.96 40.39L38.52 61.05H50.62Z" fill="#F2970E"/>
<path d="M29.96 69.6V40.39L38.52 61.05L29.96 69.6Z" fill="#FFA82D"/>
<path d="M59.17 40.39H29.96L50.62 48.95L59.17 40.39Z" fill="#F2970E"/>
<path d="M50.62 61.05L29.96 40.39L50.62 48.95V61.05Z" fill="#F17C00"/>
<path d="M9.31006 61.05L29.9601 40.39L9.31006 48.95V61.05Z" fill="#F2970E"/>
<path d="M0.75 40.39H29.96L9.31 48.95L0.75 40.39Z" fill="#F17C00"/>
<path d="M29.9601 69.6V40.39L21.41 61.05L29.9601 69.6Z" fill="#F2970E"/>
<path d="M9.31006 61.05L29.9601 40.39L21.4101 61.05H9.31006Z" fill="#D45700"/>
<path d="M29.96 59.99C40.78 59.99 49.5599 51.22 49.5599 40.39H29.96V59.99Z" fill="#FFA82D"/>
<path d="M29.96 20.79C19.14 20.79 10.36 29.56 10.36 40.39H29.96V20.79Z" fill="#D45700"/>
<path d="M29.96 20.79V40.39H49.5599C49.5599 29.57 40.79 20.79 29.96 20.79Z" fill="#F17C00"/>
<path d="M10.36 40.39C10.36 51.21 19.13 59.99 29.96 59.99V40.39H10.36Z" fill="#F17C00"/>
<path d="M47.7172 43.2946C49.3177 33.4888 42.6659 24.2421 32.86 22.6416C23.0542 21.0411 13.8075 27.6929 12.207 37.4987C10.6065 47.3046 17.2583 56.5512 27.0641 58.1517C36.87 59.7522 46.1167 53.1005 47.7172 43.2946Z" fill="#F2970E"/>
<path d="M29.96 52.89C36.8635 52.89 42.46 47.2935 42.46 40.39C42.46 33.4864 36.8635 27.89 29.96 27.89C23.0564 27.89 17.46 33.4864 17.46 40.39C17.46 47.2935 23.0564 52.89 29.96 52.89Z" fill="#F17C00"/>
<path d="M29.96 27.89C26.16 27.89 22.76 29.59 20.47 32.26C22.66 30.39 25.49 29.25 28.6 29.25C35.5 29.25 41.1 34.85 41.1 41.75C41.1 44.85 39.97 47.69 38.09 49.88C40.77 47.59 42.46 44.19 42.46 40.39C42.46 33.49 36.86 27.89 29.96 27.89Z" fill="#D45700"/>
<path d="M46.37 2.51999H39.42C38.92 2.51999 38.51 2.10999 38.51 1.60999C38.51 1.10999 38.92 0.700012 39.42 0.700012H46.37C46.87 0.700012 47.28 1.10999 47.28 1.60999C47.28 2.10999 46.87 2.51999 46.37 2.51999Z" fill="#F5F8FF"/>
<path d="M36.96 1.60001C36.96 2.10001 36.55 2.51001 36.05 2.51001C35.55 2.51001 35.14 2.10001 35.14 1.60001C35.14 1.10001 35.55 0.690002 36.05 0.690002C36.55 0.690002 36.96 1.10001 36.96 1.60001Z" fill="#F5F8FF"/>
</svg>
