<svg width="207" height="200" viewBox="0 0 207 200" fill="none" xmlns="http://www.w3.org/2000/svg">
<path d="M199.426 17.3773C187.729 5.69726 150.486 26.9348 134.072 37.2334C125.947 35.8895 115.483 35.3369 103.483 35.3872C91.4843 35.3369 81.0071 35.8895 72.8945 37.2334C56.4806 26.9348 19.2381 5.70982 7.54086 17.3773C-4.06835 28.9694 9.18854 60.7818 15.9931 74.9611C7.94335 88.5376 5.00014 103.395 5.00014 116.205C5.00014 127.27 6.3208 138.335 8.9747 149.387C14.1567 170.963 31.2498 187.529 53.0217 191.937C69.8381 195.328 86.6545 197.036 103.471 197.036C120.287 197.036 137.104 195.341 153.92 191.937C175.692 187.529 192.785 170.963 197.967 149.387C200.621 138.335 201.942 127.27 201.942 116.205C201.942 103.408 198.998 88.5501 190.961 74.9737C197.753 60.8069 211.023 28.9694 199.401 17.3773H199.426Z" fill="#ADBED9"/>
<path d="M158.067 141.386C157.871 141.418 157.658 141.438 157.456 141.428C155.594 141.388 154.119 139.849 154.145 137.992C154.185 135.874 153.395 133.864 151.923 132.339C150.45 130.813 148.481 129.943 146.346 129.905C141.96 129.819 138.333 133.313 138.245 137.679C138.205 139.538 136.663 141.01 134.803 140.984C132.942 140.944 131.467 139.405 131.493 137.548C131.648 129.467 138.369 123.01 146.464 123.179C150.389 123.255 154.045 124.854 156.767 127.683C159.489 130.512 160.947 134.222 160.871 138.141C160.838 139.783 159.624 141.145 158.055 141.402L158.067 141.386Z" fill="#446993"/>
<path d="M72.5793 139.706C72.3832 139.738 72.1708 139.759 71.9679 139.749C70.1061 139.709 68.631 138.169 68.6571 136.313C68.7437 131.933 65.2583 128.31 60.8721 128.223C56.4999 128.135 52.8599 131.631 52.771 135.997C52.7309 137.856 51.2056 139.341 49.3298 139.303C47.468 139.263 45.9929 137.723 46.019 135.867C46.174 127.785 52.8949 121.329 60.9908 121.498C69.0843 121.652 75.5501 128.363 75.381 136.447C75.3486 138.09 74.1339 139.452 72.5653 139.708L72.5793 139.706Z" fill="#446993"/>
<path d="M185.729 45.5601C185.729 45.5601 187.628 49.8554 187.93 54.6655C188.219 59.1115 185.54 62.5025 182.031 63.9217C174.66 55.5447 165.554 48.6999 155.266 43.94C155.366 41.5287 156.372 39.155 158.347 37.3716C166.246 30.2003 177.163 22.4764 184.886 25.6162C198.344 31.1045 185.729 45.5476 185.729 45.5476V45.5601Z" fill="white"/>
<path d="M21.2383 45.5601C21.2383 45.5601 19.3391 49.8554 19.0372 54.6655C18.7479 59.1115 21.427 62.5025 24.9361 63.9217C32.3067 55.5447 41.4129 48.6999 51.7015 43.94C51.6008 41.5287 50.5946 39.155 48.6199 37.3716C40.7211 30.2003 29.8037 22.4764 22.081 25.6162C8.62289 31.1045 21.2383 45.5476 21.2383 45.5476V45.5601Z" fill="white"/>
<path d="M201.539 15.2547C195.464 9.18862 184.295 9.51513 167.416 16.2845C155.077 21.2328 142.298 28.5925 133.444 34.1186C125.658 32.938 115.646 32.3603 103.509 32.398C91.3463 32.3477 81.3219 32.9255 73.5363 34.1186C64.669 28.5925 51.8775 21.2203 39.5513 16.2845C22.6721 9.51513 11.5031 9.18862 5.42807 15.2547C-6.81002 27.4748 4.32123 57.1898 12.6225 74.7977C3.66719 90.6097 2.03211 106.623 2.03211 116.193C2.03211 127.458 3.40306 138.862 6.09468 150.065C8.77373 161.217 14.5217 171.303 22.7224 179.227C30.9356 187.177 41.2116 192.578 52.4561 194.851C69.3982 198.267 86.5667 200 103.509 200C120.451 200 137.62 198.267 154.562 194.851C165.794 192.578 176.082 187.177 184.295 179.227C192.496 171.303 198.244 161.217 200.923 150.065C203.615 138.85 204.986 127.458 204.986 116.193C204.986 106.635 203.351 90.6097 194.395 74.7977C202.684 57.1772 213.803 27.4622 201.577 15.2547H201.539ZM195.087 148.683C192.672 158.731 187.49 167.811 180.107 174.957C172.711 182.103 163.467 186.964 153.342 189.011C136.802 192.352 120.023 194.047 103.484 194.047C86.9441 194.047 70.1654 192.352 53.6258 189.011C43.5133 186.964 34.2561 182.103 26.8605 174.957C19.4774 167.824 14.2953 158.731 11.8804 148.683C9.302 137.92 7.98133 126.994 7.98133 116.205C7.98133 104.236 10.7233 81.3788 29.0867 62.854C30.2438 61.686 30.2439 59.7895 29.0615 58.6341C27.8918 57.4786 25.9926 57.4787 24.8355 58.6592C21.5904 61.9372 18.7981 65.3281 16.3958 68.7819C5.45322 44.4548 2.89995 26.2189 9.62901 19.4871C16.1317 12.994 37.0735 19.2862 64.9834 35.9271C59.8769 37.384 54.9842 39.1673 50.4436 41.2019C48.9343 41.8801 48.2677 43.6384 48.9469 45.1455C49.6261 46.6526 51.3995 47.3183 52.8963 46.6401C57.2356 44.6934 61.927 42.9979 66.8323 41.6038C74.6431 39.3934 86.9567 38.3133 103.484 38.3761C119.973 38.2882 132.299 39.3809 140.11 41.6038C145.015 42.9979 149.707 44.6934 154.046 46.6401C154.448 46.8159 154.864 46.9038 155.266 46.9038C156.411 46.9038 157.492 46.2507 157.995 45.1455C158.675 43.6384 157.995 41.8801 156.499 41.2019C151.958 39.1548 147.065 37.384 141.946 35.9271C169.856 19.2862 190.785 12.994 197.301 19.4997C204.03 26.2188 201.476 44.4548 190.546 68.7945C188.144 65.3407 185.352 61.9497 182.107 58.6718C180.95 57.5038 179.05 57.4912 177.881 58.6467C176.711 59.8021 176.698 61.6985 177.856 62.8665C196.219 81.3913 198.961 104.236 198.961 116.218C198.961 127.019 197.653 137.945 195.062 148.709L195.087 148.683Z" fill="#446993"/>
<path d="M173.176 157.763H155.719C153.92 157.763 152.461 156.307 152.461 154.511C152.461 152.715 153.92 151.258 155.719 151.258H173.176C174.975 151.258 176.434 152.715 176.434 154.511C176.434 156.307 174.975 157.763 173.176 157.763Z" fill="#446993"/>
<path d="M170.007 174.141C169.629 174.141 169.252 174.078 168.875 173.94L154.599 168.652C152.914 168.024 152.046 166.153 152.675 164.47C153.304 162.787 155.178 161.92 156.863 162.548L171.139 167.836C172.824 168.464 173.692 170.335 173.063 172.018C172.573 173.337 171.327 174.141 170.007 174.141Z" fill="#446993"/>
<path d="M51.2487 157.763H33.7908C31.9922 157.763 30.5332 156.307 30.5332 154.511C30.5332 152.715 31.9922 151.258 33.7908 151.258H51.2487C53.0473 151.258 54.5063 152.715 54.5063 154.511C54.5063 156.307 53.0473 157.763 51.2487 157.763Z" fill="#446993"/>
<path d="M36.9733 174.141C35.6526 174.141 34.4074 173.324 33.9169 172.018C33.288 170.335 34.1559 168.464 35.8413 167.836L50.1169 162.548C51.8023 161.92 53.6764 162.787 54.3053 164.47C54.9342 166.153 54.0663 168.024 52.3809 168.652L38.1052 173.94C37.7279 174.078 37.3506 174.141 36.9733 174.141Z" fill="#446993"/>
<path d="M138.198 116.871H129.041C127.394 116.871 126.048 115.539 126.048 113.882C126.048 112.224 127.381 110.893 129.041 110.893H138.198C139.846 110.893 141.191 112.224 141.191 113.882C141.191 115.539 139.858 116.871 138.198 116.871Z" fill="white"/>
<path d="M77.9254 116.871H68.7689C67.1212 116.871 65.7754 115.539 65.7754 113.882C65.7754 112.224 67.1086 110.893 68.7689 110.893H77.9254C79.5731 110.893 80.9189 112.224 80.9189 113.882C80.9189 115.539 79.5857 116.871 77.9254 116.871Z" fill="white"/>
<path d="M122.753 137.92C121.155 137.518 119.533 138.485 119.13 140.093C118.413 142.944 115.86 144.928 112.904 144.928C109.357 144.928 106.477 142.052 106.477 138.523C106.477 138.347 106.465 138.171 106.427 138.008H108.389C110.037 138.008 111.382 136.677 111.382 135.019C111.382 133.361 110.049 132.03 108.389 132.03H98.5783C96.9307 132.03 95.5849 133.361 95.5849 135.019C95.5849 136.677 96.9181 138.008 98.5783 138.008H100.54C100.515 138.171 100.49 138.347 100.49 138.523C100.49 142.052 97.6099 144.928 94.0755 144.928C91.1198 144.928 88.5665 142.944 87.8496 140.093C87.4471 138.498 85.8246 137.518 84.2272 137.92C82.6299 138.322 81.6488 139.942 82.0513 141.537C83.4348 147.038 88.3778 150.894 94.0755 150.894C97.8363 150.894 101.207 149.211 103.484 146.561C105.76 149.211 109.131 150.894 112.892 150.894C118.589 150.894 123.532 147.051 124.916 141.537C125.318 139.942 124.35 138.322 122.74 137.92H122.753Z" fill="#446993"/>
<path d="M130.966 22.5892C119.948 6.45061 95.5849 -4.14935 72.6684 8.79917C54.6068 18.9972 44.7962 35.8014 46.8464 50.3701C44.6327 58.5335 45.5634 66.7472 50.2549 73.6045C61.273 89.7431 88.7929 92.3428 111.709 79.4069C129.595 69.3093 137.481 57.5916 134.827 45.271C137.506 37.9993 136.274 30.3633 130.966 22.6017V22.5892Z" fill="white"/>
<path d="M133.432 20.9062C127.331 11.9767 117.747 5.05653 107.119 1.91674C98.629 -0.595098 85.4979 -1.88866 71.1971 6.18689C57.2107 14.0866 47.4756 25.9425 44.4947 38.7403C43.5765 42.6838 43.3501 46.5395 43.7903 50.2194C41.5012 59.262 42.8973 68.1413 47.7775 75.2749C53.6135 83.8277 63.726 89.1905 76.2282 90.3711C77.9513 90.5343 79.6871 90.6097 81.4354 90.6097C92.1012 90.6097 103.195 87.6206 113.169 81.9815C126.199 74.6218 140.928 62.3641 137.897 45.5097C138.148 44.7561 138.362 44.0026 138.538 43.2365C140.249 35.8893 138.538 28.3789 133.419 20.8937L133.432 20.9062ZM50.3181 40.1092C52.884 29.1074 61.789 18.3693 74.1403 11.3989C80.8442 7.61863 87.6739 5.97337 94.2017 5.97337C108.477 5.97337 121.357 13.8229 128.488 24.2847C132.614 30.3382 134.048 36.2661 132.727 41.9177C130.841 49.9807 123.571 57.6293 111.106 64.675C89.548 76.8448 63.7386 74.6595 53.6009 59.7895C49.7647 54.1629 48.6327 47.3684 50.3181 40.1218V40.1092ZM110.238 76.8071C88.6675 88.977 62.8707 86.7917 52.7205 71.9216C51.0351 69.46 49.8905 66.7849 49.249 63.9465C55.1605 72.0221 65.0089 77.096 77.1086 78.2389C78.8318 78.4022 80.5675 78.4775 82.3158 78.4775C92.9817 78.4775 104.075 75.4884 114.049 69.8494C121.118 65.8556 126.715 61.598 130.815 57.1018C127.331 65.5039 118.389 72.1979 110.226 76.7946L110.238 76.8071Z" fill="#E3E3E3"/>
<path d="M94.881 27.2107C94.7678 27.2107 94.6671 27.2107 94.5539 27.1981C92.9188 27.0223 91.7239 25.5403 91.9 23.8951C92.1516 21.5716 93.7364 17.1257 98.0757 15.2669C99.5976 14.6138 101.346 15.3172 102 16.8368C102.654 18.3565 101.95 20.1022 100.428 20.7553C98.2266 21.6972 97.8367 24.5356 97.8367 24.5733C97.6732 26.1055 96.3777 27.2233 94.8684 27.2233L94.881 27.2107Z" fill="#E3E3E3"/>
</svg>
