<svg width="22" height="24" viewBox="0 0 22 24" fill="none" xmlns="http://www.w3.org/2000/svg">
<path d="M16.2662 1.83789H12.7734V12.5385H16.2662V1.83789Z" fill="#E94311"/>
<path d="M9.28065 1.83789H5.78784V12.5385H9.28065V1.83789Z" fill="#E94311"/>
<path d="M16.735 2.26286H5.31936C4.70576 2.26286 4.20679 1.75542 4.20679 1.13142C4.20679 0.507424 4.70576 0 5.31936 0H16.735C17.3486 0 17.8476 0.507424 17.8476 1.13142C17.8476 1.75542 17.3486 2.26286 16.735 2.26286Z" fill="#FFC33D"/>
<path d="M16.2629 2.2627H5.78784V2.8627H16.2629V2.2627Z" fill="#A53E11"/>
<path d="M12.7736 1.83789H9.28076V12.5385H12.7736V1.83789Z" fill="#FFFAFF"/>
<path d="M12.7736 2.2627H9.28076V2.8627H12.7736V2.2627Z" fill="#FFDEA3"/>
<path d="M17.8476 1.13135C17.8476 1.75535 17.3486 2.26278 16.735 2.26278H5.31936C4.70576 2.26278 4.20679 1.75535 4.20679 1.13135" fill="#EE7C1C"/>
<path d="M17.9891 16.7827L20.8751 13.8479L17.9891 10.9164V6.76786H13.9097L11.0271 3.83301L8.1412 6.76786H4.06177V10.9164L1.1792 13.8479L4.06177 16.7827V20.9313H8.1412L11.0271 23.8627L13.9097 20.9313H17.9891V16.7827Z" fill="#FFC33D"/>
<path d="M4.06177 6.76807L11.0271 13.8481L8.1412 6.76807H4.06177Z" fill="#75D4FC"/>
<path d="M11.0271 3.83301V13.8479L8.14111 6.76786L11.0271 3.83301Z" fill="#51B0D4"/>
<path d="M1.1792 13.8479H11.0271L4.06177 10.9165L1.1792 13.8479Z" fill="#9BE7FE"/>
<path d="M4.06177 6.76807L11.0271 13.8481L4.06177 10.9166V6.76807Z" fill="#3283A9"/>
<path d="M17.9891 6.76807L11.0271 13.8481L17.9891 10.9166V6.76807Z" fill="#75D4FC"/>
<path d="M20.875 13.8479H11.0271L17.9891 10.9165L20.875 13.8479Z" fill="#9BE7FE"/>
<path d="M11.0271 3.83301V13.8479L13.9097 6.76786L11.0271 3.83301Z" fill="#9BE7FE"/>
<path d="M17.9891 6.76807L11.0271 13.8481L13.9097 6.76807H17.9891Z" fill="#51B0D4"/>
<path d="M17.9891 20.9311L11.0271 13.8477L13.9097 20.9311H17.9891Z" fill="#75D4FC"/>
<path d="M11.0271 23.8625V13.8477L13.9097 20.9311L11.0271 23.8625Z" fill="#9BE7FE"/>
<path d="M20.875 13.8477H11.0271L17.9891 16.7825L20.875 13.8477Z" fill="#75D4FC"/>
<path d="M17.9891 20.9311L11.0271 13.8477L17.9891 16.7825V20.9311Z" fill="#51B0D4"/>
<path d="M4.06177 20.9311L11.0271 13.8477L4.06177 16.7825V20.9311Z" fill="#75D4FC"/>
<path d="M1.1792 13.8477H11.0271L4.06177 16.7825L1.1792 13.8477Z" fill="#51B0D4"/>
<path d="M11.0271 23.8625V13.8477L8.14111 20.9311L11.0271 23.8625Z" fill="#75D4FC"/>
<path d="M4.06177 20.9311L11.0271 13.8477L8.1412 20.9311H4.06177Z" fill="#3283A9"/>
<path d="M11.0271 20.5681C14.675 20.5681 17.6351 17.5613 17.6351 13.8481H11.0271V20.5681Z" fill="#9BE7FE"/>
<path d="M11.0272 7.12793C7.37931 7.12793 4.41919 10.1348 4.41919 13.8479H11.0272V7.12793Z" fill="#3283A9"/>
<path d="M11.0271 7.12793V13.8479H17.6351C17.6351 10.1382 14.6784 7.12793 11.0271 7.12793Z" fill="#51B0D4"/>
<path d="M4.41919 13.8481C4.41919 17.5579 7.37593 20.5681 11.0272 20.5681V13.8481H4.41919Z" fill="#51B0D4"/>
<path d="M17.0132 14.8421C17.5528 11.4801 15.3102 8.30982 12.0042 7.76108C8.69827 7.21234 5.58083 9.49293 5.04123 12.8549C4.50164 16.2169 6.74422 19.3872 10.0502 19.936C13.3562 20.4847 16.4736 18.2041 17.0132 14.8421Z" fill="#84D9FE"/>
<path d="M11.027 18.1334C13.3545 18.1334 15.2413 16.2147 15.2413 13.8477C15.2413 11.4808 13.3545 9.56201 11.027 9.56201C8.69954 9.56201 6.81274 11.4808 6.81274 13.8477C6.81274 16.2147 8.69954 18.1334 11.027 18.1334Z" fill="#51B0D4"/>
<path d="M11.0271 9.56201C9.74598 9.56201 8.59969 10.1449 7.82764 11.0603C8.56598 10.4192 9.52009 10.0283 10.5686 10.0283C12.8949 10.0283 14.7829 11.9483 14.7829 14.314C14.7829 15.3769 14.4019 16.3506 13.7681 17.1014C14.6716 16.3163 15.2414 15.1506 15.2414 13.8477C15.2414 11.482 13.3534 9.56201 11.0271 9.56201Z" fill="#3283A9"/>
<path d="M16.5596 0.864226H14.2165C14.0479 0.864226 13.9097 0.723654 13.9097 0.552225C13.9097 0.380797 14.0479 0.240234 14.2165 0.240234H16.5596C16.7282 0.240234 16.8664 0.380797 16.8664 0.552225C16.8664 0.723654 16.7282 0.864226 16.5596 0.864226Z" fill="#F5F8FF"/>
<path d="M13.0802 0.860331C13.2497 0.860331 13.387 0.720642 13.387 0.548329C13.387 0.376017 13.2497 0.236328 13.0802 0.236328C12.9108 0.236328 12.7734 0.376017 12.7734 0.548329C12.7734 0.720642 12.9108 0.860331 13.0802 0.860331Z" fill="#F5F8FF"/>
</svg>
