<svg width="226" height="200" viewBox="0 0 226 200" fill="none" xmlns="http://www.w3.org/2000/svg">
<path fill-rule="evenodd" clip-rule="evenodd" d="M143.173 38.7416C159.378 28.6717 196.116 7.69269 207.571 19.1612C219.025 30.6297 205.894 62.0983 199.329 76.0843C207.152 89.5108 210.085 104.196 210.085 116.784C210.085 127.693 208.828 138.602 206.174 149.511C201.005 170.909 184.242 187.273 162.73 191.609C162.102 191.749 161.473 191.853 160.844 191.958C160.216 192.063 159.587 192.168 158.958 192.308L157.88 193.007L127.148 196.503H85.2413L54.5094 190.21L44.4124 183.916C32.2593 176.224 23.3191 164.056 19.8269 149.511C17.1727 138.602 15.9155 127.693 15.9155 116.784C15.9155 104.196 18.849 89.5108 26.8114 76.0843C20.1062 62.0983 6.97535 30.6297 18.43 19.1612C29.8846 7.55283 66.6231 28.5318 82.8272 38.7416C90.7896 37.4829 101.127 36.9234 113 36.9234C124.874 36.9234 135.211 37.343 143.173 38.7416Z" fill="#ADBED9"/>
<path d="M178.516 160.979C178.097 160.979 177.678 160.839 177.259 160.699L163.15 155.524C161.334 154.825 160.356 152.727 161.055 150.909C161.753 149.09 163.848 148.111 165.664 148.811L179.773 153.986C181.589 154.685 182.567 156.783 181.869 158.601C181.449 160.139 180.053 160.979 178.516 160.979Z" fill="#446993"/>
<path d="M47.4863 160.979C45.9497 160.979 44.6925 160.139 44.1337 158.601C43.4353 156.783 44.4131 154.685 46.2291 153.986L60.3378 148.811C62.1538 148.111 64.2492 149.09 64.9476 150.909C65.6461 152.727 64.6682 154.825 62.8523 155.524L48.7435 160.839C48.3245 160.979 47.9054 160.979 47.4863 160.979Z" fill="#446993"/>
<path d="M193.881 129.51C195.697 141.958 174.325 148.252 147.364 150.769C136.469 151.888 124.595 152.308 112.861 152.308C111.324 152.308 109.788 152.308 108.111 152.308C104.2 152.308 100.149 152.168 96.2377 152.028C89.8119 151.748 83.5259 151.329 77.3795 150.769C50.8383 148.112 30.0245 141.958 31.8404 129.65L29.8848 84.7551L121.801 59.4404L155.746 69.9299L188.154 79.9999L198.351 83.2166L193.881 129.51Z" fill="#98F4F7"/>
<path d="M190.388 76.3636L188.293 80.1398L147.503 150.769C136.607 151.888 124.733 152.308 112.999 152.308C111.463 152.308 109.926 152.308 108.25 152.308L155.745 69.93L161.612 59.7202L190.388 76.3636Z" fill="#DDFCFC"/>
<path d="M141.218 74.2654L96.5174 151.888C90.0916 151.608 83.8056 151.188 77.6592 150.629L126.551 65.7339L141.218 74.2654Z" fill="#DDFCFC"/>
<path d="M23.7384 77.4825C15.4967 60.2797 3.48332 29.3706 16.0555 16.7832C28.2085 4.61537 60.0579 20.5594 84.5038 35.944L81.0115 41.5384C50.6987 22.3776 27.5101 14.6853 20.8049 21.5384C13.8204 28.5314 17.173 48.3916 29.7451 74.6853L23.7384 77.4825Z" fill="#446993"/>
<path d="M202.262 77.4827L196.256 74.6855C208.828 48.3918 212.18 28.5317 205.196 21.5387C198.491 14.8254 175.302 22.5177 144.85 41.6785L141.357 36.0841C150.158 30.6296 163.149 22.9373 175.861 17.9023C192.624 11.189 203.799 10.9093 209.945 16.9233C222.378 29.3709 210.504 60.1401 202.262 77.4827Z" fill="#446993"/>
<path d="M194.021 46.9927C194.021 46.9927 195.837 51.1885 196.256 55.9437C196.535 60.2794 193.881 63.636 190.389 65.0346C183.125 56.7829 174.185 49.9297 163.987 45.3144C164.127 42.9367 165.105 40.5591 167.06 38.8808C174.883 31.7479 185.639 24.1955 193.183 27.2724C206.453 32.7269 194.021 46.9927 194.021 46.9927Z" fill="white"/>
<path d="M31.9806 46.9927C31.9806 46.9927 30.1647 51.1885 29.7456 55.9437C29.4662 60.2794 32.1203 63.636 35.6126 65.0346C42.8765 56.7829 51.8167 49.9297 62.0141 45.3144C61.8744 42.9367 60.8965 40.5591 58.9409 38.8808C51.1182 31.7479 40.3621 24.1955 32.8188 27.2724C19.5482 32.7269 31.9806 46.9927 31.9806 46.9927Z" fill="white"/>
<path d="M113 200C96.2371 200 79.3345 198.322 62.5717 194.965C40.0815 190.35 21.9218 172.867 16.6135 150.489C13.9594 139.44 12.5625 128.112 12.5625 116.923C12.5625 104.196 15.496 79.7202 35.1924 59.8601C36.4496 58.6013 38.5449 58.6013 39.9418 59.8601C41.199 61.1188 41.199 63.2167 39.9418 64.6153C21.9218 82.7971 19.2676 105.315 19.2676 117.063C19.2676 127.692 20.5249 138.461 23.0393 149.091C27.7888 169.091 43.8532 184.615 63.8289 188.671C80.1727 192.028 96.6561 193.706 112.86 193.706C129.204 193.706 145.687 192.028 161.892 188.671C181.867 184.615 197.932 169.091 202.681 149.091C205.196 138.461 206.453 127.692 206.453 117.063C206.453 105.315 203.799 82.7971 185.779 64.6153C184.521 63.3566 184.521 61.2587 185.779 59.8601C187.036 58.6013 189.131 58.6013 190.528 59.8601C210.224 79.7202 213.158 104.196 213.158 116.923C213.158 128.112 211.761 139.44 209.107 150.489C203.659 173.007 185.639 190.489 163.149 194.965C146.665 198.322 129.763 200 113 200Z" fill="#446993"/>
<path d="M147.224 104.336H138.145C136.329 104.336 134.792 102.797 134.792 100.979C134.792 99.161 136.329 97.6226 138.145 97.6226H147.224C149.04 97.6226 150.577 99.161 150.577 100.979C150.577 102.937 149.04 104.336 147.224 104.336Z" fill="#65E1E9"/>
<path d="M87.8563 104.336H78.7764C76.9604 104.336 75.4238 102.797 75.4238 100.979C75.4238 99.161 76.9604 97.6226 78.7764 97.6226H87.8563C89.6723 97.6226 91.2088 99.161 91.2088 100.979C91.0692 102.937 89.6723 104.336 87.8563 104.336Z" fill="#65E1E9"/>
<path d="M122.22 131.328C119.008 131.328 116.353 128.811 116.214 125.594H117.75C119.566 125.594 121.103 124.056 121.103 122.238C121.103 120.419 119.566 118.881 117.75 118.881H108.112C106.296 118.881 104.759 120.419 104.759 122.238C104.759 124.056 106.296 125.594 108.112 125.594H109.648C109.509 128.811 106.855 131.328 103.642 131.328C101.826 131.328 100.289 132.867 100.289 134.685C100.289 136.503 101.826 138.042 103.642 138.042C107.274 138.042 110.626 136.503 112.861 133.986C115.096 136.503 118.449 138.042 122.081 138.042C123.897 138.042 125.433 136.503 125.433 134.685C125.573 132.867 124.176 131.328 122.22 131.328Z" fill="#00D4D7"/>
<path d="M113.001 155.525C94.2821 155.525 77.5192 154.406 64.3884 152.308C47.6255 149.651 37.1487 145.455 31.9802 139.581C29.3261 136.504 28.2085 132.867 28.7673 128.951C29.0467 127.133 30.723 125.874 32.5389 126.154C34.3549 126.434 35.6121 128.112 35.3328 129.93C35.0534 131.888 35.6121 133.567 37.009 135.245C44.4126 143.777 72.7698 148.811 113.001 148.811C153.231 148.811 181.589 143.777 188.992 135.245C190.389 133.567 190.948 131.888 190.668 129.93C190.389 128.112 191.646 126.434 193.462 126.154C195.278 125.874 196.955 127.133 197.234 128.951C197.793 132.728 196.675 136.504 194.021 139.581C188.992 145.455 178.376 149.651 161.613 152.308C148.482 154.406 131.719 155.525 113.001 155.525Z" fill="#65E1E9"/>
<path d="M87.8563 125.734C87.7167 125.734 87.7167 125.734 87.577 125.734L64.8074 123.637C62.9915 123.497 61.5946 121.818 61.7342 120C61.8739 118.182 63.5502 116.783 65.3662 116.923L87.996 118.881C89.812 119.021 91.2089 120.699 91.0692 122.518C90.9295 124.336 89.5326 125.734 87.8563 125.734Z" fill="#00D4D7"/>
<path d="M138.563 125.734C136.887 125.734 135.35 124.475 135.211 122.657C135.071 120.839 136.468 119.16 138.284 119.02L160.914 117.062C162.73 116.923 164.406 118.321 164.546 120.139C164.685 121.957 163.289 123.636 161.473 123.776L138.843 125.734C138.703 125.734 138.703 125.734 138.563 125.734Z" fill="#00D4D7"/>
<path d="M218.325 78.8809C213.995 65.8739 207.43 51.6082 198.489 42.5173C198.489 42.5173 196.254 41.2585 191.784 39.5802C177.955 18.1816 147.922 3.35645 112.999 3.35645C78.0763 3.35645 48.0429 18.1816 34.3532 39.5802C29.8831 41.3984 27.6481 42.5173 27.6481 42.5173C18.5682 51.6082 12.1424 65.8739 7.81202 78.8809C2.2244 95.6641 1.94502 113.846 7.11357 130.769C8.78985 136.224 13.8187 140 19.546 140C25.6924 140 31.0006 135.664 32.2578 129.65L38.2645 99.4403C39.6614 92.8669 44.1315 87.4124 50.4176 85.0347C61.3134 80.6991 81.5686 75.1047 113.139 75.1047C144.569 75.1047 164.824 80.6991 175.86 85.0347C182.146 87.5522 186.616 92.8669 188.013 99.4403L194.159 129.37C195.416 135.384 200.724 139.72 206.871 139.72C212.598 139.72 217.627 135.944 219.303 130.489C224.192 113.706 223.913 95.6641 218.325 78.8809Z" fill="#FD80A6"/>
<path d="M221.4 77.7622C215.672 60.8391 208.688 48.1119 200.726 40.1398C200.446 39.8601 200.167 39.7203 199.887 39.5804C199.608 39.4405 197.513 38.3217 193.741 36.7832C178.794 14.4056 147.364 0 113 0C78.6361 0 47.0661 14.4056 32.2589 36.7832C28.4873 38.3217 26.3919 39.4405 26.1126 39.5804C25.8332 39.7203 25.5538 40 25.2744 40.1398C17.3121 48.1119 10.3275 60.8391 4.60024 77.7622C-1.26675 95.2447 -1.54614 113.846 3.90179 131.608C5.99715 138.461 12.2832 143.077 19.4074 143.077C27.0904 143.077 33.7955 137.622 35.3321 130.07L41.4785 100.14C42.596 94.6853 46.3677 90.2098 51.5362 88.1119C62.7114 83.6363 82.4078 78.4615 113 78.4615C143.592 78.4615 163.289 83.7762 174.464 88.1119C179.632 90.2098 183.404 94.6853 184.521 100.14L190.668 130.07C192.204 137.622 198.91 143.077 206.593 143.077C213.856 143.077 220.003 138.461 222.098 131.608C227.546 113.846 227.267 95.2447 221.4 77.7622ZM113 6.71328C140.938 6.71328 166.641 16.6434 182.007 32.7273C167.479 28.2517 144.291 23.3566 113 23.3566C81.7093 23.3566 58.5207 28.2517 43.9929 32.7273C59.3589 16.6434 85.0619 6.71328 113 6.71328ZM215.812 129.65C214.555 133.706 210.923 136.503 206.593 136.503C201.983 136.503 198.071 133.287 197.094 128.811L190.947 98.8811C189.411 91.1888 184.102 84.8951 176.838 81.958C165.105 77.3426 144.57 71.8881 113 71.8881C81.43 71.8881 60.7558 77.3426 49.1615 81.958C41.8976 84.8951 36.5893 91.1888 35.0527 98.8811L28.9064 128.811C27.9285 133.287 24.0172 136.503 19.4074 136.503C15.2167 136.503 11.4451 133.706 10.1879 129.65C5.159 113.287 5.43839 96.0839 10.8863 79.8601C16.1945 64.1958 22.4806 52.4475 29.6048 45.1748C33.3765 43.3566 62.7114 29.9301 113 29.9301C163.289 29.9301 192.624 43.3566 196.395 45.1748C203.519 52.4475 209.805 64.1958 215.114 79.8601C220.562 96.0839 220.841 113.287 215.812 129.65Z" fill="#F6608E"/>
<path d="M186.197 65.3148C184.661 65.3148 183.264 64.1959 182.985 62.6575C182.565 60.8393 183.823 59.161 185.499 58.7414L197.652 56.2239C199.468 55.8043 201.144 57.0631 201.563 58.7414C201.982 60.5596 200.725 62.2379 199.049 62.6575L186.896 65.1749C186.756 65.3148 186.477 65.3148 186.197 65.3148Z" fill="#F6608E"/>
<path d="M190.11 76.5038C188.573 76.5038 187.176 75.3849 186.897 73.8464C186.478 72.0283 187.735 70.3499 189.411 69.9303L201.564 67.4129C203.38 66.9933 205.056 68.252 205.475 69.9303C205.895 71.7485 204.637 73.4269 202.961 73.8464L190.808 76.3639C190.529 76.5038 190.249 76.5038 190.11 76.5038Z" fill="#F6608E"/>
<path d="M39.8025 65.3147C39.5232 65.3147 39.3835 65.3147 39.1041 65.1749L26.951 62.6574C25.1351 62.2378 24.0175 60.5595 24.4366 58.7413C24.8557 56.9231 26.532 55.8042 28.3479 56.2238L40.501 58.7413C42.317 59.1609 43.4345 60.8392 43.0154 62.6574C42.7361 64.1959 41.3391 65.3147 39.8025 65.3147Z" fill="#F6608E"/>
<path d="M36.0311 76.5037C35.7517 76.5037 35.612 76.5037 35.3326 76.3638L23.1795 73.8464C21.3636 73.4268 20.246 71.7485 20.6651 69.9303C21.0842 68.1121 22.7605 66.9932 24.5765 67.4128L36.7295 69.9303C38.5455 70.3499 39.663 72.0282 39.2439 73.8464C38.8249 75.3848 37.5677 76.5037 36.0311 76.5037Z" fill="#F6608E"/>
</svg>
