<svg width="59" height="70" viewBox="0 0 59 70" fill="none" xmlns="http://www.w3.org/2000/svg">
<path d="M44.75 5.35999H34.39V36.57H44.75V5.35999Z" fill="#E94311"/>
<path d="M24.03 5.35999H13.67V36.57H24.03V5.35999Z" fill="#E94311"/>
<path d="M46.14 6.60001H12.28C10.46 6.60001 8.97998 5.11999 8.97998 3.29999C8.97998 1.47999 10.46 0 12.28 0H46.14C47.96 0 49.44 1.47999 49.44 3.29999C49.44 5.11999 47.96 6.60001 46.14 6.60001Z" fill="#FFC33D"/>
<path d="M44.74 6.60001H13.67V8.35001H44.74V6.60001Z" fill="#A53E11"/>
<path d="M34.39 5.35999H24.03V36.57H34.39V5.35999Z" fill="#FFFAFF"/>
<path d="M34.39 6.60001H24.03V8.35001H34.39V6.60001Z" fill="#FFDEA3"/>
<path d="M49.44 3.29999C49.44 5.11999 47.96 6.60001 46.14 6.60001H12.28C10.46 6.60001 8.97998 5.11999 8.97998 3.29999" fill="#EE7C1C"/>
<path d="M49.86 48.95L58.42 40.39L49.86 31.84V19.74H37.76L29.21 11.18L20.65 19.74H8.55V31.84L0 40.39L8.55 48.95V61.05H20.65L29.21 69.6L37.76 61.05H49.86V48.95Z" fill="#FFC33D"/>
<path d="M8.55005 19.74L29.2101 40.39L20.65 19.74H8.55005Z" fill="#FFC33D"/>
<path d="M29.21 11.18V40.39L20.65 19.74L29.21 11.18Z" fill="#F1A327"/>
<path d="M0 40.39H29.21L8.55 31.84L0 40.39Z" fill="#FFDEA3"/>
<path d="M8.55005 19.74L29.2101 40.39L8.55005 31.84V19.74Z" fill="#EE7C1C"/>
<path d="M49.86 19.74L29.21 40.39L49.86 31.84V19.74Z" fill="#FFC33D"/>
<path d="M58.42 40.39H29.21L49.86 31.84L58.42 40.39Z" fill="#FFDEA3"/>
<path d="M29.21 11.18V40.39L37.76 19.74L29.21 11.18Z" fill="#FFDEA3"/>
<path d="M49.86 19.74L29.21 40.39L37.76 19.74H49.86Z" fill="#F1A327"/>
<path d="M49.86 61.05L29.21 40.39L37.76 61.05H49.86Z" fill="#FFC33D"/>
<path d="M29.21 69.6V40.39L37.76 61.05L29.21 69.6Z" fill="#FFDEA3"/>
<path d="M58.42 40.39H29.21L49.86 48.95L58.42 40.39Z" fill="#FFC33D"/>
<path d="M49.86 61.05L29.21 40.39L49.86 48.95V61.05Z" fill="#F1A327"/>
<path d="M8.55005 61.05L29.2101 40.39L8.55005 48.95V61.05Z" fill="#FFC33D"/>
<path d="M0 40.39H29.21L8.55 48.95L0 40.39Z" fill="#F1A327"/>
<path d="M29.21 69.6V40.39L20.65 61.05L29.21 69.6Z" fill="#FFC33D"/>
<path d="M8.55005 61.05L29.2101 40.39L20.65 61.05H8.55005Z" fill="#EE7C1C"/>
<path d="M29.21 59.99C40.03 59.99 48.81 51.22 48.81 40.39H29.21V59.99Z" fill="#FFDEA3"/>
<path d="M29.21 20.79C18.39 20.79 9.60999 29.56 9.60999 40.39H29.21V20.79Z" fill="#EE7C1C"/>
<path d="M29.21 20.79V40.39H48.81C48.81 29.57 40.04 20.79 29.21 20.79Z" fill="#F1A327"/>
<path d="M9.60999 40.39C9.60999 51.21 18.38 59.99 29.21 59.99V40.39H9.60999Z" fill="#F1A327"/>
<path d="M46.9607 43.2833C48.5612 33.4775 41.9094 24.2308 32.1036 22.6303C22.2977 21.0298 13.0511 27.6816 11.4506 37.4874C9.85007 47.2933 16.5018 56.54 26.3077 58.1404C36.1135 59.7409 45.3602 53.0892 46.9607 43.2833Z" fill="#FFC33D"/>
<path d="M29.21 52.89C36.1135 52.89 41.71 47.2935 41.71 40.39C41.71 33.4864 36.1135 27.89 29.21 27.89C22.3064 27.89 16.71 33.4864 16.71 40.39C16.71 47.2935 22.3064 52.89 29.21 52.89Z" fill="#F79826"/>
<path d="M29.21 27.89C25.41 27.89 22.01 29.59 19.72 32.26C21.91 30.39 24.74 29.25 27.85 29.25C34.75 29.25 40.35 34.85 40.35 41.75C40.35 44.85 39.22 47.69 37.34 49.88C40.02 47.59 41.71 44.19 41.71 40.39C41.71 33.49 36.11 27.89 29.21 27.89Z" fill="#EE7C1C"/>
<path d="M45.62 2.51999H38.67C38.17 2.51999 37.76 2.10999 37.76 1.60999C37.76 1.10999 38.17 0.700012 38.67 0.700012H45.62C46.12 0.700012 46.53 1.10999 46.53 1.60999C46.53 2.10999 46.12 2.51999 45.62 2.51999Z" fill="#FFDEA3"/>
<path d="M35.3 2.51001C35.8026 2.51001 36.21 2.10259 36.21 1.60001C36.21 1.09743 35.8026 0.690002 35.3 0.690002C34.7974 0.690002 34.39 1.09743 34.39 1.60001C34.39 2.10259 34.7974 2.51001 35.3 2.51001Z" fill="#FFDEA3"/>
</svg>
