<svg width="223" height="200" viewBox="0 0 223 200" fill="none" xmlns="http://www.w3.org/2000/svg">
<path d="M215.371 6.42521C202.951 -5.97376 163.368 16.5877 145.934 27.5266C137.309 26.0897 126.177 25.5103 113.432 25.5683C100.686 25.5103 89.5545 26.1013 80.9183 27.5266C63.4834 16.5761 23.9008 -5.96217 11.4804 6.42521C-0.84704 18.7315 13.2332 52.5332 20.4649 67.5973C11.9099 82.0126 8.78743 97.8068 8.78743 111.411C8.78743 123.173 10.192 134.911 13.0127 146.661C18.5264 169.582 36.681 187.184 59.8153 191.865C77.6913 195.469 95.5557 197.277 113.432 197.277C131.308 197.277 149.172 195.469 167.048 191.865C190.194 187.184 208.337 169.582 213.851 146.661C216.671 134.911 218.076 123.173 218.076 111.411C218.076 97.8184 214.953 82.0242 206.41 67.6089C213.619 52.568 227.722 18.7431 215.383 6.42521H215.371Z" fill="#ADBED9"/>
<path d="M126.083 33.9581C126.083 53.4257 120.407 69.1851 113.442 69.1851C106.478 69.1851 100.778 53.4141 100.778 33.9581C100.778 31.2929 100.883 28.6973 101.092 26.2059C109.322 25.8351 117.54 25.8351 125.77 26.2175C125.979 28.7089 126.083 31.3045 126.083 33.9581Z" fill="#446993"/>
<path d="M98.9098 27.5616C98.9098 47.006 93.2568 62.7887 86.2689 62.7887C79.281 62.7887 74.0227 48.1069 73.6396 29.6243C77.981 28.4887 82.4732 27.6891 87.0815 27.2256C91.0281 26.8432 94.9632 26.5304 98.9098 26.3218C98.9214 26.7389 98.9214 27.1445 98.9214 27.5616H98.9098Z" fill="#446993"/>
<path d="M153.222 29.4738C152.862 48.0259 147.337 62.8004 140.593 62.8004C133.849 62.8004 127.952 47.0178 127.952 27.5734C127.952 27.1562 127.952 26.7507 127.964 26.3335C132.491 26.5768 137.029 26.9477 141.545 27.4228C145.526 27.8399 149.427 28.5352 153.222 29.4738Z" fill="#446993"/>
<path d="M200.815 36.3682C200.815 36.3682 202.834 40.9338 203.159 46.044C203.473 50.7718 200.617 54.3756 196.891 55.8821C189.056 46.9826 179.375 39.717 168.452 34.6647C168.557 32.1038 169.636 29.5777 171.726 27.6889C180.118 20.0757 191.714 11.8599 199.932 15.1972C214.233 21.0259 200.826 36.3798 200.826 36.3798L200.815 36.3682Z" fill="white"/>
<path d="M26.0246 36.3682C26.0246 36.3682 24.0048 40.9338 23.6798 46.044C23.3664 50.7718 26.2219 54.3756 29.948 55.8821C37.7833 46.9826 47.4642 39.717 58.3871 34.6647C58.2826 32.1038 57.2031 29.5777 55.1137 27.6889C46.7213 20.0757 35.1251 11.8599 26.9068 15.1972C12.606 21.0259 26.013 36.3798 26.013 36.3798L26.0246 36.3682Z" fill="white"/>
<path d="M217.321 4.47863C210.995 -1.83673 199.282 -1.45434 181.511 5.66058C168.371 10.9215 154.755 18.778 145.352 24.6414C137.088 23.3668 126.409 22.741 113.454 22.799C100.477 22.741 89.786 23.3668 81.5212 24.6414C72.1073 18.7664 58.4682 10.9099 45.3514 5.64902C27.5798 -1.46591 15.8676 -1.85992 9.54132 4.46704C-3.33173 17.3179 8.57787 48.86 17.3534 67.4353C7.78854 84.2144 6.04737 101.237 6.04737 111.388C6.04737 123.323 7.49835 135.398 10.3539 147.275C13.1862 159.037 19.257 169.686 27.9048 178.053C36.5759 186.431 47.4292 192.132 59.2923 194.531C77.2612 198.158 95.4738 200 113.454 200C131.435 200 149.647 198.158 167.616 194.531C179.479 192.132 190.333 186.431 199.004 178.053C207.663 169.686 213.734 159.037 216.555 147.275C219.41 135.398 220.85 123.323 220.85 111.388C220.85 101.237 219.108 84.2144 209.544 67.4353C218.307 48.8484 230.205 17.2948 217.344 4.45547L217.321 4.47863ZM211.157 146.012C208.569 156.766 203.032 166.476 195.127 174.124C187.21 181.772 177.309 186.975 166.49 189.165C148.881 192.723 131.028 194.519 113.419 194.519C95.8104 194.519 77.9577 192.711 60.3602 189.165C49.5302 186.975 39.6287 181.772 31.7122 174.124C23.8073 166.488 18.2704 156.766 15.6818 146.012C12.9308 134.552 11.5379 122.906 11.5379 111.411C11.5379 98.6297 14.463 74.2257 34.0802 54.4453C35.1481 53.3677 35.1481 51.6179 34.057 50.5518C32.9775 49.4858 31.2247 49.4973 30.1568 50.575C26.5351 54.2252 23.4591 58.026 20.8241 61.8731C8.86807 35.534 6.07059 15.7072 13.4183 8.37213C17.8873 3.91081 28.2066 4.74515 43.2736 10.7708C53.8715 15.012 64.8757 21.0492 73.5815 26.2637C73.3378 26.3333 73.094 26.3912 72.8618 26.4607C67.3714 28.0251 62.1246 29.9255 57.2493 32.104C55.8564 32.7297 55.2412 34.3521 55.868 35.7426C56.4948 37.1331 58.1199 37.7473 59.5129 37.1215C64.1444 35.0473 69.1473 33.2396 74.3708 31.7448C82.7052 29.3809 95.8453 28.2221 113.431 28.3032C130.982 28.2337 144.134 29.3809 152.468 31.7448C157.703 33.228 162.695 35.0357 167.326 37.1215C167.698 37.2837 168.081 37.3649 168.452 37.3649C169.508 37.3649 170.507 36.7623 170.971 35.7426C171.598 34.3521 170.971 32.7297 169.59 32.104C164.714 29.9139 159.468 28.0135 153.977 26.4607C153.745 26.3912 153.49 26.3333 153.246 26.2637C161.94 21.0492 172.944 15.0235 183.554 10.7708C198.621 4.73356 208.952 3.91081 213.409 8.37213C220.745 15.6956 217.948 35.5224 206.015 61.8731C203.38 58.026 200.304 54.2252 196.682 50.575C195.614 49.4973 193.861 49.4858 192.782 50.5518C191.702 51.6179 191.691 53.3677 192.759 54.4453C212.376 74.2257 215.301 98.6297 215.301 111.411C215.301 122.918 213.908 134.552 211.157 146.012Z" fill="#446993"/>
<path d="M155.51 106.765C154.326 106.765 153.235 106 152.875 104.818C152.434 103.369 153.246 101.828 154.697 101.376L164.425 98.3981C165.876 97.9578 167.419 98.7689 167.872 100.217C168.313 101.666 167.501 103.207 166.05 103.659L156.322 106.637C156.055 106.718 155.777 106.765 155.51 106.765Z" fill="white"/>
<path d="M101.197 106.764C100.93 106.764 100.651 106.73 100.384 106.637L90.6567 103.659C89.2057 103.219 88.3815 101.677 88.8342 100.217C89.2753 98.7688 90.8192 97.9461 92.2817 98.398L102.009 101.376C103.46 101.816 104.284 103.358 103.831 104.818C103.472 106 102.381 106.764 101.197 106.764Z" fill="white"/>
<path d="M138.365 127.912C134.372 127.912 131.121 124.668 131.121 120.681C131.121 120.624 131.121 120.566 131.121 120.508H133.582C135.103 120.508 136.333 119.279 136.333 117.75C136.333 116.22 135.103 115.003 133.582 115.003H123.158C121.638 115.003 120.407 116.232 120.407 117.75C120.407 119.268 121.638 120.508 123.158 120.508H125.619C125.619 120.508 125.619 120.624 125.619 120.681C125.619 124.668 122.369 127.912 118.376 127.912C116.855 127.912 115.625 129.141 115.625 130.659C115.625 132.177 116.855 133.416 118.376 133.416C122.427 133.416 126.037 131.528 128.37 128.584C130.715 131.528 134.325 133.416 138.376 133.416C139.897 133.416 141.127 132.188 141.127 130.659C141.127 129.129 139.897 127.912 138.376 127.912H138.365Z" fill="#446993"/>
<path d="M220.246 128.677C220.246 146.835 218.018 158.689 214.373 166.129C210.716 173.557 205.679 176.593 200.06 177.137C198.18 177.334 196.23 177.23 194.233 176.929C172.863 175.272 168.789 164.194 171.006 149.674C173.409 133.903 199.515 125.062 200.072 111.145C201.117 84.5273 166.549 87.8182 152.376 87.8182H85.1084C60.3374 87.8182 61.6722 114.621 68.6834 121.423C78.2366 130.102 92.1427 134.077 92.1427 149.674C92.1427 170.185 76.4374 180.428 50.5636 179.304C47.1741 179.153 2.7627 177.207 2.7627 114.192C2.7627 102.477 3.45916 84.284 8.89161 65.6855C14.3705 50.7256 72.6416 41.0498 121.952 41.0498C171.261 41.0498 209.254 49.5205 216.625 73.1829C219.074 87.5518 220.235 105.49 220.235 128.689L220.246 128.677Z" fill="#FFBF8C"/>
<path d="M54.2897 182.12C53.036 182.12 51.7592 182.097 50.4475 182.039C46.0713 181.842 34.7421 180.521 23.7379 172.502C16.7384 167.404 11.1899 160.52 7.24327 152.05C2.43764 141.737 0 128.99 0 114.181C0 95.3968 2.04297 79.2781 6.24499 64.8976C6.2566 64.8397 6.27982 64.7818 6.30303 64.7238C9.25141 56.6703 23.4245 50.0537 48.4393 45.0477C69.8905 40.7486 96.6929 38.292 121.951 38.292C179.48 38.292 212.214 49.7523 219.26 72.3602C219.294 72.4761 219.329 72.5919 219.341 72.7194C221.802 87.1115 222.986 105.42 222.986 128.689C222.986 146.244 220.978 158.898 216.834 167.346C213.084 174.97 207.524 179.188 200.304 179.884C198.319 180.092 196.218 180.023 193.897 179.675C183.473 178.852 176.346 175.851 172.097 170.509C168.104 165.492 166.85 158.539 168.267 149.269C169.625 140.334 177.193 133.834 184.517 127.553C190.971 122.014 197.066 116.776 197.298 111.052C197.518 105.536 196.09 101.307 192.956 98.1083C185.005 90.0084 167.292 90.3329 156.717 90.5299C155.15 90.5647 153.664 90.5878 152.352 90.5878H85.0851C76.6811 90.5878 70.8192 93.5659 68.1378 99.2208C64.9108 106.023 66.9189 114.922 70.7495 119.65C73.6515 122.802 77.0641 125.201 80.3608 127.53C87.4996 132.559 94.8821 137.773 94.8821 149.697C94.8821 158.956 91.9337 166.465 86.1182 172.027C79.1535 178.69 68.1842 182.155 54.2664 182.155L54.2897 182.12ZM11.5149 66.5315C7.47542 80.379 5.52531 95.9646 5.52531 114.169C5.52531 171.587 43.1462 176.187 50.6796 176.535C64.8992 177.149 75.8453 174.206 82.3225 168.006C87.012 163.522 89.3916 157.357 89.3916 149.651C89.3916 140.566 84.0172 136.777 77.2034 131.968C73.6515 129.465 69.9718 126.869 66.6519 123.254C66.6171 123.219 66.5823 123.173 66.5475 123.138C61.6722 117.193 58.8399 105.942 63.1812 96.8105C66.7912 89.2205 74.5801 85.0373 85.1083 85.0373H152.376C153.641 85.0373 155.092 85.0141 156.647 84.9793C168.859 84.7476 187.315 84.4115 196.926 94.2032C201.117 98.4791 203.113 104.204 202.835 111.214C202.51 119.337 195.208 125.606 188.139 131.678C181.581 137.31 174.79 143.139 173.745 150.057C172.573 157.739 173.455 163.29 176.438 167.056C179.7 171.158 185.585 173.476 194.454 174.159C194.523 174.159 194.593 174.171 194.663 174.182C196.555 174.472 198.226 174.53 199.782 174.379C205.063 173.87 209.022 170.764 211.912 164.901C215.615 157.334 217.495 145.132 217.495 128.665C217.495 105.803 216.334 87.8531 213.955 73.8087C210.693 63.623 200.687 55.8939 184.216 50.8532C168.882 46.1601 147.93 43.7846 121.963 43.7846C68.6369 43.7846 16.0884 54.6192 11.5149 66.5315Z" fill="#FF9D6F"/>
<path d="M135.265 55.8823H113.977C111.04 55.8823 108.66 58.2585 108.66 61.1896V71.1435C108.66 74.0746 111.04 76.4507 113.977 76.4507H135.265C138.201 76.4507 140.582 74.0746 140.582 71.1435V61.1896C140.582 58.2585 138.201 55.8823 135.265 55.8823Z" fill="white"/>
<path d="M135.265 79.197H113.976C109.519 79.197 105.897 75.5816 105.897 71.1318V61.1779C105.897 56.7282 109.519 53.1128 113.976 53.1128H135.265C139.723 53.1128 143.344 56.7282 143.344 61.1779V71.1318C143.344 75.5816 139.723 79.197 135.265 79.197ZM113.976 58.6286C112.56 58.6286 111.411 59.7758 111.411 61.1895V71.1434C111.411 72.5572 112.56 73.7043 113.976 73.7043H135.265C136.681 73.7043 137.831 72.5572 137.831 71.1434V61.1895C137.831 59.7758 136.681 58.6286 135.265 58.6286H113.976Z" fill="#E3E3E3"/>
<path d="M100.93 121.956C100.79 121.956 100.639 121.956 100.5 121.921L81.591 118.943C80.082 118.711 79.0605 117.298 79.2926 115.791C79.5248 114.285 80.941 113.265 82.45 113.497L101.359 116.475C102.868 116.707 103.89 118.12 103.657 119.627C103.448 120.982 102.276 121.944 100.941 121.944L100.93 121.956Z" fill="#446993"/>
<path d="M155.788 121.956C154.453 121.956 153.281 120.982 153.072 119.638C152.84 118.132 153.861 116.73 155.37 116.486L174.279 113.508C175.788 113.265 177.193 114.296 177.437 115.803C177.669 117.309 176.647 118.711 175.138 118.955L156.229 121.933C156.078 121.956 155.939 121.967 155.8 121.967L155.788 121.956Z" fill="#446993"/>
<path d="M28.6136 138.202C37.2297 138.202 44.2144 127.919 44.2144 115.235C44.2144 102.551 37.2297 92.2681 28.6136 92.2681C19.9974 92.2681 13.0127 102.551 13.0127 115.235C13.0127 127.919 19.9974 138.202 28.6136 138.202Z" fill="#ADBED9"/>
<path d="M28.6136 140.948C23.5062 140.948 18.7818 138.133 15.2995 133.011C12.0493 128.225 10.2617 121.91 10.2617 115.224C10.2617 108.537 12.0493 102.234 15.2995 97.4362C18.7702 92.3144 23.5062 89.4985 28.6136 89.4985C33.7211 89.4985 38.4454 92.3144 41.9278 97.4362C45.178 102.222 46.9656 108.537 46.9656 115.224C46.9656 121.91 45.178 128.213 41.9278 133.011C38.4571 138.133 33.7211 140.948 28.6136 140.948ZM28.6136 95.0259C21.649 95.0259 15.7754 104.285 15.7754 115.235C15.7754 126.186 21.6606 135.444 28.6136 135.444C35.5667 135.444 41.4519 126.186 41.4519 115.235C41.4519 104.285 35.5667 95.0259 28.6136 95.0259Z" fill="#FF9D6F"/>
</svg>
