<svg width="277" height="255" viewBox="0 0 277 255" fill="none" xmlns="http://www.w3.org/2000/svg">
<path d="M229.66 39.3988C217.963 27.7187 180.721 48.9563 164.307 59.2548C156.182 57.911 145.717 57.3584 133.718 57.4086C121.719 57.3584 111.241 57.911 103.129 59.2548C86.715 48.9563 49.4725 27.7313 37.7752 39.3988C26.166 50.9909 39.4229 82.8033 46.2274 96.9826C38.1777 110.559 35.2345 125.417 35.2345 138.227C35.2345 149.292 36.5552 160.356 39.2091 171.408C44.3911 192.985 61.4841 209.551 83.2561 213.959C100.072 217.35 116.889 219.058 133.705 219.058C150.522 219.058 167.338 217.362 184.154 213.959C205.926 209.551 223.019 192.985 228.201 171.408C230.855 160.356 232.176 149.292 232.176 138.227C232.176 125.429 229.233 110.572 221.196 96.9952C227.988 82.8284 241.257 50.9909 229.635 39.3988L229.66 39.3988Z" fill="#ADBED9"/>
<path d="M188.301 163.407C188.105 163.439 187.893 163.459 187.69 163.45C185.828 163.41 184.353 161.87 184.379 160.013C184.42 157.896 183.63 155.885 182.157 154.36C180.684 152.835 178.715 151.965 176.58 151.927C172.194 151.84 168.568 155.334 168.479 159.7C168.439 161.559 166.897 163.032 165.038 163.006C163.176 162.966 161.701 161.427 161.727 159.57C161.882 151.488 168.603 145.032 176.699 145.201C180.623 145.277 184.28 146.875 187.002 149.704C189.724 152.533 191.181 156.244 191.105 160.162C191.073 161.805 189.858 163.167 188.29 163.423L188.301 163.407Z" fill="#446993"/>
<path d="M102.814 161.728C102.618 161.76 102.405 161.78 102.202 161.77C100.34 161.73 98.8654 160.191 98.8914 158.334C98.978 153.954 95.4927 150.331 91.1065 150.245C86.7343 150.156 83.0942 153.653 83.0053 158.018C82.9653 159.877 81.44 161.362 79.5641 161.324C77.7023 161.284 76.2273 159.745 76.2533 157.888C76.4083 149.807 83.1293 143.35 91.2252 143.519C99.3187 143.674 105.784 150.385 105.615 158.469C105.583 160.111 104.368 161.473 102.8 161.73L102.814 161.728Z" fill="#446993"/>
<path d="M215.963 67.5816C215.963 67.5816 217.862 71.8768 218.164 76.687C218.454 81.133 215.774 84.524 212.265 85.9432C204.895 77.5662 195.789 70.7214 185.5 65.9615C185.601 63.5501 186.607 61.1764 188.582 59.393C196.48 52.2217 207.398 44.4979 215.12 47.6377C228.579 53.126 215.963 67.5691 215.963 67.5691L215.963 67.5816Z" fill="white"/>
<path d="M51.4727 67.5816C51.4727 67.5816 49.5734 71.8768 49.2716 76.687C48.9823 81.133 51.6613 84.524 55.1705 85.9432C62.541 77.5662 71.6473 70.7214 81.9358 65.9615C81.8352 63.5501 80.829 61.1764 78.8543 59.393C70.9555 52.2217 60.0381 44.4979 52.3154 47.6377C38.8573 53.126 51.4727 67.5691 51.4727 67.5691L51.4727 67.5816Z" fill="white"/>
<path d="M231.774 37.2762C225.699 31.2101 214.53 31.5366 197.65 38.306C185.312 43.2543 172.533 50.614 163.678 56.1401C155.893 54.9595 145.881 54.3818 133.743 54.4195C121.581 54.3692 111.556 54.9469 103.771 56.1401C94.9034 50.614 82.1118 43.2418 69.7857 38.306C52.9065 31.5366 41.7375 31.2101 35.6624 37.2762C23.4244 49.4963 34.5556 79.2113 42.8569 96.8192C33.9016 112.631 32.2665 128.644 32.2665 138.214C32.2665 149.48 33.6374 160.884 36.3291 172.086C39.0081 183.239 44.7561 193.324 52.9568 201.249C61.17 209.199 71.446 214.599 82.6904 216.872C99.6326 220.289 116.801 222.022 133.743 222.022C150.685 222.022 167.854 220.289 184.796 216.872C196.028 214.599 206.317 209.199 214.53 201.249C222.73 193.324 228.478 183.239 231.157 172.086C233.849 160.871 235.22 149.48 235.22 138.214C235.22 128.657 233.585 112.631 224.63 96.8192C232.918 79.1987 244.037 49.4837 231.811 37.2762L231.774 37.2762ZM225.321 170.705C222.906 180.752 217.724 189.833 210.341 196.979C202.946 204.125 193.701 208.985 183.576 211.032C167.036 214.373 150.258 216.069 133.718 216.069C117.178 216.069 100.4 214.373 83.8601 211.032C73.7477 208.985 64.4905 204.125 57.0948 196.979C49.7117 189.845 44.5297 180.752 42.1148 170.705C39.5364 159.942 38.2157 149.015 38.2157 138.227C38.2157 126.258 40.9576 103.4 59.3211 84.8755C60.4782 83.7075 60.4782 81.811 59.2959 80.6556C58.1262 79.5001 56.227 79.5001 55.0698 80.6807C51.8248 83.9587 49.0325 87.3496 46.6302 90.8034C35.6876 66.4763 33.1343 48.2403 39.8634 41.5086C46.366 35.0155 67.3079 41.3077 95.2178 57.9486C90.1113 59.4054 85.2185 61.1888 80.678 63.2234C79.1687 63.9016 78.502 65.6599 79.1812 67.167C79.8604 68.6741 81.6339 69.3398 83.1307 68.6616C87.47 66.7149 92.1614 65.0194 97.0667 63.6253C104.877 61.4149 117.191 60.3348 133.718 60.3976C150.207 60.3097 162.534 61.4023 170.344 63.6253C175.25 65.0194 179.941 66.7149 184.28 68.6616C184.683 68.8374 185.098 68.9253 185.5 68.9253C186.645 68.9253 187.727 68.2722 188.23 67.167C188.909 65.6599 188.23 63.9016 186.733 63.2234C182.193 61.1763 177.3 59.4054 172.181 57.9486C200.091 41.3077 221.02 35.0155 227.535 41.5212C234.264 48.2403 231.711 66.4762 220.781 90.8159C218.379 87.3622 215.586 83.9712 212.341 80.6932C211.184 79.5252 209.285 79.5127 208.115 80.6681C206.945 81.8236 206.933 83.72 208.09 84.888C226.453 103.413 229.195 126.258 229.195 138.239C229.195 149.04 227.887 159.967 225.296 170.73L225.321 170.705Z" fill="#446993"/>
<path d="M203.411 179.785L185.953 179.785C184.154 179.785 182.695 178.328 182.695 176.532C182.695 174.736 184.154 173.279 185.953 173.279L203.411 173.279C205.209 173.279 206.668 174.736 206.668 176.532C206.668 178.328 205.209 179.785 203.411 179.785Z" fill="#446993"/>
<path d="M200.241 196.162C199.864 196.162 199.486 196.099 199.109 195.961L184.833 190.674C183.148 190.046 182.28 188.174 182.909 186.491C183.538 184.809 185.412 183.942 187.097 184.57L201.373 189.857C203.059 190.485 203.926 192.357 203.297 194.04C202.807 195.358 201.562 196.162 200.241 196.162Z" fill="#446993"/>
<path d="M81.483 179.785L64.0252 179.785C62.2266 179.785 60.7676 178.328 60.7676 176.532C60.7676 174.736 62.2266 173.279 64.0252 173.279L81.483 173.279C83.2816 173.279 84.7406 174.736 84.7406 176.532C84.7406 178.328 83.2816 179.785 81.483 179.785Z" fill="#446993"/>
<path d="M67.2076 196.162C65.887 196.162 64.6418 195.346 64.1513 194.04C63.5224 192.357 64.3902 190.485 66.0756 189.857L80.3513 184.57C82.0367 183.942 83.9108 184.809 84.5397 186.491C85.1686 188.174 84.3007 190.046 82.6153 190.674L68.3396 195.961C67.9623 196.099 67.585 196.162 67.2076 196.162Z" fill="#446993"/>
<path d="M168.432 138.893L159.276 138.893C157.628 138.893 156.282 137.561 156.282 135.904C156.282 134.246 157.615 132.915 159.276 132.915L168.432 132.915C170.08 132.915 171.426 134.246 171.426 135.904C171.426 137.561 170.092 138.893 168.432 138.893Z" fill="white"/>
<path d="M108.16 138.893L99.0033 138.893C97.3556 138.893 96.0098 137.561 96.0098 135.904C96.0098 134.246 97.343 132.915 99.0033 132.915L108.16 132.915C109.807 132.915 111.153 134.246 111.153 135.904C111.153 137.561 109.82 138.893 108.16 138.893Z" fill="white"/>
<path d="M152.987 159.942C151.39 159.54 149.767 160.507 149.365 162.114C148.648 164.965 146.094 166.95 143.139 166.95C139.592 166.95 136.711 164.074 136.711 160.544C136.711 160.369 136.699 160.193 136.661 160.029L138.623 160.029C140.271 160.029 141.617 158.698 141.617 157.04C141.617 155.383 140.284 154.051 138.623 154.051L128.813 154.051C127.165 154.051 125.819 155.383 125.819 157.04C125.819 158.698 127.152 160.029 128.813 160.029L130.775 160.029C130.75 160.193 130.725 160.369 130.725 160.544C130.725 164.074 127.844 166.95 124.31 166.95C121.354 166.95 118.801 164.965 118.084 162.114C117.681 160.519 116.059 159.54 114.462 159.942C112.864 160.343 111.883 161.964 112.286 163.559C113.669 169.059 118.612 172.915 124.31 172.915C128.071 172.915 131.441 171.232 133.718 168.582C135.995 171.232 139.365 172.915 143.126 172.915C148.824 172.915 153.767 169.072 155.15 163.559C155.553 161.964 154.584 160.343 152.974 159.942L152.987 159.942Z" fill="#446993"/>
<path d="M267.192 112.146C268.624 92.4387 224.638 100.166 212.484 83.6075C205.693 74.4036 199.461 70.1543 191.392 70.0776C184.701 61.9583 168.955 56.8523 133.265 54.442C86.5108 51.2154 73.0348 57.2376 68.5923 69.7723C58.7935 72.0951 53.4881 78.3262 49.9511 91.2146C44.5712 111.133 0.699646 119.828 9.13804 137.579C17.0961 154.436 67.3293 157.392 79.171 110.903C88.3407 115.408 103.521 118.417 128.835 120.218C168.398 123.004 184.106 119.053 190.688 110.245C218.235 152.469 265.848 131.151 267.192 112.146Z" fill="#767576"/>
<path d="M270.026 112.269C270.976 99.1701 256.395 96.1184 242.267 93.2436C231.148 90.991 219.693 88.5765 214.724 81.8681C207.641 72.1506 200.956 67.7244 192.699 67.2662C191.751 66.3115 190.686 65.3419 189.504 64.3573C180.398 57.4783 163.202 53.4975 133.519 51.4964C103.836 49.4952 86.1743 51.0529 76.2075 56.5701C71.2167 59.3873 68.3727 63.0739 66.5362 67.2465C56.6778 70.0381 50.9175 77.0449 47.3359 90.2849C45.1253 98.3402 35.2882 104.708 25.7147 110.871C13.5501 118.728 1.00498 126.774 6.62066 138.687C9.70481 145.274 18.1433 149.924 28.314 151.221C31.5874 151.639 35.1392 151.735 38.6336 151.347C58.9561 149.414 74.5981 135.689 80.96 114.585C87.7363 117.355 96.8528 119.472 108.894 121.008C114.739 121.754 121.316 122.355 128.492 122.913C158.175 124.915 175.836 123.357 185.803 117.84C187.589 116.876 189.038 115.751 190.254 114.596C199.653 127.587 212.075 135.485 225.753 137.23C231.598 137.976 237.592 137.55 243.603 136.054C258.229 132.203 269.346 122.307 270.026 112.269ZM60.7246 136.42C52.6411 143.011 43.939 145.116 38.1639 145.689C26.248 146.908 14.8997 142.721 11.8155 136.134C8.5422 129.165 16.0093 123.686 28.818 115.435C39.2991 108.673 50.0438 101.707 52.8581 91.7042C55.496 82.1551 59.0308 76.77 64.7379 73.9251C64.2639 76.7231 64.0237 79.551 63.7686 82.4961C63.0438 92.8848 63.2117 102.792 72.6385 109.95C73.6162 110.67 74.7109 111.406 75.9225 112.156C73.0784 122.393 67.8857 130.544 60.7246 136.42ZM183.227 112.866C174.402 117.814 157.238 119.197 129.089 117.273C100.94 115.348 84.0655 111.646 76.0543 105.503C69.4438 100.49 68.6106 93.9525 69.4099 82.9777C70.224 71.8857 71.8607 65.5438 79.1344 61.5887C87.9597 56.6405 105.124 55.2575 133.272 57.1819C140.346 57.6082 146.791 58.3114 152.519 59.0424C169.354 61.1905 180.353 64.3807 186.307 68.9518C192.918 73.964 193.751 80.502 192.952 91.4768C192.152 102.452 190.384 108.896 183.227 112.866ZM242.402 130.541C236.508 132.052 227.473 133.043 217.497 129.268C208.428 125.848 200.563 119.485 194.167 109.974C197.322 104.779 198.14 98.3323 198.506 91.7091C198.958 85.3352 199.046 79.0337 196.88 73.6358C201.437 75.1702 205.609 78.7993 210.273 85.1115C216.452 93.5226 229.06 96.2035 241.217 98.7075C256.032 101.789 265.118 104.14 264.502 111.803C263.886 119.466 254.44 127.432 242.402 130.541Z" fill="#5F5C5D"/>
</svg>
