<svg width="59" height="70" viewBox="0 0 59 70" fill="none" xmlns="http://www.w3.org/2000/svg">
<path d="M45.0601 5.35999H34.7001V36.57H45.0601V5.35999Z" fill="#E94311"/>
<path d="M24.3401 5.35999H13.9801V36.57H24.3401V5.35999Z" fill="#E94311"/>
<path d="M46.45 6.60001H12.59C10.77 6.60001 9.29004 5.11999 9.29004 3.29999C9.29004 1.47999 10.77 0 12.59 0H46.45C48.27 0 49.75 1.47999 49.75 3.29999C49.75 5.11999 48.27 6.60001 46.45 6.60001Z" fill="#FFC33D"/>
<path d="M45.0501 6.60001H13.9801V8.35001H45.0501V6.60001Z" fill="#A53E11"/>
<path d="M34.7001 5.35999H24.3401V36.57H34.7001V5.35999Z" fill="#FFFAFF"/>
<path d="M34.7001 6.60001H24.3401V8.35001H34.7001V6.60001Z" fill="#FFDEA3"/>
<path d="M49.75 3.29999C49.75 5.11999 48.27 6.60001 46.45 6.60001H12.59C10.77 6.60001 9.29004 5.11999 9.29004 3.29999" fill="#EE7C1C"/>
<path d="M50.1801 48.95L58.7301 40.39L50.1801 31.84V19.74H38.0801L29.5201 11.18L20.9601 19.74H8.87006V31.84L0.310059 40.39L8.87006 48.95V61.05H20.9601L29.5201 69.6L38.0801 61.05H50.1801V48.95Z" fill="#FFC33D"/>
<path d="M8.87012 19.74L29.5201 40.39L20.9601 19.74H8.87012Z" fill="#DDE4F4"/>
<path d="M29.5201 11.18V40.39L20.9601 19.74L29.5201 11.18Z" fill="#CAD3E9"/>
<path d="M0.310059 40.39H29.5201L8.87006 31.84L0.310059 40.39Z" fill="#DDE4F4"/>
<path d="M8.87012 19.74L29.5201 40.39L8.87012 31.84V19.74Z" fill="#9295B4"/>
<path d="M50.18 19.74L29.52 40.39L50.18 31.84V19.74Z" fill="#CAD3E9"/>
<path d="M58.73 40.39H29.52L50.18 31.84L58.73 40.39Z" fill="#DDE4F4"/>
<path d="M29.52 11.18V40.39L38.08 19.74L29.52 11.18Z" fill="#DDE4F4"/>
<path d="M50.18 19.74L29.52 40.39L38.08 19.74H50.18Z" fill="#B0BCD7"/>
<path d="M50.18 61.05L29.52 40.39L38.08 61.05H50.18Z" fill="#CAD3E9"/>
<path d="M29.52 69.6V40.39L38.08 61.05L29.52 69.6Z" fill="#DDE4F4"/>
<path d="M58.73 40.39H29.52L50.18 48.95L58.73 40.39Z" fill="#CAD3E9"/>
<path d="M50.18 61.05L29.52 40.39L50.18 48.95V61.05Z" fill="#B0BCD7"/>
<path d="M8.87012 61.05L29.5201 40.39L8.87012 48.95V61.05Z" fill="#CCCBDB"/>
<path d="M0.310059 40.39H29.5201L8.87006 48.95L0.310059 40.39Z" fill="#B0BCD7"/>
<path d="M29.5201 69.6V40.39L20.9601 61.05L29.5201 69.6Z" fill="#CCCBDB"/>
<path d="M8.87012 61.05L29.5201 40.39L20.9601 61.05H8.87012Z" fill="#9295B4"/>
<path d="M29.52 59.99C40.34 59.99 49.12 51.22 49.12 40.39H29.52V59.99Z" fill="#DDE4F4"/>
<path d="M29.5201 20.79C18.7001 20.79 9.92004 29.56 9.92004 40.39H29.5201V20.79Z" fill="#9295B4"/>
<path d="M29.52 20.79V40.39H49.12C49.12 29.57 40.35 20.79 29.52 20.79Z" fill="#B0BCD7"/>
<path d="M9.92004 40.39C9.92004 51.21 18.7001 59.99 29.5201 59.99V40.39H9.92004Z" fill="#B0BCD7"/>
<path d="M47.2736 43.2931C48.8741 33.4873 42.2223 24.2406 32.4164 22.6401C22.6106 21.0396 13.3639 27.6914 11.7634 37.4972C10.1629 47.3031 16.8147 56.5497 26.6205 58.1502C36.4264 59.7507 45.6731 53.099 47.2736 43.2931Z" fill="#CAD3E9"/>
<path d="M29.52 52.89C36.4236 52.89 42.02 47.2935 42.02 40.39C42.02 33.4864 36.4236 27.89 29.52 27.89C22.6165 27.89 17.02 33.4864 17.02 40.39C17.02 47.2935 22.6165 52.89 29.52 52.89Z" fill="#B0BCD7"/>
<path d="M29.52 27.89C25.72 27.89 22.32 29.59 20.03 32.26C22.22 30.39 25.05 29.25 28.16 29.25C35.06 29.25 40.66 34.85 40.66 41.75C40.66 44.85 39.53 47.69 37.65 49.88C40.33 47.59 42.02 44.19 42.02 40.39C42.02 33.49 36.42 27.89 29.52 27.89Z" fill="#9295B4"/>
<path d="M45.9301 2.51999H38.9801C38.4801 2.51999 38.0701 2.10999 38.0701 1.60999C38.0701 1.10999 38.4801 0.700012 38.9801 0.700012H45.9301C46.4301 0.700012 46.8401 1.10999 46.8401 1.60999C46.8401 2.10999 46.4301 2.51999 45.9301 2.51999Z" fill="#F5F8FF"/>
<path d="M36.5201 1.60001C36.5201 2.10001 36.1101 2.51001 35.6101 2.51001C35.1101 2.51001 34.7001 2.10001 34.7001 1.60001C34.7001 1.10001 35.1101 0.690002 35.6101 0.690002C36.1101 0.690002 36.5201 1.10001 36.5201 1.60001Z" fill="#F5F8FF"/>
</svg>
