<svg width="139" height="154" viewBox="0 0 139 154" fill="none" xmlns="http://www.w3.org/2000/svg">
<path d="M105.807 123.545C114.781 118.076 114.236 102.456 90.3936 98.332L72.589 111.137C69.4289 123.573 97.0227 128.896 105.807 123.552V123.545Z" fill="#ADBED9"/>
<path d="M32.2288 8.09652C37.9972 2.78772 54.4747 14.4643 61.7016 20.0727C65.4859 19.6895 70.3346 19.7801 75.8599 20.2259C81.3918 20.6161 86.201 21.2431 89.8999 22.1837C97.797 17.7039 118.492 35.9085 114.892 42.6107C118.157 49.5288 119.031 56.9068 118.611 63.1771C118.249 68.5973 117.283 73.9619 115.7 79.2776C112.606 89.6584 104.196 97.1826 94.0127 98.583C86.1484 99.6629 78.3433 99.9137 70.5908 99.3354C62.8382 98.7572 55.1448 97.3429 47.504 95.0995C37.6096 92.1943 30.2775 83.4926 28.5891 72.7496C27.7284 67.2457 27.4788 61.7906 27.8401 56.3704C28.254 50.1071 30.0936 42.9312 34.2458 36.5704C31.5784 29.4014 26.4998 13.3635 32.2288 8.08955V8.09652Z" fill="#ADBED9"/>
<path d="M70.1184 23.6816C69.5206 32.648 71.4981 40.1026 74.5203 40.3255C77.5491 40.5555 80.4924 33.4701 81.0903 24.5036C81.1691 23.2775 81.2085 22.0792 81.1888 20.9226C77.6345 20.4837 74.067 20.219 70.4864 20.1284C70.3221 21.271 70.1973 22.4623 70.1119 23.6816H70.1184Z" fill="#446993"/>
<path d="M82.0946 21.6195C81.4967 30.579 83.4677 38.0336 86.4965 38.2635C89.4135 38.4795 92.2583 31.8957 92.9941 23.3961C91.1414 22.7342 89.223 22.2187 87.2389 21.8564C85.5438 21.5498 83.8422 21.2781 82.1406 21.0552C82.1209 21.2502 82.1077 21.4314 82.0946 21.6265V21.6195Z" fill="#446993"/>
<path d="M58.483 20.7342C58.0691 29.2965 60.0138 36.2774 62.9375 36.5003C65.9662 36.7302 68.9095 29.6379 69.5008 20.6784C69.514 20.4834 69.5271 20.3022 69.5337 20.1071C67.5627 20.0723 65.5851 20.0932 63.6076 20.1699C61.8665 20.2326 60.1518 20.4276 58.483 20.7411V20.7342Z" fill="#446993"/>
<path d="M37.6223 22.3654C37.6223 22.3654 36.6105 24.3997 36.3083 26.7476C36.0258 28.9143 37.1558 30.6699 38.7261 31.4851C42.3987 27.6393 46.8203 24.6017 51.7149 22.6301C51.7477 21.4457 51.3601 20.2474 50.5126 19.3069C47.1093 15.5238 42.3264 11.3646 38.6604 12.6395C32.2809 14.862 37.6223 22.3654 37.6223 22.3654Z" fill="white"/>
<path d="M26.2823 56.2655C26.5911 51.5837 27.8722 43.8017 32.4909 36.361C29.2388 27.3945 25.1128 12.4574 31.2032 6.84907C34.2648 4.03443 39.4616 4.57088 47.0959 8.50023C52.6081 11.3358 58.2385 15.3627 62.1476 18.3724C65.7743 18.0658 70.3995 18.1285 75.9643 18.5744C83.8416 19.1248 89.7612 20.142 93.5455 21.5981C95.8909 22.5038 98.1313 23.5558 100.194 24.7332C100.956 25.1651 101.239 26.1684 100.832 26.9765C100.549 27.5339 100.01 27.8474 99.4584 27.8474C99.2088 27.8474 98.9591 27.7847 98.7226 27.6523C96.791 26.5515 94.6952 25.5622 92.4877 24.7192C88.9728 23.3746 83.3489 22.4202 75.7475 21.8837C68.1657 21.2776 62.4696 21.3821 58.8101 22.1972C56.5106 22.7058 54.3031 23.3746 52.2467 24.1758C51.4386 24.4893 50.5385 24.0504 50.2429 23.1935C49.9472 22.3366 50.3612 21.3821 51.1693 21.0686C53.2191 20.2674 55.4069 19.6055 57.6735 19.076C45.5914 10.2002 36.3737 6.47982 33.253 9.35716C30.0206 12.332 30.5856 21.1452 34.705 33.191C35.881 31.6722 37.2213 30.1883 38.7455 28.767C39.3959 28.1609 40.3814 28.2306 40.9464 28.9203C41.5114 29.61 41.4523 30.6551 40.8019 31.2542C31.7813 39.6424 29.7841 50.678 29.3965 56.5093C29.0482 61.7763 29.2913 67.1618 30.1323 72.4984C31.7091 82.5587 38.6929 90.8075 47.9237 93.5246C55.4332 95.7262 63.0937 97.1335 70.7083 97.7048C78.3163 98.2761 86.0951 98.0253 93.8148 96.9593C103.308 95.6496 111.317 88.5154 114.215 78.7965C115.752 73.6341 116.711 68.3462 117.059 63.0722C117.447 57.2409 116.934 46.0171 109.116 36.3749C108.558 35.6782 108.63 34.6401 109.281 34.041C109.931 33.4488 110.916 33.5254 111.481 34.2152C120.029 44.7631 120.594 56.9692 120.173 63.3091C119.806 68.8408 118.8 74.3865 117.191 79.7928C113.932 90.7379 104.911 98.7707 94.2156 100.241C89.0451 100.951 83.8548 101.307 78.7039 101.307C75.9511 101.307 73.2049 101.202 70.4849 101C62.6667 100.415 54.7959 98.9728 47.0893 96.7085C36.6957 93.657 28.8314 84.3631 27.051 73.0419C26.1706 67.4474 25.9144 61.8042 26.2823 56.2725V56.2655Z" fill="#4C6396"/>
<path d="M53.6067 59.8396C54.4214 59.8396 55.1047 59.1708 55.1638 58.2999C55.2886 56.4188 54.717 54.5935 53.5476 53.1722C52.3781 51.744 50.7619 50.8871 48.9815 50.7547C45.3154 50.483 42.1224 53.4231 41.8662 57.3036C41.8071 58.2163 42.4509 59.0036 43.3116 59.0732C44.1723 59.1429 44.9147 58.4532 44.9804 57.5405C45.1184 55.4713 46.82 53.9107 48.7647 54.057C49.7107 54.1267 50.5714 54.5865 51.189 55.339C51.8066 56.0984 52.1153 57.0668 52.0496 58.07C51.9905 58.9827 52.6344 59.7699 53.495 59.8396C53.5345 59.8396 53.5673 59.8396 53.6067 59.8396Z" fill="#4C6396"/>
<path d="M92.0735 62.7175C92.8882 62.7175 93.5715 62.0487 93.6306 61.1778C93.7554 59.2967 93.1839 57.4714 92.0144 56.0501C90.845 54.6219 89.2287 53.765 87.4483 53.6326C85.6744 53.5002 83.9531 54.1064 82.6128 55.3465C81.266 56.5866 80.4579 58.3005 80.333 60.1885C80.2739 61.1012 80.9177 61.8884 81.7784 61.9581C82.6325 62.0278 83.3815 61.338 83.4472 60.4254C83.5129 59.4221 83.9465 58.5095 84.656 57.8546C85.3722 57.1997 86.2854 56.8722 87.2315 56.9419C88.1776 57.0116 89.0382 57.4714 89.6558 58.2238C90.2734 58.9832 90.5822 59.9516 90.5165 60.9549C90.4573 61.8675 91.1012 62.6548 91.9618 62.7245C92.0013 62.7245 92.0341 62.7245 92.0735 62.7245V62.7175Z" fill="#4C6396"/>
<path d="M43.1542 66.9246C43.9689 66.9246 44.6522 66.2558 44.7113 65.385C44.7705 64.4723 44.1266 63.685 43.2659 63.6154L35.2177 63.0162C34.3571 62.9535 33.6147 63.6363 33.549 64.5489C33.4898 65.4616 34.1337 66.2489 34.9944 66.3185L43.0425 66.9177C43.082 66.9177 43.1148 66.9177 43.1542 66.9177V66.9246Z" fill="#446993"/>
<path d="M36.0376 74.4414C36.1822 74.4414 36.3267 74.4205 36.4778 74.3717L43.2317 72.2817C44.0596 72.0239 44.5326 71.1043 44.2895 70.2264C44.0464 69.3486 43.1792 68.847 42.3514 69.1047L35.5975 71.1948C34.7696 71.4526 34.2966 72.3722 34.5397 73.2501C34.7368 73.9746 35.3609 74.4414 36.0376 74.4414Z" fill="#446993"/>
<path d="M99.3457 71.1257C100.16 71.1257 100.844 70.4569 100.903 69.586C100.962 68.6733 100.318 67.8861 99.4573 67.8164L91.4091 67.2172C90.5485 67.1476 89.8061 67.8373 89.7404 68.75C89.6812 69.6626 90.3251 70.4499 91.1858 70.5196L99.234 71.1187C99.2734 71.1187 99.3062 71.1187 99.3457 71.1187V71.1257Z" fill="#446993"/>
<path d="M97.3472 79.0328C97.9385 79.0328 98.5101 78.6705 98.7729 78.0574C99.1277 77.2214 98.7795 76.246 97.9977 75.8698L91.5854 72.7904C90.797 72.4142 89.8772 72.7835 89.5224 73.6125C89.1676 74.4485 89.5158 75.4239 90.2977 75.8001L96.7099 78.8795C96.9202 78.9771 97.137 79.0258 97.3538 79.0258L97.3472 79.0328Z" fill="#446993"/>
<path d="M56.7729 47.9616C57.5876 47.9616 58.2708 47.2928 58.33 46.4219C58.3891 45.5093 57.7453 44.722 56.8846 44.6523L52.6667 44.3388C51.806 44.2692 51.0636 44.9589 50.9979 45.8716C50.9388 46.7842 51.5826 47.5715 52.4433 47.6412L56.6612 47.9547C56.7006 47.9547 56.7335 47.9547 56.7729 47.9547V47.9616Z" fill="white"/>
<path d="M84.55 50.0379C85.3647 50.0379 86.0479 49.3691 86.1071 48.4982C86.1662 47.5856 85.5224 46.7983 84.6617 46.7286L80.4438 46.4151C79.5831 46.3524 78.8407 47.0352 78.775 47.9478C78.7159 48.8605 79.3597 49.6478 80.2204 49.7175L84.4383 50.031C84.4777 50.031 84.5106 50.031 84.55 50.031V50.0379Z" fill="white"/>
<path d="M53.2781 66.1447C53.6854 67.9213 54.395 69.5725 55.3542 71.0425C56.7733 73.2301 58.7377 75.0067 61.0635 76.1353C62.4169 76.7972 63.8952 77.2291 65.4588 77.4103C69.7096 77.877 73.7172 76.2886 76.5949 73.3973C77.5147 72.4707 78.3162 71.4117 78.9732 70.2413C79.19 69.8581 79.3871 69.461 79.5777 69.0569C80.6354 66.716 79.1637 63.971 76.7263 63.6993L57.1018 61.5257C54.6644 61.2609 52.6934 63.6297 53.2716 66.1447H53.2781Z" fill="#4C6396"/>
<path d="M61.0632 76.1423C62.4166 76.8041 63.8949 77.2361 65.4585 77.4172C69.7093 77.884 73.7169 76.2955 76.5946 73.4043C77.5144 72.4777 78.3159 71.4187 78.9729 70.2482C75.9507 68.3602 71.2006 66.2701 67.0024 68.3184C63.816 69.872 62.0356 73.1256 61.0566 76.1492L61.0632 76.1423Z" fill="#FD80A6"/>
<path d="M52.8776 61.7207C53.9748 60.3901 55.6173 59.7073 57.2729 59.8884L65.6824 60.822L65.9387 58.2582L65.5182 58.2164C64.6575 58.1397 64.0268 57.3316 64.0991 56.4259C64.1713 55.5132 64.9335 54.8444 65.7875 54.921L70.3011 55.339C71.1618 55.4157 71.7925 56.2238 71.7202 57.1295C71.6479 57.9934 70.9647 58.6414 70.1697 58.6414C70.1237 58.6414 70.0777 58.6414 70.0317 58.6414L69.0528 58.5508L68.79 61.1704L76.8908 62.0691C78.5464 62.2502 80.0181 63.2813 80.8327 64.828C81.6408 66.3538 81.6934 68.207 80.9839 69.7815C78.3756 75.5501 72.8568 79.1659 66.911 79.1659C66.3788 79.1659 65.8401 79.1381 65.2948 79.0754C58.7577 78.3508 53.3178 73.3137 51.7607 66.5419C51.3731 64.8489 51.787 63.0445 52.871 61.7277L52.8776 61.7207ZM54.8026 65.7476C56.0443 71.1609 60.4002 75.1878 65.6299 75.773C70.8596 76.3513 75.9053 73.3625 78.1719 68.3393C78.4479 67.7262 78.4281 67.0295 78.1128 66.4304C77.7909 65.8173 77.2258 65.4202 76.5688 65.3505L56.951 63.1838C56.294 63.1072 55.6698 63.3719 55.2296 63.9014C54.8026 64.4169 54.6449 65.0927 54.796 65.7546L54.8026 65.7476Z" fill="#4C6396"/>
<path d="M23.9855 80.916C19.4982 81.9122 16.752 86.7264 18.0134 91.4012C19.8595 98.2706 23.9001 108.742 32.7235 119.896C47.0592 138.024 74.3442 151.449 97.3653 152.104C99.4939 152.167 100.952 149.833 100.066 147.778L96.2024 138.79C94.9344 135.836 96.8594 132.457 99.9144 132.276L109.211 131.719C111.34 131.593 112.608 129.141 111.57 127.169C100.309 105.858 76.4071 86.4965 54.6146 81.4663C41.1988 78.373 30.5751 79.4459 23.9855 80.909V80.916Z" fill="#C96BFF"/>
<path d="M97.4434 153.762C98.9348 153.762 100.315 152.981 101.142 151.651C101.996 150.285 102.121 148.578 101.484 147.094L97.6208 138.107C97.2332 137.208 97.2858 136.205 97.7719 135.355C98.2581 134.505 99.0662 133.989 99.9992 133.934L109.296 133.376C110.84 133.286 112.2 132.373 112.942 130.938C113.684 129.503 113.678 127.796 112.922 126.368C101.372 104.498 76.9846 84.9423 54.9359 79.8564C41.2375 76.7004 30.3642 77.8081 23.6563 79.299C21.094 79.8703 18.8471 81.5563 17.5002 83.9251C16.1468 86.2938 15.7855 89.1851 16.5016 91.8604C18.3806 98.8482 22.5066 109.57 31.514 120.961C46.0139 139.291 73.6865 153.093 97.3121 153.762C97.3515 153.762 97.3909 153.762 97.4369 153.762H97.4434ZM37.6109 81.1383C42.4661 81.1383 48.0637 81.6608 54.2789 83.0891C75.5327 87.9868 99.0531 106.867 110.209 127.984C110.531 128.597 110.321 129.14 110.209 129.342C110.104 129.551 109.782 130.032 109.118 130.067L99.8218 130.624C97.8705 130.743 96.1098 131.871 95.098 133.641C94.0862 135.411 93.9679 137.591 94.776 139.479L98.6392 148.467C98.9151 149.108 98.6589 149.63 98.5406 149.825C98.4158 150.02 98.0676 150.466 97.404 150.452C74.5931 149.804 47.8863 136.504 33.912 118.829C25.2594 107.884 21.3042 97.629 19.5106 90.9477C19.0245 89.1294 19.261 87.2413 20.1808 85.632C21.1006 84.0226 22.5657 82.9218 24.3067 82.5317C27.6903 81.7793 32.1841 81.1313 37.6109 81.1313V81.1383Z" fill="#843AD9"/>
<path d="M105.806 123.545C112.172 119.672 113.749 110.671 105.602 104.303L103.231 109.375C103.231 109.375 75.7353 98.6944 72.5818 111.13C69.4216 123.566 97.0154 128.889 105.799 123.545H105.806Z" fill="#ADBED9"/>
<path d="M95.912 127.294C100.136 127.294 103.993 126.562 106.588 124.981C110.983 122.306 113.336 117.415 112.587 112.517C112.054 109.047 109.072 100.604 92.8372 97.1201C91.9897 96.939 91.3721 100.186 92.2197 100.367C102.153 102.499 108.618 107.243 109.505 113.053C110.051 116.627 108.342 120.104 105.038 122.117C99.4532 125.517 83.981 124.194 76.9445 118.446C74.3888 116.356 73.4625 114.112 74.1063 111.57C74.5005 110.009 75.394 108.866 76.8328 108.079C79.8879 106.4 85.2818 106.337 92.4299 107.905C98.0078 109.124 102.666 110.922 102.712 110.942C103.52 111.256 104.42 110.817 104.716 109.96C105.011 109.103 104.597 108.149 103.789 107.835C102.994 107.529 84.1846 100.318 75.4006 105.146C73.1734 106.372 71.7214 108.246 71.0973 110.72C70.1118 114.579 71.4783 118.16 75.0458 121.079C79.8813 125.03 88.4814 127.315 95.9251 127.315L95.912 127.294Z" fill="#4C6396"/>
<path d="M21.8832 107.634C25.858 104.283 31.6396 104.98 34.7997 109.195C37.9599 113.41 37.3029 119.541 33.328 122.892C29.3532 126.243 25.4178 123.985 22.2577 119.777C19.0975 115.562 17.9084 110.992 21.8832 107.641V107.634Z" fill="#ADBED9"/>
<path d="M29.3593 126.159C31.0675 126.159 32.7428 125.497 34.2999 124.18C38.9383 120.265 39.7136 113.075 36.0213 108.156C32.3289 103.237 25.5487 102.415 20.9104 106.331C18.6437 108.247 17.5794 110.734 17.8422 113.534C18.0524 115.813 19.1299 118.251 21.0352 120.794C22.9405 123.337 24.9443 124.995 26.9876 125.727C27.7825 126.012 28.5709 126.152 29.3593 126.152V126.159ZM27.5986 107.174C29.8455 107.174 32.0727 108.219 33.5772 110.225C36.1986 113.716 35.6533 118.822 32.3552 121.595C30.9164 122.807 29.4841 123.135 27.9862 122.598C26.5408 122.083 24.9837 120.745 23.4792 118.739C21.9747 116.732 21.1009 114.823 20.9498 113.214C20.7921 111.542 21.4162 110.142 22.8551 108.922C24.2545 107.738 25.9364 107.167 27.5986 107.167V107.174Z" fill="#4C6396"/>
<path d="M22.7562 87.0805C23.2752 86.356 24.2607 86.2166 24.944 86.767C25.2068 86.983 51.8545 108.385 91.1691 129.196C91.9378 129.607 92.2532 130.596 91.8655 131.418C91.5896 131.996 91.0443 132.331 90.4661 132.331C90.2296 132.331 89.9931 132.275 89.7697 132.157C83.0749 128.61 76.7481 125.05 70.8483 121.581C70.8614 124.472 70.5066 128.638 68.5619 130.958C67.583 132.122 66.2887 132.735 64.817 132.735C57.8989 132.735 50.0149 117.568 47.9914 107.271C32.4469 96.9457 23.2095 89.5259 23.0519 89.4005C22.3686 88.8501 22.2372 87.8051 22.7562 87.0805ZM64.8236 129.426C65.4083 129.426 65.8485 129.217 66.2361 128.757C67.6618 127.057 67.8721 122.605 67.6618 119.686C61.9197 116.244 56.6177 112.914 51.8282 109.793C54.5548 119.254 61.0327 129.426 64.8236 129.426Z" fill="#843AD9"/>
<path d="M102.076 33.1352C102.076 33.1352 133.382 66.9735 136.279 50.9844C139.216 34.8072 112.331 31.5815 112.331 31.5815L102.076 33.1352Z" fill="#FFBE46"/>
<path d="M131.935 56.9277C132.612 56.9277 133.236 56.8372 133.814 56.6491C135.279 56.1823 137.165 54.8725 137.815 51.2985C138.505 47.5015 137.783 44.0389 135.68 41.0013C129.485 32.0628 113.198 30.0145 112.508 29.9309C111.654 29.8264 110.879 30.4813 110.78 31.387C110.682 32.2927 111.299 33.1148 112.153 33.2193C112.344 33.2402 127.79 35.1979 133.164 42.966C134.754 45.2581 135.266 47.7802 134.747 50.6714C134.366 52.7894 133.519 53.291 132.914 53.4791C128.847 54.7749 119.406 47.174 115.543 43.8508C108.927 38.1519 103.251 32.0349 103.192 31.9792C102.587 31.3243 101.602 31.3173 100.984 31.9583C100.367 32.5992 100.36 33.6443 100.965 34.2991C101.024 34.3618 106.805 40.5972 113.559 46.4077C121.752 53.4652 127.803 56.9277 131.942 56.9347L131.935 56.9277Z" fill="#446993"/>
<path d="M117.16 44.9444C117.16 44.9444 94.651 38.5766 68.542 19.4384C68.542 19.4384 75.5916 6.43814 84.6712 2.33462C84.6712 2.33462 96.9636 -0.215275 106.116 4.71034C106.116 4.71034 119.315 10.0052 122.79 22.3924C122.79 22.3924 123.217 33.3514 117.166 44.9513L117.16 44.9444Z" fill="#FFBE46"/>
<path d="M117.16 46.5957C117.719 46.5957 118.244 46.2752 118.527 45.7388C124.722 33.8741 124.361 22.7758 124.348 22.309C124.348 22.1696 124.321 22.0373 124.282 21.9049C120.734 9.26689 108.008 3.70728 106.747 3.18476C97.24 -1.88717 84.895 0.593061 84.3695 0.697565C84.2643 0.718466 84.1592 0.7533 84.0541 0.802068C74.5999 5.0728 67.4781 18.0522 67.1825 18.6026C66.7751 19.348 66.9788 20.3025 67.6489 20.7902C93.6791 39.8726 116.523 46.4703 116.753 46.533C116.884 46.5678 117.022 46.5887 117.154 46.5887L117.16 46.5957ZM121.233 22.6504C121.247 24.0855 121.135 33.2122 116.385 42.9799C114.296 42.311 109.572 40.6808 103.186 37.8104C95.4004 34.32 83.5351 28.2448 70.658 18.9649C72.6487 15.6834 78.3514 7.07927 85.1316 3.92325C86.5507 3.66548 97.3977 1.86801 105.413 6.18054C105.466 6.20841 105.512 6.22931 105.564 6.25021C105.689 6.29897 117.935 11.3639 121.233 22.6434V22.6504Z" fill="#446993"/>
<path d="M94.7294 27.91L79.2703 19.4313C79.2703 19.4313 83.2911 9.37103 91.2079 12.743C99.1312 16.115 94.7294 27.91 94.7294 27.91Z" fill="#4874D7"/>
<path d="M94.7291 29.5611C94.9131 29.5611 95.097 29.5263 95.2744 29.4566C95.6883 29.2894 96.0168 28.948 96.1811 28.5161C97.9024 23.904 99.1967 14.3523 91.7924 11.2033C84.4012 8.06119 79.4343 14.7912 77.8378 18.7833C77.5224 19.5775 77.8378 20.5041 78.5605 20.9012L94.0196 29.38C94.2429 29.5054 94.4926 29.5681 94.7357 29.5681L94.7291 29.5611ZM88.0343 13.7044C88.8687 13.7044 89.7294 13.8995 90.6295 14.2757C95.3992 16.3031 94.5583 22.4688 93.8028 25.5342L81.3855 18.7276C81.8454 17.9194 82.5287 16.8744 83.4288 15.9408C84.8742 14.4499 86.3984 13.7044 88.0343 13.7044Z" fill="#446993"/>
<path d="M110.491 99.3908C110.491 99.3908 116.778 88.4806 126.213 90.097C135.647 91.7133 134.123 101.718 129.149 102.986C124.176 104.261 120.72 96.7713 110.497 99.3908H110.491Z" fill="#93F6F8"/>
<path d="M21.2827 69C21.2827 69 11.1089 64.4456 4.68587 70.6012C-1.7372 76.7567 4.35003 83.1686 8.7763 81.4594C13.208 79.7527 12.176 72.5143 21.2827 69Z" fill="#93F6F8"/>
</svg>
