<svg width="390" height="341" viewBox="0 0 390 341" fill="none" xmlns="http://www.w3.org/2000/svg">
<g clip-path="url(#clip0_3641_12046)">
<path d="M400.995 106.072C378.826 84.7284 310.259 125.658 280.099 145.453C264.939 143.238 245.446 142.586 223.117 143.117C200.785 143.448 181.332 144.852 166.267 147.651C135.375 129.034 65.3 90.8063 43.9853 112.965C22.7936 134.995 48.5843 193.818 61.7442 220.001C47.2641 245.589 42.3034 273.401 42.7581 297.271C43.1513 317.906 46 338.469 51.3298 358.985C61.7449 399.016 94.1122 429.293 134.794 436.735C166.217 442.449 197.555 445.03 228.858 444.425C260.16 443.821 291.378 440.058 322.559 433.11C362.928 424.103 394.119 392.624 403.001 352.195C407.545 331.49 409.609 310.832 409.216 290.196C408.761 266.326 402.77 238.751 387.326 213.74C399.454 187.094 423.01 127.268 400.995 106.072Z" fill="#ADBED9"/>
<path d="M245.551 157.402C246.201 191.552 236.801 219.425 224.595 219.661C212.388 219.897 201.886 192.409 201.236 158.259C201.147 153.57 201.236 149.028 201.529 144.658C215.929 143.728 230.317 143.449 244.742 143.847C245.201 148.203 245.463 152.763 245.551 157.402Z" fill="#446993"/>
<path d="M197.773 147.084C198.421 181.208 189.045 209.105 176.813 209.342C164.581 209.579 154.893 184.008 153.601 151.577C161.183 149.449 169.002 147.868 177.057 146.909C183.938 146.098 190.845 145.413 197.731 144.903C197.77 145.63 197.783 146.332 197.798 147.084L197.773 147.084Z" fill="#446993"/>
<path d="M292.916 148.613C292.908 181.194 283.724 207.282 271.918 207.51C260.112 207.739 249.259 180.234 248.611 146.11C248.597 145.383 248.584 144.681 248.595 143.929C256.524 144.201 264.482 144.699 272.418 145.373C279.4 145.965 286.267 147.061 292.941 148.588L292.916 148.613Z" fill="#446993"/>
<path d="M70.4521 165.012C70.4521 165.012 67.0706 173.079 66.6652 182.066C66.2719 190.376 71.3797 196.599 77.9712 199.105C91.4077 183.219 108.107 170.129 127.061 160.909C126.8 156.424 124.835 152.023 121.113 148.784C106.172 135.703 85.572 121.678 71.3231 127.822C46.4807 138.536 70.4521 165.012 70.4521 165.012Z" fill="white"/>
<path d="M222.034 139.497L262.718 56.2399C269.136 43.0982 313.878 51.7407 362.619 75.5563C411.359 99.3718 445.676 129.36 439.258 142.502L398.574 225.759C392.156 238.901 347.414 230.258 298.673 206.443C249.933 182.627 215.615 152.639 222.034 139.497Z" fill="white"/>
<path d="M407.17 145.553C406.744 145.561 406.342 145.519 405.915 145.452C386.539 141.712 362.634 133.17 338.593 121.419C316.501 110.609 296.254 98.0072 281.633 85.9241C279.086 83.8162 278.713 80.011 280.82 77.4621C282.928 74.9133 286.731 74.5389 289.279 76.6467C303.186 88.1416 322.57 100.208 343.853 110.607C366.958 121.9 389.803 130.087 408.172 133.645C411.443 134.284 413.559 137.429 412.919 140.702C412.372 143.546 409.903 145.525 407.146 145.579L407.17 145.553Z" fill="#E3E3E3"/>
<path d="M383.161 237.948C377.572 238.056 370.966 237.381 363.341 235.897C343.965 232.158 320.059 223.615 296.018 211.864C271.976 200.113 250.557 186.505 235.693 173.498C218.509 158.479 212.081 146.137 216.617 136.844L257.301 53.5874C261.838 44.2946 275.503 41.7733 297.925 46.1312C317.301 49.8707 341.206 58.4138 365.248 70.1649C389.289 81.916 410.708 95.5237 425.573 108.53C442.757 123.549 449.185 135.891 444.648 145.184L403.964 228.441C400.972 234.569 394.013 237.738 383.186 237.947L383.161 237.948ZM227.424 142.154C226.7 143.648 228.117 150.92 243.594 164.466C257.693 176.786 278.173 189.784 301.278 201.077C324.383 212.37 347.229 220.557 365.598 224.115C385.78 228.015 392.41 224.651 393.134 223.182L433.818 139.925C434.541 138.431 433.124 131.16 417.648 117.613C403.549 105.294 383.069 92.2949 359.964 81.0023C336.858 69.7097 314.013 61.5223 295.643 57.9641C275.462 54.0646 268.832 57.4282 268.108 58.897L227.424 142.154Z" fill="#E3E3E3"/>
<path d="M272.731 139.571C274.602 136.424 276.472 133.278 278.343 130.132C280.505 126.478 285.169 125.209 288.868 127.244C291.554 128.723 294.239 130.151 296.948 131.553L301.524 121.708C303.354 117.759 308.035 116.064 311.981 117.894L323.187 123.12C327.133 124.951 328.827 129.633 326.997 133.582L322.421 143.427C325.226 144.602 328.081 145.751 330.91 146.85C334.85 148.379 336.89 152.78 335.487 156.77L331.849 167.149C330.374 171.367 325.701 173.488 321.559 171.888C318.073 170.525 314.587 169.138 311.149 167.674L306.911 176.786C305.08 180.734 300.399 182.43 296.453 180.6L285.272 175.373C281.326 173.543 279.632 168.86 281.463 164.911L285.701 155.8C282.359 154.083 279.067 152.341 275.773 150.523C271.871 148.366 270.498 143.426 272.782 139.595L272.731 139.571Z" fill="#38D0BE"/>
</g>
<defs>
<clipPath id="clip0_3641_12046">
<rect width="396" height="341" fill="white" transform="translate(-6)"/>
</clipPath>
</defs>
</svg>
