<svg width="48" height="72" viewBox="0 0 48 72" fill="none" xmlns="http://www.w3.org/2000/svg">
<g filter="url(#filter0_i_293_9561)">
<circle cx="24" cy="24" r="24" fill="url(#paint0_radial_293_9561)"/>
</g>
<path d="M20 30.5V30.5C22.25 33.5 26.75 33.5 29 30.5V30.5" stroke="#DE6102" stroke-width="1.5" stroke-linecap="round"/>
<path d="M14 23V23C14.7336 20.5059 18.2664 20.5059 19 23V23" stroke="#232333" stroke-width="1.5" stroke-linecap="round"/>
<path d="M29 23V23C29.8008 20.5975 33.1992 20.5975 34 23V23" stroke="#232333" stroke-width="1.5" stroke-linecap="round"/>
<g filter="url(#filter1_f_293_9561)">
<rect x="31" y="27" width="5" height="5" rx="2.5" fill="#F72859"/>
</g>
<g filter="url(#filter2_f_293_9561)">
<rect x="12" y="27" width="5" height="5" rx="2.5" fill="#F72859"/>
</g>
<path d="M12.4201 66L11.1331 58.876H12.3161L12.8231 61.97C12.8664 62.2213 12.9098 62.5463 12.9531 62.945C12.9964 63.3437 13.0484 63.816 13.1091 64.362H13.1481C13.2261 63.9893 13.2998 63.6557 13.3691 63.361C13.4471 63.0663 13.5164 62.802 13.5771 62.568C13.6464 62.3253 13.7071 62.113 13.7591 61.931L14.6301 58.876H15.5791L16.4631 61.931C16.5151 62.113 16.5714 62.3253 16.6321 62.568C16.7014 62.802 16.7708 63.0663 16.8401 63.361C16.9181 63.6557 16.9961 63.9893 17.0741 64.362H17.1261C17.1781 63.816 17.2258 63.3437 17.2691 62.945C17.3124 62.5463 17.3558 62.2213 17.3991 61.97L17.9191 58.876H19.1021L17.8151 66H16.6841L15.4881 62.126C15.4274 61.9093 15.3668 61.684 15.3061 61.45C15.2541 61.216 15.2021 60.9083 15.1501 60.527H15.0981C15.0634 60.7783 15.0244 60.9993 14.9811 61.19C14.9378 61.3807 14.8944 61.5497 14.8511 61.697C14.8078 61.8443 14.7644 61.9873 14.7211 62.126L13.5511 66H12.4201ZM23.2142 66.13C22.2782 66.13 21.5762 65.8873 21.1082 65.402C20.6488 64.908 20.4192 64.1367 20.4192 63.088C20.4192 62.9147 20.4235 62.7283 20.4322 62.529C20.4495 62.321 20.4668 62.1173 20.4842 61.918H23.2142V62.828H21.5762V63.088C21.5762 63.634 21.6368 64.063 21.7582 64.375C21.8795 64.6783 22.0572 64.8907 22.2912 65.012C22.5338 65.1333 22.8328 65.194 23.1882 65.194C23.5782 65.194 23.9162 65.1203 24.2022 64.973C24.4882 64.8257 24.7092 64.557 24.8652 64.167C25.0212 63.777 25.0992 63.218 25.0992 62.49C25.0992 61.8487 25.0298 61.3243 24.8912 60.917C24.7525 60.5097 24.5228 60.2063 24.2022 60.007C23.8902 59.8077 23.4655 59.708 22.9282 59.708C22.6508 59.708 22.3822 59.734 22.1222 59.786C21.8622 59.8293 21.6108 59.8987 21.3682 59.994C21.1255 60.0807 20.8872 60.1933 20.6532 60.332V59.253C20.8265 59.1577 21.0388 59.0753 21.2902 59.006C21.5415 58.928 21.8188 58.8673 22.1222 58.824C22.4255 58.772 22.7418 58.746 23.0712 58.746C23.8338 58.746 24.4492 58.902 24.9172 59.214C25.3938 59.5173 25.7405 59.9507 25.9572 60.514C26.1738 61.0687 26.2822 61.7273 26.2822 62.49C26.2822 63.2527 26.1825 63.907 25.9832 64.453C25.7838 64.999 25.4588 65.415 25.0082 65.701C24.5662 65.987 23.9682 66.13 23.2142 66.13ZM29.652 66.13C29.4093 66.13 29.1797 66.091 28.963 66.013C28.7463 65.935 28.5687 65.7963 28.43 65.597C28.2913 65.3977 28.222 65.1203 28.222 64.765V59.682C28.222 59.4393 28.2437 59.2443 28.287 59.097C28.3303 58.941 28.3997 58.7893 28.495 58.642C28.599 58.4947 28.742 58.3083 28.924 58.083C29.1407 57.8143 29.301 57.5933 29.405 57.42C29.509 57.2467 29.561 57.056 29.561 56.848C29.561 56.5967 29.483 56.4103 29.327 56.289C29.1797 56.159 28.95 56.094 28.638 56.094C28.3693 56.094 28.1223 56.133 27.897 56.211C27.6803 56.289 27.4983 56.367 27.351 56.445V55.457C27.4723 55.3877 27.6543 55.3227 27.897 55.262C28.1483 55.1927 28.443 55.158 28.781 55.158C29.353 55.158 29.8123 55.288 30.159 55.548C30.5143 55.7993 30.692 56.1893 30.692 56.718C30.692 57.0647 30.627 57.368 30.497 57.628C30.367 57.888 30.2153 58.122 30.042 58.33C29.8947 58.5207 29.769 58.681 29.665 58.811C29.5697 58.9323 29.496 59.058 29.444 59.188C29.4007 59.318 29.379 59.4913 29.379 59.708V64.622C29.379 64.8213 29.4223 64.9643 29.509 65.051C29.5957 65.1377 29.73 65.181 29.912 65.181C30.0073 65.181 30.0983 65.1723 30.185 65.155C30.2717 65.1377 30.3497 65.116 30.419 65.09L30.575 65.935C30.4103 66.013 30.25 66.065 30.094 66.091C29.9467 66.117 29.7993 66.13 29.652 66.13ZM32.392 66V62.828H31.404V61.918H33.497V65.064H33.666C34.056 65.064 34.381 64.9773 34.641 64.804C34.901 64.6307 35.096 64.349 35.226 63.959C35.356 63.569 35.421 63.0533 35.421 62.412C35.421 61.7707 35.3473 61.2507 35.2 60.852C35.0613 60.4533 34.8316 60.163 34.511 59.981C34.199 59.799 33.7743 59.708 33.237 59.708C32.8296 59.708 32.4353 59.7643 32.054 59.877C31.6813 59.981 31.3216 60.1457 30.975 60.371V59.292C31.235 59.136 31.5773 59.006 32.002 58.902C32.4266 58.798 32.886 58.746 33.38 58.746C34.1686 58.746 34.797 58.8933 35.265 59.188C35.7416 59.474 36.084 59.89 36.292 60.436C36.5 60.982 36.604 61.645 36.604 62.425C36.604 63.179 36.5 63.8247 36.292 64.362C36.0926 64.8907 35.7633 65.298 35.304 65.584C34.8533 65.8613 34.2466 66 33.484 66H32.392Z" fill="#3A3A3A"/>
<defs>
<filter id="filter0_i_293_9561" x="-1" y="0" width="49" height="50" filterUnits="userSpaceOnUse" color-interpolation-filters="sRGB">
<feFlood flood-opacity="0" result="BackgroundImageFix"/>
<feBlend mode="normal" in="SourceGraphic" in2="BackgroundImageFix" result="shape"/>
<feColorMatrix in="SourceAlpha" type="matrix" values="0 0 0 0 0 0 0 0 0 0 0 0 0 0 0 0 0 0 127 0" result="hardAlpha"/>
<feOffset dx="-1" dy="2"/>
<feGaussianBlur stdDeviation="1"/>
<feComposite in2="hardAlpha" operator="arithmetic" k2="-1" k3="1"/>
<feColorMatrix type="matrix" values="0 0 0 0 1 0 0 0 0 0.980183 0 0 0 0 0.920833 0 0 0 0.6 0"/>
<feBlend mode="normal" in2="shape" result="effect1_innerShadow_293_9561"/>
</filter>
<filter id="filter1_f_293_9561" x="25" y="21" width="17" height="17" filterUnits="userSpaceOnUse" color-interpolation-filters="sRGB">
<feFlood flood-opacity="0" result="BackgroundImageFix"/>
<feBlend mode="normal" in="SourceGraphic" in2="BackgroundImageFix" result="shape"/>
<feGaussianBlur stdDeviation="3" result="effect1_foregroundBlur_293_9561"/>
</filter>
<filter id="filter2_f_293_9561" x="6" y="21" width="17" height="17" filterUnits="userSpaceOnUse" color-interpolation-filters="sRGB">
<feFlood flood-opacity="0" result="BackgroundImageFix"/>
<feBlend mode="normal" in="SourceGraphic" in2="BackgroundImageFix" result="shape"/>
<feGaussianBlur stdDeviation="3" result="effect1_foregroundBlur_293_9561"/>
</filter>
<radialGradient id="paint0_radial_293_9561" cx="0" cy="0" r="1" gradientUnits="userSpaceOnUse" gradientTransform="translate(39) rotate(125.293) scale(54.5206)">
<stop stop-color="#FFFAEB"/>
<stop offset="0.21875" stop-color="#F5D163"/>
<stop offset="0.494792" stop-color="#FAD967"/>
<stop offset="0.791667" stop-color="#F2B456"/>
<stop offset="1" stop-color="#F78228"/>
</radialGradient>
</defs>
</svg>
