<svg width="48" height="72" viewBox="0 0 48 72" fill="none" xmlns="http://www.w3.org/2000/svg">
<g clip-path="url(#clip0_293_9135)">
<g filter="url(#filter0_i_293_9135)">
<circle cx="24" cy="24" r="24" fill="url(#paint0_radial_293_9135)"/>
</g>
<path d="M18.2983 30.7248L16.5 30.5C16.5 34.6421 19.8579 38 24 38H25C29.1421 38 32.5 34.6421 32.5 30.5L30.7017 30.7248C26.5833 31.2396 22.4167 31.2396 18.2983 30.7248Z" fill="#F72859" stroke="#F72859" stroke-width="1.5" stroke-linecap="round"/>
<path d="M12 23V23C13.2869 19.8748 17.7131 19.8748 19 23V23" stroke="#232333" stroke-width="1.5" stroke-linecap="round"/>
<path d="M29 23V23C30.3869 20.028 34.6131 20.028 36 23V23" stroke="#232333" stroke-width="1.5" stroke-linecap="round"/>
<g filter="url(#filter1_f_293_9135)">
<rect x="31" y="27" width="5" height="5" rx="2.5" fill="#F72859"/>
</g>
<g filter="url(#filter2_f_293_9135)">
<rect x="12" y="27" width="5" height="5" rx="2.5" fill="#F72859"/>
</g>
<path d="M43.0394 11.3221C43.3178 10.3591 44.6822 10.3591 44.9606 11.3221L45.056 11.6519C45.2052 12.1679 45.7354 12.4738 46.2568 12.3448L46.5759 12.2659C47.5543 12.0238 48.2357 13.2174 47.5299 13.9369L47.3333 14.1373C46.9518 14.5262 46.9518 15.149 47.3333 15.5379L47.5299 15.7383C48.2357 16.4578 47.5543 17.6514 46.5759 17.4093L46.3468 17.3527C45.7905 17.215 45.2325 17.5722 45.1246 18.1351L44.9821 18.8781C44.7746 19.9604 43.2254 19.9604 43.0179 18.8781L42.8754 18.1351C42.7675 17.5722 42.2095 17.215 41.6532 17.3527L41.4241 17.4093C40.4457 17.6514 39.7643 16.4578 40.4701 15.7383L40.6667 15.5379C41.0482 15.149 41.0482 14.5262 40.6667 14.1373L40.4701 13.9369C39.7643 13.2174 40.4457 12.0238 41.4241 12.2659L41.7432 12.3448C42.2646 12.4738 42.7948 12.1679 42.944 11.6519L43.0394 11.3221Z" fill="url(#paint1_linear_293_9135)"/>
</g>
<path d="M15.9657 66V61.255C15.9657 60.6917 15.8357 60.293 15.5757 60.059C15.3244 59.8163 14.8997 59.695 14.3017 59.695C13.8684 59.695 13.4524 59.7557 13.0537 59.877C12.6637 59.9897 12.2911 60.15 11.9357 60.358V59.279C12.1871 59.149 12.5251 59.0277 12.9497 58.915C13.3831 58.8023 13.8684 58.746 14.4057 58.746C14.8651 58.746 15.2551 58.798 15.5757 58.902C15.9051 59.006 16.1477 59.1967 16.3037 59.474C16.6071 59.6127 16.8151 59.8293 16.9277 60.124C17.0491 60.4187 17.1097 60.774 17.1097 61.19V66H15.9657ZM13.7297 66.13C12.9671 66.13 12.3821 65.9567 11.9747 65.61C11.5761 65.2547 11.3767 64.7477 11.3767 64.089C11.3767 63.3697 11.6367 62.815 12.1567 62.425C12.6854 62.035 13.5391 61.8053 14.7177 61.736L16.1997 61.645V62.607L14.8737 62.698C13.9897 62.7587 13.3787 62.8973 13.0407 63.114C12.7114 63.3307 12.5467 63.647 12.5467 64.063C12.5467 64.453 12.6681 64.739 12.9107 64.921C13.1621 65.103 13.5087 65.194 13.9507 65.194C14.0981 65.194 14.2324 65.1853 14.3537 65.168C14.4751 65.142 14.5921 65.1117 14.7047 65.077L14.8867 65.948C14.7221 66.0087 14.5401 66.052 14.3407 66.078C14.1501 66.1127 13.9464 66.13 13.7297 66.13ZM16.2647 59.877L15.6147 59.266C15.8401 59.2313 16.0524 59.1447 16.2517 59.006C16.4511 58.8673 16.5507 58.668 16.5507 58.408H17.6817C17.6817 58.6767 17.6167 58.915 17.4867 59.123C17.3654 59.3223 17.1964 59.487 16.9797 59.617C16.7631 59.7383 16.5247 59.825 16.2647 59.877ZM21.6632 66.13C20.9699 66.13 20.4239 65.9697 20.0252 65.649C19.6352 65.3197 19.3579 64.8777 19.1932 64.323C19.0372 63.7683 18.9592 63.1573 18.9592 62.49C18.9592 61.7533 19.0329 61.1467 19.1802 60.67C19.3362 60.1847 19.5529 59.8033 19.8302 59.526C20.1162 59.24 20.4542 59.0407 20.8442 58.928C21.2429 58.8067 21.6805 58.746 22.1572 58.746C22.8505 58.746 23.4139 58.85 23.8472 59.058C24.2892 59.2573 24.6142 59.5433 24.8222 59.916C25.0302 60.2887 25.1342 60.735 25.1342 61.255V66H23.9902V61.359C23.9902 60.8217 23.8559 60.4143 23.5872 60.137C23.3185 59.851 22.8549 59.708 22.1962 59.708C21.7975 59.708 21.4379 59.7817 21.1172 59.929C20.8052 60.0763 20.5582 60.3493 20.3762 60.748C20.2029 61.1467 20.1162 61.7317 20.1162 62.503C20.1162 63.0057 20.1639 63.4607 20.2592 63.868C20.3632 64.2667 20.5409 64.583 20.7922 64.817C21.0435 65.051 21.3945 65.168 21.8452 65.168C21.9752 65.168 22.0965 65.1593 22.2092 65.142C22.3219 65.1247 22.4302 65.0987 22.5342 65.064L22.6512 65.961C22.5125 66.0217 22.3522 66.065 22.1702 66.091C21.9969 66.117 21.8279 66.13 21.6632 66.13ZM28.7379 66.13C28.4953 66.13 28.2656 66.091 28.0489 66.013C27.8323 65.935 27.6546 65.7963 27.5159 65.597C27.3773 65.3977 27.3079 65.1203 27.3079 64.765V59.682C27.3079 59.4393 27.3296 59.2443 27.3729 59.097C27.4163 58.941 27.4856 58.7893 27.5809 58.642C27.6849 58.4947 27.8279 58.3083 28.0099 58.083C28.2266 57.8143 28.3869 57.5933 28.4909 57.42C28.5949 57.2467 28.6469 57.056 28.6469 56.848C28.6469 56.5967 28.5689 56.4103 28.4129 56.289C28.2656 56.159 28.0359 56.094 27.7239 56.094C27.4553 56.094 27.2083 56.133 26.9829 56.211C26.7663 56.289 26.5843 56.367 26.4369 56.445V55.457C26.5583 55.3877 26.7403 55.3227 26.9829 55.262C27.2343 55.1927 27.5289 55.158 27.8669 55.158C28.4389 55.158 28.8983 55.288 29.2449 55.548C29.6003 55.7993 29.7779 56.1893 29.7779 56.718C29.7779 57.0647 29.7129 57.368 29.5829 57.628C29.4529 57.888 29.3013 58.122 29.1279 58.33C28.9806 58.5207 28.8549 58.681 28.7509 58.811C28.6556 58.9323 28.5819 59.058 28.5299 59.188C28.4866 59.318 28.4649 59.4913 28.4649 59.708V64.622C28.4649 64.8213 28.5083 64.9643 28.5949 65.051C28.6816 65.1377 28.8159 65.181 28.9979 65.181C29.0933 65.181 29.1843 65.1723 29.2709 65.155C29.3576 65.1377 29.4356 65.116 29.5049 65.09L29.6609 65.935C29.4963 66.013 29.3359 66.065 29.1799 66.091C29.0326 66.117 28.8853 66.13 28.7379 66.13ZM35.0468 66V61.255C35.0468 60.6917 34.9168 60.293 34.6568 60.059C34.4055 59.8163 33.9808 59.695 33.3828 59.695C32.9495 59.695 32.5335 59.7557 32.1348 59.877C31.7448 59.9897 31.3721 60.15 31.0168 60.358V59.279C31.2681 59.149 31.6061 59.0277 32.0308 58.915C32.4641 58.8023 32.9495 58.746 33.4868 58.746C33.9461 58.746 34.3361 58.798 34.6568 58.902C34.9861 59.006 35.2288 59.1967 35.3848 59.474C35.6881 59.6127 35.8961 59.8293 36.0088 60.124C36.1301 60.4187 36.1908 60.774 36.1908 61.19V66H35.0468ZM32.8108 66.13C32.0481 66.13 31.4631 65.9567 31.0558 65.61C30.6571 65.2547 30.4578 64.7477 30.4578 64.089C30.4578 63.3697 30.7178 62.815 31.2378 62.425C31.7665 62.035 32.6201 61.8053 33.7988 61.736L35.2808 61.645V62.607L33.9548 62.698C33.0708 62.7587 32.4598 62.8973 32.1218 63.114C31.7925 63.3307 31.6278 63.647 31.6278 64.063C31.6278 64.453 31.7491 64.739 31.9918 64.921C32.2431 65.103 32.5898 65.194 33.0318 65.194C33.1791 65.194 33.3135 65.1853 33.4348 65.168C33.5561 65.142 33.6731 65.1117 33.7858 65.077L33.9678 65.948C33.8031 66.0087 33.6211 66.052 33.4218 66.078C33.2311 66.1127 33.0275 66.13 32.8108 66.13ZM35.3458 59.877L34.6958 59.266C34.9211 59.2313 35.1335 59.1447 35.3328 59.006C35.5321 58.8673 35.6318 58.668 35.6318 58.408H36.7628C36.7628 58.6767 36.6978 58.915 36.5678 59.123C36.4465 59.3223 36.2775 59.487 36.0608 59.617C35.8441 59.7383 35.6058 59.825 35.3458 59.877Z" fill="#3A3A3A"/>
<defs>
<filter id="filter0_i_293_9135" x="-1" y="0" width="49" height="50" filterUnits="userSpaceOnUse" color-interpolation-filters="sRGB">
<feFlood flood-opacity="0" result="BackgroundImageFix"/>
<feBlend mode="normal" in="SourceGraphic" in2="BackgroundImageFix" result="shape"/>
<feColorMatrix in="SourceAlpha" type="matrix" values="0 0 0 0 0 0 0 0 0 0 0 0 0 0 0 0 0 0 127 0" result="hardAlpha"/>
<feOffset dx="-1" dy="2"/>
<feGaussianBlur stdDeviation="1"/>
<feComposite in2="hardAlpha" operator="arithmetic" k2="-1" k3="1"/>
<feColorMatrix type="matrix" values="0 0 0 0 1 0 0 0 0 0.980183 0 0 0 0 0.920833 0 0 0 0.6 0"/>
<feBlend mode="normal" in2="shape" result="effect1_innerShadow_293_9135"/>
</filter>
<filter id="filter1_f_293_9135" x="25" y="21" width="17" height="17" filterUnits="userSpaceOnUse" color-interpolation-filters="sRGB">
<feFlood flood-opacity="0" result="BackgroundImageFix"/>
<feBlend mode="normal" in="SourceGraphic" in2="BackgroundImageFix" result="shape"/>
<feGaussianBlur stdDeviation="3" result="effect1_foregroundBlur_293_9135"/>
</filter>
<filter id="filter2_f_293_9135" x="6" y="21" width="17" height="17" filterUnits="userSpaceOnUse" color-interpolation-filters="sRGB">
<feFlood flood-opacity="0" result="BackgroundImageFix"/>
<feBlend mode="normal" in="SourceGraphic" in2="BackgroundImageFix" result="shape"/>
<feGaussianBlur stdDeviation="3" result="effect1_foregroundBlur_293_9135"/>
</filter>
<radialGradient id="paint0_radial_293_9135" cx="0" cy="0" r="1" gradientUnits="userSpaceOnUse" gradientTransform="translate(39) rotate(125.293) scale(54.5206)">
<stop stop-color="#FFFAEB"/>
<stop offset="0.21875" stop-color="#F5D163"/>
<stop offset="0.494792" stop-color="#FAD967"/>
<stop offset="0.791667" stop-color="#F2B456"/>
<stop offset="1" stop-color="#F78228"/>
</radialGradient>
<linearGradient id="paint1_linear_293_9135" x1="44" y1="10.5" x2="44" y2="19.5" gradientUnits="userSpaceOnUse">
<stop stop-color="white"/>
<stop offset="1" stop-color="#FFFAE8"/>
</linearGradient>
<clipPath id="clip0_293_9135">
<rect width="48" height="48" fill="white"/>
</clipPath>
</defs>
</svg>