<svg width="48" height="72" viewBox="0 0 48 72" fill="none" xmlns="http://www.w3.org/2000/svg">
<g filter="url(#filter0_i_293_9435)">
<circle cx="24" cy="24" r="24" fill="url(#paint0_radial_293_9435)"/>
</g>
<path d="M19 33.5V33.5C21.7251 29.7839 27.2749 29.7839 30 33.5V33.5" stroke="#DE6102" stroke-width="1.5" stroke-linecap="round"/>
<path d="M13 23L13.5938 23.4241C15.3323 24.6659 17.6677 24.6659 19.4062 23.4241L20 23" stroke="#232333" stroke-width="1.5" stroke-linecap="round"/>
<path d="M29 23L29.5938 23.4241C31.3323 24.6659 33.6677 24.6659 35.4062 23.4241L36 23" stroke="#232333" stroke-width="1.5" stroke-linecap="round"/>
<path d="M9.09347 66V63.53C9.09347 62.984 9.2148 62.5897 9.45747 62.347C9.70014 62.0957 10.0078 61.9223 10.3805 61.827L10.3935 61.788L8.96347 61.242V60.813C8.96347 60.4577 9.08047 60.124 9.31447 59.812C9.54847 59.4913 9.88214 59.2357 10.3155 59.045C10.7575 58.8457 11.2818 58.746 11.8885 58.746C12.4171 58.746 12.9068 58.8327 13.3575 59.006C13.8081 59.1707 14.1678 59.435 14.4365 59.799C14.7138 60.1543 14.8525 60.6223 14.8525 61.203V66H13.6955V61.32C13.6955 60.7393 13.5178 60.3277 13.1625 60.085C12.8158 59.8337 12.3868 59.708 11.8755 59.708C11.3468 59.708 10.9265 59.8207 10.6145 60.046C10.3025 60.2627 10.1465 60.54 10.1465 60.878L11.5505 61.58L11.4465 62.204C11.1258 62.204 10.8441 62.3123 10.6015 62.529C10.3675 62.737 10.2505 63.0707 10.2505 63.53V66H9.09347ZM19.3844 66.13C18.6911 66.13 18.1451 65.9697 17.7464 65.649C17.3564 65.3197 17.0791 64.8777 16.9144 64.323C16.7584 63.7683 16.6804 63.1573 16.6804 62.49C16.6804 61.7533 16.7541 61.1467 16.9014 60.67C17.0574 60.1847 17.2741 59.8033 17.5514 59.526C17.8374 59.24 18.1754 59.0407 18.5654 58.928C18.9641 58.8067 19.4017 58.746 19.8784 58.746C20.5717 58.746 21.1351 58.85 21.5684 59.058C22.0104 59.2573 22.3354 59.5433 22.5434 59.916C22.7514 60.2887 22.8554 60.735 22.8554 61.255V66H21.7114V61.359C21.7114 60.8217 21.5771 60.4143 21.3084 60.137C21.0397 59.851 20.5761 59.708 19.9174 59.708C19.5187 59.708 19.1591 59.7817 18.8384 59.929C18.5264 60.0763 18.2794 60.3493 18.0974 60.748C17.9241 61.1467 17.8374 61.7317 17.8374 62.503C17.8374 63.0057 17.8851 63.4607 17.9804 63.868C18.0844 64.2667 18.2621 64.583 18.5134 64.817C18.7647 65.051 19.1157 65.168 19.5664 65.168C19.6964 65.168 19.8177 65.1593 19.9304 65.142C20.0431 65.1247 20.1514 65.0987 20.2554 65.064L20.3724 65.961C20.2337 66.0217 20.0734 66.065 19.8914 66.091C19.7181 66.117 19.5491 66.13 19.3844 66.13ZM27.3951 66.13C26.7018 66.13 26.1558 65.9697 25.7571 65.649C25.3671 65.3197 25.0898 64.8777 24.9251 64.323C24.7691 63.7683 24.6911 63.1573 24.6911 62.49C24.6911 61.7533 24.7648 61.1467 24.9121 60.67C25.0681 60.1847 25.2848 59.8033 25.5621 59.526C25.8481 59.24 26.1861 59.0407 26.5761 58.928C26.9748 58.8067 27.4125 58.746 27.8891 58.746C28.5825 58.746 29.1458 58.85 29.5791 59.058C30.0211 59.2573 30.3461 59.5433 30.5541 59.916C30.7621 60.2887 30.8661 60.735 30.8661 61.255V66H29.7221V61.359C29.7221 60.8217 29.5878 60.4143 29.3191 60.137C29.0505 59.851 28.5868 59.708 27.9281 59.708C27.5295 59.708 27.1698 59.7817 26.8491 59.929C26.5371 60.0763 26.2901 60.3493 26.1081 60.748C25.9348 61.1467 25.8481 61.7317 25.8481 62.503C25.8481 63.0057 25.8958 63.4607 25.9911 63.868C26.0951 64.2667 26.2728 64.583 26.5241 64.817C26.7755 65.051 27.1265 65.168 27.5771 65.168C27.7071 65.168 27.8285 65.1593 27.9411 65.142C28.0538 65.1247 28.1621 65.0987 28.2661 65.064L28.3831 65.961C28.2445 66.0217 28.0841 66.065 27.9021 66.091C27.7288 66.117 27.5598 66.13 27.3951 66.13ZM29.1139 57.745C28.7499 57.745 28.4595 57.693 28.2429 57.589C28.0262 57.485 27.8702 57.3507 27.7749 57.186C27.6709 57.0213 27.6189 56.848 27.6189 56.666C27.6189 56.536 27.6405 56.3973 27.6839 56.25C27.7185 56.094 27.7662 55.9683 27.8269 55.873L28.8019 56.042C28.7845 56.0767 28.7672 56.1373 28.7499 56.224C28.7325 56.302 28.7239 56.3757 28.7239 56.445C28.7239 56.5577 28.7585 56.6573 28.8279 56.744C28.8972 56.822 29.0142 56.861 29.1789 56.861H32.4679V57.745H29.1139ZM35.4319 66.13C34.9205 66.13 34.4785 66.0433 34.1059 65.87C33.7419 65.688 33.4602 65.415 33.2609 65.051C33.0702 64.687 32.9749 64.2147 32.9749 63.634V58.876H34.1319V63.569C34.1319 64.089 34.2619 64.4833 34.5219 64.752C34.7905 65.0207 35.1762 65.155 35.6789 65.155C36.2855 65.155 36.7535 64.96 37.0829 64.57C37.4209 64.18 37.5899 63.6557 37.5899 62.997V58.876H38.7469V66H37.7849L37.7329 64.947H37.6679C37.5119 65.2937 37.2389 65.5797 36.8489 65.805C36.4675 66.0217 35.9952 66.13 35.4319 66.13Z" fill="#3A3A3A"/>
<defs>
<filter id="filter0_i_293_9435" x="-1" y="0" width="49" height="50" filterUnits="userSpaceOnUse" color-interpolation-filters="sRGB">
<feFlood flood-opacity="0" result="BackgroundImageFix"/>
<feBlend mode="normal" in="SourceGraphic" in2="BackgroundImageFix" result="shape"/>
<feColorMatrix in="SourceAlpha" type="matrix" values="0 0 0 0 0 0 0 0 0 0 0 0 0 0 0 0 0 0 127 0" result="hardAlpha"/>
<feOffset dx="-1" dy="2"/>
<feGaussianBlur stdDeviation="1"/>
<feComposite in2="hardAlpha" operator="arithmetic" k2="-1" k3="1"/>
<feColorMatrix type="matrix" values="0 0 0 0 1 0 0 0 0 0.980183 0 0 0 0 0.920833 0 0 0 0.6 0"/>
<feBlend mode="normal" in2="shape" result="effect1_innerShadow_293_9435"/>
</filter>
<radialGradient id="paint0_radial_293_9435" cx="0" cy="0" r="1" gradientUnits="userSpaceOnUse" gradientTransform="translate(39) rotate(125.293) scale(54.5206)">
<stop stop-color="#FFFAEB"/>
<stop offset="0.21875" stop-color="#F5D163"/>
<stop offset="0.494792" stop-color="#FAD967"/>
<stop offset="0.791667" stop-color="#F2B456"/>
<stop offset="1" stop-color="#F78228"/>
</radialGradient>
</defs>
</svg>
