<svg width="48" height="72" viewBox="0 0 48 72" fill="none" xmlns="http://www.w3.org/2000/svg">
<g filter="url(#filter0_i_293_9636)">
<circle cx="24" cy="24" r="24" fill="url(#paint0_radial_293_9636)"/>
</g>
<path d="M19 33.5H24.5H30" stroke="#232333" stroke-width="1.625" stroke-linecap="round"/>
<circle cx="32" cy="24" r="2" fill="#232333"/>
<circle cx="32" cy="24" r="2" fill="#232333"/>
<circle cx="32" cy="24" r="2" fill="#232333"/>
<circle cx="17" cy="24" r="2" fill="#232333"/>
<circle cx="17" cy="24" r="2" fill="#232333"/>
<circle cx="17" cy="24" r="2" fill="#232333"/>
<path d="M11.4814 66.13C11.2474 66.13 11.0221 66.091 10.8054 66.013C10.5887 65.935 10.4111 65.7963 10.2724 65.597C10.1337 65.3977 10.0644 65.1203 10.0644 64.765V58.876H11.2214V64.622C11.2214 64.8213 11.2647 64.9643 11.3514 65.051C11.4381 65.1377 11.5767 65.181 11.7674 65.181C11.8454 65.181 11.9277 65.1723 12.0144 65.155C12.1011 65.1377 12.1834 65.116 12.2614 65.09L12.4174 65.935C12.2527 66.013 12.0924 66.065 11.9364 66.091C11.7804 66.117 11.6287 66.13 11.4814 66.13ZM15.9557 66.13C15.4704 66.13 15.0457 66.0477 14.6817 65.883C14.3264 65.7097 14.0491 65.4497 13.8497 65.103C13.6591 64.7477 13.5637 64.2927 13.5637 63.738V61.931H14.7077V63.647C14.7077 64.1237 14.8334 64.4963 15.0847 64.765C15.3361 65.025 15.7131 65.155 16.2157 65.155C16.8311 65.155 17.3077 64.9643 17.6457 64.583C17.9837 64.193 18.1527 63.6817 18.1527 63.049V61.879C18.1527 61.307 18.0661 60.865 17.8927 60.553C17.7281 60.241 17.4897 60.0243 17.1777 59.903C16.8657 59.773 16.4887 59.708 16.0467 59.708C15.6307 59.708 15.2234 59.76 14.8247 59.864C14.4347 59.968 14.0534 60.137 13.6807 60.371V59.292C13.9321 59.1447 14.2787 59.019 14.7207 58.915C15.1714 58.8023 15.6611 58.746 16.1897 58.746C16.9264 58.746 17.5244 58.863 17.9837 59.097C18.4431 59.331 18.7767 59.6733 18.9847 60.124C19.2014 60.5747 19.3097 61.1337 19.3097 61.801V66H18.3607L18.2957 64.947H18.2437C18.0964 65.2937 17.8234 65.5797 17.4247 65.805C17.0347 66.0217 16.5451 66.13 15.9557 66.13ZM24.1524 66.117C23.4504 66.117 22.8871 66.026 22.4624 65.844C22.0464 65.662 21.7431 65.4063 21.5524 65.077C21.3704 64.7477 21.2794 64.3577 21.2794 63.907C21.2794 63.5083 21.3358 63.192 21.4484 62.958C21.5698 62.7153 21.7171 62.5377 21.8904 62.425C22.0724 62.3123 22.2588 62.2387 22.4494 62.204V62.152C22.2761 62.1 22.0941 62.0133 21.9034 61.892C21.7128 61.7707 21.5524 61.6017 21.4224 61.385C21.3011 61.1683 21.2404 60.8953 21.2404 60.566C21.2404 60.2627 21.3098 59.9767 21.4484 59.708C21.5871 59.4393 21.8124 59.2183 22.1244 59.045C22.4364 58.8717 22.8481 58.785 23.3594 58.785C23.5674 58.785 23.7841 58.8023 24.0094 58.837C24.2348 58.863 24.4081 58.9107 24.5294 58.98L24.3214 59.877C24.2261 59.8423 24.1004 59.812 23.9444 59.786C23.7971 59.7513 23.6411 59.734 23.4764 59.734C23.1124 59.734 22.8438 59.8207 22.6704 59.994C22.4971 60.1587 22.4104 60.3797 22.4104 60.657C22.4104 60.9603 22.4841 61.19 22.6314 61.346C22.7874 61.502 22.9824 61.6103 23.2164 61.671C23.4591 61.723 23.7104 61.749 23.9704 61.749H24.2174V62.594H23.9704C23.4504 62.594 23.0648 62.6893 22.8134 62.88C22.5708 63.062 22.4494 63.3697 22.4494 63.803C22.4494 64.0543 22.4971 64.284 22.5924 64.492C22.6964 64.7 22.8698 64.8647 23.1124 64.986C23.3638 65.1073 23.7104 65.168 24.1524 65.168C24.5944 65.168 24.9368 65.1073 25.1794 64.986C25.4308 64.8647 25.6084 64.6913 25.7124 64.466C25.8164 64.232 25.8684 63.9547 25.8684 63.634V58.876H27.0254V63.556C27.0254 64.466 26.7914 65.1203 26.3234 65.519C25.8641 65.9177 25.1404 66.117 24.1524 66.117ZM37.0031 68.613V60.462C37.0031 60.1847 36.9511 59.9897 36.8471 59.877C36.7518 59.7557 36.6045 59.695 36.4051 59.695C36.2058 59.695 36.0541 59.7557 35.9501 59.877C35.8548 59.9897 35.8071 60.1847 35.8071 60.462V61.021H34.8321V60.462C34.8321 60.1847 34.7801 59.9897 34.6761 59.877C34.5721 59.7557 34.4248 59.695 34.2341 59.695C34.0175 59.695 33.8528 59.7947 33.7401 59.994C33.6361 60.1847 33.5841 60.514 33.5841 60.982C33.5841 61.5107 33.6491 61.8747 33.7791 62.074C33.9091 62.2733 34.1041 62.373 34.3641 62.373C34.4421 62.373 34.5245 62.3643 34.6111 62.347C34.7065 62.3297 34.7975 62.3037 34.8841 62.269L35.1051 63.127C34.9665 63.1877 34.8235 63.2397 34.6761 63.283C34.5288 63.3177 34.3685 63.335 34.1951 63.335C33.5971 63.335 33.1595 63.1313 32.8821 62.724C32.6048 62.3167 32.4661 61.7447 32.4661 61.008C32.4661 60.1847 32.6135 59.604 32.9081 59.266C33.2028 58.9193 33.5971 58.746 34.0911 58.746C34.3771 58.746 34.6328 58.8023 34.8581 58.915C35.0835 59.019 35.2438 59.188 35.3391 59.422H35.3781C35.4821 59.188 35.6425 59.019 35.8591 58.915C36.0845 58.8023 36.3445 58.746 36.6391 58.746C36.9165 58.746 37.1678 58.7937 37.3931 58.889C37.6185 58.9843 37.7961 59.149 37.9261 59.383C38.0648 59.6083 38.1341 59.9247 38.1341 60.332V68.613H37.0031Z" fill="#838383"/>
<defs>
<filter id="filter0_i_293_9636" x="-1" y="0" width="49" height="50" filterUnits="userSpaceOnUse" color-interpolation-filters="sRGB">
<feFlood flood-opacity="0" result="BackgroundImageFix"/>
<feBlend mode="normal" in="SourceGraphic" in2="BackgroundImageFix" result="shape"/>
<feColorMatrix in="SourceAlpha" type="matrix" values="0 0 0 0 0 0 0 0 0 0 0 0 0 0 0 0 0 0 127 0" result="hardAlpha"/>
<feOffset dx="-1" dy="2"/>
<feGaussianBlur stdDeviation="1"/>
<feComposite in2="hardAlpha" operator="arithmetic" k2="-1" k3="1"/>
<feColorMatrix type="matrix" values="0 0 0 0 0.85098 0 0 0 0 0.85098 0 0 0 0 0.85098 0 0 0 0.2 0"/>
<feBlend mode="normal" in2="shape" result="effect1_innerShadow_293_9636"/>
</filter>
<radialGradient id="paint0_radial_293_9636" cx="0" cy="0" r="1" gradientUnits="userSpaceOnUse" gradientTransform="translate(39) rotate(125.293) scale(54.5206)">
<stop stop-color="#323D45"/>
<stop offset="0.21875" stop-color="#4B4F6B"/>
<stop offset="0.494792" stop-color="#4D5266"/>
<stop offset="0.791667" stop-color="#3E4559"/>
<stop offset="1" stop-color="#1B2126"/>
<stop offset="1" stop-color="#343340"/>
</radialGradient>
</defs>
</svg>
