<svg width="48" height="72" viewBox="0 0 48 72" fill="none" xmlns="http://www.w3.org/2000/svg">
<g opacity="0.9" clip-path="url(#clip0_293_9625)">
<g filter="url(#filter0_i_293_9625)">
<circle cx="24" cy="24" r="24" fill="url(#paint0_radial_293_9625)"/>
</g>
<path d="M14 28.5V28.5C16.7251 24.7839 22.2749 24.7839 25 28.5V28.5" stroke="#1E1E2F" stroke-width="1.5" stroke-linecap="round"/>
<path d="M8 18L8.59381 18.4241C10.3323 19.6659 12.6677 19.6659 14.4062 18.4241L15 18" stroke="#232333" stroke-width="1.5" stroke-linecap="round"/>
<path d="M24 18L24.5938 18.4241C26.3323 19.6659 28.6677 19.6659 30.4062 18.4241L31 18" stroke="#232333" stroke-width="1.5" stroke-linecap="round"/>
<path d="M29.8985 21.8121C29.9565 21.3482 30.3588 21 30.8264 21C31.2233 21 31.5806 21.2579 31.699 21.6368L33.1863 26.3961C33.5899 27.6876 32.625 29 31.272 29C30.0656 29 29.1322 27.9427 29.2818 26.7456L29.8985 21.8121Z" fill="url(#paint1_radial_293_9625)"/>
<path d="M29.8985 21.8121C29.9565 21.3482 30.3588 21 30.8264 21C31.2233 21 31.5806 21.2579 31.699 21.6368L33.1863 26.3961C33.5899 27.6876 32.625 29 31.272 29C30.0656 29 29.1322 27.9427 29.2818 26.7456L29.8985 21.8121Z" fill="#202031"/>
<path d="M7.89849 21.8121C7.95648 21.3482 8.35882 21 8.82637 21C9.22327 21 9.58061 21.2579 9.69899 21.6368L11.1863 26.3961C11.5899 27.6876 10.625 29 9.27195 29C8.06556 29 7.13217 27.9427 7.2818 26.7456L7.89849 21.8121Z" fill="url(#paint2_radial_293_9625)"/>
<path d="M7.89849 21.8121C7.95648 21.3482 8.35882 21 8.82637 21C9.22327 21 9.58061 21.2579 9.69899 21.6368L11.1863 26.3961C11.5899 27.6876 10.625 29 9.27195 29C8.06556 29 7.13217 27.9427 7.2818 26.7456L7.89849 21.8121Z" fill="#202031"/>
</g>
<path d="M9.74337 66V58.876H10.5494L10.7574 60.007H10.8094C10.9567 59.617 11.2254 59.3093 11.6154 59.084C12.0054 58.8587 12.4777 58.746 13.0324 58.746C13.5524 58.746 13.9944 58.837 14.3584 59.019C14.731 59.1923 15.017 59.461 15.2164 59.825C15.4157 60.189 15.5154 60.6613 15.5154 61.242V66H14.3584V61.307C14.3584 60.787 14.2284 60.3927 13.9684 60.124C13.7084 59.8553 13.3227 59.721 12.8114 59.721C12.404 59.721 12.0574 59.8163 11.7714 60.007C11.4854 60.1977 11.2687 60.4577 11.1214 60.787C10.974 61.1077 10.9004 61.4717 10.9004 61.879V66H9.74337ZM11.7512 57.745V57.173C11.9245 57.1383 12.1022 57.0907 12.2842 57.03C12.4662 56.9607 12.6178 56.874 12.7392 56.77C12.8605 56.6573 12.9212 56.523 12.9212 56.367C12.9212 56.263 12.8908 56.1763 12.8302 56.107C12.7608 56.029 12.6568 55.99 12.5182 55.99C12.4315 55.99 12.3448 56.0073 12.2582 56.042C12.1628 56.0767 12.0805 56.107 12.0112 56.133L11.7512 55.418C11.9245 55.2793 12.1195 55.1883 12.3362 55.145C12.5442 55.1017 12.7132 55.08 12.8432 55.08C13.1898 55.08 13.4628 55.1753 13.6622 55.366C13.8528 55.5567 13.9482 55.7993 13.9482 56.094C13.9482 56.3367 13.8875 56.549 13.7662 56.731C13.6362 56.9043 13.4888 57.043 13.3242 57.147L13.1942 56.835H15.7812V57.745H11.7512ZM20.1482 66.13C19.2122 66.13 18.5102 65.8873 18.0422 65.402C17.5829 64.908 17.3532 64.1367 17.3532 63.088C17.3532 62.9147 17.3576 62.7283 17.3662 62.529C17.3836 62.321 17.4009 62.1173 17.4182 61.918H20.1482V62.828H18.5102V63.088C18.5102 63.634 18.5709 64.063 18.6922 64.375C18.8136 64.6783 18.9912 64.8907 19.2252 65.012C19.4679 65.1333 19.7669 65.194 20.1222 65.194C20.5122 65.194 20.8502 65.1203 21.1362 64.973C21.4222 64.8257 21.6432 64.557 21.7992 64.167C21.9552 63.777 22.0332 63.218 22.0332 62.49C22.0332 61.8487 21.9639 61.3243 21.8252 60.917C21.6866 60.5097 21.4569 60.2063 21.1362 60.007C20.8242 59.8077 20.3996 59.708 19.8622 59.708C19.5849 59.708 19.3162 59.734 19.0562 59.786C18.7962 59.8293 18.5449 59.8987 18.3022 59.994C18.0596 60.0807 17.8212 60.1933 17.5872 60.332V59.253C17.7606 59.1577 17.9729 59.0753 18.2242 59.006C18.4756 58.928 18.7529 58.8673 19.0562 58.824C19.3596 58.772 19.6759 58.746 20.0052 58.746C20.7679 58.746 21.3832 58.902 21.8512 59.214C22.3279 59.5173 22.6746 59.9507 22.8912 60.514C23.1079 61.0687 23.2162 61.7273 23.2162 62.49C23.2162 63.2527 23.1166 63.907 22.9172 64.453C22.7179 64.999 22.3929 65.415 21.9422 65.701C21.5002 65.987 20.9022 66.13 20.1482 66.13ZM26.7031 66.13C26.4691 66.13 26.2438 66.091 26.0271 66.013C25.8104 65.935 25.6328 65.7963 25.4941 65.597C25.3554 65.3977 25.2861 65.1203 25.2861 64.765V58.876H26.4431V64.622C26.4431 64.8213 26.4864 64.9643 26.5731 65.051C26.6598 65.1377 26.7984 65.181 26.9891 65.181C27.0671 65.181 27.1494 65.1723 27.2361 65.155C27.3228 65.1377 27.4051 65.116 27.4831 65.09L27.6391 65.935C27.4744 66.013 27.3141 66.065 27.1581 66.091C27.0021 66.117 26.8504 66.13 26.7031 66.13ZM30.2521 66.13C30.0181 66.13 29.7928 66.091 29.5761 66.013C29.3594 65.935 29.1818 65.7963 29.0431 65.597C28.9044 65.3977 28.8351 65.1203 28.8351 64.765V58.876H29.9921V64.622C29.9921 64.8213 30.0354 64.9643 30.1221 65.051C30.2088 65.1377 30.3474 65.181 30.5381 65.181C30.6161 65.181 30.6984 65.1723 30.7851 65.155C30.8718 65.1377 30.9541 65.116 31.0321 65.09L31.1881 65.935C31.0234 66.013 30.8631 66.065 30.7071 66.091C30.5511 66.117 30.3994 66.13 30.2521 66.13ZM32.5188 66V58.876H33.3248L33.5328 60.007H33.5848C33.7321 59.617 34.0008 59.3093 34.3908 59.084C34.7808 58.8587 35.2531 58.746 35.8078 58.746C36.3278 58.746 36.7698 58.837 37.1338 59.019C37.5064 59.1923 37.7924 59.461 37.9918 59.825C38.1911 60.189 38.2908 60.6613 38.2908 61.242V66H37.1338V61.307C37.1338 60.787 37.0038 60.3927 36.7438 60.124C36.4838 59.8553 36.0981 59.721 35.5868 59.721C35.1794 59.721 34.8328 59.8163 34.5468 60.007C34.2608 60.1977 34.0441 60.4577 33.8968 60.787C33.7494 61.1077 33.6758 61.4717 33.6758 61.879V66H32.5188ZM34.5265 57.745V57.173C34.6999 57.1383 34.8775 57.0907 35.0595 57.03C35.2415 56.9607 35.3932 56.874 35.5145 56.77C35.6359 56.6573 35.6965 56.523 35.6965 56.367C35.6965 56.263 35.6662 56.1763 35.6055 56.107C35.5362 56.029 35.4322 55.99 35.2935 55.99C35.2069 55.99 35.1202 56.0073 35.0335 56.042C34.9382 56.0767 34.8559 56.107 34.7865 56.133L34.5265 55.418C34.6999 55.2793 34.8949 55.1883 35.1115 55.145C35.3195 55.1017 35.4885 55.08 35.6185 55.08C35.9652 55.08 36.2382 55.1753 36.4375 55.366C36.6282 55.5567 36.7235 55.7993 36.7235 56.094C36.7235 56.3367 36.6629 56.549 36.5415 56.731C36.4115 56.9043 36.2642 57.043 36.0995 57.147L35.9695 56.835H38.5565V57.745H34.5265Z" fill="#838383"/>
<defs>
<filter id="filter0_i_293_9625" x="-1" y="0" width="49" height="50" filterUnits="userSpaceOnUse" color-interpolation-filters="sRGB">
<feFlood flood-opacity="0" result="BackgroundImageFix"/>
<feBlend mode="normal" in="SourceGraphic" in2="BackgroundImageFix" result="shape"/>
<feColorMatrix in="SourceAlpha" type="matrix" values="0 0 0 0 0 0 0 0 0 0 0 0 0 0 0 0 0 0 127 0" result="hardAlpha"/>
<feOffset dx="-1" dy="2"/>
<feGaussianBlur stdDeviation="1"/>
<feComposite in2="hardAlpha" operator="arithmetic" k2="-1" k3="1"/>
<feColorMatrix type="matrix" values="0 0 0 0 0.85098 0 0 0 0 0.85098 0 0 0 0 0.85098 0 0 0 0.2 0"/>
<feBlend mode="normal" in2="shape" result="effect1_innerShadow_293_9625"/>
</filter>
<radialGradient id="paint0_radial_293_9625" cx="0" cy="0" r="1" gradientUnits="userSpaceOnUse" gradientTransform="translate(39) rotate(125.293) scale(54.5206)">
<stop stop-color="#323D45"/>
<stop offset="0.21875" stop-color="#4B4F6B"/>
<stop offset="0.494792" stop-color="#4D5266"/>
<stop offset="0.791667" stop-color="#3E4559"/>
<stop offset="1" stop-color="#1B2126"/>
<stop offset="1" stop-color="#343340"/>
</radialGradient>
<radialGradient id="paint1_radial_293_9625" cx="0" cy="0" r="1" gradientUnits="userSpaceOnUse" gradientTransform="translate(31.5 27.5) rotate(-170.538) scale(3.04138 3.04138)">
<stop stop-color="#B3E8FF"/>
<stop offset="1" stop-color="#00B2FF"/>
</radialGradient>
<radialGradient id="paint2_radial_293_9625" cx="0" cy="0" r="1" gradientUnits="userSpaceOnUse" gradientTransform="translate(9.5 27.5) rotate(-170.538) scale(3.04138 3.04138)">
<stop stop-color="#B3E8FF"/>
<stop offset="1" stop-color="#00B2FF"/>
</radialGradient>
<clipPath id="clip0_293_9625">
<rect width="48" height="48" fill="white"/>
</clipPath>
</defs>
</svg>
