<svg width="33" height="32" viewBox="0 0 33 32" fill="none" xmlns="http://www.w3.org/2000/svg">
<path d="M32 15.0441V17.0389C31.9825 17.1196 31.9592 17.1985 31.9476 17.28C31.8396 18.0181 31.7706 18.7653 31.6193 19.4942C30.3393 25.6814 25.0489 30.7441 18.821 31.7539C18.2292 31.8504 17.6324 31.9185 17.0381 32H15.0433C14.9735 31.9833 14.9053 31.9601 14.8347 31.9501C14.1066 31.8437 13.371 31.7731 12.6504 31.6293C6.46314 30.3908 1.33399 25.0672 0.330772 18.8534C0.233525 18.2508 0.163707 17.644 0.0814209 17.0389C0.0814209 16.374 0.0814209 15.7091 0.0814209 15.0441C0.0997066 14.9535 0.122149 14.8646 0.134617 14.7732C0.222721 14.1365 0.280072 13.494 0.39976 12.8631C1.59664 6.55042 6.91031 1.37306 13.2588 0.329117C13.8506 0.23187 14.4482 0.164547 15.0425 0.0839233C15.7074 0.0839233 16.3723 0.0839233 17.0373 0.0839233C17.1171 0.101378 17.1968 0.122988 17.2775 0.135455C18.0962 0.262624 18.9273 0.338261 19.7336 0.52278C25.8792 1.92746 30.715 7.07239 31.7564 13.292C31.8537 13.8738 31.9185 14.4606 31.9983 15.0458L32 15.0441ZM21.9686 23.9169V24.2277C21.9686 25.2351 21.9412 26.2441 21.9794 27.2498C22.0002 27.8017 21.6378 28.2115 21.0335 28.2073C17.388 28.1866 13.7417 28.1849 10.0962 28.2073C9.4196 28.2115 9.11124 27.7818 9.11539 27.2199C9.13701 23.7922 9.1262 20.3644 9.1262 16.9367C9.1262 16.7738 9.14033 16.64 8.9342 16.5394C8.10137 16.1313 7.69077 15.4389 7.68911 14.513C7.68496 12.7576 7.69244 11.0022 7.67997 9.24673C7.67914 9.1021 7.60516 8.9234 7.50459 8.81868C6.8995 8.19031 6.27696 7.57857 5.65857 6.96267C5.5954 6.90034 5.52392 6.84631 5.45659 6.78979C0.741373 11.9962 0.471243 20.8715 6.54792 26.427C12.514 31.8811 20.8507 30.774 25.2883 26.6049C25.2118 26.5234 25.1362 26.4395 25.0572 26.3605C24.3308 25.6332 23.5885 24.9201 22.8837 24.1712C22.6152 23.8861 22.3351 23.857 21.9678 23.9152L21.9686 23.9169ZM26.6555 25.2617C31.3217 20.0827 31.5802 11.323 25.6615 5.77078C19.8691 0.336597 11.4917 1.1287 6.80558 5.4566C7.39903 6.0168 7.99166 6.57701 8.60423 7.15634C8.60839 7.15384 8.67405 7.09816 8.74968 7.0699C9.07301 6.94854 9.27248 6.73244 9.43124 6.41327C9.70885 5.85556 10.2051 5.53556 10.8126 5.3901C11.4019 5.24964 11.9389 5.39675 12.4484 5.67852C13.9287 3.3712 17.0664 3.24403 18.6531 5.67104C18.6797 5.66107 18.7096 5.65358 18.7362 5.64028C19.9829 4.99447 21.2388 5.42584 21.8281 6.69171C21.8738 6.78979 21.9827 6.87789 22.0841 6.9261C22.887 7.30761 23.3566 7.93099 23.3891 8.82117C23.4231 9.73712 22.9951 10.4162 22.1756 10.8293C22.006 10.9149 21.9644 11.0146 21.9661 11.1883C21.9744 11.9364 21.9694 12.6844 21.9694 13.4325C21.9694 13.5829 21.9694 13.7334 21.9694 13.9054C22.1315 13.9054 22.2445 13.9054 22.3576 13.9054C23.3758 13.9054 24.3939 13.9038 25.4121 13.9054C25.9898 13.9063 26.2657 14.1855 26.2657 14.7673C26.2666 16.5851 26.2674 18.4037 26.2641 20.2215C26.2641 20.4276 26.2524 20.6371 26.2175 20.8407C26.0413 21.873 25.5202 22.6934 24.679 23.2827C25.339 23.9426 25.9906 24.5943 26.6564 25.2609L26.6555 25.2617ZM18.422 19.7244C18.4145 19.8873 18.407 19.9863 18.4062 20.0852C18.4045 20.8748 18.412 21.6636 18.4012 22.4532C18.3954 22.8704 18.0854 23.1696 17.6931 23.1713C17.3007 23.173 16.999 22.8737 16.9783 22.4598C16.9741 22.3767 16.9766 22.2936 16.9766 22.2105C16.9766 20.9953 16.9832 19.7801 16.9683 18.565C16.9666 18.4112 16.8868 18.2225 16.7804 18.1111C16.1346 17.4362 15.4664 16.7821 14.8139 16.113C14.6069 15.9011 14.4232 15.6675 14.2287 15.4439C14.1922 15.468 14.1556 15.4913 14.119 15.5154C14.119 15.6251 14.119 15.7348 14.119 15.8445C14.119 17.4961 14.119 19.1468 14.119 20.7983C14.119 21.3593 14.1265 21.9204 14.1149 22.4806C14.1066 22.8629 13.8123 23.153 13.4466 23.1705C13.0784 23.1879 12.7609 22.9286 12.7036 22.5546C12.6861 22.4424 12.6919 22.3268 12.6919 22.213C12.6919 20.0528 12.6969 17.8925 12.6878 15.7323C12.6853 15.2419 12.6986 14.7831 13.223 14.6294C12.8058 14.2096 12.4002 13.8015 11.9854 13.3851C11.9854 13.7824 11.9946 14.1938 11.9838 14.6044C11.9605 15.4664 11.5723 16.118 10.806 16.5153C10.6065 16.6192 10.5525 16.7289 10.5525 16.9375C10.5591 19.3778 10.5566 21.819 10.5566 24.2593C10.5566 24.3673 10.5566 24.4762 10.5566 24.5826H20.5406C20.5406 23.8745 20.5116 23.1796 20.5506 22.4897C20.5764 22.0251 20.4384 21.6943 20.0935 21.3818C19.5274 20.8698 19.0063 20.3088 18.4228 19.7244H18.422ZM9.57254 8.26262C9.89752 8.58678 10.225 8.86106 10.4877 9.18771C10.7827 9.55509 11.1243 9.63488 11.5806 9.63156C14.7058 9.60912 17.831 9.61992 20.9562 9.61992C21.0601 9.61992 21.164 9.62408 21.2679 9.61743C21.6652 9.59249 21.9595 9.29826 21.9678 8.92174C21.9761 8.55603 21.7093 8.25348 21.3303 8.19696C20.7576 8.11135 20.6287 7.98086 20.5357 7.39156C20.4808 7.04413 20.1974 6.78148 19.8616 6.76569C19.5266 6.7499 19.2199 6.98678 19.1376 7.33171C19.116 7.42148 19.1193 7.51789 19.1019 7.60932C19.042 7.926 18.7703 8.16704 18.4544 8.18865C18.1236 8.21192 17.8152 8.00081 17.7255 7.67582C17.6956 7.56777 17.6922 7.45057 17.6839 7.33753C17.6033 6.20714 16.6541 5.32527 15.5287 5.33691C14.4016 5.34854 13.4715 6.24787 13.4159 7.37992C13.3918 7.86616 13.1333 8.17036 12.7293 8.18948C12.3237 8.2086 12.0461 7.93182 11.9829 7.44392C11.9306 7.0408 11.6313 6.75904 11.2606 6.76486C10.9007 6.77068 10.6107 7.04579 10.5591 7.43062C10.4893 7.95426 10.3206 8.12132 9.7928 8.1953C9.73462 8.20361 9.67893 8.22938 9.5742 8.26179L9.57254 8.26262ZM21.9894 15.3492C21.9811 15.4057 21.9702 15.4448 21.9702 15.4846C21.9694 17.1453 21.9661 18.8052 21.9752 20.4658C21.9752 20.5739 22.0409 20.7044 22.1182 20.7842C22.5421 21.2255 22.9868 21.6478 23.409 22.0908C23.5561 22.2454 23.6675 22.2396 23.8312 22.1282C24.4928 21.6793 24.8245 21.0576 24.8261 20.2622C24.8295 18.7162 24.8278 17.1703 24.8261 15.6235C24.8261 15.5337 24.817 15.4431 24.812 15.3492H21.9894ZM16.9766 15.5869C16.9766 15.5196 16.9749 15.458 16.9766 15.3965C16.9907 14.9344 17.28 14.6161 17.6872 14.6144C18.0945 14.6128 18.3946 14.9361 18.4045 15.3916C18.4087 15.5993 18.432 15.8105 18.4012 16.0133C18.2857 16.7738 18.4976 17.3905 19.1459 17.8344C19.1966 17.8684 19.2324 17.9241 19.2764 17.9673C19.6796 18.3613 20.0827 18.7553 20.514 19.1767V13.2089H14.5795C15.3799 14.0027 16.172 14.7881 16.9766 15.5869ZM9.12703 10.4719C9.12703 11.8716 9.12454 13.2097 9.1287 14.5479C9.13036 15.0059 9.43456 15.3276 9.8435 15.3259C10.2533 15.3242 10.5508 15.0042 10.5541 14.5438C10.5591 13.7234 10.5575 12.903 10.5533 12.0827C10.5533 11.9946 10.5458 11.8774 10.4926 11.8225C10.0596 11.3803 9.6141 10.9498 9.12703 10.471V10.4719Z" fill="black"/>
</svg>
