<svg width="53" height="32" viewBox="0 0 53 32" fill="none" xmlns="http://www.w3.org/2000/svg">
<g clip-path="url(#clip0_522_6727)">
<path d="M47.2671 17.0371C48.4681 17.0371 49.6138 17.0371 50.7595 17.0371C51.4488 17.0371 51.7046 17.2889 51.7046 17.9684C51.7056 19.8321 51.7086 21.6968 51.7046 23.5605C51.6997 25.8094 50.1066 27.4005 47.8597 27.4074C47.677 27.4074 47.4943 27.4074 47.2681 27.4074C47.2681 27.923 47.2681 28.4129 47.2681 28.9018C47.2681 29.5931 47.2711 30.2845 47.2681 30.9758C47.2651 31.5645 46.9906 31.8499 46.4157 31.8509C42.5451 31.8539 38.6745 31.8539 34.8039 31.8509C34.2182 31.8509 33.9555 31.5615 33.9555 30.9353C33.9545 27.442 33.9506 23.9487 33.9614 20.4553C33.9624 20.0879 33.9466 19.7857 33.5288 19.6593C33.4074 19.6227 33.3076 19.5151 33.1417 19.4015V19.8351C33.1417 22.5758 33.1417 25.3156 33.1417 28.0563C33.1417 28.7941 32.9007 29.0381 32.1718 29.0381C28.3753 29.0381 24.5787 29.0381 20.7822 29.0381C20.074 29.0381 19.8281 28.7911 19.8281 28.079C19.8281 24.5235 19.8281 20.9689 19.8241 17.4134C19.8241 17.2731 19.7738 17.1339 19.7461 16.9936C19.6987 17.0005 19.6523 17.0074 19.6049 17.0153C19.6049 17.2692 19.6108 17.523 19.6039 17.7768C19.5802 18.6519 19.1911 19.3185 18.4217 19.7304C18.1916 19.8539 18.1195 19.9813 18.1204 20.2321C18.1283 23.7748 18.1264 27.3176 18.1254 30.8603C18.1254 31.6198 17.8913 31.8519 17.1288 31.8519C13.357 31.8519 9.58513 31.8519 5.81328 31.8519C5.03698 31.8519 4.8118 31.6218 4.81082 30.8287C4.81082 29.7067 4.81082 28.5847 4.81082 27.442C4.34563 27.4094 3.89229 27.4084 3.44884 27.3403C1.76291 27.0835 0.420689 25.604 0.388096 23.8943C0.34859 21.8706 0.371307 19.846 0.377233 17.8213C0.378221 17.3215 0.685379 17.041 1.20785 17.039C2.39007 17.0341 3.57328 17.0371 4.8118 17.0371C4.8118 16.6588 4.8118 16.2944 4.8118 15.9289C4.8118 15.3492 4.82267 14.7684 4.80291 14.1887C4.79896 14.0761 4.70118 13.9181 4.60242 13.8647C3.76291 13.4134 3.30958 12.721 3.34316 11.7689C3.37575 10.8316 3.87156 10.1788 4.71896 9.7857C4.81082 9.74324 4.90859 9.66719 4.95402 9.58126C5.7076 8.16497 6.82069 7.79262 8.2597 8.49978C9.01625 7.34126 10.0711 6.66768 11.4785 6.67163C12.8711 6.67558 13.918 7.33928 14.6795 8.50472C15.1585 8.23015 15.6612 8.07904 16.2034 8.16595C17.0162 8.29632 17.597 8.74274 17.9525 9.49237C18.0158 9.6257 18.1461 9.72842 18.2449 9.84496C18.2795 9.82817 18.314 9.8104 18.3486 9.79361C18.3486 9.56447 18.3466 9.33534 18.3486 9.1062C18.3585 8.12052 18.8108 7.4183 19.6958 6.98867C19.7985 6.93929 19.915 6.86423 19.9664 6.76941C20.7298 5.34916 21.839 4.97583 23.274 5.68496C24.0306 4.53138 25.0824 3.85484 26.4888 3.85682C27.8814 3.85879 28.9313 4.51756 29.6928 5.68793C30.2182 5.39657 30.7624 5.24645 31.359 5.37781C32.0948 5.54077 32.6143 5.96546 32.9501 6.63904C33.0192 6.77731 33.1466 6.91953 33.2829 6.98669C33.9427 7.31064 34.3812 7.80546 34.558 8.52546C34.5698 8.57287 34.5837 8.62027 34.6024 8.6657C34.6113 8.68645 34.633 8.70225 34.6488 8.72003C35.7185 8.01879 36.3348 7.96546 37.4014 8.49978C38.153 7.35213 39.2029 6.67262 40.6044 6.67065C41.998 6.66867 43.0488 7.32249 43.8192 8.50175C44.3496 8.21138 44.9037 8.05632 45.5111 8.19756C46.2311 8.36546 46.7387 8.78422 47.0725 9.44299C47.1476 9.59114 47.2859 9.73928 47.432 9.81336C48.2409 10.2213 48.7081 10.8642 48.7397 11.7679C48.7733 12.7052 48.3298 13.3916 47.513 13.8469C47.4133 13.9023 47.2829 14.0218 47.2809 14.1136C47.2641 15.0736 47.2701 16.0336 47.2701 17.0361L47.2671 17.0371ZM22.7822 13.4884C22.7822 14.0119 22.796 14.5027 22.7792 14.9926C22.7506 15.8499 22.3604 16.5057 21.6049 16.9116C21.3817 17.0321 21.2958 17.1516 21.2967 17.4094C21.3076 19.926 21.3027 22.4435 21.3037 24.96C21.3037 25.0785 21.3145 25.1961 21.3195 25.3037H31.6286V13.4874H22.7822V13.4884ZM6.31303 16.3121V28.1205H16.6321V19.8825C15.5762 19.4124 15.1111 18.5966 15.1614 17.4608C15.1782 17.0835 15.1644 16.7042 15.1644 16.3111H6.31303V16.3121ZM45.7728 16.322H36.9106C36.9106 16.8277 36.9214 17.3077 36.9086 17.7867C36.8839 18.6598 36.4908 19.3284 35.7185 19.7334C35.4775 19.8598 35.4271 19.999 35.4281 20.242C35.435 22.7467 35.432 25.2514 35.432 27.7551C35.432 27.8746 35.432 27.9941 35.432 28.1264H45.7728V16.322ZM27.2266 9.7778C28.9274 9.7778 30.6291 9.78077 32.3298 9.77583C32.7921 9.77484 33.1111 9.48743 33.1348 9.07953C33.1595 8.67262 32.8711 8.36052 32.4138 8.29731C31.9269 8.23114 31.7244 8.02966 31.6582 7.54373C31.597 7.09534 31.3125 6.81682 30.9175 6.8178C30.5224 6.8178 30.2409 7.09731 30.1797 7.54669C30.1155 8.02077 29.8281 8.30422 29.4212 8.29336C29.0024 8.2825 28.7456 7.97237 28.6913 7.47459C28.6607 7.19706 28.6054 6.90966 28.4967 6.65385C28.0967 5.72052 27.0814 5.18324 26.1145 5.36398C25.0716 5.55953 24.3348 6.38324 24.2646 7.43213C24.2291 7.97237 23.9713 8.27953 23.5437 8.29336C23.1279 8.3062 22.8533 8.02669 22.7792 7.51311C22.719 7.09534 22.4286 6.81978 22.0474 6.81682C21.6513 6.81385 21.3639 7.09336 21.3037 7.53879C21.2385 8.01484 21.033 8.23213 20.5886 8.29336C20.0375 8.3704 19.8241 8.61336 19.8241 9.18422C19.8222 11.0608 19.8222 12.9363 19.8241 14.8129C19.8241 15.3541 20.1076 15.6929 20.553 15.6988C21.0103 15.7047 21.3017 15.3581 21.3027 14.7951C21.3046 13.4371 21.3027 12.079 21.3037 10.722C21.3037 10.0326 21.5545 9.77682 22.234 9.77583C23.8982 9.77484 25.5624 9.77583 27.2266 9.77583V9.7778ZM10.7318 12.5926C12.3832 12.5926 14.0355 12.5926 15.6869 12.5926C16.398 12.5926 16.6419 12.8376 16.6429 13.5497C16.6439 14.9324 16.64 16.3151 16.6449 17.6968C16.6469 18.1788 16.9451 18.5057 17.3678 18.5146C17.8034 18.5245 18.1195 18.1887 18.1204 17.6909C18.1244 15.765 18.1244 13.84 18.1204 11.9141C18.1195 11.4489 17.8676 11.1763 17.4192 11.1121C16.8987 11.0381 16.713 10.8534 16.6419 10.3418C16.5807 9.90324 16.2824 9.62176 15.8874 9.63065C15.5061 9.63953 15.2256 9.91509 15.1664 10.3388C15.0962 10.8405 14.8079 11.1269 14.3911 11.1072C13.9743 11.0874 13.7145 10.7813 13.6819 10.2716C13.6049 9.0578 12.6439 8.14225 11.4518 8.14817C10.2785 8.1541 9.32736 9.06669 9.24933 10.2618C9.21575 10.7783 8.96588 11.0805 8.55007 11.1062C8.12538 11.1319 7.8439 10.8474 7.76291 10.3111C7.70069 9.90027 7.39945 9.62571 7.01723 9.63065C6.64884 9.63558 6.35649 9.90423 6.29328 10.2943C6.19649 10.8899 6.06513 11.0232 5.48538 11.1131C5.06365 11.1783 4.78316 11.5082 4.81377 11.9032C4.84538 12.322 5.16933 12.5887 5.66711 12.5897C7.356 12.5926 9.04489 12.5906 10.7338 12.5906L10.7318 12.5926ZM41.3244 12.5926C43.038 12.5926 44.7516 12.5956 46.4641 12.5906C46.9234 12.5897 47.2424 12.2953 47.2632 11.8864C47.2829 11.4914 47.0004 11.1763 46.5708 11.1141C46.0286 11.0351 45.8666 10.8711 45.7827 10.3151C45.7204 9.90324 45.4202 9.62768 45.038 9.63262C44.6686 9.63756 44.3753 9.90521 44.3121 10.2953C44.2222 10.8504 43.9634 11.124 43.5417 11.1092C43.1071 11.0934 42.873 10.7941 42.8207 10.2084C42.7624 9.56249 42.4898 9.02027 41.9713 8.6262C41.276 8.09879 40.5076 7.98817 39.7086 8.34867C38.8829 8.72101 38.4543 9.38966 38.3911 10.2924C38.3565 10.7901 38.0829 11.1003 37.6632 11.1092C37.2671 11.1171 36.9718 10.8366 36.9106 10.3961C36.8434 9.90916 36.5738 9.63163 36.1669 9.63361C35.7609 9.6346 35.4962 9.90916 35.4271 10.4C35.3669 10.8277 35.1417 11.0519 34.7081 11.1111C34.1767 11.1842 33.9516 11.4321 33.9516 11.9724C33.9486 13.8736 33.9506 15.7739 33.9516 17.6751C33.9516 17.7492 33.9496 17.8242 33.9624 17.8963C34.0276 18.2657 34.3595 18.5343 34.7249 18.5166C35.1328 18.4968 35.4261 18.1768 35.4281 17.7176C35.434 16.323 35.4301 14.9274 35.4311 13.5329C35.4311 12.8514 35.6878 12.5946 36.3683 12.5946C38.0197 12.5936 39.6721 12.5946 41.3234 12.5946L41.3244 12.5926ZM1.86167 18.5343C1.85575 18.6252 1.84982 18.6855 1.84982 18.7457C1.84982 20.3971 1.84982 22.0484 1.85081 23.7008C1.85081 23.8232 1.8597 23.9477 1.88143 24.0682C2.12834 25.3985 3.30267 26.1343 4.78612 25.8845V18.5343H1.86069H1.86167ZM47.2898 18.5343V25.926C47.4706 25.926 47.6286 25.926 47.7866 25.926C49.3116 25.925 50.2232 25.0153 50.2242 23.4934C50.2251 22.0761 50.2242 20.6588 50.2242 19.2415V18.5353H47.2888L47.2898 18.5343Z" fill="black"/>
<path d="M48.3179 5.53877C47.91 5.67803 47.5298 5.81136 47.1466 5.93778C46.6044 6.11655 46.2696 5.95753 46.071 5.42222C45.9308 5.04395 45.8004 4.66272 45.6523 4.24692C45.2384 4.39013 44.8592 4.52642 44.477 4.65284C43.9377 4.83062 43.6058 4.66766 43.4054 4.1284C43.2651 3.75012 43.1338 3.36889 42.9886 2.96C42.5757 3.10124 42.1965 3.23655 41.8133 3.36198C41.3244 3.52297 40.9224 3.35605 40.7792 2.94223C40.635 2.52445 40.8365 2.14618 41.3244 1.96642C41.9249 1.74519 42.5293 1.53383 43.1377 1.33334C43.6384 1.1684 43.9743 1.33334 44.1649 1.82815C44.314 2.21531 44.4454 2.61037 44.5965 3.03309C44.9965 2.89679 45.3649 2.76741 45.7352 2.64395C46.315 2.45235 46.6478 2.61235 46.8612 3.18815C46.9965 3.55358 47.1199 3.92395 47.2592 4.32296C47.6651 4.18272 48.0335 4.05037 48.4039 3.9279C48.9747 3.73926 49.3036 3.88939 49.5091 4.44741C49.7263 5.03704 49.9337 5.63062 50.1313 6.22618C50.2933 6.71309 50.1175 7.11704 49.7026 7.2563C49.275 7.39951 48.9175 7.20099 48.7338 6.70815C48.5925 6.32988 48.4621 5.94766 48.315 5.5358L48.3179 5.53877Z" fill="black"/>
<path d="M35.351 4.6657C34.1362 4.66372 33.1406 3.66521 33.1396 2.44743C33.1387 1.21286 34.1461 0.212368 35.3816 0.223232C36.5954 0.234096 37.5821 1.23953 37.5752 2.45928C37.5693 3.67508 36.5678 4.66767 35.351 4.6657ZM36.0947 2.4336C36.0888 2.03953 35.7589 1.71064 35.3658 1.70669C34.9579 1.70274 34.6152 2.04644 34.6211 2.45533C34.6271 2.8494 34.9569 3.17829 35.35 3.18323C35.7579 3.18718 36.1006 2.84249 36.0947 2.43459V2.4336Z" fill="black"/>
<path d="M6.95208 4.90375C6.94517 6.11857 5.94368 7.11215 4.72788 7.10918C3.49825 7.10622 2.50171 6.08993 2.51652 4.85338C2.53134 3.63857 3.53874 2.65585 4.75949 2.66672C5.97331 2.67758 6.95899 3.68301 6.95307 4.90277L6.95208 4.90375ZM4.73775 5.62671C5.14566 5.62375 5.48344 5.27313 5.4706 4.86622C5.45776 4.47215 5.12294 4.1482 4.72986 4.15116C4.33578 4.15313 4.00491 4.48103 3.99701 4.87511C3.98911 5.284 4.32985 5.62968 4.73775 5.6277V5.62671Z" fill="black"/>
<path d="M23.5219 19.3689C23.5219 18.1985 23.5199 17.0272 23.5219 15.8568C23.5229 15.3126 23.7994 14.9768 24.2438 14.9659C24.7011 14.9551 24.9994 15.3027 24.9994 15.8598C25.0014 18.2262 25.0014 20.5926 24.9994 22.958C24.9994 23.5013 24.7209 23.838 24.2774 23.8489C23.8192 23.8598 23.5229 23.5131 23.5219 22.9551C23.5199 21.76 23.5219 20.564 23.5219 19.3689Z" fill="black"/>
<path d="M29.44 19.4025C29.44 20.5857 29.4419 21.7689 29.44 22.9521C29.439 23.5111 29.1437 23.8578 28.6864 23.8489C28.241 23.84 27.9624 23.5032 27.9614 22.961C27.9595 20.5946 27.9595 18.2281 27.9614 15.8627C27.9614 15.3027 28.2558 14.957 28.714 14.9659C29.1585 14.9748 29.438 15.3116 29.439 15.8538C29.441 17.037 29.439 18.2202 29.439 19.4035L29.44 19.4025Z" fill="black"/>
<path d="M9.9861 22.2232C9.9861 23.4064 9.98808 24.5897 9.9861 25.7729C9.98511 26.3171 9.70857 26.6529 9.26413 26.6637C8.80585 26.6746 8.50857 26.3279 8.50758 25.7699C8.50561 23.4035 8.50561 21.0371 8.50758 18.6716C8.50758 18.1284 8.78512 17.7916 9.22956 17.7808C9.68783 17.7699 9.98412 18.1166 9.98511 18.6746C9.98709 19.8578 9.98511 21.041 9.98511 22.2242L9.9861 22.2232Z" fill="black"/>
<path d="M14.4236 22.2262C14.4236 23.4094 14.4256 24.5926 14.4236 25.7758C14.4226 26.318 14.1441 26.6548 13.6987 26.6637C13.2414 26.6726 12.9461 26.3259 12.9461 25.7669C12.9441 23.4005 12.9441 21.0341 12.9461 18.6686C12.9461 18.1264 13.2266 17.7896 13.671 17.7817C14.1293 17.7728 14.4226 18.1185 14.4236 18.6785C14.4256 19.8617 14.4236 21.0449 14.4236 22.2281V22.2262Z" fill="black"/>
<path d="M39.1298 22.2232C39.1298 23.4064 39.1317 24.5897 39.1298 25.7729C39.1288 26.3161 38.8513 26.6529 38.4078 26.6637C37.9495 26.6746 37.6522 26.3279 37.6522 25.7699C37.6503 23.4035 37.6503 21.0371 37.6522 18.6716C37.6522 18.1274 37.9298 17.7916 38.3742 17.7808C38.8325 17.7699 39.1288 18.1176 39.1298 18.6746C39.1317 19.8578 39.1298 21.041 39.1298 22.2242V22.2232Z" fill="black"/>
<path d="M43.5684 22.2193C43.5684 23.4025 43.5704 24.5857 43.5684 25.7689C43.5674 26.3269 43.2701 26.6746 42.8128 26.6637C42.3684 26.6538 42.0908 26.3171 42.0899 25.7738C42.0879 23.4074 42.0879 21.041 42.0899 18.6756C42.0899 18.1175 42.3871 17.7709 42.8444 17.7817C43.2889 17.7916 43.5664 18.1284 43.5674 18.6716C43.5694 19.8548 43.5674 21.038 43.5674 22.2213L43.5684 22.2193Z" fill="black"/>
</g>
<defs>
<clipPath id="clip0_522_6727">
<rect width="52.1481" height="32" fill="white"/>
</clipPath>
</defs>
</svg>
