<svg width="32" height="30" viewBox="0 0 32 30" fill="none" xmlns="http://www.w3.org/2000/svg">
<path d="M0 2.38702C0.494545 1.87252 0.977453 1.34556 1.48945 0.848522C1.72634 0.618288 2.07875 0.663171 2.30649 0.890081C2.54171 1.12447 2.57247 1.47605 2.3306 1.73122C2.06878 2.008 1.76623 2.24655 1.43792 2.54078C1.74878 2.83834 1.99314 3.05943 2.22421 3.29465C2.58909 3.66536 2.59075 3.97787 2.2267 4.34525C1.9948 4.57964 1.74462 4.79574 1.4612 5.05922C1.75044 5.33434 1.99563 5.55543 2.2267 5.79065C2.58992 6.15969 2.58909 6.47138 2.22504 6.84208C1.99979 7.07148 1.76125 7.28759 1.49278 7.54442C1.71055 7.76302 1.9067 7.95585 2.09787 8.15367C2.20592 8.26504 2.32312 8.37392 2.4054 8.50359C2.56332 8.75211 2.50348 9.07045 2.28405 9.26826C2.05465 9.47522 1.71802 9.51096 1.48945 9.28821C0.978284 8.79034 0.494545 8.26421 0 7.74972C0 7.62504 0 7.50037 0 7.37569C0.315844 7.02328 0.630856 6.67086 0.949193 6.31595C0.630856 5.96104 0.315013 5.60863 0 5.25621C0 5.13153 0 5.00686 0 4.88218C0.315844 4.52977 0.630856 4.17735 0.949193 3.82244C0.630856 3.46753 0.315013 3.11512 0 2.7627C0 2.63803 0 2.51335 0 2.38868V2.38702Z" fill="black"/>
<path d="M31.9169 11.4883C31.4232 12.002 30.9411 12.5289 30.43 13.0243C30.1906 13.2562 29.8423 13.213 29.6138 12.9886C29.3769 12.7558 29.3445 12.4018 29.5822 12.1482C29.8432 11.8698 30.1424 11.6279 30.5031 11.2988C30.1931 11.0245 29.9363 10.8175 29.7019 10.5873C29.3195 10.2116 29.3229 9.89827 29.7035 9.5176C29.9304 9.29152 30.1707 9.07874 30.4882 8.78285C30.1981 8.53017 29.9388 8.32487 29.7044 8.09547C29.3195 7.71895 29.322 7.40643 29.701 7.02659C29.9271 6.79968 30.1673 6.58606 30.4524 6.31843C30.1582 6.03666 29.8897 5.79729 29.6412 5.53879C29.3495 5.23625 29.3553 4.85474 29.637 4.60456C29.8673 4.40009 30.2006 4.36601 30.4308 4.59043C30.9411 5.08747 31.4241 5.6136 31.9178 6.12726V6.50129C31.6028 6.8537 31.2877 7.20612 30.9702 7.56103C31.2877 7.91594 31.6028 8.26835 31.9178 8.62077V8.99479C31.6028 9.34721 31.2877 9.69962 30.9702 10.0545C31.2877 10.4094 31.6028 10.7619 31.9178 11.1143V11.4883H31.9169Z" fill="black"/>
<path d="M1.62083 21.1282C1.62083 19.0818 1.62914 17.0363 1.61751 14.99C1.61169 14.0101 1.94416 13.1889 2.64649 12.5081C3.09366 12.0743 3.53667 11.6354 3.96473 11.1824C4.06862 11.0727 4.15008 10.9048 4.16753 10.7544C4.33958 9.31146 4.48836 7.86605 4.66208 6.42397C4.70364 6.0807 4.6546 5.82304 4.38447 5.57119C4.23236 5.42906 4.13595 5.1606 4.12681 4.94449C4.09605 4.1981 4.11351 3.44922 4.116 2.702C4.11766 2.18584 4.34374 1.95229 4.85075 1.95146C6.43995 1.94896 8.02914 1.94896 9.61751 1.95146C10.1104 1.95146 10.3448 2.18584 10.3473 2.6754C10.3506 3.3819 10.3323 4.08839 10.3548 4.79405C10.3664 5.16641 10.2733 5.47062 9.9774 5.69753C9.80202 5.83218 9.75881 5.99426 9.78374 6.21202C9.96161 7.75883 10.1253 9.30647 10.3049 10.8533C10.3173 10.9638 10.3996 11.0818 10.4811 11.165C10.9299 11.6263 11.3854 12.0817 11.8442 12.5331C12.5241 13.2022 12.8466 14.0084 12.8458 14.9642C12.8391 19.0976 12.8441 23.231 12.8424 27.3653C12.8424 28.5912 12.0611 29.3775 10.8435 29.3784C8.43392 29.38 6.02436 29.38 3.6148 29.3784C2.4121 29.3775 1.62332 28.5904 1.62249 27.391C1.62083 25.3031 1.62249 23.2161 1.62249 21.1282H1.62083ZM2.8734 16.8901H11.5949C11.5949 16.2259 11.5874 15.5826 11.5974 14.9401C11.6065 14.345 11.4012 13.8496 10.9765 13.4332C10.442 12.9096 9.90509 12.3884 9.39641 11.8407C9.2468 11.6795 9.12961 11.4384 9.10301 11.2215C8.88525 9.44943 8.69574 7.67488 8.49044 5.902C8.4547 5.59696 8.53699 5.35592 8.75891 5.14647C8.88441 5.02844 9.07226 4.89047 9.08307 4.75083C9.12213 4.23966 9.09885 3.72351 9.09885 3.21483H5.36109C5.36109 3.60215 5.38104 3.97535 5.35527 4.34439C5.332 4.67104 5.41511 4.92288 5.67693 5.12818C5.91215 5.3127 6.0119 5.55956 5.97616 5.86958C5.77169 7.63249 5.56888 9.3954 5.3827 11.16C5.34945 11.4717 5.2306 11.7044 5.012 11.9172C4.48337 12.4308 3.96805 12.9595 3.44441 13.4781C3.11444 13.8056 2.89584 14.1971 2.88005 14.6584C2.85512 15.3939 2.8734 16.1304 2.8734 16.8892V16.8901ZM11.5949 23.1604H2.90332C2.88919 23.1936 2.87423 23.2111 2.87423 23.2294C2.87174 24.6523 2.86509 26.0753 2.87257 27.4983C2.87423 27.8956 3.14187 28.1299 3.56577 28.1308C6.00691 28.1333 8.44722 28.1341 10.8884 28.1308C11.3555 28.1308 11.5907 27.8872 11.594 27.4135C11.5982 26.8109 11.5949 26.2083 11.5949 25.6065C11.5949 24.7986 11.5949 23.9907 11.5949 23.1612V23.1604Z" fill="black"/>
<path d="M18.2333 9.72623C19.5482 7.66493 22.36 7.68405 23.6542 9.72789C24.0855 9.48852 24.5444 9.35968 25.0455 9.4694C25.6656 9.60488 26.1045 9.96062 26.3904 10.5266C26.4536 10.6513 26.5716 10.7743 26.6954 10.8367C27.3762 11.1808 27.7676 11.7227 27.7951 12.4824C27.8225 13.2579 27.4642 13.843 26.7802 14.2054C26.6057 14.2977 26.5491 14.3891 26.5516 14.5803C26.5624 15.3466 26.5566 16.1129 26.5566 16.9125C26.7769 16.9125 26.9705 16.9125 27.165 16.9125C27.9854 16.9125 28.8066 16.9084 29.627 16.915C30.0409 16.9183 30.2927 17.1635 30.2944 17.5741C30.2985 19.2772 30.321 20.9819 30.2844 22.6842C30.2512 24.26 28.9121 25.5675 27.3346 25.6331C27.0877 25.6431 26.84 25.6348 26.5566 25.6348C26.5566 26.1269 26.5566 26.5906 26.5566 27.0544C26.5566 27.5839 26.5591 28.1142 26.5566 28.6436C26.5533 29.139 26.3231 29.3784 25.8368 29.3792C22.5753 29.3809 19.3138 29.3817 16.0523 29.3792C15.5586 29.3792 15.3367 29.1357 15.3367 28.6087C15.3358 25.6173 15.3333 22.626 15.3417 19.6346C15.3417 19.3994 15.2801 19.278 15.0624 19.1625C14.4357 18.8284 14.1007 18.2773 14.0941 17.5683C14.0799 15.886 14.0774 14.2029 14.0941 12.5206C14.1024 11.746 14.4964 11.1899 15.1912 10.8425C15.2934 10.791 15.4106 10.7137 15.4588 10.6172C16.0373 9.46857 17.0439 9.1361 18.2341 9.72706L18.2333 9.72623ZM17.8277 16.2941C17.8277 16.7346 17.8393 17.1477 17.8252 17.56C17.8011 18.2814 17.4719 18.8333 16.8353 19.175C16.6466 19.2764 16.5751 19.3769 16.5759 19.5939C16.5851 21.7117 16.5809 23.8303 16.5818 25.9481C16.5818 26.0479 16.5909 26.1468 16.5951 26.2374H25.2824V16.2933H17.8268L17.8277 16.2941ZM21.5505 13.1714C22.9942 13.1714 24.438 13.1739 25.8825 13.1698C26.269 13.1689 26.5375 12.9187 26.5541 12.5755C26.5699 12.243 26.3314 11.9795 25.969 11.9272C25.5135 11.8615 25.3788 11.7244 25.3065 11.2523C25.2542 10.9065 24.999 10.6754 24.6773 10.6804C24.3665 10.6854 24.0847 10.9098 24.0764 11.2398C24.0639 11.6853 23.7057 11.938 23.4173 11.923C23.0574 11.9047 22.8454 11.652 22.8139 11.1932C22.7449 10.195 21.9303 9.4295 20.9404 9.432C19.9505 9.43449 19.1451 10.2025 19.0794 11.2057C19.0503 11.6545 18.8259 11.9155 18.4635 11.9222C18.1144 11.928 17.8925 11.6969 17.8268 11.2581C17.7753 10.9098 17.5251 10.6779 17.2026 10.6804C16.881 10.6821 16.6358 10.9148 16.5851 11.2656C16.5194 11.7202 16.3798 11.8573 15.911 11.9288C15.5636 11.9812 15.3417 12.2064 15.34 12.5572C15.3333 14.2087 15.3267 15.8611 15.3508 17.5118C15.3533 17.7021 15.5079 17.9548 15.6691 18.0653C16.0714 18.3421 16.5759 18.0088 16.5801 17.481C16.5876 16.3074 16.5818 15.133 16.5834 13.9594C16.5834 13.3867 16.7995 13.1723 17.3755 13.1714C18.7677 13.1706 20.1599 13.1714 21.5513 13.1714H21.5505ZM29.0435 18.18H26.5782V24.3856C26.8484 24.3856 27.0977 24.4022 27.3437 24.3822C28.2406 24.3091 29.0119 23.5752 29.0335 22.6792C29.0701 21.1872 29.0435 19.6944 29.0435 18.1792V18.18Z" fill="black"/>
<path d="M24.6849 5.69006C23.6609 5.69006 22.8197 4.85141 22.8164 3.82741C22.8139 2.78762 23.6609 1.94398 24.7015 1.95147C25.7247 1.95811 26.5583 2.80258 26.5542 3.82824C26.5509 4.85141 25.7089 5.68923 24.684 5.68923L24.6849 5.69006ZM25.3066 3.81661C25.3049 3.48497 25.029 3.2057 24.6973 3.19905C24.3532 3.1924 24.0623 3.47998 24.0648 3.82326C24.0673 4.15572 24.3424 4.43417 24.6741 4.44081C25.0173 4.44746 25.3091 4.15988 25.3074 3.81578L25.3066 3.81661Z" fill="black"/>
<path d="M17.2484 4.44582C18.269 4.46494 19.0894 5.32105 19.0736 6.35003C19.0578 7.38234 18.1867 8.21019 17.1453 8.18276C16.1271 8.15616 15.3134 7.29258 15.3367 6.26276C15.3591 5.24292 16.2185 4.42671 17.2484 4.44582ZM17.1935 5.69341C16.8619 5.70006 16.5859 5.9785 16.5843 6.31014C16.5826 6.65424 16.8735 6.94183 17.2168 6.93518C17.56 6.92853 17.8418 6.62931 17.826 6.28687C17.8111 5.95523 17.5243 5.68676 17.1935 5.69341Z" fill="black"/>
<path d="M18.4519 21.272C18.4519 20.2763 18.4502 19.2805 18.4519 18.2848C18.4527 17.8285 18.6871 17.545 19.062 17.5376C19.4485 17.5301 19.697 17.821 19.697 18.2914C19.6986 20.2829 19.6986 22.2744 19.697 24.265C19.697 24.7213 19.4609 25.0056 19.0861 25.0131C18.6996 25.0206 18.4519 24.7297 18.4511 24.2584C18.4494 23.2626 18.4511 22.2669 18.4511 21.2712L18.4519 21.272Z" fill="black"/>
<path d="M23.4389 21.2737C23.4389 22.2694 23.4406 23.2651 23.4389 24.2609C23.4381 24.7297 23.1871 25.0222 22.8014 25.0131C22.4266 25.0039 22.1939 24.7205 22.193 24.2634C22.1914 22.2719 22.1914 20.2804 22.193 18.2898C22.193 17.8202 22.444 17.5284 22.8297 17.5376C23.2046 17.5467 23.4373 17.8301 23.4381 18.2873C23.4398 19.283 23.4381 20.2788 23.4381 21.2745L23.4389 21.2737Z" fill="black"/>
</svg>
