<svg width="32" height="32" viewBox="0 0 32 32" fill="none" xmlns="http://www.w3.org/2000/svg">
<path fill-rule="evenodd" clip-rule="evenodd" d="M11.1968 16.6641C11.1968 13.7961 13.5224 11.4705 16.3905 11.4705C19.2585 11.4705 21.5841 13.7961 21.5841 16.6641C21.5841 19.5322 19.2585 21.8578 16.3905 21.8578C13.5224 21.8578 11.1968 19.5322 11.1968 16.6641ZM16.3905 13.4705C14.627 13.4705 13.1968 14.9006 13.1968 16.6641C13.1968 18.4276 14.627 19.8578 16.3905 19.8578C18.154 19.8578 19.5841 18.4276 19.5841 16.6641C19.5841 14.9006 18.154 13.4705 16.3905 13.4705Z" fill="black"/>
<path fill-rule="evenodd" clip-rule="evenodd" d="M18.8125 3.15777C19.5108 3.22473 20.2209 3.33503 20.7019 3.53734L20.7027 3.53769C21.6842 3.95155 22.2483 4.80668 22.6001 5.44478C22.7242 5.66998 22.8445 5.91278 22.9445 6.11474C22.9853 6.19716 23.0227 6.27278 23.0557 6.33762C23.1939 6.60953 23.2663 6.71825 23.2985 6.75348L23.2998 6.75501C23.4923 6.96679 23.7377 7.10526 23.9688 7.18076C26.1966 7.80005 27.6443 8.88565 28.4656 10.6071C29.2427 12.2358 29.3942 14.3178 29.3942 16.7553C29.3942 20.2069 29.1068 23.1615 27.1247 25.1601C25.1535 27.1478 21.7692 27.9335 16.39 27.9335C11.0107 27.9335 7.62643 27.1478 5.65518 25.1601C3.67308 23.1615 3.38574 20.2069 3.38574 16.7553C3.38574 14.3178 3.53716 12.2358 4.31426 10.6071C5.13568 8.8855 6.58352 7.79986 8.81165 7.1806C9.0426 7.10551 9.28695 6.96752 9.48006 6.75501L9.48145 6.75348C9.51427 6.71751 9.58805 6.60656 9.72839 6.33207C9.76214 6.26604 9.80046 6.18912 9.84217 6.10538C9.94328 5.90238 10.0644 5.6593 10.1889 5.43412C10.5397 4.79971 11.1066 3.93499 12.0869 3.53367L12.0881 3.53317C12.5584 3.34135 13.2592 3.23271 13.9541 3.16502C14.6862 3.09371 15.5369 3.05759 16.3801 3.05597C17.2232 3.05434 18.0762 3.08716 18.8125 3.15777ZM12.8439 5.38485C12.5389 5.51005 12.254 5.83265 11.9391 6.40202C11.8354 6.58942 11.749 6.76311 11.6576 6.94689C11.6105 7.04165 11.562 7.1391 11.5092 7.24249C11.3787 7.49773 11.1973 7.83999 10.9596 8.10076C10.486 8.62165 9.91151 8.93129 9.39743 9.09303C9.38618 9.09657 9.37487 9.09991 9.36351 9.10304C7.53672 9.60751 6.63482 10.3879 6.11933 11.4683C5.55713 12.6466 5.38574 14.3113 5.38574 16.7553C5.38574 20.2678 5.737 22.4024 7.07526 23.7518C8.42435 25.1122 11.0422 25.9335 16.39 25.9335C21.7377 25.9335 24.3556 25.1122 25.7047 23.7518C27.0429 22.4024 27.3942 20.2678 27.3942 16.7553C27.3942 14.3113 27.2228 12.6466 26.6606 11.4683C26.1451 10.3879 25.2432 9.60751 23.4164 9.10304C23.4047 9.09981 23.393 9.09636 23.3815 9.0927C22.8705 8.93136 22.2946 8.62229 21.8204 8.10084C21.582 7.83933 21.402 7.49794 21.2729 7.24404C21.2208 7.1416 21.1731 7.04521 21.1268 6.95157C21.0365 6.76888 20.9513 6.59664 20.8486 6.41031C20.5401 5.85071 20.2524 5.51851 19.926 5.3807C19.7526 5.30795 19.3157 5.2152 18.6215 5.14863C17.9647 5.08564 17.1787 5.05443 16.384 5.05596C15.5895 5.05749 14.8038 5.09172 14.148 5.1556C13.4558 5.22301 13.0175 5.31425 12.8439 5.38485Z" fill="black"/>
<path fill-rule="evenodd" clip-rule="evenodd" d="M21.9392 12C21.9392 11.4477 22.3869 11 22.9392 11H22.9512C23.5035 11 23.9512 11.4477 23.9512 12C23.9512 12.5523 23.5035 13 22.9512 13H22.9392C22.3869 13 21.9392 12.5523 21.9392 12Z" fill="black"/>
</svg>
