<svg width="24" height="24" viewBox="0 0 24 24" fill="none" xmlns="http://www.w3.org/2000/svg">
<path fill-rule="evenodd" clip-rule="evenodd" d="M24 12C24 18.6274 18.6274 24 12 24C5.37258 24 0 18.6274 0 12C0 5.37258 5.37258 0 12 0C18.6274 0 24 5.37258 24 12ZM16.8364 8.3636C17.1879 8.71508 17.1879 9.28492 16.8364 9.6364L10.8364 15.6364C10.4849 15.9879 9.91508 15.9879 9.5636 15.6364L7.1636 13.2364C6.81213 12.8849 6.81213 12.3151 7.1636 11.9636C7.51508 11.6121 8.08492 11.6121 8.4364 11.9636L10.2 13.7272L12.8818 11.0454L15.5636 8.3636C15.9151 8.01213 16.4849 8.01213 16.8364 8.3636Z" fill="#4874D7"/>
<path d="M16.8364 9.6364C17.1879 9.28492 17.1879 8.71508 16.8364 8.3636C16.4849 8.01213 15.9151 8.01213 15.5636 8.3636L12.8818 11.0454L10.2 13.7272L8.4364 11.9636C8.08492 11.6121 7.51508 11.6121 7.1636 11.9636C6.81213 12.3151 6.81213 12.8849 7.1636 13.2364L9.5636 15.6364C9.91508 15.9879 10.4849 15.9879 10.8364 15.6364L16.8364 9.6364Z" fill="white"/>
</svg>
