<svg width="32" height="32" viewBox="0 0 32 32" fill="none" xmlns="http://www.w3.org/2000/svg">
<g clip-path="url(#clip0_602_5581)">
<path d="M8.70226 1.17285C9.16716 1.24776 9.63514 1.30645 10.0954 1.40375C10.3278 1.4524 10.5541 1.5528 10.7673 1.66014C11.2916 1.92425 11.5704 2.31964 11.5604 2.94979C11.5333 4.65646 11.5966 6.36544 11.3001 8.12462C11.5071 7.94855 11.6638 7.81341 11.8221 7.68058C13.3056 6.43417 14.9829 5.62177 16.9298 5.4318C18.6102 5.26808 20.2118 5.59551 21.7563 6.24574C22.0135 6.35386 22.2668 6.47356 22.5155 6.60021C22.961 6.82647 23.2244 7.1987 23.2862 7.6883C23.412 8.69531 23.1217 9.58185 22.4282 10.3201C21.9764 10.8012 21.4374 10.9734 20.7748 10.751C19.8164 10.429 18.8241 10.3062 17.7391 10.3379C17.848 10.4251 17.9113 10.4692 17.9677 10.5217C18.3631 10.887 18.7731 11.2391 19.1454 11.626C19.3848 11.8747 19.3485 12.1797 19.1206 12.365C18.8967 12.5473 18.6179 12.4917 18.3816 12.2461C18.1013 11.955 17.8295 11.6453 17.5051 11.4105C17.2147 11.2005 16.8665 11.0584 16.5274 10.9294C16.1776 10.7966 15.8594 10.8669 15.5884 11.165C15.3328 11.4461 15.0447 11.4638 14.8293 11.2607C14.5999 11.0445 14.6177 10.7541 14.8949 10.4761C15.5428 9.82511 16.3606 9.5332 17.2449 9.39883C18.0936 9.26986 18.9376 9.3301 19.7778 9.48918C19.8612 9.5054 19.947 9.51312 20.0674 9.52934C20.0412 8.57175 20.3115 7.73155 20.9771 7.03961C17.7507 5.64339 13.7921 6.43417 11.0846 9.85523C11.0924 9.87144 11.0962 9.89461 11.1101 9.90311C12.8709 11.0893 13.8987 12.799 14.5737 14.759C14.6895 15.0949 14.5559 15.3737 14.2655 15.4602C13.996 15.5405 13.7466 15.3868 13.6346 15.0571C13.2392 13.8949 12.6608 12.8384 11.8793 11.8878C9.24284 8.67832 4.66959 9.99191 3.20927 12.8037C2.45864 14.2485 2.10959 15.7614 2.17445 17.3723C2.31346 20.8018 3.63246 23.7039 6.12759 26.0662C7.35083 27.2238 8.80497 28.0115 10.3317 28.6803C11.5627 29.2193 12.8207 29.6757 14.1698 29.814C15.6664 29.9669 16.9877 29.6348 17.9924 28.4247C18.2125 28.1598 18.5052 28.122 18.7284 28.3058C18.96 28.4973 18.9677 28.7946 18.7338 29.0718C17.9345 30.0163 16.919 30.5785 15.6981 30.7723C15.6239 30.7839 15.5521 30.8094 15.4795 30.8287H14.2632C13.8555 30.7607 13.4446 30.7067 13.0407 30.6225C11.4144 30.2819 9.90002 29.6363 8.44047 28.8641C4.69739 26.8841 2.3652 23.8159 1.46244 19.6767C1.31958 19.0218 1.26707 18.3469 1.17285 17.6812C1.17285 17.2371 1.17285 16.7931 1.17285 16.3491C1.18984 16.2664 1.21687 16.1838 1.22305 16.0996C1.31186 14.8841 1.64238 13.7358 2.17523 12.6415C2.23932 12.5102 2.27099 12.3488 2.26867 12.2021C2.23469 10.2676 3.00308 8.7401 4.54371 7.57324C4.82327 7.36164 5.06884 7.05197 5.21866 6.73458C5.40013 6.35 5.53064 5.91522 5.56308 5.4928C5.62872 4.64951 5.64185 3.79926 5.62023 2.95288C5.60478 2.33894 5.8712 1.94201 6.38397 1.6779C6.60484 1.56438 6.83883 1.45781 7.07977 1.40607C7.53849 1.30645 8.00647 1.24853 8.47059 1.17285C8.54781 1.17285 8.62504 1.17285 8.70226 1.17285ZM6.67279 3.92205C6.6141 4.60704 6.59634 5.2843 6.49055 5.94689C6.32065 7.0095 5.87429 7.9192 4.92674 8.53777C4.43714 8.85748 4.07496 9.32238 3.81008 9.84596C3.65408 10.1549 3.53902 10.4838 3.40619 10.8043C3.42858 10.8182 3.45021 10.8321 3.47261 10.8452C4.33598 9.99655 5.3677 9.4637 6.53997 9.20036C7.70761 8.9378 8.86675 8.96096 10.0159 9.3579C10.4931 7.5493 10.6329 5.74456 10.5464 3.91279C8.94707 4.37536 8.10377 4.33984 6.67279 3.92205ZM10.5448 2.7158C9.79576 1.95514 7.00332 2.08333 6.64036 2.74824C7.44736 3.42472 9.79576 3.41469 10.5448 2.7158ZM22.3317 8.18254C22.3262 8.0752 22.3402 7.9918 22.3154 7.92307C22.266 7.78483 22.2259 7.58328 22.1255 7.54158C22.0305 7.50219 21.8328 7.60027 21.7347 7.69448C21.2273 8.18331 20.9988 8.78876 21.086 9.49227C21.1015 9.61969 21.1841 9.80658 21.2783 9.83747C21.3772 9.87067 21.554 9.77877 21.6505 9.69074C22.0992 9.28068 22.2984 8.75169 22.3324 8.18254H22.3317Z" fill="black" stroke="black" stroke-width="0.6" stroke-miterlimit="10"/>
<path d="M30.3088 20.7059C30.3088 24.45 27.2736 27.4853 23.5294 27.4853C19.7852 27.4853 16.75 24.45 16.75 20.7059C16.75 16.9617 19.7852 13.9265 23.5294 13.9265C27.2736 13.9265 30.3088 16.9617 30.3088 20.7059Z" fill="white" stroke="black" stroke-width="1.5"/>
<path d="M6.67279 3.92205C8.10454 4.33983 8.94707 4.37536 10.5464 3.91278C10.6329 5.74455 10.4931 7.54929 10.0159 9.3579C8.86598 8.96173 7.70761 8.93779 6.53997 9.20036C5.3677 9.4637 4.33598 9.99654 3.47261 10.8452C3.45021 10.8313 3.42858 10.8174 3.40619 10.8043C3.53979 10.4838 3.65408 10.1541 3.81008 9.84596C4.07496 9.32237 4.43714 8.85748 4.92674 8.53777C5.87429 7.9192 6.31988 7.00949 6.49054 5.94688C6.59712 5.28429 6.6141 4.60703 6.67279 3.92205Z" fill="white" stroke="black" stroke-width="0.8" stroke-miterlimit="10"/>
<path d="M10.5449 2.7158C9.79501 3.41468 7.44738 3.42472 6.64038 2.74823C7.00334 2.08333 9.79656 1.95514 10.5449 2.7158Z" fill="white" stroke="black" stroke-width="0.8" stroke-miterlimit="10"/>
<path d="M22.3317 8.18256C22.2977 8.75094 22.0985 9.2807 21.6498 9.69076C21.5533 9.7788 21.3764 9.8707 21.2776 9.83749C21.1833 9.8066 21.1007 9.61895 21.0853 9.4923C20.9988 8.78801 21.2266 8.18334 21.734 7.69451C21.832 7.60029 22.0297 7.50144 22.1247 7.5416C22.2251 7.5833 22.2653 7.78563 22.3147 7.92309C22.3394 7.99259 22.3263 8.07522 22.3309 8.18256H22.3317Z" fill="white" stroke="black" stroke-width="0.8" stroke-miterlimit="10"/>
<path d="M24.5982 20.3422C24.9257 20.9577 24.9867 21.5345 24.7496 22.1276C24.3419 23.1485 23.1765 23.6366 22.1618 23.2126C21.144 22.7871 20.6706 21.6249 21.1023 20.6117C21.5285 19.6132 22.6939 19.1398 23.6854 19.5854C23.8901 19.6773 23.9897 19.6286 24.1248 19.4912C24.8979 18.7089 25.6771 17.932 26.4578 17.1559C26.7196 16.8956 27.0061 16.8802 27.2192 17.1026C27.4262 17.3173 27.3999 17.6069 27.1405 17.8671C26.3775 18.6332 25.613 19.3977 24.8461 20.1591C24.7712 20.2333 24.6755 20.2858 24.5967 20.3422H24.5982ZM23.9017 21.3785C23.8955 20.8241 23.453 20.3985 22.8931 20.4086C22.3572 20.4186 21.9232 20.8658 21.9324 21.4009C21.9417 21.9369 22.3827 22.3763 22.9155 22.3794C23.4607 22.3824 23.9078 21.9291 23.9017 21.3785Z" fill="black" stroke="black" stroke-width="0.6" stroke-miterlimit="10"/>
<path d="M23.9016 21.3785C23.9078 21.9291 23.4607 22.3824 22.9155 22.3793C22.3826 22.3762 21.9409 21.9368 21.9324 21.4009C21.9231 20.8657 22.3571 20.4178 22.8931 20.4086C23.453 20.3985 23.8962 20.824 23.9016 21.3785Z" fill="white" stroke="black" stroke-width="0.8" stroke-miterlimit="10"/>
</g>
<defs>
<clipPath id="clip0_602_5581">
<rect width="31.0588" height="32" fill="white"/>
</clipPath>
</defs>
</svg>
