<svg width="32" height="32" viewBox="0 0 32 32" fill="none" xmlns="http://www.w3.org/2000/svg">
<g clip-path="url(#clip0_511_5438)">
<path d="M0 15.9141C0.1075 15.3541 0.187501 14.7866 0.329168 14.2349C0.600001 13.1783 1.0625 12.2033 1.68 11.3024C4.21083 7.61161 6.74083 3.91994 9.27167 0.228271C9.31667 0.162438 9.36833 0.099939 9.44417 -6.10352e-05C12.2767 4.13494 15.0917 8.24244 17.9083 12.3541C18.4633 12.1949 19.0717 11.9833 19.6967 11.8458C25.2617 10.6199 30.8158 14.3299 31.8225 19.9341C31.8883 20.3016 31.9408 20.6708 32 21.0391V22.5391C31.9617 22.7849 31.9192 23.0291 31.8858 23.2758C31.3333 27.2966 28.1883 30.7583 24.245 31.6624C23.63 31.8033 22.9992 31.8741 22.375 31.9774H21.25C21.0667 31.9524 20.8825 31.9291 20.6992 31.9033C16.99 31.3849 14.2908 29.4541 12.6242 26.0999C12.4808 25.8116 12.3592 25.7724 12.0675 25.8591C10.6258 26.2891 9.14917 26.3741 7.6825 26.0683C3.805 25.2599 1.39917 22.8591 0.314168 19.0908C0.163335 18.5658 0.1025 18.0149 0 17.4758C0 16.9549 0 16.4341 0 15.9133V15.9141ZM11.8567 23.9649C11.1133 19.5083 12.5758 15.9716 16.2425 13.2433C13.9867 9.94744 11.7258 6.64577 9.44583 3.31577C9.3775 3.4041 9.3325 3.45744 9.29333 3.51494C7.27333 6.45994 5.24834 9.40161 3.23667 12.3516C2.11667 13.9941 1.67583 15.8124 1.95333 17.7833C2.4575 21.3683 5.1925 23.9824 8.79667 24.3274C9.84083 24.4274 10.8692 24.3124 11.8575 23.9649H11.8567ZM13.5233 21.7866C13.5208 26.3449 17.2433 30.0766 21.8083 30.0916C26.3767 30.1066 30.1242 26.3641 30.1242 21.7883C30.1242 17.2224 26.4042 13.4933 21.8408 13.4841C17.2658 13.4749 13.5258 17.2083 13.5233 21.7866Z" fill="black" stroke="white" stroke-width="0.3"/>
<path d="M6.69665 14.7433C8.24082 14.7466 9.49582 16.0008 9.49915 17.5441C9.50249 19.0958 8.22832 20.3708 6.67916 20.3658C5.12999 20.3608 3.86582 19.08 3.87666 17.5266C3.88749 15.9875 5.14999 14.7408 6.69749 14.7441L6.69665 14.7433ZM6.71082 16.6191C6.19499 16.6083 5.76832 17.0091 5.75166 17.5191C5.73416 18.0333 6.16582 18.4841 6.67999 18.49C7.18082 18.495 7.61499 18.0708 7.62415 17.5666C7.63332 17.0583 7.22082 16.6291 6.71165 16.6191H6.71082Z" fill="black" stroke="white" stroke-width="0.3"/>
<path d="M27.1325 21.7958C27.1325 22.7333 27.1258 23.67 27.1375 24.6066C27.14 24.8116 27.0733 24.9191 26.895 25.0208C25.2783 25.9441 23.6675 26.8758 22.0583 27.8133C21.8966 27.9075 21.78 27.9216 21.61 27.8224C19.9841 26.8741 18.3533 25.9341 16.72 24.9983C16.565 24.9099 16.5042 24.8141 16.5042 24.6325C16.5108 22.7483 16.5117 20.8633 16.5042 18.9783C16.5042 18.7924 16.575 18.7025 16.7258 18.6158C18.3592 17.6791 19.9892 16.7391 21.6158 15.7916C21.77 15.7016 21.8792 15.6983 22.0358 15.7891C23.6625 16.7366 25.2925 17.6783 26.9258 18.6133C27.0842 18.7041 27.1367 18.8058 27.135 18.9833C27.1267 19.9199 27.1308 20.8575 27.1308 21.7941L27.1325 21.7958ZM18.3842 20.9041C18.3842 21.8566 18.3792 22.7391 18.3917 23.6216C18.3925 23.71 18.475 23.8291 18.5542 23.8783C18.9333 24.1141 19.3233 24.3324 19.71 24.5549C20.0842 24.7699 20.4592 24.9841 20.8825 25.2266C20.8825 24.2666 20.8841 23.3658 20.8783 22.4658C20.8783 22.4066 20.8317 22.3233 20.7817 22.2933C20.0042 21.8375 19.2233 21.3883 18.385 20.9041H18.3842ZM22.7583 25.205C22.8458 25.1733 22.885 25.1641 22.9192 25.1449C23.6483 24.7258 24.38 24.3116 25.1 23.8775C25.1866 23.825 25.2492 23.6641 25.2508 23.5524C25.2642 22.7833 25.2583 22.0141 25.2566 21.2449C25.2566 21.1491 25.2458 21.0541 25.2375 20.9249C24.4333 21.3883 23.6675 21.8241 22.9092 22.2725C22.8367 22.315 22.7658 22.43 22.765 22.5125C22.755 23.3941 22.7583 24.2766 22.7583 25.2041V25.205ZM19.3308 19.2833C20.1491 19.7566 20.93 20.2108 21.7158 20.6558C21.7741 20.6891 21.885 20.6874 21.9433 20.6541C22.7291 20.2083 23.51 19.7541 24.3242 19.2833C23.5083 18.8125 22.7275 18.3583 21.9417 17.9125C21.8833 17.8791 21.7741 17.8791 21.7158 17.9125C20.93 18.3566 20.15 18.81 19.33 19.2833H19.3308Z" fill="black" stroke="white" stroke-width="0.3"/>
</g>
<defs>
<clipPath id="clip0_511_5438">
<rect width="32" height="32" fill="white"/>
</clipPath>
</defs>
</svg>
