<svg width="32" height="32" viewBox="0 0 32 32" fill="none" xmlns="http://www.w3.org/2000/svg">
<g clip-path="url(#clip0_602_5535)">
<path d="M0.0831074 11.7195C0.0831074 11.0753 0.0831074 10.4312 0.0831074 9.78701C0.167055 9.28831 0.215261 8.7813 0.340768 8.2934C1.41796 4.10265 4.04196 1.42296 8.2269 0.300051C8.763 0.156259 9.32155 0.0980779 9.86929 0C10.3888 0 10.9082 0 11.4277 0C11.5075 0.0174545 11.5873 0.0440515 11.6688 0.0515321C14.2728 0.306701 16.4912 1.37891 18.2998 3.25901C20.1999 5.23387 21.1732 7.616 21.2563 10.3539C21.2654 10.6531 21.3577 10.7312 21.6494 10.7429C22.1864 10.7653 22.7266 10.816 23.2569 10.9058C27.3579 11.6006 30.7616 14.7981 31.6925 18.8335C31.8246 19.4061 31.8986 19.9921 31.9992 20.5714V22.0675C31.9809 22.1565 31.9543 22.2446 31.946 22.3352C31.5113 26.8326 28.2921 30.5488 23.8894 31.6135C23.3184 31.7515 22.73 31.818 22.1498 31.9177H20.2797C20.1783 31.9003 20.0777 31.872 19.9763 31.8662C18.668 31.7889 17.3797 31.5828 16.1122 31.2519C11.8001 30.1282 8.17204 27.8857 5.26129 24.5162C2.47604 21.2921 0.810381 17.5518 0.260979 13.3211C0.191992 12.7884 0.141288 12.2539 0.0822754 11.7203L0.0831074 11.7195ZM21.1433 30.0825C21.6902 30.0326 22.2421 30.0127 22.784 29.9279C28.2664 29.0668 31.5603 23.3051 29.5264 18.1486C28.2148 14.8239 25.1196 12.6886 21.4849 12.6005C20.2356 12.5706 19.441 11.7718 19.3945 10.5259C19.377 10.0497 19.3471 9.56925 19.2632 9.1013C18.2774 3.56488 12.4866 0.367378 7.31095 2.56748C4.19407 3.89236 2.41703 6.32769 2.01391 9.70057C1.81526 11.3646 2.03968 13.0169 2.37963 14.6502C4.22233 23.488 12.1425 29.9869 21.1433 30.0842V30.0825Z" fill="black"/>
<path d="M32 20.5714C31.8994 19.9921 31.8255 19.4061 31.6933 18.8335C30.7616 14.799 27.3588 11.6006 23.2578 10.9058C22.7275 10.816 22.1881 10.7653 21.6503 10.7429C21.3586 10.7304 21.2663 10.6531 21.2572 10.3539C21.174 7.616 20.2007 5.23387 18.3007 3.25901C16.4921 1.37891 14.2737 0.306701 11.6696 0.0515321C11.5882 0.0432204 11.5092 0.0174545 11.4286 0C18.2857 0 25.1429 0 32 0V20.5714Z" fill="white"/>
<path d="M0.0831299 11.7195C0.142143 12.2531 0.192015 12.7884 0.261833 13.3203C0.811236 17.5501 2.4769 21.2912 5.26214 24.5153C8.1729 27.8849 11.8001 30.1274 16.1131 31.2511C17.3806 31.5811 18.6689 31.7881 19.9772 31.8654C20.0794 31.8712 20.18 31.8994 20.2805 31.9169H0.0831299V11.7195Z" fill="white"/>
<path d="M22.1506 31.9169C22.7308 31.8172 23.3193 31.7507 23.8903 31.6127C28.2921 30.5488 31.5121 26.8318 31.9468 22.3344C31.9551 22.2446 31.9817 22.1565 32 22.0667V31.9161H22.1506V31.9169Z" fill="white"/>
<path d="M9.87017 0C9.32242 0.0980779 8.76305 0.156259 8.22777 0.300051C4.04201 1.42296 1.41884 4.10265 0.341645 8.2934C0.216138 8.7813 0.167932 9.28831 0.0839844 9.78701C0.0839844 6.52966 0.0839844 3.27231 0.0839844 0C3.34632 0 6.60866 0 9.871 0H9.87017Z" fill="white"/>
<path d="M21.1432 30.0825C12.1433 29.9853 4.22229 23.4872 2.37959 14.6485C2.03881 13.0153 1.8144 11.3629 2.01388 9.69892C2.41699 6.32603 4.19404 3.89071 7.31092 2.56583C12.4874 0.365722 18.2774 3.56323 19.2631 9.09964C19.3462 9.56759 19.3762 10.0488 19.3945 10.5243C19.441 11.7702 20.2364 12.5689 21.4848 12.5989C25.1195 12.687 28.2148 14.8222 29.5264 18.1469C31.5603 23.3035 28.2663 29.0651 22.784 29.9262C22.242 30.011 21.691 30.031 21.1432 30.0808V30.0825ZM21.2164 27.9023C21.6303 27.8733 22.0467 27.8666 22.4565 27.8101C26.1934 27.2939 28.6811 23.5961 27.7876 19.9331C27.126 17.2235 24.6167 14.9652 21.3236 15.0151C18.7943 15.0533 16.9849 13.2131 16.9716 10.6905C16.9691 10.2558 16.9558 9.81445 16.876 9.38889C16.2127 5.83564 13.0892 3.60562 9.51185 4.11513C6.61689 4.52739 4.23975 7.16136 4.13087 10.0862C4.08016 11.4419 4.21897 12.7809 4.49741 14.1083C6.14894 21.9869 13.1806 27.7802 21.2164 27.9032V27.9023Z" fill="white"/>
<path d="M21.2164 27.9024C13.1798 27.7793 6.14897 21.9861 4.49744 14.1074C4.21899 12.7801 4.08102 11.4411 4.13089 10.0854C4.23978 7.16054 6.61692 4.52656 9.51188 4.1143C13.0892 3.6048 16.2128 5.83483 16.876 9.38807C16.9558 9.81363 16.9691 10.255 16.9716 10.6897C16.9841 13.2123 18.7944 15.0525 21.3236 15.0143C24.6167 14.9644 27.126 17.2227 27.7876 19.9323C28.682 23.5944 26.1943 27.2923 22.4565 27.8093C22.0467 27.8658 21.6303 27.8716 21.2164 27.9015V27.9024ZM21.1965 26.0056C21.3627 26.0056 21.5289 26.0098 21.6952 26.0056C24.3582 25.9275 26.3987 23.542 26.0671 20.8956C25.7837 18.6282 23.8604 16.921 21.573 16.891C21.0867 16.8844 20.5914 16.8827 20.1168 16.793C17.1237 16.2269 15.1173 13.785 15.1023 10.7354C15.1007 10.3531 15.0899 9.96241 15.015 9.59005C14.5471 7.24366 12.4459 5.70516 10.0413 5.92792C7.76809 6.13903 5.9711 8.13882 6.00351 10.4977C6.01598 11.4377 6.09744 12.3878 6.25952 13.3129C7.51624 20.4883 13.8913 25.8926 21.1973 26.0065L21.1965 26.0056Z" fill="black"/>
<path d="M21.1965 26.0056C13.8905 25.8918 7.51546 20.4875 6.25873 13.312C6.09665 12.3861 6.0152 11.4369 6.00273 10.4968C5.97115 8.13799 7.7673 6.13819 10.0405 5.92708C12.4451 5.70432 14.5463 7.24282 15.0143 9.58921C15.0891 9.9624 15.0999 10.3522 15.1015 10.7346C15.1165 13.7833 17.1229 16.2261 20.116 16.7921C20.5906 16.8819 21.086 16.8844 21.5722 16.8902C23.8596 16.9201 25.7829 18.6273 26.0663 20.8948C26.3971 23.5412 24.3566 25.9267 21.6944 26.0048C21.5281 26.0098 21.3619 26.0048 21.1957 26.0048L21.1965 26.0056ZM7.74486 10.5741C7.74403 12.1268 9.01406 13.396 10.5575 13.3843C12.0919 13.3727 13.3503 12.1101 13.3519 10.5791C13.3536 9.04396 12.1027 7.78806 10.5625 7.77892C9.00242 7.76978 7.74569 9.01653 7.74486 10.5741ZM24.2211 21.4658C24.2269 19.924 22.9877 18.6631 21.45 18.6481C19.909 18.6323 18.6265 19.8974 18.6157 21.4433C18.6057 22.9735 19.8608 24.2435 21.396 24.2543C22.9594 24.2652 24.2145 23.0259 24.2211 21.4658ZM10.2517 17.1071H12.0811V15.2769H10.2517V17.1071ZM14.8987 19.9024V21.7426H16.7165V19.9024H14.8987Z" fill="white"/>
<path d="M7.74487 10.5741C7.74571 9.01653 9.00244 7.76978 10.5625 7.77892C12.1027 7.78806 13.3536 9.04396 13.3519 10.5791C13.3503 12.1093 12.0919 13.3727 10.5576 13.3843C9.01407 13.396 7.74321 12.1268 7.74487 10.5741ZM10.5517 9.64905C10.0331 9.64572 9.61833 10.053 9.615 10.5692C9.61168 11.0803 10.0298 11.5084 10.5376 11.5134C11.0355 11.5183 11.4768 11.0845 11.4818 10.5833C11.4868 10.0754 11.0662 9.65154 10.5517 9.64822V9.64905Z" fill="black"/>
<path d="M24.2211 21.4658C24.2152 23.0259 22.9594 24.2651 21.3959 24.2543C19.8608 24.2435 18.6057 22.9735 18.6157 21.4433C18.6265 19.8973 19.909 18.6323 21.4499 18.6481C22.9868 18.6639 24.2269 19.9239 24.2211 21.4658ZM22.3501 21.4566C22.3518 20.9405 21.937 20.5191 21.4258 20.5174C20.9238 20.5157 20.4883 20.9479 20.4866 21.4508C20.4841 21.9561 20.9105 22.3825 21.42 22.3834C21.9378 22.385 22.3493 21.9753 22.3501 21.4566Z" fill="black"/>
<path d="M10.2516 17.1071V15.2769H12.081V17.1071H10.2516Z" fill="black"/>
<path d="M14.8987 19.9023H16.7164V21.7426H14.8987V19.9023Z" fill="black"/>
<path d="M10.5517 9.64905C11.0654 9.65237 11.4868 10.0754 11.4818 10.5841C11.4768 11.0853 11.0355 11.5192 10.5376 11.5142C10.0298 11.5092 9.61169 11.0812 9.61501 10.57C9.61833 10.0538 10.0331 9.64656 10.5517 9.64988V9.64905Z" fill="white"/>
<path d="M22.3501 21.4566C22.3484 21.9753 21.9378 22.385 21.42 22.3834C20.9105 22.3817 20.4841 21.9562 20.4866 21.4508C20.4891 20.9479 20.9246 20.5157 21.4258 20.5174C21.937 20.5191 22.3517 20.9405 22.3501 21.4566Z" fill="white"/>
</g>
<defs>
<clipPath id="clip0_602_5535">
<rect width="32" height="32" fill="white"/>
</clipPath>
</defs>
</svg>
