<svg width="32" height="32" viewBox="0 0 32 32" fill="none" xmlns="http://www.w3.org/2000/svg">
<path d="M1.23083 15.0155C1.23083 14.437 1.23083 13.8585 1.23083 13.28C1.24314 13.2062 1.26773 13.1324 1.28004 13.0585C1.39081 12.3693 1.45239 11.6554 1.63701 10.9908C3.12624 5.78467 6.52311 2.59698 11.8154 1.45236C12.2954 1.3416 12.8001 1.30468 13.2924 1.23083C13.8708 1.23083 14.4493 1.23083 15.0278 1.23083C15.0893 1.24314 15.1508 1.26773 15.2247 1.28004C16.677 1.39081 18.0555 1.7601 19.397 2.33856C25.637 5.03394 28.7262 12.4308 26.2401 18.7447C25.9201 19.557 25.5016 20.3447 25.1078 21.1693C25.1447 21.2062 25.2185 21.28 25.2924 21.3539C26.6708 22.7323 28.0247 24.1108 29.4155 25.4647C30.0432 26.0801 30.6216 26.6954 30.7939 27.5939V28.4062C30.7939 28.4062 30.7446 28.5293 30.7323 28.5908C30.4739 29.6124 29.8585 30.2893 28.8616 30.6463C28.7139 30.6955 28.5785 30.7324 28.4308 30.7816H27.6185C26.7324 30.6093 26.117 30.0431 25.5139 29.4277C24.1477 28.037 22.757 26.6585 21.3785 25.28C21.3047 25.2062 21.2308 25.1324 21.1447 25.0585C21.0831 25.0954 21.0216 25.1324 20.9601 25.157C18.2278 26.8062 15.2985 27.4093 12.1478 26.917C6.89237 26.1047 2.63392 22.0554 1.55085 16.837C1.42777 16.2339 1.35395 15.6309 1.26779 15.0155H1.23083ZM3.07699 14.1293C3.07699 20.2093 8.01235 25.2062 14.0554 25.2308C20.2216 25.2555 25.2185 20.3201 25.2308 14.1909C25.2308 8.06164 20.2955 3.0893 14.1539 3.07699C8.07391 3.06468 3.0893 8.03697 3.07699 14.1293ZM22.6339 23.9754C22.7201 24.0493 22.8063 24.1109 22.8801 24.1847C24.3201 25.6247 25.76 27.0646 27.2 28.5046C27.2739 28.5785 27.3477 28.6647 27.4339 28.7139C27.7662 28.9478 28.1108 28.9724 28.4678 28.7755C28.8001 28.5908 28.9724 28.2708 28.8985 27.9016C28.8493 27.6677 28.7139 27.4093 28.5416 27.237C27.0893 25.7601 25.6124 24.2954 24.1478 22.8308C24.0862 22.7693 24.0124 22.7078 23.9509 22.6463C23.5078 23.077 23.0893 23.5077 22.6339 23.9631V23.9754Z" fill="black"/>
<path d="M30.7693 27.5939C30.597 26.6954 30.0186 26.0801 29.3909 25.4647C28.0001 24.1108 26.6463 22.72 25.2678 21.3539C25.194 21.28 25.1201 21.2062 25.0832 21.1693C25.477 20.3447 25.8955 19.5693 26.2155 18.7447C28.7016 12.4308 25.6124 5.03394 19.3724 2.33856C18.0432 1.7601 16.6524 1.39081 15.2001 1.28004C15.1385 1.28004 15.077 1.24314 15.0032 1.23083C20.2586 1.23083 25.5016 1.23083 30.757 1.23083V27.5939H30.7693Z" fill="white"/>
<path d="M1.23083 15.0155C1.32929 15.6186 1.3908 16.2339 1.51388 16.837C2.59696 22.0432 6.85547 26.0924 12.1109 26.917C15.2616 27.4093 18.2031 26.8063 20.9231 25.157C20.9847 25.1201 21.0339 25.0955 21.1078 25.0585C21.1939 25.1324 21.2678 25.2062 21.3416 25.2801C22.7201 26.6585 24.1108 28.0247 25.477 29.4278C26.0801 30.0431 26.7077 30.6093 27.5816 30.7817H1.21851C1.21851 25.5263 1.21851 20.2832 1.21851 15.0278L1.23083 15.0155Z" fill="white"/>
<path d="M13.2924 1.23083C12.8001 1.30467 12.3077 1.35389 11.8154 1.45236C6.52311 2.60928 3.12624 5.78466 1.63701 10.9908C1.45239 11.6554 1.39081 12.3693 1.28004 13.0585C1.26773 13.1323 1.24314 13.2062 1.23083 13.28C1.23083 9.26772 1.23083 5.25543 1.23083 1.21851C5.25545 1.21851 9.26774 1.21851 13.2924 1.21851V1.23083Z" fill="white"/>
<path d="M28.4062 30.7693C28.5539 30.7201 28.7016 30.6832 28.837 30.6339C29.8339 30.2893 30.4493 29.6 30.7078 28.5785C30.7201 28.517 30.7447 28.4555 30.7693 28.3939V30.757H28.4062V30.7693Z" fill="white"/>
<path d="M3.07703 14.1293C3.07703 8.03697 8.07395 3.05238 14.1539 3.077C20.2955 3.0893 25.2432 8.06165 25.2309 14.1909C25.2309 20.3201 20.2216 25.2555 14.0555 25.2308C8.01239 25.2062 3.07703 20.2216 3.07703 14.1293ZM14.1539 4.92315C9.05857 4.92315 4.92318 9.05852 4.92318 14.1416C4.92318 19.237 9.05854 23.3847 14.1293 23.3847C19.2493 23.3847 23.3847 19.237 23.3847 14.117C23.3847 9.04619 19.2247 4.91084 14.1539 4.92315Z" fill="white"/>
<path d="M22.6339 23.9754C23.0893 23.52 23.5201 23.1015 23.9508 22.6584C24.0124 22.7077 24.0739 22.7692 24.1477 22.8431C25.6123 24.3077 27.0893 25.7723 28.5416 27.2493C28.7139 27.4216 28.8493 27.6677 28.8985 27.9139C28.9723 28.2831 28.8001 28.5908 28.4677 28.7877C28.1231 28.9847 27.7662 28.9601 27.4339 28.7262C27.3477 28.6647 27.2739 28.5908 27.2 28.5169C25.76 27.0769 24.3201 25.6369 22.8801 24.1969C22.8062 24.1231 22.7201 24.0615 22.6339 23.9877V23.9754Z" fill="white"/>
<path d="M14.1539 4.9231C19.2247 4.9231 23.3724 9.05844 23.3847 14.1169C23.3847 19.2369 19.2493 23.3723 14.1293 23.3846C9.05848 23.3846 4.91082 19.2369 4.92312 14.1415C4.92312 9.05847 9.05851 4.9231 14.1539 4.9231ZM14.1539 21.5385C18.2031 21.5385 21.5262 18.24 21.5385 14.2031C21.5508 10.1046 18.2524 6.78156 14.1539 6.76925C10.1047 6.76925 6.78158 10.0677 6.76928 14.1047C6.76928 18.2154 10.0554 21.5262 14.1539 21.5385Z" fill="black"/>
<path d="M14.1539 21.5386C10.0555 21.5386 6.75701 18.2155 6.76932 14.1047C6.76932 10.0678 10.1047 6.75701 14.1539 6.76932C18.2524 6.76932 21.5509 10.1047 21.5386 14.2031C21.5262 18.2401 18.2032 21.5509 14.1539 21.5386ZM14.1047 8.13546C13.8955 8.16007 13.6863 8.17238 13.477 8.2093C12.0986 8.49238 11.1755 9.29239 10.7078 10.6093C10.5355 11.1016 10.794 11.6063 11.2617 11.7786C11.7417 11.9509 12.2339 11.717 12.4308 11.237C12.4678 11.1386 12.5047 11.0401 12.554 10.9416C12.8616 10.314 13.5139 9.9447 14.2278 9.99393C14.917 10.0432 15.4955 10.5109 15.717 11.1755C15.9755 11.9755 15.6678 12.7385 14.8924 13.2185C13.7478 13.9324 13.1693 14.9662 13.1693 16.3078C13.1693 16.8247 13.5755 17.2309 14.0801 17.2432C14.5724 17.2432 14.9909 16.8617 15.0155 16.3324C15.0155 16.197 15.0155 16.0616 15.0524 15.9262C15.1631 15.3232 15.557 14.9662 16.0493 14.6585C17.3785 13.797 17.957 12.1724 17.5016 10.6463C17.0585 9.15704 15.6801 8.13545 14.117 8.12314L14.1047 8.13546ZM13.1693 19.2247C13.1693 19.7293 13.5755 20.1355 14.0801 20.1478C14.597 20.1478 15.0155 19.7293 15.0155 19.2247C15.0155 18.7324 14.597 18.3139 14.0924 18.3139C13.5755 18.3139 13.1693 18.7201 13.1693 19.2247Z" fill="white"/>
<path d="M14.1047 8.13538C15.6801 8.15999 17.0586 9.18151 17.4893 10.6584C17.9447 12.1846 17.3663 13.8092 16.037 14.6708C15.5447 14.9908 15.1508 15.3477 15.04 15.9385C15.0154 16.0739 15.0155 16.2093 15.0032 16.3447C14.9662 16.8616 14.5601 17.2554 14.0678 17.2554C13.5754 17.2554 13.157 16.8369 13.157 16.32C13.157 14.9785 13.7478 13.9446 14.8801 13.2308C15.6555 12.7508 15.9509 11.9877 15.7047 11.1877C15.4955 10.5231 14.9047 10.0554 14.2154 10.0062C13.5016 9.95694 12.8493 10.3262 12.5416 10.9539C12.4924 11.0523 12.4555 11.1508 12.4186 11.2493C12.2093 11.7416 11.717 11.9631 11.2493 11.7908C10.7816 11.6185 10.5232 11.1139 10.6955 10.6216C11.1632 9.30463 12.0985 8.49231 13.4647 8.22154C13.6739 8.18462 13.8832 8.17231 14.0924 8.1477L14.1047 8.13538Z" fill="black"/>
<path d="M13.1693 19.2247C13.1693 18.7201 13.5755 18.314 14.0924 18.314C14.597 18.314 15.0278 18.7201 15.0155 19.2247C15.0155 19.7416 14.5847 20.1601 14.0801 20.1478C13.5755 20.1478 13.1693 19.7293 13.1693 19.2247Z" fill="black"/>
</svg>
