<svg width="32" height="32" viewBox="0 0 32 32" fill="none" xmlns="http://www.w3.org/2000/svg">
<g clip-path="url(#clip0_511_5447)">
<path d="M0.0829585 9.47149V0.0828857C2.57 0.0828857 5.05705 0.0828857 7.5441 0.0828857C7.55322 0.164129 7.57063 0.246203 7.57063 0.327446C7.57229 3.26879 7.57229 6.21097 7.57063 9.15232C7.57063 9.24185 7.55653 9.33138 7.54576 9.46237H4.78099V17.8702H7.33104C7.23819 17.7011 7.17684 17.5942 7.11964 17.4856C6.22762 15.782 6.604 13.6796 8.02825 12.4054C9.47819 11.108 11.6005 10.9529 13.1972 12.0472C13.426 12.2039 13.644 12.2628 13.9126 12.2628C18.0452 12.2586 22.1787 12.2429 26.3114 12.2702C28.878 12.2868 31.113 14.0966 31.7339 16.5853C31.8036 16.8646 31.8558 17.149 31.9163 17.4309V23.462C31.7936 23.4711 31.6701 23.4877 31.5474 23.4877C30.2434 23.4893 28.9393 23.4885 27.6353 23.4885C27.5134 23.4885 27.3916 23.4885 27.2398 23.4885V23.83C27.2398 24.596 27.249 25.3621 27.2349 26.1272C27.2307 26.3635 27.2921 26.4837 27.5217 26.5907C28.5339 27.0632 29.1632 28.1351 29.1068 29.2253C29.0463 30.3867 28.3143 31.3708 27.2208 31.7554C27.0475 31.8168 26.8693 31.8632 26.6935 31.9171H25.8852C25.8289 31.8964 25.775 31.869 25.7169 31.8549C23.7066 31.3824 22.8486 29.144 24.0316 27.4545C24.0705 27.3989 24.1037 27.3409 24.1476 27.2713H7.83674C7.90224 27.3641 7.94368 27.4222 7.98431 27.4802C9.08607 29.0611 8.35487 31.2149 6.52109 31.7919C6.38513 31.835 6.24918 31.8748 6.11322 31.9163H5.30493C5.26845 31.8988 5.23446 31.874 5.19633 31.8657C3.89063 31.573 3.0442 30.6462 2.89995 29.3488C2.77311 28.2064 3.42804 27.0897 4.56047 26.5492C4.72047 26.4729 4.77436 26.3842 4.76026 26.2201C4.74949 26.0866 4.75778 25.9515 4.75778 25.8164C4.75778 25.0528 4.75778 24.2885 4.75778 23.4877H4.39301C3.22327 23.4877 2.05436 23.4893 0.884615 23.486C0.616843 23.486 0.349071 23.4694 0.0812988 23.4603C0.0812988 21.595 0.0812988 19.7297 0.0812988 17.8644H2.86265V9.47066H0.0812988L0.0829585 9.47149ZM30.032 17.852C30.032 17.7749 30.0378 17.7136 30.032 17.6547C29.809 15.6054 28.1932 14.1372 26.1323 14.1322C22.5377 14.1247 18.9431 14.1297 15.3476 14.1306C15.2589 14.1306 15.1702 14.143 15.0898 14.1488V17.852H30.032ZM1.97063 21.5834H30.0262V19.7587H1.97063V21.5834ZM6.63301 23.5084C6.63301 24.0008 6.63301 24.4742 6.63301 24.9475C6.63301 25.2272 6.77173 25.367 7.04918 25.367C13.0164 25.367 18.9837 25.367 24.9509 25.367C25.0338 25.367 25.125 25.3878 25.1971 25.3596C25.2643 25.3322 25.358 25.2543 25.3588 25.1963C25.3713 24.64 25.3663 24.0837 25.3663 23.5075H6.63384L6.63301 23.5084ZM1.9698 7.54983H5.67715V1.97138H1.9698V7.54983ZM10.861 13.1971C9.56441 13.1938 8.52731 14.2176 8.5157 15.5134C8.50327 16.8025 9.54037 17.8595 10.8245 17.8678C12.1269 17.876 13.1922 16.8273 13.1947 15.5341C13.1963 14.2532 12.1451 13.1996 10.8618 13.1963L10.861 13.1971ZM6.62969 29.1117C6.63135 28.5936 6.22679 28.1832 5.71115 28.1791C5.18887 28.1749 4.7528 28.6077 4.76192 29.1208C4.77104 29.6215 5.20627 30.0493 5.70451 30.046C6.21353 30.0427 6.62803 29.6249 6.62969 29.1117ZM25.3704 29.1051C25.3688 29.6174 25.7808 30.0394 26.289 30.046C26.7996 30.0526 27.2473 29.605 27.2382 29.0959C27.2291 28.5878 26.8079 28.1774 26.2956 28.1791C25.7799 28.1807 25.3721 28.5886 25.3704 29.1051Z" fill="black"/>
<path d="M1.9698 7.54983H5.67715V1.97138H1.9698V7.54983Z" fill="black"/>
<path d="M1.97058 21.5834V19.7587H30.0261V21.5834H1.97058Z" stroke="white" stroke-width="0.3"/>
<path d="M6.63303 23.5084H25.3655C25.3655 24.0845 25.3704 24.6408 25.358 25.1971C25.3563 25.2551 25.2635 25.3339 25.1964 25.3604C25.1251 25.3894 25.033 25.3678 24.9501 25.3678C18.9829 25.3678 13.0156 25.3678 7.04837 25.3678C6.77148 25.3678 6.63275 25.228 6.6322 24.9484C6.6322 24.475 6.6322 24.0016 6.6322 23.5092L6.63303 23.5084Z" stroke="white" stroke-width="0.3"/>
<path d="M10.861 13.1971C12.1443 13.2004 13.1955 14.2532 13.1938 15.5349C13.1922 16.8282 12.1269 17.8769 10.8237 17.8686C9.53953 17.8603 8.50326 16.8025 8.51487 15.5142C8.5273 14.2184 9.5644 13.1946 10.8602 13.1979L10.861 13.1971Z" stroke="white" stroke-width="0.3"/>
<path d="M6.62965 29.1117C6.628 29.6248 6.21432 30.0435 5.7053 30.046C5.20707 30.0493 4.771 29.6215 4.76271 29.1208C4.75359 28.6077 5.18966 28.1749 5.71194 28.179C6.22759 28.1832 6.63214 28.5936 6.63048 29.1117H6.62965Z" stroke="white" stroke-width="0.3"/>
<path d="M25.3704 29.105C25.372 28.5886 25.7799 28.1799 26.2955 28.179C26.8079 28.1774 27.2298 28.5877 27.2381 29.0959C27.2473 29.6049 26.7996 30.0526 26.2889 30.046C25.7816 30.0393 25.3695 29.6174 25.3704 29.105Z" stroke="white" stroke-width="0.3"/>
</g>
<defs>
<clipPath id="clip0_511_5447">
<rect width="32" height="32" fill="white"/>
</clipPath>
</defs>
</svg>
