<svg width="126" height="115" viewBox="0 0 126 115" fill="none" xmlns="http://www.w3.org/2000/svg">
<path d="M101.222 91.3387C113.211 83.7899 119.999 74.3966 118.052 66.0129C117.158 62.1452 114.496 58.9001 110.509 56.3785C110.226 54.0519 109.824 51.755 109.302 49.4877C107.932 43.5697 104.981 37.0135 99.8134 31.5976C101.43 24.3211 104.146 8.1823 97.5422 4.0666C90.8949 -0.0796192 75.9675 13.7256 69.4993 20.2415C65.6064 20.4852 60.7097 21.3498 55.1759 22.658C49.6311 23.9148 44.8564 25.2917 41.2482 26.7891C32.5654 23.7823 13.0964 17.9533 8.9502 24.6006C4.83392 31.1983 14.3636 44.4961 19.0242 50.3191C16.7642 57.4569 16.9986 64.6446 18.3691 70.5627C18.7438 72.1861 19.193 73.7962 19.6872 75.39C15.9934 80.1783 14.3753 85.1406 15.4542 89.794C16.5668 94.6072 20.414 98.449 26.1496 101.137C19.4335 107.451 6.24544 121.965 16.5554 130.374C22.9054 135.554 30.3146 130.784 35.6956 125.446C42.584 131.334 55.0807 134.525 68.9237 133.119C82.7667 131.713 94.3605 126.07 99.9309 118.923C106.275 123.07 114.492 126.253 119.671 119.903C129.516 107.832 106.107 94.0315 101.228 91.3381L101.222 91.3387Z" fill="#ADBED9"/>
<path d="M23.6798 133.936C20.7485 134.233 18.0578 133.399 15.6736 131.449C12.9277 129.21 11.4835 126.412 11.3659 123.13C11.073 114.678 19.9476 105.049 25.2593 100.061C25.8177 99.5325 27.7265 101.566 27.1681 102.095C23.1657 105.853 13.8876 115.412 14.1492 123.04C14.2378 125.52 15.3087 127.569 17.4317 129.3C19.3894 130.897 21.513 131.486 23.9225 131.101C27.5367 130.524 31.7794 127.697 36.1974 122.923C39.6273 119.211 41.9447 115.623 41.9701 115.586C42.3881 114.937 43.2494 114.75 43.8924 115.169C44.5412 115.587 44.7272 116.443 44.3092 117.091C44.2084 117.247 41.8616 120.89 38.2687 124.776C33.3477 130.109 28.6679 133.167 24.359 133.849C24.1293 133.884 23.8991 133.914 23.6741 133.936L23.6798 133.936Z" fill="#446993"/>
<path d="M61.5162 25.0398C63.4782 33.5095 62.6066 40.9436 59.5766 41.6478C56.5409 42.3525 52.4856 36.06 50.5236 27.5903C50.2541 26.4284 50.0394 25.29 49.8807 24.1868C53.4181 23.198 56.9892 22.3689 60.6067 21.71C60.9477 22.7714 61.2536 23.8888 61.5226 25.045L61.5162 25.0398Z" fill="#446993"/>
<path d="M49.0649 24.9927C51.0263 33.4566 50.161 40.8959 47.1253 41.6007C44.209 42.2758 40.3229 36.4441 38.2918 28.442C40.0627 27.5101 41.9343 26.7079 43.8897 26.0429C45.5636 25.4765 47.2469 24.9441 48.9348 24.4579C48.9824 24.6396 49.023 24.8104 49.0649 24.9927Z" fill="#446993"/>
<path d="M72.8569 20.3552C74.5724 28.4652 73.6615 35.4544 70.7279 36.1313C67.6921 36.836 63.642 30.5372 61.6801 22.0674C61.6382 21.8851 61.597 21.7086 61.5609 21.5257C63.548 21.1723 65.5588 20.8807 67.5737 20.6294C69.3469 20.4085 71.1104 20.3227 72.8563 20.3495L72.8569 20.3552Z" fill="#446993"/>
<path d="M94.2283 18.5637C94.2283 18.5637 95.5636 20.3461 96.2232 22.5353C96.8369 24.56 95.9585 26.4157 94.489 27.4452C90.1881 24.3608 85.2492 22.1689 79.9899 21.0707C79.7764 19.9439 79.9921 18.7385 80.709 17.7038C83.5865 13.5464 87.7974 8.79886 91.7032 9.42826C98.5069 10.5213 94.2277 18.5579 94.2277 18.5579L94.2283 18.5637Z" fill="white"/>
<path d="M18.2868 36.1692C18.2868 36.1692 17.8734 38.3565 18.2428 40.616C18.5831 42.7035 20.1883 43.9863 21.9599 44.2669C24.4655 39.6051 27.9392 35.4629 32.1748 32.1645C31.8701 31.0586 31.1518 30.0706 30.0521 29.4593C25.6385 26.9868 19.7689 24.5863 16.537 26.8617C10.9127 30.8375 18.2868 36.1692 18.2868 36.1692Z" fill="white"/>
<path d="M89.1341 58.4151C88.4805 55.5957 85.6678 53.8468 82.8536 54.494C80.0342 55.1476 78.2853 57.9603 78.9325 60.7745L89.1336 58.4094L89.1341 58.4151Z" fill="#446993"/>
<path d="M50.5961 67.3485C49.9425 64.5291 47.1298 62.7801 44.3156 63.4274C41.4962 64.081 39.7472 66.8937 40.3944 69.7079L50.5955 67.3427L50.5961 67.3485Z" fill="#446993"/>
<path d="M61.5696 70.8043C60.8829 70.874 60.2364 70.4208 60.0732 69.732C59.8977 68.9802 60.364 68.2333 61.1163 68.0636C62.7623 67.6808 63.7899 66.0315 63.4128 64.385C63.4012 64.3279 63.3896 64.2707 63.3831 64.2073C63.3134 63.5206 63.7666 62.8741 64.4554 62.7109C65.2014 62.536 65.9541 63.0018 66.1238 63.7541C66.3097 64.5514 66.7926 65.231 67.4893 65.6617C68.186 66.0923 69.0103 66.2301 69.8076 66.0442C70.5535 65.8693 71.3063 66.3351 71.4759 67.0874C71.6514 67.8391 71.1851 68.586 70.4327 68.7557C68.912 69.1084 67.3407 68.8482 66.0149 68.0209C65.878 67.9357 65.7463 67.8441 65.6203 67.752C64.8602 69.2225 63.4838 70.365 61.7467 70.7688C61.6896 70.7804 61.6324 70.7921 61.569 70.7985L61.5696 70.8043Z" fill="#446993"/>
<path d="M74.0675 51.329C73.3808 51.3988 72.7343 50.9456 72.5711 50.2567C72.3956 49.505 72.8619 48.7581 73.6142 48.5884L77.8407 47.6112C78.5867 47.4363 79.3394 47.902 79.5091 48.6544C79.6845 49.4061 79.2182 50.153 78.4659 50.3227L74.2394 51.2999C74.1823 51.3115 74.1252 51.3232 74.0617 51.3296L74.0675 51.329Z" fill="white"/>
<path d="M46.2379 57.7753C45.5512 57.845 44.9047 57.3918 44.7415 56.703C44.566 55.9513 45.0323 55.2044 45.7847 55.0347L50.0112 54.0575C50.7571 53.8826 51.5098 54.3483 51.6795 55.1006C51.8549 55.8524 51.3886 56.5993 50.6363 56.769L46.4098 57.7462C46.3527 57.7578 46.2898 57.77 46.2321 57.7759L46.2379 57.7753Z" fill="white"/>
<path d="M62.4964 64.9502C61.8097 65.02 61.1632 64.5668 61 63.8779C60.8245 63.1262 61.2908 62.3793 62.0432 62.2096L66.5714 61.1609C67.3173 60.9861 68.07 61.4518 68.2397 62.2041C68.4152 62.9558 67.9488 63.7028 67.1965 63.8724L62.6683 64.9211C62.6112 64.9327 62.5483 64.945 62.4906 64.9508L62.4964 64.9502Z" fill="#446993"/>
<path d="M113.567 98.0311C110.076 95.115 106.416 92.7643 103.885 91.2665C115.421 83.4432 121.339 74.0391 119.408 65.7061C118.486 61.7306 115.93 58.3231 111.809 55.5702C111.523 53.3897 111.136 51.2428 110.659 49.1809C109.278 43.2231 105.276 32.1681 93.9582 25.0332C93.31 24.621 92.4498 24.8191 92.0376 25.4673C91.6254 26.1154 91.8235 26.9756 92.4717 27.3879C102.942 33.9908 106.656 44.2706 107.941 49.8067C108.263 51.1965 108.537 52.6261 108.771 54.0772C105.873 53.0891 102.957 53.1345 100.816 53.416C100.051 53.517 99.5157 54.2127 99.6167 54.9778C99.7178 55.7429 100.413 56.2785 101.179 56.1775C103.485 55.8733 106.849 55.8756 109.786 57.5771C113.58 59.9784 115.902 62.9257 116.691 66.3318C117.747 70.8768 115.939 75.9807 111.473 81.0865C106.939 86.2633 100.024 91.0814 91.4629 95.0115C90.7668 95.3329 90.4599 96.1569 90.7819 96.8588C91.0367 97.4159 91.6097 97.7191 92.1867 97.6605C92.3367 97.6453 92.4844 97.607 92.6292 97.5398C95.7371 96.1107 98.6186 94.5763 101.252 92.9563C109.783 97.7916 119.218 105.281 120.505 112.041C120.982 114.558 120.357 116.842 118.578 119.017C116.982 120.975 115.026 121.978 112.582 122.086C103.587 122.486 91.9013 110.638 91.784 110.515C91.2499 109.963 90.3628 109.954 89.8171 110.494C89.2656 111.033 89.2555 111.909 89.7953 112.46C89.9254 112.593 92.9566 115.69 97.2574 118.774C103.15 123.009 108.349 125.063 112.707 124.866C112.939 124.854 113.171 124.836 113.396 124.813C116.327 124.516 118.795 123.157 120.738 120.768C123.035 117.952 123.873 114.841 123.243 111.506C122.431 107.234 119.177 102.691 113.566 98.0138L113.567 98.0311Z" fill="#446993"/>
<path d="M98.2679 2.88528C94.8198 0.734447 89.7103 2.087 82.6492 7.01321C77.4832 10.6218 72.3709 15.3909 68.8731 18.8943C65.1528 19.173 60.4661 19.9812 54.8637 21.3022C49.2393 22.5788 44.6711 23.923 41.203 25.3071C36.516 23.7018 29.82 21.6593 23.6012 20.6993C15.09 19.3832 9.9131 20.4162 7.76227 23.8643C3.42549 30.8167 11.7536 43.3621 17.4679 50.6054C15.0255 58.8753 15.9819 66.4561 17.0079 70.8758C17.328 72.2483 17.7059 73.6732 18.1439 75.1154C14.3992 80.2062 13.0001 85.3736 14.0924 90.1014C16.823 101.892 34.2814 108.531 57.5354 106.625C57.5469 106.623 57.5527 106.623 57.5642 106.622C58.3144 106.545 58.8708 105.883 58.8114 105.125C58.7507 104.356 58.0752 103.789 57.3118 103.849C35.8386 105.61 19.1824 99.6934 16.8091 89.4699C15.8656 85.4032 17.2431 80.8268 20.7876 76.2344C20.8032 76.2153 20.8182 76.1905 20.8331 76.1656C20.8331 76.1656 20.8389 76.165 20.8441 76.1587C22.7367 73.3256 25.7632 71.8406 27.973 71.0973C28.7004 70.8544 29.0922 70.0626 28.8493 69.3352C28.6063 68.6078 27.8145 68.216 27.0871 68.4589C25.0636 69.1425 22.4534 70.3636 20.2913 72.4954C20.0859 71.735 19.8931 70.9851 19.7252 70.2501C18.4395 64.7082 17.2547 53.8451 23.7519 43.3096C24.1578 42.6562 23.9539 41.7966 23.2948 41.3913C22.6414 40.9855 21.7818 41.1894 21.3765 41.8485C20.22 43.7207 19.2978 45.6041 18.5538 47.4636C10.8706 37.3654 7.72484 29.1791 10.1215 25.3387C12.4376 21.6231 22.8078 22.3014 37.5178 27.0222C35.2989 28.2503 33.2153 29.6045 31.3268 31.0439C30.7152 31.5082 30.5942 32.3833 31.0644 32.9944C31.3674 33.395 31.8473 33.5853 32.3147 33.5378C32.5628 33.5126 32.8045 33.424 33.0155 33.2626C34.8122 31.8967 36.7921 30.6113 38.9118 29.4399C42.2851 27.5816 47.8596 25.7562 55.4958 24.0247C63.1076 22.2256 68.9128 21.4087 72.7561 21.5956C75.1704 21.7177 77.5191 21.998 79.7319 22.4321C80.4876 22.5827 81.2186 22.0887 81.3693 21.333C81.5199 20.5773 81.0259 19.8463 80.2702 19.6957C77.9379 19.233 75.4708 18.9355 72.9336 18.8084C84.0591 8.0943 93.0779 2.92846 96.7941 5.25028C100.883 7.79661 101.499 17.534 98.4426 31.2997L101.162 31.9038C103.141 22.9755 105.401 7.33778 98.2685 2.89105L98.2679 2.88528Z" fill="#446993"/>
<path d="M51.9437 94.6814C51.8629 94.6896 51.7816 94.6921 51.699 94.683C50.9296 94.627 50.3544 93.9567 50.4109 93.1931C51.3381 80.6814 41.0048 77.7256 40.5608 77.6017C39.8235 77.4025 39.3785 76.6374 39.5771 75.8943C39.7756 75.1513 40.5356 74.7126 41.2787 74.9112C41.4103 74.9444 44.606 75.815 47.6684 78.5297C50.5001 81.0405 53.7559 85.6594 53.1831 93.3954C53.1299 94.0771 52.5952 94.6094 51.9374 94.6762L51.9437 94.6814Z" fill="#446993"/>
<path d="M89.411 85.9968C88.8859 86.0501 88.3534 85.801 88.0653 85.3173C84.1496 78.62 85.0407 73.0436 86.4805 69.5394C88.0317 65.7558 90.521 63.5733 90.6282 63.4808C91.2068 62.9789 92.0876 63.0411 92.5952 63.6192C93.0971 64.1978 93.0407 65.078 92.462 65.5798C92.1145 65.8891 84.1474 73.0877 90.4761 83.9123C90.8643 84.5783 90.6417 85.4287 89.9757 85.817C89.7999 85.9223 89.6078 85.9826 89.4116 86.0026L89.411 85.9968Z" fill="#446993"/>
<path d="M97.0847 67.4134C96.3807 67.4849 95.7267 67.015 95.579 66.307C95.4266 65.553 95.9114 64.8158 96.6655 64.6635L104.432 63.0702C105.186 62.9121 105.924 63.4026 106.076 64.1567C106.228 64.9108 105.743 65.6479 104.989 65.8003L97.2226 67.3936C97.1764 67.3982 97.1308 67.4087 97.0789 67.414L97.0847 67.4134Z" fill="#446993"/>
<path d="M104.933 73.4023C104.818 73.414 104.701 73.4142 104.582 73.3913L97.7483 72.3422C96.9904 72.2268 96.4693 71.516 96.5841 70.7523C96.6995 69.9943 97.4097 69.4675 98.174 69.5881L105.008 70.6372C105.766 70.7526 106.287 71.4634 106.172 72.2271C106.074 72.8667 105.557 73.339 104.939 73.4017L104.933 73.4023Z" fill="#446993"/>
<path d="M29.6316 81.6324C28.9276 81.7039 28.2736 81.2339 28.1259 80.526C27.9735 79.772 28.4583 79.0348 29.2124 78.8825L36.9734 77.2898C37.7269 77.1317 38.4646 77.6222 38.617 78.3763C38.7693 79.1304 38.2845 79.8675 37.5305 80.0199L29.7695 81.6126C29.7233 81.6172 29.6777 81.6277 29.6258 81.633L29.6316 81.6324Z" fill="#446993"/>
<path d="M32.5464 88.6354C32.0328 88.6876 31.5136 88.4546 31.2215 87.9888C30.8171 87.3361 31.0154 86.4764 31.6681 86.072L37.5347 82.4156C38.1874 82.0112 39.047 82.2096 39.4515 82.8622C39.8559 83.5149 39.6575 84.3746 39.0048 84.779L33.1382 88.4354C32.952 88.5534 32.7489 88.6207 32.5412 88.6418L32.5464 88.6354Z" fill="#446993"/>
</svg>
