<svg width="141" height="122" viewBox="0 0 141 122" fill="none" xmlns="http://www.w3.org/2000/svg">
<path d="M113.327 4.57429C106.252 -0.578131 88.5193 13.607 80.7789 20.3552C76.4222 20.318 70.8928 20.8881 64.623 21.9033C58.3443 22.8613 52.9125 24.0148 48.7717 25.3882C39.3405 21.346 18.1091 13.282 12.951 20.3581C7.83238 27.3868 17.3932 42.9697 22.1125 49.8313C19.025 57.6034 18.7129 65.626 19.7671 72.33C20.6789 78.1287 22.2831 83.8125 24.5798 89.3817C29.0677 100.261 39.3713 107.536 51.1245 108.048C54.1043 108.178 57.063 108.212 60.0122 108.148C56.0155 112.417 53.9862 117.509 54.7881 122.609C56.5388 133.742 70.6275 137.568 86.8545 135.017C103.082 132.465 115.316 124.5 113.565 113.366C112.673 107.694 108.446 103.103 102.375 100.306C102.887 100.126 103.398 99.9397 103.908 99.748C114.936 95.6476 122.51 85.5613 123.443 73.8358C123.919 67.8248 123.702 61.9286 122.79 56.13C121.736 49.426 118.976 41.8805 113.647 35.432C116.037 27.4465 120.349 9.68807 113.321 4.57519L113.327 4.57429Z" fill="#ADBED9"/>
<path d="M59.0522 27.0187C60.5614 36.6163 64.5745 43.9529 68.0067 43.4132C71.4389 42.8735 73.0181 34.6575 71.5089 25.0599C71.3017 23.742 71.0492 22.4724 70.7533 21.2624C66.6734 21.7161 62.6281 22.3522 58.6068 23.1783C58.6965 24.4207 58.8458 25.7066 59.0522 27.0187Z" fill="#446993"/>
<path d="M71.9304 21.7642C73.4387 31.3561 77.447 38.6994 80.8849 38.1587C84.3228 37.6181 85.7748 29.974 84.5304 20.8281C82.3057 20.6083 80.0309 20.555 77.7316 20.6817C75.7594 20.7981 73.7984 20.9479 71.8397 21.1502C71.8664 21.3574 71.898 21.5579 71.9295 21.7585L71.9304 21.7642Z" fill="#446993"/>
<path d="M45.3419 26.9082C46.9584 36.0309 50.8196 42.8865 54.1429 42.3639C57.4662 41.8413 59.142 33.6042 57.6337 24.0124C57.6013 23.8061 57.5698 23.6055 57.5325 23.4059C55.3225 23.8767 53.1167 24.4115 50.9304 24.996C49.0032 25.5104 47.1378 26.156 45.3428 26.9139L45.3419 26.9082Z" fill="#446993"/>
<path d="M22.4465 33.9959C22.4465 33.9959 21.8094 36.4036 22.0445 38.9442C22.2565 41.3006 23.9396 42.8561 25.896 43.3118C29.0621 38.3163 33.2653 33.9798 38.2489 30.6479C37.9982 29.3897 37.2765 28.2349 36.0982 27.4631C31.3768 24.3597 25.0328 21.206 21.2461 23.4866C14.6564 27.4704 22.4474 34.0016 22.4474 34.0016L22.4465 33.9959Z" fill="white"/>
<path d="M108.492 20.4655C108.492 20.4655 109.837 22.5615 110.393 25.0517C110.915 27.3594 109.79 29.3564 108.068 30.3905C103.522 26.6078 98.1905 23.7706 92.4248 22.1289C92.2773 20.8545 92.6098 19.534 93.4943 18.4378C97.0354 14.0351 102.105 9.08668 106.409 10.095C113.904 11.8641 108.493 20.4713 108.493 20.4713L108.492 20.4655Z" fill="white"/>
<path d="M114.173 3.4194C110.551 0.777105 104.794 1.87621 96.5802 6.77289C90.5299 10.3782 84.435 15.3058 80.2545 18.9283C76.0872 18.9377 70.7909 19.4594 64.4123 20.4917C58.0304 21.4659 52.8238 22.5958 48.849 23.8667C43.7642 21.7011 36.4578 18.8867 29.5864 17.3074C20.2664 15.1678 14.4495 15.8887 11.8081 19.5158C6.46252 26.8562 14.7541 41.4996 20.513 50.0061C17.1156 59.0189 17.5761 67.5483 18.3636 72.5563C19.2898 78.4466 20.9373 84.2939 23.2686 89.934C25.5746 95.5251 29.3985 100.314 34.3168 103.774C39.2428 107.245 45.0369 109.216 51.0736 109.483C60.2016 109.879 69.317 109.373 78.1697 107.981C87.0224 106.589 95.853 104.273 104.419 101.094C110.083 98.9881 114.992 95.3332 118.615 90.5184C122.234 85.7159 124.398 79.9855 124.882 73.9556C125.365 67.8731 125.144 61.8014 124.217 55.9111C123.43 50.9032 121.251 42.6441 115.251 35.1089C118.134 25.2494 121.538 8.77283 114.184 3.4176L114.173 3.4194ZM122.023 73.73C121.582 79.2187 119.613 84.4312 116.326 88.8057C113.027 93.182 108.565 96.5082 103.417 98.4215C95.0294 101.537 86.3852 103.807 77.7216 105.169C69.058 106.531 60.1344 107.024 51.1951 106.633C45.7084 106.392 40.4352 104.597 35.9584 101.443C31.4825 98.2952 28.0085 93.9388 25.9096 88.8435C23.6699 83.4122 22.0795 77.7789 21.1884 72.1121C20.1982 65.8149 19.747 53.5732 27.8587 42.316C28.3213 41.6737 28.176 40.7865 27.5337 40.3238C26.8914 39.8611 26.0041 40.0065 25.5415 40.6488C24.0617 42.7017 22.8515 44.7885 21.8578 46.8706C13.9912 34.8555 11.0928 25.3472 14.1156 21.1963C17.0516 17.1647 28.73 18.7691 44.9458 25.3319C44.8692 25.3674 44.7859 25.3981 44.7093 25.4336C42.1256 26.6267 39.6834 27.9737 37.4529 29.4341C36.7928 29.8667 36.6083 30.7471 37.0409 31.4072C37.4735 32.0672 38.3539 32.2517 39.014 31.8191C41.1275 30.4358 43.4459 29.1611 45.9033 28.0231C49.8173 26.2157 56.1848 24.6273 64.8489 23.306C73.4947 21.9054 80.0367 21.4639 84.3165 21.9828C87.0045 22.3117 89.6023 22.8133 92.0383 23.4812C92.2409 23.5374 92.4421 23.5469 92.6369 23.5163C93.1755 23.4316 93.6425 23.0411 93.7897 22.4836C93.9989 21.7227 93.5465 20.9366 92.7921 20.7322C90.221 20.0268 87.4842 19.5001 84.6581 19.1518C84.58 19.1406 84.4914 19.137 84.4133 19.1257C88.2802 15.899 93.186 12.1096 98.0282 9.22264C104.953 5.09226 109.953 3.88322 112.48 5.72303C116.637 8.75073 116.797 18.6897 112.985 32.5353C111.401 30.8644 109.609 29.2497 107.57 27.7443C106.932 27.275 106.044 27.4147 105.574 28.0464C105.105 28.6839 105.244 29.572 105.876 30.0422C117.051 38.2666 120.379 50.056 121.369 56.3532C122.26 62.02 122.475 67.8695 122.01 73.7261L122.023 73.73Z" fill="#446993"/>
<path d="M37.6184 73.8327L28.4907 75.268C27.6427 75.4013 26.847 74.8219 26.7136 73.9738C26.5803 73.1258 27.1598 72.3301 28.0078 72.1968L37.1355 70.7615C37.9835 70.6281 38.7792 71.2076 38.9126 72.0556C39.0459 72.9036 38.4664 73.6993 37.6184 73.8327Z" fill="#446993"/>
<path d="M31.496 83.5854C30.8714 83.6836 30.2209 83.3925 29.8944 82.8097C29.4769 82.0592 29.7392 81.1137 30.4888 80.6905L37.5254 76.7481C38.275 76.3249 39.2214 76.593 39.6446 77.3426C40.0678 78.0922 39.7997 79.0385 39.0501 79.4617L32.0135 83.4042C31.8458 83.4951 31.6736 83.5574 31.496 83.5854Z" fill="#446993"/>
<path d="M101.391 63.8048L92.2637 65.2401C91.4156 65.3735 90.6199 64.794 90.4866 63.946C90.3532 63.098 90.9327 62.3023 91.7807 62.1689L100.908 60.7336C101.756 60.6003 102.552 61.1797 102.686 62.0278C102.819 62.8758 102.239 63.6715 101.391 63.8048Z" fill="#446993"/>
<path d="M101.08 72.6437C100.902 72.6716 100.72 72.6709 100.531 72.6301L92.6244 71.0374C91.782 70.8704 91.2355 70.0463 91.4082 69.203C91.5752 68.3606 92.3994 67.8141 93.2427 67.9868L101.15 69.5794C101.992 69.7464 102.539 70.5706 102.366 71.4139C102.234 72.0688 101.704 72.5455 101.08 72.6437Z" fill="#446993"/>
<path d="M48.3194 50.9652C48.2506 50.976 48.1761 50.9877 48.0989 50.9823L43.1934 51.0021C42.4067 51.0025 41.7669 50.3691 41.7599 49.5776C41.7595 48.7908 42.3928 48.1511 43.1786 48.1449L48.0841 48.1251C48.8709 48.1247 49.5106 48.7581 49.5177 49.5496C49.5187 50.2658 49.0012 50.858 48.3136 50.9661L48.3194 50.9652Z" fill="white"/>
<path d="M75.0552 46.7612C74.3734 46.8684 73.6934 46.4646 73.4746 45.7826C73.2335 45.0337 73.6529 44.228 74.4017 43.9869L79.0766 42.5003C79.8255 42.2592 80.6312 42.6785 80.8666 43.4283C81.1076 44.1772 80.6883 44.983 79.9394 45.224L75.2645 46.7107C75.1919 46.7339 75.124 46.7504 75.0495 46.7621L75.0552 46.7612Z" fill="white"/>
<path d="M90.4068 54.1001C90.1751 54.7178 89.5546 55.1031 88.8964 55.0246C87.2208 54.8242 83.4658 54.6924 76.5491 55.9621C76.0648 56.0559 75.5553 55.8776 75.2202 55.5017C74.8909 55.1249 74.7802 54.6079 74.9277 54.1268C74.9936 53.9109 76.6924 48.7704 85.2315 45.9069C86.035 45.6396 86.9164 46.1293 87.0868 46.9891C87.2281 47.7008 86.7792 48.3938 86.0934 48.625C82.6086 49.8012 80.5194 51.3392 79.2871 52.6134C84.4262 51.8757 87.5351 51.9682 89.2477 52.1803C90.1583 52.2955 90.7228 53.2343 90.4059 54.0944L90.4068 54.1001Z" fill="#446993"/>
<path d="M35.9728 62.6591C35.4072 61.9378 35.6507 60.872 36.4877 60.482C38.0525 59.7545 40.983 58.7124 46.1004 57.8372C44.5375 57.0085 42.0705 56.181 38.3929 56.131C37.6692 56.1215 37.0284 55.594 36.9453 54.879C36.8428 54.0027 37.5314 53.2661 38.379 53.2796C47.3791 53.3852 50.5736 57.7562 50.7083 57.9406C50.9954 58.3475 51.0496 58.8792 50.8518 59.3389C50.654 59.7986 50.2286 60.118 49.7283 60.1849C42.7558 61.0993 39.2215 62.3714 37.6892 63.0821C37.0868 63.3588 36.3789 63.1883 35.9679 62.6658L35.9728 62.6591Z" fill="#446993"/>
<path d="M52.554 75.6176C51.6133 69.6356 56.6784 63.8718 63.8694 62.741C71.0604 61.6102 77.6499 65.5414 78.5906 71.5234C79.5312 77.5054 73.7364 78.628 66.5453 79.7588C59.3543 80.8895 53.4946 81.5996 52.554 75.6176Z" fill="white"/>
<path d="M78.1236 73.4468C73.9378 71.7329 63.1518 68.5966 53.4286 76.5138L51.6247 74.3021C62.5344 65.4174 74.5493 68.9005 79.2054 70.8047L78.1236 73.4468Z" fill="#446993"/>
<path d="M65.0677 61.1732L64.5883 58.1249L65.7458 57.9429C66.525 57.8203 67.0562 57.0909 66.9337 56.3117C66.8111 55.5324 66.0817 55.0012 65.3025 55.1238L60.1742 55.9302C59.395 56.0527 58.8638 56.7821 58.9863 57.5614C59.1088 58.3406 59.8383 58.8718 60.6175 58.7493L61.7692 58.5682L62.2485 61.6165C55.0433 63.366 50.1475 69.4966 51.1449 75.8396C51.672 79.1915 53.6295 81.1854 56.9667 81.7586C59.6287 82.2207 62.98 81.7642 66.7732 81.1678C70.5664 80.5713 73.8961 79.9772 76.2878 78.7204C79.2813 77.1459 80.5391 74.6523 80.0121 71.3003C79.0146 64.9573 72.4679 60.626 65.0791 61.1714L65.0677 61.1732ZM66.3242 78.3496C57.758 79.6966 54.6019 79.453 53.964 75.3963C53.1477 70.205 57.6912 65.1573 64.0915 64.1509C70.4918 63.1445 76.3643 66.5484 77.1815 71.7454C77.8194 75.8022 74.8903 77.0026 66.3242 78.3496Z" fill="#446993"/>
<path d="M99.7091 124.276C99.2679 124.345 98.8057 124.207 98.4646 123.867C97.9119 123.302 97.9231 122.402 98.4822 121.85C100.364 120.004 101.598 117.321 102.137 113.877C102.262 113.1 102.987 112.563 103.77 112.687C104.547 112.811 105.078 113.538 104.96 114.32C104.325 118.383 102.818 121.603 100.488 123.889C100.269 124.106 99.9965 124.237 99.71 124.282L99.7091 124.276Z" fill="#446993"/>
<path d="M29.7659 88.3486L34.2238 87.6476C43.6208 86.17 52.754 94.6274 54.6263 106.534C56.4986 118.441 50.4027 129.299 41.0057 130.776L36.5478 131.477C27.1508 132.955 18.0176 124.498 16.1444 112.585C14.2712 100.673 20.3689 89.8262 29.7659 88.3486Z" fill="#FF80A9"/>
<path d="M41.2276 132.186L36.7697 132.887C26.6106 134.485 16.7272 125.476 14.7351 112.807C12.743 100.138 19.3846 88.5311 29.5437 86.9336L34.0015 86.2326C44.1606 84.6351 54.044 93.6439 56.0361 106.313C58.0283 118.982 51.3867 130.589 41.2276 132.186ZM29.9879 89.7584C21.3816 91.1117 15.8072 101.254 17.5542 112.364C19.3013 123.474 27.725 131.415 36.3255 130.062L40.7834 129.361C49.3897 128.008 54.9641 117.866 53.217 106.756C51.47 95.6458 43.0463 87.705 34.4457 89.0574L29.9879 89.7584Z" fill="#446993"/>
<path d="M39.9001 123.781C35.7746 124.43 31.5191 121.265 29.0611 115.715C28.3547 114.135 27.8459 112.43 27.5882 110.791C27.3305 109.153 27.2915 107.374 27.4781 105.648C28.1094 99.6181 31.1882 95.2998 35.3137 94.6511C36.0929 94.5286 36.8224 95.0598 36.9449 95.839C37.0674 96.6183 36.5362 97.3477 35.757 97.4702C32.5597 97.973 30.7177 102.091 30.3151 105.953C30.1556 107.44 30.1826 108.957 30.4016 110.349C30.6205 111.741 31.0553 113.2 31.6627 114.56C33.2369 118.112 36.249 121.472 39.4463 120.969C40.2255 120.847 40.9549 121.378 41.0775 122.157C41.2 122.937 40.6688 123.666 39.8896 123.788L39.9001 123.781Z" fill="#446993"/>
<path d="M36.1479 109.44C36.3398 110.66 36.7147 111.887 37.2239 113.034L103.971 102.539C106.258 102.179 107.85 100.244 107.531 98.2152C107.212 96.1869 105.102 94.8334 102.816 95.1929L36.0688 105.689C35.9362 106.937 35.9559 108.219 36.1479 109.44Z" fill="white"/>
<path d="M104.194 103.954L37.4462 114.45C36.8102 114.55 36.1811 114.208 35.9185 113.621C35.3485 112.349 34.9396 110.98 34.7333 109.668C34.5269 108.356 34.4962 106.928 34.6481 105.542C34.7179 104.903 35.2061 104.386 35.8479 104.285L102.595 93.7892C105.655 93.3081 108.5 95.1975 108.941 97.9995C109.382 100.801 107.253 103.473 104.194 103.954ZM38.126 111.454L103.75 101.135C105.257 100.898 106.318 99.6919 106.122 98.4427C105.926 97.1936 104.54 96.3723 103.039 96.6083L37.4142 106.928C37.3908 107.712 37.4428 108.491 37.5581 109.224C37.6734 109.958 37.8687 110.714 38.126 111.454Z" fill="#446993"/>
<path d="M109.521 75.8081L113.979 75.1071C123.376 73.6294 132.509 82.0869 134.381 93.9936C136.253 105.9 130.158 116.758 120.761 118.236L116.303 118.937C106.906 120.415 97.7725 111.957 95.8993 100.045C94.0261 88.1323 100.124 77.2857 109.521 75.8081Z" fill="#FF80A9"/>
<path d="M120.982 119.645L116.525 120.346C106.365 121.944 96.4821 112.935 94.49 100.266C92.4979 87.5974 99.1394 75.9901 109.299 74.3926L113.756 73.6916C123.915 72.0941 133.799 81.1029 135.791 93.7717C137.783 106.44 131.142 118.048 120.982 119.645ZM109.743 77.2174C101.136 78.5707 95.562 88.7126 97.3091 99.8229C99.0561 110.933 107.48 118.874 116.08 117.521L120.538 116.82C129.145 115.467 134.719 105.325 132.972 94.215C131.225 83.1048 122.801 75.164 114.201 76.5164L109.743 77.2174Z" fill="#446993"/>
<path d="M119.66 111.24C115.535 111.889 111.279 108.724 108.821 103.174C108.115 101.594 107.606 99.8892 107.348 98.2504C107.091 96.6117 107.052 94.8328 107.238 93.1066C107.87 87.0771 110.948 82.7588 115.074 82.1101C115.853 81.9876 116.583 82.5187 116.705 83.298C116.828 84.0773 116.297 84.8067 115.517 84.9292C112.32 85.432 110.478 89.5499 110.075 93.4121C109.916 94.8992 109.943 96.4157 110.162 97.808C110.381 99.2004 110.816 100.659 111.423 102.019C112.997 105.571 116.009 108.931 119.207 108.428C119.986 108.306 120.715 108.837 120.838 109.616C120.96 110.396 120.429 111.125 119.65 111.247L119.66 111.24Z" fill="#446993"/>
<path d="M117.65 96.6239C117.842 97.8444 118.217 99.0713 118.726 100.218L122.45 99.6327C123.464 99.4732 124.316 98.9165 124.881 98.1407C125.437 97.3782 125.704 96.3908 125.545 95.3766C125.226 93.3482 123.323 91.9623 121.294 92.2813L117.57 92.8669C117.437 94.1149 117.457 95.3977 117.649 96.6182L117.65 96.6239Z" fill="white"/>
<path d="M122.678 101.047L118.954 101.633C118.318 101.733 117.689 101.392 117.426 100.805C116.856 99.532 116.447 98.1636 116.241 96.8515C116.035 95.5393 116.004 94.1115 116.156 92.7254C116.226 92.0862 116.714 91.569 117.356 91.4681L121.08 90.8825C123.882 90.4419 126.521 92.3638 126.962 95.1657C127.175 96.5237 126.849 97.8843 126.043 98.9917C125.231 100.106 124.037 100.839 122.679 101.053L122.678 101.047ZM119.634 98.6372L122.235 98.2282C122.837 98.1336 123.373 97.8085 123.735 97.3112C124.092 96.8205 124.238 96.2163 124.143 95.609C123.946 94.3599 122.773 93.5051 121.523 93.7016L118.922 94.1106C118.899 94.8952 118.951 95.6738 119.066 96.4073C119.181 97.1407 119.376 97.8968 119.634 98.6372Z" fill="#446993"/>
<path d="M67.9308 126.995L60.2183 131.232C46.1055 133.451 38.2915 101.793 46.3328 98.8255C52.6374 96.5013 57.6604 103.427 61.0993 118.052L67.9308 126.995Z" fill="#ADBED9"/>
<path d="M60.4406 132.647C56.3494 133.29 52.4073 131.52 49.0491 127.527C46.3333 124.296 44.115 119.748 42.8071 114.717C40.9051 107.4 41.1011 99.2372 45.8413 97.4937C48.0726 96.6731 50.2189 96.8053 52.2259 97.8813C56.4789 100.172 59.9307 106.851 62.4875 117.734C62.6674 118.504 62.195 119.272 61.4247 119.451C60.6554 119.637 59.8873 119.159 59.7075 118.389C56.769 105.863 53.2828 101.69 50.8716 100.396C49.601 99.7091 48.2743 99.6359 46.8265 100.175C44.3406 101.094 43.7862 107.164 45.5658 114.001C47.7461 122.377 53.1902 130.898 59.9973 129.828C65.687 128.933 68.9959 124.996 69.8286 118.118C69.9226 117.334 70.6334 116.776 71.4174 116.87C72.2013 116.964 72.7593 117.675 72.6654 118.459C71.6729 126.635 67.4473 131.539 60.4454 132.64L60.4406 132.647Z" fill="#446993"/>
<path d="M93.5373 112.957L92.6563 126.137C78.5436 128.356 70.7238 96.6988 78.7709 93.7307C85.0812 91.4055 90.0984 98.3318 93.5373 112.957Z" fill="#ADBED9"/>
<path d="M92.8779 127.546C88.7868 128.19 84.8446 126.42 81.4864 122.427C78.7707 119.196 76.5524 114.648 75.2387 109.617C73.3367 102.301 73.5336 94.1434 78.2786 92.3932C80.51 91.5726 82.6563 91.7048 84.6633 92.7808C88.9154 95.0656 92.3671 101.745 94.9249 112.634C95.1047 113.404 94.6323 114.171 93.862 114.351C93.0927 114.536 92.3247 114.058 92.1448 113.288C89.2006 100.763 85.7144 96.5906 83.3089 95.2954C82.0384 94.6086 80.7125 94.5411 79.2639 95.0742C76.778 95.9936 76.2235 102.064 78.0031 108.9C80.1834 117.277 85.6284 125.803 92.4355 124.733C94.8994 124.346 96.9375 123.379 98.4887 121.855C99.0535 121.303 99.9536 121.314 100.505 121.873C101.058 122.438 101.047 123.338 100.488 123.89C98.5037 125.834 95.9434 127.064 92.8779 127.546Z" fill="#446993"/>
</svg>
