<svg width="126" height="118" viewBox="0 0 126 118" fill="none" xmlns="http://www.w3.org/2000/svg">
<path d="M107.832 71.57C106.555 70.0155 104.824 68.9786 102.962 68.5611C103.027 68.0811 103.08 67.5972 103.121 67.1094C103.552 61.7164 103.354 56.4226 102.535 51.2204C101.589 45.2047 99.1095 38.4379 94.3298 32.6494C96.468 25.4908 100.342 9.54623 94.0359 4.95479C87.6838 0.329554 71.769 13.0664 64.8295 19.1133C60.9195 19.0767 55.9632 19.5922 50.3349 20.501C44.6994 21.3641 39.8242 22.3952 36.1085 23.6314C27.6411 20.0024 8.59094 12.7718 3.9657 19.1238C-0.659533 25.4759 7.94863 39.4042 12.1889 45.5711C9.41736 52.5474 9.13526 59.7487 10.0825 65.7702C10.9009 70.9724 12.3371 76.0715 14.4035 81.0715C17.8002 89.3027 24.9099 95.2354 33.3805 97.1672C28.1187 101.488 27.7778 109.174 34.6509 117.111C34.8943 117.39 35.1378 117.668 35.387 117.946C38.4012 124.94 45.48 129.968 54.0714 131.511C57.5753 132.997 61.2541 134.027 65.0141 134.416C68.4578 134.772 71.262 132.482 73.5084 129.034C81.4786 125.397 87.13 118.813 88.5703 111.435C98.5954 110.41 109.75 106.565 117.295 98.9906C123.622 92.635 113.473 78.4676 107.823 71.5832L107.832 71.57ZM98.9039 89.6425C93.6346 89.7728 91.7719 94.9505 91.7719 94.9505C91.7719 94.9505 90.8996 91.6825 88.6681 88.9924C93.3463 86.5597 97.1418 82.8451 99.6771 78.36C100.794 78.4779 101.643 78.356 101.643 78.356C100.263 83.951 102.11 88.5275 103.835 91.3208C102.696 90.3846 101.08 89.5937 98.8991 89.6492L98.9039 89.6425Z" fill="#ADBED9"/>
<path d="M56.5048 23.335C57.8594 31.9461 56.4535 39.3182 53.3711 39.8031C50.2887 40.288 46.6816 33.7045 45.3269 25.0933C45.1413 23.9131 45.0068 22.76 44.9246 21.6399C48.5308 20.9023 52.1689 20.33 55.8283 19.9305C56.093 21.0161 56.32 22.1604 56.5039 23.3292L56.5048 23.335Z" fill="#446993"/>
<path d="M44.0567 22.3929C45.4104 30.9983 44.0111 38.3753 40.923 38.8611C37.8349 39.3469 34.4925 33.2149 33.0345 25.0662C34.8754 24.2658 36.801 23.593 38.8033 23.0725C40.518 22.6267 42.2381 22.2152 43.9653 21.8495C43.9999 22.032 44.0279 22.2096 44.0576 22.3986L44.0567 22.3929Z" fill="#446993"/>
<path d="M68.1842 19.4664C69.3154 27.7017 67.903 34.6228 64.9238 35.0915C61.9446 35.5601 58.2391 28.9862 56.8854 20.3808C56.8565 20.1975 56.8286 20.0199 56.8046 19.8299C58.8203 19.6185 60.8517 19.4692 62.8846 19.3666C64.6723 19.2733 66.4455 19.3114 68.1842 19.4664Z" fill="#446993"/>
<path d="M89.6852 19.2132C89.6852 19.2132 90.8905 21.0902 91.3954 23.3298C91.8619 25.3994 90.852 27.1904 89.3131 28.1194C85.2335 24.7277 80.4529 22.1802 75.2716 20.7056C75.139 19.564 75.4388 18.372 76.2296 17.3904C79.4065 13.4384 83.9562 8.99457 87.8154 9.90221C94.5403 11.4863 89.6852 19.2132 89.6852 19.2132Z" fill="white"/>
<path d="M12.4717 31.3597C12.4717 31.3597 11.9009 33.5161 12.1079 35.8026C12.2994 37.9154 13.8104 39.3099 15.5602 39.7215C18.4015 35.2411 22.169 31.3489 26.6473 28.3547C26.423 27.2275 25.7717 26.1851 24.7177 25.4937C20.4809 22.7081 14.7866 19.8757 11.3925 21.9244C5.47868 25.4967 12.4717 31.3597 12.4717 31.3597Z" fill="white"/>
<path d="M77.0559 62.7614C73.4465 63.3292 70.045 60.8524 69.4772 57.243C69.3591 56.4924 69.87 55.7839 70.6263 55.6649C71.3825 55.5459 72.0796 56.0586 72.1986 56.8149C72.5303 58.9232 74.5137 60.3725 76.6278 60.04C78.7419 59.7074 80.1855 57.7249 79.853 55.6107C79.7349 54.8602 80.2458 54.1516 80.9963 54.0336C81.7468 53.9155 82.4554 54.4264 82.5744 55.1826C83.1422 58.7921 80.6654 62.1936 77.0559 62.7614Z" fill="#446993"/>
<path d="M37.8733 68.9252C34.2639 69.493 30.8624 67.0162 30.2946 63.4068C30.1765 62.6563 30.6874 61.9477 31.4379 61.8296C32.1885 61.7115 32.897 62.2224 33.016 62.9787C33.3477 65.0871 35.3311 66.5364 37.4452 66.2038C39.5593 65.8712 41.0029 63.8887 40.6703 61.7746C40.5523 61.024 41.0631 60.3155 41.8137 60.1974C42.5642 60.0793 43.2728 60.5902 43.3917 61.3465C43.9595 64.9559 41.4828 68.3574 37.8733 68.9252Z" fill="#446993"/>
<path d="M91.0816 66.4494L82.8887 67.7383C82.0694 67.8671 81.3003 67.3071 81.1714 66.4878C81.0425 65.6685 81.6026 64.8994 82.4219 64.7705L90.6148 63.4816C91.4341 63.3528 92.2032 63.9128 92.3321 64.7321C92.461 65.5514 91.9009 66.3205 91.0816 66.4494Z" fill="#446993"/>
<path d="M90.8031 74.384C90.6312 74.411 90.4548 74.4094 90.273 74.3734L83.1795 72.9471C82.3667 72.7815 81.8371 71.99 82.0028 71.1772C82.1685 70.3644 82.9599 69.8348 83.7727 70.0005L90.8663 71.4268C91.6791 71.5925 92.2087 72.3839 92.043 73.1967C91.9142 73.8334 91.4047 74.2894 90.8031 74.384Z" fill="#446993"/>
<path d="M33.8512 75.4524L25.6583 76.7412C24.839 76.8701 24.0698 76.31 23.941 75.4907C23.8121 74.6714 24.3721 73.9023 25.1914 73.7734L33.3843 72.4846C34.2036 72.3557 34.9727 72.9157 35.1016 73.735C35.2305 74.5543 34.6704 75.3235 33.8512 75.4524Z" fill="#446993"/>
<path d="M28.3596 84.207C27.758 84.3017 27.1322 84.0185 26.815 83.4578C26.4078 82.7351 26.6688 81.8193 27.3915 81.412L33.7045 77.8768C34.4272 77.4695 35.343 77.7306 35.7503 78.4532C36.1575 79.1759 35.8965 80.0917 35.1738 80.499L28.8608 84.0343C28.6988 84.1243 28.5315 84.18 28.3596 84.207Z" fill="#446993"/>
<path d="M71.6429 49.81L67.3459 50.486C66.5954 50.604 65.8926 50.0923 65.7736 49.336C65.6546 48.5797 66.1664 47.8769 66.9169 47.7588L71.2139 47.0828C71.9644 46.9648 72.673 47.4756 72.792 48.2319C72.9109 48.9882 72.3992 49.691 71.6429 49.81Z" fill="white"/>
<path d="M43.3455 54.2614L39.0486 54.9374C38.298 55.0554 37.5952 54.5437 37.4762 53.7874C37.3573 53.0311 37.869 52.3283 38.6196 52.2102L42.9165 51.5343C43.6671 51.4162 44.3756 51.9271 44.4946 52.6833C44.6136 53.4396 44.1018 54.1424 43.3455 54.2614Z" fill="white"/>
<path d="M46.5336 70.6448C45.5431 64.3483 51.1769 66.9084 57.4792 65.917C63.7814 64.9255 68.3562 60.7537 69.3476 67.0559C70.339 73.3581 66.0373 79.266 59.7351 80.2574C53.4328 81.2488 47.525 76.947 46.5336 70.6448Z" fill="white"/>
<path d="M68.5403 62.8208C66.7605 61.7328 64.5551 62.4555 61.9977 63.2923C60.9534 63.6327 59.8144 64.0056 58.6085 64.2893L58.1434 61.333L59.083 61.1851C59.8335 61.0671 60.351 60.3633 60.2321 59.6071C60.1131 58.8508 59.4102 58.339 58.654 58.458L54.0534 59.1817C53.3028 59.2998 52.7853 60.0035 52.9043 60.7598C53.0233 61.5161 53.7261 62.0278 54.4824 61.9089L55.422 61.7611L55.887 64.7174C54.658 64.8168 53.4538 64.8125 52.3553 64.8091C49.6646 64.798 47.3439 64.7873 45.984 66.3692C45.1157 67.3806 44.8477 68.8494 45.1641 70.8604C46.2718 77.9017 52.9014 82.7239 59.937 81.6172C66.9726 80.5104 71.8006 73.8798 70.6938 66.8442C70.3775 64.8333 69.6715 63.5177 68.5345 62.8217L68.5403 62.8208ZM59.5146 78.8949C53.9744 79.7664 48.7628 75.9716 47.8912 70.4313C47.7155 69.3141 47.7829 68.5109 48.0807 68.1647C48.2946 67.9197 48.7116 67.7719 49.2617 67.6853C50.0809 67.5565 51.1975 67.5628 52.3492 67.5695C53.953 67.5755 55.775 67.5883 57.6944 67.2864C59.6137 66.9845 61.339 66.4195 62.8682 65.9147C64.6939 65.3164 66.4192 64.7514 67.1143 65.1763C67.504 65.4145 67.8147 66.1582 67.9905 67.2754C68.862 72.8156 65.0672 78.0272 59.527 78.8988L59.5146 78.8949Z" fill="#446993"/>
<path d="M108.898 70.6976C107.721 69.2623 106.171 68.1793 104.46 67.5678C104.472 67.4544 104.483 67.3353 104.494 67.222C104.932 61.7576 104.725 56.3006 103.893 51.0067C103.185 46.5093 101.232 39.096 95.8587 32.3324C98.4426 23.4539 101.47 8.66395 94.8456 3.83504C91.5568 1.44034 86.3569 2.42273 78.9498 6.84053C73.5234 10.0778 68.0635 14.4829 64.3189 17.7374C60.5753 17.7509 55.8292 18.2216 50.1322 19.1413C44.4165 20.017 39.7502 21.0328 36.1824 22.1636C31.6089 20.2234 25.0584 17.696 18.9068 16.286C10.5011 14.3557 5.25072 15.0173 2.85602 18.306C-1.97682 24.9432 5.45529 38.076 10.646 45.7314C7.60396 53.8248 8.02142 61.4795 8.72892 65.977C9.56171 71.2709 11.0452 76.5211 13.1348 81.5938C15.2124 86.6273 18.6563 90.9409 23.0798 94.0553C25.437 95.7159 28.0218 96.9943 30.7361 97.8648C29.2233 99.7056 28.3347 101.894 28.1277 104.311C27.7558 108.702 29.6511 113.435 33.6114 118.008C42.2591 128.008 53.943 134.654 64.8761 135.782C65.5925 135.857 66.2821 135.836 66.9524 135.731C74.601 134.528 78.9004 122.186 81.0699 112.95C82.256 113.062 83.501 113.101 84.7924 113.063C87.2226 112.986 89.6286 112.754 91.989 112.383C102.456 110.736 111.958 106.306 118.285 99.9502C125.261 92.9406 115.398 78.6109 108.898 70.6976ZM24.6565 91.7994C20.6555 88.9825 17.5482 85.0915 15.6693 80.5375C13.6589 75.6696 12.2374 70.6269 11.438 65.545C10.5511 59.9074 10.1485 48.9507 17.4117 38.8782C17.855 38.2625 17.7189 37.3974 17.0974 36.955C16.4817 36.5117 15.6166 36.6478 15.1742 37.2693C13.8781 39.0701 12.8088 40.8939 11.9322 42.711C4.95821 32.0424 2.3929 23.61 5.07245 19.93C7.66027 16.376 18.0111 17.7948 32.4087 23.5909C30.0885 24.6663 27.8949 25.8744 25.8873 27.1825C25.2485 27.6 25.071 28.4499 25.4885 29.0887C25.9061 29.7276 26.7559 29.905 27.3948 29.4875C29.2902 28.2499 31.365 27.1075 33.5645 26.0863C37.0729 24.4659 42.7784 23.0399 50.5422 21.8597C58.2753 20.5962 64.1496 20.2064 67.9861 20.6714C70.392 20.9622 72.724 21.4173 74.9021 22.0141C75.098 22.0654 75.2934 22.0758 75.4767 22.047C75.9981 21.9649 76.444 21.5895 76.5938 21.0493C76.7951 20.3131 76.3595 19.5597 75.629 19.3575C73.3159 18.7233 70.8573 18.247 68.319 17.9359C80.236 8.00028 89.6504 3.46634 93.211 6.05898C96.8844 8.7337 97.0376 17.5456 93.6826 29.8448C92.2904 28.3847 90.7128 26.9773 88.9265 25.6613C88.3156 25.2114 87.4495 25.3418 86.9996 25.9527C86.5497 26.5636 86.6801 27.4296 87.291 27.8796C97.2893 35.2307 100.265 45.7885 101.152 51.4261C101.951 56.5023 102.146 61.7379 101.728 66.9936C99.9234 66.8666 98.1159 67.2449 96.53 68.099C93.7148 69.6104 92.5792 72.0201 93.3464 74.8819C93.9189 77.0287 95.3602 78.5398 97.4837 79.2743C95.0997 82.855 91.8598 85.7718 88.0285 87.7659C87.0839 88.2551 86.0967 88.698 85.1036 89.0656C79.9448 90.9809 74.6213 92.5581 69.2784 93.7509C66.8268 94.2892 64.3978 94.7476 62.0602 95.1153C54.2913 96.3375 46.2883 96.7804 38.2781 96.4318C33.3714 96.2173 28.6623 94.6097 24.6556 91.7937L24.6565 91.7994ZM100.897 88.4306C100.243 88.3045 99.5645 88.2468 98.8625 88.2633C95.4825 88.3488 93.3169 90.1455 92.0309 91.7862C91.6867 91.0536 91.2478 90.242 90.7032 89.4294C94.3808 87.2422 97.5001 84.268 99.8555 80.6919C99.5846 83.6348 100.09 86.2501 100.897 88.4306ZM65.1548 133.037C54.9018 131.979 43.8898 125.685 35.6931 116.201C32.2283 112.202 30.5602 108.167 30.8698 104.537C31.0632 102.258 32.0608 100.24 33.7659 98.6505C35.2088 98.9401 36.6764 99.1261 38.1662 99.1912C42.7717 99.3943 47.3711 99.3342 51.9317 99.0278C56.1501 103.936 51.1949 110.915 50.9728 111.22C50.6204 111.704 50.6239 112.361 50.9818 112.845C51.3398 113.329 51.9692 113.523 52.5383 113.334C52.7171 113.277 56.9041 111.902 59.6533 115.121C60.641 116.287 61.139 117.623 61.1255 119.105C61.1203 119.781 61.6042 120.356 62.2686 120.475C62.9322 120.588 63.5831 120.209 63.8054 119.57C64.8216 116.662 67.0276 112.734 71.7841 110.5C72.1997 110.306 72.4854 109.92 72.5553 109.469C72.6252 109.018 72.4711 108.56 72.1345 108.249C71.9974 108.124 68.8308 105.088 70.8981 102.256C71.5595 101.347 72.612 100.424 74.8765 101.383C77.9759 102.686 79.7116 106.106 79.0101 109.522C78.12 113.866 76.5519 120.095 74.1261 125.127C71.4358 130.716 68.4194 133.375 65.1681 133.047L65.1548 133.037ZM116.33 98.0091C109.058 105.306 97.2359 109.907 84.7002 110.312C83.6482 110.342 82.6339 110.314 81.6649 110.238C81.6739 110.183 81.6888 110.128 81.6987 110.08C82.6626 105.384 80.2399 100.657 75.9341 98.8509C72.9906 97.6054 70.4074 98.2408 68.6597 100.641C66.4726 103.645 67.5831 106.822 69.0186 108.857C66.1358 110.573 64.1891 112.828 62.8808 115.036C62.5706 114.445 62.1877 113.877 61.7405 113.348C59.5593 110.791 56.8107 110.225 54.7251 110.254C56.2484 107.061 57.2541 102.594 55.0929 98.7829C57.5751 98.551 60.0447 98.2388 62.4911 97.8539C64.9375 97.4691 67.3607 97.0116 69.8745 96.4576C75.3416 95.2336 80.7885 93.6193 86.064 91.6622C86.8017 91.3876 87.533 91.073 88.255 90.7363C89.7882 92.9433 90.4333 95.2901 90.4426 95.3121C90.5985 95.8923 91.1096 96.3051 91.712 96.3277C92.3096 96.357 92.8622 95.9883 93.0676 95.4276C93.134 95.2527 94.6982 91.1259 98.9327 91.0234C100.46 90.9887 101.817 91.4444 102.969 92.3846C103.488 92.8079 104.243 92.7948 104.748 92.3512C105.254 91.9077 105.366 91.1621 105.011 90.5896C103.391 87.9794 101.723 83.7916 102.986 78.6847C103.093 78.2451 102.978 77.7759 102.672 77.4365C102.366 77.0972 101.911 76.928 101.463 76.9926C101.458 76.9935 100.739 77.089 99.8196 76.9929C97.7363 76.7746 96.4605 75.8305 96.0197 74.1854C95.7312 73.0977 95.6762 71.7032 97.8417 70.5406C99.2982 69.7596 101.001 69.5386 102.664 69.9171C104.257 70.2653 105.714 71.1692 106.766 72.4479C109.578 75.8747 113.433 81.0159 115.813 86.0664C118.463 91.6791 118.637 95.6969 116.33 98.0091Z" fill="#446993"/>
</svg>
