<svg width="232" height="199" viewBox="0 0 232 199" fill="none" xmlns="http://www.w3.org/2000/svg">
<path d="M159.404 137.424C169.185 129.552 174.92 117.51 174.64 104.597C174.464 96.4135 173.365 88.4686 171.342 80.7622C168.998 71.8422 164.237 62.0303 156.168 54.0439C158.305 42.9354 161.707 18.3434 151.511 12.3899C141.243 6.39484 119.212 27.9894 109.691 38.1539C103.8 38.6933 96.4043 40.2283 88.0756 42.448C79.7261 44.6053 72.5383 46.8975 67.1345 49.3246C53.8376 45.1447 24.0492 37.1582 18.0542 47.4161C12.1006 57.6118 27.1297 77.3498 34.4627 85.9793C31.3511 96.901 32.0253 107.792 34.359 116.712C36.3815 124.418 39.3272 131.886 43.1959 139.094C50.7467 153.18 65.6617 161.602 81.6139 160.689C87.2562 160.367 92.8364 159.787 98.3543 158.967C97.9394 160.793 97.732 162.67 97.732 164.589C97.732 182.232 115.831 196.535 138.172 196.535C160.514 196.535 178.613 182.232 178.613 164.589C178.613 153.107 170.938 143.036 159.425 137.414L159.404 137.424Z" fill="#ADBED9"/>
<path d="M114.794 38.1646C117.75 50.3932 116.682 61.0245 112.263 62.1861C107.689 63.3893 101.269 54.013 97.9186 41.2554C97.846 40.9857 97.7734 40.7161 97.7112 40.4464C100.709 39.8241 103.748 39.2951 106.787 38.8284C109.463 38.4135 112.139 38.206 114.784 38.1749L114.794 38.1646Z" fill="#446993"/>
<path d="M147.144 34.5135C147.144 34.5135 149.25 37.1584 150.339 40.4567C151.355 43.4957 150.111 46.3584 147.922 47.9868C141.263 43.4957 133.671 40.3945 125.654 38.9528C125.28 37.2517 125.55 35.4159 126.597 33.8186C130.777 27.388 136.959 20.0031 142.913 20.781C153.274 22.1397 147.144 34.5135 147.144 34.5135Z" fill="white"/>
<path d="M177.109 104.535C176.933 96.2063 175.792 87.9916 173.728 80.1193C171.975 73.4501 167.909 62.6009 158.823 53.2039C161.364 39.3262 163.605 16.5907 152.745 10.243C147.289 7.05882 139.469 9.3303 128.848 17.213C121.193 22.8969 113.674 30.3232 108.519 35.7893C102.887 36.3909 95.8338 37.8118 87.4532 40.0522C75.5461 43.1223 66.7714 46.2961 61.3676 49.4804C58.0174 51.4614 54.8851 53.6292 52.0432 55.911C50.9852 56.7615 50.8193 58.3173 51.6698 59.3753C52.1573 59.9768 52.8729 60.288 53.5886 60.288C54.1279 60.288 54.6777 60.1117 55.134 59.7383C57.7893 57.6016 60.7245 55.5687 63.8673 53.7121C68.8666 50.7561 77.216 47.769 88.6979 44.8026C100.128 41.7428 108.861 40.2493 114.68 40.3737C118.331 40.4463 121.888 40.7679 125.249 41.3383C126.587 41.5665 127.863 40.6538 128.091 39.3158C128.319 37.9778 127.406 36.702 126.068 36.4738C122.739 35.9138 119.243 35.5922 115.655 35.4781C131.679 19.2356 144.727 11.2491 150.266 14.4852C156.002 17.8353 157.527 30.6655 154.519 49.1796C152.309 47.3437 149.882 45.6012 147.186 44.0039C146.014 43.309 144.499 43.7031 143.815 44.8752C143.12 46.0472 143.514 47.5615 144.686 48.2461C160.742 57.7365 166.799 73.0663 168.977 81.3639C170.948 88.8629 172.027 96.6938 172.203 104.628C172.524 119.574 164.092 133.483 150.722 140.049C139.842 145.39 128.506 149.622 117.024 152.64C105.542 155.659 93.5831 157.536 81.4893 158.231C66.6262 159.081 52.4477 151.105 45.3843 137.922C41.6297 130.921 38.7359 123.568 36.7652 116.079C34.5871 107.781 32.326 91.4559 41.6608 75.3067C42.3453 74.1243 41.9408 72.6203 40.7584 71.9358C39.576 71.2512 38.0721 71.6557 37.3875 72.8381C27.1815 90.5224 29.6292 108.3 31.9941 117.324C34.0581 125.196 37.1075 132.913 41.0385 140.246C48.6204 154.383 63.4627 163.209 79.3319 163.209C80.1409 163.209 80.95 163.189 81.7693 163.137C94.195 162.421 106.475 160.492 118.279 157.401C130.082 154.3 141.73 149.954 152.901 144.467C167.982 137.062 177.493 121.379 177.14 104.525L177.109 104.535Z" fill="#446993"/>
<path d="M141.16 95.1794C140.05 90.9372 135.704 88.3961 131.462 89.5162C127.22 90.626 124.679 94.9719 125.799 99.2141C126.909 103.456 131.254 105.997 135.497 104.877C139.739 103.757 142.28 99.4215 141.16 95.1794Z" fill="#446993"/>
<path d="M83.0972 110.416C81.9874 106.174 77.6415 103.633 73.3993 104.753C69.1572 105.863 66.616 110.208 67.7362 114.451C68.846 118.693 73.1919 121.234 77.434 120.114C81.6762 119.004 84.2173 114.658 83.0972 110.416Z" fill="#446993"/>
<path d="M143.701 108.881C142.612 108.881 141.606 108.144 141.315 107.045C140.973 105.728 141.761 104.379 143.068 104.037L155.214 100.853C156.531 100.511 157.879 101.299 158.221 102.606C158.564 103.923 157.775 105.271 156.469 105.614L144.323 108.798C144.116 108.85 143.898 108.881 143.701 108.881Z" fill="#446993"/>
<path d="M156.635 117.687C156.552 117.687 156.469 117.687 156.386 117.676L145.485 116.608C144.126 116.473 143.141 115.27 143.276 113.911C143.41 112.553 144.614 111.567 145.972 111.702L156.873 112.77C158.232 112.905 159.217 114.108 159.082 115.467C158.958 116.743 157.89 117.687 156.635 117.687Z" fill="#446993"/>
<path d="M58.8991 131.139C57.8101 131.139 56.804 130.403 56.5136 129.303C56.1713 127.986 56.9596 126.638 58.2664 126.295L70.4121 123.111C71.7293 122.769 73.0777 123.557 73.42 124.864C73.7622 126.181 72.974 127.53 71.6671 127.872L59.5215 131.056C59.314 131.108 59.0962 131.139 58.8991 131.139Z" fill="#446993"/>
<path d="M64.1059 141.967C63.328 141.967 62.5605 141.604 62.0834 140.92C61.3055 139.81 61.5752 138.265 62.685 137.487L71.6568 131.201C72.7666 130.423 74.312 130.693 75.0899 131.803C75.8678 132.913 75.5981 134.458 74.4883 135.236L65.5165 141.521C65.0913 141.822 64.5934 141.967 64.1059 141.967Z" fill="#446993"/>
<path d="M117.719 85.4608C116.63 85.4608 115.624 84.7244 115.333 83.625C114.991 82.3077 115.779 80.9593 117.086 80.6171L123.454 78.9472C124.772 78.6049 126.12 79.3932 126.462 80.7C126.805 82.0173 126.016 83.3657 124.709 83.7079L118.341 85.3778C118.134 85.4297 117.916 85.4608 117.719 85.4608Z" fill="white"/>
<path d="M75.7951 96.4654C74.7061 96.4654 73.7 95.729 73.4096 94.6296C73.0673 93.3123 73.8556 91.964 75.1624 91.6217L81.5309 89.9518C82.8481 89.6095 84.1965 90.3978 84.5387 91.7047C84.881 93.0219 84.0927 94.3703 82.7859 94.7126L76.4175 96.3825C76.21 96.4343 75.9922 96.4654 75.7951 96.4654Z" fill="white"/>
<path d="M117.761 100.573C117.761 100.573 117.74 100.573 117.729 100.573C116.371 100.583 115.282 101.703 115.292 103.062C115.313 105.033 113.995 106.755 112.087 107.263C110.977 107.553 109.816 107.398 108.82 106.817C107.824 106.236 107.119 105.303 106.828 104.193L106.517 103.01L107.544 102.741C108.861 102.398 109.65 101.05 109.297 99.7328C108.955 98.4155 107.606 97.6273 106.289 97.9799L99.4643 99.7743C98.1471 100.117 97.3588 101.465 97.7114 102.782C98.0018 103.892 98.9976 104.618 100.097 104.618C100.304 104.618 100.512 104.587 100.719 104.535L101.746 104.265L102.057 105.448C102.348 106.558 102.192 107.719 101.611 108.705C101.03 109.7 100.097 110.406 98.9872 110.696C97.0787 111.194 95.0769 110.343 94.1227 108.611C93.4693 107.418 91.9653 106.983 90.7725 107.636C89.5798 108.29 89.1441 109.794 89.7976 110.986C91.4467 113.984 94.5687 115.768 97.867 115.768C98.6449 115.768 99.4435 115.664 100.221 115.467C102.607 114.845 104.598 113.32 105.843 111.194C105.905 111.09 105.957 110.997 106.009 110.893C106.102 110.955 106.206 111.018 106.31 111.069C108.436 112.314 110.925 112.656 113.311 112.024C117.408 110.945 120.239 107.242 120.198 103.01C120.188 101.662 119.088 100.573 117.74 100.573H117.761Z" fill="#446993"/>
<path d="M229.291 86.9338H133.588V195.57H229.291V86.9338Z" fill="white"/>
<path d="M229.291 198.039H133.588C132.23 198.039 131.12 196.939 131.12 195.57V86.9336C131.12 85.5749 132.219 84.4651 133.588 84.4651H229.291C230.65 84.4651 231.76 85.5645 231.76 86.9336V195.57C231.76 196.929 230.66 198.039 229.291 198.039ZM136.047 193.112H226.822V89.4022H136.047V193.112Z" fill="#E2E2E2"/>
<path d="M187.139 96.7559H144.282V141.252H187.139V96.7559Z" fill="#E6FCFC"/>
<path d="M187.15 143.72H144.293C142.934 143.72 141.824 142.621 141.824 141.252V96.7454C141.824 95.3867 142.923 94.2769 144.293 94.2769H187.15C188.508 94.2769 189.618 95.3763 189.618 96.7454V141.252C189.618 142.61 188.519 143.72 187.15 143.72ZM146.751 138.794H184.681V99.2243H146.751V138.794Z" fill="#38D0BE"/>
<path d="M181.072 108.445C181.072 105.095 178.354 102.388 175.014 102.388C171.674 102.388 168.957 105.105 168.957 108.445C168.957 108.953 169.03 109.441 169.144 109.918C168.044 109.773 166.903 109.69 165.721 109.69C164.539 109.69 163.398 109.773 162.298 109.918C162.412 109.451 162.485 108.953 162.485 108.445C162.485 105.095 159.767 102.388 156.428 102.388C153.088 102.388 150.37 105.105 150.37 108.445C150.37 110.8 151.708 112.833 153.669 113.839C151.947 115.664 150.93 118.133 150.93 121.327C150.93 129.5 157.558 132.965 165.731 132.965C173.904 132.965 180.532 129.511 180.532 121.327C180.532 118.133 179.516 115.674 177.794 113.839C179.744 112.833 181.092 110.8 181.092 108.445H181.072Z" fill="#ADBED9"/>
<path d="M159.747 120.819C158.388 120.819 157.278 119.72 157.278 118.35V116.712C157.278 115.353 158.378 114.243 159.747 114.243C161.116 114.243 162.215 115.343 162.215 116.712V118.35C162.215 119.709 161.116 120.819 159.747 120.819Z" fill="#446993"/>
<path d="M171.685 120.819C170.326 120.819 169.216 119.72 169.216 118.35V116.712C169.216 115.353 170.316 114.243 171.685 114.243C173.054 114.243 174.153 115.343 174.153 116.712V118.35C174.153 119.709 173.054 120.819 171.685 120.819Z" fill="#446993"/>
<path d="M152.839 184.15C148.338 184.15 144.697 180.499 144.697 176.008V169.433C144.697 164.931 148.348 161.291 152.839 161.291C157.34 161.291 160.981 164.941 160.981 169.433V176.008C160.981 180.51 157.33 184.15 152.839 184.15Z" fill="#ADBED9"/>
<path d="M178.593 184.15C174.091 184.15 170.451 180.499 170.451 176.008V169.433C170.451 164.931 174.102 161.291 178.593 161.291C183.094 161.291 186.735 164.941 186.735 169.433V176.008C186.735 180.51 183.084 184.15 178.593 184.15Z" fill="#ADBED9"/>
<path d="M152.839 186.609C146.989 186.609 142.228 181.848 142.228 175.998V169.422C142.228 163.572 146.989 158.812 152.839 158.812C158.689 158.812 163.449 163.572 163.449 169.422V175.998C163.449 181.848 158.689 186.609 152.839 186.609ZM152.839 163.738C149.706 163.738 147.155 166.29 147.155 169.422V175.998C147.155 179.13 149.706 181.682 152.839 181.682C155.971 181.682 158.523 179.13 158.523 175.998V169.422C158.523 166.29 155.971 163.738 152.839 163.738Z" fill="#446993"/>
<path d="M178.593 186.609C172.743 186.609 167.982 181.848 167.982 175.998V169.422C167.982 163.572 172.743 158.812 178.593 158.812C184.443 158.812 189.203 163.572 189.203 169.422V175.998C189.203 181.848 184.443 186.609 178.593 186.609ZM178.593 163.738C175.46 163.738 172.909 166.29 172.909 169.422V175.998C172.909 179.13 175.46 181.682 178.593 181.682C181.725 181.682 184.277 179.13 184.277 175.998V169.422C184.277 166.29 181.725 163.738 178.593 163.738Z" fill="#446993"/>
<path d="M207.883 125.123H196.495C195.136 125.123 194.026 124.024 194.026 122.655C194.026 121.286 195.126 120.186 196.495 120.186H207.883C209.242 120.186 210.352 121.286 210.352 122.655C210.352 124.024 209.252 125.123 207.883 125.123Z" fill="#446993"/>
<path d="M218.815 125.123H216.316C214.957 125.123 213.847 124.024 213.847 122.655C213.847 121.286 214.947 120.186 216.316 120.186H218.815C220.174 120.186 221.284 121.286 221.284 122.655C221.284 124.024 220.184 125.123 218.815 125.123Z" fill="#446993"/>
<path d="M207.883 134.427H196.495C195.136 134.427 194.026 133.328 194.026 131.959C194.026 130.589 195.126 129.49 196.495 129.49H207.883C209.242 129.49 210.352 130.589 210.352 131.959C210.352 133.328 209.252 134.427 207.883 134.427Z" fill="#446993"/>
<path d="M218.815 134.427H216.316C214.957 134.427 213.847 133.328 213.847 131.959C213.847 130.589 214.947 129.49 216.316 129.49H218.815C220.174 129.49 221.284 130.589 221.284 131.959C221.284 133.328 220.184 134.427 218.815 134.427Z" fill="#446993"/>
<path d="M207.883 143.72H196.495C195.136 143.72 194.026 142.621 194.026 141.252C194.026 139.883 195.126 138.783 196.495 138.783H207.883C209.242 138.783 210.352 139.883 210.352 141.252C210.352 142.621 209.252 143.72 207.883 143.72Z" fill="#446993"/>
<path d="M218.815 143.72H216.316C214.957 143.72 213.847 142.621 213.847 141.252C213.847 139.883 214.947 138.783 216.316 138.783H218.815C220.174 138.783 221.284 139.883 221.284 141.252C221.284 142.621 220.184 143.72 218.815 143.72Z" fill="#446993"/>
<path d="M214.138 108.818H201.183C199.824 108.818 198.714 107.719 198.714 106.35C198.714 104.981 199.814 103.881 201.183 103.881H214.138C215.496 103.881 216.606 104.981 216.606 106.35C216.606 107.719 215.507 108.818 214.138 108.818Z" fill="#446993"/>
<path d="M218.815 99.795H196.495C195.136 99.795 194.026 98.6956 194.026 97.3264C194.026 95.9573 195.126 94.8579 196.495 94.8579H218.815C220.174 94.8579 221.284 95.9573 221.284 97.3264C221.284 98.6956 220.184 99.795 218.815 99.795Z" fill="#446993"/>
<path d="M218.815 153.823H144.282C142.923 153.823 141.813 152.723 141.813 151.354C141.813 149.985 142.913 148.886 144.282 148.886H218.815C220.174 148.886 221.284 149.985 221.284 151.354C221.284 152.723 220.184 153.823 218.815 153.823Z" fill="#446993"/>
<path d="M218.815 163.925H197.324C195.966 163.925 194.856 162.826 194.856 161.457C194.856 160.087 195.955 158.988 197.324 158.988H218.815C220.174 158.988 221.284 160.087 221.284 161.457C221.284 162.826 220.184 163.925 218.815 163.925Z" fill="#446993"/>
<path d="M218.815 174.027H197.324C195.966 174.027 194.856 172.928 194.856 171.559C194.856 170.19 195.955 169.09 197.324 169.09H218.815C220.174 169.09 221.284 170.19 221.284 171.559C221.284 172.928 220.184 174.027 218.815 174.027Z" fill="#446993"/>
<path d="M218.815 184.13H197.324C195.966 184.13 194.856 183.03 194.856 181.661C194.856 180.292 195.955 179.193 197.324 179.193H218.815C220.174 179.193 221.284 180.292 221.284 181.661C221.284 183.03 220.184 184.13 218.815 184.13Z" fill="#446993"/>
<path d="M126.193 143.689L122.21 142.04C116.973 139.873 110.957 142.362 108.789 147.6L107.005 151.914C101.819 154.694 97.2968 161.114 95.4714 169.225C92.7643 181.267 97.0272 192.479 104.982 194.263C112.938 196.047 121.588 187.739 124.285 175.697C124.71 173.81 124.959 171.943 125.052 170.138C126.328 169.101 127.365 167.742 128.039 166.114L131.39 158.024C134.356 158.366 137.084 157.858 138.028 155.234C139.615 150.784 133.402 146.677 126.204 143.7L126.193 143.689Z" fill="#ADBED9"/>
<path d="M127.137 141.418C127.137 141.418 127.096 141.408 127.075 141.397L123.144 139.769C116.651 137.083 109.183 140.173 106.497 146.666L105.034 150.203C99.3504 153.626 94.9112 160.451 93.0546 168.686C91.644 174.971 91.9448 181.288 93.9155 186.464C96.021 191.992 99.7549 195.612 104.433 196.67C105.345 196.877 106.269 196.981 107.192 196.981C111.009 196.981 114.877 195.249 118.3 191.95C122.293 188.113 125.27 182.533 126.681 176.237C127.054 174.588 127.293 172.928 127.427 171.3C128.631 170.128 129.626 168.707 130.311 167.058L132.997 160.575C134.273 160.575 135.497 160.399 136.576 159.963C138.38 159.237 139.687 157.889 140.33 156.074C142.695 149.467 134.449 144.467 127.127 141.428L127.137 141.418ZM121.878 175.158C120.675 180.521 118.196 185.219 114.898 188.393C111.869 191.307 108.54 192.542 105.522 191.867C102.504 191.193 100.025 188.652 98.531 184.721C96.9026 180.438 96.6745 175.127 97.8776 169.765C98.6763 166.207 100.056 162.94 101.819 160.233C101.777 161.986 102.099 163.739 102.794 165.408C104.101 168.551 106.549 170.999 109.691 172.306L113.685 173.955C115.271 174.608 116.921 174.92 118.539 174.92C119.731 174.92 120.903 174.743 122.034 174.422C121.982 174.671 121.941 174.909 121.889 175.158H121.878ZM135.704 154.404C135.528 154.902 135.248 155.182 134.76 155.379C132.209 156.406 126.162 154.414 122.687 152.672C121.474 152.06 119.991 152.547 119.379 153.771C118.767 154.985 119.254 156.468 120.478 157.08C121.069 157.381 124.274 158.947 127.977 159.88L125.778 165.18C124.129 169.163 119.545 171.061 115.572 169.412L111.579 167.763C109.65 166.964 108.146 165.46 107.347 163.531C106.549 161.602 106.549 159.476 107.347 157.546L111.071 148.554C112.72 144.581 117.294 142.683 121.277 144.333L125.26 145.982C132.385 148.927 136.482 152.236 135.704 154.414V154.404Z" fill="#446993"/>
<path d="M179.9 77.1531C172.307 76.1885 165.825 78.0762 164.86 85.6581C163.896 93.2504 169.268 100.179 176.85 101.144C184.432 102.108 191.371 96.7354 192.336 89.1535C193.3 81.5715 187.482 78.1177 179.9 77.1634V77.1531Z" fill="#ADBED9"/>
<path d="M178.624 103.716C177.929 103.716 177.234 103.674 176.539 103.581C167.619 102.45 161.282 94.2667 162.412 85.3468C162.972 80.9698 165.182 77.7337 168.822 75.9809C171.778 74.5495 175.616 74.1243 180.211 74.7051C190.5 76.012 195.81 81.3847 194.783 89.4541C194.234 93.7792 192.035 97.6273 188.591 100.293C185.708 102.533 182.233 103.716 178.634 103.716H178.624ZM176.435 79.3829C174.236 79.3829 172.38 79.7252 170.959 80.4097C168.843 81.4365 167.64 83.2516 167.298 85.9587C166.509 92.1819 170.928 97.8969 177.161 98.6852C180.18 99.069 183.167 98.2496 185.563 96.393C187.969 94.526 189.504 91.8397 189.888 88.8318C190.883 81.0217 182.378 79.943 179.588 79.5903C178.479 79.4451 177.421 79.3829 176.435 79.3829Z" fill="#446993"/>
<path d="M109.534 48.1227L89.5603 7.87692C86.4091 1.52428 64.7312 5.84826 41.1567 17.5408C17.5822 29.2334 1.02193 43.8758 4.17312 50.2284L24.1467 90.4742C27.2979 96.8268 48.9759 92.5028 72.5504 80.8103C96.1249 69.1177 112.685 54.4753 109.534 48.1227Z" fill="white"/>
<path d="M19.7447 51.6124C19.9514 51.6151 20.1462 51.5934 20.3534 51.5596C29.7415 49.6887 41.3127 45.4751 52.9408 39.7058C63.6266 34.3983 73.4117 28.2278 80.4693 22.3254C81.6988 21.2958 81.869 19.4497 80.8394 18.2201C79.8097 16.9905 77.9636 16.8204 76.734 17.85C70.0207 23.465 60.6525 29.3735 50.3586 34.4794C39.1833 40.0236 28.1251 44.0615 19.2246 45.8416C17.6396 46.1612 16.6223 47.6922 16.942 49.2773C17.2157 50.655 18.4193 51.6072 19.7567 51.6247L19.7447 51.6124Z" fill="#E3E3E3"/>
<path d="M31.658 96.3368C34.3693 96.3725 37.572 96.0254 41.2664 95.2835C50.6544 93.4126 62.2257 89.199 73.8538 83.4297C85.482 77.6603 95.8329 70.9987 103.006 64.6479C111.298 57.3147 114.381 51.3115 112.154 46.8194L92.1799 6.57366C89.9528 2.08154 83.3166 0.89992 72.4531 3.07983C63.065 4.95079 51.4938 9.16434 39.8656 14.9337C28.2375 20.703 17.8866 27.3647 10.7137 33.7154C2.42122 41.0486 -0.661284 47.0518 1.56585 51.5439L21.5395 91.7897C23.0085 94.7518 26.3935 96.2677 31.6458 96.3367L31.658 96.3368ZM106.927 49.426C107.282 50.1481 106.616 53.6781 99.1474 60.2925C92.3437 66.3076 82.4466 72.6712 71.2714 78.2154C60.0961 83.7597 49.0379 87.7975 40.1375 89.5776C30.3592 91.5286 27.1336 89.9175 26.7781 89.2076L6.80441 48.9618C6.44909 48.2397 7.11564 44.7098 14.5839 38.0954C21.3876 32.0802 31.2846 25.7166 42.4599 20.1724C53.6352 14.6282 64.6933 10.5903 73.5938 8.81019C83.3721 6.85923 86.5977 8.4703 86.9532 9.18027L106.927 49.426Z" fill="#E3E3E3"/>
<path d="M84.9434 48.3104C84.027 46.7905 83.1106 45.2705 82.1943 43.7506C81.1352 41.9856 78.8691 41.3843 77.0806 42.3823C75.782 43.107 74.4838 43.8074 73.1736 44.4955L70.9257 39.7356C70.0266 37.8267 67.751 37.0186 65.8422 37.9177L60.4214 40.4853C58.5126 41.3844 57.7044 43.6599 58.6036 45.5687L60.8515 50.3286C59.4941 50.9067 58.1126 51.4722 56.7435 52.0136C54.8366 52.7668 53.8599 54.9064 54.552 56.8368L56.3466 61.8583C57.0737 63.8986 59.3466 64.9135 61.3512 64.1251C63.0382 63.4541 64.7253 62.771 66.3886 62.051L68.4709 66.4561C69.37 68.365 71.6455 69.1731 73.5544 68.274L78.963 65.7063C80.8718 64.8072 81.68 62.5316 80.7809 60.6228L78.6985 56.2177C80.3148 55.3755 81.9068 54.5209 83.4994 53.6298C85.386 52.5723 86.0377 50.1731 84.9189 48.3222L84.9434 48.3104Z" fill="#38D0BE"/>
<path d="M193.956 56.2872L188.643 53.5005L185.856 58.8141L182.313 56.9563L185.1 51.6427L179.787 48.856L181.644 45.3136L186.958 48.1003L189.745 42.7867L193.287 44.6445L190.5 49.9581L195.814 52.7448L193.956 56.2872Z" fill="#FFC466"/>
<path d="M47.6444 179.287L52.958 176.501L55.7447 181.814L59.2871 179.956L56.5004 174.643L61.814 171.856L59.9562 168.314L54.6426 171.1L51.8558 165.787L48.3135 167.645L51.1002 172.958L45.7866 175.745L47.6444 179.287Z" fill="#FF80A9"/>
</svg>
