<svg width="164" height="160" viewBox="0 0 164 160" fill="none" xmlns="http://www.w3.org/2000/svg">
<path d="M43.7334 143.467C43.7334 144.833 43.7333 146.167 43.6667 147.533C43.5667 151.7 40.3667 154.933 36.2 154.967C29.5334 155 22.8667 155 16.2334 154.967C12.0001 154.967 8.73338 151.7 8.70005 147.433C8.66672 140.767 8.66672 134.133 8.70005 127.467C8.70005 123.3 11.9666 120.1 16.1333 120C17.5 120 18.8334 119.967 20.2001 119.933C22.2001 119.933 24.2 119.933 26.2 119.933C29.4334 119.933 32.6333 119.933 35.8666 119.967C40.4999 119.967 43.6667 123.167 43.7 127.8C43.7 131.033 43.7334 134.233 43.7668 137.467C43.7668 139.467 43.7668 141.467 43.7668 143.467H43.7334ZM26.3333 124.967C23.0666 124.967 19.7666 124.967 16.4999 124.967C14.6666 124.967 13.7 125.933 13.7 127.733C13.7 134.167 13.7 140.633 13.7 147.067C13.7 149 14.6667 149.933 16.6 149.933C23 149.933 29.4001 149.933 35.8001 149.933C37.7334 149.933 38.7 149 38.7 147.067C38.7 140.667 38.7 134.267 38.7 127.9C38.7 125.867 37.7667 124.967 35.7333 124.967C32.6 124.967 29.5 124.967 26.3667 124.967H26.3333Z" fill="#0B1027"/>
<path d="M20.2001 40.0667C18.8334 40.0667 17.5 40.0666 16.1333 39.9999C11.9667 39.8999 8.73338 36.7 8.70005 32.5333C8.66672 25.8666 8.66672 19.2333 8.70005 12.5667C8.70005 8.3 11.9667 5.06663 16.2334 5.0333C22.9001 4.99997 29.5667 4.99997 36.2 5.0333C40.3667 5.0333 43.5667 8.2999 43.6667 12.4666C43.6667 13.8332 43.7001 15.1667 43.7334 16.5333C43.7334 18.5333 43.7334 20.5333 43.7334 22.5333C43.7334 25.7666 43.7334 28.9665 43.7 32.1998C43.6667 36.8332 40.4999 40 35.8666 40.0333C32.6333 40.0333 29.4334 40.0667 26.2 40.0667C24.2 40.0667 22.2001 40.0667 20.2001 40.0667ZM26.1667 10.0333C22.9333 10.0333 19.7333 10.0333 16.4999 10.0333C14.6666 10.0333 13.7 11 13.7 12.8C13.7 19.2334 13.7 25.7 13.7 32.1333C13.7 34.0666 14.6667 34.9999 16.6 34.9999C23 34.9999 29.4001 34.9999 35.8001 34.9999C37.7334 34.9999 38.7 34.0666 38.7 32.1333C38.7 25.7333 38.7 19.3333 38.7 12.9667C38.7 10.9667 37.7667 10.0333 35.7333 10.0333C32.5667 10.0333 29.4001 10.0333 26.2334 10.0333H26.1667Z" fill="#0B1027"/>
<path d="M123.6 16.5333C123.6 15.1667 123.6 13.8332 123.667 12.4666C123.767 8.2999 126.967 5.06663 131.133 5.0333C137.8 4.99997 144.467 4.99997 151.1 5.0333C155.367 5.0333 158.6 8.3 158.633 12.5667C158.667 19.2333 158.667 25.8666 158.633 32.5333C158.633 36.7 155.367 39.8999 151.2 39.9999C149.833 39.9999 148.5 40.0333 147.133 40.0667C145.133 40.0667 143.133 40.0667 141.133 40.0667C137.9 40.0667 134.7 40.0666 131.467 40.0333C126.833 40.0333 123.667 36.8332 123.633 32.1998C123.633 28.9665 123.6 25.7666 123.6 22.5333C123.6 20.5333 123.6 18.5333 123.6 16.5333ZM153.633 22.5333C153.633 19.3 153.633 16.0999 153.633 12.8666C153.633 11.0332 152.666 10.0667 150.866 10.0667C144.433 10.0667 137.967 10.0667 131.533 10.0667C129.6 10.0667 128.7 11.0333 128.667 12.9667C128.667 19.3666 128.667 25.7666 128.667 32.1333C128.667 34.0666 129.6 35.0333 131.533 35.0333C137.933 35.0333 144.333 35.0333 150.733 35.0333C152.733 35.0333 153.667 34.0999 153.667 32.0666C153.667 28.8999 153.667 25.7333 153.667 22.5667L153.633 22.5333Z" fill="#0B1027"/>
<path d="M147.133 119.933C148.5 119.933 149.833 119.933 151.2 120C155.367 120.1 158.6 123.3 158.633 127.467C158.667 134.133 158.667 140.767 158.633 147.433C158.633 151.7 155.367 154.933 151.1 154.967C144.433 155 137.767 155 131.133 154.967C126.967 154.967 123.767 151.7 123.667 147.533C123.667 146.167 123.633 144.833 123.6 143.467C123.6 141.467 123.6 139.467 123.6 137.467C123.6 134.233 123.6 131.033 123.633 127.8C123.633 123.167 126.833 120 131.467 119.967C134.7 119.967 137.9 119.933 141.133 119.933C143.133 119.933 145.133 119.933 147.133 119.933ZM153.633 137.467C153.633 134.233 153.633 131.033 153.633 127.8C153.633 125.967 152.667 125 150.833 125C144.4 125 137.933 125 131.5 125C129.567 125 128.667 125.967 128.633 127.9C128.633 134.3 128.633 140.7 128.633 147.067C128.633 149 129.567 149.967 131.5 149.967C137.9 149.967 144.3 149.967 150.7 149.967C152.7 149.967 153.633 149.033 153.633 147C153.633 143.833 153.633 140.667 153.633 137.5V137.467Z" fill="#0B1027"/>
<path d="M147.133 119.933C145.133 119.933 143.133 119.933 141.133 119.933C141.4 119.533 141.633 119.133 141.9 118.767C152.6 102.367 155.933 84.5333 152.067 65.4C150.233 56.2 146.4 47.8334 141.133 40.1001C143.133 40.1001 145.133 40.1001 147.133 40.1001C162.667 66.7334 162.667 93.3333 147.133 119.967V119.933Z" fill="#6D73F1"/>
<path d="M123.6 16.5334C123.6 18.5334 123.6 20.5334 123.6 22.5334C123.2 22.2667 122.8 22.0334 122.433 21.7668C105.967 11.0334 88.1 7.73332 68.9 11.6333C59.7667 13.5 51.4334 17.3 43.7334 22.5334C43.7334 20.5334 43.7334 18.5334 43.7334 16.5334C70.3667 1.00009 96.9666 1.00009 123.6 16.5334Z" fill="#6D73F1"/>
<path d="M20.2 40.0668C22.2 40.0668 24.2 40.0668 26.2 40.0668C25.9667 40.4334 25.7666 40.7668 25.5333 41.1335C14.0666 58.7001 10.9999 77.6668 16.0665 97.9668C18.0665 105.933 21.6333 113.167 26.2 119.933C24.2 119.933 22.2 119.933 20.2 119.933C4.66672 93.3 4.66672 66.7001 20.2 40.0668Z" fill="#6D73F1"/>
<path d="M123.6 137.467C123.6 139.467 123.6 141.467 123.6 143.467C96.9666 159.033 70.3667 159 43.7334 143.467C43.7334 141.467 43.7334 139.467 43.7334 137.467C44.1001 137.7 44.4334 137.9 44.8001 138.133C60.5668 148.5 77.7666 152 96.3333 148.8C106.267 147.067 115.333 143.133 123.633 137.5L123.6 137.467Z" fill="#6D73F1"/>
<path d="M40.5665 92.5666C38.3999 92.5666 36.2331 92.5666 34.0331 92.4999C32.2331 92.4999 31.1332 91.4665 31.1665 89.9665C31.1998 88.4999 32.2998 87.5666 33.9998 87.4999C34.7331 87.4999 35.4332 87.4665 36.1665 87.4332C38.2665 87.4332 40.3665 87.4332 42.4332 87.4332C45.8665 87.4332 49.2997 87.4333 52.7331 87.5333C54.0664 87.5666 54.6998 87.2 55.2664 85.9333C57.9998 79.6 60.8331 73.2998 63.6331 66.9998C64.1665 65.7998 64.8998 64.9333 66.2998 65.0333C67.7664 65.1333 68.3999 66.0999 68.6999 67.4665C69.7999 72.3332 70.9332 77.1665 72.0666 82.0332C72.7666 85.0999 73.4999 88.1665 74.2999 91.6332C75.0332 89.7332 75.6332 88.2667 76.2332 86.7667C76.6999 85.6 77.5665 84.9666 78.8999 84.9999C80.2665 84.9999 81.5998 84.9332 82.9664 84.9999C84.0331 85.0666 84.5666 84.7665 84.9666 83.6665C86.9332 78.1998 89.0331 72.8 91.0664 67.3333C91.5664 66 92.1999 64.9332 93.7666 64.9999C95.3333 65.0666 95.8999 66.1333 96.2332 67.5333C97.5332 72.8666 98.8997 78.1999 100.233 83.5332C100.9 86.1666 101.567 88.7999 102.3 91.6999C103.733 89.8333 104.966 88.2331 106.133 86.5665C106.966 85.3998 107.966 84.8998 109.4 84.8998C115.166 84.9331 120.966 84.8998 126.733 84.8998C128.7 84.8998 130.667 84.8998 132.633 84.8998C133 84.8998 133.367 84.8999 133.733 84.9665C135.133 85.1332 136.066 86.0998 136.1 87.3998C136.1 88.7665 135.133 89.8332 133.667 89.9332C132.1 89.9998 130.566 89.9999 129 89.9999C126.7 89.9999 124.4 89.9999 122.1 89.9999C118.367 89.9999 114.6 89.9998 110.866 89.9332C110.066 89.9332 109.666 90.2666 109.233 90.8332C107.333 93.4332 105.366 95.9999 103.433 98.5666C102.733 99.5333 101.833 100.1 100.633 99.8667C99.4333 99.6 98.8998 98.7333 98.5998 97.5666C97.8331 94.2666 96.9665 91.0333 96.1331 87.7333C95.1665 83.8999 94.2331 80.0998 93.1664 75.9665C92.8998 76.5665 92.7665 76.8666 92.6665 77.1333C91.3332 80.6666 89.9665 84.2 88.6665 87.7666C88.0998 89.3 87.1331 89.9998 85.4998 89.9332C84.1331 89.8665 82.7999 89.9998 81.4332 89.8998C80.5332 89.8331 80.1665 90.1665 79.8665 90.9665C78.6331 94.1665 77.3331 97.3333 76.0664 100.5C75.5664 101.733 74.7333 102.5 73.3333 102.367C72.0333 102.233 71.3664 101.4 71.0664 100.133C70.4664 97.4332 69.8331 94.7666 69.1998 92.0999C67.9331 86.6333 66.6665 81.1666 65.3332 75.3999C64.9665 76.1332 64.7332 76.5999 64.5332 77.0666C62.6332 81.3666 60.6665 85.6666 58.8331 90.0333C58.0998 91.7333 57.0665 92.5332 55.1665 92.4665C52.6665 92.3665 50.1665 92.4665 47.6665 92.4665C45.2665 92.4665 42.8998 92.4665 40.4998 92.4665L40.5665 92.5666Z" fill="#0B1027"/>
<path d="M132.7 84.9667C130.734 84.9667 128.767 84.9667 126.8 84.9667C130.234 79.4334 131.733 73.5335 130.933 66.9669C129.7 56.9669 122.3 48.4001 112.5 45.8001C102.734 43.2334 92.4002 47.0001 86.3668 55.4001C84.4668 58.0334 83.0001 57.9667 81.0667 55.3667C76.5334 49.2001 70.4335 45.5668 62.8001 45.0668C45.9668 44.0002 33.6334 59.3333 36.7001 75.3334C37.5667 79.8667 39.6336 83.8334 42.5002 87.4334C40.4002 87.4334 38.3002 87.4334 36.2336 87.4334C32.7669 81.8 31.0336 75.7 31.2336 69.0667C31.6336 54.6333 43.0002 42.0002 57.2335 40.3002C67.1669 39.1002 75.6001 42.1667 82.5334 49.3334C83.6001 50.4334 84.0336 50.2667 85.0002 49.3C93.5336 40.7334 103.767 37.8001 115.3 41.4668C126.8 45.1334 133.534 53.4668 135.8 65.2668C137.034 71.6668 136.033 77.9001 133.233 83.8001C133.067 84.1668 132.933 84.5667 132.767 84.9334L132.7 84.9667Z" fill="#6D73F1"/>
<path d="M122.1 90.0333C124.4 90.0333 126.7 90.0333 129 90.0333C128.567 90.9333 127.767 91.5666 127.1 92.2666C113.533 105.933 99.9666 119.6 86.4 133.267C84.1 135.6 83.2332 135.6 80.8665 133.233C67.5999 119.867 54.3332 106.5 41.0665 93.1333C40.8999 92.9666 40.7333 92.7334 40.5667 92.5667C42.9667 92.5667 45.3332 92.5667 47.7332 92.5667C47.9665 92.8334 48.1666 93.1334 48.4333 93.4C59.8666 104.933 71.3 116.433 82.6667 127.967C83.5667 128.867 84 128.633 84.7333 127.867C96.8666 115.6 109.033 103.367 121.2 91.1C121.533 90.7667 121.8 90.4 122.1 90.0333Z" fill="#6D73F1"/>
</svg>
