<svg width="55" height="32" viewBox="0 0 55 32" fill="none" xmlns="http://www.w3.org/2000/svg">
<g clip-path="url(#clip0_511_5589)">
<path d="M0.305996 6.88737C0.603142 7.31907 1.0068 7.43121 1.52259 7.4256C3.05878 7.39757 4.59497 7.41438 6.16479 7.41438V16.6651C5.76112 16.6651 5.35185 16.6651 4.93697 16.6651C4.00629 16.6651 3.0812 16.6651 2.15052 16.6651C1.5282 16.6651 1.15258 16.9903 1.14697 17.5005C1.14697 18.0107 1.51701 18.3414 2.13372 18.3471C3.37836 18.3527 4.62299 18.3583 5.86763 18.3471C6.17599 18.3471 6.35541 18.4087 6.518 18.7115C6.97213 19.5693 7.72898 20.0122 8.6989 20.029C9.8202 20.0514 10.9415 20.0458 12.0628 20.029C13.0551 20.0122 13.812 19.5637 14.283 18.689C14.4175 18.4367 14.5521 18.3414 14.838 18.3414C16.3966 18.3583 17.9552 18.3415 19.5139 18.3639C19.7437 18.3639 20.024 18.4872 20.1922 18.6498C20.9883 19.4123 21.7564 20.2028 22.5245 20.9989C23.0011 21.4923 23.5673 21.7278 24.2625 21.7166C25.8548 21.6997 27.4527 21.7054 29.0449 21.7166C29.2692 21.7166 29.5158 21.8063 29.7065 21.9352C30.312 22.3333 30.9623 22.5463 31.68 22.5463C32.7284 22.5519 33.7824 22.5463 34.8308 22.5463C36.8716 22.5463 38.3124 20.5336 37.6509 18.605C37.6172 18.5097 37.5892 18.4087 37.5892 18.4031C38.1274 17.9266 38.6656 17.5285 39.0973 17.0352C39.8374 16.1998 40.0505 15.1906 39.8486 14.0917C39.815 13.9067 39.8486 13.6152 39.972 13.5086C41.3792 12.2976 42.1977 10.4419 40.6672 8.21049C41.3399 7.34149 41.6483 6.37717 41.3063 5.27269C40.8858 3.91592 39.9215 3.20389 38.5031 3.20389C36.8379 3.20389 35.1728 3.21512 33.5076 3.18709C33.289 3.18709 32.9975 3.04693 32.8741 2.87313C32.2014 1.92563 31.3267 1.51075 30.1494 1.50514C26.3818 1.49393 23.0291 2.72174 19.996 4.85221C19.0821 5.49135 18.2075 5.84457 17.1031 5.73804C16.3574 5.66516 15.5949 5.71561 14.8436 5.73243C14.5689 5.73804 14.4175 5.66517 14.2774 5.40167C13.8008 4.50463 13.0271 4.05608 12.0124 4.04487C10.9247 4.03366 9.84265 4.03366 8.75499 4.04487C7.74582 4.05608 6.96653 4.49901 6.48997 5.39605C6.34981 5.65395 6.20404 5.73242 5.92371 5.72682C4.45481 5.71561 2.98031 5.73805 1.51141 5.71002C0.995609 5.6988 0.591911 5.82212 0.289162 6.24822V6.88176L0.305996 6.88737ZM14.625 7.75079C15.7407 7.75079 16.7891 7.70591 17.8375 7.76198C18.8299 7.81244 19.6428 7.52652 20.4614 6.93784C23.3879 4.84101 26.6061 3.55149 30.2783 3.61877C30.8278 3.62998 31.2034 3.82061 31.5117 4.25792C32.734 5.99033 33.3787 7.96944 33.9057 9.98778C33.973 10.2457 33.76 10.6886 33.5357 10.8848C33.3563 11.0418 32.947 11.0194 32.6723 10.9521C32.42 10.8848 32.1789 10.6774 31.9883 10.4867C31.4221 9.91487 30.8838 9.315 30.3344 8.72632C29.8634 8.22734 29.4598 7.72275 29.9475 7.01073C29.9644 6.9827 29.9643 6.94345 29.9699 6.90982C30.0597 6.42205 29.8578 6.06322 29.4149 5.91745C28.9944 5.7829 28.5796 5.97352 28.3889 6.41083C28.2824 6.65191 28.2207 6.90981 28.1142 7.14528C27.1555 9.29257 25.4007 10.3522 23.1637 10.7615C22.5638 10.8736 22.2722 11.21 22.3451 11.7034C22.418 12.2023 22.7936 12.4602 23.3992 12.3817C24.9634 12.1743 26.3706 11.5912 27.5816 10.5821C27.9909 10.2401 28.3441 9.82519 28.7365 9.42713C28.8655 9.5785 28.9552 9.70745 29.0673 9.81398C29.9195 10.6437 30.7044 11.552 31.6407 12.264C32.577 12.976 33.7319 12.8695 34.5785 12.2304C35.4475 11.5744 35.84 10.4811 35.498 9.37104C35.1392 8.19928 34.7075 7.05556 34.3038 5.90062C34.2365 5.71 34.158 5.5306 34.0571 5.27831C35.6101 5.27831 37.079 5.27831 38.5479 5.27831C39.2039 5.27831 39.5795 5.58106 39.7253 6.2258C39.8654 6.83131 39.5627 7.27984 39.1702 7.6779C38.4806 8.37872 38.4638 8.56932 39.1141 9.34302C39.2263 9.47757 39.3328 9.61774 39.4281 9.7635C40.0168 10.6605 39.9495 11.4062 39.2039 12.1799C39.0076 12.3817 38.789 12.5612 38.5591 12.7181C37.8247 13.2227 37.7686 13.3797 38.0713 14.187C38.4358 15.1682 38.2059 16.0484 37.3481 16.6427C36.9501 16.9174 36.4903 17.1024 36.0418 17.2986C35.4419 17.5621 35.2681 18.0555 35.6157 18.6162C35.7278 18.7956 35.8568 18.9638 35.9521 19.1488C36.4006 20.001 35.8231 20.9989 34.8588 21.0158C33.8272 21.0326 32.79 21.055 31.7584 21.0101C30.4801 20.9541 30.3176 20.5504 30.5811 19.345C30.6652 18.9526 30.9174 18.7563 31.3379 18.7788C31.7752 18.8068 32.2126 18.818 32.6499 18.8068C33.132 18.7956 33.4684 18.476 33.4908 18.0387C33.5189 17.5902 33.1881 17.2257 32.6891 17.1809C32.2855 17.1473 31.8874 17.1248 31.4837 17.1192C30.9847 17.1136 30.71 16.8277 30.5642 16.4016C30.3344 15.7288 30.8838 15 31.7024 14.8991C32.0107 14.8598 32.3303 14.8991 32.6443 14.8991C33.1208 14.8991 33.3955 14.6356 33.4852 14.187C33.5637 13.7946 33.2834 13.3853 32.8461 13.2956C31.7248 13.0713 30.6764 13.2339 29.8018 14.0189C28.6412 15.0561 28.5403 16.2839 29.3701 17.7472C29.1178 18.6162 28.8935 19.373 28.6468 20.2028C27.206 20.2028 25.6698 20.2084 24.128 20.1916C23.9654 20.1916 23.7804 20.0402 23.6515 19.9169C22.9114 19.1936 22.1713 18.476 21.4593 17.7247C20.9042 17.1417 20.2651 16.8333 19.4522 16.8894C19.0878 16.9118 18.7177 16.8894 18.3477 16.8894H14.6082V7.76198L14.625 7.75079ZM12.9206 12.2808C12.9206 14.0132 12.9206 15.7456 12.9206 17.4781C12.9206 18.2405 12.6291 18.5321 11.8778 18.5377C10.8967 18.5433 9.91554 18.5433 8.94001 18.5377C8.18314 18.5377 7.88037 18.2405 7.87476 17.4949C7.87476 14.0469 7.87476 10.5989 7.87476 7.15089C7.87476 6.39401 8.16069 6.10247 8.91756 6.09125C9.8987 6.08004 10.8798 6.08004 11.8554 6.09125C12.6459 6.09686 12.915 6.3828 12.915 7.18453C12.915 8.8833 12.915 10.582 12.915 12.2752L12.9206 12.2808Z" fill="black"/>
<path d="M54.1284 25.0804C53.7528 24.4132 53.1865 24.2226 52.4296 24.2282C47.737 24.2562 43.0444 24.2506 38.3517 24.2282C37.679 24.2282 37.1239 24.4413 36.6081 24.8281C36.0138 25.271 35.9634 25.927 35.9522 26.5773C35.941 27.3566 35.5204 27.8388 34.8813 28.1584C34.2702 28.4555 33.6367 28.7078 33.0088 28.9713C32.4593 29.2012 32.1005 29.8235 32.2967 30.3729C32.3808 30.6084 32.6611 30.8046 32.8966 30.9392C33.0424 31.0233 33.2723 30.9672 33.4629 30.9672C39.7814 30.9672 46.1055 30.956 52.4241 30.9784C53.1809 30.9784 53.7472 30.7878 54.1228 30.1263V25.0804H54.1284ZM48.2304 29.3526H36.2942C36.8436 28.5004 37.7462 27.8949 37.6509 26.7063C37.5892 25.9382 37.7855 25.8149 38.5816 25.8149C41.6315 25.8149 44.6759 25.8149 47.7258 25.8149H48.236V29.3469L48.2304 29.3526ZM52.4241 29.3582H49.9628V25.8597H52.4241V29.3582Z" fill="black"/>
<path d="M54.1284 14.4619C53.8873 13.7106 53.45 13.1107 52.8782 12.5669C52.6483 12.3483 52.5362 11.9726 52.4577 11.653C52.3343 11.1372 51.9923 10.8289 51.5046 10.885C51.0505 10.9354 50.7477 11.3055 50.7757 11.8157C50.815 12.5445 51.0953 13.1724 51.5999 13.6994C51.7457 13.8508 51.9082 13.9854 52.0484 14.1423C52.609 14.7478 52.5866 15.2805 52.0372 15.9028C51.6616 16.3345 51.2411 16.7606 51 17.2652C50.501 18.3136 50.7814 19.5358 51.6223 20.3543C52.054 20.7748 52.4521 21.1673 52.5081 21.84C52.525 22.0587 52.8838 22.3391 53.1417 22.4344C53.5846 22.5969 53.8817 22.2605 54.1284 21.9298V21.1953C53.921 20.416 53.4781 19.7937 52.895 19.2387C52.2558 18.6275 52.2558 18.022 52.895 17.4222C53.4725 16.8839 53.8985 16.2728 54.1228 15.5159V14.4619H54.1284Z" fill="black"/>
<path d="M54.1284 15.5104C53.9042 16.2673 53.4781 16.8784 52.9006 17.4166C52.2558 18.0165 52.2558 18.622 52.9006 19.2331C53.4893 19.7881 53.9266 20.4105 54.134 21.1898V15.5104H54.1284Z" fill="white"/>
<path d="M30.0877 29.336C30.4521 28.8202 30.7829 28.3549 31.108 27.8951C31.1249 27.8671 31.1529 27.8335 31.1809 27.8278C31.9939 27.598 32.0331 26.8523 32.2742 26.23C32.3583 26.0113 32.5657 25.8431 32.6554 25.6245C32.7676 25.3553 32.9526 24.9965 32.8573 24.7835C32.7507 24.5424 32.3807 24.4079 32.1116 24.2453C32.0499 24.206 31.9378 24.2397 31.8537 24.2397C26.4098 24.2397 20.9603 24.2397 15.5164 24.2397C13.9522 24.2397 12.9262 25.2713 12.9206 26.8467C12.9206 27.4242 12.9094 28.0016 12.9206 28.5791C12.9598 29.8742 13.9746 30.9506 15.2585 30.9562C20.0744 30.9787 24.8904 30.9731 29.7064 30.9451C29.9867 30.9451 30.3848 30.6927 30.525 30.4405C30.7941 29.9583 30.4577 29.5883 30.082 29.336H30.0877ZM27.9292 29.3472H21.7788V25.86H30.5698C30.6147 26.3533 30.2559 26.443 29.9531 26.6224C29.6447 26.8074 29.1682 27.0766 29.157 27.3232C29.1346 27.8615 28.8094 28.1138 28.5178 28.4502C28.2936 28.7081 28.1366 29.022 27.9236 29.3472H27.9292ZM20.0464 29.3808C18.4654 29.3808 16.9292 29.392 15.393 29.3752C14.9333 29.3696 14.6362 29.0725 14.6137 28.6071C14.5857 27.9456 14.5913 27.2784 14.6137 26.6168C14.625 26.1739 14.894 25.8487 15.3257 25.8431C16.89 25.8095 18.4598 25.8319 20.052 25.8319V29.3864L20.0464 29.3808Z" fill="black"/>
<path d="M46.5652 11.8491C46.6157 12.505 46.868 13.1442 47.3726 13.6712C47.5295 13.8338 47.7033 13.9852 47.8603 14.1533C48.3985 14.742 48.3929 15.2859 47.8435 15.8689C47.7145 16.0091 47.5688 16.138 47.4286 16.2726C46.2681 17.4219 46.2625 19.2272 47.4286 20.3654C47.8435 20.7746 48.236 21.1502 48.2808 21.8062C48.3144 22.2491 48.6845 22.4846 49.1554 22.451C49.5983 22.4229 49.9179 22.0753 49.9123 21.5988C49.9011 20.8475 49.6207 20.2028 49.1049 19.6589C48.9592 19.5076 48.8022 19.3674 48.6564 19.216C48.0734 18.5881 48.0734 18.0443 48.6677 17.4219C48.791 17.293 48.9199 17.1809 49.0489 17.0575C50.2263 15.897 50.215 14.0693 49.0153 12.9255C48.6004 12.5331 48.2415 12.1518 48.2023 11.5239C48.1743 11.081 47.7146 10.8175 47.2716 10.8791C46.8399 10.9408 46.5652 11.294 46.5652 11.8435V11.8491Z" fill="black"/>
<path d="M14.6249 7.75095V16.8783H18.3645C18.7345 16.8783 19.0989 16.9007 19.4689 16.8783C20.2819 16.8222 20.921 17.1306 21.4761 17.7137C22.1881 18.4649 22.9281 19.1882 23.6682 19.9058C23.7971 20.0348 23.9822 20.1805 24.1448 20.1805C25.6809 20.203 27.2227 20.1918 28.6636 20.1918C28.9047 19.362 29.1289 18.6051 29.3868 17.7361C28.5571 16.2728 28.658 15.045 29.8185 14.0078C30.6988 13.2229 31.7472 13.0603 32.8629 13.2846C33.3002 13.3687 33.5805 13.7835 33.502 14.176C33.4123 14.6245 33.1376 14.8824 32.661 14.888C32.3471 14.888 32.0275 14.8544 31.7192 14.888C30.9006 14.9889 30.3568 15.7178 30.581 16.3905C30.7268 16.8222 31.0015 17.1026 31.5005 17.1082C31.9042 17.1082 32.3078 17.1306 32.7059 17.1699C33.2048 17.2147 33.5356 17.5791 33.5076 18.0276C33.4796 18.4593 33.1432 18.7845 32.6666 18.7957C32.2293 18.8069 31.792 18.7957 31.3547 18.7677C30.9286 18.7397 30.6819 18.9415 30.5979 19.334C30.3343 20.5394 30.4969 20.943 31.7752 20.9991C32.8068 21.0439 33.844 21.0271 34.8756 21.0047C35.8399 20.9879 36.4118 19.9843 35.9689 19.1377C35.8735 18.9527 35.739 18.7845 35.6325 18.6051C35.2849 18.0501 35.4531 17.5567 36.0586 17.2876C36.5071 17.0913 36.9668 16.9063 37.3649 16.6316C38.2227 16.0373 38.4582 15.1571 38.0881 14.176C37.7854 13.3686 37.8414 13.2117 38.5759 12.7071C38.8058 12.5501 39.0244 12.3707 39.2206 12.1688C39.9663 11.3951 40.0336 10.6495 39.4449 9.75244C39.3496 9.60667 39.2431 9.4665 39.1309 9.33195C38.4806 8.55825 38.4974 8.36765 39.187 7.66683C39.5794 7.26877 39.8766 6.82024 39.7421 6.21474C39.5963 5.56999 39.2206 5.26724 38.5647 5.26724C37.0958 5.26724 35.6269 5.26724 34.0739 5.26724C34.1748 5.51953 34.2533 5.70457 34.3205 5.88958C34.7242 7.04452 35.1559 8.18825 35.5147 9.36001C35.8511 10.4701 35.4643 11.5633 34.5953 12.2193C33.7431 12.8584 32.5881 12.965 31.6575 12.2529C30.7212 11.5409 29.9307 10.6271 29.0841 9.80291C28.972 9.69639 28.8766 9.56743 28.7533 9.41606C28.3608 9.80851 28.0132 10.229 27.5984 10.571C26.3873 11.5802 24.9745 12.1689 23.4159 12.3707C22.816 12.4492 22.4348 12.1857 22.3619 11.6923C22.2946 11.1989 22.5805 10.8625 23.1804 10.7504C25.4118 10.3411 27.1723 9.28711 28.131 7.13421C28.2375 6.89313 28.3048 6.63523 28.4057 6.39976C28.5963 5.96245 29.0056 5.76622 29.4317 5.90639C29.8746 6.05216 30.0764 6.41098 29.9867 6.89875C29.9811 6.93239 29.9867 6.97163 29.9643 6.99966C29.4765 7.71169 29.8858 8.21627 30.3512 8.71525C30.9062 9.29832 31.4388 9.89823 32.0051 10.4757C32.1957 10.6719 32.4368 10.8794 32.6891 10.941C32.9638 11.0139 33.373 11.0307 33.5525 10.8737C33.7767 10.6775 33.9898 10.2402 33.9225 9.97671C33.3955 7.95837 32.7507 5.97929 31.5285 4.24688C31.2202 3.80958 30.8445 3.61895 30.2951 3.60774C26.6228 3.54046 23.4047 4.82994 20.4781 6.92677C19.6595 7.51546 18.8522 7.8014 17.8543 7.75095C16.8058 7.69488 15.7574 7.73972 14.6417 7.73972L14.6249 7.75095Z" fill="white"/>
<path d="M12.9207 12.281C12.9207 10.5822 12.9207 8.88347 12.9207 7.19031C12.9207 6.38858 12.6459 6.10825 11.861 6.09703C10.8799 6.08582 9.89875 6.08582 8.92322 6.09703C8.16634 6.10264 7.88042 6.39419 7.88042 7.15667C7.88042 10.6047 7.88042 14.0526 7.88042 17.5006C7.88042 18.2407 8.18315 18.5379 8.94563 18.5435C9.92677 18.5491 10.9079 18.5491 11.8835 18.5435C12.6347 18.5435 12.9207 18.2407 12.9263 17.4838C12.9263 15.7514 12.9263 14.019 12.9263 12.2866L12.9207 12.281Z" fill="white"/>
<path d="M48.2303 29.3525V25.8204H47.7202C44.6702 25.8204 41.6259 25.8204 38.576 25.8204C37.7799 25.8204 37.5836 25.9438 37.6453 26.7118C37.7406 27.8948 36.8436 28.5059 36.2885 29.3581H48.2247L48.2303 29.3525Z" fill="white"/>
<path d="M52.424 29.3581V25.8597H49.9627V29.3581H52.424Z" fill="black"/>
<path d="M27.9292 29.3469C28.1423 29.0217 28.3049 28.7078 28.5235 28.4499C28.8095 28.1135 29.1346 27.8668 29.1626 27.323C29.1739 27.0707 29.6504 26.8016 29.9588 26.6222C30.2615 26.4427 30.6147 26.3587 30.5755 25.8597H21.7845V29.3469H27.9349H27.9292Z" fill="white"/>
<path d="M20.0465 29.3809V25.8264C18.4543 25.8264 16.8901 25.8095 15.3202 25.8376C14.8941 25.8488 14.625 26.1739 14.6082 26.6113C14.5858 27.2728 14.5802 27.94 14.6082 28.6016C14.6306 29.0669 14.9278 29.3641 15.3875 29.3697C16.9237 29.3921 18.4599 29.3753 20.0409 29.3753L20.0465 29.3809Z" fill="black"/>
</g>
<defs>
<clipPath id="clip0_511_5589">
<rect width="54.8572" height="32" fill="white"/>
</clipPath>
</defs>
</svg>
