<svg width="46" height="32" viewBox="0 0 46 32" fill="none" xmlns="http://www.w3.org/2000/svg">
<g clip-path="url(#clip0_511_5575)">
<path d="M12.5555 30.1111V30.1053V30.0937V30.082V30.0704V30.0587V30.047V30.0354V30.0237V30.0121V30.0004V29.9888V29.9771V29.9655V29.9538V29.9422V29.9305V29.9189V29.9072V29.8956V29.8839V29.8723V29.8606V29.849V29.8373V29.8257V29.814V29.8024V29.7908V29.7791V29.7675V29.7558V29.7442V29.7326V29.7209V29.7093V29.6976V29.686V29.6744V29.6627V29.6511V29.6395V29.6278V29.6162V29.6046V29.5929V29.5813V29.5697V29.5581V29.5464V29.5348V29.5232V29.5116V29.4999V29.4883V29.4767V29.4651V29.4534V29.4418V29.4302V29.4186V29.407V29.3953V29.3837V29.3721V29.3605V29.3489V29.3373V29.3256V29.314V29.3024V29.2908V29.2792V29.2676V29.256V29.2443V29.2327V29.2211V29.2095V29.1979V29.1863V29.1747V29.1631V29.1515V29.1399V29.1283V29.1167V29.1051V29.0935V29.0819V29.0703V29.0587V29.0471V29.0355V29.0239V29.0123V29.0007V28.9891V28.9775V28.9659V28.9543V28.9427V28.9311V28.9195V28.9079V28.8963V28.8847V28.8731V28.8615V28.8499V28.8384V28.8268V28.8152V28.8036V28.792V28.7804V28.7688V28.7572V28.7457V28.7341V28.7225V28.7109V28.6993V28.6877V28.6762V28.6646V28.653V28.6414V28.6298V28.6183V28.6067V28.5951V28.5835V28.5719V28.5604V28.5488V28.5372V28.5256V28.5141V28.5025V28.4909V28.4793V28.4678V28.4562V28.4446V28.433V28.4215V28.4099V28.3983V28.3868V28.3752V28.3636V28.3521V28.3405V28.3289V28.3174V28.3058V28.2942V28.2827V28.2711V28.2595V28.248V28.2364V28.2249V28.2133V28.2017V28.1902V28.1786V28.1671V28.1555V28.1439V28.1324V28.1208V28.1093V28.0977V28.0861V28.0746V28.063V28.0515V28.0399V28.0284V28.0168V28.0053V27.9937V27.9822V27.9706V27.9591V27.9475V27.9359V27.9244V27.9128V27.9013V27.8897V27.8782V27.8667V27.8551V27.8436V27.832V27.8205V27.8089V27.7974V27.7858V27.7743V27.7627V27.7512V27.7396V27.7281V27.7166V27.705V27.6935V27.6819V27.6704V27.6589V27.6473V27.6358V27.6242V27.6127V27.6012V27.5896V27.5781V27.5665V27.555V27.5435V27.5319V27.5204V27.5089V27.4973V27.4858V27.4743V27.4627V27.4512V27.4396V27.4281V27.4166V27.405V27.3935V27.382V27.3705V27.3589V27.3474V27.3359V27.3243V27.3128V27.3013V27.2897V27.2782V27.2667V27.2552V27.2436V27.2321V27.2206V27.209V27.1975V27.186V27.1745V27.1629V27.1514V27.1399V27.1284V27.1168V27.1053V27.0938V27.0823V27.0708V27.0592V27.0477V27.0362V27.0247V27.0131V27.0016V26.9901V26.9786V26.9671V26.9555V26.944V26.9325V26.921V26.9095V26.8979V26.8864V26.8749V26.8634V26.8519V26.8404V26.8288V26.8173V26.8058V26.7943V26.7828V26.7713V26.7597V26.7482V26.7367V26.7252V26.7137V26.7022V26.6907V26.6791V26.6676V26.6561V26.6446V26.6331V26.6216V26.6101V26.5986V26.587V26.5755V26.564V26.5525V26.541V26.5295V26.518V26.5065V26.495V26.4835V26.4719V26.4604V26.4489V26.4374V26.4259V26.4144V26.4029V26.3914V26.3799V26.3684V26.3569V26.3454V26.3339V26.3223V26.3108V26.2993V26.2878V26.2763V26.2648V26.2533V26.2418V26.2303V26.2188V26.2073V26.1958V26.1843V26.1728V26.1613V26.1498V26.1383V26.1268V26.1153V26.1038V26.0923V26.0808V26.0693V26.0578V26.0462V26.0347V26.0232V26.0117V26.0002V25.9887V25.9772V25.9657V25.9542V25.9427V25.9312V25.9197V25.9082V25.8967V25.8889H31V30.1111H12.5555Z" fill="white" stroke="black" stroke-width="2"/>
<path d="M33.7298 25.1289V31.099C33.8006 31.112 33.855 31.1322 33.9105 31.1322C36.1682 31.1336 38.4246 31.138 40.6823 31.1322C41.2529 31.1322 41.5069 30.8064 41.5093 30.0927C41.514 28.7433 41.5163 27.3924 41.5081 26.0429C41.5045 25.4287 41.2411 25.0856 40.752 25.0842C38.4506 25.077 36.1493 25.0842 33.8479 25.087C33.8207 25.087 33.7936 25.1058 33.7298 25.1289Z" fill="black"/>
<path d="M41.4648 19.6905C41.4648 20.7032 41.4672 21.7159 41.4636 22.7274C41.4612 23.26 41.1991 23.5816 40.7702 23.5948C40.3247 23.6091 40.0363 23.2755 40.0363 22.725C40.0328 20.8188 40.0363 18.9138 40.034 17.0075C40.0316 15.342 38.9963 14.3066 37.3319 14.3042C35.7092 14.3019 34.0853 14.3185 32.4627 14.2983C30.6315 14.2757 29.0445 12.9615 28.6859 11.209C28.3071 9.35996 29.2018 7.53236 30.921 6.8068C31.4535 6.58163 32.0659 6.51729 32.6497 6.45057C33.2668 6.37909 33.909 6.46725 34.5154 6.35169C35.7616 6.11341 36.5789 4.92797 36.4491 3.68177C36.318 2.43319 35.2803 1.46339 34.015 1.44075C32.988 1.42169 31.9599 1.43837 30.9329 1.4348C30.3622 1.43361 30.0382 1.17746 30.0286 0.734258C30.0191 0.275571 30.3539 -0.000833805 30.9484 0.00750596C32.1827 0.0241855 33.4313 -0.0604026 34.6477 0.101627C36.6599 0.369691 38.0467 2.24852 37.8787 4.26436C37.7131 6.25757 36.0571 7.81829 34.0484 7.86595C33.5277 7.87786 33.0059 7.86118 32.4853 7.8731C31.1104 7.90527 30.0274 9.00969 30.0262 10.3691C30.025 11.7296 31.1056 12.8507 32.4793 12.8686C34.0877 12.8889 35.6961 12.8734 37.3045 12.8746C39.8028 12.877 41.4624 14.5461 41.466 17.0552C41.466 17.9332 41.466 18.8125 41.466 19.6905H41.4648Z" fill="black"/>
<path d="M21.9568 10.0153C22.2547 10.0153 22.5525 10.0046 22.8504 10.0177C23.2805 10.0367 23.5712 10.3191 23.5843 10.7075C23.5974 11.1114 23.296 11.4211 22.8492 11.4414C22.1665 11.4724 21.4707 11.4152 20.8012 11.526C18.9724 11.8286 17.725 13.4894 17.8775 15.323C18.0288 17.1434 19.5502 18.5802 21.4005 18.5886C25.3023 18.6065 29.2041 18.591 33.1071 18.5969C35.4994 18.6005 37.2126 20.353 37.1745 22.7382C37.1662 23.266 36.9017 23.5889 36.4716 23.5972C36.0391 23.6055 35.758 23.2827 35.7448 22.7632C35.6984 20.9773 34.725 20.0266 32.9415 20.0254C29.129 20.0254 25.3166 20.0337 21.5029 20.0218C19.0784 20.0147 17.0781 18.4158 16.5539 16.1021C15.8712 13.0867 18.1515 10.1273 21.242 10.0224C21.4803 10.0141 21.7186 10.0224 21.9568 10.0224C21.9568 10.0213 21.9568 10.0189 21.9568 10.0177V10.0153Z" fill="black"/>
<path d="M9.51352 25.1289V31.099C9.44264 31.112 9.3883 31.1322 9.33277 31.1322C7.07512 31.1336 4.81865 31.138 2.56101 31.1322C1.99039 31.1322 1.73639 30.8064 1.73403 30.0927C1.7293 28.7433 1.72694 27.3924 1.73521 26.0429C1.73875 25.4287 2.0022 25.0856 2.4913 25.0842C4.79266 25.077 7.09402 25.0842 9.39538 25.087C9.42255 25.087 9.44973 25.1058 9.51352 25.1289Z" fill="black"/>
<path d="M27.516 0.00506592C28.2511 0.00506592 28.5858 0.226664 28.5894 0.715137C28.593 1.20123 28.2475 1.43474 27.5243 1.43474C26.7928 1.43474 26.4544 1.21076 26.452 0.723477C26.4497 0.235005 26.7904 0.00506592 27.5171 0.00506592H27.516Z" fill="black"/>
<path d="M26.0624 11.4378C25.929 11.4378 25.7919 11.4557 25.6609 11.4342C25.2749 11.3711 25.0473 11.14 25.0235 10.7456C25.0009 10.3763 25.282 10.0605 25.6704 10.0236C25.9063 10.001 26.147 10.0081 26.3841 10.0165C26.8451 10.032 27.1478 10.3084 27.1573 10.711C27.168 11.1292 26.8547 11.4235 26.3733 11.4426C26.2697 11.4461 26.1649 11.4426 26.0612 11.4426C26.0612 11.4402 26.0612 11.439 26.0612 11.4366L26.0624 11.4378Z" fill="black"/>
</g>
<defs>
<clipPath id="clip0_511_5575">
<rect width="45.7496" height="32" fill="white"/>
</clipPath>
</defs>
</svg>
