<svg width="32" height="32" viewBox="0 0 32 32" fill="none" xmlns="http://www.w3.org/2000/svg">
<g clip-path="url(#clip0_511_5610)">
<path d="M11.1666 22.611V22.6096V22.603V22.5963V22.5896V22.5829V22.5763V22.5696V22.563V22.5563V22.5496V22.543V22.5363V22.5296V22.523V22.5163V22.5096V22.503V22.4963V22.4897V22.483V22.4763V22.4697V22.463V22.4564V22.4497V22.443V22.4364V22.4297V22.4231V22.4164V22.4098V22.4031V22.3965V22.3898V22.3831V22.3765V22.3698V22.3632V22.3565V22.3499V22.3432V22.3366V22.3299V22.3233V22.3166V22.31V22.3033V22.2967V22.29V22.2834V22.2767V22.2701V22.2634V22.2568V22.2501V22.2435V22.2369V22.2302V22.2236V22.2169V22.2103V22.2036V22.197V22.1903V22.1837V22.1771V22.1704V22.1638V22.1571V22.1505V22.1439V22.1372V22.1306V22.1239V22.1173V22.1107V22.104V22.0974V22.0907V22.0841V22.0775V22.0708V22.0642V22.0576V22.0509V22.0443V22.0377V22.031V22.0244V22.0178V22.0111V22.0045V21.9979V21.9912V21.9846V21.978V21.9713V21.9647V21.9581V21.9515V21.9448V21.9382V21.9316V21.9249V21.9183V21.9117V21.9051V21.8984V21.8918V21.8852V21.8785V21.8719V21.8653V21.8587V21.852V21.8454V21.8388V21.8322V21.8255V21.8189V21.8123V21.8057V21.7991V21.7924V21.7858V21.7792V21.7726V21.766V21.7593V21.7527V21.7461V21.7395V21.7329V21.7262V21.7196V21.713V21.7064V21.6998V21.6931V21.6865V21.6799V21.6733V21.6667V21.6601V21.6534V21.6468V21.6402V21.6336V21.627V21.6204V21.6138V21.6072V21.6005V21.5939V21.5873V21.5807V21.5741V21.5675V21.5609V21.5543V21.5476V21.541V21.5344V21.5278V21.5212V21.5146V21.508V21.5014V21.4948V21.4882V21.4816V21.4749V21.4683V21.4617V21.4551V21.4485V21.4419V21.4353V21.4287V21.4221V21.4155V21.4089V21.4023V21.3957V21.3891V21.3825V21.3759V21.3693V21.3627V21.3561V21.3495V21.3429V21.3362V21.3296V21.323V21.3164V21.3098V21.3032V21.2966V21.29V21.2834V21.2768V21.2702V21.2636V21.257V21.2504V21.2438V21.2372V21.2307V21.2241V21.2175V21.2109V21.2043V21.1977V21.1911V21.1845V21.1779V21.1713V21.1647V21.1581V21.1515V21.1449V21.1383V21.1317V21.1251V21.1185V21.1119V21.1053V21.0987V21.0921V21.0856V21.079V21.0724V21.0658V21.0592V21.0526V21.046V21.0394V21.0328V21.0262V21.0196V21.013V21.0065V20.9999V20.9933V20.9867V20.9801V20.9735V20.9669V20.9603V20.9537V20.9471V20.9406V20.934V20.9274V20.9208V20.9142V20.9076V20.901V20.8944V20.8879V20.8813V20.8747V20.8681V20.8615V20.8549V20.8483V20.8418V20.8352V20.8286V20.822V20.8154V20.8088V20.8022V20.7957V20.7891V20.7825V20.7759V20.7693V20.7627V20.7562V20.7496V20.743V20.7364V20.7298V20.7232V20.7167V20.7101V20.7035V20.6969V20.6903V20.6838V20.6772V20.6706V20.664V20.6574V20.6508V20.6443V20.6377V20.6311V20.6245V20.6179V20.6114V20.6048V20.5982V20.5916V20.585V20.5785V20.5719V20.5653V20.5587V20.5522V20.5456V20.539V20.5324V20.5258V20.5193V20.5127V20.5061V20.4995V20.493V20.4864V20.4798V20.4732V20.4666V20.4601V20.4535V20.4469V20.4403V20.4338V20.4272V20.4206V20.414V20.4075V20.4009V20.3943V20.3877V20.3812V20.3746V20.368V20.3614V20.3549V20.3483V20.3417V20.3351V20.3286V20.322V20.3154V20.3088V20.3023V20.2957V20.2891V20.2825V20.276V20.2694V20.2628V20.2563V20.2497V20.2431V20.2365V20.23V20.2234V20.2168V20.2102V20.2037V20.1971V20.1905V20.184V20.1774V20.1708V20.1642V20.1577V20.1511V20.1445V20.1379V20.1314V20.1248V20.1182V20.1117V20.1051V20.0985V20.092V20.0854V20.0788V20.0722V20.0657V20.0591V20.0555H20.8333V22.611H11.1666Z" stroke="black"/>
<path d="M22.2223 19.5836V23.0899C22.2547 23.0975 22.2795 23.1093 22.3048 23.1093C23.3361 23.1102 24.3668 23.1127 25.3981 23.1093C25.6588 23.1093 25.7748 22.918 25.7759 22.4988C25.778 21.7063 25.7791 20.9129 25.7753 20.1204C25.7737 19.7597 25.6534 19.5582 25.43 19.5573C24.3787 19.5531 23.3275 19.5573 22.2762 19.559C22.2638 19.559 22.2514 19.57 22.2223 19.5836Z" fill="black"/>
<path d="M26.1967 16.6144C26.1967 17.1489 26.1979 17.6833 26.196 18.2172C26.1948 18.4983 26.0573 18.668 25.8323 18.675C25.5985 18.6825 25.4473 18.5064 25.4473 18.2159C25.4454 17.2099 25.4473 16.2044 25.446 15.1984C25.4448 14.3193 24.9017 13.7729 24.0285 13.7716C23.1773 13.7704 22.3254 13.7792 21.4742 13.7685C20.5135 13.7565 19.681 13.063 19.4929 12.138C19.2942 11.1621 19.7635 10.1976 20.6654 9.81465C20.9448 9.6958 21.266 9.66185 21.5723 9.62664C21.896 9.58891 22.2329 9.63544 22.551 9.57445C23.2048 9.44869 23.6335 8.82304 23.5654 8.16532C23.4967 7.50635 22.9523 6.99451 22.2885 6.98257C21.7498 6.97251 21.2104 6.98131 20.6717 6.97942C20.3723 6.97879 20.2023 6.8436 20.1973 6.60969C20.1923 6.36761 20.3679 6.22173 20.6798 6.22613C21.3273 6.23493 21.9823 6.19029 22.6204 6.2758C23.676 6.41728 24.4035 7.40889 24.3154 8.4728C24.2285 9.52477 23.3598 10.3485 22.306 10.3736C22.0329 10.3799 21.7592 10.3711 21.486 10.3774C20.7648 10.3944 20.1967 10.9773 20.196 11.6947C20.1954 12.4128 20.7623 13.0045 21.4829 13.0139C22.3267 13.0246 23.1704 13.0165 24.0142 13.0171C25.3248 13.0183 26.1954 13.8993 26.1973 15.2235C26.1973 15.6869 26.1973 16.151 26.1973 16.6144H26.1967Z" fill="black"/>
<path d="M15.9629 11.508C16.1192 11.508 16.2754 11.5024 16.4317 11.5093C16.6573 11.5194 16.8098 11.6684 16.8167 11.8734C16.8235 12.0865 16.6654 12.25 16.431 12.2607C16.0729 12.2771 15.7079 12.2469 15.3567 12.3053C14.3973 12.4651 13.7429 13.3416 13.8229 14.3093C13.9023 15.2701 14.7004 16.0284 15.671 16.0328C17.7179 16.0423 19.7648 16.0341 21.8123 16.0372C23.0673 16.0391 23.966 16.9641 23.946 18.2229C23.9417 18.5015 23.8029 18.6719 23.5773 18.6763C23.3504 18.6807 23.2029 18.5103 23.196 18.2361C23.1717 17.2936 22.661 16.7918 21.7254 16.7912C19.7254 16.7912 17.7254 16.7956 15.7248 16.7893C14.4529 16.7855 13.4035 15.9417 13.1285 14.7205C12.7704 13.1291 13.9667 11.5671 15.5879 11.5118C15.7129 11.5074 15.8379 11.5118 15.9629 11.5118C15.9629 11.5112 15.9629 11.5099 15.9629 11.5093V11.508Z" fill="black"/>
<path d="M9.77782 19.5836V23.0899C9.73734 23.0975 9.70632 23.1093 9.67461 23.1093C8.38552 23.1102 7.09711 23.1127 5.80802 23.1093C5.4822 23.1093 5.33717 22.918 5.33582 22.4988C5.33313 21.7063 5.33178 20.9129 5.3365 20.1204C5.33852 19.7597 5.48895 19.5582 5.76822 19.5573C7.08227 19.5531 8.39631 19.5573 9.71036 19.559C9.72588 19.559 9.74139 19.57 9.77782 19.5836Z" fill="black"/>
<path d="M18.8792 6.22485C19.2648 6.22485 19.4404 6.34181 19.4423 6.59961C19.4442 6.85616 19.2629 6.9794 18.8836 6.9794C18.4998 6.9794 18.3223 6.86119 18.3211 6.60401C18.3198 6.34621 18.4986 6.22485 18.8798 6.22485H18.8792Z" fill="black"/>
<path d="M18.1167 12.2588C18.0467 12.2588 17.9748 12.2682 17.9061 12.2569C17.7036 12.2236 17.5842 12.1016 17.5717 11.8935C17.5598 11.6985 17.7073 11.5319 17.9111 11.5124C18.0348 11.5005 18.1611 11.5042 18.2855 11.5086C18.5273 11.5168 18.6861 11.6627 18.6911 11.8752C18.6967 12.0959 18.5323 12.2512 18.2798 12.2613C18.2255 12.2632 18.1705 12.2613 18.1161 12.2613C18.1161 12.26 18.1161 12.2594 18.1161 12.2582L18.1167 12.2588Z" fill="black"/>
</g>
<g clip-path="url(#clip1_511_5610)">
<path fill-rule="evenodd" clip-rule="evenodd" d="M19.6842 0.520612C25.8139 1.92165 30.6371 7.05325 31.6759 13.2568C31.9956 15.6731 31.9147 17.0283 31.5375 19.4445C30.2608 25.6157 24.9841 30.6653 18.7723 31.6725C16.2359 31.9038 14.8819 31.8889 12.6177 31.5482C6.44648 30.3129 1.33062 25.0031 0.329999 18.8054C-0.0370986 16.411 -0.037382 15.1005 0.398809 12.8307C1.59259 6.53429 6.89249 1.37035 13.2245 0.32911C15.5529 -0.0624049 16.9708 -0.0113587 19.6842 0.520612ZM26.6172 25.2236C29.6664 21.4864 30.8361 17.2485 29.5893 12.5521C28.1327 7.06735 24.519 3.57802 18.9911 2.29885C14.4448 1.24683 10.3578 2.4373 6.77394 5.38942L6.79613 5.41161C8.01525 6.63073 9.19947 7.81495 10.4017 9.01636L26.6172 25.2236ZM2.6272 20.2412C0.965856 15.3733 2.37435 10.1604 5.46244 6.74984C7.947 9.24683 22.5451 23.8665 25.0371 26.3561C25.0749 26.3943 25.1193 26.4256 25.1783 26.4671C25.21 26.4895 25.246 26.5149 25.2875 26.5459C22.1207 29.2128 18.5335 30.4663 14.4937 29.9465C8.57539 29.1847 4.55466 25.8893 2.6272 20.2412Z" fill="black"/>
</g>
<defs>
<clipPath id="clip0_511_5610">
<rect width="24" height="16.8889" fill="white" transform="translate(4.44446 6.22217)"/>
</clipPath>
<clipPath id="clip1_511_5610">
<rect width="32" height="32" fill="white"/>
</clipPath>
</defs>
</svg>
