<svg width="52" height="52" viewBox="0 0 52 52" fill="none" xmlns="http://www.w3.org/2000/svg">
<path d="M45.272 16.9822C44.1899 15.9384 42.2792 15.434 39.8128 15.5391C37.7799 15.6254 35.8193 16.0613 33.3795 16.9642C33.3372 17.7213 32.771 18.21 31.753 18.1808C31.7317 18.3137 31.7762 18.8293 31.2623 18.6771C31.0957 18.916 30.4005 19.9166 29.3407 19.6196C29.4585 19.8996 29.3721 20.6885 28.3808 20.8068C28.573 21.2441 27.9131 22.2744 26.4981 22.1999C26.6029 22.7103 26.4614 23.5648 25.3967 23.5911C25.0675 24.4946 23.5413 24.921 23.0766 24.6335C22.389 25.3433 20.8484 25.6025 20.3944 24.7338C20.1628 24.9784 18.9346 25.6037 18.4092 24.9377C17.7371 25.5011 17.1702 25.2224 16.8691 24.9863C10.7552 27.9984 7.26763 28.7438 7.26763 28.7438L6.29994 28.9723C6.29994 28.9723 5.33364 27.8061 3.94918 28.2484C2.3098 28.7735 1.58638 31.9432 3.17903 35.4887C3.42267 35.9263 3.70556 36.2763 4.01375 36.5398C3.91123 36.1649 3.90856 35.6457 4.47421 35.3677C4.15783 34.1408 5.29306 33.7387 6.21832 33.8321C6.21832 33.8321 6.83088 33.1756 7.4707 33.3778C7.74482 32.7037 9.02336 32.9865 9.34821 33.389C9.73558 33.0514 10.0579 33.3699 10.2699 33.4406C10.3781 32.3081 12.1628 31.6769 13.1473 32.4577C13.8164 31.5343 14.7035 32.1083 14.7035 32.1083C15.0096 30.8277 16.3937 30.9236 16.9622 31.2209C17.6461 30.4693 18.3472 30.8394 18.654 31.0329C18.7817 30.0719 19.8547 29.9794 20.1164 30.0832C19.9587 29.231 21.1591 28.6081 21.7957 28.7731C21.9615 27.3315 24.0157 26.4618 24.9976 26.7234C25.3823 25.8666 26.3804 25.8274 26.721 25.9243C27.1133 25.1558 29.3216 24.6612 29.9678 25.8596C30.7941 25.077 31.6042 25.4096 31.8738 25.9854C34.6336 24.6149 36.7956 23.909 39.3419 23.5912C39.592 23.5602 39.8327 23.5301 40.0591 23.4965C40.0816 23.1062 40.2794 22.1439 41.7465 22.4432C42.208 21.6079 42.8496 21.7771 43.2771 21.9041C43.0656 20.5371 44.6201 19.8415 45.3081 20.7649C45.3534 20.6393 45.3983 20.5091 45.4424 20.3696C45.8928 18.9175 45.687 17.7794 45.2623 16.9784L45.272 16.9822Z" fill="#C04148"/>
<path d="M4.02907 36.604C4.02907 36.604 3.99616 36.6022 3.98567 36.5891C3.66234 36.3128 3.37867 35.9535 3.13543 35.5206C2.16318 33.3629 1.96649 31.0821 2.61643 29.5567C2.91986 28.8426 3.37963 28.3678 3.93975 28.1884C4.09448 28.1376 4.25547 28.105 4.40875 28.0918C5.45854 28.0013 6.18199 28.7391 6.32727 28.9044L7.26325 28.688C7.30041 28.6848 10.8181 27.9088 16.8511 24.9364C16.8736 24.9251 16.8976 24.9324 16.9174 24.9447C17.0885 25.0844 17.3639 25.2385 17.6983 25.2096C17.9259 25.19 18.1556 25.086 18.3781 24.8983C18.4044 24.8773 18.4466 24.8784 18.468 24.9093C18.6308 25.1152 18.887 25.2101 19.2214 25.1812C19.7092 25.1392 20.231 24.8415 20.3595 24.704C20.3723 24.6889 20.3951 24.6823 20.4141 24.6853C20.4327 24.6837 20.4528 24.7007 20.4591 24.7188C20.6503 25.0908 21.0825 25.2734 21.6492 25.2246C22.1695 25.1797 22.7147 24.9361 23.0413 24.5991C23.0629 24.5785 23.0908 24.5761 23.1156 24.5927C23.2242 24.6582 23.4043 24.6848 23.6273 24.6656C24.2962 24.6079 25.1208 24.1858 25.3448 23.5815C25.3521 23.5575 25.3737 23.5369 25.402 23.5392C25.8128 23.5271 26.1008 23.3947 26.2848 23.1401C26.4853 22.8608 26.4993 22.4805 26.4444 22.2232C26.4428 22.2046 26.4412 22.1861 26.4581 22.1659C26.4709 22.1507 26.4887 22.1398 26.5076 22.1429C26.625 22.1468 26.7465 22.1457 26.858 22.1361C27.5919 22.0728 28.0547 21.6866 28.2454 21.3472C28.3505 21.1557 28.3856 20.9655 28.3279 20.8394C28.3217 20.8212 28.3243 20.7976 28.332 20.7782C28.3397 20.7588 28.3575 20.7479 28.3807 20.7459C28.8858 20.6883 29.1178 20.4484 29.2234 20.2615C29.3566 20.016 29.3396 19.7648 29.2924 19.6518C29.2812 19.6294 29.288 19.6007 29.3008 19.5856C29.3178 19.5654 29.3406 19.5588 29.3646 19.5661C29.5277 19.6128 29.6881 19.6271 29.846 19.6135C30.343 19.5706 30.8063 19.2452 31.2181 18.6481C31.2351 18.6279 31.2622 18.6162 31.2862 18.6235C31.3536 18.6458 31.4148 18.6499 31.4659 18.6455C31.6517 18.6294 31.6775 18.44 31.694 18.2514C31.6916 18.2236 31.6985 18.1949 31.7015 18.1759C31.708 18.1426 31.7343 18.1216 31.7625 18.1238C32.6961 18.151 33.2811 17.7168 33.3242 16.969C33.3222 16.9458 33.3435 16.9206 33.3663 16.9139C35.8238 16 37.7574 15.5759 39.8177 15.4825C42.3213 15.3742 44.2227 15.8794 45.3203 16.9406C45.3207 16.9453 45.3308 16.9538 45.3312 16.9584C45.694 17.6384 46.0179 18.7898 45.5157 20.4007C45.4716 20.5402 45.4267 20.6705 45.3818 20.8007C45.3745 20.8247 45.3571 20.8403 45.3339 20.8423C45.3107 20.8443 45.2913 20.8366 45.2757 20.8192C45.0689 20.5375 44.7623 20.4002 44.4139 20.4302C44.0934 20.4579 43.7857 20.6342 43.584 20.8996C43.4417 21.0943 43.2827 21.4216 43.3514 21.893C43.3522 21.9023 43.3526 21.9069 43.3534 21.9162C43.3566 21.9534 43.3265 21.984 43.294 21.9869C43.2894 21.9873 43.2801 21.9881 43.2708 21.9889C43.0689 21.9267 42.8488 21.8708 42.6258 21.89C42.2914 21.9189 42.0233 22.1198 41.8126 22.4983C41.8006 22.5228 41.7736 22.5345 41.7449 22.5276C41.502 22.4783 41.2855 22.4642 41.0951 22.4807C40.3054 22.5488 40.1523 23.1609 40.132 23.523C40.1348 23.5555 40.109 23.5812 40.0765 23.584C39.845 23.6133 39.6089 23.643 39.3593 23.6786C36.8501 23.9932 34.6916 24.6848 31.914 26.0661C31.8827 26.0829 31.8443 26.0721 31.8318 26.0358C31.6596 25.6669 31.2858 25.4558 30.8863 25.4903C30.5983 25.5151 30.2979 25.6673 30.021 25.9299C30.0083 25.945 29.9851 25.947 29.9707 25.9436C29.9518 25.9405 29.9366 25.9278 29.9257 25.91C29.547 25.208 28.6715 25.2039 28.3139 25.2348C27.631 25.2937 26.9753 25.6123 26.7913 25.9744C26.7793 25.9989 26.748 26.0156 26.7189 26.0041C26.6039 25.9719 26.4389 25.958 26.267 25.9728C26.0022 25.9957 25.3575 26.1168 25.0671 26.7642C25.0555 26.7933 25.0238 26.8054 24.9952 26.7985C24.8371 26.756 24.6489 26.7441 24.4352 26.7626C22.9023 26.8948 21.9612 28.0288 21.8729 28.7945C21.8745 28.8131 21.8617 28.8283 21.8486 28.8388C21.8355 28.8492 21.8169 28.8508 21.7979 28.8478C21.7068 28.8229 21.6034 28.8178 21.492 28.8274C21.06 28.8646 20.5953 29.12 20.3566 29.4447C20.21 29.6446 20.1576 29.8503 20.1903 30.0674C20.1911 30.0767 20.1915 30.0814 20.1923 30.0907C20.1955 30.1278 20.1701 30.1581 20.1329 30.1613C20.1236 30.1621 20.1143 30.1629 20.1046 30.1591C20.0511 30.1356 19.9419 30.1169 19.7793 30.1309C19.3241 30.1702 18.8087 30.4346 18.7265 31.0547C18.7239 31.0783 18.7111 31.0935 18.6934 31.1044C18.6756 31.1153 18.6516 31.108 18.6322 31.1003C18.4348 30.9816 18.1354 30.8202 17.7916 30.8499C17.5129 30.8739 17.2539 31.0179 17.0189 31.2768C17.0019 31.297 16.9698 31.3045 16.9454 31.2925C16.6856 31.1558 16.3055 31.0903 15.9711 31.1192C15.6088 31.1504 14.9685 31.3226 14.7769 32.1394C14.7738 32.1584 14.7564 32.1739 14.7387 32.1848C14.7205 32.191 14.6968 32.1884 14.6821 32.1803C14.6821 32.1803 14.3753 31.9868 14.0037 32.0189C13.6971 32.0453 13.4308 32.2133 13.2091 32.5179C13.201 32.5327 13.1828 32.5389 13.1689 32.5401C13.1503 32.5417 13.1364 32.5429 13.1208 32.5255C12.8045 32.2767 12.3826 32.1587 11.9227 32.1983C11.212 32.2596 10.4146 32.7262 10.3424 33.4624C10.344 33.481 10.3316 33.5008 10.3135 33.507C10.3003 33.5175 10.2771 33.5195 10.2624 33.5114C10.2093 33.4926 10.1554 33.4645 10.0968 33.4368C9.97428 33.3725 9.8374 33.3047 9.68876 33.3175C9.59121 33.326 9.49688 33.3715 9.4007 33.45C9.37443 33.471 9.33687 33.4696 9.31124 33.4437C9.13792 33.2247 8.60957 33.0128 8.13578 33.0537C7.9221 33.0721 7.64821 33.1519 7.53978 33.414C7.52825 33.443 7.49693 33.4598 7.46321 33.4486C7.3671 33.4195 7.25828 33.4055 7.15144 33.4147C6.67764 33.4555 6.27425 33.8787 6.27001 33.8838C6.25727 33.8989 6.23909 33.9052 6.22011 33.9021C6.06441 33.8875 5.90993 33.8868 5.75664 33.9C5.25497 33.9432 4.85054 34.1372 4.64696 34.4356C4.48079 34.6792 4.44684 34.991 4.53928 35.3574C4.54632 35.3848 4.5352 35.4186 4.50348 35.4307C3.98732 35.6857 3.98092 36.1543 4.07255 36.5114C4.07335 36.5207 4.0788 36.5295 4.0796 36.5388C4.08281 36.576 4.05734 36.6063 4.02482 36.6091L4.02907 36.604ZM4.41997 28.2219C4.27133 28.2347 4.12429 28.2661 3.9738 28.3118C3.44539 28.4791 3.01614 28.9279 2.72848 29.6079C2.09431 31.0992 2.29243 33.3424 3.2429 35.4645C3.43712 35.8174 3.6645 36.1207 3.91958 36.3655C3.85166 35.9034 4.02176 35.5424 4.40641 35.3361C4.31702 34.9507 4.3637 34.6238 4.54181 34.3557C4.76581 34.0229 5.19266 33.8176 5.74078 33.7703C5.88942 33.7575 6.04391 33.7582 6.1996 33.7729C6.29459 33.6804 6.67571 33.3247 7.13557 33.285C7.24241 33.2758 7.34156 33.286 7.44191 33.3101C7.55819 33.0848 7.78972 32.9478 8.11488 32.9198C8.5608 32.8813 9.10956 33.0586 9.35576 33.3088C9.45699 33.2346 9.56102 33.1928 9.66786 33.1836C9.85366 33.1676 10.0154 33.2519 10.1425 33.3158C10.172 33.332 10.1964 33.344 10.2209 33.3559C10.3472 32.5963 11.1675 32.1231 11.9014 32.0598C12.3659 32.0197 12.8014 32.1319 13.1359 32.3745C13.372 32.0734 13.6568 31.9037 13.9773 31.8761C14.2839 31.8496 14.5409 31.9538 14.6588 32.0185C14.8918 31.1935 15.5596 31.0143 15.9451 30.981C16.3539 30.9458 16.7177 31.0408 16.9469 31.1474C17.1959 30.8872 17.4734 30.7416 17.7707 30.716C18.1052 30.6871 18.3971 30.8164 18.6085 30.9339C18.7367 30.3051 19.2749 30.0341 19.758 29.9924C19.8648 29.9832 19.9632 29.9841 20.0442 30.0005C20.0249 29.7775 20.0948 29.5562 20.2413 29.3564C20.5009 29.0018 21.0015 28.7293 21.466 28.6892C21.5682 28.6804 21.6619 28.6817 21.7475 28.6977C21.9372 27.4787 23.4059 26.7109 24.4139 26.624C24.6183 26.6064 24.8061 26.6136 24.9684 26.6511C25.2948 25.9865 25.9716 25.8579 26.2504 25.8339C26.4129 25.8199 26.5729 25.8295 26.6968 25.8562C26.9304 25.4711 27.5908 25.1521 28.2968 25.0912C29.0725 25.0243 29.6835 25.2711 29.9927 25.7639C30.2754 25.5149 30.5808 25.3668 30.8735 25.3416C31.3055 25.3044 31.7033 25.5228 31.9139 25.9024C34.683 24.5311 36.8372 23.8446 39.3465 23.5299C39.5779 23.5006 39.8001 23.4721 40.0129 23.4444C40.0441 23.1001 40.2187 22.4112 41.0873 22.3363C41.2777 22.3198 41.4942 22.3339 41.7274 22.3793C41.9555 21.9853 42.2465 21.7777 42.6134 21.746C42.8271 21.7276 43.0274 21.7712 43.2146 21.8252C43.1687 21.3472 43.3319 21.0149 43.4831 20.8147C43.7056 20.5194 44.0493 20.326 44.3976 20.2959C44.746 20.2659 45.0658 20.3927 45.2985 20.6488C45.3327 20.5569 45.3614 20.4562 45.3952 20.3596C45.8782 18.7971 45.5718 17.6864 45.2249 17.0284C44.1533 15.9977 42.281 15.504 39.8196 15.6133C37.7821 15.7001 35.8718 16.1223 33.4409 17.0198C33.3773 17.8021 32.7762 18.2657 31.8113 18.2554C31.8021 18.4199 31.7791 18.7495 31.4725 18.7759C31.4214 18.7803 31.3602 18.7763 31.2932 18.7586C30.8636 19.3666 30.3775 19.6987 29.8526 19.7439C29.7132 19.7559 29.5769 19.749 29.434 19.7192C29.467 19.8848 29.4448 20.116 29.3277 20.332C29.2141 20.5337 28.974 20.7884 28.4662 20.8696C28.5031 21.0255 28.4638 21.2208 28.3544 21.4174C28.1475 21.7862 27.65 22.2035 26.8696 22.2708C26.7767 22.2788 26.6788 22.2826 26.5804 22.2817C26.6116 22.4802 26.6275 22.8813 26.3853 23.2204C26.1894 23.4993 25.8747 23.6482 25.4457 23.6664C25.1639 24.3599 24.228 24.7401 23.6381 24.791C23.4755 24.805 23.2556 24.8053 23.0943 24.7256C22.7449 25.0692 22.1993 25.3082 21.6604 25.3546C21.0798 25.4047 20.6193 25.2198 20.3909 24.8511C20.1901 25.0181 19.7018 25.2708 19.2327 25.3113C18.8843 25.3413 18.6048 25.2484 18.4137 25.0403C18.1858 25.2191 17.9515 25.3235 17.7099 25.3443C17.3569 25.3748 17.063 25.2223 16.8725 25.0749C10.8436 28.0423 7.32557 28.8136 7.29345 28.8211L6.32535 29.045C6.30213 29.047 6.2785 29.0443 6.26256 29.0223C6.25711 29.0134 5.51196 28.1324 4.42037 28.2265L4.41997 28.2219Z" fill="#821B25"/>
<g style="mix-blend-mode:multiply" opacity="0.5">
<path d="M45.2726 16.9821C44.1905 15.9383 42.2799 15.4339 39.8134 15.5389C37.7805 15.6253 35.8199 16.0612 33.3802 16.9641C33.3378 17.7212 32.7716 18.2099 31.7536 18.1807C31.7323 18.3136 31.7768 18.8292 31.2629 18.677C31.0964 18.9159 30.4012 19.9165 29.3414 19.6195C29.4591 19.8995 29.3727 20.6884 28.3814 20.8067C28.5736 21.244 27.9137 22.2743 26.4987 22.1998C26.6036 22.7102 26.462 23.5647 25.3973 23.591C25.0681 24.4945 23.5419 24.9209 23.0772 24.6334C22.3897 25.3432 20.849 25.6024 20.3951 24.7337C20.1635 24.9783 18.9352 25.6036 18.4098 24.9376C17.7377 25.501 17.1708 25.2223 16.8697 24.9862C10.7558 27.9983 7.26826 28.7437 7.26826 28.7437L6.30058 28.9722C6.30058 28.9722 5.33428 27.806 3.94982 28.2483C2.9754 28.5617 2.3204 29.8115 2.2901 31.5221C3.61411 31.4641 4.93394 31.3035 6.23448 31.0275C8.19709 30.615 10.1223 29.9856 11.9427 29.1174C12.8281 28.6947 13.6708 28.2102 14.5173 27.7161C15.324 27.2487 16.1675 26.7736 17.076 26.5642C17.769 26.4061 18.6182 26.3235 19.2682 26.698C19.7507 26.9746 19.8748 27.6003 19.68 28.1085C19.2761 29.1775 17.8504 29.1414 16.916 29.2126C16.9424 29.5192 16.9278 29.8386 16.7191 30.0766C16.5234 30.304 16.1843 30.3333 15.9117 30.3194C15.428 30.3002 14.9168 30.1244 14.4369 30.2032C13.7353 30.3152 13.28 30.8411 12.7088 31.218C12.4166 31.4116 12.0938 31.5752 11.7432 31.6335C11.3558 31.6997 10.9845 31.5726 10.6106 31.4691C10.0832 31.3227 9.60962 31.3121 9.15217 31.651C8.86626 31.8629 8.61304 32.128 8.31079 32.3132C7.56832 32.7656 6.65668 32.8302 5.81592 32.9027C4.84975 32.9861 3.90471 33.1518 2.98219 33.47C2.83676 33.52 2.68707 33.575 2.54204 33.6296C2.68701 34.2255 2.89517 34.8486 3.17886 35.4793C3.4225 35.9169 3.7054 36.2669 4.01358 36.5304C3.91106 36.1555 3.90839 35.6363 4.47404 35.3583C4.15766 34.1314 5.29289 33.7293 6.21815 33.8227C6.21815 33.8227 6.83071 33.1662 7.47054 33.3684C7.74466 32.6943 9.02319 32.9771 9.34804 33.3796C9.73541 33.042 10.0577 33.3605 10.2697 33.4312C10.3779 32.2987 12.1626 31.6675 13.1471 32.4483C13.8162 31.5249 14.7034 32.0989 14.7034 32.0989C15.0094 30.8183 16.3935 30.9142 16.962 31.2115C17.6459 30.4599 18.347 30.83 18.6538 31.0235C18.7815 30.0625 19.8546 29.97 20.1162 30.0738C19.9585 29.2216 21.1589 28.5987 21.7955 28.7637C21.9613 27.3221 24.0156 26.4524 24.9975 26.714C25.3822 25.8572 26.3802 25.818 26.7208 25.9149C27.1132 25.1464 29.3214 24.6518 29.9676 25.8502C30.7939 25.0676 31.6041 25.4002 31.8737 25.976C34.6334 24.6055 36.7954 23.8996 39.3418 23.5818C39.5918 23.5508 39.8326 23.5207 40.059 23.4872C40.0815 23.0968 40.2792 22.1345 41.7464 22.4338C42.2078 21.5985 42.8495 21.7678 43.2769 21.8947C43.0654 20.5278 44.6199 19.8321 45.3079 20.7555C45.3532 20.6299 45.3981 20.4997 45.4423 20.3602C45.8926 18.9081 45.6869 17.77 45.2621 16.969L45.2726 16.9821ZM42.3535 20.3037C41.6102 20.4754 40.7782 20.2149 40.0623 20.4872C39.4098 20.7354 39.1428 21.3293 38.7596 21.8771C38.3848 22.4148 37.8719 22.8709 37.2214 22.9784C36.594 23.084 36.0637 22.849 35.5065 22.5741C34.954 22.2989 34.2395 21.9908 33.6469 22.3367C33.0992 22.6601 32.83 23.2823 32.386 23.723C31.5888 24.5171 29.8341 24.6825 29.084 23.6896C28.2239 22.5611 29.6067 21.3936 30.5145 20.9596C30.9414 20.7544 31.3862 20.5943 31.8013 20.362C32.5157 19.9635 33.1817 19.4381 33.7321 18.8197C33.6316 18.9032 33.5258 18.9779 33.4304 19.0656C34.141 18.4615 34.7297 17.6901 35.5678 17.2622C37.2709 16.39 39.6947 16.3868 41.4965 16.8772C42.2199 17.0722 43.3863 17.4115 43.6776 18.2381C43.9754 19.0875 43.12 20.1299 42.3582 20.3033L42.3535 20.3037Z" fill="#C04148"/>
</g>
<path d="M29.9742 25.8588C29.328 24.6604 27.1197 25.155 26.7274 25.9235C26.3864 25.8219 25.3887 25.8658 25.004 26.7226C24.0221 26.461 21.9726 27.3303 21.8021 28.7723C21.1612 28.6123 19.9655 29.2349 20.1228 30.0823C19.8654 29.9735 18.7877 30.0664 18.6604 31.0321C18.354 30.8432 17.6525 30.4685 16.9686 31.2201C16.4001 30.9228 15.016 30.8269 14.71 32.1074C14.71 32.1074 13.8275 31.5331 13.1537 32.4569C12.1692 31.6761 10.3892 32.3069 10.2763 33.4398C10.0596 33.3695 9.74239 33.0553 9.35462 33.3882C9.02977 32.9857 7.75124 32.7029 7.47712 33.377C6.83265 33.1752 6.22472 33.8313 6.22472 33.8313C5.29946 33.7379 4.16888 34.1396 4.48062 35.3668C3.91497 35.6449 3.91762 36.1641 4.02015 36.539C5.1768 37.5249 6.66739 37.2279 7.45435 35.2835C7.45435 35.2835 15.3416 35.3615 25.7154 29.4363C28.1725 27.9749 30.1435 26.8456 31.8803 25.9845C31.606 25.4092 30.8005 25.0762 29.9742 25.8588Z" fill="#FFEA91"/>
<path d="M5.52276 37.1443C4.99787 37.1895 4.46648 36.9967 3.9817 36.5846C3.9716 36.5761 3.96575 36.5625 3.96031 36.5537C3.81429 36 3.97374 35.5698 4.40709 35.3312C4.3177 34.9458 4.36398 34.6142 4.54249 34.3508C4.76648 34.018 5.19334 33.8127 5.74146 33.7654C5.8901 33.7526 6.04459 33.7533 6.20028 33.768C6.29526 33.6756 6.67639 33.3198 7.13625 33.2801C7.24309 33.2709 7.34223 33.2811 7.44259 33.3052C7.55887 33.0799 7.7904 32.943 8.11555 32.9149C8.56148 32.8765 9.11024 33.0538 9.35644 33.3039C9.45767 33.2297 9.5617 33.188 9.66854 33.1788C9.85434 33.1627 10.016 33.2471 10.1432 33.311C10.1727 33.3271 10.1971 33.3391 10.2215 33.351C10.3479 32.5914 11.1682 32.1182 11.9021 32.0549C12.3666 32.0148 12.8021 32.127 13.1365 32.3696C13.3726 32.0685 13.6575 31.8988 13.978 31.8712C14.2846 31.8448 14.5416 31.9489 14.6595 32.0136C14.8925 31.1887 15.5603 31.0094 15.9458 30.9762C16.3546 30.9409 16.7184 31.0359 16.9476 31.1425C17.1965 30.8823 17.4741 30.7367 17.7714 30.7111C18.1059 30.6823 18.3978 30.8115 18.6091 30.929C18.7374 30.3002 19.2756 30.0292 19.7587 29.9875C19.8655 29.9783 19.9639 29.9792 20.0448 29.9956C20.0256 29.7726 20.0955 29.5513 20.242 29.3515C20.5016 28.9969 21.0022 28.7244 21.4667 28.6844C21.5689 28.6755 21.6626 28.6768 21.7482 28.6928C21.9379 27.4738 23.4066 26.7061 24.4146 26.6191C24.6189 26.6015 24.8067 26.6087 24.9691 26.6462C25.2955 25.9816 25.9723 25.853 26.251 25.829C26.4136 25.815 26.5735 25.8246 26.6975 25.8513C26.931 25.4662 27.5914 25.1472 28.2975 25.0863C29.0732 25.0194 29.6841 25.2662 29.9934 25.759C30.2761 25.51 30.5815 25.362 30.8742 25.3367C31.3247 25.2979 31.7436 25.5425 31.943 25.9559C31.9489 25.9694 31.9505 25.988 31.9474 26.007C31.944 26.0213 31.9313 26.0364 31.9177 26.0423C30.3561 26.818 28.5126 27.8521 25.7575 29.4936C17.7207 34.0848 11.1329 35.0741 8.67103 35.2864C8.03466 35.3413 7.63278 35.3478 7.50656 35.3494C7.05282 36.4367 6.35462 37.0772 5.53245 37.1481L5.52276 37.1443ZM4.07748 36.5014C4.52654 36.8792 5.02381 37.0563 5.51154 37.0142C6.29656 36.9465 6.96807 36.3224 7.40019 35.2556C7.41212 35.2311 7.43415 35.2152 7.45778 35.2179C7.45778 35.2179 7.88873 35.2228 8.65517 35.1567C11.1078 34.9452 17.6724 33.9579 25.6917 29.3823C28.4155 27.7575 30.2506 26.7336 31.8029 25.9586C31.6199 25.6281 31.2663 25.4339 30.8854 25.4668C30.5974 25.4916 30.297 25.6439 30.0201 25.9064C30.0074 25.9216 29.9842 25.9236 29.9698 25.9201C29.9508 25.9171 29.9357 25.9043 29.9248 25.8866C29.5461 25.1845 28.6706 25.1805 28.3129 25.2113C27.6301 25.2702 26.9744 25.5888 26.7903 25.951C26.7784 25.9754 26.7471 25.9921 26.718 25.9806C26.6029 25.9484 26.438 25.9346 26.2661 25.9494C26.0013 25.9722 25.3566 26.0933 25.0662 26.7408C25.0546 26.7698 25.0229 26.7819 24.9942 26.775C24.8361 26.7325 24.6479 26.7207 24.4343 26.7391C22.9014 26.8713 21.9603 28.0054 21.8719 28.7711C21.8735 28.7897 21.8608 28.8048 21.8477 28.8153C21.8345 28.8258 21.8159 28.8274 21.797 28.8243C21.7059 28.7994 21.6025 28.7943 21.491 28.8039C21.059 28.8412 20.5944 29.0965 20.3556 29.4213C20.2048 29.6262 20.1532 29.8412 20.191 30.0626C20.193 30.0858 20.1857 30.1098 20.1683 30.1253C20.151 30.1409 20.1277 30.1429 20.1037 30.1356C20.0553 30.1164 19.941 30.0935 19.7784 30.1075C19.3232 30.1468 18.8078 30.4111 18.7256 31.0313C18.7229 31.0549 18.7102 31.07 18.6924 31.0809C18.6747 31.0918 18.6506 31.0845 18.6312 31.0768C18.4338 30.9581 18.1345 30.7968 17.7907 30.8264C17.512 30.8505 17.253 30.9945 17.018 31.2534C17.001 31.2736 16.9689 31.281 16.9444 31.2691C16.7482 31.1643 16.3743 31.0609 15.9702 31.0957C15.6079 31.127 14.9676 31.2992 14.7759 32.1159C14.7729 32.1349 14.7555 32.1504 14.7377 32.1613C14.7196 32.1676 14.6959 32.1649 14.6812 32.1568C14.6812 32.1568 14.3744 31.9634 14.0028 31.9954C13.6962 32.0218 13.4299 32.1899 13.2082 32.4945C13.2001 32.5092 13.1819 32.5154 13.168 32.5166C13.1494 32.5182 13.1354 32.5195 13.1199 32.5021C12.8036 32.2533 12.3816 32.1352 11.9218 32.1749C11.2111 32.2362 10.4137 32.7027 10.3414 33.4389C10.3431 33.4575 10.3307 33.4773 10.3125 33.4835C10.2994 33.494 10.2762 33.496 10.2614 33.488C10.2083 33.4691 10.1544 33.441 10.0959 33.4133C9.97335 33.349 9.83648 33.2813 9.68784 33.2941C9.59029 33.3025 9.49596 33.3481 9.39977 33.4266C9.3735 33.4475 9.33594 33.4461 9.31031 33.4202C9.137 33.2012 8.60865 32.9894 8.13485 33.0302C7.92118 33.0487 7.64729 33.1284 7.53885 33.3905C7.52732 33.4196 7.496 33.4363 7.46229 33.4252C7.36618 33.396 7.25735 33.382 7.15051 33.3912C6.67672 33.4321 6.27333 33.8553 6.26908 33.8603C6.25635 33.8755 6.23816 33.8817 6.21918 33.8787C6.06349 33.864 5.90901 33.8633 5.75572 33.8765C5.25405 33.9198 4.84961 34.1138 4.64604 34.4121C4.47987 34.6557 4.44592 34.9675 4.53835 35.3339C4.5454 35.3614 4.53427 35.3951 4.50256 35.4072C3.9864 35.6623 3.98 36.1308 4.07123 36.4833L4.07748 36.5014Z" fill="#EDB52C"/>
<g style="mix-blend-mode:multiply">
<path d="M29.9722 25.8593C29.326 24.6609 27.1178 25.1555 26.7255 25.924C26.3844 25.8224 25.3868 25.8663 25.0021 26.7231C24.0202 26.4615 21.9706 27.3308 21.8001 28.7728C21.1593 28.6128 19.9635 29.2354 20.1208 30.0828C19.8634 29.974 18.7858 30.0669 18.6585 31.0326C18.352 30.8437 17.6505 30.469 16.9666 31.2206C16.3981 30.9233 15.0141 30.8274 14.708 32.1079C14.708 32.1079 13.8255 31.5336 13.1518 32.4574C12.1672 31.6766 10.3872 32.3074 10.2743 33.4402C10.0577 33.37 9.74044 33.0558 9.35266 33.3887C9.02782 32.9862 7.74928 32.7033 7.47516 33.3775C6.83069 33.1757 6.22276 33.8318 6.22276 33.8318C5.29751 33.7384 4.16693 34.1401 4.47867 35.3673C3.91302 35.6454 3.91567 36.1646 4.01819 36.5395C5.17485 37.5254 6.66544 37.2284 7.4524 35.284C7.4524 35.284 15.3396 35.362 25.7134 29.4368C28.1705 27.9754 30.1415 26.8461 31.8783 25.985C31.6041 25.4097 30.7985 25.0767 29.9722 25.8593ZM7.72028 34.5917C7.62226 34.9746 7.24977 35.105 6.87415 35.0906C6.85006 35.4623 6.6103 35.8293 6.35467 36.0666C6.16006 36.2518 5.72039 36.5799 5.47827 36.2685C4.93574 35.5666 5.88122 34.4836 6.6033 34.8799C6.33107 34.3278 7.04934 33.5405 7.53325 34.051C7.75395 33.5172 8.69833 33.1269 8.97089 33.7913C9.29103 34.5733 8.2491 34.972 7.71603 34.5968L7.72028 34.5917ZM12.9771 34.1758C12.9391 34.1698 12.7899 34.1218 12.7741 34.1559C12.7426 34.2241 12.7064 34.2928 12.6492 34.3351C12.5124 34.4312 12.3522 34.4731 12.186 34.4453C12.0675 34.4274 11.966 34.3894 11.8628 34.3328C11.779 34.2838 11.7579 34.2014 11.6811 34.2876C11.5746 34.4091 11.4261 34.4781 11.276 34.5284C10.8021 34.6769 9.84491 34.3758 10.4205 33.7786C10.4463 33.753 10.4568 33.7661 10.4635 33.7889C10.6608 33.4724 11.0933 33.3322 11.4203 33.5426C11.3436 33.1421 11.5012 32.7448 11.9423 32.6506C12.3881 32.556 12.8092 32.7724 12.9127 33.2127C13.0233 33.03 13.261 33.0189 13.4303 33.1915C13.4919 32.9288 13.6791 32.7114 13.939 32.6328C14.1673 32.5664 14.5162 32.5971 14.5752 32.9009C14.725 33.7163 13.6188 34.2375 12.9809 34.1662L12.9771 34.1758ZM17.8837 32.522C17.824 33.0232 17.1506 33.1374 16.8935 32.7056C16.7943 32.9669 16.5056 33.1462 16.2564 32.915C15.997 32.6753 16.1297 32.3691 16.3242 32.1277C16.3086 32.1103 16.3034 32.0499 16.3196 32.0204C16.7278 31.3816 17.4386 31.2126 17.9139 31.8408C18.0214 31.5133 18.3769 31.4031 18.496 31.7532C18.6036 31.4819 18.809 31.2582 19.0929 31.187C19.3998 31.109 19.6495 31.2372 19.6512 31.5834C19.6628 32.3685 18.4984 32.8667 17.8791 32.5224L17.8837 32.522ZM22.758 30.3842C22.6764 30.9575 22.0004 31.0953 21.6501 30.7231C21.5442 31.1768 20.9899 31.6411 20.6635 31.1123C20.4838 30.819 20.7294 30.4656 20.8993 30.1561C20.9975 29.4504 21.8117 29.0151 22.0787 29.7783C22.1503 29.6317 22.2762 29.5179 22.4446 29.6251C22.7021 29.79 22.7978 30.086 22.758 30.3842ZM26.0191 27.7725C26.1792 28.1097 26.1505 28.4819 25.8113 28.7264C25.5423 28.918 25.154 28.9188 24.9546 28.6692C24.9297 28.8679 24.7995 28.9868 24.5319 28.9771C23.9453 28.9575 23.3586 29.0455 22.816 29.2655C22.8206 29.2651 22.8253 29.2647 22.8303 29.2689C22.8826 29.2784 22.8423 29.4083 22.79 29.3987C22.0462 29.2383 22.6122 28.1506 22.8827 27.8137C23.3391 27.2456 24.0467 26.9318 24.4557 27.6593C24.5377 27.3621 24.7887 27.2329 25.0417 27.4544C25.1433 26.6782 26.2666 25.9215 26.8949 26.5318C27.5899 27.2112 26.7446 27.9907 26.0191 27.7725ZM30.0067 26.5302C29.9641 26.7959 29.6846 26.9744 29.4747 27.0908C29.1802 27.2566 28.7953 27.5144 28.4624 27.5618C27.88 27.6448 27.8598 27.085 28.0152 26.6083C27.9958 26.6006 27.9799 26.5786 27.9949 26.5352C28.0317 26.4197 28.1107 26.3053 28.21 26.2078C28.2431 26.1581 28.2813 26.1127 28.3157 26.077C28.3415 26.0514 28.3567 26.0641 28.3591 26.092C28.608 25.9395 28.9123 25.9413 29.0326 26.3053C29.0572 26.3734 29.0725 26.4423 29.0789 26.5166C29.0959 26.4964 29.1133 26.4809 29.1349 26.4603C29.2531 26.3658 29.3907 26.2791 29.5369 26.2384C29.752 26.1824 30.0507 26.2269 30.0063 26.5255L30.0067 26.5302Z" fill="#FFEA91"/>
</g>
<path d="M18.4191 24.9412C18.9449 25.6119 20.1732 24.9865 20.4044 24.7373C20.8537 25.6064 22.3939 25.3425 23.0865 24.637C23.5508 24.9199 25.0774 24.4981 25.4066 23.5946C26.4667 23.5687 26.6129 22.7137 26.508 22.2033C27.923 22.2779 28.5829 21.2476 28.3908 20.8102C29.382 20.692 29.4688 19.9077 29.3507 19.6231C30.4058 19.9205 31.101 18.9199 31.2723 18.6805C31.7861 18.8328 31.7416 18.3172 31.7629 18.1843C32.7809 18.2135 33.3471 17.7248 33.3895 16.9677C30.4423 18.0642 26.8005 19.843 21.5062 22.5364C19.8378 23.4852 18.2933 24.2969 16.8883 24.989C17.1894 25.2251 17.7609 25.5034 18.4284 24.9404L18.4191 24.9412Z" fill="#FFEA91"/>
<path d="M21.659 25.3453C21.0784 25.3954 20.6179 25.2105 20.3895 24.8418C20.1887 25.0088 19.7004 25.2615 19.2312 25.302C18.8829 25.332 18.6034 25.2391 18.4123 25.031C18.1844 25.2098 17.9501 25.3142 17.7085 25.335C17.3369 25.3671 17.0317 25.1922 16.8412 25.0448C16.8214 25.0325 16.8147 25.0097 16.8174 24.986C16.8154 24.9628 16.8324 24.9426 16.8505 24.9364C18.3546 24.1983 19.9071 23.3719 21.4637 22.4842C26.9375 19.7004 30.454 17.9886 33.356 16.9101C33.3741 16.9038 33.3978 16.9065 33.4129 16.9192C33.428 16.9319 33.4393 16.9543 33.4363 16.9733C33.3891 17.7823 32.7845 18.2603 31.8057 18.2511C31.7965 18.4157 31.7734 18.7452 31.4668 18.7717C31.4157 18.7761 31.3546 18.772 31.2875 18.7544C30.8579 19.3623 30.3718 19.6944 29.8469 19.7397C29.7076 19.7517 29.5713 19.7447 29.4283 19.7149C29.4613 19.8805 29.4391 20.1118 29.322 20.3278C29.2084 20.5294 28.9683 20.7841 28.4606 20.8653C28.4974 21.0213 28.4581 21.2165 28.3487 21.4131C28.1418 21.782 27.6444 22.1992 26.864 22.2665C26.7711 22.2745 26.6731 22.2783 26.5748 22.2774C26.6059 22.476 26.6265 22.8766 26.3796 23.2161C26.1838 23.4951 25.869 23.6439 25.4401 23.6622C25.1582 24.3557 24.2224 24.7359 23.6324 24.7867C23.4699 24.8008 23.2499 24.801 23.0886 24.7213C22.7392 25.065 22.1936 25.3039 21.6548 25.3504L21.659 25.3453ZM20.3937 24.673C20.3937 24.673 20.403 24.6721 20.4076 24.6717C20.4262 24.6701 20.4464 24.6871 20.4526 24.7053C20.6438 25.0772 21.076 25.2599 21.6427 25.211C22.163 25.1662 22.7082 24.9226 23.0348 24.5856C23.0564 24.565 23.0843 24.5626 23.1091 24.5792C23.2177 24.6447 23.3979 24.6713 23.6208 24.652C24.2897 24.5943 25.1144 24.1723 25.3383 23.568C25.3456 23.544 25.3673 23.5234 25.3955 23.5256C25.8063 23.5136 26.0944 23.3811 26.2787 23.1312C26.4793 22.8519 26.4933 22.4716 26.4383 22.2143C26.4367 22.1957 26.4351 22.1772 26.4521 22.157C26.4648 22.1418 26.4826 22.1309 26.5016 22.134C26.6189 22.1379 26.7405 22.1368 26.852 22.1272C27.5859 22.0639 28.0486 21.6777 28.2393 21.3383C28.3444 21.1468 28.3795 20.9566 28.3219 20.8305C28.3156 20.8123 28.3182 20.7887 28.3259 20.7693C28.3336 20.7499 28.3514 20.739 28.3746 20.737C28.8797 20.6794 29.1117 20.4395 29.2173 20.2526C29.3506 20.0071 29.3336 19.7559 29.2864 19.6429C29.2751 19.6205 29.282 19.5918 29.2947 19.5767C29.3117 19.5565 29.3345 19.5499 29.3585 19.5572C29.5217 19.6039 29.682 19.6182 29.84 19.6046C30.337 19.5617 30.8003 19.2363 31.2121 18.6392C31.229 18.619 31.2561 18.6073 31.2801 18.6146C31.3476 18.6369 31.4088 18.641 31.4599 18.6366C31.6457 18.6205 31.6714 18.4311 31.6879 18.2425C31.6855 18.2147 31.6924 18.186 31.6955 18.167C31.7019 18.1337 31.7282 18.1127 31.7565 18.1149C32.6479 18.141 33.2221 17.7452 33.3126 17.0589C30.4339 18.1354 26.9402 19.8406 21.5245 22.5913C19.9987 23.4575 18.4775 24.2673 17.0009 24.9983C17.1701 25.1147 17.4136 25.2248 17.6969 25.2003C17.9245 25.1807 18.1542 25.0767 18.3767 24.889C18.403 24.868 18.4452 24.8691 18.4666 24.9C18.6294 25.1059 18.8856 25.2008 19.22 25.1719C19.7078 25.1299 20.2296 24.8322 20.3581 24.6947C20.3666 24.6846 20.3848 24.6784 20.3987 24.6772L20.3937 24.673Z" fill="#EDB52C"/>
<g style="mix-blend-mode:multiply">
<path d="M21.492 22.5379C19.8236 23.4867 18.2792 24.2984 16.8741 24.9905C17.1753 25.2266 17.7468 25.5048 18.4142 24.9419C18.94 25.6125 20.1683 24.9872 20.3995 24.7379C20.8488 25.607 22.3891 25.3432 23.0816 24.6377C23.5459 24.9205 25.0725 24.4987 25.4018 23.5952C26.4618 23.5693 26.608 22.7144 26.5032 22.204C27.9181 22.2785 28.578 21.2483 28.3859 20.8109C29.3771 20.6927 29.4639 19.9084 29.3458 19.6237C30.401 19.9212 31.0962 18.9206 31.2674 18.6812C31.7812 18.8334 31.7368 18.3178 31.7581 18.185C32.7761 18.2142 33.3423 17.7255 33.3846 16.9684C30.4374 18.0649 26.7956 19.8437 21.5013 22.5371L21.492 22.5379ZM21.2138 24.4665C20.9178 24.5622 19.9998 24.5525 19.9814 24.0674C19.9643 23.6524 20.2721 23.5322 20.5991 23.4713C20.9236 23.3263 21.2966 23.2567 21.5451 23.4786C21.9919 23.8846 21.6648 24.3246 21.2138 24.4665ZM23.8892 24.451C23.5687 24.4787 23.1339 24.3758 23.4121 24.0195C23.5163 23.7625 23.7717 23.5767 24.0308 23.4889C24.2536 23.4135 24.7129 23.313 24.7886 23.6481C24.8941 24.1117 24.2232 24.4175 23.8845 24.4514L23.8892 24.451ZM26.3565 22.6191C26.3215 22.9731 26.0839 23.3118 25.7166 23.3388C25.5122 23.3564 25.424 23.2564 25.4077 23.1221C25.3892 23.1237 25.3791 23.1152 25.3763 23.0827C25.3706 22.7462 25.5846 22.4049 25.887 22.2759C26.167 22.1581 26.385 22.2984 26.3522 22.6242L26.3565 22.6191ZM26.2528 21.2008C26.1008 21.3917 25.7991 21.4739 25.5797 21.5349C25.3608 21.6006 25.1313 21.6531 24.9003 21.6871C25.3566 22.4199 24.0841 23.2924 23.6398 22.699C23.5709 23.2571 22.8551 23.6932 22.3418 23.6017C22.0428 23.5527 21.6853 23.3682 21.7706 23.0005C21.8325 22.7425 22.0803 22.5761 22.3204 22.4852C22.548 21.9227 23.3741 21.7345 23.9016 21.7732C23.9817 21.7803 24.067 21.7917 24.1445 21.8225C24.1685 21.8298 24.1568 21.8027 24.1892 21.7437C24.2492 21.6262 24.3287 21.5164 24.4186 21.4198C24.688 21.1251 25.0303 20.8616 25.4024 20.7266C25.6658 20.6337 25.997 20.5677 26.2222 20.7916C26.3449 20.912 26.362 21.0556 26.2567 21.1911L26.2528 21.2008ZM28.9297 19.683C28.7916 19.9804 28.508 20.3277 28.1877 20.4115C27.7528 20.5239 27.5832 20.1314 27.7622 19.765C27.9297 19.4276 28.2805 19.3178 28.6251 19.2975C28.6251 19.2975 28.6251 19.2975 28.6297 19.2971C28.7485 19.2634 28.8375 19.2651 28.8969 19.3021C28.9108 19.3009 28.9248 19.2997 28.9345 19.3036C28.967 19.3008 28.9756 19.3468 28.9602 19.3856C28.9899 19.4579 28.9801 19.5617 28.9255 19.6881L28.9297 19.683Z" fill="#FFEA91"/>
</g>
<path d="M43.2865 21.9079C42.8637 21.7806 42.2174 21.6117 41.756 22.447C40.2888 22.1477 40.091 23.11 40.0685 23.5004C43.4183 23.0571 44.614 22.6498 45.3175 20.7687C44.6295 19.8453 43.075 20.541 43.2865 21.9079Z" fill="#FFEA91"/>
<path d="M40.0742 23.5655C40.0742 23.5655 40.0408 23.559 40.0257 23.5463C40.0106 23.5335 40.0043 23.5154 40.0074 23.4964C40.0262 23.1719 40.1665 22.411 41.0862 22.3317C41.2766 22.3153 41.4931 22.3294 41.7263 22.3748C41.9544 21.9807 42.2454 21.7732 42.6123 21.7415C42.826 21.7231 43.0263 21.7666 43.2135 21.8207C43.1676 21.3427 43.3308 21.0104 43.482 20.8101C43.7045 20.5149 44.0482 20.3214 44.3966 20.2914C44.7821 20.2581 45.133 20.4197 45.3658 20.7319C45.3813 20.7493 45.3833 20.7725 45.3714 20.797C44.6675 22.6733 43.4936 23.1162 40.0746 23.5701L40.0742 23.5655ZM41.0928 22.4622C40.3588 22.5255 40.1757 23.0607 40.1369 23.4244C43.4723 22.9776 44.5646 22.5652 45.2478 20.7749C45.038 20.5122 44.7418 20.388 44.412 20.4164C44.0822 20.4448 43.7838 20.6203 43.5821 20.8857C43.4351 21.0809 43.2766 21.4128 43.3511 21.8977C43.3531 21.921 43.3455 21.9403 43.3327 21.9555C43.3153 21.971 43.2972 21.9773 43.2731 21.97C43.0712 21.9078 42.8511 21.8519 42.6282 21.8712C42.2937 21.9 42.0256 22.101 41.8149 22.4795C41.803 22.5039 41.7759 22.5156 41.7472 22.5087C41.5043 22.4595 41.2879 22.4454 41.0974 22.4618L41.0928 22.4622Z" fill="#EDB52C"/>
<g style="mix-blend-mode:multiply">
<path d="M43.288 21.9079C42.8652 21.7806 42.2189 21.6117 41.7574 22.447C40.2903 22.1477 40.0925 23.11 40.07 23.5004C43.4198 23.0571 44.6154 22.6498 45.3189 20.7687C44.631 19.8453 43.0765 20.541 43.288 21.9079ZM44.6309 21.5815C44.297 22.0502 43.8517 22.3132 43.3677 22.5608C43.3569 22.5992 43.3315 22.6295 43.3058 22.6036C43.3058 22.6036 43.3008 22.5994 43.2957 22.5951C43.2555 22.6173 43.2149 22.6348 43.1747 22.657C42.8515 22.8159 42.5218 23.0081 42.1677 23.0808C42.0435 23.1055 41.6218 23.2074 41.5318 23.0327C41.4921 22.9519 41.5166 22.8562 41.592 22.8076C41.7651 22.699 41.9285 22.6943 42.0993 22.7217C42.011 22.5655 42.079 22.3772 42.2578 22.226C42.5807 21.9548 42.9277 22.1261 43.2044 22.3503C43.1776 22.0391 43.4147 21.6957 43.7096 21.6422C43.2822 21.1362 44.2818 20.4089 44.6364 20.7761C44.6491 20.761 44.6622 20.7505 44.677 20.7586C45.0181 20.9163 44.7805 21.3627 44.6212 21.5776L44.6309 21.5815Z" fill="#FFEA91"/>
</g>
<path d="M44.7297 14.1659C35.5157 12.7563 28.6905 17.2337 19.35 22.0637C10.1619 26.815 7.48059 26.5455 4.98723 26.7184C5.92698 26.8713 6.98927 27.36 7.27747 28.7484C7.27747 28.7484 12.5527 27.6243 21.4968 22.5384C31.1758 17.6184 35.328 15.7347 39.8129 15.5398C44.2983 15.3496 46.9581 17.1605 46.0996 20.6085C45.2402 23.3407 43.687 23.8349 40.1936 24.2953C36.7006 24.7603 33.1637 25.5848 25.6365 30.1695C19.8116 33.2222 13.9386 35.7175 8.3137 35.772C8.32334 36.6978 7.37291 38.2117 5.43464 38.4724C12.6323 40.0512 24.085 32.5822 30.7976 29.0786C37.5411 25.5536 43.5739 26.3764 45.3975 26.7386C47.221 27.1007 50.9564 23.9661 50.6603 20.0982C50.3688 16.2299 47.9939 14.7922 44.7297 14.1659Z" fill="#F4A196"/>
<path d="M8.70222 38.705C7.49915 38.8088 6.39473 38.7543 5.4215 38.5387C5.39283 38.5318 5.37185 38.5055 5.37369 38.4726C5.37088 38.4401 5.39675 38.4145 5.42927 38.4117C6.62289 38.2526 8.26745 37.245 8.25315 35.7769C8.24995 35.7397 8.28007 35.709 8.31298 35.7109C8.8225 35.7044 9.34939 35.6823 9.87428 35.6371C15.3648 35.1636 20.9072 32.5798 25.6083 30.1153C33.2646 25.454 36.7417 24.6955 40.1836 24.2349C41.9787 23.9959 43.1938 23.7601 44.1045 23.251C45.0419 22.7256 45.6192 21.9318 46.0417 20.5897C46.3651 19.2937 46.1966 18.2085 45.5391 17.3667C44.5609 16.1174 42.5322 15.4921 39.8184 15.6045C39.5668 15.6168 39.3151 15.6291 39.0736 15.65C34.8233 16.0165 30.4641 18.049 21.5246 22.5917C12.6788 27.6224 7.34716 28.7981 7.29182 28.8076C7.2597 28.815 7.22479 28.79 7.21734 28.7578C6.92994 27.3787 5.84217 26.9204 4.97834 26.7796C4.94502 26.7731 4.92404 26.7468 4.92588 26.7139C4.92308 26.6814 4.95359 26.6554 4.98146 26.653C5.20442 26.6337 5.42819 26.6238 5.6566 26.6135C6.00114 26.5931 6.35536 26.5766 6.7409 26.5434C8.99376 26.3491 12.2519 25.6563 19.3168 22.0053C20.4457 21.4213 21.542 20.84 22.6029 20.2806C28.546 17.1334 33.6746 14.4169 39.4252 13.921C41.195 13.7683 42.9317 13.8292 44.7336 14.1043C46.58 14.4598 47.8872 15.0209 48.8448 15.8696C49.9647 16.8634 50.5801 18.247 50.7163 20.0977C50.9964 23.7798 47.7357 26.6675 45.8684 26.8286C45.6965 26.8434 45.5319 26.8342 45.3797 26.8052C44.3895 26.6098 42.3234 26.3107 39.6571 26.5406C36.5867 26.8054 33.611 27.6797 30.8166 29.1374C29.7017 29.7202 28.4469 30.4181 27.1206 31.1548C21.4535 34.3016 14.4068 38.2177 8.69797 38.7101L8.70222 38.705ZM5.78101 38.4749C6.66038 38.6331 7.63657 38.6659 8.691 38.5749C14.3719 38.085 21.4102 34.1789 27.0683 31.0377C28.3946 30.3009 29.6494 29.6031 30.7644 29.0202C33.5719 27.5521 36.5616 26.6765 39.6505 26.4101C42.3307 26.179 44.4108 26.477 45.406 26.6766C45.5439 26.7021 45.6992 26.7121 45.8618 26.6981C47.6873 26.5407 50.8692 23.7159 50.6002 20.1077C50.3505 16.7786 48.5329 14.9653 44.7166 14.2321C42.9285 13.9558 41.2015 13.8988 39.441 14.0506C33.7183 14.5441 28.5986 17.2553 22.6644 20.397C21.604 20.961 20.5076 21.5423 19.374 22.1267C12.2867 25.789 9.01931 26.4826 6.75252 26.6781C6.36698 26.7113 6.00851 26.7329 5.66357 26.7486C5.58925 26.755 5.51957 26.761 5.44485 26.7628C6.22683 26.9855 7.05304 27.5038 7.32281 28.6786C7.93299 28.537 13.1357 27.2226 21.4643 22.4893C30.4215 17.9357 34.7901 15.9024 39.0589 15.5343C39.3051 15.513 39.561 15.4956 39.8126 15.4833C42.5636 15.3677 44.6311 16.0084 45.6357 17.2929C46.3197 18.1698 46.496 19.2917 46.1626 20.6355C45.289 23.4203 43.6747 23.9105 40.2045 24.3689C36.7715 24.824 33.313 25.5809 25.6698 30.2317C20.9552 32.702 15.3992 35.2916 9.89015 35.7667C9.38383 35.8104 8.87127 35.8359 8.37569 35.8412C8.34352 36.7705 7.45299 38.1108 5.78606 38.4792L5.78101 38.4749Z" fill="#D15A46"/>
<path d="M44.7297 14.1659C35.5157 12.7563 28.6905 17.2337 19.35 22.0637C10.1619 26.815 7.48059 26.5455 4.98723 26.7184C5.92698 26.8713 6.98927 27.36 7.27747 28.7484C7.27747 28.7484 12.5527 27.6243 21.4968 22.5384C31.1758 17.6184 35.328 15.7347 39.8129 15.5398C44.2983 15.3496 46.9581 17.1605 46.0996 20.6085C45.2402 23.3407 43.687 23.8349 40.1936 24.2953C36.7006 24.7603 33.1637 25.5848 25.6365 30.1695C19.8116 33.2222 13.9386 35.7175 8.3137 35.772C8.32334 36.6978 7.37291 38.2117 5.43464 38.4724C12.6323 40.0512 24.085 32.5822 30.7976 29.0786C37.5411 25.5536 43.5739 26.3764 45.3975 26.7386C47.221 27.1007 50.9564 23.9661 50.6603 20.0982C50.3688 16.2299 47.9939 14.7922 44.7297 14.1659Z" fill="#F4A196"/>
<path d="M8.70222 38.705C7.49915 38.8088 6.39473 38.7543 5.4215 38.5387C5.39283 38.5318 5.37185 38.5055 5.37369 38.4726C5.37088 38.4401 5.39675 38.4145 5.42927 38.4117C6.62289 38.2526 8.26745 37.245 8.25315 35.7769C8.24995 35.7397 8.28007 35.709 8.31298 35.7109C8.8225 35.7044 9.34939 35.6823 9.87428 35.6371C15.3648 35.1636 20.9072 32.5798 25.6083 30.1153C33.2646 25.454 36.7417 24.6955 40.1836 24.2349C41.9787 23.9959 43.1938 23.7601 44.1045 23.251C45.0419 22.7256 45.6192 21.9318 46.0417 20.5897C46.3651 19.2937 46.1966 18.2085 45.5391 17.3667C44.5609 16.1174 42.5322 15.4921 39.8184 15.6045C39.5668 15.6168 39.3151 15.6291 39.0736 15.65C34.8233 16.0165 30.4641 18.049 21.5246 22.5917C12.6788 27.6224 7.34716 28.7981 7.29182 28.8076C7.2597 28.815 7.22479 28.79 7.21734 28.7578C6.92994 27.3787 5.84217 26.9204 4.97834 26.7796C4.94502 26.7731 4.92404 26.7468 4.92588 26.7139C4.92308 26.6814 4.95359 26.6554 4.98146 26.653C5.20442 26.6337 5.42819 26.6238 5.6566 26.6135C6.00114 26.5931 6.35536 26.5766 6.7409 26.5434C8.99376 26.3491 12.2519 25.6563 19.3168 22.0053C20.4457 21.4213 21.542 20.84 22.6029 20.2806C28.546 17.1334 33.6746 14.4169 39.4252 13.921C41.195 13.7683 42.9317 13.8292 44.7336 14.1043C46.58 14.4598 47.8872 15.0209 48.8448 15.8696C49.9647 16.8634 50.5801 18.247 50.7163 20.0977C50.9964 23.7798 47.7357 26.6675 45.8684 26.8286C45.6965 26.8434 45.5319 26.8342 45.3797 26.8052C44.3895 26.6098 42.3234 26.3107 39.6571 26.5406C36.5867 26.8054 33.611 27.6797 30.8166 29.1374C29.7017 29.7202 28.4469 30.4181 27.1206 31.1548C21.4535 34.3016 14.4068 38.2177 8.69797 38.7101L8.70222 38.705ZM5.78101 38.4749C6.66038 38.6331 7.63657 38.6659 8.691 38.5749C14.3719 38.085 21.4102 34.1789 27.0683 31.0377C28.3946 30.3009 29.6494 29.6031 30.7644 29.0202C33.5719 27.5521 36.5616 26.6765 39.6505 26.4101C42.3307 26.179 44.4108 26.477 45.406 26.6766C45.5439 26.7021 45.6992 26.7121 45.8618 26.6981C47.6873 26.5407 50.8692 23.7159 50.6002 20.1077C50.3505 16.7786 48.5329 14.9653 44.7166 14.2321C42.9285 13.9558 41.2015 13.8988 39.441 14.0506C33.7183 14.5441 28.5986 17.2553 22.6644 20.397C21.604 20.961 20.5076 21.5423 19.374 22.1267C12.2867 25.789 9.01931 26.4826 6.75252 26.6781C6.36698 26.7113 6.00851 26.7329 5.66357 26.7486C5.58925 26.755 5.51957 26.761 5.44485 26.7628C6.22683 26.9855 7.05304 27.5038 7.32281 28.6786C7.93299 28.537 13.1357 27.2226 21.4643 22.4893C30.4215 17.9357 34.7901 15.9024 39.0589 15.5343C39.3051 15.513 39.561 15.4956 39.8126 15.4833C42.5636 15.3677 44.6311 16.0084 45.6357 17.2929C46.3197 18.1698 46.496 19.2917 46.1626 20.6355C45.289 23.4203 43.6747 23.9105 40.2045 24.3689C36.7715 24.824 33.313 25.5809 25.6698 30.2317C20.9552 32.702 15.3992 35.2916 9.89015 35.7667C9.38383 35.8104 8.87127 35.8359 8.37569 35.8412C8.34352 36.7705 7.45299 38.1108 5.78606 38.4792L5.78101 38.4749Z" fill="#D15A46"/>
<path d="M3.18975 35.4876C1.5971 31.9421 2.32051 28.7725 3.95989 28.2474C5.34435 27.8051 6.31065 28.9712 6.31065 28.9712L7.27834 28.7427C6.99014 27.3543 5.92785 26.8656 4.98809 26.7127C4.94629 26.7163 4.90449 26.7199 4.86268 26.7235C0.391327 27.3478 1.60892 33.49 1.60892 33.49C2.21632 36.6806 3.2229 37.7169 5.33091 38.4477C5.36422 38.4542 5.39754 38.4606 5.43085 38.4671C7.36448 38.2068 8.31531 36.6975 8.31032 35.7714L7.45321 35.2744C6.45788 37.7328 4.33715 37.56 3.1843 35.4787L3.18975 35.4876Z" fill="#AA313D"/>
<path d="M5.43745 38.5371C5.43745 38.5371 5.42351 38.5383 5.41887 38.5387L5.37586 38.5284C5.37586 38.5284 5.3379 38.5223 5.31852 38.5146C3.31711 37.8261 2.19033 36.861 1.55032 33.5095C1.54752 33.4769 0.914328 30.2043 2.28961 28.1905C2.87567 27.3351 3.73916 26.8207 4.85342 26.6638L4.97883 26.653C4.97883 26.653 4.98812 26.6522 4.99276 26.6518C5.89456 26.7986 7.03583 27.2805 7.33388 28.7289C7.33709 28.766 7.3209 28.7955 7.28879 28.8029L6.3211 29.0315C6.29788 29.0335 6.27425 29.0308 6.25831 29.0088C6.25286 28.9999 5.5077 28.1189 4.4161 28.213C4.26746 28.2258 4.12042 28.2572 3.96994 28.303C3.44153 28.4702 3.01227 28.919 2.72462 29.599C2.09045 31.0903 2.28857 33.3335 3.23903 35.4556C3.81585 36.5009 4.66625 37.0827 5.50236 37.0106C6.28738 36.9429 6.95889 36.3188 7.39101 35.252C7.3987 35.2326 7.41183 35.2221 7.43001 35.2159C7.44859 35.2143 7.46718 35.2127 7.48192 35.2208L8.33862 35.7131C8.33862 35.7131 8.3697 35.7479 8.3717 35.7711C8.37766 36.7627 7.36099 38.2683 5.43665 38.5278L5.43745 38.5371ZM4.86928 26.7935C3.79179 26.9425 2.95496 27.4405 2.38973 28.2661C1.048 30.2349 1.6671 33.4526 1.6699 33.4851C2.30165 36.7953 3.35819 37.7056 5.34991 38.3902C5.36385 38.389 5.37859 38.3971 5.39757 38.4001L5.43089 38.4066C7.24839 38.1563 8.22277 36.7573 8.24444 35.8148L7.4812 35.3752C7.0309 36.4483 6.33151 37.0748 5.51398 37.1453C4.62677 37.2218 3.73217 36.6158 3.12731 35.5167C2.15506 33.359 1.95839 31.0783 2.60833 29.5529C2.91176 28.8388 3.37153 28.3639 3.93165 28.1846C4.08638 28.1338 4.24735 28.1012 4.40064 28.088C5.45043 27.9975 6.17389 28.7353 6.31917 28.9006L7.19051 28.6944C7.01838 27.9465 6.48994 27.0281 4.97571 26.7796L4.85958 26.7896L4.86928 26.7935Z" fill="#721522"/>
<g style="mix-blend-mode:multiply" opacity="0.5">
<path d="M7.45922 35.2836C6.46388 37.742 4.34315 37.5692 3.19031 35.4879C1.59766 31.9424 2.32107 28.7728 3.96045 28.2477C5.34491 27.8054 6.31121 28.9715 6.31121 28.9715L7.27889 28.743C7.11044 27.9292 6.6742 27.4287 6.15603 27.1177C6.17092 27.1819 6.17693 27.2516 6.17365 27.3221C6.15156 27.7171 5.82152 27.797 5.49195 27.774C4.913 27.735 4.41189 27.5676 3.84848 27.8174C3.16791 28.1195 2.59392 28.7352 2.33774 29.4546C1.94679 30.5646 1.94892 31.8372 2.10056 32.9988C2.25885 34.1831 2.58548 35.4746 3.3409 36.4202C3.65061 36.81 4.04537 37.155 4.52125 37.3012C4.89639 37.4186 5.24092 37.3982 5.61645 37.2488C6.07783 37.064 6.21014 37.0245 6.50486 36.9148C6.85412 36.7864 7.41752 36.5366 7.42114 37.1213C7.4202 37.5987 6.85903 37.8202 6.49583 37.9498C5.906 38.1645 5.29405 38.2313 4.68682 38.19C4.89113 38.28 5.10897 38.3642 5.34035 38.4425C5.37366 38.449 5.40698 38.4555 5.44029 38.462C7.37392 38.2016 8.32477 36.6924 8.31977 35.7662L7.46265 35.2692L7.45922 35.2836Z" fill="#AA313D"/>
</g>
<path d="M45.2731 16.9829C45.6982 17.7886 45.904 18.9267 45.4533 20.3741C44.7213 22.7396 43.4961 23.0746 39.3524 23.591C35.2044 24.1125 32.0842 25.6451 25.7194 29.437C15.3451 35.3575 7.45836 35.2842 7.45836 35.2842L8.31547 35.7812C8.31547 35.7812 8.31547 35.7812 8.31506 35.7766C13.9399 35.7221 19.8129 33.2267 25.6378 30.174C33.1651 25.5893 36.702 24.7649 40.195 24.2999C43.688 23.8349 45.2415 23.3452 46.1009 20.6131C46.4863 19.059 46.1615 17.8422 45.2731 16.9829Z" fill="#E5817A"/>
<path d="M9.88567 35.7627C9.36078 35.8079 8.83893 35.8342 8.33406 35.8403C8.31588 35.8466 8.2969 35.8435 8.28257 35.8401L7.42585 35.3477C7.40142 35.3358 7.38933 35.3041 7.39622 35.2754C7.4031 35.2467 7.42977 35.2304 7.45764 35.228C7.45764 35.228 7.88859 35.233 8.65503 35.1669C11.1076 34.9554 17.6722 33.9681 25.6916 29.3924C32.1898 25.5189 35.2316 24.0539 39.3474 23.5399C43.3518 23.0354 44.6527 22.7641 45.4004 20.3645C45.8876 18.7969 45.5715 17.6824 45.2247 17.0244C45.2083 16.9977 45.2195 16.964 45.2411 16.9434C45.2627 16.9228 45.3003 16.9243 45.3209 16.9459C46.25 17.8438 46.5429 19.1242 46.1636 20.6403C45.29 23.4251 43.6757 23.9153 40.2055 24.3737C34.4034 25.1408 30.1925 27.4834 25.6708 30.2366C20.9562 32.7068 15.4002 35.2965 9.89112 35.7716L9.88567 35.7627ZM8.31779 35.706C8.82731 35.6995 9.34956 35.6779 9.87445 35.6326C15.3603 35.1595 20.9074 32.5753 25.6085 30.1109C33.2648 25.4496 36.7419 24.6911 40.1838 24.2305C43.6029 23.7765 45.1901 23.2981 46.0372 20.5857C46.3645 19.2799 46.1738 18.1546 45.4931 17.3148C45.7684 18.0117 45.927 19.0369 45.5101 20.3878C44.785 22.7246 43.6253 23.1148 39.357 23.6513C35.2597 24.1638 32.2319 25.6276 25.7469 29.4906C17.7101 34.0818 11.1223 35.0711 8.66039 35.2834C8.21911 35.3214 7.88811 35.3359 7.68757 35.3439L8.31779 35.706Z" fill="#B54131"/>
<path d="M32.2124 20.4716C32.5426 20.8269 32.3033 21.3623 31.6789 21.6641C31.0544 21.966 30.283 21.9202 29.9529 21.5649C29.6228 21.2097 29.862 20.6743 30.4865 20.3724C31.1109 20.0706 31.8823 20.1163 32.2124 20.4716Z" fill="#E40039"/>
<path d="M30.9816 21.9398C30.5217 21.9795 30.1184 21.8598 29.8966 21.6216C29.7571 21.4698 29.6993 21.2876 29.7382 21.0877C29.7916 20.7836 30.061 20.489 30.4561 20.2958C30.6808 20.1875 30.9369 20.1186 31.1923 20.0966C31.6522 20.0569 32.0556 20.1766 32.2774 20.4148C32.4168 20.5666 32.4751 20.7534 32.4357 20.9487C32.3824 21.2528 32.113 21.5474 31.7179 21.7406C31.4886 21.8493 31.2371 21.9178 30.9816 21.9398ZM31.2021 20.2642C30.9652 20.2846 30.7319 20.3469 30.5208 20.4493C30.1705 20.6199 29.9393 20.8692 29.8909 21.1213C29.8657 21.2639 29.9052 21.3962 30.0085 21.509C30.1946 21.7129 30.5491 21.8086 30.9626 21.773C31.1995 21.7526 31.4327 21.6903 31.6438 21.5879C31.9941 21.4173 32.23 21.1676 32.2738 20.9159C32.2989 20.7733 32.2595 20.641 32.1561 20.5282C31.9701 20.3243 31.6155 20.2286 31.2021 20.2642Z" fill="#8E1126"/>
<path d="M31.3027 20.3817C31.2504 20.3721 31.2899 20.5044 31.343 20.5232C31.4151 20.5451 31.4833 20.5767 31.5516 20.6082C31.7326 20.7002 31.6228 20.8922 31.5905 20.9511C31.542 21.0396 31.4585 21.1029 31.3696 21.1574C31.1791 21.2814 30.8856 21.2974 30.5975 21.2661C30.5836 21.2673 30.5914 21.304 30.6104 21.3071C31.1277 21.445 31.4759 21.3588 31.691 21.0314C31.8691 20.7633 31.7269 20.4714 31.3027 20.3817Z" fill="#8E1126"/>
<g style="mix-blend-mode:multiply" opacity="0.5">
<path d="M31.6402 20.6101C31.8002 20.7835 31.6593 21.0484 31.3314 21.2077C31.0035 21.367 30.6097 21.3588 30.4497 21.1854C30.2897 21.012 30.4307 20.7472 30.7585 20.5879C31.0864 20.4286 31.4802 20.4367 31.6402 20.6101Z" fill="#8E1126"/>
</g>
<g style="mix-blend-mode:screen" opacity="0.5">
<path d="M31.9178 21.1755C31.4155 21.4294 30.8818 21.7515 30.0328 21.4036C30.0088 21.3963 30.0263 21.4369 30.0368 21.45C30.8329 21.9991 31.5374 21.5406 31.9365 21.2301C31.9717 21.2036 31.9673 21.1525 31.9182 21.1802L31.9178 21.1755Z" fill="white"/>
</g>
<g style="mix-blend-mode:screen" opacity="0.5">
<path d="M32.0185 20.9282L32.0012 20.9438C31.9749 20.9647 31.9731 20.9977 31.9805 21.0298C31.988 21.0619 32.019 21.0966 32.0445 21.0664C32.0572 21.0512 32.0657 21.0411 32.0734 21.0218C32.0853 20.9973 32.0606 20.8731 32.0181 20.9236L32.0185 20.9282Z" fill="white"/>
</g>
<path d="M24.1184 25.026C24.4956 25.1666 24.5105 25.666 24.1534 26.1367C23.7966 26.612 23.2019 26.8786 22.8247 26.738C22.4476 26.5973 22.433 26.1026 22.7898 25.6272C23.1466 25.1519 23.7413 24.8853 24.118 25.0213L24.1184 25.026Z" fill="#E40039"/>
<path d="M23.1232 26.8434C23.0071 26.8535 22.8982 26.8394 22.8017 26.8056C22.642 26.7445 22.5337 26.6275 22.4867 26.4631C22.4136 26.212 22.5071 25.8858 22.7386 25.585C23.0202 25.2145 23.4468 24.953 23.8231 24.9206C23.9392 24.9106 24.0481 24.9246 24.1446 24.9584C24.3043 25.0195 24.4126 25.1365 24.4592 25.2963C24.5323 25.5473 24.4392 25.8783 24.2077 26.179C23.9261 26.5496 23.4994 26.811 23.1232 26.8434ZM23.8351 25.0599C23.496 25.0892 23.1006 25.3339 22.8441 25.6695C22.6424 25.9349 22.5588 26.2136 22.619 26.4236C22.6527 26.5424 22.7299 26.6246 22.8509 26.6704C22.9284 26.7011 23.0132 26.7078 23.1154 26.699C23.4545 26.6698 23.8499 26.4251 24.1064 26.0895C24.3081 25.824 24.3913 25.5408 24.3315 25.3354C24.2979 25.2166 24.2206 25.1343 24.0997 25.0886C24.0221 25.0579 23.9373 25.0511 23.8351 25.0599Z" fill="#8E1126"/>
<path d="M23.4031 25.3172C23.3621 25.3301 23.4394 25.4124 23.4858 25.4084C23.5505 25.3981 23.6109 25.3929 23.6763 25.392C23.8447 25.3915 23.8329 25.5797 23.8284 25.6362C23.8217 25.721 23.7863 25.7989 23.7416 25.8777C23.6437 26.0452 23.43 26.1713 23.2037 26.261C23.1898 26.2622 23.2154 26.2881 23.2247 26.2873C23.6654 26.1884 23.896 25.986 23.933 25.6553C23.9655 25.3811 23.7552 25.2214 23.4031 25.3172Z" fill="#8E1126"/>
<g style="mix-blend-mode:multiply" opacity="0.5">
<path d="M23.7391 25.3586C23.9228 25.4269 23.9166 25.6802 23.728 25.9351C23.539 26.1854 23.2382 26.333 23.0591 26.2642C22.8754 26.1958 22.8816 25.9426 23.0706 25.6923C23.2596 25.442 23.5604 25.2944 23.7395 25.3632L23.7391 25.3586Z" fill="#8E1126"/>
</g>
<g style="mix-blend-mode:screen" opacity="0.5">
<path d="M24.1594 25.6732C23.8743 26.0581 23.5957 26.5174 22.8246 26.5839C22.8061 26.5855 22.8317 26.6113 22.846 26.6148C23.6408 26.7147 24.0038 26.0938 24.19 25.7034C24.2058 25.6692 24.184 25.6337 24.1547 25.6736L24.1594 25.6732Z" fill="white"/>
</g>
<g style="mix-blend-mode:screen" opacity="0.5">
<path d="M24.1406 25.4502L24.1422 25.4688C24.1422 25.4688 24.1327 25.5211 24.1486 25.5431C24.1646 25.5651 24.2029 25.5758 24.2098 25.5472C24.2132 25.5328 24.2167 25.5185 24.2155 25.5046C24.2135 25.4813 24.1501 25.3979 24.1406 25.4502Z" fill="white"/>
</g>
<path d="M19.3782 28.1306C19.7814 28.1941 19.8851 28.6906 19.6137 29.2334C19.3423 29.7763 18.8002 30.1646 18.3965 30.0965C17.9933 30.033 17.8896 29.5365 18.1564 28.9941C18.4278 28.4512 18.9745 28.0625 19.3731 28.1264L19.3782 28.1306Z" fill="#E40039"/>
<path d="M18.5533 30.1762C18.4975 30.181 18.4414 30.1812 18.3891 30.1716C18.2183 30.1442 18.0883 30.0478 18.0092 29.8909C17.8904 29.6531 17.9258 29.3037 18.0975 28.9614C18.3404 28.4678 18.8128 28.0854 19.2216 28.0502C19.2774 28.0454 19.3335 28.0452 19.3858 28.0547C19.5566 28.0821 19.6866 28.1785 19.7606 28.3313C19.8794 28.569 19.844 28.9184 19.6723 29.2608C19.4294 29.7543 18.9566 30.132 18.5478 30.1673L18.5533 30.1762ZM19.234 28.1942C18.8717 28.2254 18.4433 28.5759 18.2201 29.0257C18.0684 29.3289 18.0332 29.6267 18.1345 29.8239C18.1909 29.936 18.2856 30.0027 18.4092 30.0248C18.4518 30.0305 18.494 30.0316 18.5404 30.0275C18.9028 29.9963 19.3311 29.6458 19.5544 29.196C19.7061 28.8928 19.7366 28.5954 19.64 28.3978C19.5835 28.2857 19.4889 28.219 19.3653 28.1969C19.3227 28.1912 19.2805 28.1902 19.234 28.1942Z" fill="#8E1126"/>
<path d="M18.7127 28.5619C18.6721 28.5795 18.7672 28.6508 18.8082 28.6379C18.8669 28.6141 18.9312 28.5992 18.9954 28.5843C19.1657 28.5509 19.1868 28.741 19.1966 28.801C19.2042 28.8892 19.1835 28.9753 19.1536 29.0621C19.0856 29.2504 18.8944 29.4213 18.6861 29.5563C18.6726 29.5621 18.7025 29.583 18.716 29.5771C19.1352 29.3912 19.3288 29.1405 19.3093 28.8053C19.2945 28.5258 19.0503 28.4065 18.7181 28.5708L18.7127 28.5619Z" fill="#8E1126"/>
<g style="mix-blend-mode:multiply" opacity="0.5">
<path d="M19.0578 28.5364C19.2523 28.5664 19.2933 28.8249 19.1497 29.1134C19.0061 29.4019 18.7337 29.6079 18.5439 29.5774C18.3495 29.5474 18.3085 29.2889 18.4521 29.0004C18.5956 28.7119 18.868 28.5059 19.0578 28.5364Z" fill="#8E1126"/>
</g>
<g style="mix-blend-mode:screen" opacity="0.5">
<path d="M19.5318 28.7718C19.3175 29.2162 19.1226 29.7243 18.3651 29.9488C18.3466 29.9504 18.3768 29.9758 18.3908 29.9746C19.2049 29.9185 19.4491 29.2235 19.5667 28.7969C19.5775 28.7586 19.5468 28.7284 19.5272 28.7723L19.5318 28.7718Z" fill="white"/>
</g>
<g style="mix-blend-mode:screen" opacity="0.5">
<path d="M19.4744 28.5522L19.476 28.5708C19.4641 28.5952 19.4804 28.6219 19.501 28.6435C19.5212 28.6605 19.5638 28.6662 19.5614 28.6383C19.5602 28.6244 19.559 28.6105 19.5574 28.5919C19.5554 28.5687 19.4742 28.4961 19.4697 28.5526L19.4744 28.5522Z" fill="white"/>
</g>
<path d="M17.9464 26.6436C18.1832 27.0022 17.8437 27.4059 17.1959 27.546C16.5435 27.6865 15.8263 27.5097 15.5895 27.151C15.3527 26.7924 15.6922 26.3887 16.34 26.2487C16.9924 26.1082 17.7096 26.285 17.9418 26.644L17.9464 26.6436Z" fill="#E40039"/>
<path d="M16.9392 27.6619C16.326 27.7148 15.7478 27.5213 15.5324 27.1936C15.4355 27.0475 15.4177 26.8946 15.4792 26.7396C15.583 26.4779 15.8971 26.2683 16.329 26.1749C16.4207 26.153 16.5132 26.1403 16.6061 26.1323C17.2192 26.0794 17.7928 26.2733 18.0083 26.601C18.1051 26.7471 18.123 26.9 18.0615 27.055C17.9623 27.3163 17.6435 27.5263 17.2117 27.6197C17.12 27.6416 17.0275 27.6543 16.9346 27.6623L16.9392 27.6619ZM16.6193 26.2856C16.531 26.2932 16.4432 26.3055 16.3604 26.322C15.9835 26.4013 15.6952 26.5852 15.6153 26.798C15.573 26.9046 15.5864 27.0064 15.656 27.1081C15.8392 27.3871 16.3732 27.5563 16.926 27.5086C17.0142 27.501 17.0974 27.4892 17.1849 27.4723C17.5614 27.3883 17.8501 27.209 17.93 26.9962C17.9723 26.8896 17.9588 26.7878 17.8892 26.6862C17.7061 26.4072 17.1721 26.2379 16.6193 26.2856Z" fill="#8E1126"/>
<path d="M17.1079 26.4026C17.0641 26.383 17.0698 26.5041 17.1187 26.528C17.1823 26.56 17.2416 26.597 17.3014 26.6386C17.4511 26.7474 17.3091 26.8906 17.2662 26.9364C17.2018 27.0028 17.1113 27.0387 17.0157 27.0704C16.8111 27.1395 16.5314 27.0981 16.2675 27.0226C16.2532 27.0191 16.256 27.0516 16.2707 27.0597C16.7286 27.2683 17.0744 27.2618 17.3439 27.0233C17.566 26.831 17.4913 26.5614 17.1129 26.4068L17.1079 26.4026Z" fill="#8E1126"/>
<g style="mix-blend-mode:multiply" opacity="0.5">
<path d="M17.377 26.6552C17.4902 26.8279 17.3061 27.0263 16.9617 27.1028C16.617 27.1747 16.2501 27.0987 16.1369 26.9259C16.0237 26.7532 16.2079 26.5548 16.5522 26.4783C16.897 26.4065 17.2639 26.4824 17.377 26.6552Z" fill="#8E1126"/>
</g>
<g style="mix-blend-mode:screen" opacity="0.5">
<path d="M17.5257 27.1809C17.0025 27.3009 16.4327 27.4764 15.7016 27.0294C15.6818 27.0171 15.6854 27.0589 15.7001 27.067C16.3326 27.6722 17.0919 27.4149 17.5343 27.227C17.5703 27.2099 17.581 27.1715 17.5303 27.1805L17.5257 27.1809Z" fill="white"/>
</g>
<g style="mix-blend-mode:screen" opacity="0.5">
<path d="M17.6686 26.9907L17.6508 27.0016C17.6237 27.0133 17.6122 27.0424 17.6146 27.0702C17.617 27.0981 17.6388 27.1337 17.6651 27.1127C17.6782 27.1022 17.6913 27.0917 17.6998 27.0816C17.7172 27.0661 17.7169 26.9538 17.6682 26.9861L17.6686 26.9907Z" fill="white"/>
</g>
<path d="M13.4074 29.9834C13.7493 30.1504 13.671 30.6532 13.2422 31.1067C12.8087 31.5606 12.1833 31.797 11.8413 31.6299C11.4993 31.4629 11.573 30.9605 12.0065 30.5066C12.44 30.0528 13.0654 29.8163 13.4074 29.9834Z" fill="#E40039"/>
<path d="M12.1789 31.7505C12.0349 31.7629 11.9118 31.7454 11.809 31.6935C11.6772 31.63 11.5878 31.516 11.5657 31.3682C11.5196 31.1054 11.6681 30.765 11.9599 30.4591C12.273 30.1279 12.7071 29.8986 13.0695 29.8673C13.2134 29.8549 13.3366 29.8724 13.4394 29.9244C13.5712 29.9879 13.6606 30.1018 13.6827 30.2497C13.7287 30.5124 13.5849 30.8524 13.2935 31.163C12.9762 31.4992 12.5509 31.7231 12.184 31.7547L12.1789 31.7505ZM13.0764 30.0025C12.7466 30.0309 12.3442 30.2481 12.0524 30.554C11.7949 30.8243 11.6571 31.1263 11.6992 31.3426C11.7173 31.444 11.7756 31.5232 11.8683 31.5667C11.9466 31.6067 12.0508 31.6211 12.1669 31.6111C12.4967 31.5827 12.8992 31.3655 13.191 31.0595C13.4485 30.7893 13.5816 30.4877 13.5441 30.271C13.526 30.1696 13.4681 30.095 13.3751 30.0469C13.2967 30.0068 13.1925 29.9924 13.0764 30.0025Z" fill="#8E1126"/>
<path d="M12.6559 30.2302C12.6145 30.2385 12.674 30.3316 12.7205 30.3276C12.7808 30.3224 12.8459 30.3168 12.9071 30.3209C13.0716 30.3301 13.0273 30.5211 13.0135 30.5784C12.9928 30.6645 12.9435 30.7436 12.8845 30.8189C12.7584 30.9842 12.5295 31.0975 12.2881 31.1745C12.2741 31.1757 12.2909 31.207 12.3044 31.2011C12.7475 31.1302 13.0072 30.9393 13.11 30.6122C13.1894 30.3387 13.015 30.1618 12.6563 30.2349L12.6559 30.2302Z" fill="#8E1126"/>
<g style="mix-blend-mode:multiply" opacity="0.5">
<path d="M12.9794 30.2916C13.1453 30.3709 13.0926 30.6282 12.861 30.8728C12.6337 31.1123 12.3173 31.2425 12.1514 31.1633C11.9854 31.084 12.0377 30.8221 12.2651 30.5825C12.4924 30.343 12.8134 30.2124 12.9747 30.2921L12.9794 30.2916Z" fill="#8E1126"/>
</g>
<g style="mix-blend-mode:screen" opacity="0.5">
<path d="M13.3281 30.6356C12.9811 31.0072 12.6261 31.4496 11.8654 31.4731C11.8468 31.4747 11.8682 31.5056 11.8821 31.5044C12.6395 31.659 13.102 31.0529 13.3545 30.6708C13.3753 30.6409 13.3624 30.5999 13.3281 30.6356Z" fill="white"/>
</g>
<g style="mix-blend-mode:screen" opacity="0.5">
<path d="M13.35 30.4142L13.3424 30.4336C13.3424 30.4336 13.3328 30.4859 13.3488 30.5079C13.3601 30.5303 13.3942 30.5461 13.4057 30.517C13.4138 30.5023 13.4172 30.4879 13.4207 30.4736C13.4233 30.45 13.3781 30.3603 13.3547 30.4138L13.35 30.4142Z" fill="white"/>
</g>
<path d="M11.451 28.9917C11.7052 29.2271 11.5121 29.6462 11.0211 29.9225C10.5302 30.1989 9.92476 30.2324 9.67007 29.9923C9.41579 29.7568 9.60894 29.3377 10.0999 29.0614C10.5908 28.7851 11.1963 28.7516 11.451 28.9917Z" fill="#E40039"/>
<path d="M10.3108 30.2086C10.0135 30.2342 9.77447 30.1753 9.62694 30.0382C9.52523 29.9441 9.4823 29.8261 9.49856 29.689C9.52458 29.4481 9.74105 29.1907 10.0716 29.0078C10.2993 28.8805 10.5635 28.7969 10.8096 28.7757C11.1069 28.7501 11.346 28.809 11.4935 28.946C11.5952 29.0402 11.6382 29.1582 11.6219 29.2953C11.5959 29.5362 11.3841 29.7931 11.0489 29.9764C10.8212 30.1037 10.557 30.1873 10.3108 30.2086ZM10.8205 28.9011C10.5882 28.9211 10.3422 28.9985 10.128 29.1199C9.83772 29.2807 9.64207 29.5081 9.62174 29.7064C9.61117 29.8009 9.6416 29.8825 9.71264 29.9466C9.82989 30.0582 10.0445 30.1052 10.3 30.0831C10.5323 30.0631 10.7783 29.9857 10.9924 29.8643C11.2824 29.6989 11.4784 29.4761 11.4987 29.2778C11.5093 29.1833 11.4789 29.1017 11.4078 29.0377C11.291 28.9307 11.0759 28.8791 10.8205 28.9011Z" fill="#8E1126"/>
<path d="M10.7351 29.0019C10.6971 28.9958 10.7241 29.0918 10.7671 29.1021C10.824 29.1112 10.8771 29.13 10.9302 29.1489C11.0706 29.2023 10.9854 29.3547 10.9519 29.3997C10.9157 29.4683 10.85 29.5208 10.7797 29.5737C10.6298 29.6802 10.3987 29.7141 10.1745 29.7194C10.1606 29.7206 10.1723 29.7477 10.1816 29.7469C10.5891 29.8054 10.8618 29.7116 11.0314 29.4537C11.1721 29.2403 11.0654 29.0343 10.7304 29.0023L10.7351 29.0019Z" fill="#8E1126"/>
<g style="mix-blend-mode:multiply" opacity="0.5">
<path d="M10.9954 29.1481C11.1177 29.2639 11.0045 29.4702 10.7459 29.6189C10.4869 29.7629 10.1756 29.7897 10.0537 29.6786C9.93145 29.5628 10.0443 29.3518 10.3033 29.2078C10.5623 29.0638 10.8735 29.037 10.9954 29.1481Z" fill="#8E1126"/>
</g>
<g style="mix-blend-mode:screen" opacity="0.5">
<path d="M11.2125 29.5408C10.8159 29.7715 10.3958 30.0558 9.72892 29.8652C9.70994 29.8622 9.72203 29.8939 9.73172 29.8978C10.3506 30.2375 10.9059 29.8386 11.2249 29.5771C11.2512 29.5561 11.248 29.519 11.2078 29.5412L11.2125 29.5408Z" fill="white"/>
</g>
<g style="mix-blend-mode:screen" opacity="0.5">
<path d="M11.2901 29.3517L11.2772 29.367C11.2772 29.367 11.2524 29.4069 11.2595 29.4345C11.2615 29.458 11.2916 29.4789 11.3087 29.4586C11.3173 29.4484 11.3258 29.4383 11.334 29.4234C11.3417 29.4039 11.3247 29.3157 11.2905 29.3564L11.2901 29.3517Z" fill="white"/>
</g>
<path d="M8.63731 30.6805C8.91112 30.437 9.33807 30.6669 9.58507 31.1978C9.83208 31.7287 9.81609 32.3571 9.53763 32.6011C9.26382 32.8446 8.83685 32.6147 8.58985 32.0838C8.3382 31.5533 8.35884 30.9245 8.63266 30.6809L8.63731 30.6805Z" fill="#E40039"/>
<path d="M9.32719 32.7643C9.0392 32.7891 8.73181 32.5349 8.53198 32.1169C8.26319 31.5504 8.29153 30.9022 8.59121 30.633C8.66497 30.5658 8.75082 30.5304 8.84372 30.5223C9.12707 30.4979 9.43909 30.7518 9.63892 31.1697C9.90307 31.7366 9.87939 32.3844 9.57971 32.6536C9.50595 32.7208 9.4201 32.7563 9.32719 32.7643ZM8.85957 30.652C8.79454 30.6576 8.73152 30.6864 8.67938 30.7331C8.43184 30.9556 8.41848 31.5604 8.653 32.055C8.8248 32.4192 9.09262 32.6488 9.32023 32.6292C9.38526 32.6236 9.44828 32.5947 9.50042 32.5481C9.75221 32.3205 9.76676 31.7296 9.5268 31.2262C9.355 30.862 9.08718 30.6324 8.85957 30.652Z" fill="#8E1126"/>
<path d="M8.58512 31.4197C8.57479 31.4627 8.68042 31.4396 8.69539 31.3962C8.71381 31.3384 8.73264 31.2853 8.76035 31.2268C8.8277 31.0853 8.9817 31.189 9.03096 31.2175C9.10039 31.263 9.15326 31.3333 9.19723 31.4091C9.30031 31.5733 9.31649 31.8153 9.29896 32.0461C9.30016 32.06 9.32762 32.053 9.33147 32.0433C9.42668 31.6279 9.35499 31.3393 9.09462 31.1418C8.87926 30.9779 8.65381 31.0769 8.58975 31.4193L8.58512 31.4197Z" fill="#8E1126"/>
<g style="mix-blend-mode:multiply" opacity="0.5">
<path d="M8.75857 31.1615C8.88871 31.0427 9.10591 31.1737 9.23759 31.4525C9.36926 31.7313 9.36902 32.0542 9.23889 32.173C9.10875 32.2919 8.89156 32.1609 8.75989 31.8821C8.62821 31.6033 8.62843 31.2804 8.75857 31.1615Z" fill="#8E1126"/>
</g>
<g style="mix-blend-mode:screen" opacity="0.5">
<path d="M9.19703 30.9694C9.40696 31.3958 9.67119 31.855 9.411 32.528C9.40331 32.5473 9.43967 32.5348 9.44815 32.5247C9.86299 31.9087 9.488 31.3046 9.23804 30.9565C9.21665 30.9256 9.17949 30.9288 9.19703 30.9694Z" fill="white"/>
</g>
<g style="mix-blend-mode:screen" opacity="0.5">
<path d="M9.00113 30.8741L9.01639 30.887C9.01639 30.887 9.06135 30.9161 9.08435 30.9094C9.10776 30.9074 9.1385 30.8811 9.11307 30.8598C9.1029 30.8512 9.09274 30.8426 9.07789 30.8345C9.05796 30.8221 8.96005 30.8352 9.00113 30.8741Z" fill="white"/>
</g>
<path d="M5.20843 30.3959C5.60726 30.4083 5.78723 30.9215 5.6113 31.5404C5.43537 32.1592 4.97215 32.6484 4.57331 32.636C4.17447 32.6236 3.9945 32.1103 4.17044 31.4915C4.34637 30.8727 4.80959 30.3835 5.20843 30.3959Z" fill="#E40039"/>
<path d="M4.63456 32.7056C4.63456 32.7056 4.5881 32.7096 4.56952 32.7112C4.40998 32.7063 4.27232 32.6292 4.17629 32.4924C4.0157 32.2583 3.98286 31.8774 4.10249 31.474C4.28491 30.8218 4.77439 30.3116 5.21079 30.3255C5.37032 30.3304 5.508 30.4075 5.60403 30.5443C5.76926 30.778 5.79745 31.1593 5.68246 31.5623C5.50653 32.1812 5.05765 32.6738 4.63959 32.7099L4.63456 32.7056ZM5.15313 30.4708C4.79546 30.5017 4.39023 30.9578 4.23231 31.5143C4.13189 31.8692 4.15225 32.2137 4.2856 32.4035C4.3552 32.5051 4.4533 32.5575 4.57063 32.5614C4.94584 32.5711 5.37309 32.0991 5.54294 31.5182C5.64336 31.1633 5.62302 30.8187 5.48966 30.629C5.42007 30.5274 5.3266 30.4746 5.20927 30.4707C5.19069 30.4723 5.17676 30.4735 5.15818 30.4751L5.15313 30.4708Z" fill="#8E1126"/>
<path d="M4.63276 30.9512C4.59761 30.9776 4.69653 31.0393 4.73673 31.0171C4.79007 30.9844 4.84844 30.956 4.90722 30.9322C5.06579 30.8717 5.11554 31.0686 5.13508 31.1325C5.16167 31.2238 5.15111 31.3183 5.1359 31.4132C5.10243 31.622 4.94234 31.8276 4.76086 32.0024C4.75237 32.0125 4.78185 32.0287 4.79033 32.0186C5.16594 31.7615 5.31377 31.468 5.24112 31.114C5.18297 30.8195 4.9314 30.7242 4.63236 30.9465L4.63276 30.9512Z" fill="#8E1126"/>
<g style="mix-blend-mode:multiply" opacity="0.5">
<path d="M4.96408 30.8753C5.15653 30.8821 5.23592 31.1514 5.14238 31.4777C5.04885 31.804 4.81844 32.0625 4.62599 32.0557C4.43354 32.0489 4.35416 31.7796 4.4477 31.4533C4.54123 31.1271 4.77163 30.8685 4.96408 30.8753Z" fill="#8E1126"/>
</g>
<g style="mix-blend-mode:screen" opacity="0.5">
<path d="M5.45591 31.0577C5.32146 31.5606 5.21159 32.1317 4.51603 32.4771C4.49826 32.488 4.53237 32.5038 4.54631 32.5026C5.32211 32.328 5.45191 31.5541 5.49507 31.0777C5.50075 31.0351 5.46584 31.01 5.45591 31.0577Z" fill="white"/>
</g>
<g style="mix-blend-mode:screen" opacity="0.5">
<path d="M5.3665 30.8319L5.3685 30.8551C5.36626 30.8834 5.3826 30.91 5.40743 30.9266C5.42721 30.939 5.46982 30.9446 5.46701 30.9121C5.46541 30.8935 5.46421 30.8796 5.45836 30.8661C5.45171 30.8432 5.36169 30.7761 5.3669 30.8365L5.3665 30.8319Z" fill="white"/>
</g>
<path d="M38.0226 21.3606C38.4181 21.4435 38.5075 21.9365 38.2209 22.4666C37.9344 22.9967 37.3763 23.363 36.9808 23.2802C36.581 23.2023 36.4959 22.7043 36.7825 22.1742C37.069 21.6441 37.627 21.2777 38.0222 21.356L38.0226 21.3606Z" fill="#E40039"/>
<path d="M37.1603 23.3629C37.0906 23.3689 37.0294 23.3648 36.9674 23.3515C36.7962 23.3194 36.6705 23.218 36.6007 23.0602C36.4912 22.8216 36.5363 22.4761 36.7223 22.1372C36.9765 21.666 37.4374 21.3127 37.8462 21.2775C37.9112 21.2719 37.977 21.2756 38.039 21.2889C38.2056 21.3214 38.336 21.4224 38.4058 21.5802C38.5153 21.8188 38.4702 22.1643 38.2888 22.5028C38.0346 22.974 37.5737 23.3273 37.1649 23.3625L37.1603 23.3629ZM37.854 21.4219C37.4963 21.4527 37.0709 21.7842 36.841 22.2112C36.6793 22.5059 36.6348 22.8045 36.7268 23.0025C36.7786 23.115 36.869 23.1868 36.993 23.2135C37.0406 23.2235 37.0921 23.2237 37.1479 23.2189C37.5055 23.1881 37.9309 22.8566 38.1608 22.4296C38.3222 22.1302 38.3624 21.8366 38.2751 21.6383C38.2232 21.5257 38.1328 21.454 38.0088 21.4272C37.9612 21.4173 37.9097 21.4171 37.854 21.4219Z" fill="#8E1126"/>
<path d="M37.3458 21.7651C37.3052 21.7826 37.3956 21.8544 37.4413 21.8411C37.5004 21.822 37.5643 21.8024 37.6289 21.7922C37.7996 21.7634 37.816 21.9539 37.8212 22.0143C37.8288 22.1025 37.8031 22.1843 37.7685 22.2715C37.6955 22.4556 37.4989 22.6176 37.2851 22.7437C37.2716 22.7495 37.3015 22.7704 37.3103 22.7649C37.7354 22.5926 37.9349 22.3554 37.9246 22.0194C37.9191 21.7391 37.6834 21.6096 37.3458 21.7651Z" fill="#8E1126"/>
<g style="mix-blend-mode:multiply" opacity="0.5">
<path d="M37.6908 21.7545C37.8814 21.7942 37.9131 22.0535 37.7641 22.3331C37.6104 22.6131 37.3372 22.8098 37.1419 22.7705C36.9513 22.7308 36.9196 22.4714 37.0687 22.1918C37.2223 21.9118 37.5001 21.7147 37.6908 21.7545Z" fill="#8E1126"/>
</g>
<g style="mix-blend-mode:screen" opacity="0.5">
<path d="M38.1526 22.0045C37.9277 22.4357 37.7135 22.9362 36.9536 23.1328C36.935 23.1344 36.9653 23.1598 36.9796 23.1633C37.7919 23.14 38.0606 22.4571 38.1879 22.0343C38.1986 21.9959 38.1726 21.9654 38.1483 22.0096L38.1526 22.0045Z" fill="white"/>
</g>
<g style="mix-blend-mode:screen" opacity="0.5">
<path d="M38.1057 21.784L38.1074 21.8026C38.0954 21.827 38.1118 21.8537 38.1323 21.8753C38.1525 21.8923 38.1909 21.903 38.1927 21.8701C38.1915 21.8561 38.1903 21.8422 38.1891 21.8283C38.1871 21.805 38.1106 21.7321 38.1057 21.784Z" fill="white"/>
</g>
<path d="M42.5626 17.5581C42.8819 17.7879 42.7043 18.2244 42.1647 18.533C41.6247 18.8369 40.9279 18.897 40.6086 18.6672C40.2893 18.4373 40.4669 18.0008 41.0069 17.6969C41.547 17.3929 42.2437 17.3329 42.563 17.5627L42.5626 17.5581Z" fill="#E40039"/>
<path d="M41.3085 18.869C40.9973 18.8958 40.7354 18.8436 40.5705 18.7221C40.4409 18.6303 40.3782 18.5 40.3844 18.3544C40.3957 18.1054 40.6156 17.8337 40.9774 17.6341C41.2449 17.48 41.564 17.3822 41.866 17.3562C42.1679 17.3302 42.4391 17.3817 42.604 17.5031C42.7336 17.5949 42.7963 17.7252 42.7901 17.8708C42.7788 18.1198 42.5589 18.3915 42.1971 18.5911C41.9296 18.7452 41.6105 18.843 41.3085 18.869ZM41.8776 17.4909C41.5942 17.5153 41.2979 17.6064 41.0436 17.75C40.7312 17.9267 40.5313 18.1592 40.5203 18.3567C40.5148 18.4555 40.5595 18.5405 40.6492 18.603C40.7888 18.7032 41.0267 18.7482 41.3008 18.7246C41.5748 18.701 41.8804 18.6091 42.1348 18.4655C42.4471 18.2888 42.647 18.0563 42.6581 17.8588C42.6636 17.7601 42.6192 17.6797 42.5292 17.6125C42.3895 17.5123 42.1516 17.4673 41.8776 17.4909Z" fill="#8E1126"/>
<path d="M41.7371 17.601C41.6899 17.5957 41.7359 17.6947 41.7831 17.7C41.8494 17.7083 41.916 17.7213 41.9784 17.7393C42.1462 17.7857 42.0618 17.9474 42.0333 17.9966C41.9975 18.0699 41.9276 18.1274 41.8527 18.1807C41.6896 18.2977 41.4268 18.3438 41.1659 18.3569C41.152 18.3581 41.1683 18.3848 41.1776 18.384C41.654 18.4271 41.958 18.3167 42.1264 18.0448C42.2659 17.8175 42.1174 17.615 41.7321 17.5968L41.7371 17.601Z" fill="#8E1126"/>
<g style="mix-blend-mode:multiply" opacity="0.5">
<path d="M42.0563 17.7329C42.2111 17.8459 42.1037 18.0657 41.8181 18.2261C41.5324 18.3864 41.1802 18.4261 41.0258 18.3178C40.871 18.2048 40.9783 17.9849 41.2594 17.825C41.545 17.6647 41.9015 17.6199 42.0517 17.7333L42.0563 17.7329Z" fill="#8E1126"/>
</g>
<g style="mix-blend-mode:screen" opacity="0.5">
<path d="M42.3486 18.1285C41.9164 18.381 41.4566 18.6921 40.6705 18.5306C40.6515 18.5275 40.6682 18.5589 40.6779 18.5627C41.4308 18.8815 42.0297 18.4461 42.3703 18.1641C42.3962 18.1384 42.393 18.1013 42.3486 18.1285Z" fill="white"/>
</g>
<g style="mix-blend-mode:screen" opacity="0.5">
<path d="M42.4159 17.9313L42.4031 17.9465C42.4031 17.9465 42.3786 17.9911 42.3904 18.0183C42.3971 18.0414 42.4323 18.0666 42.449 18.0416C42.4575 18.0314 42.4657 18.0166 42.4696 18.0068C42.4773 17.9873 42.4458 17.8957 42.4163 17.9359L42.4159 17.9313Z" fill="white"/>
</g>
<path d="M38.4996 16.6964C38.8746 16.65 39.0171 17.0542 38.8204 17.5953C38.6242 18.141 38.1597 18.6163 37.7851 18.6673C37.41 18.7137 37.2679 18.3141 37.4642 17.7684C37.6605 17.2227 38.1296 16.747 38.4996 16.6964Z" fill="#E40039"/>
<path d="M37.7664 18.7342C37.6131 18.7474 37.4918 18.697 37.4071 18.5827C37.2745 18.4022 37.2713 18.0937 37.4004 17.7456C37.6048 17.1851 38.0951 16.6843 38.4887 16.6363L38.5119 16.6343C38.6652 16.621 38.7865 16.6714 38.8713 16.7858C39.0038 16.9662 39.007 17.2748 38.8779 17.6229C38.6701 18.1977 38.1926 18.6834 37.7897 18.7322L37.7664 18.7342ZM38.5227 16.7597L38.5041 16.7613C38.1523 16.8057 37.7103 17.2696 37.5167 17.7917C37.4072 18.096 37.4022 18.3632 37.5079 18.5038C37.5658 18.5783 37.6484 18.6133 37.7552 18.6041L37.7738 18.6025C38.1256 18.5581 38.568 18.0988 38.7613 17.5721C38.8707 17.2678 38.8758 17.0007 38.77 16.86C38.7168 16.7851 38.6342 16.7501 38.5227 16.7597Z" fill="#8E1126"/>
<path d="M37.9336 17.2459C37.8985 17.2724 37.9907 17.3112 38.0305 17.2844C38.0835 17.2471 38.1372 17.219 38.1952 17.186C38.3479 17.112 38.3852 17.2725 38.3989 17.3228C38.4192 17.3959 38.4028 17.4769 38.3817 17.5583C38.3365 17.74 38.1757 17.9364 37.9984 18.1061C37.9899 18.1162 38.014 18.1235 38.0275 18.1176C38.3973 17.8471 38.5475 17.5814 38.499 17.2908C38.4596 17.0508 38.2268 17.0101 37.9379 17.2409L37.9336 17.2459Z" fill="#8E1126"/>
<g style="mix-blend-mode:multiply" opacity="0.5">
<path d="M38.2426 17.135C38.4229 17.1101 38.4836 17.3248 38.3822 17.6143C38.2757 17.8996 38.0496 18.153 37.8688 18.1733C37.6885 18.1982 37.6278 17.9835 37.7292 17.694C37.8352 17.4041 38.0664 17.1548 38.2472 17.1346L38.2426 17.135Z" fill="#8E1126"/>
</g>
<g style="mix-blend-mode:screen" opacity="0.5">
<path d="M38.698 17.2126C38.544 17.6518 38.4091 18.1501 37.7362 18.5404C37.7184 18.5513 37.7521 18.5624 37.7656 18.5565C38.506 18.2962 38.6682 17.627 38.7363 17.2234C38.7428 17.1901 38.713 17.1692 38.698 17.2126Z" fill="white"/>
</g>
<g style="mix-blend-mode:screen" opacity="0.5">
<path d="M38.6275 17.0365L38.6291 17.0552C38.6217 17.0795 38.6374 17.097 38.662 17.109C38.6816 17.1167 38.719 17.1135 38.7166 17.0854C38.7154 17.0714 38.7142 17.0573 38.7133 17.048C38.7117 17.0293 38.6281 16.9893 38.6321 17.0361L38.6275 17.0365Z" fill="white"/>
</g>
<path d="M27.4832 24.5533C27.5112 24.8784 27.2828 25.1602 26.9716 25.187C26.6604 25.2139 26.3871 24.9754 26.3591 24.6502C26.331 24.3251 26.5594 24.0433 26.8707 24.0165C27.1819 23.9896 27.4551 24.2281 27.4832 24.5533Z" fill="white"/>
<path d="M26.978 25.2659C26.625 25.2963 26.3113 25.0239 26.2797 24.6569C26.248 24.29 26.5104 23.9678 26.8634 23.9374C27.2165 23.907 27.5301 24.1794 27.5617 24.5464C27.5934 24.9133 27.331 25.2354 26.978 25.2659ZM26.8771 24.0953C26.6076 24.1186 26.4089 24.365 26.433 24.6437C26.457 24.9224 26.695 25.1312 26.9644 25.108C27.2338 25.0847 27.4325 24.8383 27.4084 24.5596C27.3844 24.2809 27.1465 24.0721 26.8771 24.0953Z" fill="#D0D0D0"/>
<g style="mix-blend-mode:multiply">
<path d="M26.8699 24.0165C26.5587 24.0433 26.3303 24.3251 26.3583 24.6502C26.3864 24.9754 26.6597 25.2139 26.9709 25.187C27.2821 25.1602 27.5105 24.8784 27.4824 24.5533C27.4544 24.2281 27.1811 23.9896 26.8699 24.0165ZM26.8465 24.8842C26.6374 24.9023 26.455 24.7402 26.4366 24.5265C26.4182 24.3128 26.5702 24.1219 26.7792 24.1038C26.9882 24.0858 27.1707 24.2479 27.1891 24.4616C27.2075 24.6753 27.0555 24.8662 26.8465 24.8842Z" fill="#E2D5D5"/>
</g>
<path d="M32.0186 24.3871C32.039 24.624 31.8701 24.8351 31.6425 24.8547C31.4148 24.8743 31.2122 24.6953 31.1918 24.4584C31.1714 24.2215 31.3403 24.0103 31.5679 23.9907C31.7956 23.9711 31.9982 24.1502 32.0186 24.3871Z" fill="white"/>
<path d="M31.6478 24.9107C31.3876 24.9331 31.1551 24.7332 31.1319 24.4638C31.1087 24.1944 31.3035 23.9576 31.5636 23.9352C31.8238 23.9128 32.0563 24.1127 32.0795 24.3821C32.1027 24.6515 31.9079 24.8882 31.6478 24.9107ZM31.5737 24.0513C31.3739 24.0686 31.2304 24.2494 31.248 24.4538C31.2657 24.6582 31.4426 24.8114 31.6377 24.7945C31.8328 24.7777 31.981 24.5965 31.9634 24.3921C31.9458 24.1877 31.7687 24.0345 31.5737 24.0513Z" fill="#D0D0D0"/>
<g style="mix-blend-mode:multiply">
<path d="M31.567 23.9912C31.3394 24.0108 31.1704 24.222 31.1908 24.4589C31.2112 24.6957 31.4139 24.8748 31.6415 24.8552C31.8691 24.8356 32.0381 24.6244 32.0176 24.3875C31.9972 24.1506 31.7946 23.9716 31.567 23.9912ZM31.5518 24.6289C31.3985 24.6422 31.2619 24.5229 31.2482 24.365C31.2346 24.2071 31.3488 24.0662 31.5021 24.053C31.6554 24.0397 31.792 24.159 31.8056 24.3169C31.8193 24.4748 31.7051 24.6157 31.5518 24.6289Z" fill="#E2D5D5"/>
</g>
<path d="M15.1894 30.4013C15.2131 30.6754 15.0182 30.9121 14.7535 30.935C14.4887 30.9578 14.2558 30.7533 14.2326 30.4838C14.2093 30.2144 14.4034 29.9684 14.6681 29.9456C14.9329 29.9227 15.1658 30.1273 15.1894 30.4013Z" fill="white"/>
<path d="M14.7644 31.004C14.4672 31.0296 14.1993 30.8 14.1725 30.4888C14.1457 30.1776 14.3656 29.9059 14.6675 29.8799C14.9694 29.8539 15.2326 30.0839 15.2594 30.3951C15.2863 30.7063 15.0664 30.978 14.7644 31.004ZM14.6791 30.0146C14.4515 30.0342 14.2821 30.2407 14.3026 30.4776C14.323 30.7145 14.5252 30.8889 14.7528 30.8693C14.9804 30.8497 15.1498 30.6432 15.1294 30.4063C15.1089 30.1694 14.9067 29.995 14.6791 30.0146Z" fill="#D0D0D0"/>
<g style="mix-blend-mode:multiply">
<path d="M14.6735 29.9446C14.4087 29.9674 14.2143 30.2088 14.2379 30.4829C14.2616 30.7569 14.4941 30.9568 14.7588 30.934C15.0236 30.9111 15.218 30.6698 15.1948 30.4003C15.1716 30.1309 14.9383 29.9217 14.6735 29.9446ZM14.6528 30.6811C14.4763 30.6963 14.3195 30.5601 14.3038 30.3789C14.2882 30.1977 14.419 30.032 14.5955 30.0168C14.772 30.0016 14.9288 30.1378 14.9449 30.3236C14.9609 30.5094 14.8293 30.6658 14.6528 30.6811Z" fill="#E2D5D5"/>
</g>
<path d="M7.68414 32.3016C7.70978 32.5989 7.49836 32.8605 7.21036 32.8853C6.92237 32.9102 6.66927 32.6887 6.64364 32.3914C6.618 32.0941 6.82943 31.8325 7.11743 31.8077C7.40542 31.7828 7.6585 32.0044 7.68414 32.3016Z" fill="white"/>
<path d="M7.21668 32.9552C6.89153 32.9833 6.60311 32.732 6.57387 32.3929C6.54463 32.0538 6.78577 31.757 7.11093 31.7289C7.43608 31.7009 7.72448 31.9521 7.75373 32.2912C7.78297 32.6303 7.54184 32.9272 7.21668 32.9552ZM7.12415 31.8822C6.87796 31.9034 6.69624 32.1297 6.71827 32.3852C6.7403 32.6406 6.95808 32.8324 7.20426 32.8112C7.45045 32.79 7.63216 32.5637 7.61013 32.3083C7.5881 32.0528 7.37034 31.861 7.12415 31.8822Z" fill="#D0D0D0"/>
<g style="mix-blend-mode:multiply">
<path d="M7.11743 31.8077C6.82943 31.8325 6.618 32.0941 6.64364 32.3914C6.66927 32.6887 6.92237 32.9102 7.21036 32.8853C7.49836 32.8605 7.70978 32.5989 7.68414 32.3016C7.6585 32.0044 7.40542 31.7828 7.11743 31.8077ZM7.09727 32.605C6.90682 32.6214 6.73487 32.4724 6.71764 32.2727C6.70042 32.0729 6.84433 31.8967 7.03478 31.8803C7.22523 31.8639 7.39718 32.0128 7.4144 32.2126C7.43163 32.4123 7.29236 32.5881 7.09727 32.605Z" fill="#E2D5D5"/>
</g>
<path d="M36.8881 18.3521C36.9113 18.6215 36.7211 18.8579 36.461 18.8803C36.2009 18.9027 35.973 18.7025 35.9498 18.433C35.9265 18.1636 36.1167 17.9273 36.3769 17.9049C36.637 17.8824 36.8648 18.0827 36.8881 18.3521Z" fill="white"/>
<path d="M36.4676 18.945C36.1749 18.9702 35.9122 18.7448 35.8857 18.4383C35.8593 18.1317 36.0792 17.86 36.3718 17.8348C36.6645 17.8096 36.9277 18.0396 36.9541 18.3461C36.9805 18.6527 36.7602 18.9197 36.4676 18.945ZM36.3835 17.9695C36.1605 17.9887 35.9911 18.1952 36.0111 18.4275C36.0312 18.6597 36.2288 18.8345 36.4564 18.8149C36.684 18.7953 36.8487 18.5892 36.8287 18.357C36.8086 18.1247 36.6111 17.9499 36.3835 17.9695Z" fill="#D0D0D0"/>
<g style="mix-blend-mode:multiply">
<path d="M36.3774 17.9044C36.1172 17.9268 35.927 18.1631 35.9503 18.4326C35.9735 18.702 36.2014 18.9023 36.4615 18.8798C36.7216 18.8574 36.9118 18.6211 36.8886 18.3516C36.8653 18.0822 36.6375 17.8819 36.3774 17.9044ZM36.3554 18.6269C36.1836 18.6417 36.0267 18.5055 36.0111 18.3244C35.9955 18.1432 36.122 17.9825 36.2985 17.9673C36.4751 17.9521 36.6272 18.0887 36.6429 18.2699C36.6585 18.451 36.5273 18.6121 36.3554 18.6269Z" fill="#E2D5D5"/>
</g>
<path d="M44.1664 19.3478C44.1896 19.6172 43.9994 19.8536 43.7347 19.8764C43.4699 19.8992 43.2467 19.6986 43.2235 19.4291C43.2002 19.1597 43.3904 18.9234 43.6506 18.9009C43.9107 18.8785 44.1432 19.0784 44.1664 19.3478Z" fill="white"/>
<path d="M43.7455 19.9408C43.4528 19.966 43.1897 19.736 43.1636 19.4341C43.1376 19.1322 43.3575 18.8605 43.6501 18.8353C43.9428 18.81 44.206 19.0401 44.232 19.342C44.258 19.6439 44.0381 19.9156 43.7455 19.9408ZM43.6614 18.9653C43.4384 18.9846 43.2737 19.1906 43.2937 19.4229C43.3137 19.6551 43.5113 19.83 43.7343 19.8107C43.9572 19.7915 44.1266 19.585 44.1066 19.3528C44.0866 19.1205 43.889 18.9457 43.6614 18.9653Z" fill="#D0D0D0"/>
<g style="mix-blend-mode:multiply">
<path d="M43.654 18.9005C43.3938 18.9229 43.2036 19.1592 43.2269 19.4287C43.2501 19.6981 43.478 19.8984 43.7381 19.8759C43.9982 19.8535 44.1931 19.6167 44.1698 19.3473C44.1466 19.0779 43.9187 18.8776 43.654 18.9005ZM43.6321 19.623C43.4555 19.6382 43.3038 19.5063 43.2881 19.3251C43.2725 19.1439 43.3991 18.9833 43.5756 18.9681C43.7521 18.9528 43.9043 19.0895 43.9199 19.2706C43.9355 19.4518 43.8086 19.6078 43.6321 19.623Z" fill="#E2D5D5"/>
</g>
<path d="M39.4822 22.5589C39.5002 22.7679 39.352 22.9492 39.1523 22.9664C38.9526 22.9836 38.7756 22.8304 38.7575 22.6214C38.7395 22.4123 38.8877 22.2311 39.0874 22.2139C39.2872 22.1966 39.4641 22.3499 39.4822 22.5589Z" fill="white"/>
<path d="M39.1568 23.0178C38.9292 23.0374 38.727 22.863 38.7065 22.6261C38.6861 22.3892 38.8555 22.1827 39.0831 22.1631C39.3107 22.1435 39.5129 22.3179 39.5334 22.5548C39.5538 22.7917 39.3844 22.9981 39.1568 23.0178ZM39.0919 22.2653C38.92 22.2801 38.7931 22.4361 38.8087 22.6173C38.8243 22.7984 38.9761 22.9304 39.148 22.9156C39.3199 22.9008 39.4468 22.7448 39.4312 22.5636C39.4155 22.3824 39.2638 22.2504 39.0919 22.2653Z" fill="#D0D0D0"/>
<g style="mix-blend-mode:multiply">
<path d="M39.0884 22.2139C38.8887 22.2311 38.7405 22.4123 38.7585 22.6214C38.7765 22.8304 38.9535 22.9836 39.1533 22.9664C39.353 22.9492 39.5012 22.7679 39.4832 22.5589C39.4651 22.3499 39.2881 22.1966 39.0884 22.2139ZM39.0757 22.7718C38.941 22.7835 38.8245 22.6812 38.8125 22.5418C38.8005 22.4025 38.8977 22.2818 39.0324 22.2702C39.1671 22.2586 39.2836 22.3608 39.2956 22.5002C39.3076 22.6395 39.2104 22.7602 39.0757 22.7718Z" fill="#E2D5D5"/>
</g>
<path d="M6.69453 34.8489C6.39748 34.5517 5.91431 34.701 5.59893 34.8966C5.29204 35.0822 5.06758 35.518 5.06126 35.8789C5.06102 35.9304 5.11155 35.8652 5.1146 35.8462C5.30014 35.0675 5.90119 34.7114 6.61326 34.9917C6.66171 35.0109 6.73065 34.8879 6.69453 34.8489Z" fill="#EDB52C"/>
<path d="M11.206 33.3275C10.7546 32.9219 9.95378 33.5666 9.8999 34.0813C9.89197 34.1522 9.96876 34.066 9.97565 34.0373C10.0461 33.7692 10.286 33.566 10.5133 33.4341C10.7228 33.3131 10.936 33.3976 11.1506 33.4446C11.1886 33.4507 11.2363 33.353 11.2107 33.3271L11.206 33.3275Z" fill="#EDB52C"/>
<path d="M17.9547 31.3835C17.6092 31.067 16.976 30.9952 16.5768 31.2496C16.4129 31.3573 16.0841 31.615 16.0755 31.8404C16.0763 31.8496 16.0775 31.8636 16.0872 31.8674C16.0965 31.8666 16.1011 31.8662 16.1104 31.8654C16.129 31.8638 16.1494 31.8293 16.1478 31.8107C16.1414 31.7364 16.3079 31.6051 16.3596 31.5538C16.5149 31.4 16.6966 31.3376 16.9045 31.3056C17.2466 31.2574 17.5537 31.3994 17.8607 31.5413C17.9146 31.5694 17.9998 31.417 17.9543 31.3788L17.9547 31.3835Z" fill="#EDB52C"/>
<path d="M24.5321 28.7057C23.9819 28.7298 23.1483 28.9935 22.8642 29.5515C22.8642 29.5515 22.8591 29.5473 22.8498 29.5481C22.4724 29.5666 22.1172 29.7891 21.8597 30.0593C21.6625 30.2682 21.4518 30.6467 21.5247 30.9492C21.5267 30.9725 21.5449 30.9662 21.5584 30.9604C21.5893 30.939 21.6067 30.9235 21.6174 30.8851C21.617 30.8804 21.6247 30.8611 21.615 30.8572C21.5635 30.857 21.6852 30.4768 21.6963 30.4431C21.7778 30.2489 21.9296 30.1094 22.0926 29.9924C22.2997 29.8435 22.547 29.7801 22.7849 29.7175C22.7849 29.7175 22.7895 29.7171 22.7938 29.712C22.7654 29.8174 22.7518 29.9309 22.7626 30.0563C22.7666 30.1028 22.8338 30.0127 22.8314 29.9849C22.8081 29.1726 23.8608 29.007 24.4447 28.8864C24.4954 28.8774 24.5924 28.7005 24.5224 28.7019L24.5321 28.7057Z" fill="#EDB52C"/>
<path d="M27.2498 27.5964C27.0015 27.4306 26.6468 27.5501 26.4094 27.6735C26.1678 27.802 26.026 28.0576 25.916 28.301C25.8848 28.3739 25.9452 28.3687 25.9733 28.3148C26.2217 27.8301 26.6386 27.6725 27.1458 27.8019C27.2078 27.8153 27.3087 27.6287 27.2494 27.5917L27.2498 27.5964Z" fill="#EDB52C"/>
<path d="M30.4596 26.0891C30.1672 25.7914 29.4163 25.8749 29.2253 26.2657C29.198 26.3289 29.2487 26.3199 29.278 26.2799C29.3848 26.1069 29.6705 26.1103 29.8355 26.1242C30.0284 26.1356 30.1951 26.2242 30.3799 26.2504C30.4322 26.2599 30.4957 26.1281 30.4596 26.0891Z" fill="#EDB52C"/>
<path d="M21.7677 24.3158C21.0663 24.6477 20.4507 24.6727 19.7904 24.2336C19.7656 24.2171 19.7209 24.2958 19.7411 24.3128C20.2811 24.9307 21.1017 24.8412 21.7433 24.4677C21.7789 24.4459 21.8353 24.2866 21.7723 24.3154L21.7677 24.3158Z" fill="#EDB52C"/>
<path d="M23.5173 23.1212C23.3594 23.57 23.0123 23.7778 22.5707 23.8112C22.3245 23.8324 21.7618 23.6563 21.6711 23.3646C21.6699 23.3507 21.6448 23.3856 21.6456 23.3949C21.7081 23.8481 22.4516 24.004 22.8032 23.9034C23.1638 23.7975 23.5521 23.5253 23.5761 23.0974C23.5805 23.0409 23.525 23.1018 23.5173 23.1212Z" fill="#EDB52C"/>
<path d="M25.3108 22.4807C25.2065 22.6815 25.1036 22.8448 24.892 22.9426C24.6983 23.0295 24.4564 23.0457 24.2614 22.9549C24.2323 22.9434 24.1918 23.017 24.2124 23.0387C24.6522 23.4172 25.2475 22.9401 25.3762 22.4797C25.3977 22.403 25.3262 22.4419 25.3062 22.4811L25.3108 22.4807Z" fill="#EDB52C"/>
<path d="M26.5199 20.8829C26.5125 21.3936 25.976 21.5756 25.5573 21.5509C25.5151 21.5498 25.4466 21.6774 25.4993 21.6916C25.972 21.8006 26.6252 21.3979 26.5635 20.8464C26.5607 20.8139 26.5187 20.869 26.5203 20.8875L26.5199 20.8829Z" fill="#EDB52C"/>
<path d="M44.0295 21.5537C43.548 21.614 43.2529 21.9904 43.0059 22.3814C42.9727 22.431 43.0015 22.4941 43.0474 22.4293C43.293 22.0758 43.556 21.8145 43.9773 21.708C44.0187 21.6997 44.0849 21.5443 44.0295 21.5537Z" fill="#EDB52C"/>
<g style="mix-blend-mode:multiply" opacity="0.5">
<path d="M44.7292 14.1653C42.3772 13.8065 40.1749 13.828 38.0545 14.1466C38.152 14.1381 38.2492 14.1251 38.3463 14.112C49.8551 12.6656 51.1441 20.3413 48.865 23.6498C46.5859 26.9583 44.213 25.5438 38.5599 26.0313C32.9069 26.5188 22.7816 33.1011 17.1856 35.6615C11.5897 38.2218 8.87192 36.4439 13.0124 35.8903C21.1174 34.1525 27.6278 29.1173 33.4802 26.6004C39.3279 24.0839 45.273 25.5179 46.6789 22.2847C48.089 19.0465 47.1889 15.8811 42.1563 14.827C34.3096 13.7535 21.7156 22.2053 15.5442 25.1475C9.37326 28.0944 7.07121 27.6097 9.86007 26.5221C12.6485 25.43 13.4147 24.8726 13.4147 24.8726C13.4147 24.8726 13.4046 24.8641 13.3895 24.8513C8.77648 26.7092 6.82938 26.5963 4.98289 26.7275C5.92264 26.8804 6.98495 27.3691 7.27314 28.7575C7.27314 28.7575 12.5484 27.6334 21.4924 22.5474C31.1714 17.6275 35.3236 15.7438 39.8086 15.5489C44.294 15.3587 46.9537 17.1696 46.0952 20.6176C45.2358 23.3498 43.6827 23.844 40.1893 24.3044C36.6963 24.7694 33.1594 25.5939 25.6322 30.1786C19.8072 33.2313 13.9342 35.7266 8.30936 35.7811C8.319 36.7069 7.36857 38.2208 5.43029 38.4815C12.628 40.0602 24.0807 32.5913 30.7933 29.0877C37.5368 25.5627 43.5696 26.3855 45.3931 26.7476C47.2166 27.1098 50.9521 23.9752 50.656 20.1073C50.3645 16.239 47.9896 14.8013 44.7254 14.1749L44.7292 14.1653Z" fill="#F4A196"/>
</g>
<g style="mix-blend-mode:screen">
<path d="M46.3219 14.9404C46.2975 14.9285 46.257 15.0022 46.2772 15.0191C49.363 16.7232 49.8755 20.3337 48.9718 23.5283C48.9357 23.6531 49.0636 23.5625 49.0863 23.4997C50.3006 20.4328 49.4826 16.3197 46.3172 14.9408L46.3219 14.9404Z" fill="#F9C6BF"/>
</g>
<g style="mix-blend-mode:screen">
<path d="M48.716 23.9156C48.6175 24.13 48.4681 24.2973 48.304 24.4566C48.2697 24.4923 48.2416 24.5462 48.2363 24.5934C48.2314 24.6453 48.2609 24.6615 48.3053 24.6343C48.5476 24.459 48.7156 24.1824 48.8123 23.8933C48.8457 23.7921 48.7403 23.8714 48.7206 23.9152L48.716 23.9156Z" fill="#F9C6BF"/>
</g>
<g style="mix-blend-mode:screen">
<path d="M3.90703 27.0588C2.02195 27.7736 1.543 29.9254 1.6917 31.8125C1.69891 31.8961 1.81192 31.7413 1.80751 31.6902C1.81531 29.827 2.09163 28.039 3.87867 27.1642C3.90534 27.1479 3.95692 27.0405 3.90703 27.0588Z" fill="#AA313D"/>
<path d="M1.73802 32.2438C1.72632 32.2168 1.68548 32.2858 1.68748 32.309C1.76846 32.5969 1.70544 32.8971 1.73068 33.1898C1.73708 33.2641 1.842 33.124 1.84264 33.0771C1.82789 32.7976 1.8588 32.5048 1.73802 32.2438Z" fill="#AA313D"/>
</g>
</svg>
