<svg width="33" height="35" viewBox="0 0 33 35" fill="none" xmlns="http://www.w3.org/2000/svg">
<g filter="url(#filter0_d_183_4433)">
<circle cx="16.25" cy="16" r="16" fill="#4874D7"/>
<circle cx="16.25" cy="16" r="14.5" stroke="white" stroke-width="3"/>
</g>
<path fill-rule="evenodd" clip-rule="evenodd" d="M16.605 6.45052C15.1427 6.45052 13.9574 7.63591 13.9574 9.09816V13.7077H9.34835C7.8861 13.7077 6.7007 14.893 6.7007 16.3553C6.7007 17.8175 7.88609 19.0029 9.34834 19.0029H13.9574V23.7649C13.9574 25.2272 15.1427 26.4126 16.605 26.4126C18.0672 26.4126 19.2526 25.2272 19.2526 23.7649V19.0029H24.0151C25.4774 19.0029 26.6628 17.8175 26.6628 16.3553C26.6628 14.893 25.4774 13.7077 24.0151 13.7077H19.2526V9.09816C19.2526 7.63591 18.0672 6.45052 16.605 6.45052Z" fill="white"/>
<path d="M13.9574 13.7077V14.7077H14.9574V13.7077H13.9574ZM13.9574 19.0029H14.9574V18.0029H13.9574V19.0029ZM19.2526 19.0029V18.0029H18.2526V19.0029H19.2526ZM19.2526 13.7077H18.2526V14.7077H19.2526V13.7077ZM14.9574 9.09816C14.9574 8.1882 15.695 7.45052 16.605 7.45052V5.45052C14.5905 5.45052 12.9574 7.08363 12.9574 9.09816H14.9574ZM14.9574 13.7077V9.09816H12.9574V13.7077H14.9574ZM13.9574 12.7077H9.34835V14.7077H13.9574V12.7077ZM9.34835 12.7077C7.33381 12.7077 5.7007 14.3408 5.7007 16.3553H7.7007C7.7007 15.4453 8.43838 14.7077 9.34835 14.7077V12.7077ZM5.7007 16.3553C5.7007 18.3698 7.33381 20.0029 9.34834 20.0029V18.0029C8.43838 18.0029 7.7007 17.2653 7.7007 16.3553H5.7007ZM9.34834 20.0029H13.9574V18.0029H9.34834V20.0029ZM14.9574 23.7649V19.0029H12.9574V23.7649H14.9574ZM16.605 25.4126C15.695 25.4126 14.9574 24.6749 14.9574 23.7649H12.9574C12.9574 25.7795 14.5905 27.4126 16.605 27.4126V25.4126ZM18.2526 23.7649C18.2526 24.6749 17.515 25.4126 16.605 25.4126V27.4126C18.6195 27.4126 20.2526 25.7795 20.2526 23.7649H18.2526ZM18.2526 19.0029V23.7649H20.2526V19.0029H18.2526ZM19.2526 20.0029H24.0151V18.0029H19.2526V20.0029ZM24.0151 20.0029C26.0296 20.0029 27.6628 18.3698 27.6628 16.3553H25.6628C25.6628 17.2653 24.9251 18.0029 24.0151 18.0029V20.0029ZM27.6628 16.3553C27.6628 14.3408 26.0297 12.7077 24.0151 12.7077V14.7077C24.9251 14.7077 25.6628 15.4453 25.6628 16.3553H27.6628ZM24.0151 12.7077H19.2526V14.7077H24.0151V12.7077ZM18.2526 9.09816V13.7077H20.2526V9.09816H18.2526ZM16.605 7.45052C17.515 7.45052 18.2526 8.18819 18.2526 9.09816H20.2526C20.2526 7.08362 18.6195 5.45052 16.605 5.45052V7.45052Z" fill="#4874D7"/>
<defs>
<filter id="filter0_d_183_4433" x="0.25" y="0" width="32" height="35" filterUnits="userSpaceOnUse" color-interpolation-filters="sRGB">
<feFlood flood-opacity="0" result="BackgroundImageFix"/>
<feColorMatrix in="SourceAlpha" type="matrix" values="0 0 0 0 0 0 0 0 0 0 0 0 0 0 0 0 0 0 127 0" result="hardAlpha"/>
<feOffset dy="3"/>
<feComposite in2="hardAlpha" operator="out"/>
<feColorMatrix type="matrix" values="0 0 0 0 0.282353 0 0 0 0 0.454902 0 0 0 0 0.843137 0 0 0 1 0"/>
<feBlend mode="normal" in2="BackgroundImageFix" result="effect1_dropShadow_183_4433"/>
<feBlend mode="normal" in="SourceGraphic" in2="effect1_dropShadow_183_4433" result="shape"/>
</filter>
</defs>
</svg>
