<svg width="30" height="32" viewBox="0 0 30 32" fill="none" xmlns="http://www.w3.org/2000/svg">
<g clip-path="url(#clip0_522_5715)">
<g clip-path="url(#clip1_522_5715)">
<path d="M13.9034 29.6389C11.7259 29.6389 9.53957 29.6389 7.362 29.6389C6.61566 29.6389 6.44883 29.4984 6.3698 28.752C6.11517 26.5218 5.86928 24.2828 5.62343 22.0437C5.36002 19.673 5.10537 17.3023 4.84195 14.9316C4.77171 14.2818 5.04393 14.0096 5.6849 14.0535C8.67905 14.2906 11.5678 15.0369 14.4303 15.9238C16.88 16.6789 19.3737 17.2584 21.9288 17.5306C22.4556 17.5833 22.6751 17.8818 22.6224 18.3999C22.2449 21.833 21.8586 25.2662 21.481 28.6994C21.3932 29.4984 21.2351 29.6389 20.4449 29.6389C18.2673 29.6389 16.081 29.6389 13.9034 29.6389Z" fill="black"/>
<path d="M14.1447 31.9855C11.5129 31.9855 8.87211 31.9855 6.24027 31.9855C4.89313 31.9855 4.12586 31.3988 3.98311 30.3195C3.60841 27.5164 3.2159 24.7204 2.84119 21.9245C2.49326 19.3821 2.15421 16.8397 1.80627 14.3046C1.45833 11.7549 1.10148 9.19803 0.753544 6.64838C0.54835 5.18523 0.352093 3.72928 0.15582 2.26613C0.102291 1.87499 0.334217 1.60702 0.735683 1.5708C1.13715 1.53459 1.43158 1.75912 1.48511 2.15026C1.99364 5.83711 2.49325 9.52397 3.00177 13.2108C3.49245 16.7745 3.9831 20.3383 4.47378 23.902C4.76819 26.0243 5.05371 28.1538 5.3392 30.2761C5.40165 30.7397 5.62467 30.9062 6.21348 30.9062C11.5396 30.9062 16.8657 30.9062 22.1829 30.9062C22.7896 30.9062 22.9948 30.7397 23.0662 30.2399C23.4766 27.2411 23.8869 24.2351 24.2973 21.2364C24.6988 18.2811 25.1002 15.3258 25.5017 12.3633C25.9032 9.40805 26.3136 6.45278 26.7239 3.49751C26.7864 3.03393 26.8489 2.57762 26.9113 2.11405C26.9648 1.75188 27.2682 1.53458 27.6518 1.56355C28.0354 1.59977 28.2852 1.86052 28.2406 2.22992C27.9819 4.12767 27.7232 6.03266 27.4555 7.93041C27.1611 10.0672 26.8667 12.204 26.5812 14.3408C26.2601 16.7021 25.9299 19.0634 25.6088 21.4247C25.2876 23.7498 24.9753 26.0822 24.6542 28.4073C24.5649 29.0954 24.4847 29.7835 24.3776 30.4644C24.2259 31.4423 23.4319 32 22.2275 32C19.5333 32 16.8479 32 14.1536 32L14.1447 31.9855Z" fill="black"/>
<path d="M14.1744 2.99994C15.2701 4.28897 16.4496 5.5206 17.4422 6.89259C18.3639 8.17524 18.351 9.64294 17.5904 11.0277C16.8492 12.3869 15.6117 13.0187 14.0777 12.9995C12.5759 12.9804 11.3835 12.3359 10.6681 11.0085C9.93329 9.63654 9.97842 8.23904 10.797 6.91171C11.1257 6.38206 11.5446 5.89707 11.9572 5.42485C12.6726 4.61441 13.4138 3.82952 14.1744 2.99994Z" stroke="black" stroke-width="1.5"/>
</g>
</g>
<defs>
<clipPath id="clip0_522_5715">
<rect width="29" height="32" fill="white" transform="translate(0.148193)"/>
</clipPath>
<clipPath id="clip1_522_5715">
<rect width="28.0976" height="32" fill="white" transform="translate(0.148193)"/>
</clipPath>
</defs>
</svg>
