<svg width="31" height="25" viewBox="0 0 31 25" fill="none" xmlns="http://www.w3.org/2000/svg">
<path d="M11.7514 2.64171L11.7514 2.64174L11.7591 2.64535C12.3809 2.93402 12.9616 3.30179 13.4867 3.73915V23.0024C12.2142 22.2215 10.758 21.7278 9.24409 21.4136C7.11154 20.971 4.77807 20.8674 2.51596 20.8674C2.041 20.8674 1.625 20.5135 1.625 19.8721V1.99366H1.62501L1.625 1.9916C1.62474 1.84991 1.65956 1.70991 1.72693 1.5838C1.7941 1.45807 1.89181 1.3496 2.0123 1.26853C2.15586 1.17317 2.32625 1.12277 2.5008 1.12513L2.5008 1.12517L2.51101 1.12522C6.70612 1.14368 9.69421 1.66747 11.7514 2.64171Z" stroke="#BCBABD" stroke-width="2.25"/>
</svg>
