<svg width="180" height="189" viewBox="0 0 180 189" fill="none" xmlns="http://www.w3.org/2000/svg">
<path d="M178 90C178 117.885 165.03 142.742 144.792 158.864C129.76 170.843 110.715 178 90 178C69.285 178 50.2403 170.843 35.2083 158.864C14.9703 142.742 2 117.885 2 90C2 41.3995 41.3995 2 90 2C138.601 2 178 41.3995 178 90Z" fill="#5A6684" fill-opacity="0.23"/>
<path d="M124.217 73.4747C124.217 95.6382 108.899 103.044 90 103.044C71.1014 103.044 55.7832 95.6382 55.7832 73.4747C55.7832 51.3112 71.1014 33.3451 90 33.3451C108.899 33.3451 124.217 51.3112 124.217 73.4747Z" fill="#5A6684" fill-opacity="0.63"/>
<path d="M144.792 158.864C129.76 170.843 110.715 178 90.0001 178C69.285 178 50.2404 170.843 35.2084 158.864C35.2084 130.106 64.1627 118.23 90.0001 118.23C115.837 118.23 144.792 133.221 144.792 158.864Z" fill="#5A6684" fill-opacity="0.63"/>
<rect x="132" y="141" width="48" height="48" rx="24" fill="#F3F3F3"/>
<path fill-rule="evenodd" clip-rule="evenodd" d="M151.197 165.664C151.197 162.796 153.522 160.47 156.39 160.47C159.259 160.47 161.584 162.796 161.584 165.664C161.584 168.532 159.259 170.858 156.39 170.858C153.522 170.858 151.197 168.532 151.197 165.664ZM156.39 162.47C154.627 162.47 153.197 163.901 153.197 165.664C153.197 167.428 154.627 168.858 156.39 168.858C158.154 168.858 159.584 167.428 159.584 165.664C159.584 163.901 158.154 162.47 156.39 162.47Z" fill="black"/>
<path fill-rule="evenodd" clip-rule="evenodd" d="M158.813 152.158C159.511 152.225 160.221 152.335 160.702 152.537L160.703 152.538C161.684 152.952 162.248 153.807 162.6 154.445C162.724 154.67 162.845 154.913 162.945 155.115C162.985 155.197 163.023 155.273 163.056 155.338C163.194 155.609 163.266 155.718 163.299 155.753L163.3 155.755C163.492 155.967 163.738 156.105 163.969 156.181C166.197 156.8 167.644 157.886 168.466 159.607C169.243 161.236 169.394 163.318 169.394 165.755C169.394 169.207 169.107 172.161 167.125 174.16C165.154 176.148 161.769 176.933 156.39 176.933C151.011 176.933 147.627 176.148 145.655 174.16C143.673 172.161 143.386 169.207 143.386 165.755C143.386 163.318 143.537 161.236 144.314 159.607C145.136 157.885 146.584 156.8 148.812 156.181C149.043 156.105 149.287 155.967 149.48 155.755L149.482 155.753C149.514 155.717 149.588 155.607 149.729 155.332C149.762 155.266 149.801 155.189 149.842 155.105C149.943 154.902 150.064 154.659 150.189 154.434C150.54 153.8 151.107 152.935 152.087 152.534L152.088 152.533C152.559 152.341 153.259 152.233 153.954 152.165C154.686 152.094 155.537 152.058 156.38 152.056C157.223 152.054 158.076 152.087 158.813 152.158ZM152.844 154.385C152.539 154.51 152.254 154.833 151.939 155.402C151.836 155.589 151.749 155.763 151.658 155.947C151.611 156.042 151.562 156.139 151.509 156.242C151.379 156.498 151.197 156.84 150.96 157.101C150.486 157.622 149.912 157.931 149.398 158.093C149.386 158.097 149.375 158.1 149.364 158.103C147.537 158.607 146.635 159.388 146.119 160.468C145.557 161.647 145.386 163.311 145.386 165.755C145.386 169.268 145.737 171.402 147.075 172.752C148.424 174.112 151.042 174.933 156.39 174.933C161.738 174.933 164.356 174.112 165.705 172.752C167.043 171.402 167.394 169.268 167.394 165.755C167.394 163.311 167.223 161.647 166.661 160.468C166.145 159.388 165.243 158.607 163.417 158.103C163.405 158.1 163.393 158.096 163.382 158.093C162.871 157.931 162.295 157.622 161.821 157.101C161.582 156.839 161.402 156.498 161.273 156.244C161.221 156.142 161.173 156.045 161.127 155.952C161.037 155.769 160.951 155.597 160.849 155.41C160.54 154.851 160.253 154.518 159.926 154.381C159.753 154.308 159.316 154.215 158.622 154.149C157.965 154.086 157.179 154.054 156.384 154.056C155.59 154.057 154.804 154.092 154.148 154.156C153.456 154.223 153.018 154.314 152.844 154.385Z" fill="black"/>
<path fill-rule="evenodd" clip-rule="evenodd" d="M161.939 161C161.939 160.448 162.387 160 162.939 160H162.951C163.504 160 163.951 160.448 163.951 161C163.951 161.552 163.504 162 162.951 162H162.939C162.387 162 161.939 161.552 161.939 161Z" fill="black"/>
</svg>
