<svg width="172" height="172" viewBox="0 0 172 172" fill="none" xmlns="http://www.w3.org/2000/svg">
<g clip-path="url(#clip0_1175_4698)">
<path d="M79.0798 0.478027H92.4779C93.9879 1.09008 95.6141 0.973925 97.1822 1.20624C121.387 4.79366 140.754 16.445 155.327 36.0932C155.032 36.5221 154.737 36.951 154.443 37.3798C149.023 38.3806 143.846 40.1408 138.775 42.2628C137.689 35.298 135.424 28.7798 131.506 22.8693C130.64 21.5648 129.625 20.6802 127.959 20.8678C126.306 21.0555 125.395 22.0607 124.957 23.593C116.29 27.4842 109.057 33.2072 103.173 40.6545C100.502 40.315 97.83 39.9799 95.1584 39.6449C95.1405 37.4334 95.757 35.3337 96.2395 33.2071C98.585 33.8147 100.922 34.257 103.204 32.9838C106.823 31.4737 108.668 28.6145 108.704 24.835C108.744 20.9751 106.877 18.0756 103.227 16.4897C101.19 15.4174 99.1032 15.4666 96.9544 16.1233C91.9239 17.6646 88.6537 23.7539 92.1339 29.8565C91.7095 30.339 91.6246 30.96 91.495 31.5452C90.9232 34.1319 90.3915 36.7276 89.8465 39.3187C86.9337 38.8318 84.003 39.1043 81.0812 39.0686C80.3083 36.4863 79.7365 33.8415 78.6866 31.3442C78.9413 30.8528 79.2093 30.3703 79.4461 29.8744C81.6352 25.2639 79.732 20.0413 75.0813 17.8701C71.8736 16.1769 68.8268 16.7175 66.0033 18.7011C62.9162 20.8723 61.8262 24.0487 62.4382 27.6406C63.0369 31.1342 65.2304 33.4975 68.6347 34.6368C70.6004 35.298 72.584 34.9986 74.5541 34.6144C75.0054 36.1781 75.6621 37.6926 75.7738 39.3411C72.1283 39.7789 68.4872 40.2167 64.8417 40.6545C58.9982 33.0865 51.6357 27.4574 42.9553 23.5081C42.6962 22.0071 41.7625 21.1716 40.306 20.9036C38.7513 20.6177 37.6255 21.3012 36.7767 22.5655C33.0329 28.1365 30.6294 34.2347 29.5706 40.86C25.4649 39.5376 21.3861 38.1348 17.1196 37.3888L16.2037 36.1423C16.4807 35.7939 16.7711 35.4543 17.0392 35.1014C24.2095 25.599 32.8855 17.7897 43.2457 11.8881C45.2159 15.1851 48.1377 16.9587 51.9485 17.2134C53.5836 17.3206 55.1293 16.9275 55.8843 15.2968C56.617 13.7153 55.7593 12.4108 54.8166 11.1867C53.7757 9.83304 52.2076 9.15844 50.912 8.13091C51.3855 7.85392 51.8412 7.52332 52.3416 7.31334C58.3191 4.77132 64.5022 2.95304 70.8952 1.77808C73.616 1.27772 76.4082 1.25984 79.0798 0.491429V0.478027ZM120.972 15.1985C120.958 13.3445 119.502 11.8792 117.688 11.9015C115.924 11.9238 114.333 13.4875 114.32 15.2119C114.306 17.0079 115.955 18.5983 117.786 18.5671C119.636 18.5313 120.981 17.1106 120.967 15.203L120.972 15.1985ZM85.8034 14.2604C87.6842 14.247 89.0781 12.8799 89.1183 11.0125C89.154 9.27459 87.6083 7.70649 85.8257 7.67075C83.994 7.63501 82.4036 9.23885 82.4349 11.0795C82.4662 12.9067 83.9136 14.2693 85.8034 14.2559V14.2604ZM105.027 12.2544C106.89 12.2366 108.257 10.8382 108.235 8.96634C108.213 7.10784 106.814 5.76311 104.929 5.78098C103.044 5.79885 101.596 7.18378 101.574 8.9842C101.551 10.8382 103.066 12.2768 105.027 12.2544Z" fill="#FEC04F"/>
<path d="M92.1384 171.969H79.0753C78.8251 171.553 78.3963 171.665 78.0255 171.629C58.7034 169.735 41.8831 162.221 27.5468 149.14C27.1403 148.769 26.6488 148.461 26.5193 147.862C26.8454 147.786 27.185 147.75 27.4888 147.63C34.1633 144.954 41.0834 143.359 48.2494 142.76C59.2082 141.849 69.966 142.849 80.5005 146.053C89.6678 148.84 97.5754 153.906 105.117 159.665C108.297 162.095 111.335 164.74 114.914 166.621C114.704 166.992 114.324 167.108 113.958 167.229C109.647 168.69 105.264 169.887 100.77 170.637C97.897 171.115 95.0155 171.526 92.1384 171.969Z" fill="#40C0F9"/>
<path d="M171.518 92.5851C171.075 95.4756 170.696 98.3795 170.177 101.257C167.635 115.325 162.029 128.022 153.093 139.217C152.598 139.257 152.102 139.28 151.61 139.338C142.398 140.401 133.334 139.986 124.559 136.653C127.347 134.424 130.126 132.181 132.436 129.438C135.697 125.569 138.217 121.36 138.297 116.098C138.306 115.428 138.668 115.11 139.177 114.811C146.048 110.808 151.23 105.148 155.184 98.3259C157.177 94.8814 158.74 91.2583 159.142 87.233C163.083 85.0886 163.891 82.56 161.877 78.566C159.263 73.3926 155.408 69.2646 150.846 65.7844C149.059 64.4218 147.362 63.1039 146.347 61.0086C145.847 59.9766 145.034 59.0786 144.078 58.3728C143.662 57.5909 142.657 57.3274 142.362 56.4383C147.138 53.454 151.481 49.9291 155.448 45.9396C155.85 46.2211 155.935 46.6768 156.055 47.0923C158.329 54.897 162.082 61.9245 167.251 68.1879C168.082 69.1976 168.761 70.4306 170.164 70.8372C170.311 71.9228 170.401 73.0218 170.624 74.0896C171.026 75.9972 170.816 77.9986 171.518 79.8571V92.5851ZM160.505 115.964C160.478 114.078 159.053 112.667 157.212 112.689C155.443 112.716 153.844 114.306 153.884 116.013C153.929 117.903 155.497 119.422 157.346 119.377C159.178 119.328 160.527 117.867 160.501 115.968L160.505 115.964ZM150.458 121.084C150.467 119.203 149.117 117.764 147.303 117.715C145.485 117.67 143.805 119.274 143.841 121.025C143.881 122.897 145.423 124.421 147.254 124.398C149.073 124.381 150.449 122.955 150.462 121.079L150.458 121.084Z" fill="#FEC04F"/>
<path d="M8.77877 123.822C4.47207 115.352 1.9345 106.35 0.696997 96.9499C0.531699 95.7124 0.674673 94.4123 0.0402832 93.2552V79.187C0.942724 76.4752 0.817628 73.5981 1.40287 70.8372C2.2383 70.6808 2.71631 70.0375 3.22561 69.4522C8.15329 63.8142 11.8614 57.4659 14.4302 50.4295C14.9797 48.9284 15.1361 47.2799 16.11 45.9396C19.5232 49.3439 23.1731 52.4578 27.2163 55.0936C26.5863 56.684 24.7904 57.0951 23.879 58.404C22.2752 60.0883 20.6981 61.7502 18.8173 63.1932C11.9328 68.4783 6.89793 75.1796 4.40951 83.5875C3.1184 87.9478 4.44079 90.2263 8.73855 91.5844C10.2173 96.0877 12.9961 99.7644 16.1725 103.182C19.5813 106.85 23.6422 109.687 27.8909 112.278C25.5811 113.265 23.2714 114.253 21.0734 115.481C19.9878 115.892 18.862 115.597 17.754 115.678C14.4972 115.923 12.8085 117.644 12.7147 120.887C11.4012 121.865 10.0922 122.839 8.77877 123.818V123.822ZM14.4793 110.567C14.4793 108.677 13.1123 107.301 11.2359 107.301C9.46677 107.301 7.84952 108.856 7.85399 110.545C7.86293 112.327 9.55163 114.002 11.2984 113.962C13.1123 113.922 14.4749 112.461 14.4793 110.567Z" fill="#FEBF4F"/>
<path d="M155.323 36.0932C158.664 33.6673 160.992 34.1677 163.123 37.7596C167.555 45.2293 170.231 53.2887 171.182 61.92C171.218 62.2327 171.115 62.608 171.517 62.7777V69.8096C171.187 70.3145 170.722 70.6361 170.159 70.8372C168.756 70.4306 168.077 69.1976 167.246 68.1879C162.078 61.9245 158.325 54.9015 156.051 47.0922C155.93 46.6723 155.845 46.2166 155.443 45.9396C155.273 43.0625 154.081 40.3105 154.434 37.3754C154.728 36.9465 155.023 36.5176 155.318 36.0887L155.323 36.0932Z" fill="#FE3C7D"/>
<path d="M16.1055 45.9396C15.1315 47.2799 14.9752 48.9284 14.4257 50.4295C11.8568 57.4659 8.1488 63.8142 3.22112 69.4522C2.71182 70.0375 2.23379 70.6763 1.39836 70.8372C0.835449 70.6406 0.357429 70.3279 0.0357666 69.8097V62.4427C0.786312 60.9282 0.679084 59.235 0.978409 57.6312C2.31867 50.4518 4.83836 43.7371 8.60449 37.4826C10.597 34.1721 13.1658 33.7165 16.2038 36.1334C16.5076 36.5489 16.8158 36.9644 17.1196 37.3798C17.0794 38.6531 17.1643 39.9174 16.9275 41.1996C16.6371 42.7766 15.9759 44.2956 16.1055 45.9441V45.9396Z" fill="#FE3C7D"/>
<path d="M170.164 70.8372C170.722 70.6361 171.191 70.31 171.522 69.8096V79.8571C170.816 77.9986 171.031 75.9972 170.628 74.0895C170.405 73.0218 170.316 71.9228 170.168 70.8372H170.164Z" fill="#FDF3F2"/>
<path d="M0.0357666 69.8096C0.357429 70.3234 0.835449 70.6361 1.39836 70.8372C0.808644 73.5981 0.938208 76.4797 0.0357666 79.187V69.8096Z" fill="#FDF3F2"/>
<path d="M23.8745 58.4085C24.7858 57.0995 26.5818 56.6885 27.2117 55.098C27.5825 55.0087 28.0203 55.0132 28.3152 54.8121C32.7202 51.8278 37.5049 49.527 42.2271 47.1235C45.676 45.8771 49.125 44.6306 52.5784 43.3842C56.6661 42.4728 60.7495 41.5614 64.8373 40.6501C68.4828 40.2122 72.1238 39.7744 75.7649 39.3366C77.0604 44.0409 77.5965 48.848 77.744 53.7131C77.0649 54.8523 76.3322 55.9648 75.7157 57.1353C72.4767 63.296 71.887 69.9615 72.0836 76.7656C66.6243 76.1089 61.1962 75.2511 55.8799 73.8125C52.7749 72.9726 49.7013 72.0255 46.6142 71.1231L46.6008 71.1365C46.4802 71.0337 46.364 70.931 46.2434 70.8327C44.9255 70.0464 43.5361 69.4656 41.9814 69.3673C41.7312 68.8 41.1772 68.6123 40.6768 68.4113C37.429 67.0889 34.3687 65.4047 31.4112 63.5417C28.8424 61.9244 26.3807 60.133 23.87 58.4174L23.8745 58.4085ZM52.3996 55.3795C50.0989 55.3304 47.9411 55.8084 46.1585 57.3318C44.5145 58.7391 44.6083 60.5395 46.306 61.8842C49.3037 64.261 55.5403 64.261 58.614 61.8842C60.2849 60.5886 60.4055 58.958 58.9044 57.4658C57.095 55.6744 54.7764 55.4242 52.4041 55.384L52.3996 55.3795Z" fill="#FE3C7C"/>
<path d="M142.358 56.4383C142.648 57.3318 143.653 57.5909 144.073 58.3728C131.873 67.8484 117.938 73.2094 102.829 75.7827C102.231 67.5089 100.033 59.8292 94.4839 53.4004C94.4839 51.6759 94.4704 49.9559 94.4749 48.2315C94.4838 45.3499 94.5553 42.4683 95.154 39.6315C97.8256 39.971 100.497 40.3061 103.169 40.6456C103.441 40.6903 103.723 40.7171 103.991 40.7751C107.837 41.6284 111.684 42.4862 115.53 43.344C119.672 44.9121 123.813 46.4757 127.955 48.0438C128.477 48.3521 128.982 48.7005 129.527 48.9686C133.186 50.7601 136.711 52.7839 140.071 55.0936C140.799 55.594 141.411 56.2909 142.353 56.4294L142.358 56.4383ZM120.364 61.1158C122.116 60.9952 124.05 60.7316 125.748 59.6639C128.205 58.1226 128.214 55.8084 125.819 54.1867C122.741 52.1048 117.13 52.2478 114.101 54.4905C112.166 55.9201 112.229 58.1672 114.288 59.4182C116.08 60.5038 118.041 61.0979 120.369 61.1158H120.364ZM109.848 63.1128C108.476 62.9743 107.078 63.2602 105.778 63.9929C103.955 65.0204 103.821 66.5349 105.429 67.8261C107.556 69.5282 112.077 69.5595 114.262 67.8841C115.544 66.9013 115.615 65.628 114.445 64.4799C113.189 63.2468 111.617 63.0324 109.848 63.1128Z" fill="#FE3C7C"/>
<path d="M142.358 56.4383C141.42 56.2998 140.803 55.6029 140.075 55.1025C136.715 52.7928 133.19 50.769 129.532 48.9775C128.986 48.7095 128.482 48.361 127.959 48.0528C129.969 46.4891 132.444 45.6716 134.419 44.0499C136.027 43.8354 137.256 42.7007 138.77 42.2628C143.837 40.1408 149.019 38.3806 154.438 37.3798C154.085 40.315 155.282 43.0715 155.448 45.9441C151.48 49.9336 147.134 53.454 142.362 56.4428L142.358 56.4383Z" fill="#E10B62"/>
<path d="M42.2316 47.119C37.5049 49.5226 32.7246 51.8278 28.3197 54.8077C28.0248 55.0087 27.587 55.0042 27.2162 55.0936C23.173 52.4578 19.5231 49.3439 16.1099 45.9396C15.9803 44.2911 16.6415 42.7721 16.9319 41.1951C17.1642 39.9129 17.0793 38.6486 17.124 37.3754C21.3905 38.1214 25.4694 39.5242 29.575 40.8466C31.228 41.6106 32.8318 42.5175 34.6948 42.7051C34.8244 43.3842 35.4588 43.4467 35.9278 43.7014C38.0276 44.8451 40.1363 45.9798 42.2405 47.1146L42.2316 47.119Z" fill="#E10B62"/>
<path d="M64.8373 40.6411C60.7495 41.5525 56.6661 42.4639 52.5784 43.3753C48.3431 39.3232 44.7423 34.7753 41.8518 29.6689C42.0528 27.5825 43.1563 25.6526 42.9508 23.4947C51.6312 27.444 58.9937 33.0731 64.8373 40.6411Z" fill="#E10B62"/>
<path d="M115.535 43.3529C111.688 42.4952 107.842 41.6374 103.995 40.7841C103.723 40.726 103.446 40.6947 103.173 40.6545C109.057 33.2072 116.29 27.4798 124.957 23.593C124.934 25.7553 126.002 27.6808 126.297 29.7716C123.197 34.6859 119.761 39.3366 115.535 43.3574V43.3529Z" fill="#E10B62"/>
<path d="M126.297 29.7672C126.002 27.6764 124.935 25.7508 124.957 23.5886C125.39 22.0562 126.302 21.051 127.959 20.8634C129.625 20.6757 130.64 21.5603 131.506 22.8648C135.424 28.7754 137.689 35.2935 138.775 42.2584C137.26 42.6962 136.032 43.8354 134.424 44.0454C133.955 43.4959 133.463 42.9687 133.021 42.3969C130.068 38.5637 128.044 34.2347 126.302 29.7627L126.297 29.7672Z" fill="#FE3C7D"/>
<path d="M42.9509 23.4947C43.1564 25.657 42.0529 27.5825 41.8519 29.6689C41.4185 30.0665 41.347 30.6383 41.1505 31.1476C39.5556 35.3114 37.572 39.2562 34.686 42.7007C32.823 42.513 31.2191 41.6061 29.5662 40.8422C30.6294 34.2168 33.0285 28.1186 36.7723 22.5476C37.6211 21.2833 38.747 20.5998 40.3017 20.8857C41.7536 21.1538 42.6873 21.9892 42.9509 23.4903V23.4947Z" fill="#FE3C7D"/>
<path d="M103.204 32.9748C100.922 34.2481 98.5805 33.8103 96.2395 33.2027C94.6312 32.3807 93.2865 31.237 92.1383 29.8476C88.6626 23.7405 91.9328 17.6512 96.9588 16.1144C99.1077 15.4577 101.194 15.413 103.231 16.4807C102.753 16.8515 102.271 17.2089 101.802 17.5887C100.421 18.71 99.1345 19.9028 98.8932 21.8149C97.6423 22.3466 96.8114 23.1865 96.7667 24.634C96.7175 26.1619 97.5664 27.0554 98.8486 27.663C99.4874 30.1022 101.239 31.6301 103.204 32.9748Z" fill="#DBE4E8"/>
<path d="M74.5452 34.601C72.575 34.9852 70.5959 35.2801 68.6257 34.6234C65.2215 33.4841 63.0279 31.1208 62.4293 27.6272C61.8128 24.0353 62.9073 20.8589 65.9944 18.6877C68.8178 16.7041 71.8692 16.1635 75.0724 17.8567C72.7403 18.8976 71.1678 20.6221 70.4038 23.0703C67.5938 24.7278 67.5803 27.0554 70.3681 28.9273C71.2482 31.2995 72.7269 33.1133 75.1528 34.0426C74.9518 34.2302 74.7507 34.4134 74.5497 34.601H74.5452Z" fill="#DBE4E8"/>
<path d="M103.204 32.9748C101.234 31.6257 99.483 30.1022 98.8486 27.663C101.324 27.721 102.776 26.6086 102.731 24.6742C102.686 22.7889 101.225 21.6988 98.8978 21.8149C99.139 19.9073 100.426 18.7145 101.806 17.5887C102.275 17.2089 102.758 16.8471 103.236 16.4807C106.886 18.0667 108.753 20.9661 108.713 24.8261C108.673 28.6056 106.832 31.4648 103.213 32.9748H103.204Z" fill="#FDF3F2"/>
<path d="M92.134 29.8476C93.2821 31.2325 94.6268 32.3807 96.2351 33.2027C95.7527 35.3292 95.1317 37.4335 95.154 39.6404C94.5554 42.4773 94.4839 45.3544 94.4749 48.2404C94.4705 49.9649 94.4794 51.6849 94.4839 53.4093C92.889 52.154 91.2583 50.9567 89.4222 50.0676C89.306 46.4713 89.7081 42.8972 89.8466 39.3143C90.3916 36.7231 90.9233 34.1275 91.4951 31.5408C91.6247 30.9555 91.714 30.3345 92.134 29.8521V29.8476Z" fill="#C50249"/>
<path d="M70.4038 23.0703C71.1678 20.6221 72.7403 18.8977 75.0724 17.8567C79.7231 20.0235 81.6262 25.2505 79.4372 29.861C79.2004 30.3613 78.9323 30.8438 78.6777 31.3308C77.5921 32.3539 76.6628 33.578 75.1439 34.0426C72.718 33.1133 71.2392 31.2995 70.3591 28.9273C72.9146 29.0032 74.4469 27.8059 74.3308 25.8268C74.2191 23.9236 72.6912 22.8514 70.3949 23.0703H70.4038Z" fill="#FDF3F2"/>
<path d="M75.1528 34.0426C76.6673 33.5824 77.5966 32.3539 78.6867 31.3308C79.7365 33.8281 80.3084 36.4729 81.0813 39.0552C81.7112 42.6873 82.3143 46.3238 82.6851 49.9917C80.9249 51.0728 79.3032 52.3416 77.7529 53.7042C77.6055 48.8435 77.0694 44.032 75.7738 39.3277C75.6621 37.6747 75.001 36.1647 74.5542 34.601C74.7552 34.4134 74.9563 34.2302 75.1573 34.0426H75.1528Z" fill="#C50249"/>
<path d="M43.2413 11.8747C42.9196 8.80104 44.1661 7.42057 47.3067 7.55013C48.513 7.59927 49.7103 7.92095 50.9076 8.11752C52.1987 9.14505 53.7668 9.81964 54.8122 11.1733C55.7548 12.3974 56.6126 13.7019 55.8799 15.2834C55.1249 16.9141 53.5792 17.3117 51.944 17.2C48.1332 16.9454 45.2115 15.1717 43.2413 11.8747Z" fill="#DD7E02"/>
<path d="M82.6806 49.9917C82.3143 46.3194 81.7067 42.6873 81.0768 39.0552C83.9985 39.0909 86.9337 38.8184 89.8421 39.3053C89.7036 42.8883 89.3015 46.4668 89.4177 50.0587C87.175 49.4913 84.9278 49.6611 82.6762 49.9917H82.6806Z" fill="#FE3C7D"/>
<path d="M120.972 15.1985C120.985 17.1062 119.641 18.5313 117.791 18.5626C115.959 18.5939 114.311 17.0034 114.324 15.2075C114.338 13.483 115.928 11.9194 117.693 11.897C119.502 11.8747 120.963 13.3401 120.976 15.1941L120.972 15.1985Z" fill="#DD7E02"/>
<path d="M85.8034 14.2604C83.9092 14.2738 82.4662 12.9112 82.4349 11.0839C82.3992 9.24331 83.9941 7.63947 85.8258 7.67521C87.6083 7.71095 89.1541 9.27459 89.1183 11.0169C89.0826 12.8844 87.6843 14.2514 85.8034 14.2648V14.2604Z" fill="#DD7E02"/>
<path d="M105.027 12.2544C103.066 12.2723 101.547 10.8382 101.574 8.9842C101.596 7.17931 103.044 5.79885 104.929 5.78098C106.814 5.76311 108.213 7.10784 108.235 8.96634C108.257 10.8382 106.895 12.2366 105.027 12.2544Z" fill="#DD7E02"/>
<path d="M21.0688 115.481C23.2669 114.253 25.5766 113.27 27.8863 112.278C29.9458 113.113 31.9071 114.199 34.0649 114.802C34.6055 114.954 34.8378 115.271 34.9495 115.848C35.6732 119.609 37.764 122.594 40.449 125.207C45.5152 130.144 51.6402 133.222 58.3147 135.326C63.6623 137.055 69.1529 137.832 74.7641 137.703C75.9882 137.676 77.2078 137.511 78.423 137.359C79.3433 137.243 80.2458 136.957 80.3217 135.835C80.3887 134.826 79.6561 134.383 78.8072 134.097C78.49 133.99 78.1773 133.879 77.8646 133.762C73.6294 132.154 69.5237 130.296 65.8469 127.606C63.8991 126.185 62.0763 124.631 60.946 122.433C59.6058 119.828 60.1776 117.545 62.5856 115.87C63.8857 114.967 65.3466 114.413 66.8745 114.052C71.0337 113.069 75.2421 112.823 79.4952 113.256C80.8355 113.395 82.2964 113.636 82.5198 111.635C86.755 112.917 90.6328 114.976 94.4704 117.121C93.626 117.916 92.7683 118.698 91.9329 119.506C91.2136 120.203 90.3513 120.909 91.0661 122.053C91.705 123.081 92.6655 122.759 93.5992 122.513C95.8955 121.906 98.1874 121.249 100.578 121.092C104.652 124.162 108.628 127.369 112.886 130.197C112.6 131.064 112.005 131.739 111.447 132.427C108.221 136.425 104.129 139.391 99.8404 142.121C99.3266 142.447 98.795 142.76 98.3035 143.122C97.754 143.528 97.6021 144.109 97.7898 144.761C97.9774 145.427 98.4599 145.78 99.13 145.825C99.6259 145.856 100.135 145.847 100.631 145.798C107.14 145.15 113.225 143.158 118.944 139.999C120.815 138.887 122.683 137.774 124.555 136.662C133.329 139.995 142.394 140.41 151.606 139.347C152.097 139.289 152.597 139.266 153.089 139.226C146.49 147.63 138.623 154.59 129.42 160.031C125.341 162.439 121.084 164.486 116.683 166.241C116.111 166.469 115.548 166.706 114.914 166.63C111.335 164.749 108.297 162.104 105.117 159.674C97.5753 153.915 89.6678 148.849 80.5004 146.061C69.966 142.858 59.2126 141.858 48.2493 142.769C41.0834 143.368 34.1632 144.962 27.4887 147.639C27.1849 147.759 26.8454 147.795 26.5192 147.871C22.9586 144.954 20.0369 141.451 17.2938 137.792C14.0102 133.414 11.0437 128.835 8.77869 123.831C10.0921 122.853 11.4011 121.879 12.7146 120.9C14.037 127.079 22.6861 130.966 27.4976 130.313C32.6576 129.616 34.123 125.582 30.8036 121.521C28.5832 118.81 25.7106 117.085 22.3689 116.107C21.8954 115.968 21.3548 116.017 21.0733 115.49L21.0688 115.481Z" fill="#B8D2FC"/>
<path d="M102.829 75.7872C117.943 73.2139 131.877 67.8484 144.073 58.3772C145.034 59.0831 145.847 59.9811 146.343 61.0131C147.357 63.1084 149.055 64.4307 150.842 65.7889C155.403 69.2646 159.259 73.3971 161.872 78.5705C163.891 82.5644 163.078 85.0931 159.138 87.2375C157.976 87.1839 156.824 87.2688 155.658 87.0543C152.28 86.4423 149.265 84.8965 146.173 83.5384C145.356 82.9665 144.493 82.4438 143.734 81.805C142.814 81.0276 142.094 81.0946 141.107 81.8139C134.379 86.7014 126.99 90.3201 119.122 92.9827C105.367 97.6334 91.236 99.2819 76.7612 98.384C66.1151 97.7228 55.7817 95.632 45.7967 91.8659C38.8765 89.2523 32.3852 85.8258 26.3898 81.4788C25.8269 81.0678 25.3622 80.4379 24.5938 81.3135C23.3072 82.7744 21.9178 84.137 20.5686 85.5398C19.8091 86.0983 19.0585 86.6612 18.2946 87.2062C15.3907 89.2881 12.393 91.16 8.7296 91.5889C4.4363 90.2352 3.10944 87.9523 4.40056 83.592C6.88897 75.1841 11.9239 68.4783 18.8083 63.1977C20.6892 61.7547 22.2662 60.0928 23.8701 58.4085C26.3808 60.124 28.8424 61.9111 31.4113 63.5328C34.3643 65.3957 37.429 67.08 40.6769 68.4024C41.1818 68.6079 41.7313 68.7911 41.9814 69.3629C40.668 69.5327 39.3277 69.4567 38.0634 70.0107C36.9465 70.5021 35.9458 71.0695 35.8788 72.441C35.8118 73.7634 36.7634 74.4693 37.782 74.9205C40.1721 75.9793 42.6382 75.9659 45.0283 74.9116C46.7885 74.1387 47.1638 73.1022 46.6143 71.1186C49.7014 72.0166 52.775 72.9682 55.8799 73.8081C61.1963 75.2466 66.6199 76.1044 72.0837 76.7611C72.1596 76.9666 72.2713 77.1677 72.316 77.3821C73.0397 80.8579 75.0635 82.493 78.6197 82.5466C84.5883 82.6315 90.472 81.9569 96.3468 80.9606C99.5813 80.4111 101.802 78.9413 102.82 75.7917L102.829 75.7872Z" fill="#E10B62"/>
<path d="M146.178 83.5384C149.269 84.892 152.285 86.4378 155.662 87.0543C156.828 87.2643 157.985 87.1794 159.142 87.2375C158.74 91.2627 157.177 94.8859 155.184 98.3303C151.23 105.157 146.048 110.813 139.177 114.816C138.668 115.11 138.31 115.432 138.297 116.102C138.217 121.365 135.697 125.573 132.435 129.442C130.121 132.185 127.343 134.428 124.559 136.657C122.687 137.77 120.82 138.882 118.948 139.995C120.404 137.283 120.869 134.325 120.927 131.314C121.048 124.85 119.314 118.872 115.919 113.373C114.338 110.808 112.287 109.012 109.093 108.972C115.003 106.466 121.128 105.38 127.53 106.216C128.558 106.35 129.259 106.403 129.679 105.134C131.631 99.2641 135.049 94.2873 139.235 89.7795C141.366 87.4832 143.854 85.6024 146.187 83.5384H146.178Z" fill="#FE3C7D"/>
<path d="M160.505 115.964C160.532 117.867 159.183 119.328 157.351 119.372C155.497 119.422 153.933 117.898 153.889 116.008C153.848 114.306 155.443 112.711 157.217 112.685C159.058 112.658 160.478 114.074 160.509 115.959L160.505 115.964Z" fill="#DD7E02"/>
<path d="M150.458 121.084C150.449 122.96 149.073 124.381 147.25 124.403C145.418 124.421 143.877 122.897 143.837 121.03C143.801 119.279 145.481 117.675 147.299 117.719C149.117 117.764 150.466 119.207 150.453 121.088L150.458 121.084Z" fill="#DD7E02"/>
<path d="M8.73401 91.5844C12.3929 91.1555 15.3951 89.2836 18.299 87.2018C19.063 86.6522 19.818 86.0893 20.573 85.5354C29.2757 89.4534 36.3567 95.2478 41.3112 103.49C41.7044 104.147 42.0707 104.491 42.9017 104.178C49.3573 101.73 55.9692 101.869 62.6393 103.026C60.1776 103.513 58.0913 104.585 57.0459 107.006C53.8382 114.44 53.3245 122.026 55.661 129.826C56.2641 131.837 57.4748 133.472 58.3147 135.322C51.6402 133.217 45.5152 130.144 40.449 125.203C37.764 122.585 35.6777 119.605 34.9495 115.843C34.8378 115.267 34.6055 114.95 34.0649 114.798C31.9071 114.195 29.9503 113.109 27.8863 112.274C23.6377 109.682 19.5767 106.845 16.168 103.178C12.9916 99.76 10.2128 96.0877 8.73401 91.5799V91.5844Z" fill="#FE3C7D"/>
<path d="M21.0689 115.481C21.3504 116.008 21.891 115.959 22.3645 116.098C25.7062 117.076 28.5789 118.801 30.7992 121.512C34.1186 125.569 32.6533 129.603 27.4933 130.304C22.6862 130.957 14.0326 127.07 12.7102 120.891C12.804 117.648 14.4927 115.923 17.7496 115.682C18.853 115.597 19.9833 115.897 21.0689 115.486V115.481Z" fill="#A2ABB8"/>
<path d="M14.4793 110.567C14.4793 112.461 13.1123 113.922 11.2985 113.962C9.55166 114.002 7.86295 112.327 7.85401 110.545C7.84955 108.856 9.46679 107.301 11.2359 107.301C13.1123 107.301 14.4793 108.677 14.4793 110.567Z" fill="#DD7E02"/>
<path d="M102.829 75.7872C101.811 78.9368 99.5947 80.4066 96.3557 80.9561C90.4765 81.9569 84.5927 82.627 78.6286 82.5421C75.0724 82.493 73.0486 80.8578 72.3249 77.3776C72.2802 77.1632 72.173 76.9622 72.0926 76.7566C71.896 69.9526 72.4813 63.2915 75.7247 57.1263C76.3412 55.9558 77.0739 54.8434 77.7529 53.7042C79.3032 52.3416 80.9249 51.0728 82.6851 49.9917C84.9367 49.6655 87.1839 49.4913 89.4266 50.0587C91.2628 50.9477 92.8934 52.145 94.4883 53.4004C100.037 59.8292 102.231 67.5089 102.834 75.7827L102.829 75.7872ZM87.1839 73.7098C88.8771 73.5668 90.5569 73.0888 91.8614 71.7083C92.8219 70.6942 93.0632 69.5952 92.2188 68.3979C91.4459 67.3034 90.0253 66.9772 88.8146 67.7993C87.6441 68.5945 86.6791 68.6794 85.4773 67.8484C84.2934 67.0264 83.0336 67.1559 82.0552 68.3309C81.1572 69.4076 81.3315 70.8416 82.493 71.9004C83.7797 73.0665 85.3433 73.5936 87.1839 73.7098Z" fill="#FE5E93"/>
<path d="M34.6904 42.7051C37.5765 39.2607 39.56 35.3158 41.1549 31.1521C41.3515 30.6383 41.423 30.071 41.8563 29.6733C44.7468 34.7797 48.3477 39.3277 52.5829 43.3797C49.134 44.6262 45.685 45.8726 42.2316 47.1191C40.1274 45.9798 38.0232 44.8451 35.9234 43.7059C35.4544 43.4512 34.82 43.3842 34.6904 42.7096V42.7051Z" fill="#FEBF4F"/>
<path d="M52.3997 55.3795C54.7764 55.4197 57.0906 55.6699 58.8999 57.4614C60.4055 58.9535 60.2804 60.5842 58.6095 61.8798C55.5359 64.261 49.2992 64.261 46.3015 61.8798C44.6083 60.5351 44.51 58.7346 46.1541 57.3274C47.9366 55.8039 50.09 55.3259 52.3952 55.3751L52.3997 55.3795Z" fill="#C50249"/>
<path d="M46.6232 71.1141C47.1682 73.0977 46.7974 74.1297 45.0372 74.9071C42.6471 75.9614 40.181 75.9748 37.7909 74.916C36.7723 74.4648 35.8252 73.7634 35.8877 72.4365C35.9547 71.065 36.9554 70.5021 38.0723 70.0062C39.3321 69.4478 40.6769 69.5237 41.9903 69.3584C43.545 69.4567 44.9345 70.033 46.2524 70.8193C46.373 70.922 46.4892 71.0248 46.6098 71.1231L46.6232 71.1097V71.1141Z" fill="#C50249"/>
<path d="M46.6098 71.1276C46.4892 71.0248 46.3731 70.9221 46.2524 70.8238C46.3731 70.9265 46.4892 71.0293 46.6098 71.1276Z" fill="#E10B62"/>
<path d="M126.297 29.7672C128.044 34.2436 130.063 38.5727 133.016 42.4013C133.454 42.9732 133.95 43.5004 134.419 44.0499C132.444 45.6716 129.974 46.4891 127.959 48.0528C123.818 46.4847 119.676 44.921 115.535 43.3529C119.761 39.3321 123.197 34.6814 126.297 29.7672Z" fill="#FEBF4F"/>
<path d="M120.364 61.1158C118.037 61.1024 116.075 60.5082 114.284 59.4182C112.224 58.1673 112.162 55.9201 114.096 54.4905C117.13 52.2522 122.737 52.1048 125.815 54.1867C128.209 55.8084 128.2 58.1226 125.743 59.6639C124.045 60.7316 122.111 60.9952 120.36 61.1158H120.364Z" fill="#FE5E93"/>
<path d="M109.848 63.1128C111.617 63.0324 113.189 63.2513 114.445 64.4799C115.615 65.628 115.544 66.9013 114.262 67.8841C112.077 69.5595 107.556 69.5282 105.429 67.8261C103.816 66.5349 103.955 65.0204 105.778 63.9929C107.078 63.2602 108.472 62.9698 109.848 63.1128Z" fill="#FE5E93"/>
<path d="M98.8933 21.8149C101.221 21.6988 102.682 22.7889 102.726 24.6742C102.771 26.6086 101.324 27.721 98.8441 27.6629C97.562 27.0554 96.7131 26.1574 96.7623 24.634C96.807 23.1865 97.6379 22.3466 98.8888 21.8149H98.8933Z" fill="#213652"/>
<path d="M70.4039 23.0703C72.7002 22.8514 74.2281 23.9236 74.3398 25.8268C74.4559 27.8059 72.9236 28.9987 70.3681 28.9273C67.5804 27.0554 67.5983 24.7278 70.4039 23.0703Z" fill="#213652"/>
<path d="M62.6393 103.03C55.9693 101.873 49.3573 101.73 42.9017 104.183C42.0708 104.5 41.7044 104.152 41.3113 103.495C36.3568 95.2522 29.2757 89.4578 20.573 85.5398C21.9222 84.137 23.3116 82.7744 24.5982 81.3135C25.3711 80.4379 25.8313 81.0678 26.3942 81.4788C32.3896 85.8257 38.881 89.2523 45.8012 91.8658C55.7861 95.632 66.1195 97.7227 76.7656 98.3839C91.236 99.2864 105.371 97.6334 119.127 92.9827C126.994 90.3245 134.383 86.7058 141.111 81.8139C142.099 81.0946 142.818 81.0321 143.738 81.8049C144.498 82.4438 145.36 82.9665 146.178 83.5383C143.846 85.6023 141.357 87.4832 139.226 89.7795C135.045 94.2872 131.627 99.2641 129.67 105.134C129.25 106.403 128.549 106.35 127.521 106.216C121.119 105.38 114.994 106.466 109.088 108.972C108.07 109.075 107.194 109.566 106.283 109.973C102.047 111.867 98.2142 114.418 94.4749 117.13C90.6373 114.981 86.7595 112.926 82.5242 111.644C82.3723 111.076 82.0239 110.647 81.5414 110.339C75.7336 106.635 69.4299 104.21 62.6437 103.039L62.6393 103.03ZM93.4518 105.889C93.4384 107.735 94.8368 109.191 96.6819 109.258C98.308 109.316 100.059 107.636 100.1 105.983C100.14 104.165 98.6967 102.659 96.874 102.61C94.8815 102.557 93.4652 103.915 93.4518 105.889Z" fill="#FEBF4F"/>
<path d="M94.4704 117.121C98.2097 114.409 102.043 111.858 106.278 109.964C107.189 109.557 108.065 109.066 109.084 108.963C112.278 109.003 114.329 110.799 115.91 113.364C119.305 118.868 121.034 124.841 120.918 131.305C120.865 134.316 120.395 137.274 118.939 139.986C113.225 143.144 107.136 145.137 100.627 145.784C100.131 145.834 99.6259 145.843 99.1255 145.811C98.4554 145.767 97.9729 145.414 97.7853 144.748C97.6021 144.1 97.7496 143.519 98.2991 143.108C98.7905 142.747 99.3176 142.434 99.8359 142.108C104.125 139.378 108.217 136.412 111.443 132.413C112.001 131.725 112.591 131.051 112.881 130.184C115.789 125.77 114.297 122.035 109.186 121.034C106.323 120.476 103.441 120.516 100.577 121.084C98.1874 121.24 95.9 121.897 93.5992 122.504C92.6655 122.75 91.705 123.072 91.0661 122.044C90.3513 120.9 91.2136 120.194 91.9328 119.498C92.7638 118.689 93.6216 117.907 94.4704 117.112V117.121Z" fill="#FE5E93"/>
<path d="M62.6393 103.03C69.4254 104.201 75.7291 106.627 81.5369 110.33C82.0239 110.638 82.3679 111.067 82.5198 111.635C82.2964 113.636 80.8355 113.395 79.4952 113.256C75.2422 112.823 71.0337 113.069 66.8745 114.052C65.351 114.413 63.8857 114.963 62.5857 115.87C60.1777 117.545 59.6013 119.828 60.946 122.433C62.0763 124.626 63.9036 126.181 65.8469 127.606C69.5237 130.296 73.6294 132.154 77.8646 133.762C78.1773 133.883 78.4901 133.995 78.8073 134.097C79.6561 134.379 80.3887 134.826 80.3217 135.835C80.2458 136.961 79.3433 137.243 78.423 137.359C77.2079 137.515 75.9838 137.676 74.7641 137.703C69.1529 137.832 63.6623 137.055 58.3147 135.326C57.4703 133.476 56.2596 131.841 55.661 129.831C53.3245 122.031 53.8382 114.44 57.0459 107.011C58.0913 104.589 60.1776 103.517 62.6393 103.03Z" fill="#FE5E93"/>
<path d="M100.582 121.088C103.45 120.521 106.327 120.48 109.191 121.039C114.306 122.04 115.798 125.774 112.886 130.188C108.628 127.36 104.656 124.153 100.578 121.084L100.582 121.088Z" fill="#FEC04F"/>
<path d="M87.1839 73.7098C85.3433 73.5936 83.7796 73.0665 82.493 71.9004C81.327 70.8461 81.1527 69.412 82.0551 68.3309C83.0335 67.1604 84.2934 67.0308 85.4773 67.8484C86.6791 68.6793 87.644 68.5945 88.8145 67.7992C90.0252 66.9772 91.4459 67.3078 92.2188 68.3979C93.0631 69.5952 92.8219 70.6942 91.8614 71.7083C90.5569 73.0888 88.8771 73.5668 87.1839 73.7098Z" fill="#C50249"/>
<path d="M93.4518 105.889C93.4652 103.915 94.8814 102.561 96.8739 102.61C98.6967 102.659 100.14 104.165 100.099 105.983C100.064 107.636 98.308 109.316 96.6818 109.258C94.8367 109.195 93.4384 107.734 93.4518 105.889Z" fill="#DD7E02"/>
</g>
<defs>
<clipPath id="clip0_1175_4698">
<rect width="172" height="172" fill="white"/>
</clipPath>
</defs>
</svg>
