<svg width="45" height="45" viewBox="0 0 45 45" fill="none" xmlns="http://www.w3.org/2000/svg">
<path fill-rule="evenodd" clip-rule="evenodd" d="M22.5 41.25C32.8553 41.25 41.25 32.8553 41.25 22.5C41.25 12.1447 32.8553 3.75 22.5 3.75C12.1447 3.75 3.75 12.1447 3.75 22.5C3.75 32.8553 12.1447 41.25 22.5 41.25ZM30 26.3352V21.6539C30 17.6334 30 15.6231 28.9016 14.374C27.8033 13.125 26.0355 13.125 22.5 13.125C18.9645 13.125 17.1967 13.125 16.0983 14.374C15 15.6231 15 17.6334 15 21.6539V26.3352C15 29.2383 15 30.6898 15.6118 31.324C15.9035 31.6265 16.2718 31.8166 16.6641 31.8671C17.4867 31.973 18.4473 31.0171 20.3685 29.1055C21.2177 28.2605 21.6423 27.838 22.1336 27.7266C22.3755 27.6718 22.6245 27.6718 22.8664 27.7266C23.3577 27.838 23.7823 28.2605 24.6315 29.1055C26.5527 31.0171 27.5133 31.973 28.3359 31.8671C28.7282 31.8166 29.0965 31.6265 29.3882 31.324C30 30.6898 30 29.2383 30 26.3352Z" fill="#4874D7"/>
</svg>
