<svg width="50" height="49" viewBox="0 0 50 49" fill="none" xmlns="http://www.w3.org/2000/svg">
<g clip-path="url(#clip0_4044_24360)">
<path d="M29.8341 0.507568H30.3951C30.9736 0.862893 31.127 1.35287 30.9237 1.99993C30.8003 2.39266 30.7355 2.80658 30.7542 3.22549C30.6033 3.90497 30.6707 4.59193 30.6844 5.27765C30.6594 5.74767 30.7455 6.20897 30.814 6.66902C31.1282 8.77728 31.9473 10.6985 32.9747 12.5475C33.9284 14.2642 34.7313 16.0508 35.341 17.9197C35.8035 19.336 36.1364 20.7785 36.2075 22.3719C36.3534 22.1624 36.4456 22.0427 36.5242 21.9156C37.2473 20.7386 37.7535 19.4732 38.0539 18.1254C38.2085 17.431 38.4629 17.1517 38.9728 17.1255C39.4852 17.0994 39.7607 17.335 40.0101 18.0107C40.505 19.356 40.9077 20.7274 41.1982 22.13C41.8977 25.5112 41.9239 28.8637 40.7644 32.1676C40.3716 33.2872 39.8156 34.327 39.2683 35.373L39.2732 35.368C39.2421 35.4017 39.2109 35.4354 39.181 35.469C38.585 36.3181 37.9866 37.1621 37.2735 37.9239C36.1963 39.0771 34.9607 40.0284 33.6454 40.8862C32.8949 41.2577 32.1456 41.628 31.395 41.9995C30.6869 42.1815 30.0286 42.5381 29.288 42.6092C29.3416 42.497 29.4513 42.472 29.5536 42.4371C31.88 41.6155 33.8225 40.2566 35.4183 38.364C38.0527 35.2396 38.7147 31.5854 38.393 27.6519C38.332 26.9113 38.3257 26.1633 38.1711 25.4314C38.12 25.1933 38.019 25.0312 37.756 25.0038C37.4717 24.9739 37.3283 25.121 37.2386 25.3691C36.7087 26.834 35.8771 28.1281 34.9346 29.3524C34.7164 29.6355 34.5206 29.9596 34.1902 30.1666C33.9708 29.5457 34.098 28.9298 34.0282 28.3326C33.6703 25.2855 32.7066 22.4267 31.3476 19.6864C30.531 18.0407 29.6134 16.4473 28.7868 14.8091C27.6386 12.535 27.1411 10.0939 27.2259 7.54175C27.2396 7.13531 27.1947 6.77874 26.782 6.54435C26.3531 6.30123 26.0153 6.45583 25.66 6.69022C24.3658 7.543 23.2288 8.56658 22.2252 9.74975C20.4822 11.8032 19.2978 14.1396 18.5921 16.7291C18.1869 18.2177 17.9613 19.7325 17.8578 21.2735C17.7805 22.4255 17.7406 23.5675 17.8653 24.7158C17.9101 25.1309 17.8515 25.5523 17.8964 25.9775C17.0424 25.1671 16.4016 24.242 15.8667 23.2371C15.4715 22.4941 15.1162 21.7348 14.8494 20.9356C14.7783 20.7237 14.6599 20.5379 14.398 20.5217C14.135 20.5055 14.0053 20.675 13.9068 20.8808C13.8258 21.0491 13.7472 21.2186 13.6737 21.3907C12.8184 23.4129 12.3496 25.5249 12.1576 27.7105C11.9544 30.0307 12.0579 32.3048 12.9219 34.5015C14.3232 38.066 16.7581 40.6268 20.2777 42.1591C20.5981 42.2987 20.9896 42.3 21.229 42.6104C20.4448 42.5169 19.7391 42.1653 18.9973 41.9334C18.2892 41.5856 17.581 41.2378 16.8741 40.8887C15.8617 40.2005 14.8593 39.5023 13.9667 38.6532C12.9605 37.697 12.1077 36.6198 11.336 35.4728C11.3048 35.4391 11.2749 35.4054 11.2437 35.3718L11.2487 35.3768C11.2226 35.2571 11.1876 35.1436 11.058 35.0925L11.0605 35.095C11.0767 34.9579 10.9844 34.8619 10.9246 34.7559C9.44593 32.1115 8.74027 29.2702 8.83377 26.2493C8.96343 22.0739 10.2127 18.1753 11.8945 14.3952C12.0728 13.9925 12.407 13.8241 12.8433 13.8678C13.2872 13.9127 13.5552 14.177 13.6487 14.5959C13.7834 15.203 13.9043 15.814 14.1088 16.4037C14.1948 16.653 14.2285 16.9335 14.4554 17.1654C14.5115 17.0034 14.5551 16.8874 14.59 16.7702C15.9403 12.227 18.1059 8.16887 21.6242 4.91235C22.6092 4.05708 23.6564 3.28409 24.7586 2.5884C25.1999 2.359 25.6412 2.12835 26.0838 1.90019C27.2795 1.2843 28.5587 0.897801 29.8403 0.513801L29.8341 0.507568Z" fill="#FEDB40"/>
<path d="M27.9652 48.1772C27.6697 48.3181 27.3169 48.1797 27.0302 48.368H23.2911C23.0767 48.1685 22.7775 48.3019 22.5431 48.1784C22.6715 46.4567 22.7077 44.7299 22.7588 43.0044C23.0318 43.0169 23.3049 43.0306 23.5766 43.0431C23.9058 43.1889 24.2511 43.1241 24.5915 43.1204C25.0329 43.174 25.4742 43.1653 25.9143 43.1204C26.2547 43.1229 26.6 43.1889 26.9292 43.0431C27.2022 43.0294 27.474 43.0169 27.747 43.0032C27.7982 44.7287 27.8343 46.4542 27.964 48.1772H27.9652Z" fill="#D24E3C"/>
<path d="M27.7483 43.0043C27.4753 43.018 27.2035 43.0305 26.9304 43.0429C26.999 43.0093 27.0651 42.9619 27.1374 42.9457C28.8542 42.5467 30.2954 41.694 31.5035 40.4023C32.8076 39.0072 33.5694 37.3652 33.7439 35.4864C33.9671 33.0689 33.4073 30.7849 32.3015 28.6392C31.2791 26.6569 29.965 24.8566 28.6709 23.05C27.4703 21.3731 26.4105 19.6277 25.746 17.6603C25.3122 16.3736 25.0167 15.0583 24.8159 13.7193C24.781 13.4812 24.6825 13.2967 24.4319 13.2543C24.2063 13.2169 24.0479 13.3415 23.932 13.5261C23.634 13.9998 23.3099 14.4586 23.0406 14.9486C21.3525 18.0318 20.5196 21.3619 20.3164 24.8466C20.1905 27.006 20.3488 29.1628 20.7054 31.2998C20.7241 31.4132 20.84 31.5566 20.6892 31.6302C20.5645 31.6913 20.4723 31.5479 20.3738 31.4756C19.5422 30.8647 18.9275 30.073 18.4563 29.1628C18.3465 28.9521 18.1982 28.8262 17.9438 28.83C17.6671 28.8349 17.5773 29.0207 17.5012 29.2351C16.7706 31.2636 16.5475 33.3856 16.7931 35.4889C17.1559 38.6033 18.8328 40.901 21.6629 42.3248C22.2788 42.6353 22.9545 42.7649 23.5792 43.0429C23.3061 43.0305 23.0331 43.0168 22.7613 43.0043C22.4708 42.9295 22.1816 42.8547 21.8911 42.7799C21.805 42.6677 21.6804 42.6714 21.5582 42.6702L21.5532 42.6851C21.4634 42.5991 21.355 42.5692 21.2328 42.5779L21.2265 42.6066C20.9872 42.2949 20.5957 42.2949 20.2753 42.1553C16.7569 40.6242 14.322 38.0622 12.9194 34.4977C12.0554 32.2997 11.9519 30.0268 12.1552 27.7066C12.3472 25.5211 12.8159 23.4091 13.6712 21.3868C13.7435 21.2148 13.8233 21.0452 13.9044 20.8769C14.0041 20.6712 14.1325 20.5016 14.3956 20.5179C14.6574 20.5341 14.7758 20.7186 14.8469 20.9318C15.115 21.7309 15.4703 22.4902 15.8643 23.2333C16.3979 24.2382 17.0387 25.1645 17.894 25.9736C17.8491 25.5485 17.9077 25.1271 17.8628 24.7119C17.7381 23.5637 17.778 22.4204 17.8553 21.2696C17.9588 19.7287 18.1832 18.2139 18.5897 16.7252C19.2953 14.137 20.4785 11.7993 22.2227 9.74591C23.2276 8.56274 24.3634 7.53915 25.6575 6.68637C26.0128 6.45198 26.3507 6.29739 26.7796 6.5405C27.1923 6.77489 27.2359 7.13147 27.2234 7.53791C27.1386 10.09 27.6361 12.5299 28.7844 14.8052C29.611 16.4435 30.5286 18.0368 31.3452 19.6825C32.7041 22.4216 33.6691 25.2805 34.0257 28.3288C34.0955 28.926 33.9696 29.5418 34.1878 30.1627C34.5194 29.9558 34.7152 29.6316 34.9321 29.3486C35.8746 28.1243 36.7062 26.8302 37.2361 25.3652C37.3259 25.1171 37.4692 24.97 37.7535 24.9999C38.0166 25.0274 38.1188 25.1894 38.1687 25.4276C38.3245 26.1607 38.3307 26.9075 38.3906 27.648C38.7123 31.5815 38.0502 35.2358 35.4158 38.3601C33.8212 40.2527 31.8788 41.6117 29.5511 42.4333C29.4501 42.4694 29.3392 42.4944 29.2856 42.6053L29.2781 42.5767C29.1621 42.5729 29.0549 42.5866 28.9938 42.7051C28.5786 42.8048 28.1635 42.9046 27.7483 43.0043Z" fill="#FEB232"/>
<path d="M30.7529 3.22559C35.1191 4.3352 38.8668 6.50954 41.9438 9.80097C45.3549 13.449 47.4644 17.754 47.9606 22.7298C48.8658 31.8111 45.5083 39.0261 38.1449 44.3921C38.0078 44.4919 37.8544 44.5692 37.7086 44.6564C37.352 44.3323 36.9929 44.0106 36.6401 43.6827C35.6389 42.7514 34.6403 41.8176 33.6404 40.885C34.9557 40.0273 36.1913 39.076 37.2685 37.9227C37.9804 37.161 38.58 36.3169 39.176 35.4679C39.2782 35.5003 39.2608 35.4217 39.2683 35.3669L39.2633 35.3719C39.5164 35.3108 39.6223 35.0814 39.7632 34.9068C42.2979 31.77 43.6755 28.1731 43.9274 24.1611C44.0707 21.8758 43.774 19.6241 43.0596 17.4423C41.5573 12.8505 38.6947 9.34216 34.5381 6.90351C33.3312 6.19535 32.0633 5.58819 30.6806 5.27774C30.6669 4.59203 30.5996 3.90507 30.7504 3.22559H30.7529ZM42.066 37.3779C42.0572 37.0089 41.7979 36.8381 41.4127 36.9665C40.5661 37.2495 39.7769 37.6522 39.0588 38.1833C38.1387 38.864 37.4268 39.7143 37.0004 40.7865C36.8072 41.274 36.9904 41.582 37.4542 41.5234C38.5027 41.3912 39.4939 41.0858 40.3405 40.4225C41.3329 39.6433 41.8715 38.6022 42.066 37.3779Z" fill="#FE4155"/>
<path d="M12.7972 44.6564C10.1366 42.9782 7.95607 40.8014 6.21935 38.1907C3.19472 33.6413 1.88688 28.6156 2.48033 23.1923C3.31317 15.5821 7.09706 9.77719 13.6051 5.75267C14.3594 5.28638 15.1486 4.88119 15.969 4.53833C15.8655 4.67423 15.767 4.81386 15.6573 4.94352C14.8145 5.94591 14.1886 7.05926 13.9205 8.35339C13.7659 8.38955 13.6313 8.4656 13.5104 8.56659C12.4731 9.44056 11.4844 10.3706 10.654 11.4428C7.40127 15.6382 6.05103 20.3708 6.73799 25.6546C7.18184 29.0719 8.53332 32.1053 10.6466 34.8107C10.75 34.9429 10.8485 35.0962 11.0518 35.0875L11.0493 35.085C11.0331 35.2334 11.0692 35.3456 11.24 35.3693L11.235 35.3643C11.2438 35.4179 11.2251 35.4965 11.3273 35.4653C12.099 36.6123 12.9531 37.6883 13.9579 38.6458C14.8506 39.4948 15.853 40.193 16.8654 40.8812C15.5089 42.1379 14.1524 43.3959 12.796 44.6526L12.7972 44.6564ZM13.5914 41.0283C13.5465 40.9099 13.4966 40.7465 13.4256 40.5932C12.5466 38.6981 10.9745 37.6272 9.07316 36.9639C8.62807 36.808 8.37872 37.0848 8.47597 37.581C8.9435 39.9661 10.7276 41.2515 13.0777 41.527C13.3982 41.5644 13.5802 41.4123 13.5914 41.0283Z" fill="#FE4255"/>
<path d="M30.6831 5.27762C32.0658 5.58806 33.335 6.19522 34.5406 6.90338C38.6973 9.34203 41.5598 12.8504 43.0622 17.4422C43.7765 19.624 44.0733 21.8756 43.9299 24.1609C43.6781 28.173 42.3004 31.7711 39.7657 34.9067C39.6249 35.0812 39.5189 35.3107 39.2658 35.3717C39.8131 34.3257 40.3692 33.2859 40.7619 32.1663C41.9214 28.8624 41.8952 25.5099 41.1958 22.1287C40.9053 20.7261 40.5026 19.3535 40.0076 18.0095C39.7595 17.335 39.484 17.0981 38.9703 17.1243C38.4604 17.1504 38.2061 17.4297 38.0515 18.1242C37.751 19.4719 37.2461 20.7374 36.5217 21.9143C36.4431 22.0427 36.3509 22.1624 36.205 22.3706C36.1339 20.7785 35.8011 19.3348 35.3385 17.9184C34.7276 16.0496 33.9247 14.263 32.9722 12.5462C31.9449 10.6972 31.1245 8.776 30.8116 6.66774C30.743 6.20769 30.657 5.74639 30.6819 5.27637L30.6831 5.27762ZM34.7363 10.044C34.7501 10.2933 34.7588 10.5888 34.7862 10.883C34.942 12.5412 35.4931 14.0311 36.6601 15.2541C37.059 15.6718 37.4069 15.592 37.5926 15.0522C37.7697 14.5348 37.8856 14.0011 37.9318 13.4588C38.1076 11.3954 37.367 9.74473 35.6702 8.54286C35.1877 8.20125 34.8386 8.37704 34.7924 8.97175C34.7663 9.31336 34.7563 9.65496 34.7376 10.044H34.7363Z" fill="#E70254"/>
<path d="M11.0542 35.09C10.851 35.0975 10.7512 34.9454 10.649 34.8132C8.537 32.1065 7.18427 29.0732 6.74043 25.6571C6.05347 20.3721 7.4037 15.6406 10.6565 11.4453C11.4868 10.3744 12.4742 9.44303 13.5128 8.56906C13.6337 8.46682 13.7671 8.39077 13.923 8.35586C13.8868 8.68002 13.8507 9.00417 13.8145 9.32833C13.7871 9.5677 13.7883 9.79835 14.0177 9.9542C14.2559 10.115 14.4578 9.98911 14.6698 9.88313C16.3778 9.0316 17.5311 7.72874 17.9737 5.84365C18.1382 5.80126 18.3103 5.77633 18.4661 5.7115C19.2591 5.38609 20.0794 5.14173 20.9123 4.94724C21.1342 4.89488 21.3748 4.72158 21.6192 4.90734C18.1021 8.16386 15.9352 12.222 14.585 16.7652C14.5501 16.8837 14.5052 16.9984 14.4503 17.1604C14.2234 16.9285 14.1898 16.648 14.1038 16.3987C13.9005 15.8102 13.7783 15.1993 13.6437 14.5909C13.5514 14.172 13.2821 13.9077 12.8383 13.8628C12.4019 13.8179 12.0691 13.9874 11.8895 14.3901C10.2089 18.1703 8.95965 22.0677 8.82874 26.2443C8.73523 29.2652 9.4409 32.1078 10.9195 34.7509C10.9794 34.8568 11.0704 34.9528 11.0554 35.09H11.0542Z" fill="#E70254"/>
<path d="M21.8886 42.78C22.1791 42.8548 22.4683 42.9296 22.7588 43.0044C22.7077 44.7299 22.6715 46.4554 22.5431 48.1784C20.8039 48.0126 19.117 47.6211 17.4888 46.9853C17.8653 45.7922 18.258 44.6028 18.6133 43.4021C18.7567 42.9171 19.0185 42.4583 18.9924 41.9285C19.7342 42.1604 20.4398 42.5119 21.224 42.6055L21.2303 42.5768C21.3051 42.7102 21.436 42.6703 21.5507 42.684L21.5557 42.669C21.643 42.7763 21.7714 42.7601 21.8886 42.7788V42.78Z" fill="#B53A21"/>
<path d="M27.7483 43.0045C28.1635 42.9047 28.5787 42.805 28.9938 42.7053C29.0911 42.6678 29.222 42.7052 29.2781 42.5768L29.2856 42.6055C30.0261 42.5344 30.6844 42.1779 31.3926 41.9958C31.4898 42.0657 31.501 42.1766 31.5335 42.2801C32.0272 43.8485 32.5234 45.4157 33.0183 46.9841C31.3913 47.6249 29.7045 48.0127 27.964 48.1772C27.8343 46.4555 27.7994 44.7287 27.7471 43.0032L27.7483 43.0045Z" fill="#B53A21"/>
<path d="M33.0183 46.9854C32.5234 45.4182 32.0272 43.8498 31.5335 42.2814C31.501 42.1779 31.4886 42.067 31.3926 41.9971C32.1431 41.6256 32.8924 41.2553 33.643 40.8838C34.6429 41.8164 35.6403 42.7502 36.6414 43.6815C36.9942 44.0094 37.3533 44.3311 37.7099 44.6552C36.2537 45.6476 34.6915 46.4281 33.0183 46.9842V46.9854Z" fill="#9B2B1C"/>
<path d="M18.9911 41.9285C19.0173 42.4584 18.7555 42.9172 18.6121 43.4022C18.2568 44.6028 17.8653 45.7922 17.4875 46.9854C15.8181 46.4231 14.2547 45.6464 12.7972 44.6564C14.1537 43.3997 15.5102 42.1417 16.8666 40.885C17.5748 41.2329 18.283 41.5807 18.9899 41.9298L18.9911 41.9285Z" fill="#9B2B1C"/>
<path d="M21.618 4.90622C21.3736 4.72046 21.133 4.89375 20.9111 4.94612C20.0783 5.14061 19.2591 5.38373 18.465 5.71038C18.3091 5.77396 18.1371 5.7989 17.9725 5.84253C17.965 5.15308 18.0323 4.46238 17.8927 3.77791C20.1182 3.03235 22.3997 2.60222 24.7511 2.58228C23.6477 3.27921 22.6017 4.05095 21.6168 4.90622H21.618Z" fill="#FE4356"/>
<path d="M11.2425 35.3731C11.073 35.3494 11.0356 35.2372 11.0518 35.0889C11.1814 35.14 11.2163 35.2534 11.2425 35.3731Z" fill="#E70254"/>
<path d="M11.3286 35.4677C11.2276 35.4989 11.2451 35.4203 11.2363 35.3667C11.2675 35.4004 11.2974 35.434 11.3286 35.4677Z" fill="#E70254"/>
<path d="M39.2707 35.3667C39.262 35.4216 39.2795 35.4989 39.1785 35.4677C39.2096 35.434 39.2408 35.4004 39.2707 35.3667Z" fill="#E70254"/>
<path d="M17.8927 3.77786C18.0323 4.46232 17.965 5.15302 17.9725 5.84248C17.5299 7.72757 16.3766 9.03167 14.6686 9.88196C14.4579 9.98669 14.2546 10.1139 14.0165 9.95302C13.7859 9.79718 13.7859 9.56653 13.8133 9.32715C13.8494 9.003 13.8856 8.67884 13.9218 8.35469C14.1898 7.05931 14.8157 5.94721 15.6585 4.94357C15.7682 4.81391 15.8667 4.67427 15.9702 4.53838C16.3193 4.24289 16.6634 3.93869 17.0199 3.65193C17.3877 3.35645 17.5785 3.39011 17.8927 3.77661V3.77786Z" fill="#FEDA40"/>
<path d="M23.5779 43.0431C22.9545 42.7651 22.2775 42.6354 21.6616 42.325C18.8315 40.9012 17.1546 38.6034 16.7918 35.489C16.5475 33.3858 16.7694 31.2638 17.5 29.2353C17.5773 29.0209 17.6658 28.8351 17.9426 28.8301C18.1969 28.8251 18.3453 28.9523 18.455 29.163C18.9263 30.0731 19.5409 30.8636 20.3725 31.4757C20.471 31.5481 20.562 31.6902 20.6879 31.6303C20.8388 31.5568 20.7228 31.4134 20.7041 31.2999C20.3476 29.1618 20.1892 27.0061 20.3152 24.8468C20.5184 21.3621 21.3525 18.032 23.0393 14.9488C23.3074 14.4588 23.6328 14 23.9307 13.5262C24.0467 13.3417 24.2063 13.217 24.4307 13.2544C24.6813 13.2956 24.7798 13.4814 24.8147 13.7195C25.0142 15.0585 25.3096 16.3738 25.7448 17.6605C26.4093 19.6278 27.4678 21.3733 28.6697 23.0502C29.9638 24.858 31.2779 26.657 32.3002 28.6394C33.4061 30.785 33.9671 33.0703 33.7427 35.4865C33.5694 37.3654 32.8064 39.0061 31.5023 40.4025C30.2954 41.6954 28.8529 42.5469 27.1361 42.9459C27.0638 42.9633 26.9978 43.0107 26.9292 43.0431C26.6 43.189 26.2547 43.1229 25.9143 43.1204C25.9555 43.098 25.9929 43.0656 26.0365 43.0556C27.7209 42.6691 28.8155 41.3176 28.8006 39.6046C28.7931 38.7244 28.5574 37.889 28.237 37.0724C27.6909 35.6823 26.9404 34.4206 25.8906 33.3534C25.357 32.8098 25.1413 32.8197 24.614 33.3509C23.4283 34.544 22.6391 35.9828 22.0918 37.5537C21.7951 38.4052 21.5681 39.2954 21.7489 40.2068C22.0619 41.7826 23.0343 42.7439 24.5928 43.1204C24.2524 43.1229 23.9071 43.189 23.5779 43.0431Z" fill="#FEA119"/>
<path d="M24.5915 43.1203C23.0343 42.745 22.0606 41.7838 21.7477 40.2066C21.5669 39.2953 21.7938 38.4051 22.0905 37.5536C22.6378 35.9826 23.427 34.5439 24.6127 33.3507C25.1413 32.8196 25.3558 32.8097 25.8894 33.3532C26.9391 34.4217 27.6897 35.6822 28.2358 37.0723C28.5562 37.8877 28.7918 38.7243 28.7993 39.6045C28.8143 41.3175 27.7209 42.6677 26.0352 43.0555C25.9916 43.0654 25.953 43.0979 25.9131 43.1203C25.4717 43.1639 25.0304 43.1739 24.5903 43.1203H24.5915Z" fill="#FE9100"/>
<path d="M21.5506 42.6839C21.4359 42.6702 21.305 42.7101 21.2302 42.5766C21.3524 42.5679 21.4609 42.5978 21.5506 42.6839Z" fill="#FEDB40"/>
<path d="M29.278 42.5781C29.2219 42.7065 29.091 42.6679 28.9938 42.7066C29.0549 42.5894 29.1621 42.5744 29.278 42.5781Z" fill="#FEDB40"/>
<path d="M21.8885 42.7799C21.7714 42.7612 21.6429 42.7774 21.5557 42.6702C21.6778 42.6702 21.8025 42.6677 21.8885 42.7799Z" fill="#FEDB40"/>
<path d="M42.066 37.3779C41.8715 38.6022 41.3329 39.6445 40.3405 40.4225C39.494 41.087 38.5028 41.3924 37.4543 41.5233C36.9905 41.5819 36.806 41.274 37.0005 40.7865C37.4256 39.7143 38.1387 38.864 39.0588 38.1833C39.777 37.6522 40.5662 37.2495 41.4127 36.9665C41.798 36.838 42.0585 37.0089 42.066 37.3779Z" fill="#FEDA40"/>
<path d="M13.5914 41.0283C13.5802 41.4123 13.3969 41.5644 13.0777 41.527C10.7276 41.2515 8.94476 39.9661 8.47598 37.581C8.37873 37.0848 8.62808 36.8093 9.07317 36.9639C10.9757 37.6271 12.5466 38.6981 13.4256 40.5932C13.4967 40.7465 13.5465 40.9099 13.5914 41.0283Z" fill="#FEDA40"/>
<path d="M34.7364 10.044C34.7551 9.65496 34.765 9.31336 34.7912 8.97175C34.8373 8.3758 35.1864 8.20001 35.6689 8.54286C37.3658 9.74473 38.1063 11.3954 37.9305 13.4588C37.8844 14.0011 37.7697 14.5348 37.5914 15.0522C37.4056 15.592 37.0578 15.673 36.6588 15.2541C35.4919 14.0311 34.9396 12.54 34.785 10.883C34.7575 10.5888 34.7501 10.2933 34.7351 10.044H34.7364Z" fill="#FEDA40"/>
</g>
<defs>
<clipPath id="clip0_4044_24360">
<rect width="47.8753" height="48" fill="white" transform="translate(1.31592 0.5)"/>
</clipPath>
</defs>
</svg>
