<svg width="24" height="24" viewBox="0 0 24 24" fill="none" xmlns="http://www.w3.org/2000/svg">
<circle cx="12" cy="12" r="12" fill="#919191" fill-opacity="0.3"/>
<path fill-rule="evenodd" clip-rule="evenodd" d="M16.7743 7.84139C16.1431 7.1835 15.098 7.16191 14.4401 7.79318L12.3333 9.81473L10.2265 7.79318C9.56861 7.16191 8.52354 7.1835 7.89227 7.84139C7.261 8.49928 7.28258 9.54435 7.94047 10.1756L9.94883 12.1027L7.84126 14.125C7.18337 14.7563 7.16179 15.8013 7.79306 16.4592C8.42433 17.1171 9.4694 17.1387 10.1273 16.5074L12.3333 14.3907L14.5393 16.5074C15.1972 17.1387 16.2423 17.1171 16.8735 16.4592C17.5048 15.8013 17.4832 14.7563 16.8253 14.125L14.7178 12.1027L16.7261 10.1756C17.384 9.54435 17.4056 8.49928 16.7743 7.84139Z" fill="white"/>
</svg>
