<svg width="32" height="32" viewBox="0 0 32 32" fill="none" xmlns="http://www.w3.org/2000/svg">
<rect x="0.5" y="0.5" width="31" height="31" rx="15.5" fill="white"/>
<rect x="0.5" y="0.5" width="31" height="31" rx="15.5" stroke="#C7C7C7"/>
<path fill-rule="evenodd" clip-rule="evenodd" d="M20.058 15.1918L21.2852 13.5569C21.8932 12.7469 22.1492 11.7489 22.0062 10.7459C21.8632 9.74289 21.3392 8.85689 20.5292 8.24889C18.8582 6.99489 16.4762 7.33189 15.2212 9.00489L8.46919 17.9999C6.45719 20.6829 8.24719 23.8789 8.32419 24.0139C8.42819 24.1949 8.60319 24.3239 8.80719 24.3709C8.86519 24.3849 9.42519 24.5089 10.2062 24.5089C11.4692 24.5089 13.3072 24.1859 14.5332 22.5519L19.9018 15.3999C19.933 15.3705 19.9621 15.3381 19.9887 15.3027C20.0154 15.2672 20.0385 15.2301 20.058 15.1918ZM9.47719 22.9619C10.2582 23.0569 12.2282 23.1239 13.3332 21.6509L18.3293 14.9951L14.6646 12.2436L9.66819 18.8999C8.54119 20.4039 9.16119 22.2449 9.47719 22.9619ZM15.5648 11.0445L19.23 13.7951L20.0852 12.6559C20.8442 11.6459 20.6392 10.2069 19.6292 9.44789C18.6182 8.69089 17.1782 8.8959 16.4202 9.90489L15.5648 11.0445Z" fill="black"/>
<path d="M23.733 24.2471H17.356C16.942 24.2471 16.606 23.9111 16.606 23.4971C16.606 23.0831 16.942 22.7471 17.356 22.7471H23.733C24.147 22.7471 24.483 23.0831 24.483 23.4971C24.483 23.9111 24.147 24.2471 23.733 24.2471Z" fill="black"/>
</svg>
