<svg width="176" height="40" viewBox="0 0 176 40" fill="none" xmlns="http://www.w3.org/2000/svg">
<rect x="0.5" y="0.5" width="175" height="39" rx="15.5" fill="white"/>
<rect x="0.5" y="0.5" width="175" height="39" rx="15.5" stroke="#C7C7C7"/>
<path fill-rule="evenodd" clip-rule="evenodd" d="M24.3976 20.4983C24.3976 18.3472 26.1418 16.603 28.2928 16.603C30.4439 16.603 32.1881 18.3472 32.1881 20.4983C32.1881 22.6493 30.4439 24.3936 28.2928 24.3936C26.1418 24.3936 24.3976 22.6493 24.3976 20.4983ZM28.2928 18.103C26.9702 18.103 25.8976 19.1757 25.8976 20.4983C25.8976 21.8209 26.9702 22.8936 28.2928 22.8936C29.6155 22.8936 30.6881 21.8209 30.6881 20.4983C30.6881 19.1757 29.6155 18.103 28.2928 18.103Z" fill="black"/>
<path fill-rule="evenodd" clip-rule="evenodd" d="M30.1095 10.3684C30.6332 10.4186 31.1658 10.5013 31.5265 10.6531L31.5272 10.6533C32.2633 10.9637 32.6864 11.6051 32.9502 12.0836C33.0433 12.2525 33.1335 12.4346 33.2085 12.5861C33.2391 12.6479 33.2672 12.7046 33.2919 12.7533C33.3956 12.9572 33.4498 13.0387 33.474 13.0652L33.475 13.0663C33.6193 13.2252 33.8034 13.329 33.9767 13.3856C35.6476 13.8501 36.7333 14.6643 37.3494 15.9554C37.9322 17.1769 38.0457 18.7384 38.0457 20.5665C38.0457 23.1552 37.8302 25.3712 36.3437 26.8702C34.8652 28.3609 32.327 28.9502 28.2926 28.9502C24.2582 28.9502 21.7199 28.3609 20.2415 26.8702C18.7549 25.3712 18.5394 23.1552 18.5394 20.5665C18.5394 18.7384 18.653 17.1769 19.2358 15.9554C19.8519 14.6642 20.9378 13.85 22.6089 13.3855C22.7821 13.3292 22.9653 13.2257 23.1102 13.0663L23.1112 13.0652C23.1358 13.0382 23.1912 12.955 23.2964 12.7491C23.3217 12.6996 23.3505 12.6419 23.3817 12.5791C23.4576 12.4268 23.5484 12.2445 23.6418 12.0756C23.9049 11.5998 24.3301 10.9513 25.0653 10.6503L25.0662 10.6499C25.4189 10.5061 25.9445 10.4246 26.4657 10.3738C27.0148 10.3203 27.6528 10.2933 28.2852 10.292C28.9175 10.2908 29.5573 10.3154 30.1095 10.3684ZM25.6331 12.0387C25.4043 12.1326 25.1906 12.3745 24.9544 12.8016C24.8767 12.9421 24.8119 13.0724 24.7433 13.2102C24.708 13.2813 24.6716 13.3544 24.632 13.4319C24.5341 13.6234 24.3981 13.8801 24.2198 14.0756C23.8646 14.4663 23.4338 14.6985 23.0482 14.8198C23.0398 14.8225 23.0313 14.825 23.0228 14.8273C21.6527 15.2057 20.9762 15.791 20.5896 16.6013C20.168 17.485 20.0394 18.7335 20.0394 20.5665C20.0394 23.2009 20.3029 24.8018 21.3066 25.8139C22.3184 26.8342 24.2817 27.4502 28.2926 27.4502C32.3034 27.4502 34.2668 26.8342 35.2786 25.8139C36.2823 24.8018 36.5457 23.2009 36.5457 20.5665C36.5457 18.7335 36.4172 17.485 35.9956 16.6013C35.6089 15.791 34.9325 15.2057 33.5624 14.8273C33.5536 14.8249 33.5449 14.8223 33.5362 14.8196C33.153 14.6986 32.721 14.4668 32.3654 14.0757C32.1866 13.8796 32.0516 13.6235 31.9548 13.4331C31.9157 13.3563 31.88 13.284 31.8452 13.2137C31.7775 13.0767 31.7136 12.9475 31.6366 12.8078C31.4052 12.3881 31.1894 12.1389 30.9446 12.0356C30.8146 11.981 30.4869 11.9115 29.9663 11.8615C29.4736 11.8143 28.8841 11.7909 28.2881 11.792C27.6922 11.7932 27.103 11.8189 26.6111 11.8668C26.092 11.9173 25.7632 11.9857 25.6331 12.0387Z" fill="black"/>
<path fill-rule="evenodd" clip-rule="evenodd" d="M32.4546 17C32.4546 16.5858 32.7904 16.25 33.2046 16.25H33.2136C33.6278 16.25 33.9636 16.5858 33.9636 17C33.9636 17.4142 33.6278 17.75 33.2136 17.75H33.2046C32.7904 17.75 32.4546 17.4142 32.4546 17Z" fill="black"/>
<path d="M51.472 25.16C51.0667 25.16 50.7093 25.096 50.4 24.968C50.0907 24.84 49.8507 24.6373 49.68 24.36C49.5093 24.072 49.424 23.704 49.424 23.256V16.232H51.456V23C51.456 23.224 51.504 23.3893 51.6 23.496C51.696 23.592 51.8507 23.64 52.064 23.64C52.1493 23.64 52.24 23.6293 52.336 23.608C52.4427 23.5867 52.5387 23.56 52.624 23.528L52.848 24.872C52.6453 24.9787 52.4267 25.0533 52.192 25.096C51.9573 25.1387 51.7173 25.16 51.472 25.16ZM56.112 25.16C55.7067 25.16 55.3493 25.096 55.04 24.968C54.7307 24.84 54.4907 24.6373 54.32 24.36C54.1493 24.072 54.064 23.704 54.064 23.256V16.232H56.096V23C56.096 23.224 56.144 23.3893 56.24 23.496C56.336 23.592 56.4907 23.64 56.704 23.64C56.7893 23.64 56.88 23.6293 56.976 23.608C57.0827 23.5867 57.1787 23.56 57.264 23.528L57.488 24.872C57.2853 24.9787 57.0667 25.0533 56.832 25.096C56.5973 25.1387 56.3573 25.16 56.112 25.16ZM58.9321 25V22.184C58.9321 21.512 59.0708 21.0053 59.3481 20.664C59.6255 20.3227 60.0041 20.088 60.4841 19.96L60.5001 19.896L58.7721 19.256V18.792C58.7721 18.3013 58.9215 17.848 59.2201 17.432C59.5295 17.016 59.9721 16.68 60.5481 16.424C61.1241 16.168 61.8228 16.04 62.6441 16.04C63.3908 16.04 64.0521 16.1573 64.6281 16.392C65.2041 16.6267 65.6575 16.984 65.9881 17.464C66.3188 17.9333 66.4841 18.5413 66.4841 19.288V25H64.4521V19.432C64.4521 18.824 64.2815 18.3813 63.9401 18.104C63.5988 17.8267 63.1508 17.688 62.5961 17.688C62.0415 17.688 61.6148 17.8053 61.3161 18.04C61.0281 18.264 60.8735 18.5467 60.8521 18.888L62.4041 19.624L62.2441 20.568C61.8495 20.5787 61.5348 20.7173 61.3001 20.984C61.0761 21.24 60.9641 21.608 60.9641 22.088V25H58.9321ZM61.5621 14.952V14.2C61.7328 14.1573 61.9195 14.0987 62.1221 14.024C62.3141 13.9387 62.4848 13.832 62.6341 13.704C62.7728 13.576 62.8421 13.416 62.8421 13.224C62.8421 13.0853 62.7995 12.9733 62.7141 12.888C62.6288 12.792 62.5168 12.744 62.3781 12.744C62.2821 12.744 62.1861 12.7653 62.0901 12.808C61.9835 12.84 61.8928 12.872 61.8181 12.904L61.4981 11.912C61.7115 11.7307 61.9675 11.6133 62.2661 11.56C62.5541 11.496 62.7995 11.464 63.0021 11.464C63.4608 11.464 63.8181 11.5813 64.0741 11.816C64.3301 12.04 64.4581 12.36 64.4581 12.776C64.4581 13.032 64.3941 13.2667 64.2661 13.48C64.1275 13.6827 63.9408 13.848 63.7061 13.976L63.6101 13.576H66.6821V14.952H61.5621ZM69.3839 17.832V15.304C69.3839 14.8987 69.4212 14.5733 69.4959 14.328C69.5705 14.072 69.6719 13.864 69.7999 13.704C69.9279 13.544 70.0612 13.4107 70.1999 13.304L70.1839 13.24H67.5919L68.0079 11.736H72.8879V13.24C72.4932 13.24 72.1465 13.368 71.8479 13.624C71.5599 13.88 71.4159 14.3493 71.4159 15.032V17.832H69.3839ZM71.4319 25.16C71.0159 25.16 70.6532 25.096 70.3439 24.968C70.0452 24.84 69.8105 24.6373 69.6399 24.36C69.4692 24.072 69.3839 23.704 69.3839 23.256V16.232H71.4159V23C71.4159 23.224 71.4639 23.3893 71.5599 23.496C71.6559 23.592 71.8105 23.64 72.0239 23.64C72.1092 23.64 72.1999 23.6293 72.2959 23.608C72.4025 23.5867 72.4985 23.56 72.5839 23.528L72.7919 24.872C72.5892 24.9787 72.3705 25.0533 72.1359 25.096C71.9119 25.1387 71.6772 25.16 71.4319 25.16ZM77.1701 25.192C76.0501 25.192 75.1968 24.936 74.6101 24.424C74.0235 23.9013 73.7301 23.1387 73.7301 22.136V21.368C73.7301 20.8987 73.7941 20.52 73.9221 20.232C74.0501 19.9333 74.1995 19.6667 74.3701 19.432C74.5515 19.1973 74.7008 18.9893 74.8181 18.808C74.9355 18.616 74.9941 18.408 74.9941 18.184C74.9941 17.9813 74.9461 17.8373 74.8501 17.752C74.7541 17.6667 74.6261 17.624 74.4661 17.624C74.3488 17.624 74.2261 17.6453 74.0981 17.688C73.9808 17.72 73.8528 17.768 73.7141 17.832L73.3461 16.504C73.6128 16.3547 73.9061 16.2533 74.2261 16.2C74.5461 16.1467 74.8288 16.12 75.0741 16.12C75.5221 16.12 75.8795 16.1947 76.1461 16.344C76.4128 16.4827 76.6048 16.6853 76.7221 16.952C76.8395 17.208 76.8981 17.5173 76.8981 17.88C76.8981 18.232 76.8395 18.536 76.7221 18.792C76.6155 19.048 76.4821 19.304 76.3221 19.56C76.1728 19.816 76.0395 20.056 75.9221 20.28C75.8048 20.504 75.7461 20.8187 75.7461 21.224V21.976C75.7461 22.3707 75.8101 22.6853 75.9381 22.92C76.0661 23.1547 76.2368 23.3253 76.4501 23.432C76.6635 23.528 76.9088 23.576 77.1861 23.576C77.6448 23.576 77.9915 23.4587 78.2261 23.224C78.4608 22.9787 78.5781 22.616 78.5781 22.136V16.232H80.5941V22.2C80.5941 23.1707 80.3008 23.912 79.7141 24.424C79.1381 24.936 78.2901 25.192 77.1701 25.192ZM83.4453 25.16C83.1893 25.16 82.9493 25.1333 82.7253 25.08C82.5013 25.0373 82.2986 24.9627 82.1173 24.856L82.3092 23.656C82.3839 23.6773 82.4586 23.6987 82.5333 23.72C82.6186 23.7307 82.6986 23.736 82.7733 23.736C82.9546 23.736 83.0826 23.688 83.1573 23.592C83.2319 23.496 83.2693 23.3467 83.2693 23.144V21.864C83.2693 21.288 83.3813 20.856 83.6053 20.568C83.8399 20.2693 84.1759 20.0667 84.6133 19.96L84.6293 19.896L82.8533 19.256V18.792C82.8533 18.3013 82.9973 17.848 83.2853 17.432C83.5839 17.016 84.0213 16.68 84.5973 16.424C85.1733 16.168 85.8773 16.04 86.7093 16.04C87.4666 16.04 88.1333 16.1573 88.7093 16.392C89.2959 16.6267 89.7546 16.984 90.0853 17.464C90.4159 17.9333 90.5813 18.5413 90.5813 19.288V25H88.5493V19.432C88.5493 18.824 88.3786 18.3813 88.0373 18.104C87.6959 17.8267 87.2426 17.688 86.6773 17.688C86.1226 17.688 85.6959 17.8053 85.3973 18.04C85.0986 18.264 84.9439 18.5467 84.9333 18.888L86.4852 19.608L86.3413 20.552C85.9999 20.552 85.7333 20.664 85.5413 20.888C85.3599 21.1013 85.2693 21.448 85.2693 21.928V23.352C85.2693 24.024 85.0933 24.4933 84.7413 24.76C84.3999 25.0267 83.9679 25.16 83.4453 25.16ZM95.3336 25V19.048C95.3336 18.568 95.2216 18.2213 94.9976 18.008C94.7843 17.784 94.4216 17.672 93.9096 17.672C93.547 17.672 93.211 17.7253 92.9016 17.832C92.5923 17.928 92.299 18.0507 92.0216 18.2V16.52C92.2456 16.4133 92.5656 16.3067 92.9816 16.2C93.3976 16.0933 93.8883 16.04 94.4536 16.04C95.0296 16.04 95.5363 16.1253 95.9736 16.296C96.411 16.456 96.7523 16.7333 96.9976 17.128C97.243 17.512 97.3656 18.0347 97.3656 18.696V25H95.3336ZM100.643 25L99.1069 16.232H101.107L101.619 19.592C101.651 19.8693 101.694 20.2373 101.747 20.696C101.8 21.1547 101.854 21.6933 101.907 22.312H101.955C102.051 21.896 102.136 21.5173 102.211 21.176C102.296 20.8347 102.376 20.5307 102.451 20.264C102.526 19.9867 102.59 19.7467 102.643 19.544L103.587 16.232H104.931L105.875 19.544C105.939 19.7467 106.008 19.9867 106.083 20.264C106.158 20.5307 106.232 20.8347 106.307 21.176C106.392 21.5173 106.483 21.896 106.579 22.312H106.627C106.68 21.6933 106.728 21.1547 106.771 20.696C106.824 20.2373 106.872 19.8693 106.915 19.592L107.443 16.232H109.427L107.891 25H105.907L104.723 20.984C104.627 20.6213 104.547 20.28 104.483 19.96C104.419 19.6293 104.36 19.2613 104.307 18.856H104.243C104.2 19.1333 104.158 19.384 104.115 19.608C104.072 19.832 104.024 20.056 103.971 20.28C103.918 20.4933 103.854 20.728 103.779 20.984L102.595 25H100.643ZM111.68 17.832V15.032C111.68 14.392 111.547 13.9333 111.28 13.656C111.024 13.3787 110.662 13.24 110.192 13.24V12.408L111.648 11.736H115.808V13.24H112.912L112.896 13.304C113.152 13.464 113.35 13.7093 113.488 14.04C113.638 14.36 113.712 14.7813 113.712 15.304V17.832H111.68ZM113.728 25.16C113.323 25.16 112.966 25.096 112.656 24.968C112.347 24.84 112.107 24.6373 111.936 24.36C111.766 24.072 111.68 23.704 111.68 23.256V16.232H113.712V23C113.712 23.224 113.76 23.3893 113.856 23.496C113.952 23.592 114.107 23.64 114.32 23.64C114.406 23.64 114.496 23.6293 114.592 23.608C114.699 23.5867 114.795 23.56 114.88 23.528L115.104 24.872C114.902 24.9787 114.683 25.0533 114.448 25.096C114.214 25.1387 113.974 25.16 113.728 25.16ZM120.179 25.192C118.835 25.192 117.864 24.8827 117.267 24.264C116.68 23.6453 116.387 22.7493 116.387 21.576V16.232H118.419V21.672C118.419 22.2907 118.563 22.76 118.851 23.08C119.139 23.3893 119.582 23.544 120.179 23.544C120.787 23.544 121.235 23.3893 121.523 23.08C121.811 22.76 121.955 22.2907 121.955 21.672V13.08H123.987V21.576C123.987 22.7493 123.688 23.6453 123.091 24.264C122.494 24.8827 121.523 25.192 120.179 25.192ZM129.172 25.192C128.542 25.192 127.929 25.128 127.332 25C126.734 24.8613 126.212 24.68 125.764 24.456L126.34 22.84C126.564 22.9467 126.82 23.0587 127.108 23.176C127.406 23.2827 127.726 23.3733 128.068 23.448C128.42 23.5227 128.772 23.56 129.124 23.56C129.604 23.56 129.982 23.4853 130.26 23.336C130.537 23.176 130.676 22.9413 130.676 22.632C130.676 22.4187 130.606 22.2427 130.468 22.104C130.329 21.9547 130.121 21.816 129.844 21.688C129.566 21.56 129.225 21.432 128.82 21.304C128.212 21.1013 127.694 20.8827 127.268 20.648C126.841 20.4027 126.516 20.1147 126.292 19.784C126.068 19.4427 125.956 19.016 125.956 18.504C125.956 17.9707 126.089 17.5227 126.356 17.16C126.633 16.7973 127.038 16.52 127.572 16.328C128.105 16.136 128.745 16.04 129.492 16.04C130.057 16.04 130.574 16.088 131.044 16.184C131.513 16.28 131.881 16.4027 132.148 16.552V18.184C131.966 18.0987 131.732 18.0133 131.444 17.928C131.156 17.8427 130.846 17.7733 130.516 17.72C130.185 17.656 129.86 17.624 129.54 17.624C129.006 17.624 128.612 17.704 128.356 17.864C128.11 18.0133 127.988 18.2107 127.988 18.456C127.988 18.648 128.057 18.8133 128.196 18.952C128.345 19.08 128.574 19.2027 128.884 19.32C129.193 19.4373 129.582 19.5813 130.052 19.752C130.585 19.9333 131.049 20.1413 131.444 20.376C131.849 20.6 132.158 20.8827 132.372 21.224C132.596 21.5653 132.708 21.992 132.708 22.504C132.708 22.9733 132.596 23.4107 132.372 23.816C132.158 24.2213 131.796 24.552 131.284 24.808C130.772 25.064 130.068 25.192 129.172 25.192ZM135.009 17.832V15.304C135.009 14.8987 135.046 14.5733 135.121 14.328C135.196 14.072 135.297 13.864 135.425 13.704C135.553 13.544 135.686 13.4107 135.825 13.304L135.809 13.24H133.217L133.633 11.736H138.513V13.24C138.118 13.24 137.772 13.368 137.473 13.624C137.185 13.88 137.041 14.3493 137.041 15.032V17.832H135.009ZM137.057 25.16C136.641 25.16 136.278 25.096 135.969 24.968C135.67 24.84 135.436 24.6373 135.265 24.36C135.094 24.072 135.009 23.704 135.009 23.256V16.232H137.041V23C137.041 23.224 137.089 23.3893 137.185 23.496C137.281 23.592 137.436 23.64 137.649 23.64C137.734 23.64 137.825 23.6293 137.921 23.608C138.028 23.5867 138.124 23.56 138.209 23.528L138.417 24.872C138.214 24.9787 137.996 25.0533 137.761 25.096C137.537 25.1387 137.302 25.16 137.057 25.16ZM140.408 25L138.904 16.232H140.904L141.368 19.592C141.389 19.7093 141.41 19.912 141.432 20.2C141.464 20.488 141.501 20.8187 141.544 21.192C141.586 21.5653 141.624 21.9387 141.656 22.312H141.72C141.784 21.992 141.853 21.6773 141.928 21.368C142.002 21.0587 142.077 20.7493 142.152 20.44C142.237 20.1307 142.322 19.832 142.408 19.544L143.352 16.232H144.696L145.64 19.544C145.725 19.832 145.805 20.1307 145.88 20.44C145.954 20.7493 146.029 21.0587 146.104 21.368C146.178 21.6773 146.253 21.992 146.328 22.312H146.376C146.408 21.9067 146.44 21.5333 146.472 21.192C146.514 20.8507 146.546 20.5467 146.568 20.28C146.6 20.0027 146.621 19.7733 146.632 19.592L147.448 13.08H149.416L147.656 25H145.656L144.472 20.984C144.376 20.6427 144.296 20.3067 144.232 19.976C144.178 19.6347 144.12 19.2613 144.056 18.856H143.992C143.949 19.1333 143.906 19.384 143.864 19.608C143.821 19.832 143.773 20.056 143.72 20.28C143.666 20.4933 143.608 20.728 143.544 20.984L142.344 25H140.408ZM155.849 25V19.256C155.849 18.6693 155.7 18.2533 155.401 18.008C155.113 17.752 154.649 17.624 154.009 17.624C153.465 17.624 152.937 17.704 152.425 17.864C151.913 18.024 151.455 18.2213 151.049 18.456V16.712C151.359 16.5627 151.785 16.4133 152.329 16.264C152.884 16.1147 153.519 16.04 154.233 16.04C154.788 16.04 155.284 16.0987 155.721 16.216C156.169 16.3333 156.548 16.52 156.857 16.776C157.177 17.032 157.417 17.368 157.577 17.784C157.748 18.1893 157.833 18.6853 157.833 19.272V25H155.849ZM153.177 25.16C152.249 25.16 151.535 24.9413 151.033 24.504C150.543 24.0667 150.297 23.4533 150.297 22.664C150.297 21.7893 150.607 21.1067 151.225 20.616C151.855 20.1147 152.857 19.816 154.233 19.72L156.185 19.576V21.096L154.473 21.24C153.663 21.3147 153.103 21.464 152.793 21.688C152.484 21.9013 152.329 22.2053 152.329 22.6C152.329 22.9733 152.447 23.256 152.681 23.448C152.927 23.6293 153.257 23.72 153.673 23.72C153.823 23.72 153.961 23.7093 154.089 23.688C154.228 23.656 154.356 23.624 154.473 23.592L154.697 24.92C154.495 24.9947 154.26 25.0533 153.993 25.096C153.727 25.1387 153.455 25.16 153.177 25.16ZM154.824 15.336C154.739 15.208 154.67 15.0373 154.616 14.824C154.563 14.6 154.536 14.3813 154.536 14.168C154.536 13.9013 154.59 13.656 154.696 13.432C154.803 13.1973 154.99 13.0107 155.256 12.872C155.523 12.7333 155.891 12.664 156.36 12.664H158.632V14.088H156.984C156.782 14.088 156.622 14.1253 156.504 14.2C156.387 14.2747 156.328 14.4027 156.328 14.584C156.328 14.6587 156.339 14.7387 156.36 14.824C156.382 14.9093 156.414 14.9947 156.456 15.08L154.824 15.336Z" fill="black"/>
</svg>
