<svg width="30" height="32" viewBox="0 0 30 32" fill="none" xmlns="http://www.w3.org/2000/svg">
<path d="M0 17.1231C0 25.3433 6.66502 32.0003 14.8773 32.0003C23.0895 32.0003 29.7546 25.3433 29.7546 17.1231V15.3457H0L0 17.1231Z" fill="#E16D00"/>
<path d="M0 16.6548C0 24.875 6.66502 31.5321 14.8773 31.5321C23.0895 31.5321 29.7546 24.875 29.7546 16.6548V14.8774H0L0 16.6548Z" fill="#FF910F"/>
<path d="M0 15.2424C0 23.4626 6.66502 30.1197 14.8773 30.1197C23.0895 30.1197 29.7546 23.4626 29.7546 15.2424V14.8774H0L0 15.2424Z" fill="#FFE50F"/>
<path d="M29.7546 14.8773C29.7546 23.0975 23.0975 29.7546 14.8773 29.7546C6.65709 29.7546 0 23.0975 0 14.8773C0 6.65709 6.66502 0 14.8773 0C23.0895 0 29.7546 6.65709 29.7546 14.8773Z" fill="#FBC616"/>
<path d="M14.8773 0C11.1957 0 7.83141 1.34095 5.23682 3.55469L26.9537 23.5339C28.7072 21.09 29.7546 18.1066 29.7546 14.8773C29.7546 14.179 29.6911 13.4967 29.5959 12.8302L15.6946 0.0476054C15.4248 0.0317363 15.1471 0.0079423 14.8773 0.0079423V0Z" fill="#FBD416"/>
<path d="M16.8609 29.6115C19.1143 29.31 21.2091 28.5165 23.0261 27.3184L1.79321 7.7915C0.761715 9.6958 0.150757 11.854 0.0317383 14.1391L16.853 29.6115H16.8609Z" fill="#FBD416"/>
<path d="M25.2558 14.8774C25.2558 20.6062 20.6062 25.2558 14.8774 25.2558C9.14867 25.2558 4.49902 20.6062 4.49902 14.8774C4.49902 9.14866 9.14867 4.49902 14.8774 4.49902C20.6062 4.49902 25.2558 9.14866 25.2558 14.8774Z" fill="#F5A208"/>
<path d="M14.8774 6.68103C20.2412 6.68103 24.6528 10.7514 25.2003 15.9724C25.2399 15.6153 25.2558 15.2503 25.2558 14.8774C25.2558 9.14866 20.6062 4.49902 14.8774 4.49902C9.14867 4.49902 4.49902 9.14866 4.49902 14.8774C4.49902 15.2424 4.52283 15.6074 4.55457 15.9724C5.10205 10.7514 9.51366 6.68103 14.8774 6.68103Z" fill="#E16D00"/>
<path d="M14.8773 4.71325C20.5743 4.71325 25.1922 9.29942 25.2478 14.9806C25.2478 14.9409 25.2478 14.9091 25.2478 14.8774C25.2478 9.14866 20.5981 4.49902 14.8694 4.49902C9.14061 4.49902 4.49097 9.14866 4.49097 14.8774C4.49097 14.9091 4.49097 14.9488 4.49097 14.9806C4.54651 9.29942 9.17235 4.71325 14.8614 4.71325H14.8773Z" fill="#FFE50F"/>
</svg>
