<svg width="30" height="32" viewBox="0 0 30 32" fill="none" xmlns="http://www.w3.org/2000/svg">
<path d="M0 17.1231C0 25.3433 6.66502 32.0003 14.8773 32.0003C23.0895 32.0003 29.7546 25.3433 29.7546 17.1231V15.3457H0V17.1231Z" fill="#E16D00"/>
<path d="M0 16.6548C0 24.875 6.66502 31.5321 14.8773 31.5321C23.0895 31.5321 29.7546 24.875 29.7546 16.6548V14.8774H0V16.6548Z" fill="#FF910F"/>
<path d="M0 15.2424C0 23.4626 6.66502 30.1197 14.8773 30.1197C23.0895 30.1197 29.7546 23.4626 29.7546 15.2424V14.8774H0V15.2424Z" fill="#FFE50F"/>
<path d="M29.7546 14.8773C29.7546 23.0975 23.0975 29.7546 14.8773 29.7546C6.65709 29.7546 0 23.0975 0 14.8773C0 6.65709 6.66502 0 14.8773 0C23.0895 0 29.7546 6.65709 29.7546 14.8773Z" fill="#FBC616"/>
<path d="M14.8773 0C11.1957 0 7.83141 1.34095 5.23682 3.55469L26.9537 23.5339C28.7072 21.09 29.7546 18.1066 29.7546 14.8773C29.7546 14.179 29.6911 13.4967 29.5959 12.8302L15.6946 0.0476054C15.4248 0.0317363 15.1471 0.0079423 14.8773 0.0079423V0Z" fill="#FBD416"/>
<path d="M16.8609 29.6115C19.1143 29.31 21.2091 28.5165 23.0261 27.3184L1.79321 7.7915C0.761715 9.6958 0.150757 11.854 0.0317383 14.1391L16.853 29.6115H16.8609Z" fill="#FBD416"/>
<path d="M25.2558 14.8774C25.2558 20.6062 20.6062 25.2558 14.8774 25.2558C9.14867 25.2558 4.49902 20.6062 4.49902 14.8774C4.49902 9.14866 9.14867 4.49902 14.8774 4.49902C20.6062 4.49902 25.2558 9.14866 25.2558 14.8774Z" fill="#F5A208"/>
<path d="M11.59 19H8.30203V13.288H11.59V14.28H9.51003V15.536H11.446V16.528H9.51003V18H11.59V19ZM17.3946 19H16.0106L14.6826 16.84L13.3546 19H12.0586L13.9546 16.056L12.1786 13.288H13.5146L14.7466 15.344L15.9546 13.288H17.2586L15.4666 16.12L17.3946 19ZM19.9385 13.288C20.6745 13.288 21.2105 13.448 21.5465 13.768C21.8879 14.0827 22.0585 14.5173 22.0585 15.072C22.0585 15.3227 22.0212 15.5627 21.9465 15.792C21.8719 16.016 21.7465 16.2187 21.5705 16.4C21.3999 16.576 21.1732 16.7147 20.8905 16.816C20.6079 16.9173 20.2585 16.968 19.8425 16.968H19.3225V19H18.1145V13.288H19.9385ZM19.8745 14.28H19.3225V15.976H19.7225C19.9519 15.976 20.1492 15.9467 20.3145 15.888C20.4799 15.8293 20.6079 15.736 20.6985 15.608C20.7892 15.48 20.8345 15.3147 20.8345 15.112C20.8345 14.8293 20.7572 14.6213 20.6025 14.488C20.4479 14.3493 20.2052 14.28 19.8745 14.28Z" fill="#E16D00"/>
<path d="M14.8774 6.68103C20.2412 6.68103 24.6528 10.7514 25.2003 15.9724C25.2399 15.6153 25.2558 15.2503 25.2558 14.8774C25.2558 9.14866 20.6062 4.49902 14.8774 4.49902C9.14867 4.49902 4.49902 9.14866 4.49902 14.8774C4.49902 15.2424 4.52283 15.6074 4.55457 15.9724C5.10205 10.7514 9.51366 6.68103 14.8774 6.68103Z" fill="#E16D00"/>
<path d="M14.8775 4.71325C20.5745 4.71325 25.1925 9.29942 25.248 14.9806C25.248 14.9409 25.248 14.9091 25.248 14.8774C25.248 9.14866 20.5983 4.49902 14.8696 4.49902C9.14086 4.49902 4.49121 9.14866 4.49121 14.8774C4.49121 14.9091 4.49121 14.9488 4.49121 14.9806C4.54675 9.29942 9.1726 4.71325 14.8617 4.71325H14.8775Z" fill="#FFE50F"/>
</svg>
