<svg width="35" height="32" viewBox="0 0 35 32" fill="none" xmlns="http://www.w3.org/2000/svg">
<path d="M2.01483 4.44283V0.82959C12.1284 0.82959 22.242 0.82959 32.3556 0.82959V3.6132C32.1359 3.19996 31.8444 2.87917 31.3276 2.92895C30.7824 2.9811 30.592 3.38485 30.3984 3.83759C30.0429 4.6688 29.6225 5.47236 29.2259 6.28618C29.1903 6.35887 29.1311 6.41892 29.0631 6.51058C29.026 6.37231 28.9991 6.27749 28.9746 6.18189C28.6933 5.10416 28.4168 4.02564 28.13 2.9487C28.0052 2.47937 27.6298 2.18781 27.1905 2.19334C26.7647 2.19887 26.3775 2.48253 26.2914 2.91315C26.2511 3.11542 26.2772 3.34692 26.3293 3.55078C26.7188 5.07887 27.1163 6.60539 27.5263 8.12796C27.584 8.34129 27.5374 8.46929 27.392 8.62021C26.2321 9.82752 24.945 10.8863 23.5892 11.8621C23.5078 11.9206 23.349 11.934 23.2518 11.8984C22.622 11.6701 21.9963 11.4307 21.3776 11.1747C21.2638 11.1273 21.1406 10.9985 21.1058 10.8823C20.8964 10.1839 20.7036 9.47986 20.5195 8.77428C20.3465 8.11137 20.1908 7.44371 20.0281 6.78001C20.0818 6.76421 20.1 6.75552 20.1189 6.75394C20.1782 6.75078 20.2375 6.75078 20.2967 6.7492C21.5933 6.72391 22.7287 6.29645 23.6753 5.3965C23.9479 5.13734 24.0601 4.82445 23.9684 4.45705C23.7883 3.73487 22.9484 3.49942 22.3755 4.02327C21.6573 4.67986 20.815 4.91137 19.8645 4.83315C19.701 4.81971 19.6243 4.76757 19.6085 4.58821C19.5255 3.65507 19.4292 2.72352 19.3375 1.79117C19.2822 1.23018 18.8642 0.854875 18.3309 0.88727C17.8213 0.918085 17.4128 1.35186 17.4538 1.88994C17.5321 2.91236 17.6032 3.93873 17.7541 4.95167C18.1128 7.35522 18.7955 9.68529 19.4457 12.0217C19.5556 12.4175 19.7989 12.6688 20.1908 12.7897C21.941 13.3301 23.6034 14.0728 25.1931 14.9775C27.2443 16.1453 29.1714 17.4712 30.7026 19.3082C30.8472 19.482 31.1348 19.5966 31.3687 19.6235C31.8878 19.6827 32.1754 19.3477 32.3564 18.9013V24.3531C32.004 23.4745 31.4983 22.6884 30.8686 21.9875C28.3639 19.2 25.3898 17.0319 22.0555 15.3442C21.9354 15.2833 21.7956 15.2407 21.662 15.2304C20.9636 15.1782 20.514 15.7929 20.7139 16.5365C21.9046 20.9651 22.6955 25.4522 22.6979 30.0555C22.6979 30.5928 23.119 30.9941 23.6389 30.9941C24.1588 30.9941 24.5792 30.5935 24.5855 30.0578C24.5918 29.5545 24.5657 29.0512 24.5571 28.5479C24.5523 28.269 24.5563 27.9893 24.5563 27.6717C24.6819 27.7775 24.7783 27.8589 24.8747 27.9395C26.6928 29.4621 28.7297 30.5327 31.0835 30.9554C31.7203 31.07 32.0182 30.9199 32.3564 30.2799V31.1688H2.01562C2.01562 27.7317 2.01562 24.2947 2.01562 20.8568C2.4336 21.737 3.26165 21.869 3.78471 21.1389C5.64545 18.5442 7.80881 16.2204 10.1452 14.0531C10.6209 13.6114 11.1281 13.2045 11.6543 12.7526C12.4721 15.4319 13.3294 18.0401 13.9489 20.7731C13.8082 20.7107 13.7197 20.6728 13.6328 20.6332C12.1521 19.9529 10.6027 19.5674 8.96713 19.5713C8.37137 19.5729 7.93918 19.9948 7.94945 20.5368C7.95972 21.0702 8.38086 21.4605 8.96792 21.4637C10.1168 21.4708 11.2229 21.6944 12.2864 22.121C12.7289 22.2988 13.1548 22.5177 13.6391 22.7413C13.4361 22.8906 13.2946 22.9957 13.1524 23.0984C10.3656 25.1227 7.5773 27.1462 4.7929 29.1745C4.64357 29.2827 4.49345 29.4091 4.39232 29.5609C4.14106 29.9377 4.22244 30.4474 4.5535 30.7484C4.90984 31.0731 5.3855 31.0834 5.82639 30.7634C9.14174 28.3575 12.4539 25.9476 15.7717 23.5448C16.181 23.2486 16.3327 22.8748 16.2299 22.3889C16.064 21.6075 15.94 20.8142 15.7235 20.0478C14.8717 17.0413 13.9955 14.0428 13.1176 11.0443C12.913 10.345 12.2509 10.0954 11.6409 10.5054C10.9464 10.9724 10.259 11.4599 9.62056 12.0004C7.45799 13.8295 5.5293 15.8925 3.74046 18.0835C3.12575 18.8373 2.58846 19.6543 2.01641 20.4428C2.01641 18.507 2.01641 16.5712 2.01641 14.6354C2.44861 15.627 3.39202 15.4872 3.89453 14.7942C4.34964 14.1669 4.90352 13.6043 5.45503 13.0544C7.28337 11.2331 9.31557 9.6766 11.588 8.44322C12.115 8.15719 12.2493 7.83087 12.1655 7.24934C12.0067 6.14633 11.8424 5.04332 11.7365 3.93477C11.6701 3.23947 11.7073 2.53389 11.6938 1.83384C11.6844 1.36608 11.3754 0.990775 10.9353 0.9007C10.5015 0.812207 10.0417 1.0524 9.88288 1.4767C9.82204 1.63868 9.80387 1.82278 9.79755 1.99818C9.73987 3.62268 9.8892 5.23216 10.1531 6.83374C10.1673 6.91986 10.1381 7.06367 10.078 7.10238C9.4815 7.48559 8.87469 7.85221 8.31291 8.19828C7.90125 7.49191 7.50224 6.77843 7.07241 6.08549C6.95626 5.89823 6.94125 5.78366 7.06056 5.59719C7.78431 4.4689 8.177 3.2292 8.23468 1.88915C8.25839 1.33527 7.85069 0.903071 7.32525 0.886479C6.7935 0.869886 6.37473 1.26811 6.34234 1.82119C6.32338 2.14672 6.30204 2.47147 6.28229 2.797C6.24278 3.46307 5.98836 4.0367 5.53483 4.54633C4.88851 4.12441 4.18688 3.8605 3.41809 3.76806C2.64298 3.67482 2.38619 3.78781 2.01641 4.44203L2.01483 4.44283ZM15.0487 28.7557C15.0487 29.2116 15.0463 29.5751 15.0487 29.9385C15.0535 30.5714 15.4319 30.9949 15.9921 30.9965C16.5642 30.9981 16.9584 30.5651 16.9411 29.914C16.9142 28.928 16.8778 27.9411 16.8233 26.9566C16.7791 26.1633 15.9589 25.7596 15.3142 26.2202C13.8533 27.264 12.4042 28.3243 10.9567 29.3862C10.8192 29.4874 10.6983 29.6367 10.6224 29.7892C10.4407 30.155 10.5616 30.6204 10.8776 30.8906C11.2 31.1672 11.652 31.198 12.0296 30.9357C12.6365 30.513 13.2298 30.0705 13.8296 29.6367C14.2112 29.361 14.5928 29.0852 15.0487 28.7557ZM19.298 18.3988C18.6983 18.4059 18.2495 18.9574 18.3838 19.5539C18.7481 21.1776 19.1226 22.799 19.4987 24.4195C19.6172 24.9315 20.0881 25.2341 20.5898 25.1401C21.0963 25.0453 21.4226 24.6012 21.3484 24.0782C21.2978 23.7179 21.2338 23.3576 21.1516 23.0028C20.853 21.7181 20.5519 20.4333 20.2335 19.1533C20.1134 18.6706 19.7389 18.394 19.298 18.3988Z" fill="white"/>
<path d="M32.3556 18.9028C32.1754 19.3484 31.887 19.6842 31.3679 19.625C31.134 19.5981 30.8464 19.4828 30.7018 19.3097C29.1706 17.4735 27.2435 16.1477 25.1923 14.9791C23.6026 14.0736 21.9402 13.3309 20.19 12.7912C19.7981 12.6703 19.5548 12.4191 19.4449 12.0232C18.7947 9.68682 18.112 7.35674 17.7533 4.95318C17.6024 3.94025 17.5305 2.91388 17.453 1.89146C17.412 1.35338 17.8205 0.919604 18.3301 0.888789C18.8634 0.856394 19.2814 1.23091 19.3367 1.79269C19.4284 2.72504 19.5247 3.65659 19.6077 4.58973C19.6235 4.76909 19.7009 4.82123 19.8637 4.83467C20.8142 4.91289 21.6573 4.68138 22.3747 4.02479C22.9476 3.50094 23.7875 3.73639 23.9676 4.45857C24.0593 4.82597 23.9463 5.13965 23.6745 5.39802C22.7279 6.29719 21.5925 6.72543 20.2959 6.75072C20.2366 6.75151 20.1774 6.7523 20.1181 6.75546C20.0992 6.75625 20.081 6.76573 20.0273 6.78153C20.19 7.44523 20.3457 8.11289 20.5187 8.7758C20.7028 9.48138 20.8956 10.1854 21.105 10.8839C21.1398 11 21.263 11.1288 21.3768 11.1762C21.9955 11.433 22.6212 11.6724 23.251 11.8999C23.3482 11.9355 23.507 11.9221 23.5884 11.8636C24.9442 10.8878 26.2313 9.82904 27.3912 8.62173C27.5366 8.47002 27.5824 8.34282 27.5255 8.12948C27.1155 6.60691 26.718 5.08039 26.3285 3.55229C26.2764 3.34844 26.2495 3.11773 26.2906 2.91467C26.3767 2.48405 26.7631 2.20039 27.1897 2.19486C27.6298 2.18933 28.0044 2.48089 28.1292 2.95022C28.4152 4.02637 28.6925 5.10568 28.9738 6.18341C28.9983 6.27822 29.0252 6.37304 29.0623 6.5121C29.1295 6.42044 29.1895 6.3596 29.2251 6.2877C29.6217 5.47387 30.0421 4.67032 30.3976 3.83911C30.5912 3.38637 30.7816 2.98262 31.3268 2.93047C31.8436 2.88069 32.1351 3.20148 32.3548 3.61472V4.08879C32.3303 4.14094 32.3018 4.1923 32.2829 4.24681C31.7701 5.70933 31.0503 7.06044 30.1306 8.30805C28.8711 10.0163 27.3217 11.4275 25.6458 12.7106C25.5652 12.7722 25.4894 12.8394 25.3922 12.9192C25.5186 12.9911 25.6024 13.0401 25.6885 13.0867C27.6551 14.1558 29.5214 15.3702 31.1072 16.9654C31.5678 17.4292 31.9415 17.9792 32.3548 18.4896V18.9044L32.3556 18.9028Z" fill="black"/>
<path d="M2.01483 20.4436C2.58767 19.6551 3.12416 18.8381 3.73888 18.0843C5.52772 15.8933 7.45562 13.8303 9.61898 12.0012C10.2574 11.4607 10.9448 10.974 11.6393 10.5063C12.2493 10.0954 12.9114 10.3451 13.1161 11.0451C13.9947 14.0436 14.8709 17.0429 15.7219 20.0486C15.9392 20.815 16.0632 21.6083 16.2284 22.3897C16.3311 22.8756 16.1794 23.2494 15.7701 23.5457C12.4524 25.9484 9.14016 28.3583 5.8248 30.7642C5.38391 31.0842 4.90905 31.074 4.55191 30.7492C4.22085 30.4482 4.13947 29.9393 4.39073 29.5617C4.49108 29.4107 4.64199 29.2843 4.79132 29.1753C7.57572 27.147 10.3641 25.1235 13.1508 23.0992C13.2931 22.9957 13.4337 22.8914 13.6375 22.7421C13.154 22.5185 12.7273 22.2996 12.2849 22.1219C11.2221 21.6952 10.1152 21.4716 8.96633 21.4645C8.37848 21.4605 7.95735 21.071 7.94787 20.5377C7.9376 19.9964 8.369 19.5737 8.96554 19.5721C10.6011 19.5682 12.1497 19.9546 13.6312 20.6341C13.7181 20.6744 13.8058 20.7115 13.9473 20.7739C13.3278 18.0409 12.4713 15.4327 11.6528 12.7534C11.1265 13.2053 10.6193 13.6122 10.1436 14.0539C7.80801 16.2212 5.64387 18.545 3.78313 21.1397C3.25927 21.8698 2.43122 21.7379 2.01404 20.8577C2.01404 20.7194 2.01404 20.5811 2.01404 20.4428L2.01483 20.4436Z" fill="black"/>
<path d="M32.3556 30.2815C32.0182 30.9207 31.7203 31.0708 31.0827 30.957C28.7289 30.5351 26.692 29.4645 24.8739 27.9411C24.7775 27.8605 24.6811 27.7791 24.5555 27.6733C24.5555 27.9909 24.5515 28.2706 24.5563 28.5495C24.5642 29.0528 24.5911 29.5561 24.5847 30.0594C24.5776 30.5951 24.1581 30.9965 23.6382 30.9957C23.1183 30.9957 22.6971 30.5935 22.6971 30.0571C22.6948 25.4538 21.9031 20.9667 20.7131 16.538C20.5132 15.7945 20.9628 15.1798 21.6613 15.232C21.7948 15.2422 21.9347 15.2849 22.0548 15.3457C25.3891 17.0335 28.3631 19.2023 30.8678 21.9891C31.4975 22.6899 32.0032 23.4761 32.3556 24.3547V24.8288C32.3208 24.8841 32.2813 24.9378 32.2513 24.9955C32.0696 25.3455 31.7725 25.5265 31.3885 25.5178C30.9926 25.5083 30.6821 25.31 30.5344 24.9347C30.2357 24.1762 29.7521 23.5456 29.2117 22.9523C27.9688 21.5877 26.5363 20.4405 25.043 19.3683C24.4125 18.9155 23.7622 18.4896 23.0732 18.0179C23.0835 18.1286 23.0827 18.1657 23.0914 18.2013C23.5844 20.3054 24.0008 22.4237 24.2505 24.572C24.2584 24.6376 24.279 24.715 24.3208 24.7617C24.5705 25.0366 24.8281 25.3037 25.0999 25.5913C25.1765 25.468 25.235 25.3779 25.2895 25.2855C25.6546 24.6653 26.0109 24.0387 26.3862 23.4248C26.6675 22.9633 27.2277 22.8258 27.6749 23.0858C28.1221 23.3457 28.2793 23.8996 28.0194 24.3729C27.7681 24.8312 27.4932 25.276 27.2293 25.7272C27.0104 26.1001 26.7923 26.4738 26.5703 26.8523C26.6477 26.9187 26.7046 26.9724 26.7663 27.0182C28.1316 28.0328 29.6297 28.7605 31.3103 29.0639C31.8001 29.1524 32.1517 29.3554 32.3556 29.8074V30.2815Z" fill="black"/>
<path d="M2.01483 4.44279C2.3854 3.78857 2.64219 3.67558 3.41651 3.76881C4.1853 3.86126 4.88693 4.12437 5.53325 4.54708C5.98679 4.03746 6.2412 3.46383 6.28071 2.79775C6.30046 2.47222 6.3218 2.14748 6.34076 1.82195C6.37315 1.26965 6.79113 0.871432 7.32367 0.887235C7.8491 0.903827 8.25681 1.33523 8.2331 1.8899C8.17622 3.22995 7.78274 4.46886 7.05898 5.59795C6.93967 5.78442 6.95468 5.89899 7.07083 6.08625C7.50145 6.77997 7.90046 7.49267 8.31133 8.19904C8.8731 7.85375 9.47992 7.48713 10.0765 7.10313C10.1365 7.06442 10.1657 6.91983 10.1515 6.83449C9.88762 5.23291 9.73829 3.62343 9.79597 1.99894C9.80229 1.82353 9.82046 1.63943 9.8813 1.47746C10.0401 1.05237 10.5 0.812963 10.9337 0.901456C11.3738 0.991531 11.6828 1.36684 11.6923 1.83459C11.7057 2.53543 11.6686 3.24022 11.7349 3.93553C11.8408 5.04407 12.0052 6.14709 12.164 7.2501C12.2477 7.83084 12.1134 8.15795 11.5864 8.44397C9.31399 9.67736 7.2818 11.2339 5.45345 13.0551C4.90194 13.6051 4.34807 14.1668 3.89296 14.795C3.39044 15.4879 2.44703 15.6278 2.01483 14.6362C2.01483 14.4781 2.01483 14.3201 2.01483 14.1621C2.43597 13.6327 2.80969 13.0559 3.28693 12.5834C4.32278 11.5579 5.40999 10.586 6.47824 9.59281C6.577 9.50037 6.70026 9.4419 6.6252 9.25859C6.27597 8.40763 5.88486 7.58116 5.28752 6.87084C4.72416 6.20081 4.05098 5.68723 3.14313 5.64852C2.5932 5.62481 2.23054 5.40832 2.01483 4.91607V4.442V4.44279Z" fill="black"/>
<path d="M32.3556 18.4881C31.9423 17.9776 31.5686 17.4277 31.108 16.9639C29.5222 15.3687 27.6559 14.1535 25.6893 13.0852C25.6032 13.0386 25.5194 12.9888 25.393 12.9177C25.4902 12.8371 25.566 12.7699 25.6466 12.7091C27.3225 11.4259 28.8719 10.0148 30.1314 8.30654C31.0511 7.05972 31.7709 5.70782 32.2837 4.2453C32.3026 4.19079 32.3319 4.14022 32.3556 4.08728V18.4881Z" fill="white"/>
<path d="M32.3556 29.8074C32.1517 29.3554 31.8001 29.1524 31.3102 29.0639C29.6304 28.7605 28.1316 28.0328 26.7662 27.0182C26.7038 26.9716 26.6477 26.9179 26.5703 26.8523C26.7923 26.4731 27.0104 26.1001 27.2292 25.7272C27.4931 25.276 27.7681 24.8304 28.0194 24.3729C28.2793 23.8996 28.1221 23.3457 27.6749 23.0858C27.2276 22.8258 26.6674 22.9625 26.3862 23.4248C26.0109 24.0395 25.6545 24.6653 25.2895 25.2855C25.235 25.3779 25.1765 25.468 25.0998 25.5913C24.828 25.3037 24.5705 25.0366 24.3208 24.7617C24.2781 24.715 24.2576 24.6376 24.2505 24.572C24.0008 22.4237 23.5844 20.3054 23.0914 18.2013C23.0835 18.1657 23.0842 18.1286 23.0732 18.0179C23.763 18.4889 24.4124 18.9147 25.043 19.3683C26.5363 20.4413 27.9688 21.5877 29.2116 22.9523C29.7521 23.5456 30.2364 24.1762 30.5343 24.9347C30.6821 25.31 30.9926 25.5083 31.3884 25.5178C31.7716 25.5273 32.0695 25.3463 32.2513 24.9955C32.2813 24.9371 32.3208 24.8841 32.3556 24.8288V29.8066V29.8074Z" fill="white"/>
<path d="M2.01483 4.91687C2.23054 5.40912 2.5932 5.62561 3.14313 5.64931C4.05098 5.68803 4.72416 6.20082 5.28752 6.87163C5.88486 7.58196 6.27597 8.40843 6.6252 9.25939C6.70026 9.44191 6.577 9.50117 6.47824 9.59361C5.40999 10.586 4.32278 11.5586 3.28693 12.5842C2.80969 13.0567 2.43597 13.6335 2.01483 14.1629C2.01483 11.0814 2.01483 7.99993 2.01483 4.91766V4.91687Z" fill="white"/>
<path d="M15.0487 28.7558C14.5928 29.0852 14.2112 29.361 13.8295 29.6368C13.2298 30.0705 12.6364 30.5122 12.0296 30.9357C11.6527 31.1988 11.2008 31.1672 10.8776 30.8907C10.5624 30.6205 10.4415 30.1551 10.6224 29.7892C10.6983 29.636 10.8191 29.4866 10.9566 29.3863C12.4041 28.3236 13.8532 27.264 15.3142 26.2203C15.9589 25.7596 16.779 26.1634 16.8233 26.9567C16.8778 27.9419 16.9142 28.928 16.941 29.9141C16.9584 30.5644 16.5641 30.9973 15.9921 30.9966C15.4319 30.995 15.0526 30.5723 15.0487 29.9386C15.0463 29.5751 15.0487 29.2109 15.0487 28.7558Z" fill="black"/>
<path d="M19.298 18.3987C19.7389 18.394 20.1142 18.6705 20.2335 19.1533C20.5519 20.4333 20.853 21.7181 21.1516 23.0028C21.2338 23.3576 21.2978 23.7179 21.3484 24.0781C21.4219 24.6012 21.0963 25.0453 20.5899 25.1401C20.0881 25.2333 19.6172 24.9307 19.4987 24.4195C19.1226 22.7989 18.7489 21.1776 18.3838 19.5539C18.2495 18.9574 18.6983 18.4051 19.298 18.3987Z" fill="black"/>
</svg>
