<svg width="121" height="128" viewBox="0 0 121 128" fill="none" xmlns="http://www.w3.org/2000/svg">
<path d="M107.819 50.4738C106.601 44.2042 103.753 37.2038 98.5332 31.317C100.505 23.7367 103.973 6.88246 97.1935 2.30642C90.3671 -2.30443 74.1625 11.6325 67.1157 18.2327C63.0152 18.3429 57.8418 19.062 51.9782 20.2278C46.103 21.3414 41.034 22.6057 37.1887 24.0325C28.1816 20.541 7.94609 13.6798 3.34105 20.5004C-1.235 27.2804 8.27088 41.6059 12.9455 47.9045C10.3008 55.3166 10.2718 62.8796 11.4898 69.1492C12.5395 74.572 14.2389 79.8614 16.5878 85.0232C21.1754 95.1033 31.1047 101.593 42.1765 101.686C43.6265 101.698 45.0648 101.686 46.5032 101.645C46.4104 102.324 46.3582 103.008 46.3582 103.704C46.3582 113.349 55.3827 121.168 66.5125 121.168C77.6423 121.168 86.6668 113.349 86.6668 103.704C86.6668 100.52 85.6751 97.5334 83.9525 94.9583C86.4928 94.0941 89.0158 93.1429 91.5213 92.1106C101.752 87.8883 108.538 78.1504 109.025 67.0902C109.274 61.4238 108.868 55.885 107.819 50.4622V50.4738Z" fill="#ADBED9"/>
<path d="M58.5554 22.971C60.2953 31.9433 59.0948 39.7208 55.8875 40.3472C52.6686 40.9736 48.6493 34.2052 46.9094 25.2329C46.6716 24.0034 46.486 22.797 46.3584 21.6312C50.1109 20.7264 53.8981 19.9899 57.7202 19.4331C58.0392 20.5641 58.3176 21.7472 58.5554 22.971Z" fill="#446993"/>
<path d="M45.4766 22.4492C47.2166 31.4157 46.0218 39.1991 42.8087 39.8255C39.7174 40.4228 35.8606 34.1474 34.0278 25.6623C35.9244 24.7518 37.9253 23.9804 39.9958 23.354C41.7764 22.8262 43.5627 22.3274 45.3548 21.8809C45.4012 22.0723 45.436 22.2578 45.4708 22.4492H45.4766Z" fill="#446993"/>
<path d="M70.6481 18.482C72.1445 27.0715 70.9207 34.3735 67.812 34.9767C64.5931 35.603 60.5797 28.8289 58.8397 19.8624C58.8049 19.671 58.7644 19.4854 58.7354 19.2882C60.8407 18.9924 62.9634 18.7604 65.0861 18.5748C66.9595 18.4124 68.8154 18.3892 70.6423 18.482H70.6481Z" fill="#446993"/>
<path d="M93.1686 17.4153C93.1686 17.4153 94.5025 19.3408 95.1115 21.6666C95.6799 23.8183 94.6881 25.7322 93.1048 26.7588C88.7027 23.3543 83.5989 20.8662 78.1181 19.509C77.9383 18.3201 78.2051 17.0615 78.9997 16.0001C82.178 11.7373 86.7888 6.91766 90.8661 7.72383C97.9708 9.13318 93.1744 17.4095 93.1744 17.4095L93.1686 17.4153Z" fill="white"/>
<path d="M12.7136 33.0166C12.7136 33.0166 12.1917 35.3017 12.4991 37.6854C12.7774 39.8894 14.413 41.2987 16.2631 41.6583C19.076 36.8561 22.8807 32.6396 27.4567 29.3337C27.1783 28.1622 26.4592 27.095 25.3282 26.4106C20.787 23.6499 14.7088 20.895 11.2289 23.1685C5.1681 27.1298 12.7078 33.0108 12.7078 33.0108L12.7136 33.0166Z" fill="white"/>
<path d="M109.176 50.213C108.265 45.5326 105.945 37.842 100.053 30.9519C102.425 21.5736 105.064 5.96051 97.9648 1.16988C94.456 -1.20224 89.0679 0.0273221 81.4934 4.91076C75.9198 8.50664 70.3636 13.3379 66.5589 16.8816C62.6382 17.0324 57.6736 17.6993 51.7288 18.8825C45.7608 20.0134 40.9064 21.2488 37.2119 22.577C32.3517 20.7094 25.3803 18.3083 18.8787 17.0555C10.0282 15.3504 4.5706 16.232 2.20428 19.7409C-2.59216 26.8514 5.69576 40.336 11.4086 48.1425C8.52026 56.7378 9.23364 64.7415 10.1442 69.422C11.2114 74.9318 12.9629 80.3778 15.3408 85.6034C17.7014 90.7884 21.4596 95.1673 26.2039 98.2644C30.9597 101.367 36.4811 103.026 42.1707 103.078C42.5187 103.078 42.8609 103.078 43.2089 103.078C51.4562 103.078 59.6629 102.295 67.6029 100.758C75.8792 99.1518 84.1091 96.6753 92.0606 93.3984C97.3211 91.2292 101.822 87.6217 105.07 82.9645C108.312 78.3189 110.162 72.8555 110.411 67.16C110.661 61.424 110.249 55.717 109.182 50.2072L109.176 50.213ZM107.651 67.0441C107.424 72.2117 105.748 77.1763 102.802 81.3928C99.8556 85.615 95.7725 88.8861 90.9993 90.8522C83.2159 94.0595 75.1658 96.4839 67.0693 98.0556C58.9728 99.6274 50.5978 100.387 42.1823 100.323C37.0205 100.283 32.0095 98.769 27.7002 95.9619C23.391 93.1548 19.9865 89.1819 17.8405 84.4667C15.5496 79.4324 13.8677 74.1952 12.8411 68.9C11.6986 63.019 10.8692 51.5296 18.1131 40.6839C18.5365 40.0518 18.3625 39.1934 17.7304 38.7758C17.0982 38.3524 16.2398 38.5264 15.8222 39.1586C14.5115 41.1247 13.4501 43.1083 12.5859 45.0802C4.81419 34.0896 1.78669 25.2855 4.4778 21.2894C7.08771 17.4267 18.0725 18.5403 33.4884 24.1371C33.442 24.1603 33.3956 24.1835 33.3492 24.2067C30.9597 25.4189 28.7094 26.7644 26.6562 28.2086C26.0357 28.6494 25.8849 29.5077 26.3257 30.1283C26.5925 30.5111 27.0216 30.7141 27.4508 30.7141C27.7234 30.7141 28.0018 30.6329 28.2454 30.4647C30.1883 29.0959 32.3227 27.8142 34.5962 26.6658C38.2153 24.8331 44.1485 23.1337 52.245 21.5968C60.3183 19.996 66.4545 19.3581 70.497 19.7003C73.0315 19.9206 75.4906 20.3034 77.8047 20.8486C78.5471 21.0226 79.2895 20.5644 79.4635 19.822C79.6375 19.0797 79.1793 18.3373 78.4369 18.1633C75.9952 17.5891 73.4027 17.1831 70.729 16.9512C70.6768 16.9512 70.6246 16.9453 70.5724 16.9395C82.7693 5.98951 92.5478 0.845094 96.4163 3.46081C100.401 6.15191 100.888 15.449 97.7966 28.5566C96.2597 27.0486 94.5372 25.6045 92.5826 24.2763C91.9562 23.8471 91.0979 24.0095 90.6687 24.6359C90.2395 25.2623 90.4019 26.1206 91.0283 26.5498C101.799 33.904 105.325 44.8656 106.462 50.7466C107.488 56.0476 107.888 61.5342 107.645 67.0557L107.651 67.0441Z" fill="#446993"/>
<path d="M27.915 79.9137C27.2712 79.9137 26.6912 79.4555 26.5636 78.8001C26.4186 78.0519 26.9058 77.3328 27.654 77.1878L36.1913 75.5348C36.9395 75.3898 37.6586 75.877 37.8036 76.6252C37.9486 77.3733 37.4614 78.0925 36.7133 78.2375L28.176 79.8905C28.089 79.9079 28.002 79.9137 27.915 79.9137Z" fill="#446993"/>
<path d="M31.0296 87.6331C30.5656 87.6331 30.1132 87.3953 29.8522 86.972C29.4578 86.3224 29.6608 85.4756 30.3162 85.0812L36.8004 81.1374C37.4499 80.743 38.2967 80.946 38.6911 81.6014C39.0855 82.2509 38.8825 83.0977 38.2271 83.4921L31.7429 87.436C31.5167 87.5693 31.2732 87.6389 31.0296 87.6389V87.6331Z" fill="#446993"/>
<path d="M70.6479 50.9842C70.0041 50.9842 69.4241 50.526 69.2965 49.8706C69.1515 49.1225 69.6387 48.4033 70.3869 48.2583L74.8643 47.3883C75.6125 47.2433 76.3317 47.7305 76.4767 48.4787C76.6217 49.2269 76.1345 49.946 75.3863 50.091L70.9089 50.961C70.8219 50.9784 70.7349 50.9842 70.6479 50.9842Z" fill="white"/>
<path d="M41.1616 56.7029C40.5178 56.7029 39.9378 56.2448 39.8102 55.5894C39.6652 54.8412 40.1524 54.122 40.9006 53.977L45.378 53.1071C46.1262 52.9621 46.8454 53.4493 46.9904 54.1974C47.1354 54.9456 46.6482 55.6648 45.9 55.8098L41.4225 56.6798C41.3355 56.6972 41.2486 56.7029 41.1616 56.7029Z" fill="white"/>
<path d="M53.3648 79.792C54.9655 81.0679 57.1404 82.0191 59.5416 82.3613C61.0611 82.5817 62.6676 82.5527 64.2742 82.2221C68.4326 81.3579 71.6689 78.6146 73.2233 75.6567C73.5017 75.1289 73.7279 74.5953 73.8903 74.056C74.2441 72.9308 74.3311 71.8172 74.1223 70.8081C72.8811 64.8285 67.6033 65.7854 61.1365 67.1252C54.6639 68.4707 49.8385 70.2977 50.6911 75.6741C50.9288 77.1763 51.909 78.6204 53.3648 79.7862V79.792Z" fill="white"/>
<path d="M75.4674 70.5356C74.7888 67.2645 72.9038 65.3621 69.8705 64.8808C69.8415 64.8808 69.8184 64.8692 69.7894 64.8634C67.6666 64.5444 65.1669 64.9156 62.1858 65.5129L61.6232 62.6768L62.6556 62.4738C63.4038 62.3289 63.891 61.6039 63.746 60.8615C63.601 60.1133 62.876 59.6261 62.1336 59.7711L57.3372 60.6991C56.589 60.8441 56.1018 61.5691 56.2468 62.3115C56.3744 62.9726 56.9486 63.425 57.5982 63.425C57.6852 63.425 57.7722 63.4192 57.8592 63.4018L58.9147 63.1988L59.4889 66.0813C56.6702 66.7251 53.7529 67.6299 51.8042 69.1842C49.7162 70.8546 48.8811 73.1107 49.3218 75.8946C49.6408 77.9303 51.0096 79.8733 53.1671 81.3638C55.5392 83.0052 58.5087 83.8809 61.5014 83.8809C62.5222 83.8809 63.543 83.7765 64.5463 83.5677C67.8754 82.8776 70.8855 81.0564 73.014 78.4407C75.0904 75.8946 75.9835 73.0063 75.4674 70.5298V70.5356ZM63.9895 80.8766C60.8171 81.5378 57.2734 80.8534 54.7389 79.1019C53.2309 78.0579 52.2507 76.7356 52.0477 75.4712C51.7636 73.6617 52.2217 72.3857 53.5325 71.3418C55.3246 69.9034 58.4855 69.0972 61.3506 68.4999C61.3622 68.4999 61.368 68.4999 61.3796 68.4999C61.4086 68.4999 61.4318 68.4883 61.455 68.4825C64.7377 67.7981 67.4056 67.3051 69.3834 67.6009C71.3089 67.8909 72.3181 68.9348 72.7705 71.104C73.4896 74.5606 69.7314 79.6935 63.9895 80.8824V80.8766Z" fill="#446993"/>
<path d="M33.529 71.179C32.9026 71.179 32.34 70.7498 32.1892 70.1176C32.0152 69.3752 32.4734 68.6329 33.2158 68.4647C33.4246 68.4183 37.2989 67.5193 41.4689 67.1075C39.932 66.0345 37.96 64.8688 36.0925 64.3874C35.3559 64.196 34.9151 63.442 35.1065 62.7055C35.2979 61.9689 36.0519 61.5281 36.7885 61.7195C41.3007 62.8969 45.929 67.0901 46.1262 67.2699C46.5437 67.6527 46.6887 68.2559 46.4799 68.7837C46.2769 69.3114 45.7666 69.6594 45.1982 69.6594C45.1866 69.6594 45.175 69.6594 45.1634 69.6594C40.2335 69.6594 33.9118 71.1268 33.848 71.1384C33.7436 71.1616 33.6392 71.1732 33.5348 71.1732L33.529 71.179Z" fill="#446993"/>
<path d="M117.43 64.1482L75.3979 55.8174L65.0394 108.081L107.072 116.412L117.43 64.1482Z" fill="white"/>
<path d="M109.254 73.048C107.327 70.1684 101.954 73.8235 98.2151 76.9463C96.7137 76.3429 95.0734 75.875 93.3372 75.5309C91.6009 75.1868 89.9062 74.9936 88.2882 74.9788C86.0234 70.6662 82.4506 65.238 79.571 67.1649C76.4916 69.2255 76.0022 75.3981 77.3884 79.7201C76.2027 81.3303 75.312 83.4068 74.7949 86.016C72.7613 96.2765 79.1963 101.049 87.9461 102.783C96.6959 104.517 104.465 102.56 106.498 92.2996C107.017 89.6806 106.974 87.4292 106.502 85.4904C109.432 82.0239 111.334 76.1312 109.273 73.0518L109.254 73.048Z" fill="#ADBED9"/>
<path d="M84.3346 88.7405C83.0496 88.4859 82.206 87.2382 82.4625 85.9434L82.7812 84.3346C83.0357 83.0496 84.2835 82.206 85.5783 82.4625C86.8731 82.719 87.7069 83.9648 87.4504 85.2596L87.1317 86.8683C86.8772 88.1534 85.6295 88.997 84.3346 88.7405Z" fill="#446993"/>
<path d="M96.047 91.0608C94.762 90.8062 93.9184 89.5585 94.1749 88.2637L94.4936 86.6549C94.7481 85.3699 95.9959 84.5263 97.2907 84.7828C98.5855 85.0393 99.4193 86.2851 99.1628 87.5799L98.8441 89.1887C98.5896 90.4737 97.3419 91.3173 96.047 91.0608Z" fill="#446993"/>
<path d="M106.611 118.736L64.5789 110.405C63.2939 110.15 62.4504 108.903 62.7071 107.608L73.0676 55.3346C73.3222 54.0496 74.5701 53.2061 75.8649 53.4627L117.897 61.7935C119.182 62.0482 120.026 63.296 119.769 64.5908L109.409 116.864C109.154 118.149 107.906 118.992 106.611 118.736ZM67.837 106.208L105.21 113.616L114.647 66.0019L77.274 58.5946L67.837 106.208Z" fill="#FF80A9"/>
<rect x="97.6226" y="93.458" width="13.3015" height="13.3015" rx="6.65073" transform="rotate(13.7653 97.6226 93.458)" fill="#87B758"/>
<path d="M101.264 104.591C101.226 104.746 101.251 104.91 101.334 105.046C101.417 105.183 101.55 105.281 101.705 105.319C101.861 105.357 102.025 105.332 102.161 105.249C102.298 105.166 102.396 105.033 102.434 104.877L103.055 102.342L105.59 102.963C105.746 103.001 105.91 102.976 106.046 102.893C106.183 102.81 106.281 102.676 106.319 102.521C106.357 102.366 106.332 102.202 106.249 102.066C106.166 101.929 106.032 101.831 105.877 101.793L103.342 101.172L103.963 98.6363C104.001 98.4811 103.976 98.3172 103.893 98.1805C103.81 98.0439 103.676 97.9458 103.521 97.9078C103.366 97.8698 103.202 97.895 103.065 97.9778C102.929 98.0607 102.831 98.1944 102.793 98.3496L102.171 100.885L99.6361 100.264C99.4809 100.226 99.317 100.251 99.1803 100.334C99.0437 100.417 98.9456 100.55 98.9076 100.706C98.8696 100.861 98.8948 101.025 98.9776 101.161C99.0605 101.298 99.1942 101.396 99.3494 101.434L101.885 102.055L101.264 104.591Z" fill="#F7F2FA" stroke="#F7F2FA"/>
<path d="M45.8073 103.594C43.4757 113.901 47.5008 132.849 70.6478 124.613C95.3376 115.832 90.2105 102.997 78.1238 104.76C66.037 106.523 58.4102 114.144 58.4102 114.144C58.4102 114.144 45.9638 102.904 45.8073 103.594Z" fill="#ADBED9"/>
<path d="M60.3876 127.994C56.3394 127.994 52.3375 126.892 49.1592 123.743C43.0404 117.67 43.0752 106.912 45.0588 101.205C45.3081 100.486 47.9123 101.39 47.6629 102.11C44.7978 110.363 48.0225 118.726 51.1022 121.788C55.1968 125.854 61.6172 126.37 70.1893 123.319C82.8619 118.813 87.6177 113.112 86.7129 109.47C86.0692 106.877 82.6183 105.502 78.3264 106.129C66.866 107.799 59.4655 115.055 59.3901 115.124C58.8507 115.658 57.9807 115.658 57.4413 115.124C56.902 114.585 56.902 113.715 57.4413 113.176C57.7661 112.851 65.5321 105.207 77.9262 103.403C83.6738 102.568 88.3891 104.789 89.3809 108.808C90.5524 113.524 86.365 120.495 71.1057 125.918C67.9158 127.055 64.1285 128 60.3818 128L60.3876 127.994Z" fill="#446993"/>
<path d="M105.568 48.8383C110.394 49.3487 114.129 51.454 113.619 56.2795C113.108 61.1049 108.787 64.6022 103.962 64.0918C99.1365 63.5814 95.6392 59.2606 96.1496 54.4351C96.6599 49.6097 100.749 48.3279 105.574 48.8383H105.568Z" fill="#ADBED9"/>
<path d="M104.884 65.5246C104.53 65.5246 104.171 65.5072 103.811 65.4666C98.2375 64.8808 94.1834 59.864 94.7692 54.2961C95.2969 49.2851 99.2872 46.797 105.708 47.4756C108.596 47.783 110.864 48.5891 112.453 49.8767C114.39 51.4484 115.266 53.7162 114.981 56.4305C114.431 61.6445 110.011 65.5246 104.884 65.5246ZM103.625 50.1087C99.8788 50.1087 97.8199 51.605 97.5067 54.5803C97.0775 58.6402 100.035 62.2941 104.095 62.7233C106.067 62.932 107.993 62.3579 109.53 61.1167C111.067 59.8698 112.029 58.1008 112.238 56.1347C112.43 54.3425 111.931 52.9912 110.719 52.011C109.564 51.0772 107.732 50.4509 105.418 50.2073C104.78 50.1377 104.182 50.1087 103.625 50.1087Z" fill="#446993"/>
</svg>
