<svg width="14" height="16" viewBox="0 0 14 16" fill="none" xmlns="http://www.w3.org/2000/svg">
<path d="M1.87847 7.92735C1.90842 7.49392 1.92436 7.09936 1.96515 6.70672C2.13406 5.08452 2.55029 3.54582 3.55293 2.21875C4.3994 1.09882 5.5308 0.416163 6.89166 0.106384C7.35697 0.000574134 7.64826 0.306529 7.54437 0.783308C7.3506 1.6744 7.24096 2.57314 7.31872 3.48591C7.3576 3.94229 7.44047 4.3923 7.70499 4.77602C8.23595 5.54473 8.76946 5.5409 9.324 4.79387C9.44001 4.63706 9.5063 4.44202 9.58661 4.26099C9.67713 4.05575 9.84222 3.92444 10.05 3.95249C10.203 3.97289 10.4172 4.07105 10.4726 4.19343C11.0176 5.3943 11.6595 6.57032 12.0362 7.82473C13.0516 11.2087 11.0367 14.3868 7.5603 15.014C5.62641 15.3633 3.82956 15.03 2.27238 13.7717C1.06705 12.7984 0.434102 11.4822 0.207823 9.98044C0.0886283 9.19005 0.0962783 8.37991 0.0535721 7.57806C0.0414614 7.35178 0.144082 7.17585 0.354426 7.07833C0.558396 6.98335 0.742609 7.03945 0.910884 7.17075C1.22385 7.41424 1.53554 7.65773 1.8791 7.92544L1.87847 7.92735Z" fill="#FF4B4B"/>
</svg>
