<svg width="14" height="17" viewBox="0 0 14 17" fill="none" xmlns="http://www.w3.org/2000/svg">
<path d="M1.99594 8.92284C2.02777 8.46232 2.0447 8.04311 2.08804 7.62592C2.26751 5.90234 2.70975 4.26747 3.77505 2.85745C4.67443 1.66753 5.87654 0.942203 7.32246 0.613063C7.81685 0.500641 8.12635 0.825717 8.01596 1.3323C7.81008 2.27908 7.69359 3.234 7.77621 4.20381C7.81752 4.68872 7.90557 5.16685 8.18662 5.57455C8.75077 6.39131 9.31762 6.38724 9.90682 5.59351C10.0301 5.42691 10.1005 5.21967 10.1858 5.02734C10.282 4.80927 10.4574 4.66975 10.6782 4.69955C10.8407 4.72122 11.0683 4.82552 11.1272 4.95555C11.7063 6.23148 12.3882 7.48099 12.7885 8.81381C13.8673 12.4093 11.7266 15.786 8.03289 16.4524C5.97813 16.8236 4.06898 16.4694 2.41447 15.1325C1.13381 14.0983 0.461302 12.6998 0.220881 11.1042C0.0942363 10.2645 0.102364 9.40369 0.056989 8.55171C0.0441214 8.31129 0.153156 8.12437 0.376646 8.02075C0.593364 7.91984 0.78909 7.97944 0.967883 8.11895C1.30041 8.37766 1.63158 8.63637 1.99662 8.92081L1.99594 8.92284Z" fill="white"/>
</svg>
