<svg width="21" height="24" viewBox="0 0 21 24" fill="none" xmlns="http://www.w3.org/2000/svg">
<path d="M6.98434 0L8.39933 0.202498C19.1586 2.23498 25.3248 20.4717 12.1962 23.836L11.1093 23.9916C10.7087 23.9722 10.2887 24.0179 9.89056 23.9916C2.55752 23.5098 -1.29182 14.7936 3.42313 9.06866C4.35687 7.93492 5.46624 7.39492 6.08685 5.96806C6.6356 4.70683 6.67935 3.25122 6.1631 1.96935C5.88186 1.27124 5.05124 0.523745 6.09373 0.000624993H6.98434V0ZM10.0218 8.54179C5.05936 8.90366 2.42064 14.7142 5.46499 18.6923C8.25371 22.336 13.8793 21.8873 16.0686 17.8667C18.4617 13.4717 14.9811 8.17991 10.0218 8.54179Z" fill="#F86300"/>
<path d="M9.79683 9.98047V10.8005C9.79683 10.8311 9.9662 11.1011 10.0143 11.1455C10.2875 11.3967 10.7187 11.4086 10.9931 11.1536C11.0293 11.1198 11.2031 10.8217 11.2031 10.8011V9.98109C13.3493 10.2855 15.0643 12.0086 15.3749 14.1517H14.5549C14.5318 14.1517 14.218 14.3498 14.183 14.3892C13.9605 14.6435 13.9605 15.0654 14.183 15.3198C14.2174 15.3592 14.5318 15.5573 14.5549 15.5573H15.3749C15.0668 17.6954 13.343 19.4229 11.2031 19.7279V18.9079C11.2031 18.8873 11.0299 18.5891 10.9931 18.5554C10.7187 18.2998 10.2875 18.3123 10.0143 18.5635C9.9662 18.6079 9.79683 18.8779 9.79683 18.9085V19.7285C7.65373 19.4197 5.93062 17.7023 5.625 15.5579H6.44499C6.46562 15.5579 6.76374 15.3848 6.79749 15.3479C7.03874 15.0885 7.04249 14.6585 6.81811 14.3879C6.77499 14.336 6.47687 14.1517 6.44499 14.1517H5.625C5.93062 12.0079 7.65373 10.2905 9.79683 9.98109V9.98047ZM11.2031 14.1517C11.2031 13.6479 11.3206 12.9317 10.6893 12.7679C10.3325 12.6754 9.91183 12.8948 9.81933 13.2598C9.76308 13.4811 9.76121 14.721 9.79996 14.9685C9.83871 15.216 10.0518 15.4473 10.2781 15.521C10.4799 15.5867 11.7768 15.5923 12.0206 15.5542C12.4331 15.4898 12.6893 15.0598 12.5868 14.6654C12.4237 14.0342 11.7068 14.1511 11.2024 14.1517H11.2031Z" fill="#F86300"/>
</svg>
