<svg width="24" height="24" viewBox="0 0 24 24" fill="none" xmlns="http://www.w3.org/2000/svg">
<path d="M12 0L20.4853 3.51472L24 12L20.4853 20.4853L12 24L3.51472 20.4853L0 12L3.51472 3.51472L12 0Z" fill="#FFC466"/>
<path fill-rule="evenodd" clip-rule="evenodd" d="M19.059 11.4177L18.9062 13.0412C18.6544 15.7163 18.5285 17.0538 17.7401 17.8603C16.9517 18.6668 15.7701 18.6668 13.4068 18.6668H11.5935C9.23027 18.6668 8.04864 18.6668 7.26023 17.8603C6.47181 17.0538 6.34593 15.7163 6.09416 13.0412L5.94137 11.4177C5.82136 10.1426 5.76136 9.50509 5.97949 9.24155C6.09748 9.09898 6.25793 9.01163 6.42949 8.99656C6.74662 8.96871 7.14488 9.4221 7.94141 10.3289C8.35334 10.7978 8.55931 11.0323 8.78908 11.0686C8.91639 11.0887 9.04611 11.068 9.16367 11.0089C9.37584 10.9021 9.51729 10.6122 9.80021 10.0325L11.2915 6.97673C11.8261 5.88124 12.0934 5.3335 12.5002 5.3335C12.907 5.3335 13.1743 5.88124 13.7089 6.97673L15.2001 10.0325C15.483 10.6122 15.6245 10.9021 15.8367 11.0089C15.9542 11.068 16.0839 11.0887 16.2112 11.0686C16.441 11.0323 16.647 10.7978 17.0589 10.3289C17.8554 9.4221 18.2537 8.96871 18.5708 8.99656C18.7424 9.01163 18.9028 9.09898 19.0208 9.24155C19.239 9.50509 19.179 10.1426 19.059 11.4177ZM13.1351 12.4662L13.0695 12.3486C12.8162 11.8942 12.6895 11.6669 12.5002 11.6669C12.3108 11.6669 12.1841 11.8942 11.9308 12.3486L11.8653 12.4662C11.7933 12.5953 11.7573 12.6599 11.7012 12.7025C11.645 12.7451 11.5751 12.7609 11.4353 12.7925L11.3081 12.8213C10.8161 12.9326 10.5702 12.9883 10.5116 13.1765C10.4531 13.3647 10.6208 13.5607 10.9562 13.9529L11.0429 14.0544C11.1382 14.1658 11.1859 14.2215 11.2073 14.2905C11.2288 14.3594 11.2216 14.4338 11.2072 14.5824L11.194 14.7178C11.1433 15.2411 11.118 15.5027 11.2712 15.619C11.4244 15.7353 11.6547 15.6292 12.1153 15.4172L12.2345 15.3623C12.3653 15.302 12.4308 15.2719 12.5002 15.2719C12.5695 15.2719 12.635 15.302 12.7659 15.3623L12.885 15.4172C13.3456 15.6292 13.5759 15.7353 13.7291 15.619C13.8823 15.5027 13.857 15.2411 13.8063 14.7178L13.7932 14.5824C13.7788 14.4338 13.7716 14.3594 13.793 14.2905C13.8144 14.2215 13.8621 14.1658 13.9574 14.0544L14.0441 13.9529C14.3795 13.5607 14.5472 13.3647 14.4887 13.1765C14.4302 12.9883 14.1842 12.9326 13.6923 12.8213L13.565 12.7925C13.4252 12.7609 13.3553 12.7451 13.2992 12.7025C13.2431 12.6599 13.2071 12.5953 13.1351 12.4662Z" fill="#4874D7"/>
</svg>
