<svg width="245" height="200" viewBox="0 0 245 200" fill="none" xmlns="http://www.w3.org/2000/svg">
<path d="M214.551 20.9038C203.104 9.4599 166.621 30.2834 150.552 40.3797C142.603 39.0535 132.343 38.5187 120.596 38.5722C108.848 38.5187 98.5883 39.0642 90.6285 40.3797C74.559 30.2727 38.0765 9.4706 26.6289 20.9038C15.2669 32.262 28.2444 63.4599 34.9097 77.3637C27.0248 90.6685 24.1468 105.246 24.1468 117.802C24.1468 128.658 25.4414 139.492 28.0411 150.337C33.123 171.492 49.8558 187.738 71.1783 192.059C87.6542 195.385 104.12 197.053 120.596 197.053C137.071 197.053 153.537 195.385 170.013 192.059C191.346 187.738 208.068 171.492 213.15 150.337C215.75 139.492 217.044 128.658 217.044 117.802C217.044 105.257 214.166 90.6792 206.292 77.3744C212.936 63.492 225.935 32.2727 214.562 20.9038H214.551Z" fill="#ADBED9"/>
<path d="M132.257 46.3152C132.257 64.2831 127.025 78.8286 120.606 78.8286C114.187 78.8286 108.934 64.2724 108.934 46.3152C108.934 43.8553 109.03 41.4596 109.222 39.1601C116.808 38.8179 124.383 38.8179 131.968 39.1708C132.16 41.4703 132.257 43.866 132.257 46.3152Z" fill="#446993"/>
<path d="M107.211 40.4115C107.211 58.358 102.001 72.9248 95.5601 72.9248C89.1195 72.9248 84.273 59.374 83.9199 42.3152C87.9212 41.2671 92.0616 40.5291 96.309 40.1013C99.9466 39.7484 103.573 39.4596 107.211 39.2671C107.222 39.6521 107.222 40.0264 107.222 40.4115H107.211Z" fill="#446993"/>
<path d="M157.271 42.1763C156.939 59.2992 151.846 72.9356 145.63 72.9356C139.414 72.9356 133.979 58.3688 133.979 40.4222C133.979 40.0372 133.98 39.6629 133.99 39.2778C138.163 39.5024 142.346 39.8447 146.508 40.2832C150.177 40.6682 153.772 41.3099 157.271 42.1763Z" fill="#446993"/>
<path d="M201.136 48.5397C201.136 48.5397 202.997 52.7537 203.297 57.4702C203.586 61.8339 200.954 65.1601 197.519 66.5504C190.298 58.3365 181.375 51.6306 171.308 46.9675C171.404 44.6039 172.399 42.2724 174.325 40.5291C182.06 33.5023 192.748 25.9194 200.322 28.9996C213.503 34.3793 201.146 48.5504 201.146 48.5504L201.136 48.5397Z" fill="white"/>
<path d="M40.0341 48.5397C40.0341 48.5397 38.1725 52.7537 37.8729 57.4702C37.5841 61.8339 40.216 65.1601 43.6502 66.5504C50.8719 58.3365 59.7946 51.6306 69.862 46.9675C69.7657 44.6039 68.7708 42.2724 66.845 40.5291C59.1099 33.5023 48.4219 25.9194 40.8472 28.9996C27.6664 34.3793 40.0234 48.5504 40.0234 48.5504L40.0341 48.5397Z" fill="white"/>
<path d="M216.349 19.1068C210.518 13.2779 199.723 13.6308 183.343 20.1977C171.232 25.0533 158.683 32.3046 150.017 37.7164C142.399 36.5399 132.557 35.9624 120.617 36.0159C108.656 35.9624 98.8022 36.5399 91.1847 37.7164C82.5081 32.2939 69.9371 25.0426 57.8476 20.187C41.4679 13.6202 30.6729 13.2565 24.8421 19.0961C12.9773 30.957 23.9541 60.0693 32.0424 77.2137C23.2266 92.7003 21.6218 108.412 21.6218 117.781C21.6218 128.797 22.9592 139.941 25.591 150.904C28.2015 161.759 33.7969 171.588 41.7675 179.31C49.7594 187.043 59.7627 192.305 70.6967 194.519C87.2583 197.866 104.045 199.567 120.617 199.567C137.189 199.567 153.975 197.866 170.537 194.519C181.471 192.305 191.474 187.043 199.466 179.31C207.447 171.588 213.043 161.759 215.643 150.904C218.274 139.941 219.601 128.797 219.601 117.781C219.601 108.412 217.996 92.7003 209.181 77.2137C217.258 60.0586 228.224 30.9357 216.37 19.0854L216.349 19.1068ZM210.668 149.738C208.282 159.663 203.179 168.625 195.893 175.684C188.596 182.743 179.47 187.545 169.499 189.567C153.269 192.85 136.815 194.508 120.585 194.508C104.355 194.508 87.9002 192.839 71.681 189.567C61.6991 187.545 52.5731 182.743 45.2766 175.684C37.9908 168.636 32.8876 159.663 30.5017 149.738C27.9662 139.16 26.6823 128.412 26.6823 117.802C26.6823 106.005 29.3784 83.4811 47.4592 65.2244C48.4435 64.2298 48.4435 62.6148 47.4378 61.6309C46.4428 60.6469 44.8273 60.6576 43.843 61.6522C40.505 65.0212 37.6699 68.5292 35.2413 72.08C24.2216 47.7699 21.6432 29.4704 28.4155 22.7003C32.5345 18.5827 42.0456 19.3528 55.9325 24.9143C65.7004 28.8287 75.8428 34.4009 83.8668 39.2137C83.6421 39.2779 83.4175 39.3314 83.2035 39.3955C78.143 40.8394 73.3072 42.5934 68.8138 44.6041C67.5299 45.1816 66.9629 46.679 67.5406 47.9624C68.1183 49.2458 69.6162 49.8126 70.9 49.2351C75.1688 47.3207 79.7799 45.6522 84.5943 44.2726C92.276 42.0907 104.387 41.0212 120.595 41.0961C136.772 41.0319 148.893 42.0907 156.575 44.2726C161.4 45.6415 166.001 47.31 170.269 49.2351C170.612 49.3848 170.965 49.4597 171.307 49.4597C172.281 49.4597 173.201 48.9036 173.629 47.9624C174.207 46.679 173.629 45.1816 172.356 44.6041C167.862 42.5827 163.026 40.8287 157.966 39.3955C157.752 39.3314 157.517 39.2779 157.292 39.2137C165.305 34.4009 175.448 28.8394 185.226 24.9143C199.113 19.3421 208.635 18.5827 212.743 22.7003C219.505 29.4597 216.926 47.7592 205.928 72.08C203.5 68.5292 200.664 65.0212 197.326 61.6522C196.342 60.6576 194.727 60.6469 193.732 61.6309C192.737 62.6148 192.726 64.2298 193.71 65.2244C211.791 83.4811 214.487 106.005 214.487 117.802C214.487 128.422 213.203 139.16 210.668 149.738Z" fill="#446993"/>
<path d="M146.237 120.136C145.146 120.136 144.14 119.43 143.809 118.339C143.402 117.002 144.151 115.58 145.489 115.162L154.454 112.414C155.791 112.007 157.214 112.756 157.632 114.093C158.038 115.43 157.289 116.852 155.952 117.269L146.986 120.018C146.74 120.093 146.484 120.136 146.237 120.136Z" fill="white"/>
<path d="M96.1786 120.136C95.9325 120.136 95.6757 120.104 95.4297 120.018L86.4642 117.269C85.1268 116.863 84.3672 115.441 84.7845 114.093C85.191 112.756 86.6139 111.997 87.962 112.414L96.9275 115.162C98.2648 115.569 99.0244 116.991 98.6072 118.339C98.2755 119.43 97.2698 120.136 96.1786 120.136Z" fill="white"/>
<path d="M130.436 139.655C126.756 139.655 123.76 136.66 123.76 132.981C123.76 132.927 123.76 132.874 123.76 132.82H126.028C127.43 132.82 128.564 131.687 128.564 130.275C128.564 128.863 127.43 127.74 126.028 127.74H116.421C115.019 127.74 113.885 128.874 113.885 130.275C113.885 131.676 115.019 132.82 116.421 132.82H118.689C118.689 132.82 118.689 132.927 118.689 132.981C118.689 136.66 115.693 139.655 112.013 139.655C110.612 139.655 109.478 140.788 109.478 142.189C109.478 143.59 110.612 144.735 112.013 144.735C115.747 144.735 119.074 142.992 121.225 140.275C123.386 142.992 126.713 144.735 130.447 144.735C131.849 144.735 132.983 143.601 132.983 142.189C132.983 140.778 131.849 139.655 130.447 139.655H130.436Z" fill="#446993"/>
<path d="M95.9326 134.157C95.8042 134.157 95.6652 134.157 95.5368 134.125L78.1086 131.376C76.7178 131.162 75.7763 129.857 75.9903 128.467C76.2042 127.076 77.5095 126.135 78.9003 126.349L96.3285 129.098C97.7193 129.312 98.6608 130.617 98.4468 132.007C98.2542 133.258 97.1737 134.146 95.9433 134.146L95.9326 134.157Z" fill="#446993"/>
<path d="M146.495 134.157C145.264 134.157 144.184 133.258 143.991 132.018C143.777 130.627 144.719 129.333 146.11 129.109L163.538 126.36C164.929 126.135 166.223 127.087 166.448 128.478C166.662 129.868 165.72 131.162 164.329 131.387L146.901 134.135C146.762 134.157 146.634 134.167 146.505 134.167L146.495 134.157Z" fill="#446993"/>
<path d="M42.4201 142.529C50.3614 142.529 56.7991 133.038 56.7991 121.331C56.7991 109.624 50.3614 100.133 42.4201 100.133C34.4787 100.133 28.041 109.624 28.041 121.331C28.041 133.038 34.4787 142.529 42.4201 142.529Z" fill="#ADBED9"/>
<path d="M204.838 133.031L197.539 152.101C194.498 153.002 187.654 154.954 178.53 157.056C182.636 143.242 184.461 130.028 185.069 119.217C185.221 117.415 185.221 115.763 185.373 114.112C197.387 112.16 205.295 110.658 205.599 110.508L204.23 103.451C204.078 103.451 196.779 104.952 185.677 106.754C185.677 91.5886 184.005 81.228 183.853 80.7775L176.705 81.9787C176.705 82.279 178.53 92.6397 178.378 107.955C169.558 109.307 159.065 110.658 148.268 111.709C148.116 94.7418 147.203 82.8797 147.203 81.6784L140.056 78.0747C140.056 78.375 140.968 94.7418 141.12 112.31C134.125 112.91 127.13 113.361 120.439 113.361C113.748 113.511 106.752 113.361 99.757 113.061C99.1487 95.4926 99.6049 79.1258 99.6049 78.8255L92.4575 82.7295C92.4575 83.9307 92.0013 95.7929 92.4575 112.76C81.6604 112.16 71.1675 111.109 62.1953 110.058C61.587 94.892 62.8035 84.3812 62.8035 84.0809L55.6562 83.18C55.6562 83.7806 54.2876 93.9911 54.8958 109.307C43.7946 107.955 36.3431 106.754 36.191 106.754L34.9744 113.811C35.1265 113.811 43.1863 115.163 55.352 116.664C55.5041 118.316 55.6562 119.968 55.8082 121.77C56.8727 132.43 59.1538 145.794 63.8681 159.308C54.7438 157.506 47.7485 155.855 44.707 155.104L36.6472 136.335L29.9561 139.037L45.4674 175.375C48.6609 183.032 55.2 188.588 63.2598 190.69C76.49 194.294 101.278 200 120.439 200C121.047 200 121.655 200 122.112 200C141.577 199.7 167.125 192.642 180.659 188.438C188.567 186.035 194.954 180.18 197.843 172.371L211.834 135.434L204.838 133.031ZM170.47 159.008C162.867 160.659 154.351 162.311 145.683 163.512C147.355 147.896 147.964 132.431 148.116 119.217C158.761 118.166 169.102 116.814 178.074 115.463C177.618 128.226 175.641 143.692 170.47 159.008ZM167.581 166.966C164.692 174.173 161.042 181.231 156.48 187.837C151.613 189.039 146.443 190.09 141.425 190.991C142.793 184.534 144.01 177.777 144.922 170.87C152.83 169.669 160.586 168.317 167.581 166.966ZM115.268 120.869C116.941 120.869 118.766 120.869 120.439 120.869C127.13 120.718 133.973 120.418 140.968 119.818C140.816 133.181 140.208 148.947 138.383 164.413C132.604 165.014 126.826 165.464 121.351 165.615C115.877 165.765 110.098 165.464 104.167 165.014C101.734 149.548 100.517 133.932 99.909 120.568C105.079 120.718 110.25 120.869 115.268 120.869ZM62.4994 117.565C71.4717 118.616 81.8125 119.517 92.6096 120.118C93.2179 133.331 94.4345 148.797 96.7156 164.413C88.0475 163.512 79.3794 162.161 71.7758 160.81C66.1491 145.794 63.5639 130.479 62.4994 117.565ZM97.9321 171.621C99.1487 178.378 100.517 185.135 102.19 191.591C97.0197 190.84 91.8492 189.94 86.9829 189.039C82.1166 182.582 78.1628 175.675 74.9693 168.618C82.1166 169.819 90.0244 170.87 97.9321 171.621ZM52.0064 172.672L48.0526 163.212C52.6148 164.263 59.0018 165.765 66.6053 167.116C69.3426 173.723 72.6882 180.33 76.7942 186.786C72.3841 185.735 68.2781 184.684 65.0846 183.783C59.0018 182.282 54.2875 178.227 52.0064 172.672ZM121.807 192.943C118.006 192.943 114.052 192.792 109.946 192.492C108.121 186.036 106.6 179.279 105.384 172.221C109.794 172.522 114.052 172.672 118.31 172.672C119.374 172.672 120.439 172.672 121.351 172.672C126.522 172.522 131.996 172.221 137.471 171.621C136.558 178.678 135.342 185.435 133.669 192.042C129.563 192.642 125.609 192.943 121.807 192.943ZM190.848 169.969C188.719 175.675 184.157 179.879 178.226 181.681C175.032 182.732 171.079 183.783 166.669 184.984C170.47 178.378 173.512 171.621 176.097 165.014C183.701 163.362 190.088 161.711 194.498 160.359L190.848 169.969Z" fill="white"/>
<path d="M236.497 81.6748C231.455 67.8502 224.121 52.8234 214.037 43.2063C214.037 43.2063 211.593 42.0042 206.551 40.201C191.272 17.6608 158.27 2.48385 120.379 3.23519C82.4885 3.98653 50.0978 20.3657 35.736 43.5069C30.8468 45.4603 28.4022 46.8128 28.4022 46.8128C18.7767 56.7304 12.0541 72.0577 7.47054 86.0326C1.66467 104.065 1.81747 123.449 7.77613 141.331C9.76235 147.041 15.2626 150.948 21.3741 150.798C28.0967 150.648 33.7497 145.989 34.972 139.528L40.9307 107.371C42.3058 100.308 47.0422 94.4476 53.7647 91.7428C65.5293 86.9342 87.5305 80.4727 121.755 79.8716C155.979 79.2706 178.133 84.8304 190.05 89.1882C196.925 91.7427 201.967 97.4529 203.495 104.365L210.829 136.222C212.357 142.683 218.163 147.191 224.885 147.041C230.997 146.891 236.497 142.834 238.177 136.973C243.525 118.941 242.914 99.5567 236.497 81.6748Z" fill="#A3D676"/>
<path d="M239.361 80.4575C232.815 62.5177 225.052 49.2123 216.222 40.8404C215.918 40.5414 215.614 40.3919 215.309 40.2424C215.005 40.0929 212.721 39.0464 208.611 37.4019C192.018 13.9306 157.462 -0.720183 120.319 0.0273094C83.1752 0.774802 49.2283 16.6216 33.5489 40.8404C29.4387 42.4849 27.3075 43.6809 27.003 43.8304C26.6986 43.9799 26.3941 44.2788 26.0896 44.4283C17.5649 53.0993 10.258 66.7036 4.4733 84.7929C-1.61582 103.48 -1.46362 123.364 4.77772 142.051C7.21337 149.227 13.9114 154.011 21.5228 154.011C21.675 154.011 21.8273 154.011 21.8273 154.011C30.1998 153.861 37.3546 147.881 38.8768 139.808L44.8137 107.816C45.8793 101.985 49.8372 97.2013 55.4697 94.8093C67.4957 89.8759 88.8076 83.8959 121.841 83.2979C154.875 82.7 176.491 87.7829 188.669 92.2679C194.302 94.3608 198.412 98.9953 199.782 104.826L207.089 136.519C208.915 144.443 216.222 150.124 224.595 149.974C232.359 149.825 239.057 144.742 241.188 137.416C246.82 118.729 246.211 98.9953 239.361 80.4575ZM120.471 7.20324C150.612 6.60525 178.774 16.6216 195.672 33.3655C179.84 28.8805 154.57 24.246 120.775 24.844C86.9809 25.442 62.0155 31.123 46.336 36.2059C62.6244 18.8641 90.3299 7.80123 120.471 7.20324ZM234.338 135.772C233.12 140.107 229.162 143.097 224.595 143.247C219.724 143.396 215.309 139.958 214.243 135.323L206.937 103.63C205.11 95.5568 199.173 88.8294 191.257 85.9889C178.47 81.3544 156.092 75.823 121.841 76.5705C87.5898 77.1685 65.3645 83.4475 52.8818 88.6799C45.1181 91.8194 39.4857 98.6963 37.9635 106.919L32.0266 138.911C31.1132 143.695 26.8508 147.134 21.9795 147.283C17.4127 147.433 13.3025 144.592 11.9325 140.257C6.14779 122.915 5.99555 104.676 11.628 87.3344C16.956 70.5906 23.654 58.0327 31.1132 50.1093C35.2234 48.0163 66.7346 33.2159 121.08 32.1695C175.578 31.123 207.545 44.7273 211.656 46.6708C219.571 54.2952 226.574 66.5541 232.663 83.1484C238.752 100.042 239.513 118.281 234.338 135.772Z" fill="#87B758"/>
<path d="M201.341 68.4491C199.751 68.4491 198.306 67.3255 198.017 65.5598C197.583 63.4731 198.739 61.3864 200.618 61.0653L213.046 57.855C214.925 57.3734 216.803 58.6576 217.092 60.7443C217.526 62.831 216.37 64.9177 214.491 65.2387L202.063 68.4491C201.774 68.4491 201.63 68.4491 201.341 68.4491Z" fill="#87B758"/>
<path d="M205.62 80.2137C204.03 80.2137 202.585 79.0901 202.296 77.3244C201.863 75.2377 203.019 73.151 204.897 72.83L217.325 69.6196C219.204 69.1381 221.083 70.4222 221.372 72.5089C221.805 74.5956 220.649 76.6824 218.771 77.0034L206.342 80.2137C206.198 80.0532 205.909 80.2137 205.62 80.2137Z" fill="#87B758"/>
<path d="M42.3339 70.5884C42.1829 70.5884 41.8809 70.5884 41.7299 70.5884L28.592 68.4259C26.6289 68.1556 25.4208 66.3985 25.7228 64.6415C26.0249 62.8844 27.988 61.8032 29.9512 62.0735L43.089 64.236C45.0521 64.5063 46.2602 66.2633 45.9582 68.0204C45.5051 69.5071 44.1461 70.5884 42.3339 70.5884Z" fill="#87B758"/>
<path d="M38.2473 82.353C38.1042 82.353 37.8181 82.353 37.6751 82.353L25.2286 80.1905C23.3688 79.9202 22.2243 78.1632 22.5105 76.4061C22.7966 74.6491 24.6564 73.5678 26.5162 73.8381L38.9626 76.0007C40.8224 76.271 41.9669 78.028 41.6808 79.785C41.2516 81.2718 39.821 82.353 38.2473 82.353Z" fill="#87B758"/>
</svg>
