<svg width="33" height="32" viewBox="0 0 33 32" fill="none" xmlns="http://www.w3.org/2000/svg">
<path fill-rule="evenodd" clip-rule="evenodd" d="M12.9657 2.875C8.76867 2.875 5.3567 6.18134 5.3567 10.3499C5.3567 14.5184 8.76867 17.8248 12.9657 17.8248C17.1643 17.8248 20.5748 14.5183 20.5748 10.3499C20.5748 6.18149 17.1643 2.875 12.9657 2.875ZM7.6067 10.3499C7.6067 7.46839 9.96644 5.125 12.9657 5.125C15.9662 5.125 18.3248 7.46824 18.3248 10.3499C18.3248 13.2315 15.9662 15.5748 12.9657 15.5748C9.96644 15.5748 7.6067 13.2314 7.6067 10.3499ZM12.9657 18.6853C10.2985 18.6853 7.69339 18.887 5.72017 19.562C4.72709 19.9016 3.81239 20.388 3.13671 21.1032C2.43566 21.8454 2.04163 22.7839 2.04163 23.8898C2.04163 24.9938 2.43192 25.933 3.12882 26.6782C3.80112 27.397 4.71259 27.8882 5.70485 28.2324C7.67594 28.9161 10.2824 29.125 12.9657 29.125C15.6329 29.125 18.2381 28.9233 20.2113 28.2484C21.2044 27.9087 22.1191 27.4223 22.7948 26.7071C23.4958 25.9649 23.8898 25.0265 23.8898 23.9205C23.8898 22.8165 23.4996 21.8773 22.8027 21.1321C22.1304 20.4133 21.2189 19.9221 20.2266 19.5779C18.2555 18.8942 15.649 18.6853 12.9657 18.6853ZM4.29163 23.8898C4.29163 23.3642 4.46184 22.977 4.77233 22.6483C5.1082 22.2928 5.65232 21.9632 6.44838 21.6909C8.05346 21.1418 10.3478 20.9353 12.9657 20.9353C15.5962 20.9353 17.8893 21.1487 19.4893 21.7037C20.2826 21.9788 20.8246 22.3111 21.1593 22.669C21.4695 23.0006 21.6398 23.3917 21.6398 23.9205C21.6398 24.4461 21.4696 24.8333 21.1591 25.162C20.8233 25.5175 20.2792 25.8472 19.4831 26.1195C17.878 26.6685 15.5836 26.875 12.9657 26.875C10.3353 26.875 8.0422 26.6616 6.44218 26.1067C5.64888 25.8315 5.10691 25.4992 4.77215 25.1413C4.462 24.8097 4.29163 24.4187 4.29163 23.8898ZM22.0645 10.465C22.0645 12.2601 21.514 13.9351 20.5485 15.3264C20.4481 15.4695 20.5368 15.6624 20.7116 15.6931C20.9543 15.7327 21.2035 15.757 21.4579 15.7621C23.9889 15.8273 26.2602 14.2315 26.8878 11.8282C27.818 8.26234 25.0887 5.06057 21.6118 5.06057C21.2348 5.06057 20.8734 5.0989 20.5211 5.16917C20.4729 5.17939 20.4207 5.20239 20.3946 5.24327C20.3607 5.29566 20.3855 5.36337 20.4194 5.40809C21.4644 6.84288 22.0645 8.58942 22.0645 10.465ZM26.2563 18.2697C27.9576 18.5955 29.0756 19.2586 29.5388 20.2258C29.9315 21.0179 29.9315 21.9378 29.5388 22.73C28.8304 24.2274 26.5446 24.709 25.6562 24.833C25.4722 24.8585 25.3248 24.7052 25.3444 24.5238C25.7984 20.374 22.1885 18.4064 21.2543 17.9542C21.2152 17.9324 21.2061 17.9018 21.21 17.8813C21.2126 17.8686 21.2296 17.8481 21.2596 17.8443C23.2804 17.8059 25.454 18.0781 26.2563 18.2697Z" fill="#BCBABD"/>
</svg>
