<svg width="25" height="24" viewBox="0 0 25 24" fill="none" xmlns="http://www.w3.org/2000/svg">
<g clip-path="url(#clip0_142_7175)">
<path d="M15.6656 6.00001C15.6656 8.72895 13.4533 10.9412 10.7244 10.9412C7.99544 10.9412 5.7832 8.72895 5.7832 6.00001C5.7832 3.27108 7.99544 1.05884 10.7244 1.05884C13.4533 1.05884 15.6656 3.27108 15.6656 6.00001Z" fill="#4874D7"/>
<path opacity="0.4" d="M21.3127 5.99987C21.3127 7.94911 19.7326 9.52928 17.7833 9.52928C15.8341 9.52928 14.2539 7.94911 14.2539 5.99987C14.2539 4.05063 15.8341 2.47046 17.7833 2.47046C19.7326 2.47046 21.3127 4.05063 21.3127 5.99987Z" fill="#4874D7"/>
<path d="M19.1951 18.7058C19.1951 21.4348 15.4027 23.647 10.7245 23.647C6.04632 23.647 2.25391 21.4348 2.25391 18.7058C2.25391 15.9769 6.04632 13.7646 10.7245 13.7646C15.4027 13.7646 19.1951 15.9769 19.1951 18.7058Z" fill="#4874D7"/>
<path opacity="0.4" d="M24.842 18.7057C24.842 20.6549 22.3137 22.2351 19.1949 22.2351C16.0761 22.2351 13.5479 20.6549 13.5479 18.7057C13.5479 16.7564 16.0761 15.1763 19.1949 15.1763C22.3137 15.1763 24.842 16.7564 24.842 18.7057Z" fill="#4874D7"/>
</g>
<defs>
<clipPath id="clip0_142_7175">
<rect width="24" height="24" fill="white" transform="translate(0.884277)"/>
</clipPath>
</defs>
</svg>
