<svg width="25" height="24" viewBox="0 0 25 24" fill="none" xmlns="http://www.w3.org/2000/svg">
<path d="M14.4702 7.25C14.4702 9.183 12.9032 10.75 10.9702 10.75C9.03722 10.75 7.47021 9.183 7.47021 7.25C7.47021 5.317 9.03722 3.75 10.9702 3.75C12.9032 3.75 14.4702 5.317 14.4702 7.25Z" fill="#4874D7"/>
<path opacity="0.4" d="M18.4702 7.25C18.4702 8.63071 17.3509 9.75 15.9702 9.75C14.5895 9.75 13.4702 8.63071 13.4702 7.25C13.4702 5.86929 14.5895 4.75 15.9702 4.75C17.3509 4.75 18.4702 5.86929 18.4702 7.25Z" fill="#4874D7"/>
<path d="M16.9702 16.25C16.9702 18.183 14.2839 19.75 10.9702 19.75C7.65651 19.75 4.97021 18.183 4.97021 16.25C4.97021 14.317 7.65651 12.75 10.9702 12.75C14.2839 12.75 16.9702 14.317 16.9702 16.25Z" fill="#4874D7"/>
<path opacity="0.4" d="M20.9702 16.25C20.9702 17.6307 19.1794 18.75 16.9702 18.75C14.7611 18.75 12.9702 17.6307 12.9702 16.25C12.9702 14.8693 14.7611 13.75 16.9702 13.75C19.1794 13.75 20.9702 14.8693 20.9702 16.25Z" fill="#4874D7"/>
</svg>
