<svg width="24" height="24" viewBox="0 0 24 24" fill="none" xmlns="http://www.w3.org/2000/svg">
<path d="M13.0857 6.25C13.0857 7.90685 11.7425 9.25 10.0857 9.25C8.42884 9.25 7.08569 7.90685 7.08569 6.25C7.08569 4.59315 8.42884 3.25 10.0857 3.25C11.7425 3.25 13.0857 4.59315 13.0857 6.25Z" stroke="#B5B5B5" stroke-width="2"/>
<path d="M16.0857 9.25006C17.7425 9.25006 19.0857 8.13077 19.0857 6.75006C19.0857 5.36935 17.7425 4.25006 16.0857 4.25006" stroke="#B5B5B5" stroke-width="2" stroke-linecap="round"/>
<path d="M15.0857 17.2501C15.0857 17.9162 14.6806 18.6418 13.7736 19.2464C12.8736 19.8464 11.5727 20.2501 10.0857 20.2501C8.59873 20.2501 7.29777 19.8464 6.39775 19.2464C5.49075 18.6418 5.08569 17.9162 5.08569 17.2501C5.08569 16.5839 5.49075 15.8584 6.39775 15.2537C7.29777 14.6537 8.59873 14.2501 10.0857 14.2501C11.5727 14.2501 12.8736 14.6537 13.7736 15.2537C14.6806 15.8584 15.0857 16.5839 15.0857 17.2501Z" stroke="#B5B5B5" stroke-width="2"/>
<path d="M18.0857 19.25C19.8399 18.8653 21.0857 17.8911 21.0857 16.75C21.0857 15.6089 19.8399 14.6347 18.0857 14.25" stroke="#B5B5B5" stroke-width="2" stroke-linecap="round"/>
</svg>
