<svg width="20" height="25" viewBox="0 0 20 25" fill="none" xmlns="http://www.w3.org/2000/svg">
<path d="M0.527588 8.08545V19.0265L10.0001 24.4998V2.61768L0.527588 8.08545Z" fill="#A6A6A6"/>
<path d="M19.4725 8.08545L10 2.61768V24.4998L19.4725 19.0265V8.08545Z" fill="#D7D7D7"/>
<g style="mix-blend-mode:multiply">
<path d="M0.527588 18.6362V19.0268L10.0001 24.5001L19.4726 19.0268V18.6362L10.0001 24.1095L0.527588 18.6362Z" fill="#D3D3D3"/>
</g>
<path d="M0.527588 6.28662V17.2276L10.0001 22.6954V0.818848L0.527588 6.28662Z" fill="#D7D7D7"/>
<path d="M19.4725 6.28662L10 0.818848V22.6954L19.4725 17.2276V6.28662Z" fill="#C7C7C7"/>
<path d="M10 11.441L19.4725 5.96777L10 0.5V11.441Z" fill="#B3B3B3"/>
<path d="M10.0001 0.5L0.527588 5.96777L10.0001 11.441V0.5Z" fill="#C1C1C1"/>
<path d="M0.527588 16.9087L10.0001 22.382V11.4409L0.527588 16.9087Z" fill="#C1C1C1"/>
<path d="M10 11.4409V22.382L19.4725 16.9087L10 11.4409Z" fill="#D7D7D7"/>
<path d="M10.0001 11.4411L0.527588 5.96777V16.9088L10.0001 11.4411Z" fill="#A6A6A6"/>
<path d="M10 11.4411L19.4725 16.9088V5.96777L10 11.4411Z" fill="#C7C7C7"/>
<path d="M3.97119 7.95903L10.0001 4.47705L16.0291 7.95903V14.923L10.0001 18.405L3.97119 14.923V7.95903Z" fill="#858585"/>
<g opacity="0.3">
<path d="M11.0452 5.08214L10.0001 4.47705L6.55103 6.46833L15.853 15.0275L16.029 14.923V9.66978L11.0452 5.08214Z" fill="#B3B3B3"/>
<path d="M3.97119 10.4619V14.923L10.0001 18.405L11.6009 17.4809L3.97119 10.4619Z" fill="#B3B3B3"/>
</g>
</svg>
