<svg width="51" height="64" viewBox="0 0 51 64" fill="none" xmlns="http://www.w3.org/2000/svg">
<path d="M0 20.2282V49.4043L25.26 63.9997V5.64746L0 20.2282Z" fill="#6D2AA6"/>
<path d="M50.52 20.2282L25.26 5.64746V63.9997L50.52 49.4043V20.2282Z" fill="#843AD9"/>
<g style="mix-blend-mode:multiply">
<path d="M0 48.3633V49.4048L25.26 64.0002L50.52 49.4048V48.3633L25.26 62.9587L0 48.3633Z" fill="#CEAFE6"/>
</g>
<path d="M0 15.4318V44.6079L25.26 59.1886V0.851074L0 15.4318Z" fill="#843AD9"/>
<path d="M50.52 15.4318L25.26 0.851074V59.1886L50.52 44.6079V15.4318Z" fill="#9B43FF"/>
<path d="M25.26 29.1761L50.52 14.5807L25.26 0V29.1761Z" fill="#EB95FF"/>
<path d="M25.26 0L0 14.5807L25.26 29.1761V0Z" fill="#8935D4"/>
<path d="M0 43.757L25.26 58.3524V29.1763L0 43.757Z" fill="#7B35C7"/>
<path d="M25.26 29.1763V58.3524L50.52 43.757L25.26 29.1763Z" fill="#843AD9"/>
<path d="M25.26 29.176L0 14.5806V43.7567L25.26 29.176Z" fill="#6D2AA6"/>
<path d="M25.26 29.176L50.52 43.7567V14.5806L25.26 29.176Z" fill="#9B43FF"/>
<path d="M9.18286 19.8908L25.2601 10.6055L41.3373 19.8908V38.4614L25.2601 47.7467L9.18286 38.4614V19.8908Z" fill="#BB59FF"/>
<g opacity="0.3">
<path d="M28.0473 12.219L25.2602 10.6055L16.0627 15.9155L40.868 38.7401L41.3374 38.4614V24.4528L28.0473 12.219Z" fill="#EB95FF"/>
<path d="M9.18286 26.5649V38.4613L25.2601 47.7466L29.5288 45.2822L9.18286 26.5649Z" fill="#EB95FF"/>
</g>
</svg>
