<svg width="24" height="25" viewBox="0 0 24 25" fill="none" xmlns="http://www.w3.org/2000/svg">
<path d="M0.666748 8.08545V19.0265L10.1392 24.4998V2.61768L0.666748 8.08545Z" fill="#6D2AA6"/>
<path d="M19.6117 8.08545L10.1392 2.61768V24.4998L19.6117 19.0265V8.08545Z" fill="#843AD9"/>
<g style="mix-blend-mode:multiply">
<path d="M0.666748 18.6362V19.0268L10.1392 24.5001L19.6118 19.0268V18.6362L10.1392 24.1095L0.666748 18.6362Z" fill="#CEAFE6"/>
</g>
<path d="M0.666748 6.28662V17.2276L10.1392 22.6954V0.818848L0.666748 6.28662Z" fill="#843AD9"/>
<path d="M19.6117 6.28662L10.1392 0.818848V22.6954L19.6117 17.2276V6.28662Z" fill="#9B43FF"/>
<path d="M10.1392 11.441L19.6117 5.96777L10.1392 0.5V11.441Z" fill="#EB95FF"/>
<path d="M10.1392 0.5L0.666748 5.96777L10.1392 11.441V0.5Z" fill="#8935D4"/>
<path d="M0.666748 16.9087L10.1392 22.382V11.4409L0.666748 16.9087Z" fill="#7B35C7"/>
<path d="M10.1392 11.4409V22.382L19.6117 16.9087L10.1392 11.4409Z" fill="#843AD9"/>
<path d="M10.1392 11.4411L0.666748 5.96777V16.9088L10.1392 11.4411Z" fill="#6D2AA6"/>
<path d="M10.1392 11.4411L19.6117 16.9088V5.96777L10.1392 11.4411Z" fill="#9B43FF"/>
<path d="M4.11035 7.95903L10.1393 4.47705L16.1683 7.95903V14.923L10.1393 18.405L4.11035 14.923V7.95903Z" fill="#BB59FF"/>
<g opacity="0.3">
<path d="M11.1844 5.08214L10.1392 4.47705L6.69019 6.46833L15.9922 15.0275L16.1682 14.923V9.66978L11.1844 5.08214Z" fill="#EB95FF"/>
<path d="M4.11035 10.4619V14.923L10.1393 18.405L11.7401 17.4809L4.11035 10.4619Z" fill="#EB95FF"/>
</g>
<path d="M14.3412 23.9924H14.1745C13.7188 23.9527 13.2757 23.7564 12.9178 23.3978C12.9174 23.3974 12.917 23.397 12.9165 23.3966L9.09361 19.5028C8.30213 18.6967 8.30213 17.3785 9.09361 16.5724C9.88008 15.7713 11.1587 15.7713 11.9451 16.5724L12.3019 16.2221L11.9451 16.5724L13.9844 18.6494L14.3412 19.0128L14.698 18.6494L19.6549 13.6008C20.4413 12.7997 21.7199 12.7997 22.5064 13.6008C23.2979 14.4069 23.2979 15.7251 22.5064 16.5313L15.7707 23.3916C15.3771 23.7925 14.8598 23.9924 14.3412 23.9924Z" fill="#ACFF1B" stroke="#334514"/>
</svg>
