<svg width="26" height="32" viewBox="0 0 26 32" fill="none" xmlns="http://www.w3.org/2000/svg">
<path d="M0 10.1141V24.7022L12.6298 31.9998V2.82373L0 10.1141Z" fill="#6D2AA6"/>
<path d="M25.2597 10.1141L12.6299 2.82373V31.9998L25.2597 24.7022V10.1141Z" fill="#843AD9"/>
<g style="mix-blend-mode:multiply">
<path d="M0 24.1816V24.7024L12.6298 32.0001L25.2596 24.7024V24.1816L12.6298 31.4793L0 24.1816Z" fill="#CEAFE6"/>
</g>
<path d="M0 7.71565V22.3037L12.6298 29.5941V0.425293L0 7.71565Z" fill="#843AD9"/>
<path d="M25.2597 7.71565L12.6299 0.425293V29.5941L25.2597 22.3037V7.71565Z" fill="#9B43FF"/>
<path d="M12.6299 14.5881L25.2597 7.29036L12.6299 0V14.5881Z" fill="#EB95FF"/>
<path d="M12.6298 0L0 7.29036L12.6298 14.5881V0Z" fill="#8935D4"/>
<path d="M0 21.8787L12.6298 29.1764V14.5884L0 21.8787Z" fill="#7B35C7"/>
<path d="M12.6299 14.5884V29.1764L25.2597 21.8787L12.6299 14.5884Z" fill="#843AD9"/>
<path d="M12.6298 14.5882L0 7.29053V21.8786L12.6298 14.5882Z" fill="#6D2AA6"/>
<path d="M12.6299 14.5882L25.2597 21.8786V7.29053L12.6299 14.5882Z" fill="#9B43FF"/>
<path d="M4.59131 9.94538L12.6298 5.30273L20.6682 9.94538V19.2307L12.6298 23.8734L4.59131 19.2307V9.94538Z" fill="#BB59FF"/>
<g opacity="0.3">
<path d="M14.0234 6.10952L12.6299 5.30273L8.03125 7.95777L20.4337 19.37L20.6684 19.2307V12.2264L14.0234 6.10952Z" fill="#EB95FF"/>
<path d="M4.59131 13.2822V19.2304L12.6298 23.8731L14.7641 22.6409L4.59131 13.2822Z" fill="#EB95FF"/>
</g>
</svg>
