<svg width="19" height="24" viewBox="0 0 19 24" fill="none" xmlns="http://www.w3.org/2000/svg">
<path d="M9.95752 12.5723V23.3443L18.7592 18.2754V7.82129L9.95752 12.5723Z" fill="#F9E2D6"/>
<path d="M9.9577 12.5723V23.3443L0.791504 18.2754V7.82129L9.9577 12.5723Z" fill="#DEBFC8"/>
<path d="M0.791504 7.88426L9.9577 2.94189L18.785 7.88426L9.9577 13.5226L0.791504 7.88426Z" fill="#FFEFE8"/>
<path d="M1.20264 7.91596L9.95759 3.2583L18.5001 7.91596L9.95759 13.2093L1.20264 7.91596Z" fill="#FAD642"/>
<path d="M9.95752 3.2583V13.2093L18.5001 7.91596L9.95752 3.2583Z" fill="#FFC134"/>
<path d="M9.95768 3.2583V13.2093L7.50684 11.7286L9.95768 3.2583Z" fill="#F1B233"/>
<path d="M13.719 10.2967V21.1778L15.1139 20.3734V9.52246L13.719 10.2967Z" fill="#B465FF"/>
<path d="M18.9052 7.35498V9.29046L10.0024 14.6991V11.32L18.9052 7.35498Z" fill="#FFECE2"/>
<path d="M0.634277 7.46631V9.4329L10.0025 14.6992V11.3201L0.634277 7.46631Z" fill="#D7B7C0"/>
<path d="M0.634277 7.46598L9.96277 12.6248L18.9052 7.3547L9.69317 2.32373L0.634277 7.46598Z" fill="#DEBFC8"/>
<path d="M3.96313 9.29026L9.693 6.11475L15.1412 9.58481L13.7899 10.3787L9.693 7.87128L5.35668 10.0645L3.96313 9.29026Z" fill="#C58CFB"/>
<path d="M9.69309 6.85759C9.69309 6.85759 9.60542 6.6922 9.4516 6.42756C8.73874 5.18376 6.58855 1.70873 5.31829 2.32567C5.31829 2.32567 4.35071 3.61578 4.53926 3.95319C4.72782 4.29061 8.58161 7.53573 8.98683 7.46792C9.39206 7.4001 9.60542 6.6955 9.60542 6.6955" fill="#B465FF"/>
<path d="M4.53932 3.95117C4.53932 3.95117 9.19034 7.06067 8.9869 7.4659C8.78346 7.87112 4.41858 5.37029 4.53932 3.95117Z" fill="#923EE9"/>
<path d="M8.99341 6.50513C8.99341 6.50513 9.655 0.511082 12.0301 0C12.0301 0 13.4493 0.620245 13.3814 1.27192C13.3136 1.92359 10.697 7.6712 10.0007 7.4661C9.30436 7.26101 8.99341 6.50513 8.99341 6.50513Z" fill="#B465FF"/>
<path d="M10.6773 7.51081C10.6773 7.51081 13.2757 4.36824 13.3816 1.27197C13.3816 1.27197 8.37989 7.486 10.6773 7.51081Z" fill="#923EE9"/>
<path d="M10.0007 6.62611C10.0007 6.62611 10.1661 6.53845 10.4407 6.40282C11.7291 5.76604 15.4457 4.06574 16.1569 5.27977C16.1569 5.27977 16.2462 6.8891 15.9022 7.06607C15.5581 7.24305 10.5581 7.81037 10.2505 7.52919C9.94284 7.24801 10.1661 6.5368 10.1661 6.5368" fill="#B465FF"/>
<path d="M15.9021 7.07227C15.9021 7.07227 10.3067 7.07227 10.2505 7.52877C10.1942 7.98527 15.2157 8.31937 15.9021 7.07227Z" fill="#923EE9"/>
<path d="M4 9.2998V20.0337L5.39 20.8059V10.072L4 9.2998Z" fill="#B465FF"/>
<path d="M13.7955 10.3723L13.7183 12.4573L15.1083 11.6079V9.6001L13.7955 10.3723Z" fill="#B465FF"/>
</svg>
