<svg width="222" height="171" viewBox="0 0 222 171" fill="none" xmlns="http://www.w3.org/2000/svg">
<ellipse cx="111" cy="125.016" rx="111" ry="39" fill="#FFC466"/>
<path d="M110.214 81.1956V150.765L167.058 118.028V50.5117L110.214 81.1956Z" fill="#F9E2D6"/>
<path d="M110.215 81.1956V150.765L51.0166 118.028V50.5117L110.215 81.1956Z" fill="#DEBFC8"/>
<path d="M51.0166 50.9194L110.215 19L167.224 50.9194L110.215 87.3335L51.0166 50.9194Z" fill="#FFEFE8"/>
<path d="M53.6719 51.1237L110.214 21.043L165.385 51.1237L110.214 85.3099L53.6719 51.1237Z" fill="#FAD642"/>
<path d="M110.214 21.043V85.3099L165.385 51.1237L110.214 21.043Z" fill="#FFC134"/>
<path d="M110.215 21.043V85.3099L94.3862 75.7467L110.215 21.043Z" fill="#F1B233"/>
<path d="M134.507 66.5V136.774L143.515 131.579V61.5L134.507 66.5Z" fill="#B465FF"/>
<path d="M168 47.5V60L110.503 94.9309V73.1076L168 47.5Z" fill="#FFECE2"/>
<path d="M50 48.2188V60.9197L110.503 94.9311V73.1078L50 48.2188Z" fill="#D7B7C0"/>
<path d="M50 48.2187L110.247 81.5358L168 47.5L108.505 15.0083L50 48.2187Z" fill="#DEBFC8"/>
<path d="M71.5 59.9998L108.505 39.4912L143.692 61.9021L134.965 67.0294L108.505 50.8355L80.5 64.9998L71.5 59.9998Z" fill="#C58CFB"/>
<path d="M108.505 44.2878C108.505 44.2878 107.939 43.2196 106.946 41.5105C102.342 33.4776 88.4554 11.0347 80.2516 15.0191C80.2516 15.0191 74.0026 23.351 75.2204 25.5302C76.4381 27.7093 101.327 48.6674 103.944 48.2294C106.561 47.7915 107.939 43.2409 107.939 43.2409" fill="#B465FF"/>
<path d="M75.2205 25.5195C75.2205 25.5195 105.258 45.6017 103.944 48.2188C102.63 50.8359 74.4407 34.6847 75.2205 25.5195Z" fill="#923EE9"/>
<path d="M103.987 42.0123C103.987 42.0123 108.26 3.30074 123.599 0C123.599 0 132.764 4.00575 132.326 8.21446C131.888 12.4232 114.989 49.5431 110.492 48.2186C105.995 46.894 103.987 42.0123 103.987 42.0123Z" fill="#B465FF"/>
<path d="M114.861 48.5069C114.861 48.5069 131.642 28.2111 132.326 8.21436C132.326 8.21436 100.024 48.3466 114.861 48.5069Z" fill="#923EE9"/>
<path d="M110.492 42.7923C110.492 42.7923 111.56 42.2261 113.334 41.3502C121.655 37.2376 145.657 26.2565 150.251 34.0971C150.251 34.0971 150.827 44.4907 148.606 45.6337C146.384 46.7766 114.092 50.4406 112.105 48.6246C110.118 46.8087 111.56 42.2154 111.56 42.2154" fill="#B465FF"/>
<path d="M148.605 45.6763C148.605 45.6763 112.468 45.6763 112.105 48.6245C111.742 51.5727 144.172 53.7305 148.605 45.6763Z" fill="#923EE9"/>
<path d="M71.5 60V129.5L80.5 134.5V65L71.5 60Z" fill="#B465FF"/>
<path d="M135 67L134.5 80.5L143.5 75V62L135 67Z" fill="#B465FF"/>
<g filter="url(#filter0_d_2040_18950)">
<rect x="39" y="68" width="145" height="35" rx="10" fill="#4874D7" shape-rendering="crispEdges"/>
<rect x="39.5" y="68.5" width="144" height="34" rx="9.5" stroke="white" shape-rendering="crispEdges"/>
<path d="M58.584 92.16C58.104 92.16 57.6987 92.0853 57.368 91.936C57.0373 91.7867 56.7867 91.5627 56.616 91.264C56.4453 90.9547 56.36 90.5707 56.36 90.112V84.192C56.36 83.9147 56.376 83.6853 56.408 83.504C56.4507 83.3227 56.5253 83.152 56.632 82.992C56.7387 82.8213 56.8933 82.6187 57.096 82.384C57.3093 82.1387 57.4853 81.9253 57.624 81.744C57.7627 81.5627 57.832 81.3547 57.832 81.12C57.832 80.8747 57.7413 80.6827 57.56 80.544C57.3893 80.3947 57.1173 80.32 56.744 80.32C56.456 80.32 56.2 80.3573 55.976 80.432C55.752 80.5067 55.5493 80.6027 55.368 80.72V78.944C55.5173 78.8587 55.784 78.7627 56.168 78.656C56.5627 78.5387 57.0373 78.48 57.592 78.48C58.4347 78.48 59.1013 78.656 59.592 79.008C60.0827 79.36 60.328 79.888 60.328 80.592C60.328 81.0187 60.2427 81.392 60.072 81.712C59.912 82.032 59.7413 82.3147 59.56 82.56C59.3893 82.7947 59.24 82.992 59.112 83.152C58.9947 83.3013 58.904 83.456 58.84 83.616C58.7867 83.776 58.76 83.9893 58.76 84.256V89.824C58.76 90.0267 58.8027 90.176 58.888 90.272C58.984 90.368 59.1227 90.416 59.304 90.416C59.3893 90.416 59.48 90.4053 59.576 90.384C59.6827 90.3627 59.7787 90.336 59.864 90.304L60.088 91.84C59.8853 91.9467 59.656 92.0267 59.4 92.08C59.144 92.1333 58.872 92.16 58.584 92.16ZM64.7543 92.208C63.5383 92.208 62.6156 91.9413 61.9863 91.408C61.3676 90.864 61.0583 90.0853 61.0583 89.072V88.448C61.0583 88.0107 61.1063 87.648 61.2023 87.36C61.3089 87.072 61.4476 86.8107 61.6183 86.576C61.7889 86.3413 61.9276 86.1333 62.0343 85.952C62.1516 85.76 62.2103 85.5627 62.2103 85.36C62.2103 85.168 62.1623 85.0347 62.0663 84.96C61.9809 84.8747 61.8636 84.832 61.7143 84.832C61.6076 84.832 61.4956 84.848 61.3783 84.88C61.2716 84.912 61.1489 84.96 61.0103 85.024L60.6263 83.52C60.9249 83.36 61.2449 83.2533 61.5863 83.2C61.9383 83.136 62.2476 83.104 62.5143 83.104C62.9836 83.104 63.3569 83.1787 63.6343 83.328C63.9223 83.4773 64.1303 83.6907 64.2583 83.968C64.3863 84.2453 64.4503 84.576 64.4503 84.96C64.4503 85.2907 64.4023 85.584 64.3063 85.84C64.2103 86.0853 64.0876 86.3413 63.9383 86.608C63.7996 86.8533 63.6769 87.0827 63.5703 87.296C63.4743 87.5093 63.4263 87.8187 63.4263 88.224V88.832C63.4263 89.184 63.4743 89.472 63.5703 89.696C63.6769 89.92 63.8316 90.0853 64.0343 90.192C64.2369 90.288 64.4769 90.336 64.7543 90.336C65.2129 90.336 65.5383 90.2133 65.7303 89.968C65.9329 89.712 66.0343 89.3707 66.0343 88.944V87.392C66.0343 87.072 65.9596 86.8213 65.8103 86.64C65.6716 86.448 65.4316 86.352 65.0903 86.352H65.0103V85.088H65.1063C65.4369 85.088 65.6823 84.9973 65.8423 84.816C66.0023 84.6347 66.1036 84.4053 66.1463 84.128C66.1996 83.84 66.2263 83.5413 66.2263 83.232H68.6103C68.6103 83.8827 68.5249 84.4213 68.3542 84.848C68.1836 85.2747 67.8849 85.5627 67.4583 85.712V85.776C67.7143 85.8507 67.9116 85.968 68.0503 86.128C68.1889 86.2773 68.2849 86.4587 68.3383 86.672C68.3916 86.8853 68.4183 87.12 68.4183 87.376V89.008C68.4183 90.064 68.1089 90.864 67.4903 91.408C66.8716 91.9413 65.9596 92.208 64.7543 92.208ZM63.7946 82.032V81.232C63.944 81.1893 64.1093 81.1307 64.2906 81.056C64.472 80.9813 64.632 80.88 64.7706 80.752C64.9093 80.624 64.9786 80.464 64.9786 80.272C64.9786 80.1227 64.936 80.0053 64.8506 79.92C64.7653 79.8347 64.6586 79.792 64.5306 79.792C64.4453 79.792 64.3546 79.808 64.2586 79.84C64.1626 79.872 64.0773 79.904 64.0026 79.936L63.6986 78.864C63.912 78.6827 64.1786 78.5653 64.4986 78.512C64.808 78.448 65.0693 78.416 65.2826 78.416C65.7626 78.416 66.1413 78.528 66.4186 78.752C66.6853 78.976 66.8186 79.3067 66.8186 79.744C66.8186 79.9787 66.76 80.1973 66.6426 80.4C66.5146 80.6027 66.3226 80.768 66.0666 80.896L66.0026 80.48H69.0266V82.032H63.7946ZM96.9474 92.1591C96.099 92.1591 95.3433 92.0133 94.6804 91.7216C94.0213 91.4261 93.5005 91.0208 93.1179 90.5057C92.7391 89.9867 92.544 89.3883 92.5327 88.7102H95.0099C95.0251 88.9943 95.1179 89.2443 95.2884 89.4602C95.4626 89.6723 95.6937 89.8371 95.9815 89.9545C96.2694 90.072 96.5933 90.1307 96.9531 90.1307C97.3281 90.1307 97.6596 90.0644 97.9474 89.9318C98.2353 89.7992 98.4607 89.6155 98.6236 89.3807C98.7865 89.1458 98.8679 88.875 98.8679 88.5682C98.8679 88.2576 98.7808 87.983 98.6065 87.7443C98.4361 87.5019 98.1899 87.3125 97.8679 87.1761C97.5497 87.0398 97.1709 86.9716 96.7315 86.9716H95.6463V85.1648H96.7315C97.1027 85.1648 97.4304 85.1004 97.7145 84.9716C98.0024 84.8428 98.2259 84.6648 98.3849 84.4375C98.544 84.2064 98.6236 83.9375 98.6236 83.6307C98.6236 83.339 98.5535 83.0833 98.4134 82.8636C98.277 82.6402 98.0838 82.4659 97.8338 82.3409C97.5876 82.2159 97.2997 82.1534 96.9702 82.1534C96.6368 82.1534 96.3319 82.214 96.0554 82.3352C95.7789 82.4527 95.5573 82.6212 95.3906 82.8409C95.224 83.0606 95.1349 83.3182 95.1236 83.6136H92.7656C92.777 82.9432 92.9683 82.3523 93.3395 81.8409C93.7107 81.3295 94.2107 80.9299 94.8395 80.642C95.4721 80.3504 96.1861 80.2045 96.9815 80.2045C97.7846 80.2045 98.4872 80.3504 99.0895 80.642C99.6918 80.9337 100.16 81.3277 100.493 81.8239C100.83 82.3163 100.997 82.8693 100.993 83.483C100.997 84.1345 100.794 84.678 100.385 85.1136C99.9796 85.5492 99.4512 85.8258 98.7997 85.9432V86.0341C99.6558 86.1439 100.307 86.4413 100.754 86.9261C101.205 87.4072 101.429 88.0095 101.425 88.733C101.429 89.3958 101.237 89.9848 100.851 90.5C100.468 91.0152 99.9399 91.4205 99.2656 91.7159C98.5914 92.0114 97.8187 92.1591 96.9474 92.1591ZM107.756 92.2557C106.778 92.2519 105.938 92.0114 105.233 91.5341C104.532 91.0568 103.992 90.3655 103.614 89.4602C103.239 88.5549 103.053 87.4659 103.057 86.1932C103.057 84.9242 103.244 83.8428 103.619 82.9489C103.998 82.0549 104.538 81.375 105.239 80.9091C105.943 80.4394 106.782 80.2045 107.756 80.2045C108.729 80.2045 109.566 80.4394 110.267 80.9091C110.972 81.3788 111.513 82.0606 111.892 82.9545C112.271 83.8447 112.458 84.9242 112.455 86.1932C112.455 87.4697 112.265 88.5606 111.886 89.4659C111.511 90.3712 110.973 91.0625 110.273 91.5398C109.572 92.017 108.733 92.2557 107.756 92.2557ZM107.756 90.2159C108.422 90.2159 108.955 89.8807 109.352 89.2102C109.75 88.5398 109.947 87.5341 109.943 86.1932C109.943 85.3106 109.852 84.5758 109.67 83.9886C109.492 83.4015 109.239 82.9602 108.909 82.6648C108.583 82.3693 108.199 82.2216 107.756 82.2216C107.093 82.2216 106.563 82.553 106.165 83.2159C105.767 83.8788 105.566 84.8712 105.562 86.1932C105.562 87.0871 105.652 87.8333 105.83 88.4318C106.011 89.0265 106.267 89.4735 106.597 89.7727C106.926 90.0682 107.312 90.2159 107.756 90.2159ZM124.256 92.16C123.776 92.16 123.371 92.0853 123.04 91.936C122.709 91.7867 122.459 91.5627 122.288 91.264C122.117 90.9547 122.032 90.5707 122.032 90.112V83.232H124.432V89.824C124.432 90.0267 124.475 90.176 124.56 90.272C124.656 90.368 124.8 90.416 124.992 90.416C125.077 90.416 125.168 90.4053 125.264 90.384C125.36 90.3627 125.451 90.336 125.536 90.304L125.76 91.84C125.557 91.9467 125.328 92.0267 125.072 92.08C124.816 92.1333 124.544 92.16 124.256 92.16ZM127.922 92L126.402 83.232H128.738L129.17 86.32C129.202 86.576 129.24 86.928 129.282 87.376C129.336 87.8133 129.384 88.3253 129.426 88.912H129.474C129.57 88.5173 129.656 88.16 129.73 87.84C129.805 87.5093 129.874 87.216 129.938 86.96C130.013 86.6933 130.077 86.464 130.13 86.272L130.994 83.232H132.45L133.314 86.272C133.368 86.464 133.426 86.6933 133.49 86.96C133.565 87.216 133.64 87.5093 133.714 87.84C133.8 88.16 133.885 88.5173 133.97 88.912H134.018C134.072 88.3253 134.114 87.8133 134.146 87.376C134.189 86.928 134.232 86.576 134.274 86.32L134.722 83.232H137.042L135.538 92H133.186L132.178 88.432C132.072 88.016 131.986 87.6373 131.922 87.296C131.869 86.944 131.816 86.5867 131.762 86.224H131.698C131.656 86.4693 131.613 86.704 131.57 86.928C131.538 87.152 131.496 87.3867 131.442 87.632C131.389 87.8667 131.32 88.1333 131.234 88.432L130.21 92H127.922ZM129.096 82.016V81.008L130.712 80.336H136.424V82.016H129.096ZM132.456 81.04V79.232H133.976V81.04H132.456ZM134.92 81.04V79.232H136.424V81.04H134.92ZM133.563 78.384V75.408H135.643V78.384H133.563ZM142.139 92.208C140.838 92.208 139.873 91.8933 139.243 91.264C138.614 90.624 138.299 89.68 138.299 88.432C138.299 88.2187 138.305 87.9627 138.315 87.664C138.337 87.3547 138.363 87.0827 138.395 86.848H142.235V88.368H140.651V88.592C140.651 89.0187 140.705 89.3707 140.811 89.648C140.918 89.9147 141.078 90.112 141.291 90.24C141.515 90.368 141.793 90.432 142.123 90.432C142.486 90.432 142.79 90.352 143.035 90.192C143.291 90.032 143.483 89.76 143.611 89.376C143.75 88.992 143.819 88.464 143.819 87.792C143.819 87.1627 143.745 86.64 143.595 86.224C143.457 85.7973 143.217 85.4773 142.875 85.264C142.545 85.0507 142.086 84.944 141.499 84.944C141.179 84.944 140.849 84.9813 140.507 85.056C140.166 85.12 139.841 85.2053 139.531 85.312C139.233 85.4187 138.971 85.536 138.747 85.664V83.664C138.982 83.536 139.27 83.424 139.611 83.328C139.963 83.232 140.342 83.1573 140.747 83.104C141.153 83.0507 141.553 83.024 141.947 83.024C142.982 83.024 143.814 83.216 144.443 83.6C145.083 83.9733 145.547 84.5067 145.835 85.2C146.134 85.8933 146.283 86.7147 146.283 87.664C146.283 88.6347 146.139 89.4613 145.851 90.144C145.574 90.816 145.131 91.328 144.523 91.68C143.915 92.032 143.121 92.208 142.139 92.208ZM153.128 92V86.304C153.128 85.792 152.989 85.424 152.712 85.2C152.434 84.976 152.008 84.864 151.432 84.864C150.877 84.864 150.333 84.9493 149.8 85.12C149.277 85.28 148.824 85.472 148.44 85.696V83.712C148.749 83.5627 149.186 83.4133 149.752 83.264C150.317 83.104 150.968 83.024 151.704 83.024C152.269 83.024 152.776 83.0933 153.224 83.232C153.682 83.3707 154.013 83.6427 154.216 84.048C154.664 84.1867 154.984 84.4587 155.176 84.864C155.378 85.2587 155.48 85.7707 155.48 86.4V92H153.128ZM150.504 92.16C149.586 92.16 148.877 91.9413 148.376 91.504C147.885 91.0667 147.64 90.4533 147.64 89.664C147.64 88.8107 147.944 88.128 148.552 87.616C149.17 87.104 150.141 86.7947 151.464 86.688L153.512 86.528V88.256L151.736 88.432C151.096 88.496 150.648 88.624 150.392 88.816C150.146 89.008 150.024 89.264 150.024 89.584C150.024 89.904 150.125 90.144 150.328 90.304C150.541 90.464 150.813 90.544 151.144 90.544C151.272 90.544 151.4 90.5333 151.528 90.512C151.656 90.48 151.773 90.448 151.88 90.416L152.088 91.92C151.885 91.9947 151.645 92.0533 151.368 92.096C151.09 92.1387 150.802 92.16 150.504 92.16ZM154.168 84.976L152.856 83.872C153.229 83.744 153.522 83.584 153.736 83.392C153.949 83.1893 154.061 82.944 154.072 82.656H156.168C156.168 82.9867 156.098 83.3067 155.96 83.616C155.832 83.9147 155.618 84.1813 155.32 84.416C155.032 84.6507 154.648 84.8373 154.168 84.976ZM153.438 96.176V94.752C153.438 94.4853 153.321 94.352 153.086 94.352C153.033 94.352 152.979 94.3573 152.926 94.368C152.873 94.3787 152.819 94.3947 152.766 94.416L152.654 93.264C152.803 93.2107 153.011 93.1573 153.278 93.104C153.534 93.0507 153.795 93.024 154.062 93.024C154.585 93.024 154.953 93.1253 155.166 93.328C155.379 93.5413 155.486 93.8293 155.486 94.192V96.176H153.438ZM153.182 82.016V78.384H155.39V82.016H153.182ZM162.929 92.16C162.171 92.16 161.558 92.016 161.089 91.728C160.63 91.44 160.305 91.072 160.113 90.624H159.985L159.729 92H157.905V83.232H160.305V87.424C160.305 88.032 160.374 88.5333 160.513 88.928C160.651 89.312 160.854 89.6 161.121 89.792C161.387 89.984 161.707 90.08 162.081 90.08C162.529 90.08 162.87 89.9467 163.105 89.68C163.339 89.4133 163.457 88.9867 163.457 88.4V83.232H165.857V88.928C165.857 89.6213 165.745 90.208 165.521 90.688C165.307 91.168 164.982 91.536 164.545 91.792C164.107 92.0373 163.569 92.16 162.929 92.16Z" fill="#F6F8FC"/>
<path d="M75 83.0573V90.3513L81.3149 94.0002V79.4121L75 83.0573Z" fill="#6D2AA6"/>
<path d="M87.6298 83.0573L81.3149 79.4121V94.0002L87.6298 90.3513V83.0573Z" fill="#843AD9"/>
<g style="mix-blend-mode:multiply">
<path d="M75 90.0908V90.3512L81.3149 94L87.6298 90.3512V90.0908L81.3149 93.7397L75 90.0908Z" fill="#CEAFE6"/>
</g>
<path d="M75 81.8581V89.1521L81.3149 92.7973V78.2129L75 81.8581Z" fill="#843AD9"/>
<path d="M87.6298 81.8581L81.3149 78.2129V92.7973L87.6298 89.1521V81.8581Z" fill="#9B43FF"/>
<path d="M81.3149 85.294L87.6298 81.6452L81.3149 78V85.294Z" fill="#EB95FF"/>
<path d="M81.3149 78L75 81.6452L81.3149 85.294V78Z" fill="#8935D4"/>
<path d="M75 88.9391L81.3149 92.588V85.2939L75 88.9391Z" fill="#7B35C7"/>
<path d="M81.3149 85.2939V92.588L87.6298 88.9391L81.3149 85.2939Z" fill="#843AD9"/>
<path d="M81.3149 85.2939L75 81.645V88.9391L81.3149 85.2939Z" fill="#6D2AA6"/>
<path d="M81.3149 85.2939L87.6298 88.9391V81.645L81.3149 85.2939Z" fill="#9B43FF"/>
<path d="M77.2959 82.9727L81.3151 80.6514L85.3344 82.9727V87.6153L81.3151 89.9367L77.2959 87.6153V82.9727Z" fill="#BB59FF"/>
<g opacity="0.3">
<path d="M82.0117 81.0548L81.3149 80.6514L79.0156 81.9789L85.2168 87.685L85.3342 87.6153V84.1132L82.0117 81.0548Z" fill="#EB95FF"/>
<path d="M77.2959 84.6411V87.6152L81.3151 89.9365L82.3823 89.3204L77.2959 84.6411Z" fill="#EB95FF"/>
</g>
</g>
<defs>
<filter id="filter0_d_2040_18950" x="39" y="68" width="145" height="37" filterUnits="userSpaceOnUse" color-interpolation-filters="sRGB">
<feFlood flood-opacity="0" result="BackgroundImageFix"/>
<feColorMatrix in="SourceAlpha" type="matrix" values="0 0 0 0 0 0 0 0 0 0 0 0 0 0 0 0 0 0 127 0" result="hardAlpha"/>
<feOffset dy="2"/>
<feComposite in2="hardAlpha" operator="out"/>
<feColorMatrix type="matrix" values="0 0 0 0 0 0 0 0 0 0 0 0 0 0 0 0 0 0 0.15 0"/>
<feBlend mode="normal" in2="BackgroundImageFix" result="effect1_dropShadow_2040_18950"/>
<feBlend mode="normal" in="SourceGraphic" in2="effect1_dropShadow_2040_18950" result="shape"/>
</filter>
</defs>
</svg>
