<svg width="20" height="24" viewBox="0 0 20 24" fill="none" xmlns="http://www.w3.org/2000/svg">
<g clip-path="url(#clip0_2533_7122)">
<path d="M9.96818 0.0664062C13.0526 0.0664062 16.1371 0.0664062 19.2216 0.0664062C19.1748 0.41051 19.1256 0.754614 19.0819 1.09934C19.0121 1.65103 18.9473 2.20396 18.8781 2.75628C18.807 3.32355 18.7316 3.8902 18.6612 4.45747C18.5926 5.00978 18.5284 5.56209 18.4598 6.11441C18.3881 6.68916 18.3127 7.26391 18.2404 7.83867C18.1706 8.39035 18.1032 8.94267 18.034 9.49498C17.963 10.0623 17.89 10.6295 17.8196 11.1968C17.751 11.7491 17.685 12.3014 17.6158 12.8537C17.5447 13.421 17.4699 13.9877 17.3995 14.5549C17.3309 15.1072 17.2667 15.6595 17.1975 16.2119C17.1108 16.9019 17.0186 17.5908 16.9325 18.2808C16.864 18.8332 16.8029 19.3861 16.7343 19.9384C16.662 20.5213 16.5916 21.1035 16.5086 21.6845C16.465 21.9881 16.4594 22.2973 16.374 22.594C14.2389 22.594 12.1045 22.5946 9.96942 22.5952L9.96693 22.5927C9.96693 21.6589 9.96755 20.7257 9.96818 19.7919C9.96818 19.7826 9.96755 19.7738 9.96631 19.7645C9.98937 19.7695 10.0118 19.7782 10.0349 19.7782C11.7485 19.7794 13.4622 19.7788 15.1759 19.7838C15.3167 19.7838 15.3355 19.7202 15.3498 19.6024C15.4583 18.6917 15.5748 17.7821 15.6889 16.872C15.8236 15.8004 15.9582 14.7282 16.0929 13.6566C16.2256 12.6 16.3584 11.544 16.4906 10.4874C16.5579 9.95004 16.624 9.41269 16.6925 8.85726C16.4008 8.94454 16.1359 9.03119 15.8672 9.1035C14.4459 9.48812 13.0302 9.52552 11.6195 9.04178C11.0479 8.84542 10.5348 8.53809 10.0137 8.24324C9.9794 8.21519 9.94511 8.18776 9.91083 8.1597C10.0081 8.08116 9.96693 7.97207 9.96693 7.87669C9.96942 5.27347 9.9688 2.67025 9.9688 0.0670296L9.96818 0.0664062Z" fill="#EBE5F1"/>
<path d="M3.56485 22.594C3.47383 22.2985 3.47134 21.9893 3.4277 21.6864C3.34417 21.106 3.27498 20.5238 3.20267 19.9415C3.13472 19.3973 3.07176 18.8531 3.00443 18.3089C2.93274 17.7348 2.85731 17.1606 2.78563 16.5865C2.71706 16.0348 2.65222 15.4825 2.58365 14.9314C2.51321 14.3648 2.43965 13.7981 2.36859 13.2315C2.29939 12.6798 2.23269 12.1281 2.1635 11.5764C2.09119 11.0023 2.01576 10.4282 1.94407 9.85404C1.8755 9.30235 1.81129 8.75004 1.74272 8.19835C1.67228 7.6317 1.59809 7.06568 1.52703 6.49903C1.45783 5.94734 1.39176 5.39565 1.32256 4.84396C1.25025 4.26983 1.1742 3.69633 1.10251 3.12157C1.03394 2.56989 0.970977 2.01758 0.901783 1.46589C0.843185 0.998978 0.777731 0.532692 0.715393 0.0664062C3.79986 0.0664062 6.88433 0.0664062 9.9688 0.0664062C9.9688 2.66963 9.9688 5.27285 9.96693 7.87607C9.96693 7.97144 10.0081 8.08116 9.91082 8.15908C9.36537 7.89539 8.82116 7.63108 8.23955 7.44968C6.59134 6.93539 4.92256 6.91856 3.23757 7.2209C3.09918 7.24583 3.0356 7.29321 3.05991 7.4503C3.12537 7.87233 3.17835 8.2956 3.23196 8.7195C3.45077 10.46 3.66833 12.2011 3.88589 13.9421C4.1209 15.8216 4.35778 17.7011 4.58469 19.5812C4.60402 19.7427 4.65202 19.7875 4.80911 19.7857C5.43934 19.7776 6.0702 19.7813 6.70043 19.7826C7.79009 19.7851 8.87913 19.7888 9.9688 19.7919C9.9688 20.7257 9.96817 21.6589 9.96755 22.5927C7.83373 22.5927 5.69991 22.5934 3.56547 22.594H3.56485Z" fill="#FEF4F4"/>
<path d="M3.56488 22.594C5.6987 22.594 7.83252 22.5934 9.96696 22.5928L9.96945 22.5953C9.96945 23.0622 9.96883 23.5291 9.96821 23.996H3.70576C3.69018 23.5253 3.56052 23.0665 3.5655 22.594H3.56488Z" fill="#EBE5F1"/>
<path d="M9.9682 23.9957C9.9682 23.5288 9.96882 23.0619 9.96945 22.595C12.1045 22.595 14.239 22.5944 16.374 22.5938C16.3728 23.0656 16.2481 23.5251 16.2313 23.9957H9.96882H9.9682Z" fill="#CECEE5"/>
<path d="M9.96816 19.7919C8.8785 19.7887 7.78946 19.785 6.6998 19.7825C6.06956 19.7813 5.43871 19.7775 4.80847 19.7856C4.65076 19.7875 4.60338 19.742 4.58406 19.5812C4.35715 17.7004 4.12026 15.8216 3.88525 13.9421C3.66769 12.201 3.45013 10.4605 3.23133 8.71945C3.17834 8.29618 3.12473 7.87228 3.05928 7.45025C3.03497 7.29379 3.09855 7.24579 3.23694 7.22085C4.92193 6.91914 6.59071 6.93597 8.23891 7.44963C8.82052 7.63103 9.36473 7.89535 9.91019 8.15903C9.94447 8.18709 9.97876 8.21451 10.013 8.24257C9.93325 8.32921 9.97065 8.43581 9.97065 8.53306C9.96816 12.2771 9.96754 16.0204 9.96691 19.7644C9.96816 19.7732 9.96878 19.7825 9.96878 19.7919H9.96816ZM5.76037 11.981C5.76037 12.1892 5.76785 12.3606 5.75787 12.5308C5.74915 12.6791 5.7959 12.7396 5.95361 12.7346C6.29522 12.7246 6.63746 12.7259 6.97907 12.7346C7.12369 12.7384 7.16795 12.6854 7.16484 12.5451C7.15735 12.2035 7.15548 11.8613 7.16546 11.519C7.17045 11.357 7.10187 11.3196 6.95787 11.3277C6.78707 11.337 6.61564 11.3245 6.44484 11.3308C6.22915 11.3389 5.95299 11.2391 5.81273 11.3694C5.65751 11.5134 5.78904 11.7971 5.75974 11.981H5.76037ZM7.84182 15.5373C8.02821 15.5373 8.21522 15.533 8.40161 15.5386C8.51943 15.5423 8.5693 15.5005 8.56743 15.3777C8.56245 15.0205 8.56369 14.6627 8.56743 14.3055C8.56868 14.1933 8.54125 14.1322 8.41221 14.1341C8.04691 14.1391 7.68161 14.1378 7.31632 14.1347C7.20909 14.1341 7.16109 14.1721 7.16234 14.2837C7.16546 14.649 7.16671 15.0143 7.16172 15.3796C7.15985 15.5043 7.21221 15.5429 7.32941 15.5398C7.50021 15.5342 7.67102 15.5386 7.84245 15.5386L7.84182 15.5373Z" fill="#5ECAF0"/>
<path d="M9.96632 19.765C9.96632 16.021 9.96694 12.2777 9.97006 8.53366C9.97006 8.43703 9.93266 8.33044 10.0125 8.24316C10.5336 8.53802 11.0466 8.84535 11.6183 9.04171C13.029 9.52545 14.4447 9.48867 15.866 9.10342C16.1346 9.03049 16.3996 8.94446 16.6913 8.85719C16.6227 9.41262 16.5567 9.94997 16.4893 10.4873C16.3572 11.5439 16.2244 12.6006 16.0916 13.6566C15.957 14.7282 15.8223 15.8004 15.6877 16.8719C15.5736 17.7821 15.4576 18.6916 15.3486 19.6023C15.3342 19.7202 15.3155 19.7844 15.1746 19.7837C13.461 19.7787 11.7473 19.7794 10.0336 19.7781C10.0106 19.7781 9.98814 19.7694 9.96507 19.7644L9.96632 19.765Z" fill="#4793FE"/>
<path d="M5.76041 11.9808C5.78971 11.7969 5.65818 11.5133 5.8134 11.3693C5.95428 11.239 6.22981 11.3388 6.4455 11.3307C6.61631 11.3244 6.78774 11.3363 6.95854 11.3275C7.10254 11.3201 7.17111 11.3568 7.16612 11.5189C7.15553 11.8605 7.15802 12.2028 7.1655 12.545C7.16862 12.6853 7.12374 12.7382 6.97974 12.7345C6.63813 12.7264 6.29589 12.7252 5.95428 12.7345C5.79657 12.7389 5.74981 12.679 5.75854 12.5307C5.76851 12.3605 5.76103 12.1891 5.76103 11.9808H5.76041Z" fill="#4793FE"/>
<path d="M7.84182 15.5373C7.67102 15.5373 7.49959 15.5336 7.32878 15.5386C7.21221 15.5423 7.15985 15.503 7.16109 15.3784C7.16608 15.0131 7.16483 14.6478 7.16172 14.2825C7.16047 14.1709 7.20847 14.1329 7.31569 14.1335C7.68099 14.1366 8.04629 14.1378 8.41159 14.1329C8.54 14.131 8.56805 14.1927 8.56681 14.3043C8.56307 14.6615 8.56182 15.0193 8.56681 15.3765C8.56868 15.4999 8.51881 15.5411 8.40099 15.5373C8.2146 15.5317 8.02821 15.5361 7.8412 15.5361L7.84182 15.5373Z" fill="#4793FE"/>
</g>
<defs>
<clipPath id="clip0_2533_7122">
<rect width="18.7059" height="24" fill="white" transform="translate(0.647034)"/>
</clipPath>
</defs>
</svg>
