<svg width="98" height="92" viewBox="0 0 98 92" fill="none" xmlns="http://www.w3.org/2000/svg">
<path d="M96.1773 46.0029C96.1773 54.8063 93.7032 63.0337 89.4132 70.027C83.8244 79.13 75.1621 86.135 64.8661 89.6023C61.7691 90.6484 58.5193 91.3712 55.1578 91.7297C53.524 91.9118 51.8609 92 50.1743 92C33.5667 92 19.016 83.2026 10.9296 70.0152C6.63961 63.0219 4.17139 54.8004 4.17139 46.0029C4.17139 20.592 24.7693 0 50.1743 0C75.5794 0 96.1773 20.592 96.1773 46.0029Z" fill="#F3F8FF"/>
<path d="M89.4132 70.027C83.8245 79.13 75.1622 86.1351 64.8662 89.6023C64.1551 89.714 63.4734 89.8315 62.8211 89.949C59.536 90.5426 57.1207 91.1655 55.1579 91.7297C53.5241 91.9119 51.861 92 50.1744 92C33.5668 92 19.016 83.2026 10.9297 70.0152C13.0982 69.7743 16.1365 69.5921 19.7389 69.9036C31.8978 70.9496 36.2054 76.3327 45.285 76.6677C52.3547 76.9321 52.5603 73.7763 63.0091 70.9026C69.1151 69.2277 78.1241 67.8114 89.4132 70.027Z" fill="#91D0AD"/>
<path d="M76.8781 69.9035C76.8429 69.6919 76.6783 68.9044 75.9555 68.2991C75.2033 67.6703 74.3629 67.6644 74.1572 67.6644C74.2336 67.5822 75.0329 66.7359 76.2493 66.8887C77.36 67.0239 77.9242 67.8878 78.0006 68.0053C78.0359 67.7585 78.1475 66.8241 77.5657 65.9132C76.837 64.779 75.6147 64.5792 75.4266 64.5498C75.6382 64.4616 76.9017 63.9739 78.2474 64.5968C79.9223 65.3784 80.222 67.1767 80.2396 67.3177C80.2455 67.2531 80.4394 65.9073 81.5501 65.4195C82.5668 64.9729 83.9126 65.4254 84.5884 66.589C84.465 66.5772 82.8078 66.4656 81.8146 67.7585C81.1505 68.6223 81.1858 69.5802 81.2093 69.8506C79.7695 69.8682 78.3238 69.8858 76.884 69.8976L76.8781 69.9035Z" fill="#16A34A"/>
<path d="M33.1848 88.6269C33.414 87.716 33.0496 86.7522 32.2739 86.2292C31.5335 85.7297 30.552 85.7297 29.7939 86.2292C29.9761 85.9001 30.6108 84.8658 31.7744 84.5779C33.3141 84.1959 35.2182 85.2537 36.0703 87.3047C36.2642 86.7405 36.5345 85.6886 36.3171 84.4133C35.9234 82.1096 34.2426 80.8226 33.8371 80.5288C34.1368 80.617 37.4983 81.6689 38.4621 84.907C38.9499 86.5466 38.5914 87.9805 38.3798 88.6269H33.1731H33.1848Z" fill="#16A34A"/>
<path d="M95.8948 39.9264C96.6117 39.4093 97.2817 38.7628 97.6695 37.9283C98.0633 37.0879 98.1397 36.036 97.7048 35.2192C97.1935 34.2554 96.0946 33.8381 95.0779 33.8381C94.0612 33.8381 93.0681 34.1731 92.069 34.3553C91.0641 34.5375 89.971 34.5551 89.1013 33.9733C88.0023 33.2446 87.5381 31.7578 87.3618 30.365C87.1855 28.9722 87.2207 27.5207 86.7623 26.2101C85.9102 23.7419 83.2187 22.2434 80.8974 22.9368C80.1216 23.1719 79.3694 23.642 78.9404 24.3942C78.5114 25.1406 78.4703 26.1925 78.9816 26.8801C79.2754 27.2797 79.7279 27.5324 79.9806 27.9732C80.4155 28.7195 80.1099 29.742 79.5575 30.3885C79.0051 31.0349 78.2587 31.4169 77.6005 31.9223C76.9423 32.4277 76.3253 33.1505 76.2842 34.0321C76.2136 35.5189 77.7063 36.4885 78.2117 37.8696C78.7347 39.2976 78.1118 40.9254 78.2999 42.4534C78.4585 43.7639 79.2519 44.9627 80.345 45.5269C81.7142 46.238 82.9013 45.8619 84.0179 44.9627C85.158 44.0519 86.4979 43.4936 87.8437 43.0352C90.5528 42.1184 93.4794 41.6659 95.8948 39.9264Z" fill="#DAE9FE"/>
<path d="M77.9418 19.2932C80.3748 17.254 83.0134 15.1854 84.1947 12.0883C84.5825 11.0717 84.7706 9.84344 84.2299 8.92079C83.7128 8.03928 82.6667 7.69843 81.7147 7.73957C80.7627 7.78071 79.84 8.12156 78.8998 8.30961C77.9595 8.49179 76.9252 8.49767 76.1259 7.92175C75.4619 7.43986 75.0623 6.63475 74.5216 5.98831C73.5284 4.78358 72.0005 4.14302 70.5254 4.30169C69.0504 4.46624 67.6693 5.43002 66.9112 6.8228C65.5302 9.36742 66.3236 12.582 66.3177 15.5439C66.3118 19.4577 64.8309 23.4833 66.0004 27.1856C66.2942 28.1141 66.7585 28.9957 67.4519 29.6127C68.1454 30.2356 69.0798 30.5647 69.9554 30.3591C70.9721 30.1181 71.8771 29.1367 72.3296 28.1318C72.7468 27.2091 72.6058 26.1807 72.9995 25.2228C73.9986 22.7605 76.0378 20.9034 77.9477 19.3049L77.9418 19.2932Z" fill="#DAE9FE"/>
<path d="M54.8286 23.0193C54.1821 22.5139 53.3006 22.555 52.5954 22.1671C51.6845 21.6617 51.2144 20.5452 50.4974 19.7459C48.8872 17.9653 46.2897 18.0241 44.0037 18.2004C42.5815 18.312 40.9948 18.5059 40.0722 19.7048C39.3611 20.6216 39.2318 21.9086 39.1319 23.1074C39.0261 24.4179 38.9556 25.8636 39.6784 26.9097C40.5012 28.1026 42.0173 28.3318 43.3749 28.467C45.2084 28.6492 47.0478 28.8313 48.8814 29.0194C50.092 29.1428 51.6199 29.5542 52.8011 29.0488C53.7296 28.655 54.5406 27.5326 55.0578 26.6393C55.4163 26.0164 55.6455 25.3347 55.5808 24.5883C55.5338 24.083 54.8345 23.2955 54.8345 23.0134L54.8286 23.0193Z" fill="#DAE9FE"/>
<path d="M57.279 6.77578C58.3956 5.49465 60.1762 4.96575 61.7277 5.45351C62.427 5.67095 63.1204 6.14109 63.3673 6.89331C63.6376 7.71017 63.3026 8.61519 62.9089 9.36741C61.8981 11.2891 60.3701 13.0815 60.3584 15.297C60.3584 15.8847 60.4348 16.5664 60.041 16.9719C59.7766 17.2481 59.377 17.2892 59.0126 17.2481C57.9783 17.1423 56.9969 16.4724 56.4504 15.5027C55.7393 14.2333 55.9685 12.7406 56.0331 11.3302C56.1095 9.63186 56.133 8.09216 57.2731 6.78165L57.279 6.77578Z" fill="#DAE9FE"/>
<path d="M50.6443 5.90014C48.5757 5.52991 46.3308 5.85313 44.6442 7.21065C43.557 8.08628 42.7107 9.58485 43.0927 11.0011C43.316 11.8356 43.9213 12.4762 44.4973 13.0756C45.9312 14.5565 47.371 16.0434 48.9459 17.3539C49.9391 18.1825 51.0498 18.9641 52.2898 19.0405C53.5592 19.1228 55.0048 18.2119 55.0753 16.7015C55.1517 15.1677 54.0763 13.7984 54.1645 12.1588C54.3172 9.11471 53.8765 6.48194 50.6384 5.90014H50.6443Z" fill="#DAE9FE"/>
<path d="M86.0692 53.5838C87.2622 53.5133 88.4786 53.1372 89.3954 52.2968C90.4297 51.3506 90.9939 49.905 92.0047 48.9294C93.562 47.4309 95.9479 47.2252 97.3584 45.5621C97.8344 44.9979 98.1693 44.1458 97.8285 43.4758C97.4524 42.7471 96.5356 42.6825 95.7775 42.7001C93.7148 42.7589 91.6168 42.8235 89.6481 43.5111C88.079 44.0576 86.6451 44.9803 85.2288 45.897C83.5892 46.9549 81.9143 48.0538 80.7214 49.6758C80.1513 50.4515 79.6988 51.5446 80.1396 52.4143C80.6332 53.384 81.6969 53.3722 82.5667 53.3722C83.7302 53.3664 84.8938 53.6543 86.0692 53.5838Z" fill="#DAE9FE"/>
<path d="M67.0523 71.0966H74.9153C74.6626 69.8096 74.4334 68.5167 74.216 67.2238C73.9633 65.7546 73.7282 64.2796 73.5166 62.7986C73.2404 60.9592 72.9995 59.1081 72.7762 57.2569C72.6763 56.4341 72.5822 55.6114 72.4941 54.7887C72.1356 51.4154 71.8535 48.0246 71.6655 44.6278C71.642 44.2517 71.6243 43.8874 71.6008 43.5112C71.4422 40.4554 71.354 37.3877 71.3364 34.3201C71.3188 32.7216 71.3246 31.1231 71.3481 29.5247C71.3893 27.0976 71.4716 24.6705 71.6008 22.2434C71.6537 21.1797 71.7184 20.1102 71.7889 19.0465C72.0592 15.0268 72.4412 11.0071 72.9407 6.99333C72.9819 6.66423 72.7703 6.36452 72.4765 6.31751C72.2003 6.27637 71.9358 6.4703 71.8712 6.75826C70.1023 14.3451 68.7506 22.0789 67.8397 29.8949C67.6693 31.3229 67.5165 32.7569 67.3814 34.1908C67.3696 34.3494 67.352 34.5081 67.3402 34.6727C67.3285 34.8313 67.3108 34.9841 67.2991 35.1428C67.2168 36.0243 67.1404 36.9058 67.0758 37.7932C66.9582 39.2976 66.8525 40.8021 66.7702 42.3124C66.7467 42.712 66.7232 43.1058 66.7055 43.5112C66.6409 44.7689 66.588 46.0324 66.5469 47.29C66.2707 55.2 66.4528 63.163 67.0699 71.1024L67.0523 71.0966Z" fill="#E6F1FC"/>
<path d="M48.2935 10.2022C50.7735 12.5705 53.0596 15.168 55.0988 17.9653C57.138 20.7567 58.9245 23.7597 60.4583 26.8862C62.0039 30.0126 63.2498 33.2918 64.2606 36.6474C65.2479 40.0089 65.9942 43.4467 66.4585 46.9258C66.6348 48.2363 67.7455 49.1413 68.9384 48.9473C70.1314 48.7534 70.9542 47.5369 70.7837 46.2264C70.7779 46.1618 70.7661 46.0971 70.7543 46.0384V46.0207C69.9727 42.3419 68.9032 38.7512 67.5868 35.284C66.2528 31.8285 64.6719 28.4905 62.8149 25.3582C60.9637 22.2259 58.8716 19.2758 56.5503 16.5843C54.229 13.8869 51.6903 11.4363 48.987 9.26188C48.746 9.06795 48.4052 9.12084 48.223 9.39117C48.0526 9.64387 48.0937 9.99647 48.3053 10.1963L48.2935 10.2022Z" fill="#E6F1FC"/>
<path d="M67.3755 71.0966H73.9339C73.975 69.7978 74.0632 68.505 74.2101 67.2238C74.4687 64.9613 74.9036 62.734 75.5324 60.5538C75.5735 60.4068 75.6205 60.2541 75.6675 60.1071C76.1377 58.5439 76.7077 57.0219 77.3894 55.5233C77.7949 54.6183 78.2415 53.7368 78.7176 52.8494C79.0995 52.1324 79.5168 51.4155 79.9399 50.675C80.698 49.3704 81.4855 47.9423 82.1319 46.4438C82.226 46.2381 82.3082 46.0324 82.3846 45.8208C82.461 45.6328 82.5315 45.4388 82.6079 45.2449C83.225 43.5877 83.6481 41.8188 83.8597 40.0558C83.9008 39.7561 83.9243 39.4563 83.9537 39.1625C84.036 38.1282 84.0419 37.0998 84.0125 36.0831C83.9537 35.0664 83.8773 34.0615 83.7245 33.0684C83.4424 31.082 82.9782 29.1545 82.3964 27.2857C82.3023 26.9742 81.9909 26.8038 81.697 26.9154C81.4385 27.0153 81.2916 27.3092 81.3444 27.603C82.0438 31.3465 82.2436 35.2016 81.5266 38.7688C81.1681 40.5494 80.5922 42.2066 79.7754 43.7757C79.6226 44.0813 79.458 44.381 79.2876 44.669C78.5883 45.8855 77.7655 47.0197 76.8546 48.2185C75.7263 49.6936 74.5392 51.3156 73.5049 53.0374C73.1523 53.6075 72.8173 54.1893 72.4882 54.7946C71.8477 55.9758 71.2541 57.2099 70.7135 58.4616C69.1032 62.2463 68.0278 66.3129 67.4225 70.4384V70.4678C67.3872 70.6793 67.3755 70.8909 67.3755 71.0966Z" fill="#E6F1FC"/>
<path d="M92.6336 36.236C90.2535 36.6592 87.897 37.5231 85.7167 38.8218C83.5365 40.1147 81.5266 41.8366 79.8106 43.8993L79.7989 43.9169C79.1877 44.6515 79.2347 45.7916 79.9046 46.4615C80.5746 47.1315 81.6148 47.0845 82.226 46.344C82.2906 46.2676 82.3494 46.1853 82.3964 46.1031C83.5776 44.0873 85.082 42.2538 86.8509 40.7259C88.6198 39.1979 90.6532 37.9873 92.8452 37.1646C93.0744 37.0823 93.1978 36.8061 93.1214 36.5534C93.0509 36.3301 92.8452 36.1949 92.6395 36.2302L92.6336 36.236Z" fill="#E6F1FC"/>
<path d="M44.8558 23.8595C49.0165 24.0064 53.095 25.3287 56.5328 27.6793C59.9825 30.0124 62.7798 33.3621 64.6133 37.2055C65.0306 38.087 66.0237 38.422 66.823 37.9636C67.6222 37.5052 67.9337 36.418 67.5164 35.5365C67.4929 35.4895 67.4694 35.4366 67.44 35.3896L67.4283 35.372C64.9601 31.2171 61.5104 27.8263 57.5378 25.6813C53.571 23.5127 49.1399 22.6019 44.8382 22.8957C44.5972 22.9133 44.4151 23.1366 44.4268 23.4011C44.4386 23.6479 44.6266 23.8418 44.8499 23.8477L44.8558 23.8595Z" fill="#E6F1FC"/>
<path d="M89.7835 47.6485C86.3515 48.7416 83.0018 50.2578 79.8048 52.1736C76.6079 54.0894 73.5755 56.3989 70.7723 59.0493L70.7606 59.0611C69.8438 59.925 69.738 61.447 70.5314 62.452C71.3189 63.4569 72.7058 63.5744 73.6225 62.7046C73.7224 62.6106 73.8223 62.4931 73.9046 62.3873C76.032 59.4725 78.4532 56.7692 81.1447 54.3597C83.8363 51.9561 86.7864 49.8405 89.9481 48.0951C90.0538 48.0364 90.1008 47.8894 90.048 47.7719C90.0009 47.6661 89.8893 47.6191 89.7894 47.6485H89.7835Z" fill="#E6F1FC"/>
<path d="M79.1643 12.1649C75.1681 14.6742 71.7361 18.3883 69.356 22.8605C69.1151 23.3247 69.2561 23.9124 69.6675 24.1769C70.0847 24.4413 70.6195 24.2885 70.8605 23.8301C70.8722 23.8066 70.8899 23.7772 70.9016 23.7479C72.7528 19.3462 75.697 15.4382 79.3993 12.5645C79.4992 12.4881 79.5228 12.3412 79.4522 12.2295C79.3876 12.1296 79.2642 12.1002 79.1643 12.159V12.1649Z" fill="#E6F1FC"/>
<path d="M60.0999 7.65742C58.0313 10.7721 56.7031 14.5332 56.3153 18.4588C56.2741 18.8643 56.5386 19.2228 56.9088 19.2698C57.2732 19.3109 57.6023 19.023 57.6434 18.6234C57.6434 18.5999 57.6434 18.5764 57.6434 18.5529C57.6787 14.8564 58.6189 11.1247 60.3761 7.85723C60.4231 7.76907 60.3937 7.65742 60.3173 7.60453C60.2409 7.55751 60.1469 7.58102 60.0999 7.65742Z" fill="#E6F1FC"/>
<path d="M70.7718 34.2202C69.8374 34.1261 68.903 34.2613 67.9686 34.2378C65.7825 34.1732 63.7139 33.2153 61.5806 32.6981C59.4474 32.1809 56.985 32.1986 55.3454 33.7853C54.2935 34.802 53.7587 36.3005 53.2533 37.7344C52.8243 38.9686 52.3953 40.3555 52.8713 41.5661C53.4355 43.0059 55.081 43.57 56.4973 43.4055C57.9136 43.2351 59.2299 42.524 60.6051 42.1126C62.9205 41.425 65.4475 41.6307 67.6454 42.6826C68.9735 43.3173 70.1959 44.2576 71.6004 44.622C73.0108 44.9863 74.7504 44.5632 75.3792 43.1351C76.1666 41.3369 74.7562 39.4446 74.1451 37.8285C73.4163 35.9068 72.8933 34.4435 70.7718 34.226V34.2202Z" fill="#DAE9FE"/>
<path d="M39.1613 33.6266C39.7548 33.2387 40.4718 33.1153 41.0536 32.7039C41.6471 32.2867 42.0467 31.6167 42.4287 30.9703C43.5218 29.125 44.6149 27.2621 45.3847 25.2346C45.9019 23.8712 46.278 22.4079 47.0948 21.2326C47.9646 19.9808 49.3985 19.1346 50.8207 19.3344C52.2429 19.5342 53.5122 20.974 53.4006 22.5431C53.3183 23.7478 52.5308 24.7233 51.8256 25.6519C49.8452 28.2494 48.2173 31.1701 47.0067 34.2847C46.7599 34.9136 46.5483 35.6952 46.9244 36.2417C47.1419 36.5532 47.518 36.7118 47.7119 37.0409C48.1056 37.7109 47.565 38.5512 47.0478 39.1095C45.7961 40.4436 44.4797 41.7012 43.0928 42.8706C41.894 43.8814 40.7245 44.6807 39.22 43.8579C37.457 42.8941 37.8449 39.8324 37.6627 38.0458C37.4982 36.4239 37.7391 34.5374 39.1495 33.6266H39.1613Z" fill="#DAE9FE"/>
<path d="M26.2975 11.577C25.4865 10.8483 24.5932 9.9374 24.6696 8.78556C24.7225 7.99221 25.2455 7.287 25.2397 6.48777C25.2338 5.82958 24.8577 5.19489 24.9811 4.54845C25.1574 3.60818 26.1976 3.2732 27.0614 3.11453C28.1369 2.9206 29.23 2.72079 30.3113 2.83245C31.3985 2.94411 32.4974 3.39661 33.2026 4.30751C33.802 5.07736 34.0665 6.08815 34.3016 7.06956C34.6365 8.4741 34.948 9.91977 34.8305 11.3654C34.7188 12.8111 34.1135 14.2862 32.9852 15.0443C31.9274 15.7553 30.5698 15.6084 29.6531 14.721C28.5483 13.6456 27.4376 12.5937 26.2916 11.5711L26.2975 11.577Z" fill="#DAE9FE"/>
<path d="M25.0455 21.9434C24.1757 21.2911 23.6997 20.1627 22.9064 19.3988C21.9073 18.4409 20.5263 18.1588 19.3098 17.577C18.0933 16.9952 16.8827 15.8022 17.0414 14.3565C17.1589 13.2517 18.0992 12.3996 19.1041 12.2233C20.1032 12.0411 21.1316 12.4231 22.0014 12.9931C22.8711 13.5632 23.6233 14.3213 24.4343 14.9912C26.691 16.8776 29.3943 18.1118 32.2033 18.5349C32.9438 18.6465 33.7665 18.6877 34.3777 18.2175C35.0947 17.6651 35.2945 16.6191 35.5766 15.7082C36.0526 14.1391 36.8988 12.7463 37.7392 11.3712C38.5208 10.0842 39.4199 8.70901 40.7716 8.28001C41.8412 7.94504 43.0694 8.31527 43.8216 9.21441C44.5797 10.1077 44.8265 11.4828 44.4328 12.6229C44.233 13.2106 43.8745 13.7806 43.9391 14.4035C44.0449 15.3791 45.0616 15.8257 45.8079 16.3781C46.4661 16.8659 46.995 17.5887 47.2125 18.4232C47.4299 19.2636 47.3065 20.2156 46.8187 20.9032C46.0313 22.0198 44.5797 22.1961 43.4396 22.8543C41.6061 23.9121 40.5306 26.2686 38.5796 27.015C37.1222 27.5733 35.5119 27.0973 34.078 26.4743C32.5442 25.8044 30.7988 25.3695 29.5177 24.2059C28.9124 23.6535 28.2953 23.2069 27.5431 22.9248C26.7027 22.6133 25.7918 22.5017 25.0455 21.9434Z" fill="#DAE9FE"/>
<path d="M19.6388 34.7019C19.2627 34.984 18.8631 35.2543 18.6162 35.6774C18.3929 36.0653 18.3283 36.5413 18.1814 36.9703C17.7582 38.1868 16.6064 39.0213 15.4193 39.08C14.2322 39.1388 13.0627 38.4806 12.3164 37.4698C11.57 36.4531 11.2292 35.125 11.2586 33.8204C11.2821 32.8448 11.523 31.8458 12.1225 31.123C12.5985 30.547 13.2625 30.2003 13.8737 29.8124C14.8022 29.2248 15.6955 28.5078 16.7416 28.2434C17.7876 27.9789 19.0687 28.3433 19.5154 29.4128C19.9385 30.4354 19.7681 31.4579 20.3029 32.4511C20.8141 33.3972 20.4439 34.0966 19.6388 34.7077V34.7019Z" fill="#DAE9FE"/>
<path d="M15.9837 13.8983C16.5067 12.9228 17.4411 12.3057 18.0464 11.3948C18.6869 10.4369 18.922 9.20871 18.8691 8.02749C18.8162 6.84627 18.4989 5.69443 18.1169 4.58373C17.7526 3.5318 17.3118 2.47987 16.5596 1.72177C15.8074 0.963676 14.6732 0.564059 13.7329 1.01069C13.0394 1.33979 12.5281 2.07437 11.7994 2.28594C10.724 2.5974 9.71908 1.68064 8.76705 1.05183C7.54469 0.246717 6.08139 -0.1529 4.6651 0.0645382C3.25469 0.281977 1.90892 1.13998 1.12732 2.45048C0.234059 3.94905 0.145909 5.90012 0.563156 7.63375C0.980403 9.36738 1.85603 10.9247 2.79043 12.388C3.73071 13.8572 4.74738 15.2735 5.4996 16.8602C6.1049 18.1237 6.56328 19.5223 7.53882 20.4685C8.83757 21.7261 10.7181 21.8672 12.4459 21.9494C13.8974 22.0141 17.0885 21.8378 16.8534 19.4166C16.6595 17.4244 14.8142 16.0668 15.9778 13.8983H15.9837Z" fill="#DAE9FE"/>
<path d="M29.118 7.56322C31.4569 12.4644 33.2611 17.7593 34.1485 23.3422C34.5951 26.1336 34.8008 28.9839 34.7655 31.8458C34.7244 34.7078 34.4012 37.5815 33.9839 40.3259C33.5667 43.0703 33.1083 45.6972 32.8674 48.2771C32.6147 50.857 32.55 53.4192 32.6734 55.9932C32.8909 61.1471 33.8018 66.2305 35.2768 71.067C35.9291 73.2061 34.8831 75.5216 32.932 76.2385C30.9809 76.9555 28.8712 75.8037 28.2189 73.6645C28.1777 73.5352 28.1484 73.406 28.119 73.2767V73.2473C26.9377 67.5645 26.4441 61.7348 26.7203 55.9639C26.8496 53.0784 27.1904 50.1812 27.7252 47.3721C28.2483 44.5513 28.977 41.8715 29.6175 39.2857C30.2581 36.7 30.7752 34.173 31.0514 31.5872C31.3218 29.0015 31.3747 26.3746 31.1925 23.7477C30.8458 18.488 29.5999 13.2519 27.7664 8.2508C27.6136 7.82768 27.7957 7.35166 28.1777 7.18711C28.5362 7.02844 28.9417 7.19887 29.118 7.56322Z" fill="#E6F1FC"/>
<path d="M4.62992 3.70816C8.23234 9.77293 12.5576 15.2853 17.4412 20.0572C22.3247 24.835 27.7665 28.8781 33.5727 32.0574C34.4307 32.5276 34.7775 33.6735 34.3485 34.6138C33.9195 35.5541 32.8793 35.9361 32.0213 35.4659C31.9919 35.4483 31.9566 35.4248 31.9214 35.4072C26.0447 31.6696 20.644 27.0857 15.9015 21.832C11.1589 16.5782 7.07463 10.6544 3.77779 4.27233C3.64263 4.01375 3.7249 3.67878 3.96585 3.53186C4.19504 3.39082 4.483 3.47309 4.62404 3.70816H4.62992Z" fill="#E6F1FC"/>
<path d="M13.9914 35.0427C14.6849 34.0378 15.4724 33.1034 16.348 32.2689C17.2177 31.4285 18.1874 30.6939 19.2099 30.0651C21.2668 28.8134 23.5822 28.0376 25.9623 27.7849H25.974C26.6557 27.7144 27.261 28.2609 27.3316 29.0073C27.4021 29.7536 26.8967 30.4236 26.215 30.4941C26.168 30.4941 26.121 30.5 26.074 30.5C24.0112 30.4647 21.9191 30.8878 19.9739 31.7752C19.0043 32.2277 18.064 32.7743 17.1884 33.4442C16.3127 34.1083 15.49 34.884 14.7495 35.742C14.5615 35.9594 14.25 35.9712 14.0502 35.7655C13.8621 35.5716 13.8445 35.2601 13.9914 35.0427Z" fill="#E6F1FC"/>
<path d="M14.5382 4.52483C14.1797 5.64728 13.9211 6.81087 13.7801 7.98034C13.6332 9.14981 13.6155 10.331 13.6919 11.4946C13.8624 13.8218 14.4794 16.0902 15.4608 18.1177C15.7194 18.6466 15.5372 19.3106 15.0494 19.5927C14.5676 19.8748 13.9623 19.675 13.7096 19.1402C13.6978 19.1108 13.6861 19.0815 13.6743 19.0521C12.7575 16.6602 12.2874 14.0921 12.3109 11.5416C12.3285 10.2664 12.4519 8.99701 12.7105 7.76878C12.9632 6.53467 13.3334 5.34169 13.8036 4.20161C13.8917 3.98417 14.1327 3.88427 14.3266 3.98417C14.5147 4.0782 14.6028 4.31327 14.5382 4.52483Z" fill="#E6F1FC"/>
<path d="M50.8327 22.1609C48.6113 29.0954 45.8257 35.8419 42.335 42.1887C38.8325 48.5238 34.6306 54.4711 29.5355 59.5368C28.8479 60.2185 27.7901 60.1656 27.1672 59.4134C26.5442 58.6612 26.5971 57.4976 27.2847 56.8159C27.3082 56.7924 27.3376 56.763 27.3611 56.7454C32.4151 52.2967 36.7874 46.849 40.5249 40.9135C44.2567 34.9604 47.3713 28.5077 49.9394 21.7907C50.0394 21.5203 50.3214 21.3969 50.5683 21.5086C50.8033 21.6144 50.915 21.9082 50.8327 22.1668V22.1609Z" fill="#E6F1FC"/>
<path d="M45.99 17.4303C45.0909 18.782 43.9214 19.9456 42.5697 20.7977C41.2122 21.6498 39.6843 22.1963 38.1034 22.3903H38.0976C37.6451 22.449 37.2337 22.0906 37.1867 21.591C37.1397 21.0915 37.4629 20.6449 37.9154 20.592C37.9448 20.592 37.98 20.592 38.0094 20.592C39.3787 20.592 40.7656 20.2864 42.0526 19.6752C43.3396 19.064 44.5149 18.1414 45.4846 16.9778C45.608 16.8309 45.8137 16.8191 45.9489 16.9543C46.0723 17.0777 46.0899 17.2893 45.99 17.4362V17.4303Z" fill="#E6F1FC"/>
<path d="M50.0688 38.5453C48.8229 41.4307 46.9835 44.0282 44.7621 46.1615C43.6514 47.2311 42.4467 48.189 41.1715 49.0234C39.8962 49.8579 38.5563 50.5749 37.1635 51.1685H37.1577C36.3819 51.5034 35.5122 51.0803 35.2125 50.2341C34.9128 49.3878 35.2947 48.4299 36.0705 48.1008C36.1175 48.0773 36.1704 48.0597 36.2233 48.0479C37.5044 47.6659 38.762 47.1664 39.9785 46.5552C41.1891 45.9382 42.3586 45.2095 43.4575 44.3573C45.6554 42.659 47.583 40.4846 49.011 37.9223C49.1814 37.6109 49.5517 37.511 49.8396 37.7049C50.1041 37.8812 50.1981 38.2514 50.0688 38.5511V38.5453Z" fill="#E6F1FC"/>
<path d="M43.5982 9.55528C42.9282 13.0578 41.7529 16.4663 40.0898 19.5986C39.2553 21.1618 38.3091 22.6604 37.2513 24.0649C36.1935 25.4694 35.0299 26.7858 33.7723 27.9905C33.2551 28.4901 32.4735 28.4313 32.021 27.8671C31.5685 27.303 31.6214 26.445 32.1386 25.9454C32.1621 25.9219 32.1856 25.8984 32.215 25.8808C33.4491 24.87 34.6068 23.7476 35.6822 22.5252C36.7577 21.3087 37.7391 19.9806 38.6265 18.576C40.3954 15.767 41.7529 12.617 42.6403 9.29082C42.7167 9.00287 42.9929 8.83832 43.2573 8.92059C43.51 9.00287 43.6569 9.27907 43.604 9.55528H43.5982Z" fill="#E6F1FC"/>
<path d="M20.2915 15.5261C21.4375 15.5379 22.5952 15.6789 23.7294 15.9551C24.8636 16.2255 25.9743 16.6427 27.0497 17.1716C29.1888 18.2412 31.134 19.8161 32.7384 21.7672H32.7443C33.2026 22.3314 33.1615 23.1952 32.6561 23.7006C32.1507 24.206 31.3632 24.159 30.9048 23.6007C30.8755 23.5655 30.8461 23.5243 30.8167 23.4832C29.6178 21.6438 28.0605 20.0512 26.2505 18.8641C25.3455 18.2764 24.3817 17.7769 23.3709 17.4008C22.3601 17.0247 21.3082 16.7602 20.2386 16.6192C19.9683 16.5839 19.7743 16.3136 19.8037 16.0139C19.8331 15.7377 20.0505 15.532 20.3032 15.532L20.2915 15.5261Z" fill="#E6F1FC"/>
<path d="M47.777 37.5167C48.6937 36.641 50.2746 36.4589 51.0444 37.4932C51.6027 38.2454 51.5498 39.3443 51.2501 40.2552C50.9504 41.1661 50.445 41.983 50.1511 42.8939C49.8103 43.9575 49.7692 45.1153 49.4224 46.1731C49.0522 47.3132 48.3059 48.3298 47.3068 48.847C46.3078 49.3641 45.056 49.3171 44.151 48.6295C43.246 47.942 42.7759 46.5727 43.1461 45.4326C43.6515 43.8753 45.1853 42.9996 45.8376 41.507C46.4371 40.1259 46.6721 38.5745 47.7828 37.5225L47.777 37.5167Z" fill="#DAE9FE"/>
<path d="M35.6296 43.2173C36.4347 43.2702 37.2927 43.3525 37.9333 43.8873C38.6385 44.475 38.9265 45.4799 39.1321 46.4319C39.3026 47.2253 39.4377 48.095 39.1204 48.8355C38.7208 49.7581 37.7159 50.1871 36.7873 50.1871C35.8588 50.1871 34.9597 49.8522 34.0547 49.6406C33.1438 49.429 32.1506 49.3526 31.3337 49.8404C30.0761 50.5809 29.6589 52.3615 28.5717 53.3782C27.7019 54.1892 26.5031 54.4184 25.3689 54.5888C24.4815 54.724 23.5471 54.8356 22.7244 54.4595C21.7253 54.0011 21.1024 52.9257 20.2973 52.1264C19.5274 51.3625 18.5754 50.8512 17.7585 50.1519C16.9358 49.4525 16.2188 48.4594 16.2071 47.3193C16.2012 46.285 16.7947 45.3388 17.5587 44.7277C18.5754 43.9108 19.8624 43.5582 21.0436 43.1351C21.9427 42.8118 22.789 42.5591 23.741 42.6532C26.1681 42.8882 28.5893 42.8824 31.0223 42.9764C32.5561 43.0352 34.1017 43.2232 35.6355 43.2232L35.6296 43.2173Z" fill="#DAE9FE"/>
<path d="M64.7756 55.8785C64.5921 56.3338 64.4222 56.7959 64.2659 57.2716C63.4912 59.5618 62.9611 61.9946 62.2136 64.2984C61.8534 65.4061 61.0515 66.3167 60.0118 66.8536C55.2955 69.3 50.1172 71.4747 45.5165 73.9891C44.5243 74.1522 43.5389 73.6425 43.1312 72.7522C42.7506 71.93 42.9273 70.9446 43.5729 70.2786C47.8406 67.5127 55.214 61.8111 55.214 61.8111C55.214 61.8111 56.5935 50.6662 56.6479 47.9275C57.3139 48.342 57.9934 48.8177 58.6798 49.341C61.4457 51.4613 63.4028 53.8262 64.7756 55.8785Z" fill="#F9AFB6"/>
<path d="M64.7757 55.8785C64.5922 56.3338 63.1515 63.6188 62.669 63.7275C61.5545 63.9722 55.3297 61.6752 54.7656 61.4782C54.82 58.7395 56.5937 50.6662 56.648 47.9275C57.314 48.342 57.9936 48.8177 58.68 49.341C61.4458 51.4613 63.403 53.8262 64.7757 55.8785Z" fill="#243F91"/>
<path d="M43.4441 70.1494C43.2538 69.9387 42.948 69.8912 41.6908 69.9863C40.7666 70.0543 39.9511 70.1562 39.2783 70.2513C39.3667 71.8008 39.6453 73.9074 40.488 76.2587C41.1471 78.114 41.9694 79.609 42.6966 80.7371C43.2878 80.4993 43.8722 80.2682 44.4635 80.0304C44.28 79.5343 44.1101 78.8615 44.1101 78.0596C44.1101 75.8578 45.3877 74.322 45.8158 73.8463C44.2188 73.4045 43.6887 72.7725 43.5188 72.2561C43.2402 71.3998 43.879 70.6251 43.4441 70.1494Z" fill="#21111D"/>
<path d="M72.4889 64.672C71.8162 70.6387 70.9939 75.0423 70.3143 80.173C69.5192 80.907 68.996 81.5662 68.2009 82.3069C67.4329 81.7496 66.2641 80.7167 66.2641 80.7167L64.8098 65.406C64.8098 65.406 59.5363 54.8318 59.0606 54.3901C58.1976 53.5814 56.254 51.8757 56.1181 49.4156C56.0501 48.2332 56.4035 46.8401 57.2054 45.9974C59.047 44.0674 63.7633 44.5023 68.4251 47.8526C68.7309 48.9467 69.1523 50.5165 69.6212 52.2359C70.6201 55.9327 71.7958 60.3567 72.3326 62.4362C72.5161 63.1634 72.5773 63.9177 72.4889 64.6652V64.672Z" fill="#F9AFB6"/>
<path d="M72.8831 61.7226C72.3326 62.1711 71.5851 62.7216 70.6541 63.2585C68.8125 64.3254 66.5359 65.637 63.8108 65.4127C63.2943 64.8283 59.5363 54.8386 59.0606 54.3968C58.1976 53.5882 56.254 51.8824 56.1181 49.4224C56.0433 48.104 56.1045 46.5342 56.7704 45.7595C58.7344 43.4557 64.504 43.9994 70.2056 47.1254C70.0629 49.035 70.0561 51.6038 70.5929 54.5599C71.1366 57.5568 72.0608 59.9829 72.8831 61.7294V61.7226Z" fill="#243F91"/>
<path d="M63.8108 65.508C63.8108 65.508 63.7564 65.4944 63.7361 65.474C63.4642 65.175 62.4381 62.6334 61.3508 59.9491C60.3518 57.4755 59.2101 54.6688 58.9926 54.4582L58.8703 54.3427C58.2927 53.8058 57.3209 52.902 56.6821 51.6991C56.6549 51.6515 56.6753 51.5904 56.7229 51.5632C56.7704 51.536 56.8316 51.5564 56.8588 51.604C57.484 52.7796 58.4354 53.6631 59.0062 54.1931L59.1286 54.3087C59.3664 54.5329 60.1955 56.5581 61.541 59.8676C62.5264 62.3004 63.6409 65.0527 63.8856 65.3313C63.9263 65.3721 63.9195 65.4401 63.8788 65.474C63.8584 65.4944 63.838 65.5012 63.8108 65.5012V65.508Z" fill="#1A337C"/>
<path d="M79.2235 29.9052C79.0875 29.7829 78.7477 29.4771 78.4555 29.579C78.3944 29.5994 78.34 29.6402 78.2992 29.6809C78.3536 29.613 78.3944 29.545 78.408 29.4567C78.4419 29.28 78.408 29.0693 78.2924 29.015C78.1565 28.9538 77.9866 29.1577 77.5993 29.3547C77.3139 29.5042 77.1236 29.5314 76.9605 29.5858C76.3625 29.7761 75.9411 30.3401 75.6217 30.7547C75.0169 31.5566 74.7451 32.4128 74.616 33.0108L67.1475 35.7019L68.5474 39.725L75.6489 35.3825L76.111 35.0835C76.1926 35.0292 76.2741 34.9816 76.3557 34.9272C77.2867 34.3564 78.0614 33.9758 78.6186 33.7176C79.0332 33.5273 79.3866 33.3778 79.6652 32.9972C80.0457 32.4604 80.005 31.8352 79.9914 31.5769C79.9846 31.4478 79.9098 30.5236 79.2235 29.912V29.9052ZM78.2449 29.7421C78.2449 29.7421 78.2109 29.7829 78.2041 29.8033C78.0546 30.0207 78.1361 30.1498 78.0342 30.4081C77.9323 30.6663 77.7216 30.8634 77.4905 30.9449C77.3274 31.0061 77.0896 31.0265 77.042 30.9449C77.0081 30.8838 77.0828 30.7682 77.2527 30.5848C77.6944 30.1159 78.0478 29.946 78.2449 29.7421Z" fill="#F9AFB6"/>
<path d="M64.096 21.791C63.4504 22.3007 62.5466 23.1026 61.7107 24.2647C60.3652 26.1267 59.8895 27.9887 59.0604 33.1874C58.7478 35.1718 58.3944 37.5503 58.0546 40.2482C57.3275 41.9199 56.6751 43.9043 56.3149 46.1944C56.2402 46.6565 56.1858 47.1051 56.145 47.54C57.8236 47.9477 59.8487 48.3079 62.1524 48.4438C65.3124 48.6273 68.0375 48.3419 70.151 47.9613C70.9869 47.3293 72.1014 46.2964 72.9304 44.7673C75.1866 40.6219 73.6372 36.0077 72.5023 32.637C71.8499 30.7002 70.6946 27.3839 67.5822 24.4006C66.2774 23.1502 65.0066 22.3211 64.0892 21.791H64.096Z" fill="#21111D"/>
<path d="M66.6447 29.2595C65.9719 29.9663 65.2856 30.7342 64.5992 31.5021L62.5537 33.8331L58.4899 38.5765L57.2938 34.5058L66.7806 39.657C67.4942 40.0443 67.7524 40.9346 67.3719 41.6413C67.0389 42.2529 66.3389 42.5316 65.7001 42.3549L55.2891 39.5211C53.9843 39.1677 53.2096 37.8153 53.5698 36.5106C53.6309 36.2999 53.7125 36.096 53.8212 35.9125L54.0998 35.4436L57.3686 30.0342L59.0403 27.3363C59.6112 26.4325 60.1752 25.5355 60.8072 24.6045L60.8276 24.5705C61.9897 22.8512 64.3206 22.4027 66.0399 23.5647C67.7592 24.7268 68.2077 27.0577 67.0457 28.777C66.9301 28.9469 66.7874 29.1168 66.6515 29.2663L66.6447 29.2595Z" fill="#F9AFB6"/>
<path d="M65.5779 39.1131C65.7818 39.0383 66.0876 38.9296 66.4682 38.8277C67.406 38.5762 67.8341 38.5966 68.2147 38.6306C68.4729 38.651 69.1321 40.248 69.1049 40.2752C69.003 40.3771 69.3767 40.6693 69.4379 41.179C69.5398 42.042 68.6632 42.8235 68.3098 43.1362C67.936 43.4691 67.7458 43.6322 67.4739 43.6866C66.8351 43.8021 66.2303 43.3876 65.2517 42.6808C64.878 42.409 64.5857 42.1576 64.3887 41.9945C64.7828 41.0363 65.1838 40.0849 65.5779 39.1267V39.1131Z" fill="#F9AFB6"/>
<path d="M67.8132 22.6065C67.786 22.6677 67.7588 22.7356 67.7384 22.8036C66.8482 22.1308 66.1958 20.8872 66.0259 19.6504C66.7326 20.1669 67.4394 20.6833 68.1461 21.1998C68.1733 21.2202 68.2073 21.261 68.2345 21.3153C68.4248 21.6619 68.017 22.1444 67.8132 22.6133V22.6065Z" fill="#E59CA9"/>
<path d="M70.8781 23.9113C70.4636 24.1491 69.9335 24.2646 69.5258 25.25C69.2607 25.882 69.4238 27.0917 69.6005 27.9343C69.7093 28.444 69.6821 28.2401 69.4986 27.7373C69.1248 26.7247 68.4249 25.2976 67.188 24.2307C66.1687 23.3472 64.8775 22.79 64.7756 22.7492C64.2659 22.5317 63.8174 22.3958 63.4844 22.3075C63.9601 21.9541 64.5581 21.424 65.0882 20.6561C65.3464 20.2824 65.5435 19.929 65.693 19.6028C66.624 20.2756 67.5618 20.9483 68.5132 21.6211C69.3967 22.2463 70.0083 23.2997 70.8849 23.9113H70.8781Z" fill="#F9AFB6"/>
<path d="M70.6743 23.3608L71.8908 22.9463C71.8908 22.9463 71.5646 23.32 71.1365 23.6938C70.62 24.1423 70.0355 24.3734 69.7705 24.4413C68.7783 24.7064 67.2901 23.6802 66.2231 21.9133C68.8463 23.4016 70.0627 23.5647 70.6743 23.3608Z" fill="#E59CA9"/>
<path d="M72.3594 17.8631C72.5225 18.3456 73.5419 21.3765 71.8905 22.9531C70.9731 23.8297 69.7023 23.8162 69.478 23.8094C67.5277 23.7686 66.352 22.1172 66.0122 21.6415C65.7812 21.3221 64.6599 19.7455 65.0336 17.7C65.3666 15.8923 66.8481 13.8604 68.5946 13.8332C70.9459 13.7993 72.2031 17.4146 72.3594 17.8563V17.8631Z" fill="#F9AFB6"/>
<path d="M70.8508 20.1805C70.946 20.2553 70.9595 20.398 70.878 20.4863C70.8032 20.5814 70.6605 20.595 70.5722 20.5135C70.4839 20.4319 70.4635 20.296 70.545 20.2077C70.6198 20.1125 70.7625 20.099 70.8508 20.1805Z" fill="#21111D"/>
<path d="M72.6245 19.63C72.7196 19.7047 72.7332 19.8474 72.6517 19.9358C72.5769 20.0309 72.4342 20.0445 72.3459 19.963C72.2507 19.8882 72.2371 19.7455 72.3187 19.6571C72.3934 19.562 72.5362 19.5484 72.6245 19.63Z" fill="#21111D"/>
<path d="M70.1443 20.0309C70.1443 20.0309 70.0967 20.0241 70.0831 20.0105C70.0424 19.9766 70.0288 19.9086 70.0695 19.8678C70.1647 19.7455 70.3346 19.5824 70.5928 19.4805C70.7015 19.4397 70.8239 19.4125 70.9394 19.3989C70.9938 19.3989 71.0413 19.4397 71.0481 19.4941C71.0481 19.5484 71.0074 19.596 70.953 19.6028C70.851 19.6096 70.7559 19.63 70.6608 19.6708C70.4501 19.7523 70.3074 19.895 70.2258 19.9969C70.2055 20.0241 70.1783 20.0377 70.1443 20.0377V20.0309Z" fill="#21111D"/>
<path d="M72.1287 19.1747C72.1287 19.1747 72.0675 19.1611 72.0471 19.1339C72.0131 19.0863 72.0199 19.0252 72.0675 18.9912C72.1966 18.8893 72.3393 18.8145 72.4956 18.7737C72.55 18.7601 72.6044 18.7873 72.6248 18.8417C72.6383 18.8961 72.6112 18.9504 72.5568 18.9708C72.4277 19.0048 72.3054 19.0659 72.1966 19.1543C72.1762 19.1679 72.1559 19.1747 72.1355 19.1747H72.1287Z" fill="#21111D"/>
<path d="M71.9995 21.5328C71.9519 21.5328 71.9112 21.4989 71.8976 21.4581C71.884 21.4037 71.918 21.3494 71.9723 21.3358C72.0607 21.3154 72.115 21.2814 72.1286 21.2406C72.1422 21.2066 72.1286 21.1591 72.0743 21.0436L72.0539 20.996C71.9723 20.8057 71.8976 20.595 71.8636 20.4727C71.816 20.2892 71.8092 20.0922 71.85 19.8815C71.8636 19.8271 71.9112 19.7931 71.9723 19.7999C72.0267 19.8135 72.0607 19.8611 72.0539 19.9223C72.0199 20.0989 72.0199 20.2688 72.0607 20.4251C72.0879 20.5339 72.1626 20.7309 72.2442 20.9212L72.2646 20.9688C72.3257 21.1047 72.3665 21.2066 72.3189 21.3222C72.2917 21.3969 72.217 21.4921 72.0199 21.5396C72.0131 21.5396 72.0063 21.5396 71.9927 21.5396L71.9995 21.5328Z" fill="#21111D"/>
<path d="M71.5851 22.3349C71.3268 22.3349 71.1161 22.2534 70.987 22.1854C70.9395 22.1582 70.9191 22.097 70.9463 22.0495C70.9734 22.0019 71.0346 21.9815 71.0822 22.0087C71.1909 22.0699 71.3744 22.131 71.6054 22.131C71.8909 22.131 72.1015 22.0087 72.2035 21.9407C72.251 21.9068 72.3122 21.9204 72.3462 21.9679C72.3802 22.0155 72.3666 22.0767 72.319 22.1106C72.1967 22.1922 71.9452 22.3281 71.6122 22.3349C71.6054 22.3349 71.5986 22.3349 71.5918 22.3349H71.5851Z" fill="#21111D"/>
<path d="M72.0402 17C71.9927 17.0815 71.6529 17.2039 70.9665 17.4349C70.1035 17.7339 69.553 17.9174 68.9346 17.7679C68.8055 17.7543 68.588 17.7271 68.4861 17.8562C68.4045 17.9582 68.2346 17.9446 68.289 18.3931C68.3434 18.828 68.3434 19.4736 68.2143 19.5008C68.0444 19.5348 67.9356 18.4747 67.1473 18.0873C67.0386 18.0329 66.76 17.897 66.5153 18.0125C66.1891 18.1688 66.1416 18.6853 66.1348 18.8144C66.0736 19.5416 66.5289 19.9289 66.3658 20.5677C66.3386 20.6629 66.3047 20.7444 66.2571 20.8192C66.0532 21.1318 65.6591 21.1929 65.5164 21.2269C65.1698 21.2949 64.6397 21.4852 63.8242 22.0084C64.1436 21.6347 64.5514 21.0434 64.6533 20.2619C64.7756 19.2969 64.2456 18.9368 64.1844 17.7679C64.1368 16.9116 64.0621 15.6476 64.8776 14.703C65.727 13.7244 67.0454 13.6361 67.6638 13.6021C68.0919 13.5749 69.0094 13.5342 69.9879 14.0371C71.3811 14.7574 72.414 16.3544 72.0334 17.0068L72.0402 17Z" fill="#21111D"/>
<path d="M67.6296 18.6923C67.8471 19.2223 67.718 19.7796 67.3374 19.9359C66.9569 20.0922 66.4744 19.7932 66.2501 19.2631C66.0258 18.733 66.1618 18.1758 66.5423 18.0195C66.9229 17.8632 67.4054 18.1622 67.6296 18.6923Z" fill="#F9AFB6"/>
<path d="M66.1211 80.1117C65.8561 80.2069 65.693 80.4719 65.3056 81.6748C65.0202 82.5582 64.8027 83.3465 64.6396 84.0125C66.1075 84.5154 68.1598 85.0454 70.6607 85.161C72.6246 85.2493 74.3235 85.0522 75.6419 84.8008C75.6419 84.1688 75.6487 83.53 75.6555 82.898C75.1254 82.8776 74.4391 82.7825 73.6915 82.4835C71.6528 81.6544 70.715 79.8875 70.4364 79.3167C69.4238 80.6282 68.6423 80.8865 68.0987 80.8457C67.1948 80.7777 66.7259 79.8943 66.1211 80.1185V80.1117Z" fill="#21111D"/>
<path d="M34.6494 31.8896L25.1557 30.8567L28.0303 26.8608L29.6885 36.7486C29.838 37.6592 29.2264 38.5155 28.3225 38.6718C27.575 38.7941 26.8615 38.3999 26.5421 37.7543L22.186 28.7228C21.5336 27.3705 22.1045 25.7395 23.4568 25.0871C23.7151 24.9648 23.9801 24.8832 24.2519 24.8425L25.0606 24.7269L34.5067 23.4018H34.5134C36.8512 23.0688 39.0122 24.6998 39.3452 27.0443C39.6714 29.382 38.0472 31.543 35.7027 31.876C35.3493 31.9236 34.9824 31.9304 34.6494 31.8896Z" fill="#F9AFB6"/>
<path d="M29.0636 35.6611C29.2402 35.7631 29.4917 35.9126 29.7907 36.1232C30.5246 36.6465 30.7557 36.9591 30.9664 37.2581C31.1023 37.4552 30.3479 38.8619 30.314 38.8619C30.1849 38.8483 30.1916 39.29 29.8655 39.6298C29.3082 40.2143 28.2345 40.0444 27.8064 39.9764C27.3442 39.9017 27.12 39.8677 26.9229 39.7046C26.4608 39.3172 26.3996 38.6377 26.3317 37.5232C26.3045 37.095 26.3113 36.7417 26.3181 36.5038C27.2355 36.2252 28.1529 35.9466 29.0704 35.6611H29.0636Z" fill="#F9AFB6"/>
<path d="M34.4526 23.3608L29.0093 24.1559L29.2743 31.3186H31.4014L34.4526 23.3608Z" fill="#FF80A9"/>
<path d="M20.2565 76.0754L19.3662 77.9375L21.7175 80.8188L23.2737 78.8481L23.8446 77.6928L20.2565 76.0754Z" fill="#F9AFB6"/>
<path d="M19.3659 77.9375C19.0873 78.1346 18.4961 78.6035 18.1903 79.4326C18.0544 79.8063 18.0068 80.1461 18 80.3975C19.2164 81.3625 20.9086 82.511 23.0968 83.476C23.8919 83.8226 24.653 84.108 25.3734 84.3391C26.1685 84.5905 26.8072 83.6663 26.2976 83.0071C25.9578 82.5722 25.6112 82.1169 25.2714 81.6615C24.5579 80.7034 23.8987 79.7655 23.2871 78.8481C23.0288 79.0044 22.4648 79.2966 21.724 79.2763C20.3037 79.2355 19.4747 78.0802 19.3727 77.9375H19.3659Z" fill="#21111D"/>
<path d="M42.2131 43.5918C44.0683 39.7794 44.5576 37.6116 44.7819 36.3951C45.3255 33.4934 46.4672 27.3636 43.083 24.1153C42.6141 23.6668 40.9219 22.1785 38.4619 22.1173C35.6688 22.0494 33.7592 23.8706 33.3855 24.2172C32.9098 24.6521 32.1351 25.4744 31.1293 27.6694C29.6682 30.8498 29.6614 32.6847 29.0294 34.7098C28.2547 37.1834 26.7257 38.0397 25.5024 39.1814C26.7868 40.1464 28.3566 41.1182 30.2323 41.92C34.6631 43.8093 38.9376 43.9452 42.2199 43.585L42.2131 43.5918Z" fill="#FF80A9"/>
<path d="M29.8315 31.4206C29.8315 31.4206 29.8179 31.4206 29.8043 31.4206C29.7499 31.407 29.716 31.3527 29.7296 31.2983C30.0558 30.0071 30.4499 28.8722 31.0207 27.6286C31.9993 25.5016 32.7537 24.6521 33.3041 24.1492L33.3313 24.122C33.4876 23.9793 33.8546 23.6395 34.3846 23.2794C34.4322 23.2454 34.4934 23.259 34.5273 23.3066C34.5613 23.3541 34.5477 23.4153 34.5002 23.4493C33.9837 23.7958 33.6371 24.1152 33.474 24.2715L33.4468 24.2987C32.91 24.788 32.176 25.6239 31.211 27.717C30.647 28.947 30.2528 30.0683 29.9334 31.3459C29.9198 31.3935 29.8791 31.4206 29.8315 31.4206Z" fill="#EC5B8A"/>
<path d="M40.0386 38.1417C43.773 38.1417 46.8003 35.5129 46.8003 32.2702C46.8003 29.0274 43.773 26.3987 40.0386 26.3987C36.3042 26.3987 33.2769 29.0274 33.2769 32.2702C33.2769 35.5129 36.3042 38.1417 40.0386 38.1417Z" fill="#FF80A9"/>
<path d="M44.0346 20.8534V20.867L43.7764 21.4651L43.2803 22.6271L42.7638 23.8436L35.8729 24.4076C35.207 24.462 34.6021 24.0202 34.4526 23.3679C35.4992 21.9068 37.5855 18.9846 37.5855 18.9846L44.0346 20.8534Z" fill="#F9AFB6"/>
<path d="M43.6881 21.6211V21.6347L43.4366 22.2328C43.4163 22.2735 43.3823 22.3075 43.3619 22.3347C42.6959 23.191 41.0717 23.3133 39.332 22.5114C40.2087 22.0901 41.0581 21.7231 41.7649 21.4784C42.7163 21.1522 43.4163 21.0435 43.6269 21.3289C43.6813 21.4105 43.7017 21.5056 43.6813 21.6211H43.6881Z" fill="#E59CA9"/>
<path d="M43.3956 16.5993C43.6946 17.0478 45.21 19.3448 44.2382 20.9893C43.6606 21.9747 42.4442 22.2941 41.8054 22.464C41.2277 22.6135 40.188 22.8921 39.155 22.4436C37.4901 21.7233 37.0891 19.6642 36.9736 19.0865C36.6338 17.3536 36.8649 14.4043 38.5978 13.7383C40.3919 13.0519 42.5393 15.2945 43.3956 16.5993Z" fill="#F9AFB6"/>
<path d="M43.1371 18.5701C43.2186 18.6584 43.2186 18.7943 43.1303 18.8759C43.042 18.9574 42.906 18.9574 42.8245 18.8691C42.7429 18.7807 42.7429 18.6448 42.8313 18.5633C42.9196 18.4817 43.0556 18.4817 43.1371 18.5701Z" fill="#21111D"/>
<path d="M42.4642 18.3253C42.4642 18.3253 42.4099 18.3117 42.3895 18.2981C42.3487 18.2573 42.3487 18.1962 42.3895 18.1554C42.5526 17.9991 42.7428 17.8904 42.9535 17.836C43.069 17.8088 43.1914 17.7952 43.3137 17.802C43.3681 17.802 43.4156 17.8496 43.4088 17.9108C43.4088 17.9651 43.3613 18.0059 43.3001 18.0059C43.1982 18.0059 43.0962 18.0059 43.0011 18.0331C42.8244 18.0739 42.6613 18.169 42.5322 18.2981C42.5118 18.3185 42.4846 18.3253 42.4642 18.3253Z" fill="#21111D"/>
<path d="M44.394 19.6777C44.394 19.6777 44.3261 19.6641 44.3057 19.6302C44.2785 19.5826 44.2921 19.5214 44.3396 19.4874C44.4144 19.4399 44.4552 19.3923 44.462 19.3447C44.462 19.3108 44.428 19.27 44.3464 19.1748L44.3125 19.1341C44.1698 18.971 44.0338 18.8011 43.9659 18.6991C43.8639 18.5428 43.796 18.3526 43.7688 18.1419C43.762 18.0875 43.8028 18.0332 43.8571 18.0264C43.9115 18.0264 43.9659 18.0603 43.9727 18.1147C43.9931 18.2982 44.0542 18.4545 44.1358 18.5904C44.1969 18.6856 44.3261 18.8486 44.462 18.9982L44.4959 19.0389C44.5979 19.1545 44.6726 19.236 44.659 19.3583C44.659 19.4331 44.6115 19.5486 44.4416 19.6573C44.428 19.6709 44.4076 19.6709 44.3872 19.6709L44.394 19.6777Z" fill="#21111D"/>
<path d="M43.9319 20.6086C43.7688 20.6086 43.6125 20.5815 43.463 20.5203C43.4086 20.4999 43.3814 20.4388 43.4018 20.3912C43.4222 20.3368 43.4833 20.3096 43.5309 20.33C43.7008 20.398 43.8843 20.4184 44.061 20.398C44.1697 20.3844 44.2784 20.3572 44.3804 20.3096C44.4279 20.2892 44.4891 20.3096 44.5163 20.3572C44.5367 20.4116 44.5163 20.4659 44.4687 20.4931C44.3464 20.5475 44.2241 20.5815 44.0882 20.6018C44.0338 20.6018 43.9794 20.6086 43.9319 20.6086Z" fill="#21111D"/>
<path d="M43.7148 15.4983C42.5459 16.1167 41.3771 16.7283 40.2014 17.3467C40.2014 17.3467 40.7247 18.8146 40.6975 18.8214C40.5344 18.8758 40.3033 17.836 39.4743 17.537C39.3587 17.4962 39.0665 17.3943 38.8355 17.537C38.5908 17.6865 38.4957 18.0671 38.55 18.3729C38.6656 19.0525 39.4743 19.2088 39.4743 19.834C39.4743 19.8951 39.4675 20.0582 39.3927 20.2417C39.0937 20.5951 38.7539 20.7854 38.1967 20.9825C37.7821 21.132 37.0006 21.3154 35.8521 21.03C36.0832 20.8261 36.3686 20.5 36.4638 20.0582C36.6676 19.1544 35.8997 18.7059 35.7094 17.6322C35.4988 16.4497 36.1036 15.1313 37.0278 14.3566C37.9588 13.5751 39.0257 13.514 39.3655 13.5072C39.6917 13.5072 40.2897 13.4936 40.915 13.813C41.7576 14.2479 41.8935 14.8935 42.8313 15.2808C43.1779 15.4236 43.4973 15.4779 43.708 15.4983H43.7148Z" fill="#21111D"/>
<path d="M40.351 18.2368C40.6296 18.7397 40.5617 19.3037 40.2015 19.5008C39.8413 19.6979 39.3248 19.46 39.0462 18.9571C38.7676 18.4542 38.8355 17.8902 39.1957 17.6931C39.5559 17.496 40.0724 17.7339 40.351 18.2368Z" fill="#F9AFB6"/>
<path d="M41.7305 15.4575C41.8121 15.573 41.9548 15.7565 42.1859 15.9128C42.4713 16.1031 42.7431 16.1575 42.8926 16.1779C42.5256 16.3749 42.1519 16.5652 41.7849 16.7623C41.7305 16.6332 41.6626 16.4293 41.6422 16.1779C41.6218 15.8653 41.683 15.607 41.7373 15.4643L41.7305 15.4575Z" fill="#F9AFB6"/>
<path d="M37.6058 15.0702L36.8039 15.9877L34.8943 15.7158C33.4604 15.512 32.7945 13.8266 33.7051 12.6985C34.6157 11.5704 36.403 11.8559 36.9127 13.215L37.6058 15.077V15.0702Z" fill="#21111D"/>
<path d="M43.6402 27.955C43.9664 29.3821 44.3674 30.8771 44.7819 32.3654C45.1964 33.8536 45.6314 35.3555 46.0663 36.837L41.4112 35.6341L50.1777 30.7684C50.9796 30.3199 51.9989 30.6121 52.4475 31.414C52.8144 32.08 52.6785 32.8819 52.1756 33.3983L45.1217 40.5202C44.0683 41.5804 42.3558 41.5872 41.2957 40.5406C41.1326 40.3775 40.9967 40.2008 40.8812 40.0174L40.4666 39.3242C39.6443 37.9447 38.8424 36.5855 38.0473 35.1992C37.2522 33.8061 36.4639 32.4198 35.696 30.9247L35.6688 30.8771C34.5815 28.7772 35.4038 26.1949 37.5105 25.1076C39.6104 24.0202 42.1927 24.8425 43.28 26.9492C43.4431 27.2686 43.5723 27.622 43.647 27.9618L43.6402 27.955Z" fill="#F9AFB6"/>
<path d="M49.3554 31.7199C49.3894 31.5229 49.4505 31.2306 49.5525 30.8773C49.7971 30.0142 50.0214 29.688 50.2252 29.3958C50.368 29.1987 51.9446 29.4434 51.9514 29.4773C51.9853 29.6065 52.3931 29.4502 52.828 29.6404C53.5619 29.9734 53.7658 31.0404 53.8406 31.4685C53.9221 31.9238 53.9697 32.1549 53.8745 32.3927C53.6639 32.9568 53.0455 33.2422 52.0125 33.6771C51.6184 33.847 51.2786 33.9625 51.0543 34.0305C50.4835 33.2626 49.9126 32.4878 49.3418 31.7199H49.3554Z" fill="#F9AFB6"/>
<path d="M44.7139 32.141L37.9997 35.1447C37.2182 33.772 36.4435 32.3992 35.6824 30.9246L35.662 30.877C34.5747 28.7703 35.397 26.1948 37.5036 25.1074C39.6035 24.0269 42.1859 24.8492 43.2664 26.9491C43.4295 27.2685 43.5586 27.6286 43.6402 27.9548C43.9528 29.314 44.3265 30.7275 44.7139 32.141Z" fill="#FF80A9"/>
<path d="M37.9999 35.2397C37.966 35.2397 37.932 35.2194 37.9116 35.1854C37.198 33.9214 36.3826 32.4875 35.5943 30.9652L35.5739 30.9177C35.037 29.8779 34.9351 28.6887 35.2884 27.5742C35.6418 26.4597 36.4165 25.549 37.4563 25.0122C39.6037 23.9045 42.2473 24.7472 43.3618 26.8946C43.5249 27.2072 43.654 27.5606 43.7423 27.9275C44.0617 29.3343 44.4627 30.8225 44.816 32.1069C44.8296 32.1613 44.7957 32.2156 44.7413 32.2292C44.6869 32.2428 44.6326 32.2156 44.619 32.1545C44.2656 30.8633 43.8646 29.375 43.5452 27.9683C43.4637 27.6217 43.3346 27.282 43.1783 26.9829C42.1181 24.9374 39.5969 24.1287 37.5514 25.1889C36.5592 25.7053 35.8253 26.5684 35.4855 27.6353C35.1457 28.6955 35.2409 29.8303 35.7574 30.8225L35.7777 30.8701C36.566 32.3923 37.3747 33.8194 38.0883 35.0834C38.1155 35.131 38.1019 35.1922 38.0475 35.2194C38.0339 35.2261 38.0135 35.2329 37.9999 35.2329V35.2397Z" fill="#EC5B8A"/>
<path d="M30.2257 41.9269C28.3432 41.125 26.7734 40.1532 25.4958 39.1882C24.7687 39.8678 24.1571 40.6425 23.8717 41.9133C23.5047 43.5647 23.8173 44.8627 23.9736 45.6985C24.5444 48.7158 20.2563 76.0754 20.2563 76.0754L23.8445 77.6996C23.8445 77.6996 34.5138 56.395 36.6408 53.1602C39.264 49.1643 41.0241 46.0451 42.2133 43.5987C38.931 43.9588 34.6565 43.8229 30.2257 41.9337V41.9269Z" fill="#731936"/>
<path d="M40.8745 77.9849L40.46 80.01L43.4365 82.2322L44.4762 79.9488L44.7413 78.6916L40.8745 77.9849Z" fill="#F9AFB6"/>
<path d="M40.4599 80.0101C40.2357 80.2684 39.7804 80.8664 39.6852 81.7498C39.6377 82.144 39.6852 82.4838 39.7328 82.7352C41.1463 83.374 43.0695 84.074 45.4208 84.4817C46.2771 84.6244 47.0858 84.7196 47.8401 84.7671C48.6692 84.8215 49.0701 83.7682 48.4109 83.2517C47.976 82.9119 47.5343 82.5585 47.0858 82.1916C46.1615 81.4372 45.2917 80.6897 44.4762 79.949C44.2655 80.1664 43.7898 80.581 43.0695 80.7441C41.6832 81.0499 40.5959 80.1325 40.4667 80.0169L40.4599 80.0101Z" fill="#21111D"/>
<path d="M37.0415 43.5307C37.0415 43.5307 33.6301 56.1231 33.5485 56.3406C33.4874 56.5105 37.5988 60.2685 39.3521 61.8655L40.8675 77.9782L44.7411 78.6781L48.4651 59.1201C48.7437 58.1754 48.5263 57.1561 47.8943 56.4086L37.0415 43.5171V43.5307Z" fill="#731936"/>
<path d="M34.4523 57.1222C34.4523 57.1222 34.4183 57.1222 34.3979 57.1086C34.3504 57.0814 34.3368 57.0134 34.364 56.9659L39.95 47.9004C39.9772 47.8528 40.0452 47.8392 40.0927 47.8664C40.1403 47.8936 40.1539 47.9615 40.1267 48.0091L34.5406 57.0746C34.5406 57.0746 34.4863 57.1222 34.4523 57.1222Z" fill="#581128"/>
</svg>
