<svg width="98" height="100" viewBox="0 0 98 100" fill="none" xmlns="http://www.w3.org/2000/svg">
<path d="M68.922 2.95978V30.7682H16.9537V15.6667C17.0433 15.5652 17.1209 15.4697 17.2165 15.3682C17.324 15.2428 17.4195 15.1353 17.527 15.0159C17.7539 14.7352 18.0047 14.4725 18.2555 14.2097C18.9362 13.4812 19.6528 12.8065 20.3693 12.1795C20.6141 11.9645 20.853 11.7555 21.1038 11.5644C21.3009 11.4032 21.4919 11.236 21.695 11.0808C22.1428 10.7285 22.5907 10.3941 23.0385 10.0776C23.4864 9.75513 23.9342 9.4506 24.382 9.158C24.4895 9.09232 24.591 9.02664 24.6985 8.96095C25.0508 8.73404 25.3972 8.5131 25.7554 8.31008C25.9226 8.20857 26.0899 8.119 26.257 8.02345C26.5496 7.85029 26.8362 7.68906 27.1229 7.53381C27.302 7.4323 27.4811 7.3487 27.6543 7.25316C27.929 7.10387 28.2037 6.96056 28.4724 6.82322C28.6515 6.73365 28.8307 6.65005 29.0098 6.56048C29.2785 6.42314 29.5413 6.29774 29.804 6.18429C29.9772 6.10069 30.1444 6.02904 30.3175 5.95141C30.5862 5.83198 30.843 5.71853 31.0998 5.61104C31.261 5.53939 31.4222 5.46773 31.5834 5.40205C31.8462 5.28859 32.1029 5.18708 32.3597 5.08557C32.503 5.02586 32.6523 4.96614 32.7897 4.9124C33.0643 4.79895 33.3211 4.69743 33.5838 4.60189C33.7033 4.55412 33.8167 4.50635 33.9361 4.46455C34.2287 4.3511 34.5094 4.24958 34.7781 4.14807C34.8497 4.11822 34.9333 4.08836 35.005 4.0585C35.3454 3.92714 35.6738 3.80771 35.9843 3.70022C36.9457 3.35389 37.8951 3.04338 38.8326 2.7687C40.0388 2.41042 41.2271 2.10588 42.3915 1.85509C42.8931 1.74163 43.3887 1.65206 43.8784 1.55652C47.0372 0.983278 50.0169 0.768311 52.7518 0.768311C58.3469 0.768311 62.891 1.67595 65.7394 2.26114C66.3484 2.38654 67.0053 2.52388 67.6979 2.67913C68.092 2.7687 68.4981 2.8523 68.9161 2.95381L68.922 2.95978Z" fill="#BFD2EF"/>
<path d="M32.2701 18.7659C31.3087 18.7659 30.425 18.6047 29.6248 18.2763C28.7649 17.924 28.2873 17.512 27.7857 17.0701C27.2542 16.6103 26.7108 16.1266 25.6419 15.625C24.7701 15.213 22.4294 14.2934 19.6109 14.586C19.5632 14.592 19.5154 14.5561 19.5094 14.5024C19.5094 14.4546 19.5393 14.4069 19.593 14.4009C22.4652 14.0964 24.8358 15.0398 25.7256 15.4578C26.8183 15.9714 27.4035 16.4789 27.917 16.9327C28.4305 17.3806 28.8724 17.7687 29.7024 18.1031C31.5177 18.8376 33.7749 18.7182 36.4142 17.7448C36.462 17.7269 36.5157 17.7508 36.5336 17.7986C36.5515 17.8463 36.5277 17.9001 36.4799 17.918C34.9512 18.4793 33.548 18.7659 32.282 18.7659H32.2701Z" fill="#67B4C6"/>
<path d="M37.3218 16.8491C38.1159 16.8491 38.7668 17.7687 38.7668 17.7687C38.7668 17.7687 38.1219 18.6943 37.3277 18.6943C36.5336 18.6943 35.8827 18.2822 35.8827 17.7747C35.8827 17.2671 36.5276 16.8491 37.3218 16.8491Z" fill="#67B4C6"/>
<path d="M34.0793 18.4255C34.778 18.8077 34.9034 19.9243 34.9034 19.9243C34.9034 19.9243 33.8942 20.4259 33.1956 20.0497C32.4969 19.6675 32.1267 18.9987 32.3715 18.5509C32.6164 18.103 33.3807 18.0493 34.0793 18.4255Z" fill="#67B4C6"/>
<path d="M29.0813 10.848C29.6963 10.3404 30.7831 10.6449 30.7831 10.6449C30.7831 10.6449 30.8727 11.7675 30.2517 12.2751C29.6366 12.7827 28.8723 12.8722 28.5498 12.4781C28.2274 12.084 28.4603 11.3555 29.0813 10.848Z" fill="#67B4C6"/>
<path d="M29.0277 13.4574C29.6606 13.9351 29.6188 15.0636 29.6188 15.0636C29.6188 15.0636 28.544 15.41 27.911 14.9323C27.2781 14.4546 27.0094 13.732 27.3199 13.326C27.6304 12.9199 28.3947 12.9796 29.0277 13.4574Z" fill="#67B4C6"/>
<path d="M24.8536 11.7317C25.1821 11.0092 26.2928 10.8002 26.2928 10.8002C26.2928 10.8002 26.866 11.7735 26.5376 12.496C26.2091 13.2185 25.5643 13.6365 25.0985 13.4275C24.6327 13.2186 24.5252 12.4542 24.8536 11.7317Z" fill="#67B4C6"/>
<path d="M32.3119 20.0258C32.4552 20.8081 31.667 21.6142 31.667 21.6142C31.667 21.6142 30.6399 21.1484 30.4966 20.3662C30.3533 19.5839 30.6399 18.8733 31.1415 18.7778C31.6431 18.6823 32.1686 19.2436 32.3119 20.0258Z" fill="#67B4C6"/>
<path d="M29.4815 19.1003C29.1889 19.8407 28.0901 20.1035 28.0901 20.1035C28.0901 20.1035 27.4691 19.166 27.7617 18.4255C28.0543 17.6851 28.6753 17.2372 29.153 17.4223C29.6307 17.6075 29.774 18.3598 29.4815 19.1003Z" fill="#67B4C6"/>
<path d="M26.8004 18.5867C27.2423 19.2495 26.8243 20.3005 26.8243 20.3005C26.8243 20.3005 25.6957 20.2706 25.2598 19.6078C24.8179 18.945 24.806 18.1747 25.2359 17.894C25.6599 17.6134 26.3645 17.9239 26.8004 18.5867Z" fill="#67B4C6"/>
<path d="M25.4927 17.8343C25.1224 18.3478 24.0715 18.2284 24.0715 18.2284C24.0715 18.2284 23.6177 17.273 23.9879 16.7595C24.3581 16.2459 24.9911 16.0668 25.4091 16.3654C25.827 16.6639 25.8629 17.3208 25.4927 17.8343Z" fill="#67B4C6"/>
<path d="M25.1344 20.7961C24.8418 21.5365 23.7431 21.7993 23.7431 21.7993C23.7431 21.7993 23.1221 20.8618 23.4147 20.1213C23.7073 19.3809 24.3283 18.933 24.806 19.1182C25.2837 19.3033 25.427 20.0556 25.1344 20.7961Z" fill="#67B4C6"/>
<path d="M37.0054 21.9367C37.7219 22.289 37.8891 23.4056 37.8891 23.4056C37.8891 23.4056 36.8978 23.949 36.1873 23.5967C35.4707 23.2444 35.0766 22.5875 35.3035 22.1277C35.5304 21.668 36.2948 21.5844 37.0054 21.9367Z" fill="#67B4C6"/>
<path d="M34.7183 22.7607C34.8795 23.543 34.1092 24.361 34.1092 24.361C34.1092 24.361 33.0702 23.9192 32.909 23.1369C32.7478 22.3547 33.0224 21.6381 33.5181 21.5366C34.0197 21.4351 34.5571 21.9785 34.7183 22.7607Z" fill="#67B4C6"/>
<path d="M30.837 16.9148C31.5834 16.6461 32.5089 17.2969 32.5089 17.2969C32.5089 17.2969 32.2163 18.3837 31.4639 18.6584C30.7116 18.9271 29.9652 18.7599 29.792 18.2762C29.6188 17.7925 30.0846 17.1894 30.837 16.9148Z" fill="#67B4C6"/>
<path d="M35.602 22.5159C35.602 22.5159 35.596 22.5159 35.59 22.5159C35.2735 22.4801 33.6673 22.2352 32.7775 20.7962C32.2819 19.996 32.2222 19.1839 32.258 18.6465C32.258 18.5987 32.3058 18.5509 32.3536 18.5629C32.4013 18.5629 32.4431 18.6107 32.4372 18.6584C32.4073 19.172 32.4611 19.9423 32.9328 20.7006C33.7748 22.0681 35.3094 22.3009 35.6079 22.3308C35.6557 22.3308 35.6975 22.3845 35.6915 22.4323C35.6915 22.4801 35.6438 22.5159 35.602 22.5159Z" fill="#67B4C6"/>
<path d="M22.8892 14.7352C22.8892 14.7352 22.8414 14.7292 22.8235 14.7113C22.7877 14.6755 22.7877 14.6158 22.8235 14.58C23.552 13.8276 24.3223 13.3917 25.1224 13.2842C25.4747 13.2364 25.7852 13.2543 26.0838 13.2782C26.5197 13.3081 26.9317 13.3379 27.4692 13.1528C27.9051 13.0035 28.3111 12.7587 28.6754 12.4124C28.7112 12.3765 28.7709 12.3765 28.8067 12.4124C28.8426 12.4482 28.8426 12.5079 28.8067 12.5437C28.4246 12.908 27.9946 13.1707 27.5348 13.326C26.9676 13.5171 26.5137 13.4872 26.0778 13.4573C25.7852 13.4394 25.4867 13.4156 25.1523 13.4633C24.3939 13.5648 23.6595 13.9828 22.9608 14.7054C22.9429 14.7233 22.919 14.7352 22.8952 14.7352H22.8892Z" fill="#67B4C6"/>
<path d="M24.4417 19.5899C24.4417 19.5899 24.4118 19.5899 24.3939 19.5779C24.3521 19.554 24.3342 19.4943 24.3641 19.4525C24.8179 18.7001 25.0866 17.8522 25.1284 16.9924C25.1583 16.4131 25.0926 15.8339 24.9254 15.2666C24.9134 15.2189 24.9373 15.1651 24.9851 15.1532C25.0389 15.1412 25.0866 15.1651 25.0986 15.2129C25.2658 15.7981 25.3374 16.4012 25.3075 16.9983C25.2598 17.8821 24.9851 18.7658 24.5193 19.5421C24.5014 19.572 24.4716 19.5839 24.4417 19.5839V19.5899Z" fill="#67B4C6"/>
<path d="M51.0976 23.8414C51.0618 23.8414 51.0319 23.8235 51.014 23.7876C50.9901 23.7399 51.014 23.6861 51.0558 23.6682C52.5307 22.9755 53.7907 22.044 54.7879 20.8975C56.3942 19.0524 56.9256 17.1057 57.3973 15.392C57.9109 13.523 58.3528 11.9047 59.9889 10.8717C60.7532 10.388 61.2966 10.3343 61.9356 10.2686C62.5984 10.1969 63.3567 10.1193 64.5987 9.558C65.4765 9.1639 67.6979 7.98755 69.3101 5.64679C69.34 5.60499 69.3937 5.59305 69.4355 5.62291C69.4773 5.65276 69.4893 5.70651 69.4594 5.74831C67.8233 8.12489 65.5661 9.31915 64.6704 9.71923C63.3985 10.2925 62.5924 10.3761 61.9475 10.4418C61.3085 10.5074 60.807 10.5612 60.0844 11.015C58.508 12.0122 58.0721 13.5946 57.5705 15.4278C57.0988 17.1655 56.5554 19.13 54.9252 21.005C53.9101 22.1694 52.6322 23.1188 51.1334 23.8175C51.1215 23.8235 51.1095 23.8235 51.0916 23.8235L51.0976 23.8414Z" fill="#67B4C6"/>
<path d="M51.1873 24.9939C50.5424 25.4656 49.4795 25.0954 49.4795 25.0954C49.4795 25.0954 49.4556 23.9668 50.1005 23.501C50.7454 23.0293 51.5097 22.9875 51.8083 23.3995C52.1069 23.8115 51.8322 24.5281 51.1873 24.9939Z" fill="#67B4C6"/>
<path d="M56.9854 14.162C56.239 14.4486 55.3075 13.8157 55.3075 13.8157C55.3075 13.8157 55.5822 12.7229 56.3226 12.4363C57.069 12.1497 57.8155 12.3049 58.0006 12.7826C58.1857 13.2603 57.7259 13.8754 56.9854 14.162Z" fill="#67B4C6"/>
<path d="M56.3823 16.8909C55.6359 17.1775 54.7043 16.5445 54.7043 16.5445C54.7043 16.5445 54.979 15.4518 55.7195 15.1652C56.4659 14.8785 57.2123 15.0338 57.3974 15.5115C57.5825 15.9892 57.1227 16.6043 56.3823 16.8909Z" fill="#67B4C6"/>
<path d="M65.9782 18.5807C65.9603 19.3749 65.0228 20.0019 65.0228 20.0019C65.0228 20.0019 64.1092 19.339 64.1271 18.5389C64.145 17.7387 64.569 17.1058 65.0825 17.1177C65.59 17.1297 65.9961 17.7805 65.9782 18.5807Z" fill="#67B4C6"/>
<path d="M54.7043 23.7698C54.6863 24.564 53.7489 25.191 53.7489 25.191C53.7489 25.191 52.8353 24.5281 52.8532 23.728C52.8711 22.9278 53.295 22.2949 53.8086 22.3068C54.3161 22.3187 54.7222 22.9696 54.7043 23.7698Z" fill="#67B4C6"/>
<path d="M64.0316 16.843C63.2553 17.0162 62.4253 16.2519 62.4253 16.2519C62.4253 16.2519 62.8552 15.2129 63.6375 15.0397C64.4138 14.8665 65.1363 15.1352 65.2438 15.6309C65.3513 16.1265 64.8138 16.6699 64.0316 16.843Z" fill="#67B4C6"/>
<path d="M66.1692 12.4721C65.3929 12.6452 64.5629 11.8809 64.5629 11.8809C64.5629 11.8809 64.9928 10.8419 65.7751 10.6687C66.5573 10.4956 67.2739 10.7643 67.3813 11.2599C67.4888 11.7555 66.9514 12.2989 66.1692 12.4721Z" fill="#67B4C6"/>
<path d="M68.0561 14.7889C68.3905 15.5115 67.8292 16.4848 67.8292 16.4848C67.8292 16.4848 66.7185 16.2877 66.3841 15.5652C66.0498 14.8427 66.1513 14.0843 66.6111 13.8694C67.0708 13.6544 67.7217 14.0664 68.0561 14.7889Z" fill="#67B4C6"/>
<path d="M68.6772 8.97278C69.0116 9.69531 68.4503 10.6686 68.4503 10.6686C68.4503 10.6686 67.3396 10.4716 67.0052 9.74905C66.6708 9.02652 66.7724 8.26817 67.2322 8.0532C67.6919 7.83823 68.3428 8.25025 68.6772 8.97278Z" fill="#67B4C6"/>
<path d="M56.9197 11.7734C56.227 11.3734 56.1315 10.2508 56.1315 10.2508C56.1315 10.2508 57.1526 9.77305 57.8452 10.1731C58.5379 10.5732 58.8842 11.2539 58.6335 11.6958C58.3767 12.1377 57.6124 12.1735 56.9197 11.7734Z" fill="#67B4C6"/>
<path d="M59.4636 10.2268C59.0874 9.52222 59.6009 8.51904 59.6009 8.51904C59.6009 8.51904 60.7175 8.65638 61.0937 9.361C61.4699 10.0656 61.4042 10.8299 60.9564 11.0688C60.5085 11.3076 59.8398 10.9315 59.4636 10.2268Z" fill="#67B4C6"/>
<path d="M61.5952 8.51902C60.807 8.42348 60.2755 7.42627 60.2755 7.42627C60.2755 7.42627 61.0279 6.59029 61.8221 6.68583C62.6103 6.78137 63.2014 7.27102 63.1417 7.77858C63.082 8.28614 62.3894 8.61456 61.5952 8.51902Z" fill="#67B4C6"/>
<path d="M63.0163 8.0175C62.867 7.40246 63.6373 6.67993 63.6373 6.67993C63.6373 6.67993 64.6584 6.95461 64.8077 7.57563C64.9569 8.19664 64.6822 8.7878 64.1866 8.9132C63.691 9.03263 63.1656 8.63852 63.0163 8.0175Z" fill="#67B4C6"/>
<path d="M60.9981 5.81998C60.6219 5.11536 61.1354 4.11218 61.1354 4.11218C61.1354 4.11218 62.2521 4.24952 62.6283 4.95414C63.0045 5.65875 62.9388 6.42308 62.4909 6.66193C62.0431 6.90079 61.3743 6.52459 60.9981 5.81998Z" fill="#67B4C6"/>
<path d="M50.178 18.2225C49.4555 17.8881 49.2524 16.7834 49.2524 16.7834C49.2524 16.7834 50.2258 16.2102 50.9483 16.5446C51.6708 16.879 52.0888 17.5239 51.8739 17.9836C51.6589 18.4494 50.9006 18.5569 50.178 18.2225Z" fill="#67B4C6"/>
<path d="M52.9188 18.1985C52.5247 17.5058 53.0143 16.4907 53.0143 16.4907C53.0143 16.4907 54.1369 16.5982 54.531 17.2909C54.9252 17.9836 54.8834 18.7479 54.4355 18.9987C53.9936 19.2495 53.3129 18.8912 52.9188 18.1985Z" fill="#67B4C6"/>
<path d="M52.6502 21.9187C51.8978 21.6619 51.5813 20.5752 51.5813 20.5752C51.5813 20.5752 52.4889 19.9123 53.2473 20.1691C53.9997 20.4259 54.4774 21.029 54.3162 21.5126C54.149 21.9963 53.4085 22.1755 52.6502 21.9187Z" fill="#67B4C6"/>
<path d="M51.5753 19.8705C50.799 20.0497 49.963 19.2973 49.963 19.2973C49.963 19.2973 50.381 18.2523 51.1573 18.0672C51.9335 17.888 52.6561 18.1448 52.7695 18.6404C52.883 19.1361 52.3515 19.6854 51.5753 19.8705Z" fill="#67B4C6"/>
<path d="M60.2399 12.6751C59.9592 13.4215 58.8665 13.6962 58.8665 13.6962C58.8665 13.6962 58.2275 12.7647 58.5141 12.0183C58.7948 11.2719 59.4098 10.818 59.8875 10.9972C60.3652 11.1763 60.5265 11.9287 60.2399 12.6751Z" fill="#67B4C6"/>
<path d="M58.5498 18.0314C59.0395 18.6584 58.7051 19.7392 58.7051 19.7392C58.7051 19.7392 57.5765 19.793 57.0928 19.166C56.6032 18.539 56.5375 17.7747 56.9375 17.4582C57.3376 17.1417 58.0661 17.4044 58.5498 18.0314Z" fill="#67B4C6"/>
<path d="M60.2338 23.0174C60.4547 23.7817 59.7441 24.6595 59.7441 24.6595C59.7441 24.6595 58.6753 24.2953 58.4603 23.531C58.2394 22.7666 58.4603 22.0322 58.9499 21.8888C59.4396 21.7455 60.0188 22.2531 60.2338 23.0174Z" fill="#67B4C6"/>
<path d="M60.3352 20.0975C61.0458 20.4618 61.1951 21.5784 61.1951 21.5784C61.1951 21.5784 60.1979 22.1039 59.4873 21.7456C58.7767 21.3813 58.3945 20.7185 58.6274 20.2647C58.8603 19.8109 59.6246 19.7392 60.3352 20.0975Z" fill="#67B4C6"/>
<path d="M59.7799 16.1981C60.4905 16.5623 60.6398 17.679 60.6398 17.679C60.6398 17.679 59.6426 18.2044 58.932 17.8462C58.2214 17.4819 57.8392 16.8191 58.0721 16.3653C58.305 15.9115 59.0693 15.8398 59.7799 16.1981Z" fill="#67B4C6"/>
<path d="M57.1586 20.9931C57.2243 21.7873 56.3584 22.5098 56.3584 22.5098C56.3584 22.5098 55.3851 21.9426 55.3194 21.1484C55.2537 20.3542 55.612 19.6794 56.1195 19.6317C56.6271 19.5899 57.0929 20.1989 57.1586 20.9931Z" fill="#67B4C6"/>
<path d="M54.0295 19.0942C53.9101 19.0942 53.7907 19.0883 53.6653 19.0763C52.7338 18.9748 52.053 18.527 51.647 18.1687C51.6112 18.1329 51.6052 18.0791 51.641 18.0373C51.6768 18.0015 51.7306 17.9955 51.7724 18.0313C52.1605 18.3717 52.8054 18.8016 53.6892 18.8972C55.2835 19.0644 56.4121 18.0015 56.6211 17.7865C56.6569 17.7507 56.7166 17.7507 56.7525 17.7865C56.7883 17.8223 56.7883 17.8821 56.7525 17.9179C56.5494 18.1269 55.5224 19.1002 54.0355 19.1002L54.0295 19.0942Z" fill="#67B4C6"/>
<path d="M64.9629 17.3507C64.9151 17.3507 64.8734 17.3089 64.8734 17.2611C64.8554 16.7416 64.939 16.252 65.1062 15.7922C65.4347 14.9024 66.0258 14.365 66.3841 14.0426C66.4498 13.9829 66.5155 13.9231 66.5632 13.8754C67.4589 12.9916 67.6082 11.1763 67.0111 8.48925C66.9992 8.44148 67.029 8.38774 67.0827 8.38176C67.1305 8.36982 67.1783 8.39968 67.1902 8.45342C67.8053 11.2122 67.6381 13.0812 66.6946 14.0127C66.6409 14.0665 66.5811 14.1202 66.5095 14.1859C66.1452 14.5143 65.5899 15.0159 65.2794 15.8638C65.1182 16.2997 65.0465 16.7715 65.0585 17.2671C65.0585 17.3148 65.0226 17.3626 64.9689 17.3626L64.9629 17.3507Z" fill="#67B4C6"/>
<path d="M65.2974 9.42677C65.2974 9.42677 65.2735 9.42677 65.2615 9.4208C64.7062 9.17001 64.2046 8.82964 63.7687 8.41762C63.1238 7.80855 62.6342 7.02631 62.3535 6.16644C62.3356 6.11867 62.3655 6.06493 62.4133 6.05298C62.461 6.03507 62.5148 6.06493 62.5267 6.1127C62.8014 6.94868 63.2731 7.70107 63.8941 8.29223C64.3121 8.6923 64.8018 9.01475 65.3332 9.25958C65.381 9.28346 65.3989 9.33721 65.381 9.379C65.3631 9.41483 65.3332 9.43275 65.2974 9.43275V9.42677Z" fill="#67B4C6"/>
<path d="M58.8783 22.1217C58.8305 22.1217 58.7887 22.0799 58.7887 22.0321C58.7887 21.1603 58.735 20.2885 58.6096 19.4346C58.4006 18.0074 58.0125 16.6042 57.4571 15.2547C57.4392 15.2069 57.4571 15.1531 57.5049 15.1352C57.5527 15.1173 57.6064 15.1352 57.6243 15.183C58.1856 16.5445 58.5797 17.9656 58.7887 19.4047C58.9141 20.2646 58.9738 21.1483 58.9738 22.0261C58.9738 22.0739 58.932 22.1157 58.8843 22.1157L58.8783 22.1217Z" fill="#67B4C6"/>
<path d="M43.8903 1.5625V30.7861H42.4034V1.86107C42.905 1.74761 43.4006 1.65804 43.8903 1.5625Z" fill="white"/>
<path d="M43.144 14.2157V15.7085H16.924C16.924 15.7085 16.9359 15.6846 16.9418 15.6727C16.9836 15.5712 17.0255 15.4756 17.0732 15.3741C17.127 15.2487 17.1747 15.1413 17.2285 15.0218C17.3419 14.7412 17.4673 14.4784 17.5927 14.2157H43.1499H43.144Z" fill="white"/>
<path d="M29.804 6.19638C29.9771 6.11875 30.1503 6.03516 30.3175 5.9635C30.1443 6.04113 29.9771 6.11875 29.804 6.19638Z" fill="white"/>
<path d="M31.1057 5.61708C31.2669 5.54542 31.4282 5.47974 31.5894 5.40808C31.4282 5.47377 31.2669 5.54542 31.1057 5.61708Z" fill="white"/>
<path d="M28.4783 6.83525C28.6574 6.74568 28.8366 6.66208 29.0097 6.57251C28.8306 6.65611 28.6574 6.74568 28.4783 6.83525Z" fill="white"/>
<path d="M27.1228 7.53981C27.3019 7.44426 27.4811 7.34872 27.6543 7.25916C27.4751 7.3547 27.3019 7.44426 27.1228 7.53981Z" fill="white"/>
<path d="M34.7781 4.14805C34.8557 4.11819 34.9333 4.08834 35.005 4.06445C34.9333 4.09431 34.8497 4.12417 34.7781 4.14805Z" fill="white"/>
<path d="M24.3761 9.16397C24.4836 9.09232 24.5851 9.0326 24.6926 8.96692C24.5851 9.0326 24.4836 9.09829 24.3761 9.16397Z" fill="white"/>
<path d="M19.7483 12.7527C19.9513 12.5616 20.1603 12.3705 20.3693 12.1914C20.1603 12.3765 19.9573 12.5616 19.7483 12.7527Z" fill="white"/>
<path d="M17.2166 15.3742C17.4196 15.1353 17.6286 14.9024 17.8376 14.6696C17.6286 14.8965 17.4255 15.1353 17.2166 15.3742Z" fill="white"/>
<path d="M19.0795 13.3798C18.8705 13.5828 18.6615 13.7978 18.4525 14.0127C18.6615 13.7978 18.8645 13.5888 19.0795 13.3798Z" fill="white"/>
<path d="M70.6836 3.37772V32.5953H15.0967V18.1567C15.246 17.9358 15.3952 17.7148 15.5445 17.5058C15.9924 16.8789 16.4641 16.2817 16.9418 15.7144C16.9418 15.7085 16.9478 15.7025 16.9537 15.6965V30.7741H68.9221V2.9657C69.4893 3.09707 70.0745 3.23441 70.6836 3.38369V3.37772Z" fill="white"/>
<path d="M22.5369 10.4479C22.7041 10.3284 22.8653 10.1971 23.0325 10.0776C22.8653 10.1971 22.7041 10.3225 22.5369 10.4479Z" fill="white"/>
<path opacity="0.5" d="M97.3096 44.6694C96.2049 45.9413 94.2702 45.9592 92.5803 45.8816C82.226 45.374 71.8658 44.8605 61.5116 44.347C61.5474 42.2391 61.5772 40.1014 61.0816 38.0592C60.586 36.005 59.4873 34.0226 57.7078 32.894C57.5406 32.7865 57.3675 32.691 57.1943 32.5954C56.0418 31.9804 54.7281 31.6161 53.7309 30.7742C53.6951 30.7503 53.6652 30.7264 53.6294 30.6906C51.7425 29.0246 51.6708 26.1165 52.0351 23.6325C52.053 23.4951 52.0769 23.3578 52.0948 23.2205C52.1724 22.7368 52.256 22.2471 52.3396 21.7575C52.4292 21.2201 52.5008 20.6767 52.5546 20.1393C52.5844 19.8347 52.6023 19.5362 52.6083 19.2316C52.6202 19.0525 52.6203 18.8733 52.6203 18.7002C52.6203 18.5867 52.6143 18.4852 52.6083 18.3717C52.5785 17.6194 52.4471 16.8849 52.1784 16.1683C52.1187 16.0131 52.053 15.8578 51.9873 15.7085C51.7305 15.1652 51.4021 14.6636 51.0259 14.2157C49.4614 12.3407 46.9714 11.1644 44.7202 10.0119C44.4635 9.88054 44.1828 9.73126 43.8783 9.55809C43.4125 9.29535 42.9049 8.98485 42.3914 8.63851C40.2955 7.22331 38.1219 5.15723 38.7668 2.94785C38.7847 2.89411 38.8027 2.82842 38.8265 2.77468C40.0328 2.4164 41.221 2.11187 42.3854 1.86107C42.887 1.74762 43.3827 1.65805 43.8723 1.56251C47.0311 0.989259 50.0108 0.774292 52.7457 0.774292C58.3408 0.774292 62.885 1.68193 65.7333 2.26712C66.3423 2.39252 66.9992 2.52986 67.6918 2.68511C68.086 2.77468 68.492 2.85828 68.91 2.95979C69.4773 3.09116 70.0625 3.2285 70.6715 3.37778C71.0417 3.47333 71.4299 3.56887 71.818 3.67038C71.8479 4.26154 71.8419 4.8527 71.8479 5.42594C71.8598 12.1078 74.8395 18.73 79.8315 23.1787C82.2499 25.3283 85.1699 27.066 86.8418 29.8486C87.7435 31.3414 88.2332 33.091 89.3618 34.4286C90.4127 35.6766 91.9055 36.4409 93.3446 37.1993C94.7837 37.9636 96.2586 38.8056 97.1961 40.1372C98.1276 41.4688 98.3605 43.4393 97.2976 44.6694H97.3096Z" fill="white"/>
<path d="M3.38091 37.8025H45.5742C46.1534 37.8025 46.6251 38.2742 46.6251 38.8534V68.5667H2.32397V38.8534C2.32397 38.2742 2.79571 37.8025 3.37493 37.8025H3.38091Z" fill="#BFD2EF"/>
<path d="M8.26543 37.8025H50.4587C51.0379 37.8025 51.5097 38.2742 51.5097 38.8534V68.5667H7.2085V38.8534C7.2085 38.2742 7.68024 37.8025 8.25945 37.8025H8.26543Z" fill="#DAE9FE"/>
<path d="M28.1261 44.353H9.23289C9.18512 44.353 9.14331 44.3112 9.14331 44.2634V40.3821C9.14331 40.3343 9.18512 40.2925 9.23289 40.2925H28.1261C28.1739 40.2925 28.2157 40.3343 28.2157 40.3821V44.2634C28.2157 44.3112 28.1739 44.353 28.1261 44.353ZM9.32244 44.1738H28.0365V40.4716H9.32244V44.1738Z" fill="#BFD2EF"/>
<path d="M49.1929 44.353H30.2996C30.2519 44.353 30.2101 44.3112 30.2101 44.2634V40.3821C30.2101 40.3343 30.2519 40.2925 30.2996 40.2925H49.1929C49.2406 40.2925 49.2825 40.3343 49.2825 40.3821V44.2634C49.2825 44.3112 49.2406 44.353 49.1929 44.353ZM30.3892 44.1738H49.1033V40.4716H30.3892V44.1738Z" fill="#BFD2EF"/>
<path d="M28.1261 65.4675H9.23289C9.18512 65.4675 9.14331 65.4257 9.14331 65.3779V47.046C9.14331 46.9982 9.18512 46.9564 9.23289 46.9564H28.1261C28.1739 46.9564 28.2157 46.9982 28.2157 47.046V65.3779C28.2157 65.4257 28.1739 65.4675 28.1261 65.4675ZM9.32244 65.2943H28.0365V47.1415H9.32244V65.2943Z" fill="#BFD2EF"/>
<path d="M49.1929 65.4675H30.2996C30.2519 65.4675 30.2101 65.4257 30.2101 65.3779V47.046C30.2101 46.9982 30.2519 46.9564 30.2996 46.9564H49.1929C49.2406 46.9564 49.2825 46.9982 49.2825 47.046V65.3779C49.2825 65.4257 49.2406 65.4675 49.1929 65.4675ZM30.3892 65.2943H49.1033V47.1415H30.3892V65.2943Z" fill="#BFD2EF"/>
<path d="M20.8172 41.5523H16.5358C16.488 41.5523 16.4462 41.5105 16.4462 41.4627C16.4462 41.415 16.488 41.3732 16.5358 41.3732H20.8172C20.8649 41.3732 20.9068 41.415 20.9068 41.4627C20.9068 41.5105 20.8649 41.5523 20.8172 41.5523Z" fill="#BFD2EF"/>
<path d="M41.8839 41.5523H37.6025C37.5548 41.5523 37.5129 41.5105 37.5129 41.4627C37.5129 41.415 37.5548 41.3732 37.6025 41.3732H41.8839C41.9317 41.3732 41.9735 41.415 41.9735 41.4627C41.9735 41.5105 41.9317 41.5523 41.8839 41.5523Z" fill="#BFD2EF"/>
<path d="M49.0802 96.5982C71.7662 96.5982 90.1569 93.3472 90.1569 89.337C90.1569 85.3268 71.7662 82.0759 49.0802 82.0759C26.3942 82.0759 8.00354 85.3268 8.00354 89.337C8.00354 93.3472 26.3942 96.5982 49.0802 96.5982Z" fill="#FEFBC1"/>
<path d="M49.0802 99.2316C48.9548 99.2316 48.8533 99.1301 48.8533 99.0047V90C48.8533 89.8746 48.9548 89.7731 49.0802 89.7731C49.2056 89.7731 49.3071 89.8746 49.3071 90V99.0047C49.3071 99.1301 49.2056 99.2316 49.0802 99.2316Z" fill="#FEFBC1"/>
<path d="M53.6662 99.1838C53.5826 99.1838 53.5049 99.142 53.4691 99.0644L48.8831 90.1074C48.8294 89.9999 48.8712 89.8626 48.9787 89.8089C49.0861 89.7491 49.2235 89.7969 49.2772 89.9044L53.8632 98.8614C53.917 98.9688 53.8751 99.1062 53.7677 99.1599C53.7378 99.1778 53.702 99.1838 53.6662 99.1838Z" fill="#FEFBC1"/>
<path d="M58.1984 99.0345C58.1447 99.0345 58.085 99.0106 58.0432 98.9688L48.925 90.1611C48.8354 90.0775 48.8354 89.9342 48.925 89.8446C49.0086 89.7551 49.1519 89.7551 49.2414 89.8446L58.3596 98.6523C58.4492 98.7359 58.4492 98.8792 58.3596 98.9688C58.3178 99.0166 58.2581 99.0345 58.1984 99.0345Z" fill="#FEFBC1"/>
<path d="M62.6351 98.7898C62.5933 98.7898 62.5515 98.7778 62.5157 98.7539L48.9608 90.1911C48.8593 90.1254 48.8235 89.9881 48.8892 89.8806C48.9548 89.7731 49.0922 89.7432 49.1997 89.8089L62.7545 98.3718C62.856 98.4375 62.8919 98.5748 62.8262 98.6823C62.7844 98.748 62.7128 98.7838 62.6351 98.7838V98.7898Z" fill="#FEFBC1"/>
<path d="M66.9224 98.4552C66.8925 98.4552 66.8567 98.4493 66.8268 98.4373L48.9905 90.2089C48.877 90.1551 48.8293 90.0238 48.883 89.9103C48.9368 89.7968 49.0681 89.7491 49.1816 89.8028L67.0179 98.0313C67.1313 98.085 67.1791 98.2164 67.1254 98.3298C67.0895 98.4134 67.006 98.4612 66.9224 98.4612V98.4552Z" fill="#FEFBC1"/>
<path d="M71.0128 98.0254C71.0128 98.0254 70.965 98.0254 70.9352 98.0135L49.0086 90.2149C48.8951 90.1731 48.8294 90.0477 48.8712 89.9283C48.913 89.8089 49.0444 89.7551 49.1578 89.791L71.0845 97.5895C71.1979 97.6313 71.2636 97.7567 71.2218 97.8761C71.1919 97.9657 71.1024 98.0254 71.0128 98.0254Z" fill="#FEFBC1"/>
<path d="M74.8584 97.5119C74.8584 97.5119 74.8166 97.5119 74.7987 97.5059L49.0205 90.2209C48.901 90.1851 48.8294 90.0657 48.8652 89.9462C48.901 89.8268 49.0205 89.7611 49.1399 89.791L74.918 97.076C75.0375 97.1118 75.1091 97.2312 75.0733 97.3507C75.0435 97.4522 74.9539 97.5119 74.8584 97.5119Z" fill="#FEFBC1"/>
<path d="M78.4291 96.9207C78.4291 96.9207 78.3933 96.9207 78.3814 96.9207L49.0324 90.2269C48.913 90.197 48.8353 90.0776 48.8652 89.9582C48.8891 89.8387 49.0145 89.7611 49.1339 89.791L78.4829 96.4848C78.6023 96.5147 78.6799 96.6341 78.6501 96.7535C78.6262 96.855 78.5366 96.9267 78.4291 96.9267V96.9207Z" fill="#FEFBC1"/>
<path d="M81.6775 96.2518C81.6775 96.2518 81.6536 96.2518 81.6357 96.2518L49.0443 90.2267C48.9249 90.2028 48.8413 90.0894 48.8652 89.964C48.8891 89.8446 49.0025 89.761 49.1279 89.7848L81.7193 95.8099C81.8388 95.8338 81.9224 95.9472 81.8985 96.0726C81.8806 96.1801 81.785 96.2577 81.6775 96.2577V96.2518Z" fill="#FEFBC1"/>
<path d="M84.5618 95.5234C84.5618 95.5234 84.5379 95.5234 84.526 95.5234L49.0444 90.2328C48.925 90.2149 48.8354 90.1014 48.8534 89.976C48.8713 89.8566 48.9788 89.773 49.1101 89.7849L84.5916 95.0755C84.7111 95.0934 84.8006 95.2069 84.7827 95.3323C84.7648 95.4458 84.6693 95.5234 84.5618 95.5234Z" fill="#FEFBC1"/>
<path d="M87.0636 94.7293C87.0636 94.7293 87.0457 94.7293 87.0397 94.7293L49.0562 90.2269C48.9308 90.215 48.8472 90.1015 48.8592 89.9761C48.8711 89.8507 48.9905 89.7671 49.11 89.7791L87.0935 94.2815C87.2189 94.2934 87.3025 94.4068 87.2905 94.5322C87.2786 94.6457 87.183 94.7293 87.0696 94.7293H87.0636Z" fill="#FEFBC1"/>
<path d="M89.1476 93.8933C89.1476 93.8933 89.1357 93.8933 89.1297 93.8933L49.0622 90.2328C48.9368 90.2209 48.8473 90.1134 48.8592 89.988C48.8712 89.8626 48.9727 89.7671 49.104 89.785L89.1715 93.4454C89.2969 93.4574 89.3865 93.5648 89.3746 93.6902C89.3626 93.8037 89.2671 93.8933 89.1536 93.8933H89.1476Z" fill="#FEFBC1"/>
<path d="M90.7958 93.0094C90.7958 93.0094 90.7838 93.0094 90.7779 93.0094L49.0683 90.2268C48.9429 90.2208 48.8533 90.1134 48.8593 89.988C48.8653 89.8626 48.9608 89.773 49.0981 89.779L90.8078 92.5616C90.9332 92.5676 91.0227 92.6751 91.0167 92.8005C91.0108 92.9199 90.9093 93.0094 90.7958 93.0094Z" fill="#FEFBC1"/>
<path d="M91.9781 92.1018C91.9781 92.1018 91.9721 92.1018 91.9662 92.1018L49.0683 90.2268C48.9429 90.2268 48.8473 90.1193 48.8533 89.9939C48.8533 89.8685 48.9369 89.7789 49.0862 89.7789L91.9841 91.6539C92.1095 91.6539 92.205 91.7614 92.199 91.8868C92.199 92.0062 92.0975 92.1018 91.9781 92.1018Z" fill="#FEFBC1"/>
<path d="M92.7005 91.1703L49.0861 90.2268C48.9607 90.2268 48.8651 90.1193 48.8651 89.9999C48.8651 89.8745 48.9607 89.773 49.092 89.7789L92.7065 90.7224C92.8319 90.7224 92.9274 90.8299 92.9274 90.9493C92.9274 91.0687 92.8259 91.1703 92.7065 91.1703H92.7005Z" fill="#FEFBC1"/>
<path d="M92.9395 90.2269H49.0802C48.9548 90.2269 48.8533 90.1254 48.8533 90C48.8533 89.8746 48.9548 89.7731 49.0802 89.7731H92.9395C93.0649 89.7731 93.1604 89.8746 93.1604 90C93.1604 90.1254 93.0589 90.2269 92.9395 90.2269Z" fill="#FEFBC1"/>
<path d="M49.0802 90.2268C48.9608 90.2268 48.8592 90.1313 48.8533 90.0059C48.8533 89.8805 48.9488 89.779 49.0742 89.779L92.6887 88.8355C92.8379 88.8236 92.9156 88.931 92.9156 89.0564C92.9156 89.1818 92.82 89.2834 92.6946 89.2834L49.0802 90.2268Z" fill="#FEFBC1"/>
<path d="M49.0802 90.2268C48.9608 90.2268 48.8593 90.1312 48.8593 90.0118C48.8593 89.8864 48.9488 89.7849 49.0742 89.7789L91.9721 87.9039C92.1214 87.9099 92.199 87.9935 92.205 88.1189C92.205 88.2443 92.1154 88.3458 91.99 88.3518L49.0921 90.2268C49.0921 90.2268 49.0862 90.2268 49.0802 90.2268Z" fill="#FEFBC1"/>
<path d="M49.0802 90.2268C48.9608 90.2268 48.8653 90.1372 48.8593 90.0178C48.8533 89.8924 48.9429 89.7849 49.0683 89.779L90.7779 86.9963C90.9152 86.9963 91.0108 87.0799 91.0167 87.2053C91.0227 87.3307 90.9332 87.4382 90.8078 87.4442L49.0981 90.2268C49.0981 90.2268 49.0862 90.2268 49.0802 90.2268Z" fill="#FEFBC1"/>
<path d="M49.0802 90.2269C48.9667 90.2269 48.8652 90.1373 48.8592 90.0239C48.8473 89.8985 48.9368 89.791 49.0622 89.779L89.1297 86.1186C89.2611 86.1007 89.3626 86.1962 89.3746 86.3216C89.3865 86.447 89.2969 86.5545 89.1715 86.5665L49.104 90.2269C49.104 90.2269 49.0921 90.2269 49.0861 90.2269H49.0802Z" fill="#FEFBC1"/>
<path d="M49.0801 90.2268C48.9666 90.2268 48.8711 90.1432 48.8592 90.0297C48.8472 89.9043 48.9308 89.7969 49.0562 89.7789L87.0397 85.2766C87.1592 85.2587 87.2726 85.3482 87.2905 85.4736C87.3025 85.599 87.2189 85.7065 87.0935 85.7244L49.11 90.2268C49.11 90.2268 49.092 90.2268 49.0861 90.2268H49.0801Z" fill="#FEFBC1"/>
<path d="M49.0802 90.2268C48.9727 90.2268 48.8771 90.1492 48.8592 90.0357C48.8413 89.9163 48.9249 89.7969 49.0503 89.779L84.5318 84.4884C84.6632 84.4705 84.7707 84.5541 84.7886 84.6795C84.8065 84.7989 84.7229 84.9183 84.5975 84.9362L49.116 90.2268C49.116 90.2268 49.0921 90.2268 49.0802 90.2268Z" fill="#FEFBC1"/>
<path d="M49.0802 90.2269C48.9728 90.2269 48.8772 90.1492 48.8593 90.0418C48.8354 89.9223 48.919 89.8029 49.0384 89.779L81.6299 83.754C81.7553 83.7301 81.8687 83.8137 81.8926 83.9331C81.9165 84.0525 81.8329 84.172 81.7134 84.1958L49.122 90.2209C49.122 90.2209 49.0922 90.2209 49.0802 90.2209V90.2269Z" fill="#FEFBC1"/>
<path d="M49.0803 90.2268C48.9787 90.2268 48.8832 90.1552 48.8593 90.0537C48.8295 89.9342 48.9071 89.8148 49.0265 89.785L78.3755 83.0911C78.4949 83.0613 78.6144 83.1389 78.6442 83.2583C78.6741 83.3777 78.5964 83.4972 78.477 83.527L49.128 90.2209C49.128 90.2209 49.0922 90.2209 49.0803 90.2209V90.2268Z" fill="#FEFBC1"/>
<path d="M49.0802 90.2267C48.9847 90.2267 48.8951 90.161 48.8652 90.0655C48.8294 89.9461 48.901 89.8207 49.0205 89.7908L74.7987 82.5058C74.9181 82.476 75.0435 82.5417 75.0733 82.6611C75.1091 82.7805 75.0375 82.9059 74.918 82.9358L49.1399 90.2208C49.1399 90.2208 49.0981 90.2267 49.0802 90.2267Z" fill="#FEFBC1"/>
<path d="M49.0801 90.2269C48.9905 90.2269 48.9009 90.1672 48.8711 90.0776C48.8293 89.9641 48.889 89.8328 49.0084 89.791L70.9351 81.9924C71.0545 81.9506 71.1799 82.0103 71.2217 82.1298C71.2635 82.2432 71.2038 82.3746 71.0844 82.4164L49.1577 90.2149C49.1577 90.2149 49.11 90.2269 49.0801 90.2269Z" fill="#FEFBC1"/>
<path d="M49.0802 90.2268C48.9966 90.2268 48.913 90.1791 48.8772 90.0955C48.8234 89.982 48.8772 89.8507 48.9846 89.7969L66.8209 81.5684C66.9344 81.5147 67.0658 81.5684 67.1195 81.6759C67.1733 81.7894 67.1195 81.9208 67.012 81.9745L49.1757 90.203C49.1459 90.2149 49.116 90.2209 49.0802 90.2209V90.2268Z" fill="#FEFBC1"/>
<path d="M49.0802 90.2268C49.0086 90.2268 48.9309 90.191 48.8891 90.1253C48.8234 90.0238 48.8533 89.8805 48.9608 89.8148L62.5157 81.2519C62.6172 81.1862 62.7605 81.2161 62.8261 81.3236C62.8918 81.4251 62.862 81.5684 62.7545 81.6341L49.1996 90.1969C49.1638 90.2208 49.122 90.2328 49.0802 90.2328V90.2268Z" fill="#FEFBC1"/>
<path d="M49.0801 90.2268C49.0204 90.2268 48.9607 90.2029 48.9189 90.1611C48.8353 90.0715 48.8353 89.9282 48.9189 89.8446L58.0371 81.0369C58.1267 80.9533 58.27 80.9533 58.3536 81.0369C58.4372 81.1265 58.4372 81.2698 58.3536 81.3534L49.2354 90.1611C49.1936 90.2029 49.1339 90.2268 49.0801 90.2268Z" fill="#FEFBC1"/>
<path d="M49.0801 90.2268C49.0443 90.2268 49.0085 90.2208 48.9786 90.2029C48.8711 90.1492 48.8234 90.0119 48.8831 89.9044L53.469 80.9474C53.5228 80.8339 53.6601 80.7922 53.7676 80.8519C53.8751 80.9056 53.9229 81.0429 53.8632 81.1504L49.2772 90.1074C49.2354 90.185 49.1578 90.2268 49.0801 90.2268Z" fill="#FEFBC1"/>
<path d="M49.0802 90.2269C48.9548 90.2269 48.8533 90.1254 48.8533 90V80.9952C48.8533 80.8698 48.9548 80.7683 49.0802 80.7683C49.2056 80.7683 49.3071 80.8698 49.3071 80.9952V90C49.3071 90.1254 49.2056 90.2269 49.0802 90.2269Z" fill="#FEFBC1"/>
<path d="M49.0802 90.2269C48.9966 90.2269 48.919 90.1851 48.8832 90.1075L44.2972 81.1505C44.2434 81.043 44.2852 80.9057 44.3927 80.8519C44.5002 80.7922 44.6375 80.84 44.6913 80.9475L49.2772 89.9044C49.331 90.0119 49.2892 90.1493 49.1817 90.203C49.1519 90.2209 49.116 90.2269 49.0802 90.2269Z" fill="#FEFBC1"/>
<path d="M49.0803 90.2268C49.0265 90.2268 48.9668 90.2029 48.925 90.1611L39.8068 81.3534C39.7172 81.2698 39.7172 81.1265 39.8068 81.0369C39.8904 80.9473 40.0337 80.9473 40.1233 81.0369L49.2415 89.8446C49.331 89.9282 49.331 90.0715 49.2415 90.1611C49.1997 90.2088 49.14 90.2268 49.0803 90.2268Z" fill="#FEFBC1"/>
<path d="M49.0802 90.2268C49.0384 90.2268 48.9966 90.2149 48.9608 90.191L35.4059 81.6281C35.3044 81.5624 35.2685 81.4251 35.3342 81.3176C35.3999 81.2101 35.5373 81.1803 35.6448 81.2459L49.1996 89.8088C49.3011 89.8745 49.337 90.0118 49.2713 90.1193C49.2295 90.185 49.1578 90.2208 49.0802 90.2208V90.2268Z" fill="#FEFBC1"/>
<path d="M49.0802 90.2269C49.0503 90.2269 49.0145 90.2209 48.9846 90.2089L31.1483 81.9805C31.0349 81.9267 30.9871 81.7954 31.0409 81.6819C31.0946 81.5685 31.226 81.5207 31.3394 81.5744L49.1757 89.8029C49.2892 89.8566 49.3369 89.988 49.2832 90.1015C49.2474 90.1851 49.1638 90.2328 49.0802 90.2328V90.2269Z" fill="#FEFBC1"/>
<path d="M49.0801 90.2269C49.0801 90.2269 49.0323 90.2269 49.0025 90.2149L27.0758 82.4164C26.9623 82.3746 26.8967 82.2492 26.9385 82.1298C26.9803 82.0103 27.1056 81.9506 27.2251 81.9924L49.1517 89.791C49.2652 89.8328 49.3309 89.9582 49.2891 90.0776C49.2592 90.1672 49.1697 90.2269 49.0801 90.2269Z" fill="#FEFBC1"/>
<path d="M49.0802 90.2267C49.0802 90.2267 49.0383 90.2267 49.0204 90.2208L23.2423 82.9358C23.1228 82.8999 23.0512 82.7805 23.087 82.6611C23.1169 82.5417 23.2423 82.476 23.3617 82.5058L49.1399 89.7908C49.2593 89.8266 49.3309 89.9461 49.2951 90.0655C49.2653 90.167 49.1757 90.2267 49.0802 90.2267Z" fill="#FEFBC1"/>
<path d="M49.0801 90.2269C49.0801 90.2269 49.0443 90.2269 49.0324 90.2269L19.6834 83.533C19.5639 83.5032 19.4863 83.3837 19.5162 83.2643C19.5401 83.1449 19.6655 83.0673 19.7849 83.0971L49.1339 89.7909C49.2533 89.8208 49.3309 89.9402 49.3011 90.0597C49.2772 90.1612 49.1876 90.2328 49.0801 90.2328V90.2269Z" fill="#FEFBC1"/>
<path d="M49.0801 90.2269C49.0801 90.2269 49.0562 90.2269 49.0383 90.2269L16.4469 84.2018C16.3275 84.1779 16.2439 84.0645 16.2678 83.9391C16.2916 83.8197 16.4051 83.7361 16.5305 83.7599L49.1219 89.785C49.2414 89.8089 49.3249 89.9223 49.3011 90.0477C49.2831 90.1552 49.1876 90.2328 49.0801 90.2328V90.2269Z" fill="#FEFBC1"/>
<path d="M49.0802 90.2269C49.0802 90.2269 49.0563 90.2269 49.0444 90.2269L13.5628 84.9363C13.4434 84.9184 13.3539 84.805 13.3718 84.6796C13.3897 84.5601 13.4972 84.4706 13.6286 84.4885L49.1101 89.7791C49.2295 89.797 49.3191 89.9104 49.3012 90.0358C49.2832 90.1493 49.1877 90.2269 49.0802 90.2269Z" fill="#FEFBC1"/>
<path d="M49.0801 90.2268C49.0801 90.2268 49.0622 90.2268 49.0562 90.2268L11.0727 85.7244C10.9473 85.7125 10.8637 85.599 10.8756 85.4736C10.8876 85.3482 11.0011 85.2587 11.1265 85.2766L49.11 89.7789C49.2354 89.7909 49.319 89.9043 49.307 90.0297C49.2951 90.1432 49.1996 90.2268 49.0861 90.2268H49.0801Z" fill="#FEFBC1"/>
<path d="M49.0802 90.2268C49.0802 90.2268 49.0682 90.2268 49.0622 90.2268L8.99476 86.5664C8.86936 86.5545 8.77977 86.447 8.79172 86.3216C8.80366 86.2022 8.90519 86.1066 9.03656 86.1186L49.104 89.779C49.2294 89.7909 49.319 89.8984 49.3071 90.0238C49.2951 90.1373 49.1996 90.2268 49.0861 90.2268H49.0802Z" fill="#FEFBC1"/>
<path d="M49.0801 90.2269C49.0801 90.2269 49.0682 90.2269 49.0622 90.2269L7.35261 87.4442C7.22721 87.4383 7.13762 87.3308 7.14359 87.2054C7.14956 87.08 7.24512 86.9904 7.38246 86.9964L49.0921 89.779C49.2175 89.785 49.307 89.8925 49.3011 90.0179C49.2951 90.1373 49.1936 90.2269 49.0801 90.2269Z" fill="#FEFBC1"/>
<path d="M49.0802 90.2268C49.0802 90.2268 49.0742 90.2268 49.0682 90.2268L6.1703 88.3518C6.0449 88.3518 5.94937 88.2443 5.95534 88.1189C5.95534 87.9995 6.05685 87.9039 6.17628 87.9039C6.17628 87.9039 6.18226 87.9039 6.18823 87.9039L49.0861 89.7789C49.2115 89.7789 49.3071 89.8864 49.3011 90.0118C49.3011 90.1312 49.1996 90.2268 49.0802 90.2268Z" fill="#FEFBC1"/>
<path d="M49.0803 90.2268L5.45986 89.2834C5.33447 89.2834 5.23889 89.1759 5.23889 89.0564C5.23889 88.931 5.35832 88.8236 5.4658 88.8355L49.0863 89.779C49.2117 89.779 49.3072 89.8864 49.3072 90.0059C49.3072 90.1253 49.2057 90.2268 49.0803 90.2268Z" fill="#FEFBC1"/>
<path d="M49.0802 90.2269H5.22094C5.09554 90.2269 5 90.1254 5 90C5 89.8746 5.10151 89.7731 5.22094 89.7731H49.0802C49.2056 89.7731 49.3071 89.8746 49.3071 90C49.3071 90.1254 49.2056 90.2269 49.0802 90.2269Z" fill="#FEFBC1"/>
<path d="M5.46569 91.1703C5.34626 91.1703 5.24475 91.0747 5.24475 90.9493C5.24475 90.8239 5.34029 90.7224 5.46569 90.7224L49.0861 89.7789C49.2115 89.773 49.313 89.8745 49.313 89.9999C49.313 90.1253 49.2175 90.2268 49.0921 90.2268L5.47166 91.1703H5.46569Z" fill="#FEFBC1"/>
<path d="M6.18224 92.1018C6.06281 92.1018 5.9613 92.0062 5.9613 91.8868C5.9613 91.7614 6.05086 91.6599 6.17626 91.6539L49.0742 89.7789C49.0742 89.7789 49.0802 89.7789 49.0861 89.7789C49.2056 89.7789 49.3071 89.8745 49.3071 89.9939C49.3071 90.1193 49.2175 90.2208 49.0921 90.2268L6.19419 92.1018C6.19419 92.1018 6.18821 92.1018 6.18224 92.1018Z" fill="#FEFBC1"/>
<path d="M7.37051 93.0094C7.25108 93.0094 7.15554 92.9199 7.14957 92.8005C7.1436 92.6751 7.23319 92.5676 7.35859 92.5616L49.0682 89.779C49.2055 89.773 49.2951 89.8626 49.3071 89.988C49.313 90.1134 49.2234 90.2208 49.098 90.2268L7.38844 93.0094C7.38844 93.0094 7.37648 93.0094 7.37051 93.0094Z" fill="#FEFBC1"/>
<path d="M9.01876 93.8933C8.9053 93.8933 8.80379 93.8037 8.79782 93.6902C8.78588 93.5648 8.87546 93.4574 9.00086 93.4454L49.0683 89.785C49.2057 89.7671 49.3012 89.8626 49.3132 89.988C49.3251 90.1134 49.2355 90.2209 49.1101 90.2328L9.04266 93.8933C9.04266 93.8933 9.0307 93.8933 9.02473 93.8933H9.01876Z" fill="#FEFBC1"/>
<path d="M11.1026 94.7292C10.9891 94.7292 10.8936 94.6456 10.8816 94.5322C10.8697 94.4068 10.9533 94.2993 11.0787 94.2814L49.0622 89.779C49.1816 89.7611 49.2951 89.8507 49.313 89.9761C49.3249 90.1015 49.2413 90.209 49.116 90.2269L11.1324 94.7292C11.1324 94.7292 11.1145 94.7292 11.1085 94.7292H11.1026Z" fill="#FEFBC1"/>
<path d="M13.5987 95.5234C13.4912 95.5234 13.3957 95.4458 13.3778 95.3324C13.3599 95.2129 13.4435 95.0935 13.5689 95.0756L49.0504 89.785C49.1818 89.7671 49.2893 89.8507 49.3072 89.9761C49.3251 90.0955 49.2415 90.2149 49.1161 90.2329L13.6345 95.5234C13.6345 95.5234 13.6107 95.5234 13.5987 95.5234Z" fill="#FEFBC1"/>
<path d="M16.4887 96.2519C16.3812 96.2519 16.2857 96.1743 16.2678 96.0668C16.2439 95.9474 16.3275 95.8279 16.4469 95.804L49.0383 89.779C49.1637 89.7551 49.2772 89.8387 49.3011 89.9581C49.3249 90.0776 49.2414 90.197 49.1219 90.2209L16.5305 96.2459C16.5305 96.2459 16.5006 96.2459 16.4887 96.2459V96.2519Z" fill="#FEFBC1"/>
<path d="M19.7371 96.9207C19.6356 96.9207 19.5401 96.849 19.5162 96.7475C19.4863 96.6281 19.5639 96.5087 19.6834 96.4788L49.0324 89.785C49.1518 89.7611 49.2712 89.8327 49.3011 89.9522C49.3309 90.0716 49.2533 90.191 49.1339 90.2209L19.7849 96.9147C19.7849 96.9147 19.7491 96.9147 19.7371 96.9147V96.9207Z" fill="#FEFBC1"/>
<path d="M23.302 97.5119C23.2064 97.5119 23.1169 97.4462 23.087 97.3507C23.0512 97.2312 23.1228 97.1058 23.2423 97.076L49.0204 89.791C49.1398 89.7611 49.2653 89.8268 49.2951 89.9462C49.3309 90.0657 49.2593 90.1911 49.1399 90.2209L23.3617 97.5059C23.3617 97.5059 23.3199 97.5119 23.302 97.5119Z" fill="#FEFBC1"/>
<path d="M27.1536 98.0255C27.064 98.0255 26.9744 97.9657 26.9446 97.8762C26.9028 97.7627 26.9625 97.6313 27.0819 97.5895L49.0086 89.791C49.128 89.7492 49.2534 89.8089 49.2952 89.9284C49.337 90.0418 49.2773 90.1732 49.1579 90.215L27.2312 98.0135C27.2312 98.0135 27.1834 98.0255 27.1536 98.0255Z" fill="#FEFBC1"/>
<path d="M31.2439 98.4554C31.1603 98.4554 31.0767 98.4076 31.0409 98.324C30.9871 98.2105 31.0409 98.0792 31.1483 98.0254L48.9846 89.797C49.0981 89.7432 49.2295 89.797 49.2832 89.9044C49.337 90.0179 49.2832 90.1493 49.1757 90.203L31.3394 98.4315C31.3096 98.4434 31.2797 98.4494 31.2439 98.4494V98.4554Z" fill="#FEFBC1"/>
<path d="M35.5314 98.7897C35.4597 98.7897 35.3821 98.7538 35.3403 98.6882C35.2746 98.5866 35.3045 98.4433 35.412 98.3776L48.9668 89.8148C49.0743 89.7491 49.2116 89.779 49.2773 89.8864C49.343 89.988 49.3132 90.1313 49.2057 90.1969L35.6508 98.7598C35.615 98.7837 35.5732 98.7956 35.5314 98.7956V98.7897Z" fill="#FEFBC1"/>
<path d="M39.962 99.0345C39.9023 99.0345 39.8425 99.0106 39.8007 98.9688C39.7171 98.8793 39.7171 98.736 39.8007 98.6524L48.9189 89.8447C49.0085 89.7611 49.1518 89.7611 49.2354 89.8447C49.319 89.9343 49.319 90.0776 49.2354 90.1612L40.1172 98.9688C40.0754 99.0106 40.0157 99.0345 39.962 99.0345Z" fill="#FEFBC1"/>
<path d="M44.5001 99.1838C44.4643 99.1838 44.4285 99.1778 44.3986 99.1599C44.2912 99.1062 44.2434 98.9688 44.3031 98.8614L48.8891 89.9044C48.9428 89.7969 49.0802 89.7491 49.1876 89.8089C49.2951 89.8626 49.3429 89.9999 49.2832 90.1074L44.6972 99.0644C44.6554 99.142 44.5778 99.1838 44.5001 99.1838Z" fill="#FEFBC1"/>
<path d="M49.0802 95.5772C69.8304 95.5772 86.6517 92.7835 86.6517 89.3372C86.6517 85.8909 69.8304 83.0972 49.0802 83.0972C28.33 83.0972 11.5087 85.8909 11.5087 89.3372C11.5087 92.7835 28.33 95.5772 49.0802 95.5772Z" fill="white"/>
<path d="M49.0802 94.6935C68.4123 94.6935 84.0841 92.2954 84.0841 89.3372C84.0841 86.379 68.4123 83.981 49.0802 83.981C29.7482 83.981 14.0764 86.379 14.0764 89.3372C14.0764 92.2954 29.7482 94.6935 49.0802 94.6935Z" fill="#C9F2F4"/>
<path d="M49.0802 93.6424C67.5087 93.6424 82.4479 91.7148 82.4479 89.337C82.4479 86.9593 67.5087 85.0317 49.0802 85.0317C30.6518 85.0317 15.7125 86.9593 15.7125 89.337C15.7125 91.7148 30.6518 93.6424 49.0802 93.6424Z" fill="white"/>
<path d="M49.0802 92.3408C66.7073 92.3408 80.9969 90.996 80.9969 89.3372C80.9969 87.6784 66.7073 86.3336 49.0802 86.3336C31.4532 86.3336 17.1636 87.6784 17.1636 89.3372C17.1636 90.996 31.4532 92.3408 49.0802 92.3408Z" fill="#FEFBC1"/>
<path d="M49.0802 91.5345C65.7773 91.5345 79.3129 90.5507 79.3129 89.3371C79.3129 88.1235 65.7773 87.1396 49.0802 87.1396C32.3831 87.1396 18.8474 88.1235 18.8474 89.3371C18.8474 90.5507 32.3831 91.5345 49.0802 91.5345Z" fill="white"/>
<path d="M49.0802 90.9194C63.3171 90.9194 74.8583 90.211 74.8583 89.337C74.8583 88.4631 63.3171 87.7546 49.0802 87.7546C34.8433 87.7546 23.302 88.4631 23.302 89.337C23.302 90.211 34.8433 90.9194 49.0802 90.9194Z" fill="#C9F2F4"/>
<path d="M49.0803 90.3463C61.5792 90.3463 71.7115 89.8945 71.7115 89.3372C71.7115 88.7798 61.5792 88.328 49.0803 88.328C36.5814 88.328 26.449 88.7798 26.449 89.3372C26.449 89.8945 36.5814 90.3463 49.0803 90.3463Z" fill="white"/>
<path d="M49.0802 89.9164C59.2442 89.9164 67.4838 89.657 67.4838 89.3372C67.4838 89.0173 59.2442 88.7579 49.0802 88.7579C38.9162 88.7579 30.6766 89.0173 30.6766 89.3372C30.6766 89.657 38.9162 89.9164 49.0802 89.9164Z" fill="#FEFBC1"/>
<path d="M6.45032 32.4775C6.29353 33.8493 5.22875 34.8554 4.07249 34.7247C2.91622 34.5941 2.09962 33.379 2.24987 32.0072C2.40666 30.6353 3.47148 29.6293 4.62774 29.7599C5.78401 29.8906 6.60057 31.1057 6.45032 32.4775Z" fill="#C0AEBA"/>
<path d="M6.09765 32.4383C5.94087 33.8102 4.87605 34.8162 3.71978 34.6855C2.55698 34.5549 1.74696 33.3398 1.89721 31.968C2.05399 30.5961 3.11881 29.5901 4.27507 29.7208C5.43787 29.8514 6.2479 31.0665 6.09765 32.4383Z" fill="#D8CECE"/>
<path d="M52.7728 34.3327C52.9296 35.7046 53.9944 36.7106 55.1507 36.5799C56.3135 36.4493 57.1235 35.2342 56.9733 33.8624C56.8165 32.4905 55.7517 31.4845 54.5954 31.6152C53.4391 31.7458 52.6226 32.9609 52.7728 34.3327Z" fill="#C0AEBA"/>
<path d="M53.1191 34.2935C53.2759 35.6654 54.3407 36.6714 55.497 36.5407C56.6533 36.4101 57.4698 35.195 57.3196 33.8232C57.1628 32.4514 56.098 31.4453 54.9418 31.576C53.7855 31.7066 52.9689 32.9217 53.1191 34.2935Z" fill="#D8CECE"/>
<path d="M34.2858 29.2765C36.5852 29.6227 50.8981 33.0001 55.0202 32.8694C54.994 33.9146 54.9744 34.9533 54.9483 35.9985C48.3635 36.9457 41.7982 35.5151 35.2134 36.4623C34.9064 34.0714 34.5993 31.6739 34.2923 29.283L34.2858 29.2765Z" fill="#F9AFB6"/>
<path d="M24.428 29.2765C22.1285 29.6227 19.7115 29.9101 17.1768 30.1323C12.3166 30.5503 7.78954 30.6222 3.66748 30.485C3.69361 31.5302 3.7132 32.5689 3.73933 33.6141C10.3242 34.5613 16.9155 35.5086 23.5004 36.4558C23.8074 34.0649 24.1144 31.6674 24.4215 29.2765H24.428Z" fill="#F9AFB6"/>
<path d="M25.6431 36.7433H18.0065V30.0539L25.6431 29.1067V36.7433Z" fill="#FCE059"/>
<path d="M33.6259 36.7433L41.2624 37.3573V30.668L33.6259 29.1067V36.7433Z" fill="#FCE059"/>
<path d="M38.8649 55.1063L38.4533 62.5534C38.2966 65.0293 38.2182 67.5051 38.0026 69.9744L36.2518 84.7642C36.1538 85.5742 35.4222 86.1491 34.6187 86.0511C33.9393 85.9727 33.4232 85.437 33.3318 84.7838L31.3394 70.2096C30.9474 67.7925 30.4509 65.382 30.0132 62.978L28.6545 55.7726C28.1253 52.9767 29.9675 50.2787 32.7634 49.7496C35.5594 49.2204 38.2573 51.0626 38.7865 53.8586C38.8649 54.2701 38.891 54.6751 38.8714 55.0736V55.1128L38.8649 55.1063Z" fill="#64546F"/>
<path d="M33.1097 84.1631C33.1163 84.1109 33.1228 84.0586 33.1294 83.9998C33.1686 83.7059 33.1947 83.4707 33.2077 83.3074C33.5605 83.4772 34.2138 83.7385 35.0826 83.7712C35.566 83.7908 35.9776 83.732 36.2846 83.6667C36.2715 83.8822 36.2715 84.1566 36.3173 84.4636C36.0821 84.5028 35.8338 84.5355 35.5725 84.542C34.5143 84.5943 33.6585 84.3591 33.1097 84.1566V84.1631Z" fill="#F9AFB6"/>
<path d="M33.1098 84.1633C33.6651 84.3724 34.5143 84.601 35.5726 84.5487C35.8339 84.5357 36.0821 84.5096 36.3173 84.4704C36.3565 84.7578 36.4218 85.0779 36.5525 85.4176C36.8399 86.1688 37.1535 86.3648 37.4278 87.1814C37.6304 87.7889 37.9112 88.6251 37.4474 89.0432C37.2057 89.2653 36.8791 89.2587 35.4942 89.2653C34.4947 89.2653 33.7369 89.2783 33.3972 89.2849C32.8811 88.3638 32.757 87.606 32.744 87.0769C32.7244 86.4105 32.8811 85.9859 33.1098 84.1699V84.1633Z" fill="#FF3D82"/>
<path d="M35.0498 85.3458C35.7462 85.3458 36.3106 85.0123 36.3106 84.601C36.3106 84.1897 35.7462 83.8563 35.0498 83.8563C34.3535 83.8563 33.7891 84.1897 33.7891 84.601C33.7891 85.0123 34.3535 85.3458 35.0498 85.3458Z" fill="#FF3D82"/>
<path d="M30.4183 55.7662L29.0595 62.9716C28.6218 65.3756 28.1188 67.7861 27.7334 70.2032L25.7409 84.7774C25.6299 85.5809 24.8917 86.1492 24.0817 86.0382C23.4023 85.9467 22.8928 85.4045 22.8144 84.7512L21.0636 69.9615C20.848 67.4922 20.7631 65.0163 20.6128 62.5405L20.2013 55.0933V55.0803C20.0445 52.2386 22.2199 49.802 25.0616 49.6452C27.9032 49.4884 30.3399 51.6637 30.4966 54.5054C30.5228 54.9235 30.4901 55.3547 30.4183 55.7466V55.7662Z" fill="#64546F"/>
<path d="M25.9567 84.1631C25.9501 84.1109 25.9436 84.0586 25.937 83.9998C25.8979 83.7059 25.8717 83.4707 25.8587 83.3074C25.5059 83.4772 24.8526 83.7385 23.9838 83.7712C23.5004 83.7908 23.0888 83.732 22.7818 83.6667C22.7949 83.8822 22.7949 84.1566 22.7491 84.4636C22.9843 84.5028 23.2326 84.5355 23.4939 84.542C24.5521 84.5943 25.4079 84.3591 25.9567 84.1566V84.1631Z" fill="#F9AFB6"/>
<path d="M25.9566 84.1633C25.4014 84.3724 24.5521 84.601 23.4938 84.5487C23.2325 84.5357 22.9843 84.5096 22.7491 84.4704C22.7099 84.7578 22.6446 85.0779 22.5139 85.4176C22.2265 86.1688 21.9129 86.3648 21.6386 87.1814C21.4361 87.7889 21.1552 88.6251 21.619 89.0432C21.8607 89.2653 22.1873 89.2587 23.5722 89.2653C24.5717 89.2653 25.3295 89.2783 25.6692 89.2849C26.1853 88.3638 26.3094 87.606 26.3225 87.0769C26.342 86.4105 26.1853 85.9859 25.9566 84.1699V84.1633Z" fill="#FF3D82"/>
<path d="M24.0164 85.3458C24.7127 85.3458 25.2772 85.0123 25.2772 84.601C25.2772 84.1897 24.7127 83.8563 24.0164 83.8563C23.3201 83.8563 22.7556 84.1897 22.7556 84.601C22.7556 85.0123 23.3201 85.3458 24.0164 85.3458Z" fill="#FF3D82"/>
<path d="M33.3058 24.3835H25.6431V33.8297H33.3058V24.3835Z" fill="#64546F"/>
<path d="M38.8649 53.728C38.8387 53.1989 38.7996 52.7155 38.6689 52.1471C38.5317 51.5396 38.3162 50.8668 37.9634 50.1286C38.2117 49.1095 38.1855 48.2733 38.0614 47.6201C37.6368 45.3729 36.0298 44.7065 35.7423 42.5051C35.7162 42.2829 35.7292 42.2895 35.9775 40.1337C36.5132 35.5348 36.5131 34.9077 36.5001 34.4961C36.4217 32.2685 36.3564 31.0534 35.4549 30.0409C34.5534 29.0349 33.1097 28.7278 31.6137 28.3816C31.359 28.3228 30.3725 28.1007 29.4384 28.0615C29.4253 28.0615 29.4122 28.0615 29.3992 28.0615C29.3861 28.0615 29.373 28.0615 29.36 28.0615C28.4258 28.1007 27.4394 28.3228 27.1847 28.3816C25.6887 28.7278 24.245 29.0349 23.3435 30.0409C22.442 31.0534 22.3832 32.2685 22.2983 34.4961C22.2852 34.9077 22.2852 35.5348 22.8209 40.1337C23.0691 42.2829 23.0887 42.2829 23.0561 42.5051C22.7686 44.7131 21.1551 45.3794 20.737 47.6201C20.6128 48.2799 20.5802 49.116 20.835 50.1286C20.136 51.6049 19.9531 52.8396 19.9335 53.728C19.8877 55.6094 20.3711 57.9089 20.3711 57.9089C22.2591 57.1642 25.4013 56.1908 29.3796 56.1777C33.5343 56.1647 36.8006 57.2034 38.7146 57.9807C38.9367 56.0014 38.9171 54.5707 38.878 53.728H38.8649Z" fill="#FCE059"/>
<path d="M32.3977 26.2585V28.558C32.3977 30.0801 31.1565 31.3148 29.6345 31.3148C28.1124 31.3148 26.8777 30.0801 26.8777 28.558V26.2585H32.3977Z" fill="#F9AFB6"/>
<path d="M32.3977 26.2585V27.4736C32.2605 27.8133 32.0515 28.1465 31.751 28.4274C30.9083 29.2178 29.7781 29.2178 29.3209 29.2243C28.8701 29.2243 27.7204 29.2374 26.8777 28.447V26.2585H32.3977Z" fill="#E59CA9"/>
<path d="M32.8354 24.5405C32.9073 25.0631 33.1621 26.84 31.9993 27.9309C31.1566 28.7148 30.0264 28.7214 29.5691 28.7214C29.1118 28.7214 27.9229 28.7344 27.0802 27.9048C25.9631 26.8139 26.2048 25.1611 26.2963 24.5471C26.5249 22.9727 27.6551 20.3727 29.5626 20.3662C31.3721 20.3662 32.5937 22.8486 32.8354 24.5405Z" fill="#F9AFB6"/>
<path d="M29.6345 21.2153C29.6737 21.5485 29.543 21.8751 29.1902 22.3193C28.8179 22.7897 28.0209 23.6389 26.4466 24.253C26.4596 27.8067 26.4727 31.3604 26.4858 34.9141C24.6762 34.7443 24.1536 34.2935 24.0295 33.9016C23.8858 33.4508 24.2189 32.9609 23.925 32.3403C23.7682 32.0071 23.5983 32.0071 23.3893 31.9941C23.4807 29.3549 23.7159 24.0896 26.0546 21.4178C27.2566 20.046 29.0139 19.8565 30.0003 20.0786C30.4641 20.1832 29.5756 20.6731 29.641 21.2088L29.6345 21.2153Z" fill="#64546F"/>
<path d="M29.6278 20.9475C29.4579 21.5028 29.7649 22.0254 29.9348 22.3259C30.6533 23.5605 32.1754 24.1027 32.6785 24.2595C32.6654 27.8132 32.6523 31.367 32.6393 34.9207C34.4488 34.7508 34.9714 34.3001 35.0955 33.9081C35.2392 33.4574 35.6116 28.7082 35.2458 26.7288C35.0106 25.4484 34.4488 23.1163 33.0704 21.4309C32.8156 21.1173 32.2212 20.4445 31.3001 20.2354C31.0323 20.1767 30.477 20.046 30.0393 20.3661C29.7584 20.5686 29.6539 20.8626 29.6278 20.954V20.9475Z" fill="#64546F"/>
<path d="M28.5371 24.7363C28.5959 24.8343 28.5632 24.9649 28.4652 25.0172C28.3672 25.076 28.2366 25.0433 28.1843 24.9453C28.1255 24.8473 28.1582 24.7167 28.2562 24.6644C28.3541 24.6056 28.4848 24.6383 28.5371 24.7363Z" fill="#64546F"/>
<path d="M31.0978 24.7756C31.1565 24.8736 31.1239 25.0042 31.0259 25.0565C30.9279 25.1153 30.7972 25.0826 30.745 24.9846C30.6862 24.8866 30.7189 24.756 30.8169 24.7037C30.9148 24.6449 31.0455 24.6776 31.0978 24.7756Z" fill="#64546F"/>
<path d="M27.7335 24.2268C27.7335 24.2268 27.6682 24.2138 27.6486 24.1811C27.6224 24.1354 27.6355 24.0766 27.6812 24.0439C27.8053 23.9655 28.0079 23.8741 28.2692 23.8676C28.3802 23.8676 28.4978 23.8806 28.6089 23.9067C28.6611 23.9198 28.6938 23.9721 28.6742 24.0243C28.6611 24.0766 28.6023 24.1027 28.5566 24.0897C28.4652 24.0635 28.3606 24.057 28.2757 24.057C28.0601 24.057 27.8903 24.1419 27.7858 24.2072C27.7727 24.2203 27.7531 24.2203 27.7335 24.2203V24.2268Z" fill="#64546F"/>
<path d="M31.5616 24.2792C31.5616 24.2792 31.5289 24.2792 31.5159 24.2661C31.4309 24.2204 31.346 24.1877 31.248 24.1681C31.039 24.1224 30.8561 24.1551 30.7385 24.1942C30.6862 24.2073 30.634 24.1812 30.6144 24.1289C30.5948 24.0767 30.6274 24.0244 30.6797 24.0048C30.8822 23.9395 31.0913 23.9264 31.2938 23.9721C31.4048 23.9983 31.5093 24.0375 31.6139 24.0963C31.6596 24.1224 31.6792 24.1812 31.6531 24.2269C31.6335 24.2596 31.6008 24.2792 31.5681 24.2792H31.5616Z" fill="#64546F"/>
<path d="M29.6998 26.2193C29.6476 26.2193 29.6083 26.1801 29.6018 26.1278C29.6018 26.0756 29.6345 26.0233 29.6933 26.0233C29.7782 26.0168 29.8305 25.9907 29.8566 25.958C29.8762 25.9319 29.8566 25.8796 29.8305 25.7686L29.8174 25.7163C29.7651 25.5269 29.726 25.3178 29.7129 25.2002C29.6933 25.0173 29.7194 24.8344 29.7913 24.6384C29.8109 24.5862 29.8631 24.56 29.9154 24.5796C29.9677 24.5992 29.9938 24.6515 29.9742 24.7037C29.9154 24.8671 29.8958 25.0238 29.9089 25.1741C29.9219 25.2851 29.9611 25.4811 30.0068 25.664L30.0199 25.7163C30.0591 25.8535 30.0852 25.9515 30.0199 26.056C29.9807 26.1213 29.8958 26.1997 29.7064 26.2193C29.7064 26.2193 29.7063 26.2193 29.6998 26.2193Z" fill="#64546F"/>
<path d="M29.5823 27.2318C29.5823 27.2318 29.5692 27.2318 29.5626 27.2318C29.1511 27.2253 28.8637 27.0293 28.7265 26.9182C28.6873 26.8856 28.6808 26.8202 28.7134 26.781C28.7461 26.7419 28.8114 26.7353 28.8506 26.768C28.9421 26.8464 29.1968 27.0293 29.5626 27.0358H29.5823C29.9154 27.0358 30.1571 26.8921 30.2682 26.8006C30.3139 26.768 30.3727 26.7745 30.4054 26.8202C30.438 26.866 30.4315 26.9248 30.3858 26.9574C30.2486 27.0619 29.9677 27.2318 29.5757 27.2318H29.5823Z" fill="#64546F"/>
<path d="M27.2761 24.9911C27.4198 25.5725 27.1846 26.1343 26.7469 26.2388C26.3092 26.3433 25.8454 25.9579 25.7017 25.3765C25.558 24.7951 25.7932 24.2333 26.2309 24.1288C26.6685 24.0243 27.1323 24.4097 27.2761 24.9911Z" fill="#F9AFB6"/>
<path d="M32.1235 24.9911C31.9798 25.5725 32.2149 26.1343 32.6526 26.2388C33.0903 26.3433 33.5541 25.9579 33.6978 25.3765C33.8415 24.7951 33.6064 24.2333 33.1687 24.1288C32.731 24.0243 32.2672 24.4097 32.1235 24.9911Z" fill="#F9AFB6"/>
<path d="M21.521 50.0109C21.4818 50.0109 21.4426 49.9847 21.4296 49.9455C21.41 49.8933 21.4427 49.841 21.4949 49.8214C22.109 49.6189 22.7426 49.5275 23.3893 49.5405C23.7682 49.5471 24.1406 49.5993 24.513 49.6777C24.5652 49.6908 24.5979 49.743 24.5848 49.7953C24.5718 49.8476 24.5195 49.8802 24.4672 49.8672C24.1145 49.7888 23.7487 49.743 23.3828 49.73C22.7753 49.7169 22.1547 49.8084 21.5537 49.9978C21.5406 49.9978 21.5341 49.9978 21.521 49.9978V50.0109Z" fill="#E6CF69"/>
<path d="M23.2065 44.0206C23.1607 44.0206 23.1215 43.9945 23.1085 43.9488C23.0954 43.8965 23.1281 43.8443 23.1804 43.8312C23.6507 43.7071 24.1276 43.6352 24.611 43.6221C25.0879 43.6026 25.5713 43.6417 26.0416 43.7267C26.0939 43.7397 26.1266 43.7855 26.12 43.8377C26.1135 43.89 26.0677 43.9292 26.0089 43.9161C25.5517 43.8312 25.0813 43.7985 24.6175 43.8116C24.1471 43.8312 23.6833 43.8965 23.2261 44.0141C23.2195 44.0141 23.2065 44.0141 23.1999 44.0141L23.2065 44.0206Z" fill="#E6CF69"/>
<path d="M37.1861 50.4617C37.1861 50.4617 37.173 50.4617 37.1665 50.4617C36.5851 50.3376 35.9906 50.2657 35.3961 50.2592C34.8931 50.2526 34.3901 50.2853 33.9002 50.3637C33.8479 50.3702 33.7957 50.3376 33.7892 50.2788C33.7826 50.2265 33.8153 50.1742 33.8741 50.1677C34.3771 50.0893 34.8997 50.0567 35.4027 50.0632C36.0102 50.0697 36.6178 50.1416 37.2122 50.2722C37.2645 50.2853 37.2971 50.3376 37.2841 50.3898C37.271 50.4355 37.2318 50.4682 37.1861 50.4682V50.4617Z" fill="#E6CF69"/>
<path d="M35.2264 44.1577C35.2264 44.1577 35.2133 44.1577 35.2067 44.1577C34.7625 44.0663 34.3052 44.0205 33.848 44.0205C33.4299 44.0205 33.0053 44.0663 32.5937 44.1577C32.5349 44.1643 32.4892 44.1316 32.4761 44.0793C32.4631 44.0271 32.4957 43.9748 32.5545 43.9617C32.9791 43.8703 33.4168 43.8246 33.848 43.8246C34.3183 43.8115 34.7887 43.8703 35.2459 43.9617C35.2982 43.9748 35.3309 44.0271 35.3243 44.0793C35.3178 44.1251 35.2721 44.1577 35.2264 44.1577Z" fill="#E6CF69"/>
<path d="M27.3415 39.6504C27.2957 39.6504 27.2565 39.6177 27.2434 39.572C27.2369 39.5197 27.2696 39.4675 27.3218 39.461C28.2037 39.2976 29.0987 39.1931 29.9871 39.1474C30.4836 39.1213 30.9866 39.1147 31.4831 39.1213C30.5555 39.0037 29.6148 38.9383 28.6806 38.9253C27.4786 38.9253 26.244 38.9971 25.0485 39.167C24.9897 39.1735 24.944 39.1343 24.9375 39.0821C24.9309 39.0298 24.9636 38.9775 25.0224 38.971C26.2309 38.8012 27.459 38.7097 28.6872 38.7293C30.2746 38.7424 31.8685 38.9187 33.4233 39.2454C33.4755 39.2584 33.5082 39.3042 33.5017 39.3564C33.4951 39.4087 33.4494 39.4479 33.3906 39.4348C32.267 39.3107 31.1238 39.2715 30.0002 39.3303C29.1183 39.376 28.2299 39.4805 27.361 39.6373C27.361 39.6373 27.348 39.6373 27.3415 39.6373V39.6504Z" fill="#E6CF69"/>
<path d="M54.5039 34.1696C54.3602 35.5806 55.216 36.8218 56.418 36.9459C57.6135 37.0635 58.6978 36.0183 58.8416 34.6073C58.9853 33.1962 58.1295 31.955 56.9275 31.8309C55.732 31.7133 54.6476 32.7585 54.5039 34.1696Z" fill="#C0AEBA"/>
<path d="M54.8699 34.2086C54.7262 35.6197 55.582 36.8609 56.784 36.985C57.986 37.1091 59.0638 36.0574 59.2075 34.6463C59.3512 33.2353 58.4955 31.9941 57.2935 31.87C56.098 31.7524 55.0136 32.7976 54.8699 34.2086Z" fill="#D8CECE"/>
<path d="M4.71277 32.3142C4.85648 33.7252 4.00072 34.9664 2.79873 35.0905C1.59673 35.2147 0.518842 34.1629 0.375126 32.7519C0.231409 31.3408 1.08717 30.0996 2.28917 29.9755C3.49116 29.8514 4.56905 30.9032 4.71277 32.3142Z" fill="#C0AEBA"/>
<path d="M4.35339 32.3468C4.49711 33.7579 3.64135 34.9991 2.43935 35.1232C1.24389 35.2408 0.159467 34.1956 0.0157507 32.7845C-0.127966 31.3735 0.727797 30.1323 1.92979 30.0082C3.12525 29.8906 4.20968 30.9358 4.35339 32.3468Z" fill="#D8CECE"/>
<path d="M67.4455 58.6542C67.0536 59.6863 66.7204 60.7315 66.3546 61.7702C66.0084 62.8154 65.6752 63.8541 65.3486 64.8993C64.6953 66.9897 64.0943 69.0867 63.4999 71.1902L63.5587 70.4651L63.1798 74.7112C63.0752 76.1223 62.9446 77.5398 62.8597 78.9509L62.5853 83.1905C62.5265 84.6016 62.4351 86.0191 62.4089 87.4302C62.3828 88.495 61.5009 89.3442 60.4361 89.3181C59.4366 89.2985 58.6331 88.508 58.5547 87.5347C58.4502 86.1236 58.2869 84.7191 58.1497 83.3146L57.6466 79.0946C57.4899 77.6901 57.2808 76.2791 57.0979 74.8745L56.4969 70.6545C56.4969 70.6545 56.4969 70.6153 56.4969 70.5957L56.5557 69.9229C56.7452 67.7475 56.9215 65.5722 57.0457 63.3837C57.111 62.2928 57.1632 61.1953 57.209 60.0979C57.2351 59.0004 57.2874 57.9029 57.2808 56.7989C57.2743 53.8984 59.613 51.5402 62.5134 51.5271C65.4139 51.5206 67.7722 53.8592 67.7852 56.7597C67.7852 57.413 67.6611 58.0597 67.4455 58.6411V58.6542Z" fill="#F766A1"/>
<path d="M78.8124 57.8573C78.7209 58.9613 78.6883 60.0588 78.623 61.1628C78.5772 62.2603 78.5446 63.3577 78.525 64.4552C78.4727 66.6502 78.4727 68.8386 78.4858 71.027L78.5053 71.3406C78.1983 73.934 77.8978 76.534 77.6561 79.1274C77.5255 80.4274 77.4144 81.7208 77.3099 83.0208C77.225 84.3208 77.1139 85.6142 77.0551 86.9142C77.0094 87.979 76.1079 88.8087 75.0431 88.7629C74.0501 88.7172 73.2662 87.9268 73.2009 86.9534C73.1225 85.66 72.9788 84.36 72.8743 83.0665C72.7436 81.7731 72.6065 80.4731 72.4562 79.1796C72.1622 76.5862 71.8095 73.9993 71.4502 71.4124L71.4698 71.726C71.0517 69.5768 70.6205 67.4341 70.1371 65.2914C69.9019 64.22 69.6472 63.1487 69.3859 62.0839C69.105 61.0191 68.8567 59.9477 68.5497 58.8829C67.7397 56.1001 69.3467 53.1865 72.1296 52.3765C74.9125 51.5664 77.826 53.1735 78.636 55.9563C78.8189 56.5835 78.8777 57.2367 78.8255 57.8573H78.8124Z" fill="#F766A1"/>
<path d="M62.5332 86.3915C62.3045 86.1563 62.3633 86.6985 60.6453 86.581C59.8287 86.5287 59.0252 85.8624 58.9533 85.6533C59.0252 85.1373 59.0839 84.7322 58.7051 84.3795C58.4438 84.1312 58.0257 84.1574 57.8232 84.3272C57.5815 84.5232 57.6468 84.7322 57.588 85.0066C57.49 85.4508 56.7976 86.0192 56.4709 86.2347C56.2358 86.3915 55.589 86.8096 54.472 87.195C53.6162 87.489 53.1851 87.6327 52.6886 87.6915C52.4011 87.7242 51.5192 87.8025 51.3232 88.0834C51.1469 88.3317 51.0815 88.6126 51.0815 88.6126C51.0685 88.6714 50.9509 89.1875 51.3951 89.501C51.676 89.697 52.0745 89.7427 52.5448 89.7297C52.878 89.7166 55.3996 89.7623 60.0443 89.6447C60.9 89.6251 61.599 89.5859 63.0035 89.5206C63.1146 89.2528 63.2126 88.8543 63.0558 88.4166C62.9186 88.0181 62.605 86.4699 62.5332 86.398V86.3915Z" fill="#8AA8FF"/>
<path d="M73.1944 86.3849C73.423 86.1497 73.0441 86.6919 74.7622 86.5744C75.5788 86.5221 76.513 86.0387 76.5783 85.8296C76.5064 85.3136 76.4476 84.9085 76.8265 84.5558C77.0878 84.3075 77.7868 84.1508 77.9893 84.3206C78.231 84.5231 78.1657 84.7256 78.2245 85C78.3225 85.4507 79.0215 86.0125 79.3481 86.2347C79.5833 86.3914 81.5365 87.6326 82.033 87.6914C82.3204 87.7241 83.2023 87.8025 83.3983 88.0834C83.5747 88.3316 83.64 88.6125 83.64 88.6125C83.6531 88.6713 83.7706 89.1874 83.3264 89.5009C83.0455 89.6969 82.647 89.7426 82.1767 89.7296C81.8435 89.7165 80.0079 89.7622 75.3567 89.6447C74.5009 89.6251 74.1285 89.5859 72.7175 89.5205C72.6065 89.2527 72.5085 88.8542 72.6653 88.41C72.8025 88.0115 73.116 86.4633 73.1879 86.3914L73.1944 86.3849Z" fill="#8AA8FF"/>
<path d="M75.9054 53.8921C75.3436 52.468 74.7622 51.1092 74.1743 49.8223C69.7909 50.0052 65.4075 50.1816 61.0242 50.3645C59.587 53.2127 58.6006 63.4688 59.378 63.6909C61.0568 64.1809 61.0699 66.0492 62.6377 66.3954C63.5065 64.7427 65.9889 61.6397 66.8512 59.987C67.1975 59.3337 68.1251 59.3076 68.4975 59.9478C69.4969 61.6462 71.9075 64.4422 72.9069 66.1406C73.9456 66.108 73.7039 64.9125 74.9778 64.71L75.9054 53.8921Z" fill="#F766A1"/>
<path d="M56.9178 33.9129L48.1914 33.5471L48.1047 35.6161L56.8311 35.9819L56.9178 33.9129Z" fill="#C0AEBA"/>
<path d="M47.7529 32.6142L47.5909 36.4781L49.6665 36.5651L49.8284 32.7012L47.7529 32.6142Z" fill="#D8CECE"/>
<path d="M50.3564 34.6536C50.4021 33.5888 50.1474 32.7069 49.7946 32.6939C49.4418 32.6808 49.1152 33.53 49.076 34.6014C49.0303 35.6662 49.2851 36.5481 49.6378 36.5612C49.9906 36.5742 50.3172 35.725 50.3564 34.6536Z" fill="#C0AEBA"/>
<path d="M48.2857 34.5621C48.3314 33.4973 48.0766 32.6154 47.7239 32.6023C47.3711 32.5893 47.0445 33.4385 47.0053 34.5098C46.9596 35.5746 47.2143 36.4565 47.5671 36.4696C47.9199 36.4827 48.2465 35.6334 48.2857 34.5621Z" fill="#D8CECE"/>
<path d="M62.5463 39.6444C60.3187 41.97 58.0976 44.4655 55.9223 46.9348L55.5042 47.4182C54.6746 48.3654 53.2374 48.4569 52.2902 47.6272C51.7937 47.1896 51.5324 46.5755 51.5128 45.9614L51.3233 37.0314C51.3103 36.3063 51.8852 35.7118 52.6037 35.6922C53.2178 35.6792 53.7404 36.0907 53.8972 36.6525L56.2946 45.2625L51.8851 44.2891C53.3419 41.2514 54.7856 38.2661 56.3992 35.2219V35.2088C57.3921 33.3405 59.7112 32.6284 61.573 33.6214C63.4413 34.6078 64.1533 36.9269 63.1604 38.7887C62.9971 39.1022 62.7749 39.3962 62.5463 39.6444Z" fill="#F9AFB6"/>
<path d="M51.9309 37.5997C52.1203 37.5736 52.3424 37.554 52.5907 37.5736C53.2962 37.6259 53.8188 37.9198 54.0997 38.1158C54.8575 36.7832 55.1449 35.6726 55.0012 35.0455C54.9097 34.6536 54.5178 34.1309 54.25 33.1249C54.2369 33.0661 54.2238 33.0073 54.2108 32.9551C54.1324 32.6285 53.858 32.3998 53.5248 32.3737C53.2178 32.3541 52.9042 32.3214 52.5776 32.2888C52.1073 32.2365 51.6565 32.1646 51.2319 32.0928C50.8922 32.034 50.559 32.2104 50.4023 32.5174C50.3108 32.7068 50.2193 32.9224 50.1409 33.1707C49.8078 34.2616 49.8862 34.8626 50.1148 35.5485C50.5525 36.8616 51.6696 37.4691 51.9309 37.6063V37.5997Z" fill="#F9AFB6"/>
<path d="M54.4726 33.7372L56.9267 33.8396L56.8403 35.9086L54.3862 35.8062C53.8902 35.7855 53.5086 35.3707 53.5293 34.8747L53.541 34.594C53.5618 34.098 53.9765 33.7164 54.4726 33.7372Z" fill="#C0AEBA"/>
<path d="M56.4122 34.8822C56.4579 33.8174 56.2031 32.9355 55.8503 32.9224C55.4976 32.9093 55.171 33.7586 55.1318 34.8299C55.086 35.8947 55.3408 36.7766 55.6936 36.7897C56.0463 36.8027 56.373 35.9535 56.4122 34.8822Z" fill="#D8CECE"/>
<path d="M55.8194 32.9217L55.6581 36.7856L57.7336 36.8723L57.8949 33.0083L55.8194 32.9217Z" fill="#D8CECE"/>
<path d="M58.483 34.9672C58.5287 33.9024 58.2739 33.0205 57.9212 33.0075C57.5684 32.9944 57.2418 33.8436 57.2026 34.915C57.1568 35.9798 57.4116 36.8617 57.7644 36.8748C58.1171 36.8878 58.4438 36.0386 58.483 34.9672Z" fill="#C0AEBA"/>
<path d="M50.5916 34.758C50.5394 34.758 50.4937 34.7188 50.4937 34.6666C50.4937 34.5098 50.4937 34.3465 50.4937 34.1831C50.5263 33.6017 50.6373 33.0269 50.8399 32.4651C50.8595 32.4128 50.9183 32.3867 50.964 32.4063C51.0162 32.4259 51.0424 32.4781 51.0228 32.5304C50.8268 33.0726 50.7157 33.6279 50.6831 34.1897C50.6766 34.353 50.6766 34.5098 50.6831 34.66C50.6831 34.7123 50.6439 34.758 50.5851 34.758H50.5916Z" fill="#E59CA9"/>
<path d="M51.6043 35.2154C51.5521 35.2154 51.5129 35.1762 51.5064 35.124C51.4868 34.8888 51.4868 34.6405 51.4998 34.3988C51.5325 33.8174 51.6501 33.236 51.846 32.6808C51.8656 32.6285 51.9244 32.6024 51.9702 32.622C52.0224 32.6416 52.0486 32.6938 52.029 32.7461C51.833 33.2883 51.7219 33.8436 51.6893 34.4054C51.6762 34.6405 51.6827 34.8757 51.6958 35.1109C51.6958 35.1632 51.6566 35.2089 51.6043 35.2154C51.6043 35.2154 51.6044 35.2154 51.5978 35.2154H51.6043Z" fill="#E59CA9"/>
<path d="M52.6103 34.9932C52.5581 34.9932 52.5123 34.9475 52.5123 34.8952C52.5123 34.7711 52.5123 34.6405 52.5189 34.5098C52.545 33.9284 52.6626 33.347 52.8651 32.7917C52.8847 32.7395 52.9369 32.7133 52.9892 32.7329C53.0415 32.7525 53.0676 32.8048 53.048 32.8571C52.852 33.3993 52.741 33.9545 52.7083 34.5163C52.7083 34.647 52.7018 34.7711 52.7083 34.8887C52.7083 34.941 52.6626 34.9867 52.6103 34.9867V34.9932Z" fill="#E59CA9"/>
<path d="M55.171 45.8374C55.171 45.8374 55.1514 45.8374 55.1448 45.8374C55.0926 45.8243 55.0664 45.7655 55.0795 45.7133C55.3931 44.6484 55.5041 43.551 55.3996 42.4404C55.3016 41.4148 55.0272 40.4153 54.583 39.4877C54.5569 39.442 54.583 39.3832 54.6287 39.3571C54.6745 39.3309 54.7333 39.3571 54.7594 39.4028C55.2167 40.3565 55.4976 41.3756 55.5956 42.4274C55.7001 43.5575 55.5891 44.6811 55.2624 45.7721C55.2494 45.8178 55.2102 45.8439 55.171 45.8439V45.8374Z" fill="#E59CA9"/>
<path d="M78.5892 35.7648L87.319 36.0392L87.384 33.9694L78.6543 33.695L78.5892 35.7648Z" fill="#C0AEBA"/>
<path d="M85.872 33.0898L85.7505 36.9552L87.8268 37.0205L87.9483 33.1551L85.872 33.0898Z" fill="#D8CECE"/>
<path d="M85.1425 34.9998C85.1752 33.935 85.4888 33.0727 85.8415 33.0857C86.1943 33.0988 86.4556 33.9741 86.4229 35.039C86.3903 36.1038 86.0767 36.9661 85.7239 36.953C85.3712 36.9399 85.1099 36.0646 85.1425 34.9998Z" fill="#C0AEBA"/>
<path d="M87.2133 35.0651C87.246 34.0003 87.5596 33.138 87.9123 33.151C88.2651 33.1641 88.5264 34.0395 88.4937 35.1043C88.4611 36.1691 88.1475 37.0314 87.7947 37.0183C87.442 37.0052 87.1807 36.1299 87.2133 35.0651Z" fill="#D8CECE"/>
<path d="M78.7732 35.1239L82.8626 44.4067L78.4466 45.1449L81.4646 36.7375C81.7064 36.0581 82.4576 35.6988 83.1435 35.947C83.7184 36.1561 84.0581 36.7244 84.0058 37.3058L83.1631 46.2032C83.0455 47.4509 81.935 48.3655 80.6873 48.2479C80.0601 48.1891 79.518 47.8821 79.1521 47.4313L78.7471 46.9414L72.319 39.0957C70.9799 37.4626 71.2216 35.0521 72.8547 33.7194C74.4879 32.3803 76.8984 32.622 78.231 34.2551C78.4531 34.5229 78.636 34.8365 78.7732 35.137V35.1239Z" fill="#F9AFB6"/>
<path d="M83.3592 37.8218C83.1763 37.7761 82.9542 37.75 82.7059 37.75C82.0004 37.75 81.4582 38.0048 81.1642 38.1746C80.5044 36.7962 80.3019 35.6596 80.4914 35.052C80.609 34.6666 81.0466 34.1701 81.3798 33.1902C81.3994 33.1314 81.419 33.0792 81.4321 33.0269C81.53 32.7068 81.824 32.4978 82.1572 32.4978C82.4642 32.4978 82.7843 32.4978 83.1109 32.4782C83.5878 32.4586 84.0385 32.4259 84.4697 32.3802C84.8159 32.341 85.1295 32.5435 85.2601 32.8636C85.3385 33.0596 85.4169 33.2817 85.4692 33.5365C85.724 34.647 85.5998 35.2415 85.3254 35.9078C84.7898 37.1816 83.6335 37.7108 83.3592 37.8284V37.8218Z" fill="#F9AFB6"/>
<path d="M81.0392 35.8606L78.5842 35.7834L78.6492 33.7136L81.1042 33.7908C81.6005 33.8063 81.9862 34.2172 81.9707 34.7134L81.9618 34.9941C81.9462 35.4904 81.5354 35.8762 81.0392 35.8606Z" fill="#C0AEBA"/>
<path d="M79.0867 34.7841C79.1194 33.7193 79.433 32.857 79.7857 32.87C80.1385 32.8831 80.3998 33.7584 80.3671 34.8233C80.3345 35.8881 80.0209 36.7504 79.6682 36.7373C79.3154 36.7242 79.0541 35.8489 79.0867 34.7841Z" fill="#D8CECE"/>
<path d="M77.7512 32.8156L77.6298 36.681L79.7061 36.7463L79.8276 32.8809L77.7512 32.8156Z" fill="#D8CECE"/>
<path d="M77.0095 34.7188C77.0421 33.6539 77.3557 32.7916 77.7085 32.8047C78.0612 32.8178 78.3225 33.6931 78.2899 34.758C78.2572 35.8228 77.9436 36.6851 77.5909 36.672C77.2381 36.6589 76.9768 35.7836 77.0095 34.7188Z" fill="#C0AEBA"/>
<path d="M84.9073 35.0911C84.9073 35.0911 84.9073 35.0911 84.8943 35.0911C84.842 35.0911 84.8028 35.0389 84.8093 34.9866C84.8224 34.8298 84.8355 34.6731 84.8355 34.5163C84.8485 33.9545 84.7767 33.3861 84.6199 32.8374C84.6068 32.7851 84.633 32.7329 84.6852 32.7133C84.7375 32.7002 84.7897 32.7264 84.8028 32.7786C84.9596 33.3469 85.038 33.9349 85.0249 34.5163C85.0249 34.6731 85.0119 34.8364 84.9923 34.9997C84.9923 35.052 84.9465 35.0846 84.8943 35.0846L84.9073 35.0911Z" fill="#E59CA9"/>
<path d="M83.8621 35.4701C83.8621 35.4701 83.8556 35.4701 83.849 35.4701C83.7968 35.4636 83.7576 35.4113 83.7641 35.3591C83.7968 35.1304 83.8163 34.8953 83.8229 34.6601C83.8359 34.0983 83.7641 33.5299 83.6073 32.9812C83.5943 32.9289 83.6204 32.8767 83.6726 32.8571C83.7249 32.844 83.7772 32.8702 83.7902 32.9224C83.947 33.4908 84.0254 34.0787 84.0124 34.6601C84.0124 34.9018 83.9862 35.1435 83.9535 35.3852C83.947 35.4309 83.9013 35.4701 83.8555 35.4701H83.8621Z" fill="#E59CA9"/>
<path d="M82.8756 35.1697C82.8756 35.1697 82.8757 35.1697 82.8691 35.1697C82.8169 35.1697 82.7777 35.1174 82.7777 35.0652C82.7907 34.9476 82.7972 34.8234 82.7972 34.6928C82.8103 34.131 82.7385 33.5627 82.5817 33.0139C82.5686 32.9617 82.5947 32.9094 82.647 32.8898C82.6927 32.8767 82.7515 32.9029 82.7646 32.9551C82.9214 33.5235 82.9998 34.1114 82.9867 34.6928C82.9867 34.8234 82.9736 34.9541 82.9671 35.0782C82.9671 35.1305 82.9214 35.1697 82.8691 35.1697H82.8756Z" fill="#E59CA9"/>
<path d="M79.5244 45.7981C79.4787 45.7981 79.4395 45.7654 79.4264 45.7197C79.1847 44.6092 79.152 43.479 79.3415 42.3619C79.5178 41.3167 79.8706 40.3238 80.3932 39.4092C80.4193 39.3635 80.4781 39.3504 80.5239 39.37C80.5696 39.3962 80.5892 39.4549 80.563 39.5072C80.047 40.4022 79.7007 41.3755 79.5309 42.3946C79.348 43.4921 79.3741 44.5961 79.6158 45.6805C79.6289 45.7328 79.5962 45.785 79.544 45.7981C79.5374 45.7981 79.5309 45.7981 79.5244 45.7981Z" fill="#E59CA9"/>
<path d="M76.2255 33.04C74.5662 32.3149 71.6984 31.3089 68.0206 31.2762C63.6633 31.237 60.3383 32.5827 58.6398 33.4124C60.9131 38.3575 60.7041 41.7937 60.0312 44.0605C59.2604 46.68 57.3921 48.065 56.863 51.4946C56.5102 53.8136 56.9087 55.8126 57.281 57.0995C58.3132 56.296 63.0689 52.7684 69.6864 53.5001C74.416 54.0227 77.5974 56.4397 78.8255 57.4915C78.8908 54.3428 78.538 51.8343 78.2114 50.1162C77.2315 45.06 75.5984 42.8781 75.5461 38.4098C75.5135 36.0646 75.925 34.1702 76.2255 33.04Z" fill="#C0AEBA"/>
<path d="M67.779 36.3912H67.3675C65.3162 36.3062 63.8921 34.5229 64.2776 32.7068C64.2776 32.7068 64.2797 32.7024 64.2841 32.6937C64.3037 32.6023 64.3168 32.5174 64.3364 32.4194C64.3886 32.145 64.4409 31.851 64.4866 31.544C64.5323 31.2174 64.5715 30.8842 64.6042 30.5314C64.7479 28.8264 64.6107 27.3436 64.4017 26.1873C64.3886 26.0958 64.369 26.0174 64.3559 25.926C64.3494 25.9064 64.3494 25.8803 64.3429 25.8541H64.3951L64.6173 25.8868L69.373 26.4029L69.7192 26.4421L70.1046 26.4813C70.0327 26.6511 69.9609 26.8732 69.8891 27.1345C69.8499 27.2717 69.8106 27.4285 69.7845 27.5983C69.68 28.1275 69.6343 28.7742 69.7257 29.4862C69.7388 29.5842 69.7519 29.6822 69.7649 29.7802C69.8368 30.1656 69.9348 30.5249 70.0654 30.8515C70.0785 30.8973 70.0981 30.9495 70.1177 30.9953C70.2418 31.3219 70.392 31.6093 70.5488 31.8772C71.7116 33.8304 70.2222 36.2801 67.766 36.3781L67.779 36.3912Z" fill="#F9AFB6"/>
<path d="M70.0719 30.8645C69.9739 31.2565 69.804 31.6354 69.5035 31.9685C68.6216 32.9484 67.1975 32.9027 66.5181 32.8831C66.0086 32.87 65.1071 32.8439 64.3428 32.4193C64.395 32.1449 64.4473 31.8509 64.493 31.5439C64.5388 31.2173 64.578 30.8841 64.6106 30.5314C64.7543 28.8263 64.6172 27.3435 64.4081 26.1872C64.3951 26.0957 64.3755 26.0173 64.3624 25.9259C64.3689 25.9063 64.382 25.8867 64.4016 25.8671C65.0548 24.8284 65.9563 23.9269 67.0146 23.9988C68.1578 24.0902 68.9156 25.2792 69.3859 26.4093C69.5623 26.8339 69.6995 27.2651 69.7975 27.6048C69.9216 28.062 69.9804 28.3821 70 28.4409C70.1176 29.0811 70.2874 30.0087 70.0849 30.8645H70.0719Z" fill="#E59CA9"/>
<path d="M64.1209 27.4547C63.8726 28.2451 63.2912 30.0873 64.3168 31.3219C65.14 32.3149 66.5314 32.3541 67.2173 32.3737C67.9032 32.3933 69.3273 32.4325 70.2027 31.4591C71.1499 30.4139 70.8625 28.8657 70.6927 27.9315C70.6535 27.716 69.8565 23.6527 67.7138 23.4959C65.9239 23.3587 64.5651 26.0371 64.1209 27.4547Z" fill="#F9AFB6"/>
<path d="M68.3865 28.0358C68.3342 28.1404 68.3799 28.2645 68.4845 28.3167C68.589 28.369 68.7131 28.3233 68.7654 28.2188C68.8176 28.1142 68.7719 27.9901 68.6674 27.9379C68.5628 27.8856 68.4387 27.9313 68.3865 28.0358Z" fill="#64546F"/>
<path d="M65.8388 28.0948C65.767 28.1863 65.7735 28.3169 65.865 28.3888C65.9564 28.4606 66.0871 28.4541 66.1589 28.3627C66.2308 28.2712 66.2243 28.1405 66.1328 28.0687C66.0414 27.9968 65.9107 28.0034 65.8388 28.0948Z" fill="#64546F"/>
<path d="M69.1183 27.572C69.1183 27.572 69.0856 27.572 69.0726 27.559C68.9615 27.5002 68.7851 27.4349 68.563 27.4479C68.4716 27.4479 68.3736 27.474 68.2821 27.5067C68.2364 27.5263 68.1776 27.5002 68.158 27.4479C68.1384 27.3957 68.1645 27.3434 68.2168 27.3238C68.3278 27.2846 68.4389 27.2585 68.5499 27.2519C68.7524 27.2389 68.968 27.2846 69.1575 27.3826C69.2032 27.4087 69.2228 27.4675 69.2032 27.5132C69.1836 27.5459 69.1509 27.5655 69.1183 27.5655V27.572Z" fill="#64546F"/>
<path d="M65.4991 27.5394C65.4599 27.5394 65.4273 27.5198 65.4142 27.4872C65.3881 27.4414 65.4142 27.3826 65.4599 27.3565C65.5644 27.3043 65.6755 27.2716 65.7865 27.252C66.0413 27.2128 66.2634 27.2651 66.4006 27.3239C66.4529 27.3435 66.479 27.4022 66.4529 27.448C66.4333 27.5002 66.3745 27.5198 66.3288 27.5002C66.2112 27.4545 66.0282 27.4088 65.8127 27.4414C65.7212 27.4545 65.6298 27.4872 65.5383 27.5264C65.5252 27.5329 65.5122 27.5394 65.4926 27.5394H65.4991Z" fill="#64546F"/>
<path d="M67.1651 29.6821C67.1651 29.6821 67.1389 29.6821 67.1259 29.6755C67.0214 29.6298 66.9364 29.5971 66.8842 29.571C66.7797 29.5253 66.7013 29.4992 66.6229 29.4208C66.5576 29.362 66.538 29.3228 66.5249 29.2901C66.4792 29.1856 66.5118 29.0811 66.5249 29.0484C66.5641 28.9112 66.6751 28.8263 66.7731 28.7479C66.8385 28.6957 66.8973 28.6499 66.9364 28.5911C67.0083 28.4801 66.9887 28.3037 66.8973 28.0685C66.8777 28.0163 66.8973 27.964 66.9495 27.9379C67.0018 27.9183 67.054 27.9379 67.0801 27.9901C67.1977 28.2841 67.2108 28.5193 67.1063 28.6891C67.054 28.774 66.9756 28.8394 66.8973 28.8982C66.8123 28.9635 66.7405 29.0223 66.7143 29.1007C66.7143 29.1203 66.6947 29.166 66.7143 29.2117C66.7143 29.2117 66.7274 29.2379 66.7601 29.2705C66.8188 29.3228 66.8711 29.3424 66.956 29.3816C67.0214 29.4077 67.1063 29.4404 67.2108 29.4926C67.2631 29.5122 67.2827 29.571 67.2631 29.6233C67.25 29.6625 67.2108 29.6821 67.1716 29.6821H67.1651Z" fill="#64546F"/>
<path d="M67.2369 30.7535C66.8384 30.7535 66.5771 30.5053 66.5314 30.453C66.4922 30.4138 66.4987 30.355 66.5314 30.3158C66.5706 30.2767 66.6359 30.2767 66.6686 30.3158C66.6947 30.342 66.9429 30.5837 67.3022 30.551C67.6615 30.5184 67.851 30.2571 67.8836 30.2048C67.9163 30.1591 67.9751 30.146 68.0208 30.1787C68.0665 30.2113 68.0796 30.2701 68.047 30.3158C68.0012 30.3812 67.7595 30.7078 67.3153 30.7535C67.2827 30.7535 67.2565 30.7535 67.2304 30.7535H67.2369Z" fill="#64546F"/>
<path d="M71.3849 28.4671C71.3066 29.1007 70.9277 29.5776 70.5423 29.5254C70.1568 29.4796 69.9151 28.9244 69.9935 28.2907C70.0719 27.657 70.4508 27.1802 70.8362 27.2324C71.2216 27.2782 71.4633 27.8334 71.3849 28.4671Z" fill="#F9AFB6"/>
<path d="M64.6631 28.5063C64.7676 29.1399 64.5455 29.7018 64.16 29.7605C63.7811 29.8259 63.3826 29.3621 63.2781 28.7349C63.1736 28.1013 63.3957 27.5395 63.7811 27.4807C64.1666 27.4219 64.5585 27.8792 64.6631 28.5063Z" fill="#F9AFB6"/>
<path d="M64.2384 27.8989C64.4017 27.9185 64.3364 26.7426 65.2379 26.0045C66.0871 25.3055 67.374 25.3055 68.3082 25.6386C69.5102 26.0633 70.0655 27.311 70.2745 27.8728C70.3137 27.9642 70.4443 27.9708 70.477 27.8728C70.6534 27.4024 70.882 26.5336 70.8036 25.8216C70.6664 24.5608 69.7715 23.5286 68.7067 23.0648C67.4981 22.5422 65.9695 22.6925 64.9309 23.6593C63.2324 25.2271 63.9967 27.8663 64.2384 27.8989Z" fill="#64546F"/>
<path d="M71.8422 47.1177C71.8422 47.1177 71.7965 47.1111 71.7769 47.0981C71.2151 46.6343 69.693 45.5695 67.583 45.5695C67.5372 45.5695 67.4915 45.5695 67.4523 45.5695C65.8975 45.6021 64.7021 46.19 63.977 46.6735C63.9312 46.7061 63.8725 46.6931 63.8398 46.6473C63.8071 46.6016 63.8202 46.5428 63.8659 46.5101C64.6172 46.0137 65.8453 45.4061 67.4458 45.3735C69.2161 45.3343 70.6141 46.0398 71.4045 46.5755C70.8623 45.8699 69.9347 44.9554 68.5302 44.4458C67.6222 44.1127 66.6227 43.9951 65.6493 44.1062C65.597 44.1127 65.5448 44.0735 65.5383 44.0212C65.5383 43.969 65.5709 43.9167 65.6232 43.9102C66.6292 43.7991 67.6613 43.9167 68.5955 44.2564C70.4116 44.9227 71.4568 46.2358 71.9141 46.9674C71.9402 47.0066 71.9336 47.0589 71.8944 47.0915C71.8748 47.1046 71.8553 47.1177 71.8291 47.1177H71.8422Z" fill="#AF9CAA"/>
</svg>
