<svg width="98" height="100" viewBox="0 0 98 100" fill="none" xmlns="http://www.w3.org/2000/svg">
<path d="M68.9219 2.95978V30.7682H16.9536V15.6667C17.0432 15.5652 17.1208 15.4697 17.2164 15.3682C17.3238 15.2428 17.4194 15.1353 17.5268 15.0159C17.7537 14.7352 18.0046 14.4725 18.2554 14.2097C18.9361 13.4812 19.6526 12.8065 20.3692 12.1795C20.614 11.9645 20.8529 11.7555 21.1037 11.5644C21.3007 11.4032 21.4918 11.236 21.6948 11.0808C22.1427 10.7285 22.5905 10.3941 23.0384 10.0776C23.4862 9.75513 23.9341 9.4506 24.3819 9.158C24.4894 9.09232 24.5909 9.02664 24.6984 8.96095C25.0507 8.73404 25.397 8.5131 25.7553 8.31008C25.9225 8.20857 26.0897 8.119 26.2569 8.02345C26.5495 7.85029 26.8361 7.68906 27.1227 7.53381C27.3019 7.4323 27.481 7.3487 27.6542 7.25316C27.9289 7.10387 28.2036 6.96056 28.4723 6.82322C28.6514 6.73365 28.8306 6.65005 29.0097 6.56048C29.2784 6.42314 29.5412 6.29774 29.8039 6.18429C29.9771 6.10069 30.1442 6.02904 30.3174 5.95141C30.5861 5.83198 30.8429 5.71853 31.0997 5.61104C31.2609 5.53939 31.4221 5.46773 31.5833 5.40205C31.8461 5.28859 32.1028 5.18708 32.3596 5.08557C32.5029 5.02586 32.6522 4.96614 32.7895 4.9124C33.0642 4.79895 33.321 4.69743 33.5837 4.60189C33.7031 4.55412 33.8166 4.50635 33.936 4.46455C34.2286 4.3511 34.5093 4.24958 34.778 4.14807C34.8496 4.11822 34.9332 4.08836 35.0049 4.0585C35.3452 3.92714 35.6737 3.80771 35.9842 3.70022C36.9456 3.35389 37.895 3.04338 38.8325 2.7687C40.0387 2.41042 41.227 2.10588 42.3914 1.85509C42.893 1.74163 43.3886 1.65206 43.8782 1.55652C47.0371 0.983278 50.0168 0.768311 52.7516 0.768311C58.3468 0.768311 62.8909 1.67595 65.7392 2.26114C66.3483 2.38654 67.0051 2.52388 67.6978 2.67913C68.0919 2.7687 68.498 2.8523 68.916 2.95381L68.9219 2.95978Z" fill="#BFD2EF"/>
<path d="M32.27 18.7658C31.3086 18.7658 30.4248 18.6046 29.6247 18.2762C28.7648 17.9238 28.2871 17.5118 27.7855 17.07C27.2541 16.6102 26.7107 16.1265 25.6418 15.6249C24.77 15.2129 22.4293 14.2933 19.6108 14.5859C19.563 14.5919 19.5152 14.556 19.5093 14.5023C19.5093 14.4545 19.5391 14.4067 19.5929 14.4008C22.4651 14.0962 24.8357 15.0397 25.7254 15.4577C26.8182 15.9712 27.4034 16.4788 27.9169 16.9326C28.4304 17.3805 28.8723 17.7686 29.7023 18.103C31.5176 18.8375 33.7747 18.718 36.4141 17.7447C36.4618 17.7268 36.5156 17.7507 36.5335 17.7985C36.5514 17.8462 36.5275 17.9 36.4798 17.9179C34.9511 18.4792 33.5478 18.7658 32.2819 18.7658H32.27Z" fill="#67B4C6"/>
<path d="M37.3219 16.8489C38.1161 16.8489 38.7669 17.7685 38.7669 17.7685C38.7669 17.7685 38.122 18.694 37.3279 18.694C36.5337 18.694 35.8828 18.282 35.8828 17.7744C35.8828 17.2669 36.5277 16.8489 37.3219 16.8489Z" fill="#67B4C6"/>
<path d="M34.0792 18.4253C34.7779 18.8074 34.9033 19.9241 34.9033 19.9241C34.9033 19.9241 33.8941 20.4256 33.1955 20.0495C32.4968 19.6673 32.1266 18.9985 32.3714 18.5507C32.6162 18.1028 33.3806 18.0491 34.0792 18.4253Z" fill="#67B4C6"/>
<path d="M29.081 10.8478C29.6961 10.3403 30.7829 10.6448 30.7829 10.6448C30.7829 10.6448 30.8725 11.7674 30.2514 12.275C29.6364 12.7825 28.872 12.8721 28.5496 12.478C28.2271 12.0839 28.46 11.3554 29.081 10.8478Z" fill="#67B4C6"/>
<path d="M29.0275 13.4574C29.6605 13.9351 29.6187 15.0636 29.6187 15.0636C29.6187 15.0636 28.5439 15.41 27.9109 14.9323C27.278 14.4546 27.0092 13.732 27.3198 13.326C27.6303 12.9199 28.3946 12.9796 29.0275 13.4574Z" fill="#67B4C6"/>
<path d="M24.8535 11.7316C25.1819 11.009 26.2926 10.8 26.2926 10.8C26.2926 10.8 26.8659 11.7734 26.5374 12.4959C26.209 13.2184 25.5641 13.6364 25.0984 13.4274C24.6326 13.2184 24.5251 12.4541 24.8535 11.7316Z" fill="#67B4C6"/>
<path d="M32.3116 20.0257C32.4549 20.8079 31.6668 21.6141 31.6668 21.6141C31.6668 21.6141 30.6397 21.1483 30.4964 20.3661C30.3531 19.5838 30.6397 18.8732 31.1413 18.7777C31.6429 18.6821 32.1683 19.2434 32.3116 20.0257Z" fill="#67B4C6"/>
<path d="M29.4812 19.1C29.1886 19.8405 28.0899 20.1032 28.0899 20.1032C28.0899 20.1032 27.4689 19.1657 27.7615 18.4253C28.0541 17.6848 28.6751 17.237 29.1528 17.4221C29.6305 17.6072 29.7738 18.3596 29.4812 19.1Z" fill="#67B4C6"/>
<path d="M26.8 18.5866C27.2419 19.2494 26.8239 20.3003 26.8239 20.3003C26.8239 20.3003 25.6953 20.2705 25.2594 19.6077C24.8175 18.9449 24.8056 18.1746 25.2355 17.8939C25.6595 17.6133 26.3641 17.9238 26.8 18.5866Z" fill="#67B4C6"/>
<path d="M25.4924 17.8343C25.1222 18.3478 24.0712 18.2284 24.0712 18.2284C24.0712 18.2284 23.6174 17.273 23.9876 16.7595C24.3579 16.2459 24.9908 16.0668 25.4088 16.3654C25.8268 16.6639 25.8626 17.3208 25.4924 17.8343Z" fill="#67B4C6"/>
<path d="M25.134 20.7961C24.8414 21.5365 23.7427 21.7993 23.7427 21.7993C23.7427 21.7993 23.1217 20.8618 23.4143 20.1213C23.7069 19.3809 24.3279 18.933 24.8056 19.1182C25.2833 19.3033 25.4266 20.0556 25.134 20.7961Z" fill="#67B4C6"/>
<path d="M37.0052 21.9364C37.7218 22.2887 37.889 23.4054 37.889 23.4054C37.889 23.4054 36.8977 23.9488 36.1871 23.5964C35.4706 23.2441 35.0765 22.5873 35.3034 22.1275C35.5303 21.6677 36.2947 21.5841 37.0052 21.9364Z" fill="#67B4C6"/>
<path d="M34.7183 22.7605C34.8795 23.5427 34.1092 24.3608 34.1092 24.3608C34.1092 24.3608 33.0702 23.9189 32.909 23.1367C32.7478 22.3544 33.0224 21.6379 33.5181 21.5364C34.0197 21.4348 34.5571 21.9782 34.7183 22.7605Z" fill="#67B4C6"/>
<path d="M30.837 16.9146C31.5834 16.6459 32.5089 17.2968 32.5089 17.2968C32.5089 17.2968 32.2163 18.3836 31.4639 18.6583C30.7116 18.927 29.9652 18.7598 29.792 18.2761C29.6188 17.7924 30.0846 17.1893 30.837 16.9146Z" fill="#67B4C6"/>
<path d="M35.602 22.5157C35.602 22.5157 35.596 22.5157 35.59 22.5157C35.2735 22.4798 33.6673 22.235 32.7775 20.7959C32.2819 19.9958 32.2222 19.1837 32.258 18.6462C32.258 18.5985 32.3058 18.5507 32.3536 18.5626C32.4013 18.5626 32.4431 18.6104 32.4372 18.6582C32.4073 19.1717 32.4611 19.942 32.9328 20.7004C33.7748 22.0678 35.3094 22.3007 35.6079 22.3305C35.6557 22.3305 35.6975 22.3843 35.6915 22.4321C35.6915 22.4798 35.6438 22.5157 35.602 22.5157Z" fill="#67B4C6"/>
<path d="M22.8889 14.7352C22.8889 14.7352 22.8412 14.7292 22.8233 14.7113C22.7874 14.6755 22.7874 14.6158 22.8233 14.58C23.5518 13.8276 24.322 13.3917 25.1222 13.2842C25.4745 13.2364 25.785 13.2543 26.0836 13.2782C26.5195 13.3081 26.9315 13.3379 27.4689 13.1528C27.9048 13.0035 28.3109 12.7587 28.6751 12.4124C28.711 12.3765 28.7707 12.3765 28.8065 12.4124C28.8423 12.4482 28.8423 12.5079 28.8065 12.5437C28.4243 12.908 27.9944 13.1707 27.5346 13.326C26.9673 13.5171 26.5135 13.4872 26.0776 13.4573C25.785 13.4394 25.4864 13.4156 25.152 13.4633C24.3937 13.5648 23.6592 13.9828 22.9606 14.7054C22.9427 14.7233 22.9188 14.7352 22.8949 14.7352H22.8889Z" fill="#67B4C6"/>
<path d="M24.4416 19.5899C24.4416 19.5899 24.4117 19.5899 24.3938 19.5779C24.352 19.554 24.3341 19.4943 24.3639 19.4525C24.8178 18.7001 25.0865 17.8522 25.1283 16.9924C25.1582 16.4131 25.0925 15.8339 24.9253 15.2666C24.9133 15.2189 24.9372 15.1651 24.985 15.1532C25.0387 15.1412 25.0865 15.1651 25.0984 15.2129C25.2656 15.7981 25.3373 16.4012 25.3074 16.9983C25.2597 17.8821 24.985 18.7658 24.5192 19.5421C24.5013 19.572 24.4714 19.5839 24.4416 19.5839V19.5899Z" fill="#67B4C6"/>
<path d="M51.0975 23.8415C51.0617 23.8415 51.0318 23.8236 51.0139 23.7878C50.99 23.74 51.0139 23.6862 51.0557 23.6683C52.5306 22.9757 53.7905 22.0441 54.7878 20.8976C56.394 19.0525 56.9255 17.1059 57.3972 15.3921C57.9107 13.5231 58.3526 11.9049 59.9888 10.8718C60.7531 10.3881 61.2965 10.3344 61.9354 10.2687C62.5983 10.1971 63.3566 10.1194 64.5986 9.55812C65.4764 9.16402 67.6977 7.98767 69.31 5.64692C69.3398 5.60512 69.3936 5.59317 69.4354 5.62303C69.4772 5.65289 69.4891 5.70663 69.4593 5.74843C67.8231 8.12501 65.566 9.31927 64.6703 9.71935C63.3984 10.2926 62.5923 10.3762 61.9474 10.4419C61.3084 10.5076 60.8068 10.5613 60.0843 11.0151C58.5079 12.0123 58.072 13.5947 57.5704 15.4279C57.0987 17.1656 56.5553 19.1301 54.9251 21.0051C53.91 22.1695 52.6321 23.119 51.1333 23.8176C51.1214 23.8236 51.1094 23.8236 51.0915 23.8236L51.0975 23.8415Z" fill="#67B4C6"/>
<path d="M51.1874 24.9941C50.5425 25.4658 49.4796 25.0956 49.4796 25.0956C49.4796 25.0956 49.4557 23.967 50.1006 23.5013C50.7455 23.0296 51.5099 22.9878 51.8084 23.3998C52.107 23.8118 51.8323 24.5283 51.1874 24.9941Z" fill="#67B4C6"/>
<path d="M56.9856 14.162C56.2391 14.4486 55.3076 13.8157 55.3076 13.8157C55.3076 13.8157 55.5823 12.7229 56.3227 12.4363C57.0692 12.1497 57.8156 12.3049 58.0007 12.7826C58.1858 13.2603 57.726 13.8754 56.9856 14.162Z" fill="#67B4C6"/>
<path d="M56.382 16.891C55.6356 17.1776 54.7041 16.5447 54.7041 16.5447C54.7041 16.5447 54.9788 15.4519 55.7192 15.1653C56.4656 14.8787 57.2121 15.0339 57.3972 15.5116C57.5823 15.9893 57.1225 16.6044 56.382 16.891Z" fill="#67B4C6"/>
<path d="M65.9783 18.5808C65.9604 19.375 65.0229 20.002 65.0229 20.002C65.0229 20.002 64.1093 19.3392 64.1272 18.539C64.1451 17.7389 64.5691 17.1059 65.0826 17.1178C65.5902 17.1298 65.9962 17.7807 65.9783 18.5808Z" fill="#67B4C6"/>
<path d="M54.7044 23.77C54.6865 24.5642 53.749 25.1912 53.749 25.1912C53.749 25.1912 52.8354 24.5284 52.8533 23.7282C52.8712 22.9281 53.2951 22.2951 53.8087 22.3071C54.3162 22.319 54.7223 22.9699 54.7044 23.77Z" fill="#67B4C6"/>
<path d="M64.0316 16.843C63.2553 17.0162 62.4253 16.2519 62.4253 16.2519C62.4253 16.2519 62.8552 15.2129 63.6375 15.0397C64.4138 14.8665 65.1363 15.1352 65.2438 15.6309C65.3513 16.1265 64.8138 16.6699 64.0316 16.843Z" fill="#67B4C6"/>
<path d="M66.1693 12.4722C65.393 12.6454 64.563 11.881 64.563 11.881C64.563 11.881 64.9929 10.842 65.7752 10.6689C66.5574 10.4957 67.274 10.7644 67.3815 11.26C67.489 11.7556 66.9515 12.299 66.1693 12.4722Z" fill="#67B4C6"/>
<path d="M68.056 14.7891C68.3904 15.5116 67.8291 16.4849 67.8291 16.4849C67.8291 16.4849 66.7184 16.2879 66.384 15.5653C66.0496 14.8428 66.1511 14.0845 66.6109 13.8695C67.0707 13.6545 67.7216 14.0665 68.056 14.7891Z" fill="#67B4C6"/>
<path d="M68.6771 8.97291C69.0115 9.69543 68.4502 10.6688 68.4502 10.6688C68.4502 10.6688 67.3395 10.4717 67.0051 9.74918C66.6707 9.02665 66.7722 8.26829 67.232 8.05332C67.6918 7.83836 68.3427 8.25038 68.6771 8.97291Z" fill="#67B4C6"/>
<path d="M56.9196 11.7734C56.2269 11.3734 56.1313 10.2508 56.1313 10.2508C56.1313 10.2508 57.1524 9.77305 57.8451 10.1731C58.5378 10.5732 58.8841 11.2539 58.6333 11.6958C58.3766 12.1377 57.6122 12.1735 56.9196 11.7734Z" fill="#67B4C6"/>
<path d="M59.4634 10.2271C59.0873 9.52247 59.6008 8.51929 59.6008 8.51929C59.6008 8.51929 60.7174 8.65663 61.0936 9.36124C61.4698 10.0659 61.4041 10.8302 60.9563 11.069C60.5084 11.3079 59.8396 10.9317 59.4634 10.2271Z" fill="#67B4C6"/>
<path d="M61.5951 8.51927C60.8069 8.42373 60.2754 7.42652 60.2754 7.42652C60.2754 7.42652 61.0278 6.59053 61.822 6.68607C62.6102 6.78161 63.2013 7.27126 63.1416 7.77882C63.0819 8.28639 62.3892 8.61481 61.5951 8.51927Z" fill="#67B4C6"/>
<path d="M63.0163 8.0175C62.867 7.40246 63.6373 6.67993 63.6373 6.67993C63.6373 6.67993 64.6584 6.95461 64.8077 7.57563C64.9569 8.19664 64.6822 8.7878 64.1866 8.9132C63.691 9.03263 63.1656 8.63852 63.0163 8.0175Z" fill="#67B4C6"/>
<path d="M60.9981 5.8201C60.6219 5.11549 61.1354 4.1123 61.1354 4.1123C61.1354 4.1123 62.2521 4.24964 62.6283 4.95426C63.0045 5.65887 62.9388 6.4232 62.4909 6.66206C62.0431 6.90091 61.3743 6.52471 60.9981 5.8201Z" fill="#67B4C6"/>
<path d="M50.178 18.2226C49.4555 17.8882 49.2524 16.7835 49.2524 16.7835C49.2524 16.7835 50.2258 16.2103 50.9483 16.5447C51.6708 16.8791 52.0888 17.524 51.8739 17.9838C51.6589 18.4495 50.9006 18.557 50.178 18.2226Z" fill="#67B4C6"/>
<path d="M52.919 18.1988C52.5249 17.5061 53.0146 16.491 53.0146 16.491C53.0146 16.491 54.1372 16.5985 54.5313 17.2911C54.9254 17.9838 54.8836 18.7481 54.4358 18.9989C53.9939 19.2497 53.3131 18.8914 52.919 18.1988Z" fill="#67B4C6"/>
<path d="M52.6504 21.9188C51.898 21.6621 51.5815 20.5753 51.5815 20.5753C51.5815 20.5753 52.4892 19.9125 53.2475 20.1692C53.9999 20.426 54.4776 21.0291 54.3164 21.5128C54.1492 21.9964 53.4088 22.1756 52.6504 21.9188Z" fill="#67B4C6"/>
<path d="M51.5752 19.8706C50.7989 20.0498 49.9629 19.2974 49.9629 19.2974C49.9629 19.2974 50.3809 18.2524 51.1572 18.0673C51.9334 17.8882 52.656 18.1449 52.7694 18.6406C52.8829 19.1362 52.3514 19.6855 51.5752 19.8706Z" fill="#67B4C6"/>
<path d="M60.2396 12.6752C59.959 13.4217 58.8662 13.6963 58.8662 13.6963C58.8662 13.6963 58.2273 12.7648 58.5139 12.0184C58.7945 11.272 59.4096 10.8182 59.8873 10.9973C60.365 11.1764 60.5262 11.9288 60.2396 12.6752Z" fill="#67B4C6"/>
<path d="M58.5497 18.0314C59.0393 18.6584 58.7049 19.7392 58.7049 19.7392C58.7049 19.7392 57.5764 19.793 57.0927 19.166C56.603 18.539 56.5373 17.7747 56.9374 17.4582C57.3375 17.1417 58.066 17.4044 58.5497 18.0314Z" fill="#67B4C6"/>
<path d="M60.2338 23.0175C60.4547 23.7819 59.7441 24.6597 59.7441 24.6597C59.7441 24.6597 58.6753 24.2954 58.4603 23.5311C58.2394 22.7667 58.4603 22.0323 58.9499 21.889C59.4396 21.7457 60.0188 22.2532 60.2338 23.0175Z" fill="#67B4C6"/>
<path d="M60.3351 20.0976C61.0457 20.4619 61.195 21.5785 61.195 21.5785C61.195 21.5785 60.1978 22.104 59.4872 21.7457C58.7766 21.3815 58.3944 20.7186 58.6273 20.2648C58.8602 19.811 59.6245 19.7393 60.3351 20.0976Z" fill="#67B4C6"/>
<path d="M59.7799 16.1982C60.4905 16.5625 60.6398 17.6791 60.6398 17.6791C60.6398 17.6791 59.6426 18.2046 58.932 17.8463C58.2214 17.482 57.8392 16.8192 58.0721 16.3654C58.305 15.9116 59.0693 15.8399 59.7799 16.1982Z" fill="#67B4C6"/>
<path d="M57.1585 20.9934C57.2241 21.7876 56.3583 22.5101 56.3583 22.5101C56.3583 22.5101 55.385 21.9428 55.3193 21.1486C55.2536 20.3544 55.6119 19.6797 56.1194 19.6319C56.627 19.5901 57.0928 20.1992 57.1585 20.9934Z" fill="#67B4C6"/>
<path d="M54.0298 19.0944C53.9104 19.0944 53.7909 19.0884 53.6655 19.0764C52.734 18.9749 52.0533 18.5271 51.6472 18.1688C51.6114 18.133 51.6054 18.0792 51.6413 18.0374C51.6771 18.0016 51.7308 17.9956 51.7726 18.0315C52.1608 18.3718 52.8057 18.8018 53.6894 18.8973C55.2838 19.0645 56.4124 18.0016 56.6213 17.7866C56.6572 17.7508 56.7169 17.7508 56.7527 17.7866C56.7885 17.8225 56.7885 17.8822 56.7527 17.918C56.5497 18.127 55.5226 19.1003 54.0358 19.1003L54.0298 19.0944Z" fill="#67B4C6"/>
<path d="M64.963 17.3507C64.9153 17.3507 64.8735 17.3089 64.8735 17.2611C64.8556 16.7416 64.9392 16.252 65.1064 15.7922C65.4348 14.9024 66.0259 14.365 66.3842 14.0426C66.4499 13.9829 66.5156 13.9231 66.5634 13.8754C67.4591 12.9916 67.6083 11.1763 67.0112 8.48925C66.9993 8.44148 67.0291 8.38774 67.0829 8.38176C67.1306 8.36982 67.1784 8.39968 67.1903 8.45342C67.8054 11.2122 67.6382 13.0812 66.6947 14.0127C66.641 14.0665 66.5813 14.1202 66.5096 14.1859C66.1454 14.5143 65.59 15.0159 65.2795 15.8638C65.1183 16.2997 65.0466 16.7715 65.0586 17.2671C65.0586 17.3148 65.0227 17.3626 64.969 17.3626L64.963 17.3507Z" fill="#67B4C6"/>
<path d="M65.2972 9.4269C65.2972 9.4269 65.2734 9.4269 65.2614 9.42093C64.7061 9.17013 64.2045 8.82977 63.7686 8.41775C63.1237 7.80867 62.634 7.02643 62.3534 6.16656C62.3355 6.11879 62.3654 6.06505 62.4131 6.05311C62.4609 6.03519 62.5146 6.06505 62.5266 6.11282C62.8013 6.9488 63.273 7.70119 63.894 8.29235C64.312 8.69243 64.8017 9.01488 65.3331 9.2597C65.3809 9.28359 65.3988 9.33733 65.3809 9.37913C65.3629 9.41495 65.3331 9.43287 65.2972 9.43287V9.4269Z" fill="#67B4C6"/>
<path d="M58.8782 22.1219C58.8304 22.1219 58.7886 22.0801 58.7886 22.0323C58.7886 21.1605 58.7349 20.2887 58.6095 19.4348C58.4005 18.0077 58.0123 16.6044 57.457 15.2549C57.4391 15.2071 57.457 15.1534 57.5048 15.1355C57.5525 15.1176 57.6063 15.1355 57.6242 15.1832C58.1855 16.5447 58.5796 17.9659 58.7886 19.405C58.914 20.2648 58.9737 21.1486 58.9737 22.0264C58.9737 22.0741 58.9319 22.1159 58.8841 22.1159L58.8782 22.1219Z" fill="#67B4C6"/>
<path d="M43.8902 1.5625V30.7861H42.4033V1.86107C42.9049 1.74761 43.4005 1.65804 43.8902 1.5625Z" fill="white"/>
<path d="M43.1438 14.2158V15.7086H16.9238C16.9238 15.7086 16.9358 15.6848 16.9417 15.6728C16.9835 15.5713 17.0253 15.4758 17.0731 15.3743C17.1269 15.2489 17.1746 15.1414 17.2283 15.0219C17.3418 14.7413 17.4672 14.4786 17.5926 14.2158H43.1498H43.1438Z" fill="white"/>
<path d="M29.8042 6.1965C29.9774 6.11888 30.1505 6.03528 30.3177 5.96362C30.1446 6.04125 29.9774 6.11888 29.8042 6.1965Z" fill="white"/>
<path d="M31.1055 5.6172C31.2667 5.54554 31.4279 5.47986 31.5891 5.4082C31.4279 5.47389 31.2667 5.54554 31.1055 5.6172Z" fill="white"/>
<path d="M28.4785 6.83525C28.6577 6.74568 28.8368 6.66208 29.01 6.57251C28.8308 6.65611 28.6577 6.74568 28.4785 6.83525Z" fill="white"/>
<path d="M27.123 7.53993C27.3022 7.44439 27.4813 7.34885 27.6545 7.25928C27.4754 7.35482 27.3022 7.44439 27.123 7.53993Z" fill="white"/>
<path d="M34.7778 4.14805C34.8555 4.11819 34.9331 4.08834 35.0047 4.06445C34.9331 4.09431 34.8495 4.12417 34.7778 4.14805Z" fill="white"/>
<path d="M24.376 9.1641C24.4835 9.09244 24.585 9.03273 24.6924 8.96704C24.585 9.03273 24.4835 9.09841 24.376 9.1641Z" fill="white"/>
<path d="M19.748 12.753C19.9511 12.5619 20.1601 12.3708 20.3691 12.1917C20.1601 12.3768 19.957 12.5619 19.748 12.753Z" fill="white"/>
<path d="M17.2163 15.3743C17.4193 15.1354 17.6283 14.9026 17.8373 14.6697C17.6283 14.8966 17.4253 15.1354 17.2163 15.3743Z" fill="white"/>
<path d="M19.0796 13.3799C18.8706 13.5829 18.6616 13.7979 18.4526 14.0128C18.6616 13.7979 18.8646 13.5889 19.0796 13.3799Z" fill="white"/>
<path d="M70.6836 3.37784V32.5955H15.0967V18.1568C15.246 17.9359 15.3952 17.715 15.5445 17.506C15.9924 16.879 16.4641 16.2818 16.9418 15.7146C16.9418 15.7086 16.9478 15.7026 16.9537 15.6967V30.7742H68.9221V2.96582C69.4893 3.09719 70.0745 3.23453 70.6836 3.38381V3.37784Z" fill="white"/>
<path d="M22.5366 10.4481C22.7038 10.3287 22.8651 10.1973 23.0323 10.0779C22.8651 10.1973 22.7038 10.3227 22.5366 10.4481Z" fill="white"/>
<path opacity="0.5" d="M97.3096 44.6693C96.2049 45.9412 94.2702 45.9591 92.5803 45.8815C82.226 45.3739 71.8658 44.8604 61.5116 44.3468C61.5474 42.239 61.5772 40.1012 61.0816 38.059C60.586 36.0049 59.4873 34.0224 57.7078 32.8939C57.5406 32.7864 57.3675 32.6908 57.1943 32.5953C56.0418 31.9802 54.7281 31.616 53.7309 30.774C53.6951 30.7502 53.6652 30.7263 53.6294 30.6904C51.7425 29.0244 51.6708 26.1164 52.0351 23.6324C52.053 23.495 52.0769 23.3577 52.0948 23.2203C52.1724 22.7367 52.256 22.247 52.3396 21.7574C52.4292 21.2199 52.5008 20.6766 52.5546 20.1391C52.5844 19.8346 52.6023 19.536 52.6083 19.2315C52.6202 19.0524 52.6203 18.8732 52.6203 18.7C52.6203 18.5866 52.6143 18.4851 52.6083 18.3716C52.5785 17.6192 52.4471 16.8848 52.1784 16.1682C52.1187 16.013 52.053 15.8577 51.9873 15.7084C51.7305 15.165 51.4021 14.6634 51.0259 14.2156C49.4614 12.3406 46.9714 11.1643 44.7202 10.0118C44.4635 9.88042 44.1828 9.73114 43.8783 9.55797C43.4125 9.29523 42.9049 8.98472 42.3914 8.63839C40.2955 7.22319 38.1219 5.15711 38.7668 2.94773C38.7847 2.89399 38.8027 2.8283 38.8265 2.77456C40.0328 2.41628 41.221 2.11174 42.3854 1.86095C42.887 1.74749 43.3827 1.65792 43.8723 1.56238C47.0311 0.989137 50.0108 0.77417 52.7457 0.77417C58.3408 0.77417 62.885 1.68181 65.7333 2.267C66.3423 2.3924 66.9992 2.52974 67.6918 2.68499C68.086 2.77456 68.492 2.85816 68.91 2.95967C69.4773 3.09104 70.0625 3.22838 70.6715 3.37766C71.0417 3.4732 71.4299 3.56874 71.818 3.67026C71.8479 4.26142 71.8419 4.85258 71.8479 5.42582C71.8598 12.1077 74.8395 18.7299 79.8315 23.1785C82.2499 25.3282 85.1699 27.0659 86.8418 29.8485C87.7435 31.3413 88.2332 33.0909 89.3618 34.4285C90.4127 35.6765 91.9055 36.4408 93.3446 37.1992C94.7837 37.9635 96.2586 38.8055 97.1961 40.1371C98.1276 41.4687 98.3605 43.4392 97.2976 44.6693H97.3096Z" fill="white"/>
<path d="M3.38115 37.8025H45.5744C46.1536 37.8025 46.6254 38.2742 46.6254 38.8534V68.5667H2.32422V38.8534C2.32422 38.2742 2.79596 37.8025 3.37518 37.8025H3.38115Z" fill="#BFD2EF"/>
<path d="M8.26592 37.8025H50.4592C51.0384 37.8025 51.5102 38.2742 51.5102 38.8534V68.5667H7.20898V38.8534C7.20898 38.2742 7.68072 37.8025 8.25994 37.8025H8.26592Z" fill="#DAE9FE"/>
<path d="M28.1263 44.353H9.23314C9.18537 44.353 9.14355 44.3112 9.14355 44.2634V40.3821C9.14355 40.3343 9.18537 40.2925 9.23314 40.2925H28.1263C28.1741 40.2925 28.2159 40.3343 28.2159 40.3821V44.2634C28.2159 44.3112 28.1741 44.353 28.1263 44.353ZM9.32269 44.1738H28.0368V40.4716H9.32269V44.1738Z" fill="#BFD2EF"/>
<path d="M49.1932 44.353H30.3C30.2522 44.353 30.2104 44.3112 30.2104 44.2634V40.3821C30.2104 40.3343 30.2522 40.2925 30.3 40.2925H49.1932C49.241 40.2925 49.2828 40.3343 49.2828 40.3821V44.2634C49.2828 44.3112 49.241 44.353 49.1932 44.353ZM30.3896 44.1738H49.1037V40.4716H30.3896V44.1738Z" fill="#BFD2EF"/>
<path d="M28.1263 65.4676H9.23314C9.18537 65.4676 9.14355 65.4258 9.14355 65.378V47.0461C9.14355 46.9983 9.18537 46.9565 9.23314 46.9565H28.1263C28.1741 46.9565 28.2159 46.9983 28.2159 47.0461V65.378C28.2159 65.4258 28.1741 65.4676 28.1263 65.4676ZM9.32269 65.2944H28.0368V47.1417H9.32269V65.2944Z" fill="#BFD2EF"/>
<path d="M49.1932 65.4676H30.3C30.2522 65.4676 30.2104 65.4258 30.2104 65.378V47.0461C30.2104 46.9983 30.2522 46.9565 30.3 46.9565H49.1932C49.241 46.9565 49.2828 46.9983 49.2828 47.0461V65.378C49.2828 65.4258 49.241 65.4676 49.1932 65.4676ZM30.3896 65.2944H49.1037V47.1417H30.3896V65.2944Z" fill="#BFD2EF"/>
<path d="M20.8173 41.5524H16.5359C16.4881 41.5524 16.4463 41.5106 16.4463 41.4629C16.4463 41.4151 16.4881 41.3733 16.5359 41.3733H20.8173C20.8651 41.3733 20.9069 41.4151 20.9069 41.4629C20.9069 41.5106 20.8651 41.5524 20.8173 41.5524Z" fill="#BFD2EF"/>
<path d="M41.8842 41.5524H37.6028C37.555 41.5524 37.5132 41.5106 37.5132 41.4629C37.5132 41.4151 37.555 41.3733 37.6028 41.3733H41.8842C41.932 41.3733 41.9737 41.4151 41.9737 41.4629C41.9737 41.5106 41.932 41.5524 41.8842 41.5524Z" fill="#BFD2EF"/>
<path d="M49.0801 96.5982C71.7661 96.5982 90.1567 93.3472 90.1567 89.337C90.1567 85.3268 71.7661 82.0759 49.0801 82.0759C26.3941 82.0759 8.00342 85.3268 8.00342 89.337C8.00342 93.3472 26.3941 96.5982 49.0801 96.5982Z" fill="#FEFBC1"/>
<path d="M49.0804 99.2315C48.955 99.2315 48.8535 99.13 48.8535 99.0046V89.9999C48.8535 89.8745 48.955 89.7729 49.0804 89.7729C49.2058 89.7729 49.3073 89.8745 49.3073 89.9999V99.0046C49.3073 99.13 49.2058 99.2315 49.0804 99.2315Z" fill="#FEFBC1"/>
<path d="M53.6663 99.1837C53.5827 99.1837 53.505 99.1419 53.4692 99.0643L48.8833 90.1073C48.8295 89.9998 48.8713 89.8625 48.9788 89.8087C49.0863 89.749 49.2236 89.7968 49.2773 89.9043L53.8633 98.8612C53.9171 98.9687 53.8753 99.1061 53.7678 99.1598C53.7379 99.1777 53.7021 99.1837 53.6663 99.1837Z" fill="#FEFBC1"/>
<path d="M58.1985 99.0346C58.1448 99.0346 58.0851 99.0107 58.0433 98.9689L48.9251 90.1612C48.8355 90.0776 48.8355 89.9343 48.9251 89.8448C49.0087 89.7552 49.152 89.7552 49.2415 89.8448L58.3598 98.6524C58.4493 98.736 58.4493 98.8794 58.3598 98.9689C58.318 99.0167 58.2582 99.0346 58.1985 99.0346Z" fill="#FEFBC1"/>
<path d="M62.6351 98.7897C62.5933 98.7897 62.5515 98.7777 62.5157 98.7538L48.9608 90.191C48.8593 90.1253 48.8235 89.9879 48.8892 89.8805C48.9548 89.773 49.0922 89.7431 49.1997 89.8088L62.7545 98.3717C62.856 98.4373 62.8919 98.5747 62.8262 98.6822C62.7844 98.7478 62.7128 98.7837 62.6351 98.7837V98.7897Z" fill="#FEFBC1"/>
<path d="M66.9222 98.4552C66.8924 98.4552 66.8565 98.4493 66.8267 98.4373L48.9904 90.2089C48.8769 90.1551 48.8292 90.0238 48.8829 89.9103C48.9366 89.7968 49.068 89.7491 49.1815 89.8028L67.0178 98.0313C67.1312 98.085 67.179 98.2164 67.1252 98.3298C67.0894 98.4134 67.0058 98.4612 66.9222 98.4612V98.4552Z" fill="#FEFBC1"/>
<path d="M71.0127 98.0254C71.0127 98.0254 70.9649 98.0254 70.9351 98.0135L49.0084 90.2149C48.895 90.1731 48.8293 90.0477 48.8711 89.9283C48.9129 89.8089 49.0443 89.7551 49.1577 89.791L71.0844 97.5895C71.1978 97.6313 71.2635 97.7567 71.2217 97.8761C71.1918 97.9657 71.1023 98.0254 71.0127 98.0254Z" fill="#FEFBC1"/>
<path d="M74.8584 97.512C74.8584 97.512 74.8166 97.512 74.7987 97.506L49.0205 90.221C48.901 90.1852 48.8294 90.0658 48.8652 89.9464C48.901 89.8269 49.0205 89.7612 49.1399 89.7911L74.918 97.0761C75.0375 97.1119 75.1091 97.2314 75.0733 97.3508C75.0435 97.4523 74.9539 97.512 74.8584 97.512Z" fill="#FEFBC1"/>
<path d="M78.4293 96.9208C78.4293 96.9208 78.3935 96.9208 78.3815 96.9208L49.0325 90.227C48.9131 90.1971 48.8354 90.0777 48.8653 89.9583C48.8892 89.8389 49.0146 89.7612 49.134 89.7911L78.483 96.4849C78.6024 96.5148 78.6801 96.6342 78.6502 96.7536C78.6263 96.8551 78.5367 96.9268 78.4293 96.9268V96.9208Z" fill="#FEFBC1"/>
<path d="M81.6778 96.2518C81.6778 96.2518 81.6539 96.2518 81.636 96.2518L49.0446 90.2267C48.9252 90.2028 48.8415 90.0894 48.8654 89.964C48.8893 89.8446 49.0028 89.761 49.1282 89.7848L81.7196 95.8099C81.839 95.8338 81.9226 95.9472 81.8987 96.0726C81.8808 96.1801 81.7853 96.2577 81.6778 96.2577V96.2518Z" fill="#FEFBC1"/>
<path d="M84.5618 95.5235C84.5618 95.5235 84.5379 95.5235 84.526 95.5235L49.0444 90.2329C48.925 90.215 48.8354 90.1016 48.8534 89.9762C48.8713 89.8567 48.9788 89.7731 49.1101 89.7851L84.5916 95.0757C84.7111 95.0936 84.8006 95.207 84.7827 95.3324C84.7648 95.4459 84.6693 95.5235 84.5618 95.5235Z" fill="#FEFBC1"/>
<path d="M87.0635 94.7292C87.0635 94.7292 87.0456 94.7292 87.0396 94.7292L49.0561 90.2268C48.9307 90.2149 48.8471 90.1014 48.859 89.976C48.871 89.8506 48.9904 89.767 49.1098 89.779L87.0933 94.2813C87.2187 94.2933 87.3023 94.4067 87.2904 94.5321C87.2785 94.6456 87.1829 94.7292 87.0695 94.7292H87.0635Z" fill="#FEFBC1"/>
<path d="M89.1479 93.8931C89.1479 93.8931 89.136 93.8931 89.13 93.8931L49.0625 90.2327C48.9371 90.2208 48.8475 90.1133 48.8595 89.9879C48.8714 89.8625 48.9729 89.767 49.1043 89.7849L89.1718 93.4453C89.2972 93.4572 89.3867 93.5647 89.3748 93.6901C89.3629 93.8036 89.2673 93.8931 89.1539 93.8931H89.1479Z" fill="#FEFBC1"/>
<path d="M90.7957 93.0096C90.7957 93.0096 90.7837 93.0096 90.7777 93.0096L49.0681 90.2269C48.9428 90.221 48.8532 90.1135 48.8592 89.9881C48.8651 89.8627 48.9607 89.7731 49.098 89.7791L90.8076 92.5617C90.933 92.5677 91.0226 92.6752 91.0166 92.8006C91.0106 92.92 90.9091 93.0096 90.7957 93.0096Z" fill="#FEFBC1"/>
<path d="M91.9781 92.1019C91.9781 92.1019 91.9721 92.1019 91.9662 92.1019L49.0683 90.2269C48.9429 90.2269 48.8473 90.1194 48.8533 89.994C48.8533 89.8686 48.9369 89.7791 49.0862 89.7791L91.9841 91.654C92.1095 91.654 92.205 91.7615 92.199 91.8869C92.199 92.0064 92.0975 92.1019 91.9781 92.1019Z" fill="#FEFBC1"/>
<path d="M92.7007 91.1704L49.0862 90.2269C48.9608 90.2269 48.8652 90.1194 48.8652 90C48.8652 89.8746 48.9608 89.7731 49.0921 89.7791L92.7066 90.7225C92.832 90.7225 92.9276 90.83 92.9276 90.9494C92.9276 91.0689 92.8261 91.1704 92.7066 91.1704H92.7007Z" fill="#FEFBC1"/>
<path d="M92.9397 90.2268H49.0804C48.955 90.2268 48.8535 90.1253 48.8535 89.9999C48.8535 89.8745 48.955 89.7729 49.0804 89.7729H92.9397C93.0651 89.7729 93.1607 89.8745 93.1607 89.9999C93.1607 90.1253 93.0591 90.2268 92.9397 90.2268Z" fill="#FEFBC1"/>
<path d="M49.0804 90.2269C48.961 90.2269 48.8595 90.1314 48.8535 90.006C48.8535 89.8806 48.9491 89.7791 49.0745 89.7791L92.6889 88.8356C92.8382 88.8237 92.9158 88.9312 92.9158 89.0566C92.9158 89.182 92.8203 89.2835 92.6949 89.2835L49.0804 90.2269Z" fill="#FEFBC1"/>
<path d="M49.0803 90.2269C48.9609 90.2269 48.8594 90.1314 48.8594 90.0119C48.8594 89.8865 48.9489 89.785 49.0743 89.779L91.9722 87.9041C92.1215 87.91 92.1991 87.9936 92.2051 88.119C92.2051 88.2444 92.1155 88.3459 91.9901 88.3519L49.0922 90.2269C49.0922 90.2269 49.0863 90.2269 49.0803 90.2269Z" fill="#FEFBC1"/>
<path d="M49.0801 90.2268C48.9607 90.2268 48.8651 90.1372 48.8592 90.0178C48.8532 89.8924 48.9428 89.7849 49.0681 89.779L90.7777 86.9963C90.9151 86.9963 91.0106 87.0799 91.0166 87.2053C91.0226 87.3307 90.933 87.4382 90.8076 87.4442L49.098 90.2268C49.098 90.2268 49.0861 90.2268 49.0801 90.2268Z" fill="#FEFBC1"/>
<path d="M49.0804 90.2269C48.9669 90.2269 48.8654 90.1373 48.8595 90.0239C48.8475 89.8985 48.9371 89.791 49.0625 89.779L89.13 86.1186C89.2614 86.1007 89.3629 86.1962 89.3748 86.3216C89.3867 86.447 89.2972 86.5545 89.1718 86.5665L49.1043 90.2269C49.1043 90.2269 49.0924 90.2269 49.0864 90.2269H49.0804Z" fill="#FEFBC1"/>
<path d="M49.08 90.2267C48.9665 90.2267 48.871 90.1431 48.859 90.0296C48.8471 89.9042 48.9307 89.7967 49.0561 89.7788L87.0396 85.2765C87.159 85.2585 87.2725 85.3481 87.2904 85.4735C87.3023 85.5989 87.2187 85.7064 87.0933 85.7243L49.1098 90.2267C49.1098 90.2267 49.0919 90.2267 49.086 90.2267H49.08Z" fill="#FEFBC1"/>
<path d="M49.0803 90.2267C48.9728 90.2267 48.8773 90.1491 48.8593 90.0356C48.8414 89.9162 48.925 89.7968 49.0504 89.7788L84.532 84.4883C84.6633 84.4703 84.7708 84.5539 84.7887 84.6793C84.8066 84.7988 84.723 84.9182 84.5976 84.9361L49.1161 90.2267C49.1161 90.2267 49.0922 90.2267 49.0803 90.2267Z" fill="#FEFBC1"/>
<path d="M49.08 90.2267C48.9725 90.2267 48.877 90.1491 48.8591 90.0416C48.8352 89.9222 48.9188 89.8028 49.0382 89.7789L81.6296 83.7538C81.755 83.73 81.8685 83.8136 81.8924 83.933C81.9163 84.0524 81.8326 84.1718 81.7132 84.1957L49.1218 90.2208C49.1218 90.2208 49.0919 90.2208 49.08 90.2208V90.2267Z" fill="#FEFBC1"/>
<path d="M49.0804 90.2268C48.9789 90.2268 48.8833 90.1552 48.8594 90.0537C48.8296 89.9342 48.9072 89.8148 49.0266 89.785L78.3756 83.0911C78.4951 83.0613 78.6145 83.1389 78.6443 83.2583C78.6742 83.3777 78.5966 83.4972 78.4771 83.527L49.1281 90.2209C49.1281 90.2209 49.0923 90.2209 49.0804 90.2209V90.2268Z" fill="#FEFBC1"/>
<path d="M49.0802 90.2269C48.9847 90.2269 48.8951 90.1612 48.8652 90.0656C48.8294 89.9462 48.901 89.8208 49.0205 89.7909L74.7987 82.5059C74.9181 82.4761 75.0435 82.5418 75.0733 82.6612C75.1091 82.7806 75.0375 82.906 74.918 82.9359L49.1399 90.2209C49.1399 90.2209 49.0981 90.2269 49.0802 90.2269Z" fill="#FEFBC1"/>
<path d="M49.0802 90.2267C48.9907 90.2267 48.9011 90.167 48.8712 90.0775C48.8294 89.964 48.8891 89.8326 49.0086 89.7908L70.9352 81.9923C71.0546 81.9505 71.18 82.0102 71.2218 82.1296C71.2636 82.2431 71.2039 82.3745 71.0845 82.4163L49.1579 90.2148C49.1579 90.2148 49.1101 90.2267 49.0802 90.2267Z" fill="#FEFBC1"/>
<path d="M49.0801 90.2268C48.9965 90.2268 48.9129 90.1791 48.877 90.0955C48.8233 89.982 48.877 89.8507 48.9845 89.7969L66.8208 81.5684C66.9343 81.5147 67.0656 81.5684 67.1194 81.6759C67.1731 81.7894 67.1194 81.9208 67.0119 81.9745L49.1756 90.203C49.1457 90.2149 49.1159 90.2209 49.0801 90.2209V90.2268Z" fill="#FEFBC1"/>
<path d="M49.0802 90.2268C49.0086 90.2268 48.9309 90.191 48.8891 90.1253C48.8234 90.0238 48.8533 89.8805 48.9608 89.8148L62.5157 81.2519C62.6172 81.1862 62.7605 81.2161 62.8261 81.3236C62.8918 81.4251 62.862 81.5684 62.7545 81.6341L49.1996 90.1969C49.1638 90.2208 49.122 90.2328 49.0802 90.2328V90.2268Z" fill="#FEFBC1"/>
<path d="M49.0804 90.2269C49.0207 90.2269 48.9609 90.203 48.9191 90.1612C48.8355 90.0717 48.8355 89.9283 48.9191 89.8447L58.0373 81.0371C58.1269 80.9535 58.2702 80.9535 58.3538 81.0371C58.4374 81.1266 58.4374 81.2699 58.3538 81.3535L49.2356 90.1612C49.1938 90.203 49.1341 90.2269 49.0804 90.2269Z" fill="#FEFBC1"/>
<path d="M49.08 90.2268C49.0442 90.2268 49.0083 90.2208 48.9785 90.2029C48.871 90.1492 48.8232 90.0119 48.8829 89.9044L53.4689 80.9474C53.5227 80.8339 53.66 80.7922 53.7675 80.8519C53.875 80.9056 53.9228 81.0429 53.863 81.1504L49.277 90.1074C49.2352 90.185 49.1576 90.2268 49.08 90.2268Z" fill="#FEFBC1"/>
<path d="M49.0804 90.2269C48.955 90.2269 48.8535 90.1254 48.8535 90V80.9952C48.8535 80.8698 48.955 80.7683 49.0804 80.7683C49.2058 80.7683 49.3073 80.8698 49.3073 80.9952V90C49.3073 90.1254 49.2058 90.2269 49.0804 90.2269Z" fill="#FEFBC1"/>
<path d="M49.0803 90.2269C48.9967 90.2269 48.9191 90.1851 48.8833 90.1075L44.2973 81.1505C44.2436 81.043 44.2854 80.9057 44.3928 80.8519C44.5003 80.7922 44.6377 80.84 44.6914 80.9475L49.2774 89.9044C49.3311 90.0119 49.2893 90.1493 49.1818 90.203C49.152 90.2209 49.1162 90.2269 49.0803 90.2269Z" fill="#FEFBC1"/>
<path d="M49.0804 90.2268C49.0266 90.2268 48.9669 90.2029 48.9251 90.1611L39.8069 81.3534C39.7174 81.2698 39.7174 81.1265 39.8069 81.0369C39.8905 80.9473 40.0339 80.9473 40.1234 81.0369L49.2416 89.8446C49.3312 89.9282 49.3312 90.0715 49.2416 90.1611C49.1998 90.2088 49.1401 90.2268 49.0804 90.2268Z" fill="#FEFBC1"/>
<path d="M49.0804 90.2269C49.0386 90.2269 48.9968 90.215 48.961 90.1911L35.4061 81.6282C35.3046 81.5625 35.2688 81.4252 35.3345 81.3177C35.4002 81.2102 35.5375 81.1804 35.645 81.2461L49.1999 89.8089C49.3014 89.8746 49.3372 90.0119 49.2715 90.1194C49.2297 90.1851 49.1581 90.2209 49.0804 90.2209V90.2269Z" fill="#FEFBC1"/>
<path d="M49.08 90.227C49.0501 90.227 49.0143 90.221 48.9844 90.2091L31.1481 81.9806C31.0346 81.9269 30.9869 81.7955 31.0406 81.682C31.0944 81.5686 31.2257 81.5208 31.3392 81.5745L49.1755 89.803C49.2889 89.8568 49.3367 89.9881 49.283 90.1016C49.2471 90.1852 49.1636 90.2329 49.08 90.2329V90.227Z" fill="#FEFBC1"/>
<path d="M49.0801 90.2267C49.0801 90.2267 49.0323 90.2267 49.0025 90.2148L27.0758 82.4163C26.9623 82.3745 26.8967 82.2491 26.9385 82.1296C26.9803 82.0102 27.1056 81.9505 27.2251 81.9923L49.1517 89.7908C49.2652 89.8326 49.3309 89.958 49.2891 90.0775C49.2592 90.167 49.1697 90.2267 49.0801 90.2267Z" fill="#FEFBC1"/>
<path d="M49.08 90.2269C49.08 90.2269 49.0382 90.2268 49.0203 90.2209L23.2422 82.9359C23.1227 82.9001 23.0511 82.7806 23.0869 82.6612C23.1167 82.5418 23.2422 82.4761 23.3616 82.5059L49.1397 89.7909C49.2592 89.8268 49.3308 89.9462 49.295 90.0656C49.2651 90.1671 49.1756 90.2269 49.08 90.2269Z" fill="#FEFBC1"/>
<path d="M49.0801 90.2267C49.0801 90.2267 49.0443 90.2267 49.0324 90.2267L19.6834 83.5329C19.5639 83.503 19.4863 83.3836 19.5162 83.2642C19.5401 83.1448 19.6655 83.0671 19.7849 83.097L49.1339 89.7908C49.2533 89.8207 49.3309 89.9401 49.3011 90.0595C49.2772 90.161 49.1876 90.2327 49.0801 90.2327V90.2267Z" fill="#FEFBC1"/>
<path d="M49.0801 90.2269C49.0801 90.2269 49.0562 90.2269 49.0383 90.2269L16.4469 84.2018C16.3275 84.1779 16.2439 84.0645 16.2678 83.9391C16.2916 83.8197 16.4051 83.7361 16.5305 83.7599L49.1219 89.785C49.2414 89.8089 49.3249 89.9223 49.3011 90.0477C49.2831 90.1552 49.1876 90.2328 49.0801 90.2328V90.2269Z" fill="#FEFBC1"/>
<path d="M49.0803 90.2268C49.0803 90.2268 49.0565 90.2268 49.0445 90.2268L13.563 84.9362C13.4435 84.9183 13.354 84.8048 13.3719 84.6794C13.3898 84.56 13.4973 84.4705 13.6287 84.4884L49.1102 89.779C49.2296 89.7969 49.3192 89.9103 49.3013 90.0357C49.2834 90.1492 49.1878 90.2268 49.0803 90.2268Z" fill="#FEFBC1"/>
<path d="M49.0801 90.2267C49.0801 90.2267 49.0622 90.2267 49.0562 90.2267L11.0727 85.7243C10.9473 85.7124 10.8637 85.5989 10.8756 85.4735C10.8876 85.3481 11.0011 85.2585 11.1265 85.2765L49.11 89.7788C49.2354 89.7908 49.319 89.9042 49.307 90.0296C49.2951 90.1431 49.1996 90.2267 49.0861 90.2267H49.0801Z" fill="#FEFBC1"/>
<path d="M49.0801 90.2267C49.0801 90.2267 49.0681 90.2267 49.0621 90.2267L8.99464 86.5663C8.86924 86.5543 8.77965 86.4469 8.79159 86.3215C8.80354 86.202 8.90507 86.1065 9.03644 86.1184L49.1039 89.7789C49.2293 89.7908 49.3189 89.8983 49.307 90.0237C49.295 90.1371 49.1995 90.2267 49.086 90.2267H49.0801Z" fill="#FEFBC1"/>
<path d="M49.0804 90.2269C49.0804 90.2269 49.0684 90.2269 49.0625 90.2269L7.35285 87.4442C7.22746 87.4383 7.13787 87.3308 7.14384 87.2054C7.14981 87.08 7.24536 86.9904 7.3827 86.9964L49.0923 89.779C49.2177 89.785 49.3073 89.8925 49.3013 90.0179C49.2953 90.1373 49.1938 90.2269 49.0804 90.2269Z" fill="#FEFBC1"/>
<path d="M49.0802 90.2269C49.0802 90.2269 49.0742 90.2269 49.0682 90.2269L6.1703 88.3519C6.0449 88.3519 5.94937 88.2444 5.95534 88.119C5.95534 87.9996 6.05685 87.9041 6.17628 87.9041C6.17628 87.9041 6.18226 87.9041 6.18823 87.9041L49.0861 89.779C49.2115 89.779 49.3071 89.8865 49.3011 90.0119C49.3011 90.1314 49.1996 90.2269 49.0802 90.2269Z" fill="#FEFBC1"/>
<path d="M49.0802 90.2269L5.45974 89.2835C5.33434 89.2835 5.23877 89.176 5.23877 89.0566C5.23877 88.9312 5.3582 88.8237 5.46568 88.8356L49.0861 89.7791C49.2115 89.7791 49.3071 89.8866 49.3071 90.006C49.3071 90.1254 49.2056 90.2269 49.0802 90.2269Z" fill="#FEFBC1"/>
<path d="M49.0802 90.2268H5.22094C5.09554 90.2268 5 90.1253 5 89.9999C5 89.8745 5.10151 89.7729 5.22094 89.7729H49.0802C49.2056 89.7729 49.3071 89.8745 49.3071 89.9999C49.3071 90.1253 49.2056 90.2268 49.0802 90.2268Z" fill="#FEFBC1"/>
<path d="M5.46556 91.1704C5.34614 91.1704 5.24463 91.0748 5.24463 90.9494C5.24463 90.824 5.34017 90.7225 5.46556 90.7225L49.086 89.7791C49.2114 89.7731 49.3129 89.8746 49.3129 90C49.3129 90.1254 49.2174 90.2269 49.092 90.2269L5.47154 91.1704H5.46556Z" fill="#FEFBC1"/>
<path d="M6.18236 92.1019C6.06294 92.1019 5.96143 92.0064 5.96143 91.8869C5.96143 91.7615 6.05099 91.66 6.17638 91.654L49.0743 89.7791C49.0743 89.7791 49.0803 89.7791 49.0863 89.7791C49.2057 89.7791 49.3072 89.8746 49.3072 89.994C49.3072 90.1194 49.2176 90.2209 49.0922 90.2269L6.19432 92.1019C6.19432 92.1019 6.18833 92.1019 6.18236 92.1019Z" fill="#FEFBC1"/>
<path d="M7.37063 93.0096C7.25121 93.0096 7.15567 92.92 7.1497 92.8006C7.14372 92.6752 7.23332 92.5677 7.35871 92.5617L49.0683 89.7791C49.2057 89.7731 49.2952 89.8627 49.3072 89.9881C49.3131 90.1135 49.2236 90.221 49.0982 90.2269L7.38856 93.0096C7.38856 93.0096 7.3766 93.0096 7.37063 93.0096Z" fill="#FEFBC1"/>
<path d="M9.01888 93.8931C8.90542 93.8931 8.80391 93.8036 8.79794 93.6901C8.786 93.5647 8.87559 93.4572 9.00098 93.4453L49.0685 89.7849C49.2058 89.767 49.3013 89.8625 49.3133 89.9879C49.3252 90.1133 49.2357 90.2208 49.1103 90.2327L9.04279 93.8931C9.04279 93.8931 9.03083 93.8931 9.02486 93.8931H9.01888Z" fill="#FEFBC1"/>
<path d="M11.1024 94.7294C10.989 94.7294 10.8934 94.6458 10.8815 94.5323C10.8696 94.4069 10.9532 94.2994 11.0786 94.2815L49.0621 89.7791C49.1815 89.7612 49.2949 89.8508 49.3129 89.9762C49.3248 90.1016 49.2412 90.2091 49.1158 90.227L11.1323 94.7294C11.1323 94.7294 11.1144 94.7294 11.1084 94.7294H11.1024Z" fill="#FEFBC1"/>
<path d="M13.5988 95.5233C13.4914 95.5233 13.3958 95.4457 13.3779 95.3322C13.36 95.2128 13.4436 95.0934 13.569 95.0755L49.0505 89.7849C49.1819 89.767 49.2894 89.8506 49.3073 89.976C49.3252 90.0954 49.2416 90.2148 49.1162 90.2327L13.6347 95.5233C13.6347 95.5233 13.6108 95.5233 13.5988 95.5233Z" fill="#FEFBC1"/>
<path d="M16.4887 96.2519C16.3812 96.2519 16.2857 96.1743 16.2678 96.0668C16.2439 95.9474 16.3275 95.8279 16.4469 95.804L49.0383 89.779C49.1637 89.7551 49.2772 89.8387 49.3011 89.9581C49.3249 90.0776 49.2414 90.197 49.1219 90.2209L16.5305 96.2459C16.5305 96.2459 16.5006 96.2459 16.4887 96.2459V96.2519Z" fill="#FEFBC1"/>
<path d="M19.7371 96.9208C19.6356 96.9208 19.5401 96.8492 19.5162 96.7476C19.4863 96.6282 19.5639 96.5088 19.6834 96.4789L49.0324 89.7851C49.1518 89.7612 49.2712 89.8329 49.3011 89.9523C49.3309 90.0717 49.2533 90.1911 49.1339 90.221L19.7849 96.9148C19.7849 96.9148 19.7491 96.9148 19.7371 96.9148V96.9208Z" fill="#FEFBC1"/>
<path d="M23.3018 97.512C23.2063 97.512 23.1167 97.4463 23.0869 97.3508C23.0511 97.2314 23.1227 97.106 23.2422 97.0761L49.0203 89.7911C49.1397 89.7612 49.2651 89.8269 49.295 89.9464C49.3308 90.0658 49.2592 90.1912 49.1397 90.221L23.3616 97.506C23.3616 97.506 23.3198 97.512 23.3018 97.512Z" fill="#FEFBC1"/>
<path d="M27.1534 98.0253C27.0639 98.0253 26.9743 97.9656 26.9445 97.876C26.9027 97.7626 26.9624 97.6312 27.0818 97.5894L49.0085 89.7909C49.1279 89.7491 49.2533 89.8088 49.2951 89.9282C49.3369 90.0417 49.2772 90.1731 49.1577 90.2149L27.2311 98.0134C27.2311 98.0134 27.1833 98.0253 27.1534 98.0253Z" fill="#FEFBC1"/>
<path d="M31.2437 98.4554C31.1601 98.4554 31.0764 98.4076 31.0406 98.324C30.9869 98.2105 31.0406 98.0792 31.1481 98.0254L48.9844 89.797C49.0979 89.7432 49.2292 89.797 49.283 89.9044C49.3367 90.0179 49.283 90.1493 49.1755 90.203L31.3392 98.4315C31.3093 98.4434 31.2795 98.4494 31.2437 98.4494V98.4554Z" fill="#FEFBC1"/>
<path d="M35.5314 98.7898C35.4597 98.7898 35.3821 98.754 35.3403 98.6883C35.2746 98.5868 35.3045 98.4435 35.412 98.3778L48.9668 89.8149C49.0743 89.7492 49.2116 89.7791 49.2773 89.8866C49.343 89.9881 49.3132 90.1314 49.2057 90.1971L35.6508 98.7599C35.615 98.7838 35.5732 98.7958 35.5314 98.7958V98.7898Z" fill="#FEFBC1"/>
<path d="M39.9617 99.0345C39.902 99.0345 39.8423 99.0106 39.8005 98.9688C39.7169 98.8793 39.7169 98.736 39.8005 98.6524L48.9187 89.8447C49.0083 89.7611 49.1516 89.7611 49.2352 89.8447C49.3188 89.9343 49.3188 90.0776 49.2352 90.1612L40.117 98.9688C40.0752 99.0106 40.0155 99.0345 39.9617 99.0345Z" fill="#FEFBC1"/>
<path d="M44.4999 99.1837C44.4641 99.1837 44.4283 99.1777 44.3984 99.1598C44.2909 99.1061 44.2432 98.9687 44.3029 98.8612L48.8888 89.9043C48.9426 89.7968 49.0799 89.749 49.1874 89.8087C49.2949 89.8625 49.3426 89.9998 49.2829 90.1073L44.697 99.0643C44.6552 99.1419 44.5775 99.1837 44.4999 99.1837Z" fill="#FEFBC1"/>
<path d="M49.0803 95.5772C69.8305 95.5772 86.6518 92.7835 86.6518 89.3372C86.6518 85.8909 69.8305 83.0972 49.0803 83.0972C28.3301 83.0972 11.5088 85.8909 11.5088 89.3372C11.5088 92.7835 28.3301 95.5772 49.0803 95.5772Z" fill="white"/>
<path d="M49.08 94.6935C68.4121 94.6935 84.0838 92.2954 84.0838 89.3372C84.0838 86.379 68.4121 83.981 49.08 83.981C29.7479 83.981 14.0762 86.379 14.0762 89.3372C14.0762 92.2954 29.7479 94.6935 49.08 94.6935Z" fill="#C9F2F4"/>
<path d="M49.0801 93.6424C67.5086 93.6424 82.4478 91.7148 82.4478 89.337C82.4478 86.9593 67.5086 85.0317 49.0801 85.0317C30.6516 85.0317 15.7124 86.9593 15.7124 89.337C15.7124 91.7148 30.6516 93.6424 49.0801 93.6424Z" fill="white"/>
<path d="M49.0802 92.3406C66.7073 92.3406 80.9969 90.9959 80.9969 89.3371C80.9969 87.6782 66.7073 86.3335 49.0802 86.3335C31.4532 86.3335 17.1636 87.6782 17.1636 89.3371C17.1636 90.9959 31.4532 92.3406 49.0802 92.3406Z" fill="#FEFBC1"/>
<path d="M49.0804 91.5345C65.7775 91.5345 79.3132 90.5507 79.3132 89.3371C79.3132 88.1235 65.7775 87.1396 49.0804 87.1396C32.3833 87.1396 18.8477 88.1235 18.8477 89.3371C18.8477 90.5507 32.3833 91.5345 49.0804 91.5345Z" fill="white"/>
<path d="M49.0804 90.9194C63.3173 90.9194 74.8586 90.211 74.8586 89.337C74.8586 88.4631 63.3173 87.7546 49.0804 87.7546C34.8435 87.7546 23.3022 88.4631 23.3022 89.337C23.3022 90.211 34.8435 90.9194 49.0804 90.9194Z" fill="#C9F2F4"/>
<path d="M49.08 90.3464C61.5789 90.3464 71.7113 89.8946 71.7113 89.3373C71.7113 88.7799 61.5789 88.3281 49.08 88.3281C36.5811 88.3281 26.4487 88.7799 26.4487 89.3373C26.4487 89.8946 36.5811 90.3464 49.08 90.3464Z" fill="white"/>
<path d="M49.0803 89.9162C59.2444 89.9162 67.4839 89.6569 67.4839 89.337C67.4839 89.0171 59.2444 88.7578 49.0803 88.7578C38.9163 88.7578 30.6768 89.0171 30.6768 89.337C30.6768 89.6569 38.9163 89.9162 49.0803 89.9162Z" fill="#FEFBC1"/>
<path d="M6.45019 32.4775C6.29341 33.8493 5.22863 34.8554 4.07237 34.7247C2.9161 34.5941 2.0995 33.379 2.24975 32.0072C2.40653 30.6353 3.47135 29.6293 4.62762 29.7599C5.78389 29.8906 6.60044 31.1057 6.45019 32.4775Z" fill="#5A6684"/>
<path d="M6.09777 32.4382C5.94099 33.81 4.87617 34.8161 3.7199 34.6854C2.5571 34.5547 1.74708 33.3397 1.89733 31.9679C2.05411 30.596 3.11893 29.59 4.2752 29.7206C5.438 29.8513 6.24802 31.0664 6.09777 32.4382Z" fill="#848FAB"/>
<path d="M52.7727 34.3327C52.9295 35.7046 53.9943 36.7106 55.1506 36.5799C56.3134 36.4493 57.1234 35.2342 56.9731 33.8624C56.8164 32.4905 55.7515 31.4845 54.5953 31.6152C53.439 31.7458 52.6225 32.9609 52.7727 34.3327Z" fill="#5A6684"/>
<path d="M53.1189 34.2934C53.2757 35.6653 54.3405 36.6713 55.4968 36.5406C56.653 36.41 57.4696 35.1949 57.3193 33.8231C57.1626 32.4512 56.0978 31.4452 54.9415 31.5759C53.7852 31.7065 52.9686 32.9216 53.1189 34.2934Z" fill="#848FAB"/>
<path d="M34.2856 29.2766C36.5851 29.6228 50.898 33.0002 55.02 32.8695C54.9939 33.9147 54.9743 34.9534 54.9482 35.9986C48.3634 36.9459 41.7981 35.5152 35.2133 36.4624C34.9062 34.0715 34.5992 31.6741 34.2921 29.2831L34.2856 29.2766Z" fill="#F9AFB6"/>
<path d="M24.428 29.2766C22.1285 29.6228 19.7115 29.9103 17.1768 30.1324C12.3166 30.5505 7.78954 30.6223 3.66748 30.4851C3.69361 31.5303 3.7132 32.569 3.73933 33.6142C10.3242 34.5615 16.9155 35.5087 23.5004 36.4559C23.8074 34.065 24.1144 31.6675 24.4215 29.2766H24.428Z" fill="#F9AFB6"/>
<path d="M25.6429 36.7433H18.0063V30.0539L25.6429 29.1067V36.7433Z" fill="#4874D7"/>
<path d="M33.626 36.7433L41.2626 37.3573V30.668L33.626 29.1067V36.7433Z" fill="#4874D7"/>
<path d="M38.865 55.1063L38.4535 62.5534C38.2967 65.0293 38.2183 67.5051 38.0027 69.9744L36.2519 84.7642C36.154 85.5742 35.4223 86.1491 34.6188 86.0511C33.9394 85.9727 33.4234 85.437 33.3319 84.7838L31.3395 70.2096C30.9475 67.7925 30.451 65.382 30.0133 62.978L28.6546 55.7726C28.1255 52.9767 29.9676 50.2787 32.7636 49.7496C35.5595 49.2204 38.2575 51.0626 38.7866 53.8586C38.865 54.2701 38.8911 54.6751 38.8715 55.0736V55.1128L38.865 55.1063Z" fill="#21111D"/>
<path d="M33.1099 84.1631C33.1164 84.1109 33.1229 84.0586 33.1295 83.9998C33.1687 83.7059 33.1948 83.4707 33.2079 83.3074C33.5606 83.4772 34.2139 83.7385 35.0827 83.7712C35.5661 83.7908 35.9777 83.732 36.2847 83.6667C36.2717 83.8822 36.2717 84.1566 36.3174 84.4636C36.0822 84.5028 35.834 84.5355 35.5727 84.542C34.5144 84.5943 33.6586 84.3591 33.1099 84.1566V84.1631Z" fill="#F9AFB6"/>
<path d="M33.1097 84.1633C33.6649 84.3724 34.5142 84.601 35.5725 84.5487C35.8338 84.5357 36.082 84.5096 36.3172 84.4704C36.3564 84.7578 36.4217 85.0779 36.5523 85.4176C36.8398 86.1688 37.1534 86.3648 37.4277 87.1814C37.6302 87.7889 37.9111 88.6251 37.4473 89.0432C37.2056 89.2653 36.879 89.2587 35.4941 89.2653C34.4946 89.2653 33.7368 89.2783 33.3971 89.2849C32.881 88.3638 32.7569 87.606 32.7438 87.0769C32.7242 86.4105 32.881 85.9859 33.1097 84.1699V84.1633Z" fill="#FF80A9"/>
<path d="M35.0498 85.3456C35.7462 85.3456 36.3106 85.0122 36.3106 84.6009C36.3106 84.1896 35.7462 83.8562 35.0498 83.8562C34.3535 83.8562 33.7891 84.1896 33.7891 84.6009C33.7891 85.0122 34.3535 85.3456 35.0498 85.3456Z" fill="#FF80A9"/>
<path d="M30.4183 55.7662L29.0595 62.9716C28.6218 65.3756 28.1188 67.7861 27.7334 70.2032L25.7409 84.7774C25.6299 85.5809 24.8917 86.1492 24.0817 86.0382C23.4023 85.9467 22.8928 85.4045 22.8144 84.7512L21.0636 69.9615C20.848 67.4922 20.7631 65.0163 20.6128 62.5405L20.2013 55.0933V55.0803C20.0445 52.2386 22.2199 49.802 25.0616 49.6452C27.9032 49.4884 30.3399 51.6637 30.4966 54.5054C30.5228 54.9235 30.4901 55.3547 30.4183 55.7466V55.7662Z" fill="#21111D"/>
<path d="M25.9565 84.1631C25.95 84.1109 25.9435 84.0586 25.9369 83.9998C25.8977 83.7059 25.8716 83.4707 25.8585 83.3074C25.5058 83.4772 24.8525 83.7385 23.9837 83.7712C23.5003 83.7908 23.0887 83.732 22.7817 83.6667C22.7947 83.8822 22.7948 84.1566 22.749 84.4636C22.9842 84.5028 23.2324 84.5355 23.4937 84.542C24.552 84.5943 25.4078 84.3591 25.9565 84.1566V84.1631Z" fill="#F9AFB6"/>
<path d="M25.9566 84.1633C25.4014 84.3724 24.5521 84.601 23.4938 84.5487C23.2325 84.5357 22.9843 84.5096 22.7491 84.4704C22.7099 84.7578 22.6446 85.0779 22.5139 85.4176C22.2265 86.1688 21.9129 86.3648 21.6386 87.1814C21.4361 87.7889 21.1552 88.6251 21.619 89.0432C21.8607 89.2653 22.1873 89.2587 23.5722 89.2653C24.5717 89.2653 25.3295 89.2783 25.6692 89.2849C26.1853 88.3638 26.3094 87.606 26.3225 87.0769C26.342 86.4105 26.1853 85.9859 25.9566 84.1699V84.1633Z" fill="#FF80A9"/>
<path d="M24.0166 85.3456C24.713 85.3456 25.2774 85.0122 25.2774 84.6009C25.2774 84.1896 24.713 83.8562 24.0166 83.8562C23.3203 83.8562 22.7559 84.1896 22.7559 84.6009C22.7559 85.0122 23.3203 85.3456 24.0166 85.3456Z" fill="#FF80A9"/>
<path d="M33.3058 24.3835H25.6431V33.8297H33.3058V24.3835Z" fill="#21111D"/>
<path d="M38.8646 53.728C38.8385 53.1989 38.7993 52.7155 38.6687 52.1471C38.5315 51.5396 38.3159 50.8668 37.9632 50.1286C38.2114 49.1095 38.1853 48.2733 38.0611 47.6201C37.6365 45.3729 36.0295 44.7065 35.7421 42.5051C35.7159 42.2829 35.729 42.2895 35.9772 40.1337C36.5129 35.5348 36.5129 34.9077 36.4998 34.4961C36.4214 32.2685 36.3561 31.0534 35.4546 30.0409C34.5531 29.0349 33.1094 28.7278 31.6135 28.3816C31.3587 28.3228 30.3723 28.1007 29.4381 28.0615C29.4251 28.0615 29.412 28.0615 29.3989 28.0615C29.3859 28.0615 29.3728 28.0615 29.3597 28.0615C28.4256 28.1007 27.4392 28.3228 27.1844 28.3816C25.6885 28.7278 24.2447 29.0349 23.3433 30.0409C22.4418 31.0534 22.3829 32.2685 22.298 34.4961C22.285 34.9077 22.2849 35.5348 22.8206 40.1337C23.0689 42.2829 23.0885 42.2829 23.0558 42.5051C22.7684 44.7131 21.1548 45.3794 20.7367 47.6201C20.6126 48.2799 20.58 49.116 20.8347 50.1286C20.1357 51.6049 19.9528 52.8396 19.9332 53.728C19.8875 55.6094 20.3709 57.9089 20.3709 57.9089C22.2588 57.1642 25.401 56.1908 29.3794 56.1777C33.5341 56.1647 36.8003 57.2034 38.7144 57.9807C38.9365 56.0014 38.9169 54.5707 38.8777 53.728H38.8646Z" fill="#4874D7"/>
<path d="M32.3975 26.2585V28.558C32.3975 30.0801 31.1563 31.3148 29.6342 31.3148C28.1121 31.3148 26.8774 30.0801 26.8774 28.558V26.2585H32.3975Z" fill="#F9AFB6"/>
<path d="M32.3975 26.2585V27.4736C32.2603 27.8133 32.0513 28.1465 31.7508 28.4274C30.9081 29.2178 29.7779 29.2178 29.3206 29.2243C28.8699 29.2243 27.7201 29.2374 26.8774 28.447V26.2585H32.3975Z" fill="#E59CA9"/>
<path d="M32.8354 24.5405C32.9073 25.0631 33.1621 26.84 31.9993 27.9309C31.1566 28.7148 30.0264 28.7214 29.5691 28.7214C29.1118 28.7214 27.9229 28.7344 27.0802 27.9048C25.9631 26.8139 26.2048 25.1611 26.2963 24.5471C26.5249 22.9727 27.6551 20.3727 29.5626 20.3662C31.3721 20.3662 32.5937 22.8486 32.8354 24.5405Z" fill="#F9AFB6"/>
<path d="M29.6343 21.2153C29.6735 21.5485 29.5429 21.8751 29.1901 22.3193C28.8177 22.7897 28.0208 23.6389 26.4464 24.253C26.4595 27.8067 26.4726 31.3604 26.4856 34.9141C24.6761 34.7443 24.1535 34.2935 24.0294 33.9016C23.8857 33.4508 24.2188 32.9609 23.9248 32.3403C23.7681 32.0071 23.5982 32.0071 23.3892 31.9941C23.4806 29.3549 23.7158 24.0896 26.0545 21.4178C27.2565 20.046 29.0137 19.8565 30.0002 20.0786C30.464 20.1832 29.5755 20.6731 29.6408 21.2088L29.6343 21.2153Z" fill="#21111D"/>
<path d="M29.6278 20.9475C29.4579 21.5028 29.7649 22.0254 29.9348 22.3259C30.6533 23.5605 32.1754 24.1027 32.6785 24.2595C32.6654 27.8132 32.6523 31.367 32.6393 34.9207C34.4488 34.7508 34.9714 34.3001 35.0955 33.9081C35.2392 33.4574 35.6116 28.7082 35.2458 26.7288C35.0106 25.4484 34.4488 23.1163 33.0704 21.4309C32.8156 21.1173 32.2212 20.4445 31.3001 20.2354C31.0323 20.1767 30.477 20.046 30.0393 20.3661C29.7584 20.5686 29.6539 20.8626 29.6278 20.954V20.9475Z" fill="#21111D"/>
<path d="M28.5373 24.7364C28.5961 24.8344 28.5634 24.965 28.4655 25.0173C28.3675 25.0761 28.2368 25.0434 28.1846 24.9454C28.1258 24.8474 28.1584 24.7168 28.2564 24.6645C28.3544 24.6057 28.485 24.6384 28.5373 24.7364Z" fill="#21111D"/>
<path d="M31.0979 24.7757C31.1567 24.8737 31.124 25.0043 31.026 25.0566C30.928 25.1154 30.7974 25.0827 30.7451 24.9847C30.6863 24.8868 30.719 24.7561 30.817 24.7038C30.915 24.645 31.0456 24.6777 31.0979 24.7757Z" fill="#21111D"/>
<path d="M27.7335 24.227C27.7335 24.227 27.6682 24.2139 27.6486 24.1812C27.6224 24.1355 27.6355 24.0767 27.6812 24.0441C27.8053 23.9657 28.0079 23.8742 28.2692 23.8677C28.3802 23.8677 28.4978 23.8807 28.6089 23.9069C28.6611 23.9199 28.6938 23.9722 28.6742 24.0245C28.6611 24.0767 28.6023 24.1028 28.5566 24.0898C28.4652 24.0637 28.3606 24.0571 28.2757 24.0571C28.0601 24.0571 27.8903 24.142 27.7858 24.2074C27.7727 24.2204 27.7531 24.2204 27.7335 24.2204V24.227Z" fill="#21111D"/>
<path d="M31.5618 24.2792C31.5618 24.2792 31.5292 24.2792 31.5161 24.2661C31.4312 24.2204 31.3463 24.1877 31.2483 24.1681C31.0392 24.1224 30.8563 24.1551 30.7387 24.1942C30.6865 24.2073 30.6342 24.1812 30.6146 24.1289C30.595 24.0767 30.6277 24.0244 30.6799 24.0048C30.8825 23.9395 31.0915 23.9264 31.294 23.9721C31.4051 23.9983 31.5096 24.0375 31.6141 24.0963C31.6598 24.1224 31.6794 24.1812 31.6533 24.2269C31.6337 24.2596 31.601 24.2792 31.5684 24.2792H31.5618Z" fill="#21111D"/>
<path d="M29.7001 26.2194C29.6478 26.2194 29.6086 26.1802 29.6021 26.128C29.6021 26.0757 29.6347 26.0235 29.6935 26.0235C29.7784 26.0169 29.8307 25.9908 29.8568 25.9581C29.8764 25.932 29.8568 25.8797 29.8307 25.7687L29.8176 25.7164C29.7654 25.527 29.7262 25.3179 29.7131 25.2003C29.6935 25.0174 29.7197 24.8345 29.7915 24.6385C29.8111 24.5863 29.8634 24.5602 29.9156 24.5797C29.9679 24.5993 29.994 24.6516 29.9744 24.7039C29.9156 24.8672 29.896 25.024 29.9091 25.1742C29.9222 25.2853 29.9613 25.4812 30.0071 25.6642L30.0201 25.7164C30.0593 25.8536 30.0855 25.9516 30.0201 26.0561C29.9809 26.1214 29.896 26.1998 29.7066 26.2194C29.7066 26.2194 29.7066 26.2194 29.7001 26.2194Z" fill="#21111D"/>
<path d="M29.5821 27.2318C29.5821 27.2318 29.5691 27.2318 29.5625 27.2318C29.151 27.2253 28.8636 27.0293 28.7264 26.9182C28.6872 26.8856 28.6806 26.8202 28.7133 26.781C28.746 26.7419 28.8113 26.7353 28.8505 26.768C28.9419 26.8464 29.1967 27.0293 29.5625 27.0358H29.5821C29.9153 27.0358 30.157 26.8921 30.268 26.8006C30.3138 26.768 30.3726 26.7745 30.4052 26.8202C30.4379 26.866 30.4314 26.9248 30.3856 26.9574C30.2484 27.0619 29.9676 27.2318 29.5756 27.2318H29.5821Z" fill="#21111D"/>
<path d="M27.2762 24.9912C27.4199 25.5726 27.1847 26.1344 26.747 26.2389C26.3094 26.3435 25.8456 25.958 25.7018 25.3766C25.5581 24.7952 25.7933 24.2334 26.231 24.1289C26.6687 24.0244 27.1325 24.4098 27.2762 24.9912Z" fill="#F9AFB6"/>
<path d="M32.1237 24.9912C31.98 25.5726 32.2152 26.1344 32.6529 26.2389C33.0905 26.3435 33.5543 25.958 33.6981 25.3766C33.8418 24.7952 33.6066 24.2334 33.1689 24.1289C32.7312 24.0244 32.2674 24.4098 32.1237 24.9912Z" fill="#F9AFB6"/>
<path d="M21.521 50.0109C21.4818 50.0109 21.4426 49.9847 21.4296 49.9455C21.41 49.8933 21.4427 49.841 21.4949 49.8214C22.109 49.6189 22.7426 49.5275 23.3893 49.5405C23.7682 49.5471 24.1406 49.5993 24.513 49.6777C24.5652 49.6908 24.5979 49.743 24.5848 49.7953C24.5718 49.8476 24.5195 49.8802 24.4672 49.8672C24.1145 49.7888 23.7487 49.743 23.3828 49.73C22.7753 49.7169 22.1547 49.8084 21.5537 49.9978C21.5406 49.9978 21.5341 49.9978 21.521 49.9978V50.0109Z" fill="#2A44AB"/>
<path d="M23.2064 44.0206C23.1606 44.0206 23.1214 43.9945 23.1083 43.9488C23.0953 43.8965 23.128 43.8443 23.1802 43.8312C23.6506 43.7071 24.1275 43.6352 24.6109 43.6221C25.0878 43.6026 25.5712 43.6417 26.0415 43.7267C26.0938 43.7397 26.1264 43.7855 26.1199 43.8377C26.1134 43.89 26.0676 43.9292 26.0088 43.9161C25.5515 43.8312 25.0812 43.7985 24.6174 43.8116C24.147 43.8312 23.6832 43.8965 23.2259 44.0141C23.2194 44.0141 23.2063 44.0141 23.1998 44.0141L23.2064 44.0206Z" fill="#2A44AB"/>
<path d="M37.1859 50.4618C37.1859 50.4618 37.1728 50.4618 37.1662 50.4618C36.5848 50.3377 35.9904 50.2658 35.3959 50.2593C34.8929 50.2528 34.3899 50.2854 33.9 50.3638C33.8477 50.3703 33.7954 50.3377 33.7889 50.2789C33.7824 50.2266 33.815 50.1744 33.8738 50.1678C34.3768 50.0894 34.8994 50.0568 35.4024 50.0633C36.01 50.0698 36.6175 50.1417 37.212 50.2724C37.2642 50.2854 37.2969 50.3377 37.2838 50.3899C37.2708 50.4357 37.2316 50.4683 37.1859 50.4683V50.4618Z" fill="#2A44AB"/>
<path d="M35.2262 44.1577C35.2262 44.1577 35.2132 44.1577 35.2066 44.1577C34.7624 44.0663 34.3051 44.0205 33.8478 44.0205C33.4297 44.0205 33.0051 44.0663 32.5936 44.1577C32.5348 44.1643 32.4891 44.1316 32.476 44.0793C32.4629 44.0271 32.4956 43.9748 32.5544 43.9617C32.979 43.8703 33.4167 43.8246 33.8478 43.8246C34.3182 43.8115 34.7885 43.8703 35.2458 43.9617C35.2981 43.9748 35.3307 44.0271 35.3242 44.0793C35.3177 44.1251 35.272 44.1577 35.2262 44.1577Z" fill="#2A44AB"/>
<path d="M27.3413 39.6503C27.2956 39.6503 27.2564 39.6176 27.2433 39.5719C27.2368 39.5196 27.2695 39.4674 27.3217 39.4608C28.2036 39.2975 29.0986 39.193 29.987 39.1473C30.4835 39.1211 30.9865 39.1146 31.483 39.1211C30.5553 39.0035 29.6147 38.9382 28.6805 38.9252C27.4785 38.9252 26.2439 38.997 25.0484 39.1669C24.9896 39.1734 24.9439 39.1342 24.9373 39.0819C24.9308 39.0297 24.9634 38.9774 25.0222 38.9709C26.2308 38.801 27.4589 38.7096 28.687 38.7292C30.2745 38.7422 31.8684 38.9186 33.4232 39.2453C33.4754 39.2583 33.5081 39.304 33.5015 39.3563C33.495 39.4086 33.4493 39.4478 33.3905 39.4347C32.2669 39.3106 31.1237 39.2714 30.0001 39.3302C29.1182 39.3759 28.2297 39.4804 27.3609 39.6372C27.3609 39.6372 27.3479 39.6372 27.3413 39.6372V39.6503Z" fill="#2A44AB"/>
<path d="M54.504 34.1695C54.3603 35.5805 55.2161 36.8217 56.4181 36.9458C57.6136 37.0634 58.698 36.0182 58.8417 34.6071C58.9854 33.1961 58.1296 31.9549 56.9276 31.8308C55.7322 31.7132 54.6477 32.7584 54.504 34.1695Z" fill="#5A6684"/>
<path d="M54.8698 34.2088C54.726 35.6198 55.5818 36.861 56.7838 36.9851C57.9858 37.1092 59.0637 36.0575 59.2074 34.6465C59.3511 33.2354 58.4953 31.9942 57.2934 31.8701C56.0979 31.7525 55.0135 32.7977 54.8698 34.2088Z" fill="#848FAB"/>
<path d="M4.71277 32.3142C4.85648 33.7252 4.00072 34.9664 2.79873 35.0905C1.59673 35.2147 0.518842 34.1629 0.375126 32.7519C0.231409 31.3408 1.08717 30.0996 2.28917 29.9755C3.49116 29.8514 4.56905 30.9032 4.71277 32.3142Z" fill="#5A6684"/>
<path d="M4.35339 32.3467C4.49711 33.7577 3.64135 34.9989 2.43935 35.1231C1.24389 35.2406 0.159467 34.1954 0.0157507 32.7844C-0.127966 31.3734 0.727797 30.1322 1.92979 30.008C3.12525 29.8905 4.20968 30.9357 4.35339 32.3467Z" fill="#848FAB"/>
<path d="M67.4456 58.6542C67.0537 59.6863 66.7205 60.7315 66.3547 61.7702C66.0085 62.8154 65.6753 63.8541 65.3487 64.8993C64.6954 66.9897 64.0944 69.0867 63.5 71.1902L63.5588 70.4651L63.1799 74.7112C63.0754 76.1223 62.9447 77.5398 62.8598 78.9509L62.5854 83.1905C62.5266 84.6016 62.4352 86.0191 62.409 87.4302C62.3829 88.495 61.501 89.3442 60.4362 89.3181C59.4367 89.2985 58.6332 88.508 58.5548 87.5347C58.4503 86.1236 58.287 84.7191 58.1498 83.3146L57.6468 79.0946C57.49 77.6901 57.281 76.2791 57.0981 74.8745L56.4971 70.6545C56.4971 70.6545 56.4971 70.6153 56.4971 70.5957L56.5558 69.9229C56.7453 67.7475 56.9217 65.5722 57.0458 63.3837C57.1111 62.2928 57.1634 61.1953 57.2091 60.0979C57.2352 59.0004 57.2875 57.9029 57.2809 56.7989C57.2744 53.8984 59.6131 51.5402 62.5136 51.5271C65.414 51.5206 67.7723 53.8592 67.7853 56.7597C67.7853 57.413 67.6612 58.0597 67.4456 58.6411V58.6542Z" fill="#FF80A9"/>
<path d="M78.8124 57.8572C78.7209 58.9612 78.6883 60.0587 78.623 61.1627C78.5772 62.2601 78.5446 63.3576 78.525 64.4551C78.4727 66.65 78.4727 68.8385 78.4858 71.0269L78.5053 71.3404C78.1983 73.9339 77.8978 76.5338 77.6561 79.1273C77.5255 80.4272 77.4144 81.7207 77.3099 83.0207C77.225 84.3207 77.1139 85.6141 77.0551 86.9141C77.0094 87.9789 76.1079 88.8085 75.0431 88.7628C74.0501 88.7171 73.2662 87.9266 73.2009 86.9533C73.1225 85.6598 72.9788 84.3599 72.8743 83.0664C72.7436 81.773 72.6065 80.473 72.4562 79.1795C72.1622 76.5861 71.8095 73.9992 71.4502 71.4123L71.4698 71.7259C71.0517 69.5766 70.6205 67.434 70.1371 65.2913C69.9019 64.2199 69.6472 63.1486 69.3859 62.0838C69.105 61.019 68.8567 59.9476 68.5497 58.8828C67.7397 56.0999 69.3467 53.1864 72.1296 52.3764C74.9125 51.5663 77.826 53.1733 78.636 55.9562C78.8189 56.5833 78.8777 57.2366 78.8255 57.8572H78.8124Z" fill="#FF80A9"/>
<path d="M62.5334 86.3914C62.3048 86.1562 62.3636 86.6984 60.6455 86.5808C59.8289 86.5286 59.0254 85.8622 58.9535 85.6532C59.0254 85.1371 59.0842 84.7321 58.7053 84.3794C58.444 84.1311 58.0259 84.1572 57.8234 84.3271C57.5817 84.5231 57.647 84.7321 57.5883 85.0065C57.4903 85.4507 56.7978 86.019 56.4712 86.2346C56.236 86.3914 55.5893 86.8095 54.4722 87.1949C53.6164 87.4889 53.1853 87.6326 52.6888 87.6914C52.4014 87.724 51.5195 87.8024 51.3235 88.0833C51.1471 88.3316 51.0818 88.6125 51.0818 88.6125C51.0687 88.6713 50.9511 89.1873 51.3953 89.5009C51.6762 89.6969 52.0747 89.7426 52.5451 89.7295C52.8782 89.7165 55.3998 89.7622 60.0445 89.6446C60.9003 89.625 61.5992 89.5858 63.0037 89.5205C63.1148 89.2527 63.2128 88.8542 63.056 88.4165C62.9188 88.018 62.6053 86.4698 62.5334 86.3979V86.3914Z" fill="#4874D7"/>
<path d="M73.1943 86.3849C73.4229 86.1497 73.044 86.6919 74.7621 86.5744C75.5787 86.5221 76.5128 86.0387 76.5782 85.8296C76.5063 85.3136 76.4475 84.9085 76.8264 84.5558C77.0877 84.3075 77.7867 84.1508 77.9892 84.3206C78.2309 84.5231 78.1655 84.7256 78.2243 85C78.3223 85.4507 79.0213 86.0125 79.348 86.2347C79.5831 86.3914 81.5364 87.6326 82.0328 87.6914C82.3203 87.7241 83.2022 87.8025 83.3982 88.0834C83.5745 88.3316 83.6399 88.6125 83.6399 88.6125C83.6529 88.6713 83.7705 89.1874 83.3263 89.5009C83.0454 89.6969 82.6469 89.7426 82.1766 89.7296C81.8434 89.7165 80.0078 89.7622 75.3566 89.6447C74.5008 89.6251 74.1284 89.5859 72.7174 89.5205C72.6063 89.2527 72.5084 88.8542 72.6652 88.41C72.8023 88.0115 73.1159 86.4633 73.1877 86.3914L73.1943 86.3849Z" fill="#4874D7"/>
<path d="M75.9055 53.8921C75.3437 52.468 74.7623 51.1092 74.1744 49.8223C69.791 50.0052 65.4077 50.1816 61.0243 50.3645C59.5871 53.2127 58.6007 63.4688 59.3781 63.6909C61.057 64.1809 61.07 66.0492 62.6378 66.3954C63.5067 64.7427 65.989 61.6397 66.8513 59.987C67.1976 59.3337 68.1252 59.3076 68.4976 59.9478C69.4971 61.6462 71.9076 64.4422 72.9071 66.1406C73.9457 66.108 73.704 64.9125 74.9779 64.71L75.9055 53.8921Z" fill="#FF80A9"/>
<path d="M56.9178 33.9129L48.1914 33.5471L48.1047 35.6161L56.8311 35.9819L56.9178 33.9129Z" fill="#FFC466"/>
<path d="M47.7528 32.6141L47.5908 36.478L49.6664 36.565L49.8283 32.7011L47.7528 32.6141Z" fill="#CD9030"/>
<path d="M50.3565 34.6538C50.4022 33.589 50.1475 32.7071 49.7947 32.694C49.442 32.6809 49.1153 33.5302 49.0761 34.6015C49.0304 35.6663 49.2852 36.5482 49.6379 36.5613C49.9907 36.5744 50.3173 35.7251 50.3565 34.6538Z" fill="#FFC466"/>
<path d="M48.2857 34.562C48.3314 33.4972 48.0766 32.6153 47.7239 32.6022C47.3711 32.5891 47.0445 33.4384 47.0053 34.5097C46.9596 35.5745 47.2143 36.4564 47.5671 36.4695C47.9199 36.4826 48.2465 35.6333 48.2857 34.562Z" fill="#CD9030"/>
<path d="M62.5464 39.6444C60.3188 41.97 58.0978 44.4655 55.9224 46.9348L55.5043 47.4182C54.6747 48.3654 53.2375 48.4569 52.2903 47.6272C51.7938 47.1896 51.5325 46.5755 51.5129 45.9614L51.3235 37.0314C51.3104 36.3063 51.8853 35.7118 52.6039 35.6922C53.2179 35.6792 53.7405 36.0907 53.8973 36.6525L56.2947 45.2625L51.8853 44.2891C53.342 41.2514 54.7857 38.2661 56.3993 35.2219V35.2088C57.3922 33.3405 59.7113 32.6284 61.5731 33.6214C63.4414 34.6078 64.1534 36.9269 63.1605 38.7887C62.9972 39.1022 62.7751 39.3962 62.5464 39.6444Z" fill="#F9AFB6"/>
<path d="M51.9306 37.5997C52.1201 37.5736 52.3422 37.554 52.5904 37.5736C53.2959 37.6259 53.8185 37.9198 54.0994 38.1158C54.8572 36.7832 55.1446 35.6726 55.0009 35.0455C54.9095 34.6536 54.5175 34.1309 54.2497 33.1249C54.2366 33.0661 54.2236 33.0073 54.2105 32.9551C54.1321 32.6285 53.8577 32.3998 53.5246 32.3737C53.2175 32.3541 52.904 32.3214 52.5774 32.2888C52.107 32.2365 51.6562 32.1646 51.2316 32.0928C50.8919 32.034 50.5588 32.2104 50.402 32.5174C50.3106 32.7068 50.2191 32.9224 50.1407 33.1707C49.8075 34.2616 49.8859 34.8626 50.1146 35.5485C50.5523 36.8616 51.6693 37.4691 51.9306 37.6063V37.5997Z" fill="#F9AFB6"/>
<path d="M54.4723 33.7373L56.9264 33.8397L56.8401 35.9087L54.386 35.8063C53.8899 35.7856 53.5084 35.3708 53.5291 34.8748L53.5408 34.5941C53.5615 34.0981 53.9763 33.7166 54.4723 33.7373Z" fill="#FFC466"/>
<path d="M56.4122 34.882C56.4579 33.8172 56.2031 32.9353 55.8503 32.9223C55.4976 32.9092 55.171 33.7584 55.1318 34.8298C55.086 35.8946 55.3408 36.7765 55.6936 36.7896C56.0463 36.8026 56.373 35.9534 56.4122 34.882Z" fill="#CD9030"/>
<path d="M55.8195 32.9217L55.6582 36.7856L57.7338 36.8723L57.895 33.0083L55.8195 32.9217Z" fill="#CD9030"/>
<path d="M58.483 34.9672C58.5287 33.9024 58.2739 33.0205 57.9212 33.0075C57.5684 32.9944 57.2418 33.8436 57.2026 34.915C57.1568 35.9798 57.4116 36.8617 57.7644 36.8748C58.1171 36.8878 58.4438 36.0386 58.483 34.9672Z" fill="#FFC466"/>
<path d="M50.5916 34.7581C50.5394 34.7581 50.4937 34.7189 50.4937 34.6667C50.4937 34.5099 50.4937 34.3466 50.4937 34.1833C50.5263 33.6019 50.6373 33.027 50.8399 32.4652C50.8595 32.4129 50.9183 32.3868 50.964 32.4064C51.0162 32.426 51.0424 32.4783 51.0228 32.5305C50.8268 33.0727 50.7157 33.628 50.6831 34.1898C50.6766 34.3531 50.6766 34.5099 50.6831 34.6601C50.6831 34.7124 50.6439 34.7581 50.5851 34.7581H50.5916Z" fill="#E59CA9"/>
<path d="M51.6043 35.2154C51.5521 35.2154 51.5129 35.1762 51.5064 35.124C51.4868 34.8888 51.4868 34.6405 51.4998 34.3988C51.5325 33.8174 51.6501 33.236 51.846 32.6808C51.8656 32.6285 51.9244 32.6024 51.9702 32.622C52.0224 32.6416 52.0486 32.6938 52.029 32.7461C51.833 33.2883 51.7219 33.8436 51.6893 34.4054C51.6762 34.6405 51.6827 34.8757 51.6958 35.1109C51.6958 35.1632 51.6566 35.2089 51.6043 35.2154C51.6043 35.2154 51.6044 35.2154 51.5978 35.2154H51.6043Z" fill="#E59CA9"/>
<path d="M52.6102 34.9933C52.558 34.9933 52.5122 34.9476 52.5122 34.8954C52.5122 34.7712 52.5122 34.6406 52.5187 34.5099C52.5449 33.9285 52.6624 33.3471 52.865 32.7919C52.8845 32.7396 52.9368 32.7135 52.9891 32.7331C53.0413 32.7527 53.0675 32.8049 53.0479 32.8572C52.8519 33.3994 52.7408 33.9547 52.7082 34.5165C52.7082 34.6471 52.7016 34.7712 52.7082 34.8888C52.7082 34.9411 52.6625 34.9868 52.6102 34.9868V34.9933Z" fill="#E59CA9"/>
<path d="M55.1711 45.8374C55.1711 45.8374 55.1515 45.8374 55.145 45.8374C55.0927 45.8243 55.0666 45.7655 55.0796 45.7133C55.3932 44.6484 55.5042 43.551 55.3997 42.4404C55.3017 41.4148 55.0273 40.4153 54.5831 39.4877C54.557 39.442 54.5831 39.3832 54.6289 39.3571C54.6746 39.3309 54.7334 39.3571 54.7595 39.4028C55.2168 40.3565 55.4977 41.3756 55.5957 42.4274C55.7002 43.5575 55.5892 44.6811 55.2625 45.7721C55.2495 45.8178 55.2103 45.8439 55.1711 45.8439V45.8374Z" fill="#E59CA9"/>
<path d="M78.5891 35.7647L87.3188 36.0391L87.3839 33.9693L78.6541 33.6949L78.5891 35.7647Z" fill="#FFC466"/>
<path d="M85.872 33.0897L85.7505 36.9551L87.8268 37.0203L87.9483 33.155L85.872 33.0897Z" fill="#CD9030"/>
<path d="M85.1424 34.9996C85.1751 33.9348 85.4886 33.0725 85.8414 33.0856C86.1942 33.0987 86.4555 33.974 86.4228 35.0388C86.3901 36.1036 86.0766 36.9659 85.7238 36.9529C85.3711 36.9398 85.1097 36.0645 85.1424 34.9996Z" fill="#FFC466"/>
<path d="M87.2132 35.0648C87.2459 34 87.5594 33.1377 87.9122 33.1508C88.265 33.1638 88.5263 34.0392 88.4936 35.104C88.4609 36.1688 88.1474 37.0311 87.7946 37.0181C87.4419 37.005 87.1805 36.1296 87.2132 35.0648Z" fill="#CD9030"/>
<path d="M78.7731 35.1238L82.8625 44.4066L78.4465 45.1448L81.4645 36.7374C81.7062 36.058 82.4575 35.6987 83.1434 35.9469C83.7183 36.156 84.058 36.7243 84.0057 37.3057L83.163 46.2031C83.0454 47.4508 81.9349 48.3653 80.6871 48.2478C80.06 48.189 79.5178 47.8819 79.152 47.4312L78.747 46.9412L72.3189 39.0956C70.9797 37.4625 71.2214 35.052 72.8546 33.7193C74.4877 32.3801 76.8982 32.6218 78.2309 34.255C78.453 34.5228 78.6359 34.8364 78.7731 35.1369V35.1238Z" fill="#F9AFB6"/>
<path d="M83.3589 37.8217C83.176 37.776 82.9539 37.7499 82.7057 37.7499C82.0002 37.7499 81.4579 38.0046 81.164 38.1745C80.5042 36.7961 80.3017 35.6594 80.4911 35.0519C80.6087 34.6665 81.0464 34.17 81.3795 33.1901C81.3991 33.1313 81.4187 33.0791 81.4318 33.0268C81.5298 32.7067 81.8238 32.4977 82.1569 32.4977C82.464 32.4977 82.7841 32.4977 83.1107 32.4781C83.5876 32.4585 84.0383 32.4258 84.4694 32.3801C84.8157 32.3409 85.1292 32.5434 85.2599 32.8635C85.3383 33.0595 85.4167 33.2816 85.4689 33.5363C85.7237 34.6469 85.5996 35.2413 85.3252 35.9077C84.7895 37.1815 83.6333 37.7107 83.3589 37.8282V37.8217Z" fill="#F9AFB6"/>
<path d="M81.0391 35.8603L78.584 35.7832L78.6491 33.7134L81.1041 33.7905C81.6004 33.8061 81.9861 34.2169 81.9705 34.7131L81.9617 34.9939C81.9461 35.4901 81.5353 35.8759 81.0391 35.8603Z" fill="#FFC466"/>
<path d="M79.0867 34.7838C79.1194 33.719 79.433 32.8567 79.7857 32.8698C80.1385 32.8828 80.3998 33.7582 80.3671 34.823C80.3345 35.8878 80.0209 36.7501 79.6682 36.7371C79.3154 36.724 79.0541 35.8486 79.0867 34.7838Z" fill="#CD9030"/>
<path d="M77.7514 32.8155L77.6299 36.6809L79.7062 36.7462L79.8277 32.8808L77.7514 32.8155Z" fill="#CD9030"/>
<path d="M77.0091 34.7186C77.0418 33.6538 77.3553 32.7915 77.7081 32.8046C78.0609 32.8177 78.3222 33.693 78.2895 34.7578C78.2568 35.8226 77.9433 36.6849 77.5905 36.6719C77.2378 36.6588 76.9764 35.7834 77.0091 34.7186Z" fill="#FFC466"/>
<path d="M84.907 35.0911C84.907 35.0911 84.907 35.0911 84.8939 35.0911C84.8416 35.0911 84.8024 35.0389 84.809 34.9866C84.822 34.8298 84.8351 34.6731 84.8351 34.5163C84.8482 33.9545 84.7763 33.3861 84.6195 32.8374C84.6065 32.7851 84.6326 32.7329 84.6849 32.7133C84.7371 32.7002 84.7894 32.7264 84.8024 32.7786C84.9592 33.3469 85.0376 33.9349 85.0246 34.5163C85.0246 34.6731 85.0115 34.8364 84.9919 34.9997C84.9919 35.052 84.9462 35.0846 84.8939 35.0846L84.907 35.0911Z" fill="#E59CA9"/>
<path d="M83.8621 35.4699C83.8621 35.4699 83.8556 35.4699 83.849 35.4699C83.7968 35.4633 83.7576 35.4111 83.7641 35.3588C83.7968 35.1302 83.8163 34.895 83.8229 34.6598C83.8359 34.098 83.7641 33.5297 83.6073 32.981C83.5943 32.9287 83.6204 32.8764 83.6726 32.8568C83.7249 32.8438 83.7772 32.8699 83.7902 32.9222C83.947 33.4905 84.0254 34.0784 84.0124 34.6598C84.0124 34.9015 83.9862 35.1432 83.9535 35.385C83.947 35.4307 83.9013 35.4699 83.8555 35.4699H83.8621Z" fill="#E59CA9"/>
<path d="M82.8754 35.1694C82.8754 35.1694 82.8754 35.1694 82.8689 35.1694C82.8166 35.1694 82.7774 35.1172 82.7774 35.0649C82.7905 34.9473 82.797 34.8232 82.797 34.6926C82.8101 34.1308 82.7382 33.5624 82.5815 33.0137C82.5684 32.9614 82.5945 32.9092 82.6468 32.8896C82.6925 32.8765 82.7513 32.9026 82.7643 32.9549C82.9211 33.5232 82.9995 34.1112 82.9865 34.6926C82.9865 34.8232 82.9734 34.9539 82.9669 35.078C82.9669 35.1302 82.9212 35.1694 82.8689 35.1694H82.8754Z" fill="#E59CA9"/>
<path d="M79.5244 45.798C79.4787 45.798 79.4395 45.7653 79.4264 45.7196C79.1847 44.609 79.152 43.4789 79.3415 42.3618C79.5178 41.3166 79.8706 40.3237 80.3932 39.4091C80.4193 39.3634 80.4781 39.3503 80.5239 39.3699C80.5696 39.396 80.5892 39.4548 80.563 39.5071C80.047 40.402 79.7007 41.3754 79.5309 42.3945C79.348 43.492 79.3741 44.596 79.6158 45.6804C79.6289 45.7326 79.5962 45.7849 79.544 45.798C79.5374 45.798 79.5309 45.798 79.5244 45.798Z" fill="#E59CA9"/>
<path d="M76.2254 33.04C74.5661 32.3149 71.6983 31.3089 68.0205 31.2762C63.6632 31.237 60.3382 32.5827 58.6397 33.4124C60.913 38.3575 60.704 41.7937 60.0311 44.0605C59.2603 46.68 57.392 48.065 56.8628 51.4946C56.5101 53.8136 56.9085 55.8126 57.2809 57.0995C58.313 56.296 63.0688 52.7684 69.6863 53.5001C74.4158 54.0227 77.5972 56.4397 78.8254 57.4915C78.8907 54.3428 78.5379 51.8343 78.2113 50.1162C77.2314 45.06 75.5983 42.8781 75.546 38.4098C75.5133 36.0646 75.9249 34.1702 76.2254 33.04Z" fill="#FFC466"/>
<path d="M67.7789 36.3913H67.3673C65.3161 36.3064 63.892 34.523 64.2774 32.7069C64.2774 32.7069 64.2796 32.7026 64.284 32.6939C64.3036 32.6024 64.3166 32.5175 64.3362 32.4195C64.3885 32.1451 64.4408 31.8512 64.4865 31.5441C64.5322 31.2175 64.5714 30.8843 64.6041 30.5316C64.7478 28.8266 64.6106 27.3437 64.4016 26.1874C64.3885 26.0959 64.3689 26.0176 64.3558 25.9261C64.3493 25.9065 64.3493 25.8804 64.3427 25.8542H64.395L64.6171 25.8869L69.3728 26.403L69.7191 26.4422L70.1045 26.4814C70.0326 26.6512 69.9608 26.8733 69.8889 27.1346C69.8497 27.2718 69.8105 27.4286 69.7844 27.5984C69.6799 28.1276 69.6342 28.7743 69.7256 29.4864C69.7387 29.5843 69.7518 29.6823 69.7648 29.7803C69.8367 30.1657 69.9346 30.525 70.0653 30.8517C70.0784 30.8974 70.098 30.9497 70.1176 30.9954C70.2417 31.322 70.3919 31.6094 70.5487 31.8773C71.7115 33.8305 70.2221 36.2802 67.7658 36.3782L67.7789 36.3913Z" fill="#F9AFB6"/>
<path d="M70.0719 30.8646C69.9739 31.2566 69.804 31.6355 69.5035 31.9686C68.6216 32.9485 67.1975 32.9028 66.5181 32.8832C66.0086 32.8701 65.1071 32.844 64.3428 32.4194C64.395 32.145 64.4473 31.8511 64.493 31.544C64.5388 31.2174 64.578 30.8842 64.6106 30.5315C64.7543 28.8265 64.6172 27.3436 64.4081 26.1873C64.3951 26.0959 64.3755 26.0175 64.3624 25.926C64.3689 25.9064 64.382 25.8868 64.4016 25.8672C65.0548 24.8285 65.9563 23.927 67.0146 23.9989C68.1578 24.0904 68.9156 25.2793 69.3859 26.4094C69.5623 26.834 69.6995 27.2652 69.7975 27.6049C69.9216 28.0622 69.9804 28.3823 70 28.4411C70.1176 29.0812 70.2874 30.0089 70.0849 30.8646H70.0719Z" fill="#E59CA9"/>
<path d="M64.1204 27.4545C63.8722 28.245 63.2907 30.0872 64.3164 31.3218C65.1395 32.3148 66.5309 32.354 67.2168 32.3736C67.9027 32.3932 69.3269 32.4324 70.2022 31.459C71.1494 30.4138 70.862 28.8656 70.6922 27.9314C70.653 27.7158 69.856 23.6526 67.7133 23.4958C65.9234 23.3586 64.5646 26.037 64.1204 27.4545Z" fill="#F9AFB6"/>
<path d="M68.3865 28.036C68.3342 28.1405 68.3799 28.2646 68.4845 28.3169C68.589 28.3691 68.7131 28.3234 68.7654 28.2189C68.8176 28.1144 68.7719 27.9902 68.6674 27.938C68.5628 27.8857 68.4387 27.9314 68.3865 28.036Z" fill="#21111D"/>
<path d="M65.8388 28.0949C65.767 28.1864 65.7735 28.317 65.865 28.3889C65.9564 28.4608 66.0871 28.4542 66.1589 28.3628C66.2308 28.2713 66.2243 28.1407 66.1328 28.0688C66.0414 27.997 65.9107 28.0035 65.8388 28.0949Z" fill="#21111D"/>
<path d="M69.1181 27.5723C69.1181 27.5723 69.0855 27.5723 69.0725 27.5592C68.9614 27.5004 68.785 27.4351 68.5629 27.4482C68.4714 27.4482 68.3735 27.4743 68.282 27.507C68.2363 27.5266 68.1775 27.5004 68.1579 27.4482C68.1383 27.3959 68.1644 27.3436 68.2166 27.324C68.3277 27.2848 68.4388 27.2587 68.5498 27.2522C68.7523 27.2391 68.9679 27.2848 69.1573 27.3828C69.2031 27.409 69.2227 27.4678 69.2031 27.5135C69.1835 27.5462 69.1508 27.5657 69.1181 27.5657V27.5723Z" fill="#21111D"/>
<path d="M65.4991 27.5395C65.4599 27.5395 65.4273 27.52 65.4142 27.4873C65.3881 27.4416 65.4142 27.3828 65.4599 27.3566C65.5644 27.3044 65.6755 27.2717 65.7865 27.2521C66.0413 27.2129 66.2634 27.2652 66.4006 27.324C66.4529 27.3436 66.479 27.4024 66.4529 27.4481C66.4333 27.5004 66.3745 27.52 66.3288 27.5004C66.2112 27.4546 66.0282 27.4089 65.8127 27.4416C65.7212 27.4546 65.6298 27.4873 65.5383 27.5265C65.5252 27.533 65.5122 27.5395 65.4926 27.5395H65.4991Z" fill="#21111D"/>
<path d="M67.1652 29.6823C67.1652 29.6823 67.1391 29.6823 67.126 29.6758C67.0215 29.6301 66.9366 29.5974 66.8843 29.5713C66.7798 29.5255 66.7014 29.4994 66.623 29.421C66.5577 29.3622 66.5381 29.323 66.525 29.2904C66.4793 29.1858 66.5119 29.0813 66.525 29.0487C66.5642 28.9115 66.6753 28.8266 66.7733 28.7482C66.8386 28.6959 66.8974 28.6502 66.9366 28.5914C67.0084 28.4803 66.9888 28.3039 66.8974 28.0688C66.8778 28.0165 66.8974 27.9642 66.9496 27.9381C67.0019 27.9185 67.0541 27.9381 67.0803 27.9904C67.1979 28.2843 67.2109 28.5195 67.1064 28.6894C67.0542 28.7743 66.9758 28.8396 66.8974 28.8984C66.8125 28.9637 66.7406 29.0225 66.7144 29.1009C66.7144 29.1205 66.6948 29.1662 66.7144 29.212C66.7144 29.212 66.7275 29.2381 66.7602 29.2708C66.819 29.323 66.8712 29.3426 66.9561 29.3818C67.0215 29.4079 67.1064 29.4406 67.2109 29.4929C67.2632 29.5125 67.2828 29.5713 67.2632 29.6235C67.2501 29.6627 67.2109 29.6823 67.1717 29.6823H67.1652Z" fill="#21111D"/>
<path d="M67.2369 30.7537C66.8384 30.7537 66.5771 30.5054 66.5314 30.4532C66.4922 30.414 66.4987 30.3552 66.5314 30.316C66.5706 30.2768 66.6359 30.2768 66.6686 30.316C66.6947 30.3421 66.9429 30.5838 67.3022 30.5511C67.6615 30.5185 67.851 30.2572 67.8836 30.2049C67.9163 30.1592 67.9751 30.1461 68.0208 30.1788C68.0665 30.2115 68.0796 30.2702 68.047 30.316C68.0012 30.3813 67.7595 30.7079 67.3153 30.7537C67.2827 30.7537 67.2565 30.7537 67.2304 30.7537H67.2369Z" fill="#21111D"/>
<path d="M71.3847 28.4671C71.3063 29.1007 70.9274 29.5776 70.542 29.5254C70.1566 29.4796 69.9149 28.9244 69.9933 28.2907C70.0716 27.657 70.4505 27.1802 70.8359 27.2324C71.2214 27.2782 71.4631 27.8334 71.3847 28.4671Z" fill="#F9AFB6"/>
<path d="M64.6627 28.5063C64.7672 29.1399 64.5451 29.7018 64.1597 29.7605C63.7808 29.8259 63.3823 29.3621 63.2777 28.7349C63.1732 28.1013 63.3953 27.5395 63.7808 27.4807C64.1662 27.4219 64.5582 27.8792 64.6627 28.5063Z" fill="#F9AFB6"/>
<path d="M64.238 27.8989C64.4013 27.9185 64.336 26.7426 65.2375 26.0045C66.0867 25.3055 67.3737 25.3055 68.3078 25.6386C69.5098 26.0633 70.0651 27.311 70.2741 27.8728C70.3133 27.9642 70.444 27.9708 70.4766 27.8728C70.653 27.4024 70.8817 26.5336 70.8033 25.8216C70.6661 24.5608 69.7711 23.5286 68.7063 23.0648C67.4978 22.5422 65.9692 22.6925 64.9305 23.6593C63.232 25.2271 63.9963 27.8663 64.238 27.8989Z" fill="#21111D"/>
<path d="M71.8423 47.1177C71.8423 47.1177 71.7966 47.1111 71.777 47.0981C71.2152 46.6343 69.6931 45.5695 67.5831 45.5695C67.5374 45.5695 67.4916 45.5695 67.4524 45.5695C65.8977 45.6021 64.7022 46.19 63.9771 46.6735C63.9314 46.7061 63.8726 46.6931 63.8399 46.6473C63.8073 46.6016 63.8203 46.5428 63.866 46.5101C64.6173 46.0137 65.8454 45.4061 67.4459 45.3735C69.2162 45.3343 70.6142 46.0398 71.4046 46.5755C70.8624 45.8699 69.9348 44.9554 68.5303 44.4458C67.6223 44.1127 66.6228 43.9951 65.6494 44.1062C65.5972 44.1127 65.5449 44.0735 65.5384 44.0212C65.5384 43.969 65.571 43.9167 65.6233 43.9102C66.6293 43.7991 67.6615 43.9167 68.5956 44.2564C70.4117 44.9227 71.4569 46.2358 71.9142 46.9674C71.9403 47.0066 71.9338 47.0589 71.8946 47.0915C71.875 47.1046 71.8554 47.1177 71.8293 47.1177H71.8423Z" fill="#AF9CAA"/>
</svg>
