<svg width="98" height="92" viewBox="0 0 98 92" fill="none" xmlns="http://www.w3.org/2000/svg">
<path d="M96.1776 46.0029C96.1776 54.8063 93.7035 63.0337 89.4135 70.027C83.8248 79.13 75.1625 86.135 64.8665 89.6023C61.7695 90.6484 58.5196 91.3712 55.1581 91.7297C53.5244 91.9118 51.8613 92 50.1747 92C33.5671 92 19.0163 83.2026 10.93 70.0152C6.63997 63.0219 4.17175 54.8004 4.17175 46.0029C4.17175 20.592 24.7696 0 50.1747 0C75.5797 0 96.1776 20.592 96.1776 46.0029Z" fill="#F3F8FF"/>
<path d="M89.4135 70.027C83.8247 79.13 75.1624 86.135 64.8664 89.6023C64.1553 89.714 63.4737 89.8315 62.8213 89.949C59.5363 90.5426 57.1209 91.1655 55.1581 91.7297C53.5244 91.9119 51.8613 92 50.1746 92C33.567 92 19.0163 83.2026 10.9299 70.0152C13.0984 69.7743 16.1367 69.5921 19.7391 69.9036C31.8981 70.9496 36.2057 76.3327 45.2852 76.6677C52.3549 76.9321 52.5606 73.7763 63.0094 70.9026C69.1153 69.2277 78.1243 67.8114 89.4135 70.027Z" fill="#F7F5DA"/>
<path d="M76.8784 69.9035C76.8431 69.6919 76.6786 68.9044 75.9557 68.2991C75.2035 67.6703 74.3632 67.6644 74.1575 67.6644C74.2339 67.5822 75.0331 66.7359 76.2496 66.8887C77.3603 67.0239 77.9245 67.8878 78.0008 68.0053C78.0361 67.7585 78.1478 66.8241 77.566 65.9132C76.8373 64.779 75.6149 64.5792 75.4268 64.5498C75.6384 64.4616 76.9019 63.9739 78.2477 64.5968C79.9225 65.3784 80.2222 67.1767 80.2399 67.3177C80.2458 67.2531 80.4397 65.9073 81.5504 65.4195C82.5671 64.9729 83.9128 65.4254 84.5886 66.589C84.4652 66.5772 82.808 66.4656 81.8148 67.7585C81.1508 68.6223 81.186 69.5802 81.2095 69.8506C79.7697 69.8682 78.3241 69.8858 76.8843 69.8976L76.8784 69.9035Z" fill="#D6CD78"/>
<path d="M33.1851 88.6268C33.4142 87.7159 33.0499 86.7521 32.2742 86.2291C31.5337 85.7296 30.5523 85.7296 29.7942 86.2291C29.9764 85.9 30.6111 84.8657 31.7746 84.5777C33.3143 84.1958 35.2184 85.2536 36.0705 87.3045C36.2645 86.7404 36.5348 85.6884 36.3173 84.4132C35.9236 82.1095 34.2429 80.8225 33.8374 80.5287C34.1371 80.6168 37.4986 81.6688 38.4623 84.9068C38.9501 86.5464 38.5916 87.9804 38.3801 88.6268H33.1733H33.1851Z" fill="#D6CD78"/>
<path d="M95.8955 39.9264C96.6124 39.4093 97.2824 38.7628 97.6703 37.9283C98.064 37.0879 98.1404 36.036 97.7055 35.2192C97.1942 34.2554 96.0953 33.8381 95.0786 33.8381C94.062 33.8381 93.0688 34.1731 92.0697 34.3553C91.0648 34.5375 89.9718 34.5551 89.102 33.9733C88.0031 33.2446 87.5388 31.7578 87.3625 30.365C87.1862 28.9722 87.2215 27.5207 86.7631 26.2101C85.9109 23.7419 83.2194 22.2434 80.8981 22.9368C80.1224 23.1719 79.3702 23.642 78.9412 24.3942C78.5122 25.1406 78.471 26.1925 78.9823 26.8801C79.2761 27.2797 79.7286 27.5324 79.9813 27.9732C80.4162 28.7195 80.1106 29.742 79.5582 30.3885C79.0058 31.0349 78.2595 31.4169 77.6013 31.9223C76.9431 32.4277 76.326 33.1505 76.2849 34.0321C76.2144 35.5189 77.7071 36.4885 78.2124 37.8696C78.7355 39.2976 78.1125 40.9254 78.3006 42.4534C78.4593 43.7639 79.2526 44.9627 80.3457 45.5269C81.715 46.238 82.9021 45.8619 84.0186 44.9627C85.1587 44.0519 86.4986 43.4936 87.8444 43.0352C90.5536 42.1184 93.4802 41.6659 95.8955 39.9264Z" fill="#DAE9FE"/>
<path d="M77.9422 19.2932C80.3752 17.254 83.0138 15.1854 84.195 12.0883C84.5829 11.0717 84.771 9.84344 84.2303 8.92079C83.7131 8.03928 82.6671 7.69843 81.7151 7.73957C80.763 7.78071 79.8404 8.12156 78.9001 8.30961C77.9598 8.49179 76.9255 8.49767 76.1263 7.92175C75.4622 7.43986 75.0626 6.63475 74.522 5.98831C73.5288 4.78358 72.0009 4.14302 70.5258 4.30169C69.0507 4.46624 67.6697 5.43002 66.9116 6.8228C65.5306 9.36742 66.3239 12.582 66.3181 15.5439C66.3122 19.4577 64.8313 23.4833 66.0007 27.1856C66.2946 28.1141 66.7588 28.9957 67.4523 29.6127C68.1457 30.2356 69.0801 30.5647 69.9558 30.3591C70.9724 30.1181 71.8774 29.1367 72.3299 28.1318C72.7472 27.2091 72.6061 26.1807 72.9999 25.2228C73.9989 22.7605 76.0382 20.9034 77.9481 19.3049L77.9422 19.2932Z" fill="#DAE9FE"/>
<path d="M54.8291 23.0191C54.1826 22.5137 53.3011 22.5549 52.5959 22.167C51.685 21.6616 51.2149 20.545 50.4979 19.7458C48.8877 17.9652 46.2902 18.0239 44.0042 18.2002C42.582 18.3119 40.9953 18.5058 40.0726 19.7047C39.3616 20.6214 39.2323 21.9084 39.1324 23.1073C39.0266 24.4178 38.9561 25.8635 39.6789 26.9095C40.5016 28.1025 42.0178 28.3317 43.3754 28.4669C45.2089 28.649 47.0483 28.8312 48.8818 29.0193C50.0924 29.1427 51.6204 29.5541 52.8016 29.0487C53.7301 28.6549 54.5411 27.5325 55.0583 26.6392C55.4167 26.0163 55.6459 25.3346 55.5813 24.5882C55.5343 24.0828 54.835 23.2953 54.835 23.0133L54.8291 23.0191Z" fill="#DAE9FE"/>
<path d="M57.2796 6.7759C58.3962 5.49477 60.1768 4.96587 61.7283 5.45364C62.4276 5.67108 63.121 6.14121 63.3679 6.89343C63.6382 7.7103 63.3032 8.61531 62.9095 9.36753C61.8987 11.2892 60.3707 13.0816 60.359 15.2971C60.359 15.8848 60.4354 16.5665 60.0417 16.972C59.7772 17.2482 59.3776 17.2893 59.0132 17.2482C57.9789 17.1424 56.9975 16.4725 56.451 15.5028C55.7399 14.2335 55.9691 12.7408 56.0337 11.3304C56.1101 9.63198 56.1336 8.09228 57.2737 6.78178L57.2796 6.7759Z" fill="#DAE9FE"/>
<path d="M50.6448 5.90027C48.5762 5.53003 46.3313 5.85325 44.6447 7.21077C43.5575 8.0864 42.7112 9.58497 43.0932 11.0013C43.3165 11.8357 43.9218 12.4763 44.4977 13.0757C45.9317 14.5567 47.3715 16.0435 48.9464 17.354C49.9396 18.1826 51.0503 18.9642 52.2903 19.0406C53.5596 19.1229 55.0053 18.212 55.0758 16.7017C55.1522 15.1678 54.0768 13.7986 54.1649 12.159C54.3177 9.11483 53.877 6.48206 50.6389 5.90027H50.6448Z" fill="#DAE9FE"/>
<path d="M86.0695 53.5839C87.2625 53.5134 88.479 53.1373 89.3958 52.2969C90.4301 51.3508 90.9942 49.9051 92.005 48.9296C93.5624 47.431 95.9483 47.2253 97.3587 45.5622C97.8347 44.998 98.1697 44.1459 97.8288 43.476C97.4527 42.7472 96.536 42.6826 95.7779 42.7002C93.7152 42.759 91.6172 42.8236 89.6485 43.5112C88.0794 44.0578 86.6455 44.9804 85.2292 45.8972C83.5896 46.955 81.9147 48.0539 80.7217 49.6759C80.1517 50.4516 79.6992 51.5447 80.1399 52.4144C80.6336 53.3841 81.6973 53.3724 82.567 53.3724C83.7306 53.3665 84.8942 53.6544 86.0695 53.5839Z" fill="#DAE9FE"/>
<path d="M67.0525 71.0966H74.9156C74.6629 69.8096 74.4337 68.5167 74.2162 67.2238C73.9635 65.7546 73.7285 64.2796 73.5169 62.7986C73.2407 60.9592 72.9997 59.1081 72.7764 57.2569C72.6765 56.4341 72.5825 55.6114 72.4943 54.7887C72.1359 51.4154 71.8538 48.0246 71.6657 44.6278C71.6422 44.2517 71.6246 43.8874 71.6011 43.5112C71.4424 40.4554 71.3543 37.3877 71.3366 34.3201C71.319 32.7216 71.3249 31.1231 71.3484 29.5247C71.3895 27.0976 71.4718 24.6705 71.6011 22.2434C71.654 21.1797 71.7186 20.1102 71.7891 19.0465C72.0595 15.0268 72.4415 11.0071 72.941 6.99333C72.9821 6.66423 72.7705 6.36452 72.4767 6.31751C72.2005 6.27637 71.9361 6.4703 71.8714 6.75826C70.1025 14.3451 68.7509 22.0789 67.84 29.8949C67.6696 31.3229 67.5168 32.7569 67.3816 34.1908C67.3698 34.3494 67.3522 34.5081 67.3405 34.6727C67.3287 34.8313 67.3111 34.9841 67.2993 35.1428C67.2171 36.0243 67.1407 36.9058 67.076 37.7932C66.9585 39.2976 66.8527 40.8021 66.7704 42.3124C66.7469 42.712 66.7234 43.1058 66.7058 43.5112C66.6411 44.7689 66.5882 46.0324 66.5471 47.29C66.2709 55.2 66.4531 63.163 67.0701 71.1024L67.0525 71.0966Z" fill="#E6F1FC"/>
<path d="M48.2941 10.202C50.7741 12.5704 53.0602 15.1679 55.0994 17.9652C57.1386 20.7566 58.9251 23.7596 60.4589 26.886C62.0045 30.0124 63.2504 33.2917 64.2612 36.6473C65.2485 40.0087 65.9948 43.4466 66.4591 46.9256C66.6354 48.2361 67.7461 49.1412 68.9391 48.9472C70.132 48.7533 70.9548 47.5368 70.7843 46.2263C70.7785 46.1617 70.7667 46.097 70.755 46.0383V46.0206C69.9734 42.3418 68.9038 38.7511 67.5874 35.2839C66.2534 31.8284 64.6726 28.4904 62.8155 25.3581C60.9643 22.2258 58.8722 19.2757 56.5509 16.5841C54.2296 13.8867 51.6909 11.4361 48.9876 9.26176C48.7467 9.06783 48.4058 9.12072 48.2236 9.39105C48.0532 9.64375 48.0943 9.99635 48.3059 10.1962L48.2941 10.202Z" fill="#E6F1FC"/>
<path d="M67.3759 71.0966H73.9343C73.9754 69.7978 74.0636 68.505 74.2105 67.2238C74.4691 64.9613 74.9039 62.734 75.5327 60.5538C75.5739 60.4068 75.6209 60.2541 75.6679 60.1071C76.138 58.5439 76.7081 57.0219 77.3898 55.5233C77.7953 54.6183 78.2419 53.7368 78.7179 52.8494C79.0999 52.1324 79.5172 51.4155 79.9403 50.675C80.6984 49.3704 81.4859 47.9423 82.1323 46.4438C82.2263 46.2381 82.3086 46.0324 82.385 45.8208C82.4614 45.6328 82.5319 45.4388 82.6083 45.2449C83.2254 43.5877 83.6485 41.8188 83.86 40.0558C83.9012 39.7561 83.9247 39.4563 83.9541 39.1625C84.0363 38.1282 84.0422 37.0998 84.0128 36.0831C83.9541 35.0664 83.8777 34.0615 83.7249 33.0684C83.4428 31.082 82.9785 29.1545 82.3967 27.2857C82.3027 26.9742 81.9912 26.8038 81.6974 26.9154C81.4388 27.0153 81.2919 27.3092 81.3448 27.603C82.0441 31.3465 82.2439 35.2016 81.527 38.7688C81.1685 40.5494 80.5926 42.2066 79.7757 43.7757C79.6229 44.0813 79.4584 44.381 79.288 44.669C78.5886 45.8855 77.7659 47.0197 76.855 48.2185C75.7267 49.6936 74.5396 51.3156 73.5053 53.0374C73.1527 53.6075 72.8177 54.1893 72.4886 54.7946C71.848 55.9758 71.2545 57.2099 70.7138 58.4616C69.1036 62.2463 68.0282 66.3129 67.4229 70.4384V70.4678C67.3876 70.6793 67.3759 70.8909 67.3759 71.0966Z" fill="#E6F1FC"/>
<path d="M92.634 36.2359C90.2539 36.6591 87.8973 37.5229 85.7171 38.8217C83.5368 40.1146 81.527 41.8364 79.811 43.8992L79.7992 43.9168C79.1881 44.6514 79.2351 45.7915 79.905 46.4614C80.575 47.1314 81.6151 47.0843 82.2263 46.3439C82.291 46.2675 82.3497 46.1852 82.3967 46.1029C83.578 44.0872 85.0824 42.2537 86.8513 40.7257C88.6202 39.1978 90.6535 37.9872 92.8455 37.1644C93.0747 37.0822 93.1981 36.806 93.1218 36.5533C93.0512 36.33 92.8456 36.1948 92.6399 36.2301L92.634 36.2359Z" fill="#E6F1FC"/>
<path d="M44.8563 23.8595C49.017 24.0064 53.0955 25.3287 56.5333 27.6793C59.983 30.0124 62.7803 33.3621 64.6138 37.2055C65.0311 38.087 66.0242 38.422 66.8235 37.9636C67.6227 37.5052 67.9342 36.418 67.5169 35.5365C67.4934 35.4895 67.4699 35.4366 67.4405 35.3896L67.4288 35.372C64.9605 31.2171 61.5109 27.8263 57.5382 25.6813C53.5715 23.5127 49.1404 22.6019 44.8387 22.8957C44.5977 22.9133 44.4155 23.1366 44.4273 23.4011C44.439 23.6479 44.6271 23.8418 44.8504 23.8477L44.8563 23.8595Z" fill="#E6F1FC"/>
<path d="M89.7838 47.6485C86.3517 48.7416 83.002 50.2578 79.8051 52.1736C76.6081 54.0894 73.5758 56.3989 70.7726 59.0493L70.7608 59.0611C69.844 59.925 69.7383 61.447 70.5316 62.452C71.3191 63.4569 72.706 63.5744 73.6228 62.7046C73.7227 62.6106 73.8226 62.4931 73.9049 62.3873C76.0322 59.4725 78.4534 56.7692 81.145 54.3597C83.8365 51.9561 86.7866 49.8405 89.9483 48.0951C90.0541 48.0364 90.1011 47.8894 90.0482 47.7719C90.0012 47.6661 89.8895 47.6191 89.7896 47.6485H89.7838Z" fill="#E6F1FC"/>
<path d="M79.1645 12.1649C75.1684 14.6742 71.7364 18.3883 69.3563 22.8605C69.1153 23.3247 69.2564 23.9124 69.6677 24.1769C70.085 24.4413 70.6198 24.2885 70.8607 23.8301C70.8725 23.8066 70.8901 23.7772 70.9019 23.7479C72.753 19.3462 75.6973 15.4382 79.3996 12.5645C79.4995 12.4881 79.523 12.3412 79.4525 12.2295C79.3878 12.1296 79.2644 12.1002 79.1645 12.159V12.1649Z" fill="#E6F1FC"/>
<path d="M60.1005 7.65742C58.0319 10.7721 56.7037 14.5332 56.3159 18.4588C56.2747 18.8643 56.5392 19.2228 56.9094 19.2698C57.2738 19.3109 57.6029 19.023 57.644 18.6234C57.644 18.5999 57.644 18.5764 57.644 18.5529C57.6793 14.8564 58.6195 11.1247 60.3767 7.85723C60.4237 7.76907 60.3943 7.65742 60.3179 7.60453C60.2415 7.55751 60.1475 7.58102 60.1005 7.65742Z" fill="#E6F1FC"/>
<path d="M70.7726 34.22C69.8382 34.126 68.9038 34.2612 67.9694 34.2377C65.7832 34.173 63.7146 33.2151 61.5814 32.698C59.4481 32.1808 56.9858 32.1985 55.3462 33.7852C54.2942 34.8018 53.7595 36.3004 53.2541 37.7343C52.8251 38.9684 52.3961 40.3553 52.8721 41.5659C53.4362 43.0057 55.0817 43.5699 56.498 43.4054C57.9143 43.2349 59.2307 42.5238 60.6058 42.1125C62.9213 41.4249 65.4482 41.6306 67.6461 42.6825C68.9743 43.3172 70.1966 44.2575 71.6012 44.6218C73.0116 44.9862 74.7511 44.5631 75.3799 43.135C76.1674 41.3368 74.757 39.4444 74.1458 37.8284C73.4171 35.9067 72.894 34.4434 70.7726 34.2259V34.22Z" fill="#DAE9FE"/>
<path d="M39.1616 33.6266C39.7552 33.2387 40.4722 33.1153 41.0539 32.7039C41.6475 32.2867 42.0471 31.6167 42.4291 30.9703C43.5222 29.125 44.6152 27.2621 45.3851 25.2346C45.9022 23.8712 46.2783 22.4079 47.0952 21.2326C47.965 19.9808 49.3989 19.1346 50.8211 19.3344C52.2432 19.5342 53.5126 20.974 53.4009 22.5431C53.3187 23.7478 52.5312 24.7233 51.826 25.6519C49.8455 28.2494 48.2177 31.1701 47.0071 34.2847C46.7602 34.9136 46.5487 35.6952 46.9248 36.2417C47.1422 36.5532 47.5183 36.7118 47.7123 37.0409C48.106 37.7109 47.5653 38.5512 47.0482 39.1095C45.7965 40.4436 44.4801 41.7012 43.0932 42.8706C41.8943 43.8814 40.7249 44.6807 39.2204 43.8579C37.4574 42.8941 37.8453 39.8324 37.6631 38.0458C37.4985 36.4239 37.7395 34.5374 39.1499 33.6266H39.1616Z" fill="#DAE9FE"/>
<path d="M26.2976 11.5771C25.4866 10.8484 24.5933 9.93752 24.6697 8.78569C24.7226 7.99233 25.2457 7.28712 25.2398 6.48789C25.2339 5.8297 24.8578 5.19501 24.9812 4.54857C25.1575 3.6083 26.1977 3.27333 27.0616 3.11465C28.137 2.92072 29.2301 2.72092 30.3114 2.83257C31.3986 2.94423 32.4975 3.39674 33.2027 4.30763C33.8022 5.07748 34.0666 6.08827 34.3017 7.06968C34.6367 8.47422 34.9481 9.91989 34.8306 11.3656C34.7189 12.8112 34.1136 14.2863 32.9853 15.0444C31.9275 15.7555 30.57 15.6086 29.6532 14.7212C28.5484 13.6457 27.4377 12.5938 26.2917 11.5712L26.2976 11.5771Z" fill="#DAE9FE"/>
<path d="M25.0459 21.9436C24.1761 21.2913 23.7001 20.163 22.9067 19.399C21.9077 18.4411 20.5267 18.159 19.3102 17.5772C18.0937 16.9954 16.8831 15.8025 17.0418 14.3568C17.1593 13.252 18.0996 12.3998 19.1045 12.2235C20.1035 12.0414 21.132 12.4233 22.0017 12.9934C22.8715 13.5634 23.6237 14.3215 24.4347 14.9915C26.6913 16.8779 29.3946 18.112 32.2037 18.5351C32.9442 18.6468 33.7669 18.6879 34.3781 18.2178C35.0951 17.6654 35.2949 16.6193 35.5769 15.7084C36.053 14.1393 36.8992 12.7466 37.7396 11.3714C38.5212 10.0844 39.4203 8.70926 40.772 8.28026C41.8415 7.94528 43.0698 8.31552 43.822 9.21465C44.5801 10.1079 44.8269 11.4831 44.4332 12.6231C44.2333 13.2108 43.8749 13.7809 43.9395 14.4038C44.0453 15.3793 45.062 15.826 45.8083 16.3784C46.4665 16.8661 46.9954 17.589 47.2128 18.4235C47.4303 19.2638 47.3069 20.2159 46.8191 20.9034C46.0316 22.02 44.5801 22.1963 43.44 22.8545C41.6065 23.9123 40.531 26.2689 38.5799 27.0152C37.1225 27.5735 35.5123 27.0975 34.0784 26.4746C32.5446 25.8046 30.7992 25.3697 29.518 24.2062C28.9127 23.6537 28.2957 23.2071 27.5435 22.925C26.7031 22.6136 25.7922 22.5019 25.0459 21.9436Z" fill="#DAE9FE"/>
<path d="M19.6393 34.702C19.2632 34.9841 18.8635 35.2544 18.6167 35.6775C18.3934 36.0654 18.3288 36.5414 18.1818 36.9704C17.7587 38.1869 16.6069 39.0214 15.4198 39.0801C14.2327 39.1389 13.0632 38.4807 12.3169 37.4699C11.5705 36.4533 11.2297 35.1251 11.2591 33.8205C11.2826 32.845 11.5235 31.8459 12.1229 31.1231C12.599 30.5472 13.263 30.2004 13.8742 29.8126C14.8027 29.2249 15.696 28.5079 16.742 28.2435C17.7881 27.979 19.0692 28.3434 19.5159 29.413C19.939 30.4355 19.7686 31.458 20.3033 32.4512C20.8146 33.3974 20.4444 34.0967 19.6393 34.7079V34.702Z" fill="#DAE9FE"/>
<path d="M15.9839 13.8984C16.5069 12.9229 17.4413 12.3059 18.0466 11.395C18.6872 10.4371 18.9223 9.20883 18.8694 8.02761C18.8165 6.84639 18.4991 5.69455 18.1172 4.58385C17.7528 3.53192 17.312 2.47999 16.5598 1.72189C15.8076 0.963798 14.6734 0.564182 13.7331 1.01081C13.0397 1.33991 12.5284 2.0745 11.7997 2.28606C10.7242 2.59752 9.71932 1.68076 8.7673 1.05195C7.54494 0.246839 6.08164 -0.152778 4.66535 0.0646603C3.25494 0.282099 1.90917 1.1401 1.12756 2.45061C0.234303 3.94917 0.146153 5.90024 0.5634 7.63387C0.980647 9.3675 1.85628 10.9248 2.79068 12.3881C3.73095 13.8573 4.74762 15.2736 5.49984 16.8603C6.10514 18.1238 6.56353 19.5225 7.53906 20.4686C8.83782 21.7262 10.7184 21.8673 12.4461 21.9496C13.8977 22.0142 17.0887 21.8379 16.8537 19.4167C16.6597 17.4245 14.8144 16.067 15.978 13.8984H15.9839Z" fill="#DAE9FE"/>
<path d="M29.1184 7.56334C31.4573 12.4645 33.2615 17.7594 34.1488 23.3423C34.5955 26.1338 34.8012 28.984 34.7659 31.8459C34.7248 34.7079 34.4015 37.5816 33.9843 40.326C33.5671 43.0705 33.1087 45.6974 32.8677 48.2772C32.615 50.8571 32.5504 53.4194 32.6738 55.9934C32.8912 61.1472 33.8021 66.2306 35.2772 71.0671C35.9295 73.2063 34.8834 75.5217 32.9324 76.2386C30.9813 76.9556 28.8716 75.8038 28.2192 73.6647C28.1781 73.5354 28.1487 73.4061 28.1193 73.2768V73.2474C26.9381 67.5646 26.4445 61.7349 26.7207 55.964C26.85 53.0785 27.1908 50.1813 27.7256 47.3722C28.2486 44.5514 28.9773 41.8716 29.6179 39.2859C30.2585 36.7001 30.7756 34.1731 31.0518 31.5874C31.3221 29.0016 31.375 26.3747 31.1929 23.7478C30.8461 18.4882 29.6003 13.252 27.7667 8.25092C27.6139 7.8278 27.7961 7.35178 28.1781 7.18723C28.5366 7.02856 28.9421 7.19899 29.1184 7.56334Z" fill="#E6F1FC"/>
<path d="M4.63004 3.70828C8.23247 9.77306 12.5577 15.2854 17.4413 20.0573C22.3248 24.8351 27.7667 28.8783 33.5729 32.0576C34.4309 32.5277 34.7776 33.6737 34.3486 34.6139C33.9196 35.5542 32.8794 35.9362 32.0214 35.4661C31.992 35.4484 31.9568 35.4249 31.9215 35.4073C26.0448 31.6697 20.6441 27.0859 15.9016 21.8321C11.1591 16.5783 7.07475 10.6546 3.77791 4.27245C3.64275 4.01388 3.72502 3.6789 3.96597 3.53198C4.19516 3.39094 4.48312 3.47322 4.62416 3.70828H4.63004Z" fill="#E6F1FC"/>
<path d="M13.9917 35.0428C14.6851 34.0379 15.4726 33.1035 16.3482 32.269C17.218 31.4286 18.1876 30.694 19.2102 30.0652C21.267 28.8135 23.5825 28.0378 25.9625 27.7851H25.9743C26.656 27.7145 27.2613 28.2611 27.3318 29.0074C27.4023 29.7538 26.8969 30.4237 26.2152 30.4942C26.1682 30.4942 26.1212 30.5001 26.0742 30.5001C24.0115 30.4648 21.9194 30.888 19.9742 31.7753C19.0045 32.2279 18.0642 32.7744 17.1886 33.4443C16.313 34.1084 15.4902 34.8841 14.7498 35.7421C14.5617 35.9596 14.2502 35.9713 14.0504 35.7656C13.8624 35.5717 13.8447 35.2602 13.9917 35.0428Z" fill="#E6F1FC"/>
<path d="M14.5383 4.52508C14.1798 5.64753 13.9212 6.81112 13.7802 7.98058C13.6333 9.15005 13.6157 10.3313 13.692 11.4949C13.8625 13.822 14.4795 16.0905 15.4609 18.1179C15.7195 18.6468 15.5373 19.3109 15.0496 19.593C14.5677 19.8751 13.9624 19.6753 13.7097 19.1405C13.6979 19.1111 13.6862 19.0817 13.6744 19.0523C12.7577 16.6605 12.2875 14.0924 12.311 11.5419C12.3287 10.2666 12.4521 8.99726 12.7106 7.76902C12.9633 6.53491 13.3336 5.34194 13.8037 4.20186C13.8919 3.98442 14.1328 3.88451 14.3267 3.98442C14.5148 4.07844 14.6029 4.31351 14.5383 4.52508Z" fill="#E6F1FC"/>
<path d="M50.8328 22.1611C48.6114 29.0957 45.8259 35.8421 42.3351 42.189C38.8326 48.5241 34.6307 54.4713 29.5356 59.5371C28.848 60.2188 27.7902 60.1659 27.1673 59.4136C26.5444 58.6614 26.5973 57.4978 27.2848 56.8161C27.3083 56.7926 27.3377 56.7632 27.3612 56.7456C32.4152 52.2969 36.7875 46.8492 40.5251 40.9137C44.2568 34.9606 47.3714 28.508 49.9396 21.7909C50.0395 21.5206 50.3216 21.3972 50.5684 21.5088C50.8034 21.6146 50.9151 21.9084 50.8328 22.167V22.1611Z" fill="#E6F1FC"/>
<path d="M45.9904 17.4304C45.0912 18.7821 43.9218 19.9457 42.5701 20.7978C41.2126 21.6499 39.6846 22.1965 38.1038 22.3904H38.0979C37.6454 22.4492 37.2341 22.0907 37.187 21.5912C37.14 21.0916 37.4632 20.645 37.9157 20.5921C37.9451 20.5921 37.9804 20.5921 38.0098 20.5921C39.3791 20.5921 40.766 20.2865 42.053 19.6753C43.34 19.0642 44.5153 18.1415 45.485 16.9779C45.6084 16.831 45.8141 16.8193 45.9492 16.9544C46.0726 17.0778 46.0903 17.2894 45.9904 17.4363V17.4304Z" fill="#E6F1FC"/>
<path d="M50.0688 38.5454C48.8229 41.4309 46.9835 44.0284 44.7621 46.1616C43.6514 47.2312 42.4467 48.1891 41.1715 49.0236C39.8962 49.8581 38.5563 50.575 37.1635 51.1686H37.1577C36.3819 51.5035 35.5122 51.0804 35.2125 50.2342C34.9128 49.3879 35.2947 48.43 36.0705 48.1009C36.1175 48.0774 36.1704 48.0598 36.2233 48.048C37.5044 47.6661 38.762 47.1665 39.9785 46.5554C41.1891 45.9383 42.3586 45.2096 43.4575 44.3575C45.6554 42.6591 47.583 40.4847 49.011 37.9225C49.1814 37.611 49.5517 37.5111 49.8396 37.705C50.1041 37.8813 50.1981 38.2515 50.0688 38.5513V38.5454Z" fill="#E6F1FC"/>
<path d="M43.5987 9.55552C42.9287 13.058 41.7534 16.4665 40.0903 19.5988C39.2558 21.162 38.3096 22.6606 37.2518 24.0651C36.194 25.4697 35.0304 26.7861 33.7728 27.9908C33.2556 28.4903 32.474 28.4315 32.0215 27.8674C31.569 27.3032 31.6219 26.4452 32.1391 25.9457C32.1626 25.9222 32.1861 25.8987 32.2155 25.881C33.4496 24.8702 34.6073 23.7478 35.6827 22.5254C36.7582 21.309 37.7396 19.9808 38.627 18.5763C40.3958 15.7672 41.7534 12.6173 42.6408 9.29107C42.7171 9.00311 42.9934 8.83856 43.2578 8.92084C43.5105 9.00311 43.6574 9.27932 43.6045 9.55552H43.5987Z" fill="#E6F1FC"/>
<path d="M20.2915 15.5262C21.4375 15.538 22.5952 15.679 23.7294 15.9552C24.8636 16.2256 25.9743 16.6428 27.0497 17.1717C29.1888 18.2413 31.134 19.8162 32.7384 21.7673H32.7443C33.2026 22.3315 33.1615 23.1954 32.6561 23.7008C32.1507 24.2062 31.3632 24.1591 30.9048 23.6009C30.8755 23.5656 30.8461 23.5245 30.8167 23.4833C29.6178 21.6439 28.0605 20.0513 26.2505 18.8642C25.3455 18.2765 24.3817 17.777 23.3709 17.4009C22.3601 17.0248 21.3082 16.7604 20.2386 16.6193C19.9683 16.5841 19.7743 16.3137 19.8037 16.014C19.8331 15.7378 20.0505 15.5321 20.3032 15.5321L20.2915 15.5262Z" fill="#E6F1FC"/>
<path d="M47.777 37.5169C48.6937 36.6413 50.2746 36.4591 51.0444 37.4934C51.6027 38.2456 51.5498 39.3446 51.2501 40.2555C50.9504 41.1664 50.445 41.9832 50.1511 42.8941C49.8103 43.9578 49.7692 45.1155 49.4224 46.1733C49.0522 47.3134 48.3059 48.3301 47.3068 48.8472C46.3078 49.3644 45.056 49.3174 44.151 48.6298C43.246 47.9422 42.7759 46.5729 43.1461 45.4328C43.6515 43.8755 45.1853 42.9999 45.8376 41.5072C46.4371 40.1262 46.6721 38.5747 47.7828 37.5228L47.777 37.5169Z" fill="#DAE9FE"/>
<path d="M35.6299 43.2173C36.435 43.2702 37.293 43.3525 37.9335 43.8873C38.6387 44.475 38.9267 45.4799 39.1324 46.4319C39.3028 47.2253 39.438 48.095 39.1206 48.8355C38.721 49.7581 37.7161 50.1871 36.7876 50.1871C35.8591 50.1871 34.9599 49.8522 34.0549 49.6406C33.144 49.429 32.1509 49.3526 31.334 49.8404C30.0764 50.5809 29.6591 52.3615 28.5719 53.3782C27.7022 54.1892 26.5033 54.4184 25.3691 54.5888C24.4817 54.724 23.5473 54.8356 22.7246 54.4595C21.7256 54.0011 21.1026 52.9257 20.2975 52.1264C19.5277 51.3625 18.5756 50.8512 17.7588 50.1519C16.936 49.4525 16.2191 48.4594 16.2073 47.3193C16.2014 46.285 16.795 45.3388 17.559 44.7277C18.5756 43.9108 19.8626 43.5582 21.0439 43.1351C21.943 42.8118 22.7892 42.5591 23.7413 42.6532C26.1684 42.8882 28.5896 42.8824 31.0225 42.9764C32.5563 43.0352 34.1019 43.2232 35.6357 43.2232L35.6299 43.2173Z" fill="#DAE9FE"/>
<path d="M64.7761 55.8785C64.5926 56.3338 64.4227 56.7959 64.2664 57.2716C63.4917 59.5618 62.9616 61.9946 62.2141 64.2984C61.8539 65.4061 61.052 66.3167 60.0123 66.8536C55.296 69.3 50.1177 71.4747 45.517 73.9891C44.5248 74.1522 43.5394 73.6425 43.1317 72.7522C42.7511 71.93 42.9278 70.9446 43.5734 70.2786C47.8411 67.5127 55.2145 61.8111 55.2145 61.8111C55.2145 61.8111 56.594 50.6662 56.6484 47.9275C57.3144 48.342 57.9939 48.8177 58.6803 49.341C61.4462 51.4613 63.4033 53.8262 64.7761 55.8785Z" fill="#F9AFB6"/>
<path d="M64.776 55.8785C64.5925 56.3338 63.1518 63.6188 62.6693 63.7275C61.5548 63.9722 55.3299 61.6752 54.7659 61.4782C54.8202 58.7395 56.5939 50.6662 56.6483 47.9275C57.3143 48.342 57.9938 48.8177 58.6802 49.341C61.4461 51.4613 63.4032 53.8262 64.776 55.8785Z" fill="#8AA8FF"/>
<path d="M43.4443 70.1495C43.2541 69.9388 42.9483 69.8913 41.691 69.9864C40.7668 70.0544 39.9513 70.1563 39.2786 70.2515C39.3669 71.8009 39.6455 73.9075 40.4882 76.2589C41.1474 78.1141 41.9697 79.6091 42.6968 80.7372C43.288 80.4994 43.8725 80.2683 44.4637 80.0305C44.2802 79.5344 44.1103 78.8616 44.1103 78.0597C44.1103 75.8579 45.3879 74.3221 45.816 73.8464C44.2191 73.4047 43.689 72.7727 43.5191 72.2562C43.2405 71.3999 43.8793 70.6252 43.4443 70.1495Z" fill="#64546F"/>
<path d="M72.4891 64.6721C71.8163 70.6388 70.994 75.0424 70.3144 80.1732C69.5193 80.9071 68.9961 81.5663 68.201 82.307C67.4331 81.7498 66.2642 80.7168 66.2642 80.7168L64.8099 65.4061C64.8099 65.4061 59.5364 54.8319 59.0607 54.3902C58.1977 53.5815 56.2541 51.8758 56.1182 49.4158C56.0502 48.2333 56.4036 46.8402 57.2055 45.9975C59.0471 44.0675 63.7634 44.5025 68.4252 47.8527C68.731 48.9469 69.1524 50.5167 69.6213 52.236C70.6202 55.9329 71.7959 60.3569 72.3328 62.4364C72.5163 63.1635 72.5774 63.9178 72.4891 64.6653V64.6721Z" fill="#F9AFB6"/>
<path d="M72.8833 61.7227C72.3329 62.1713 71.5854 62.7217 70.6543 63.2586C68.8127 64.3255 66.5361 65.6371 63.8111 65.4128C63.2946 64.8284 59.5366 54.8387 59.0609 54.397C58.1978 53.5883 56.2542 51.8826 56.1183 49.4225C56.0436 48.1041 56.1047 46.5343 56.7707 45.7596C58.7347 43.4559 64.5042 43.9995 70.2058 47.1255C70.0631 49.0351 70.0563 51.6039 70.5932 54.5601C71.1368 57.557 72.0611 59.983 72.8833 61.7295V61.7227Z" fill="#8AA8FF"/>
<path d="M63.8111 65.508C63.8111 65.508 63.7567 65.4944 63.7363 65.474C63.4645 65.175 62.4383 62.6334 61.351 59.9491C60.352 57.4755 59.2103 54.6688 58.9929 54.4582L58.8706 54.3427C58.2929 53.8058 57.3211 52.902 56.6823 51.6991C56.6552 51.6515 56.6755 51.5904 56.7231 51.5632C56.7707 51.536 56.8318 51.5564 56.859 51.604C57.4842 52.7796 58.4356 53.6631 59.0065 54.1931L59.1288 54.3087C59.3666 54.5329 60.1957 56.5581 61.5413 59.8676C62.5267 62.3004 63.6412 65.0527 63.8858 65.3313C63.9266 65.3721 63.9198 65.4401 63.879 65.474C63.8586 65.4944 63.8382 65.5012 63.8111 65.5012V65.508Z" fill="#7A97DD"/>
<path d="M79.2237 29.9052C79.0878 29.7829 78.748 29.4771 78.4558 29.579C78.3946 29.5994 78.3403 29.6402 78.2995 29.6809C78.3538 29.613 78.3946 29.545 78.4082 29.4567C78.4422 29.28 78.4082 29.0693 78.2927 29.015C78.1568 28.9538 77.9869 29.1577 77.5995 29.3547C77.3141 29.5042 77.1238 29.5314 76.9607 29.5858C76.3627 29.7761 75.9414 30.3401 75.622 30.7547C75.0171 31.5566 74.7453 32.4128 74.6162 33.0108L67.1477 35.7019L68.5476 39.725L75.6492 35.3825L76.1113 35.0835C76.1928 35.0292 76.2744 34.9816 76.3559 34.9272C77.2869 34.3564 78.0616 33.9758 78.6189 33.7176C79.0334 33.5273 79.3868 33.3778 79.6654 32.9972C80.046 32.4604 80.0052 31.8352 79.9916 31.5769C79.9848 31.4478 79.9101 30.5236 79.2237 29.912V29.9052ZM78.2451 29.7421C78.2451 29.7421 78.2111 29.7829 78.2043 29.8033C78.0548 30.0207 78.1364 30.1498 78.0344 30.4081C77.9325 30.6663 77.7218 30.8634 77.4908 30.9449C77.3277 31.0061 77.0898 31.0265 77.0423 30.9449C77.0083 30.8838 77.083 30.7682 77.2529 30.5848C77.6947 30.1159 78.048 29.946 78.2451 29.7421Z" fill="#F9AFB6"/>
<path d="M64.0963 21.7911C63.4507 22.3008 62.5468 23.1027 61.711 24.2648C60.3654 26.1268 59.8897 27.9888 59.0606 33.1876C58.748 35.1719 58.3946 37.5504 58.0549 40.2483C57.3277 41.9201 56.6753 43.9044 56.3152 46.1946C56.2404 46.6567 56.186 47.1052 56.1453 47.5401C57.8238 47.9478 59.8489 48.308 62.1527 48.4439C65.3127 48.6274 68.0378 48.342 70.1512 47.9614C70.9871 47.3294 72.1016 46.2965 72.9307 44.7675C75.1869 40.6221 73.6374 36.0078 72.5026 32.6371C71.8502 30.7003 70.6949 27.384 67.5824 24.4007C66.2777 23.1503 65.0069 22.3212 64.0895 21.7911H64.0963Z" fill="#64546F"/>
<path d="M66.6447 29.2595C65.9719 29.9663 65.2856 30.7342 64.5992 31.5021L62.5537 33.8331L58.4899 38.5765L57.2938 34.5058L66.7806 39.657C67.4942 40.0443 67.7524 40.9346 67.3719 41.6413C67.0389 42.2529 66.3389 42.5316 65.7001 42.3549L55.2891 39.5211C53.9843 39.1677 53.2096 37.8153 53.5698 36.5106C53.6309 36.2999 53.7125 36.096 53.8212 35.9125L54.0998 35.4436L57.3686 30.0342L59.0403 27.3363C59.6112 26.4325 60.1752 25.5355 60.8072 24.6045L60.8276 24.5705C61.9897 22.8512 64.3206 22.4027 66.0399 23.5647C67.7592 24.7268 68.2077 27.0577 67.0457 28.777C66.9301 28.9469 66.7874 29.1168 66.6515 29.2663L66.6447 29.2595Z" fill="#F9AFB6"/>
<path d="M65.5779 39.1132C65.7818 39.0385 66.0876 38.9297 66.4682 38.8278C67.406 38.5763 67.8341 38.5967 68.2147 38.6307C68.4729 38.6511 69.1321 40.2481 69.1049 40.2753C69.003 40.3772 69.3767 40.6694 69.4379 41.1791C69.5398 42.0422 68.6632 42.8237 68.3098 43.1363C67.936 43.4693 67.7458 43.6324 67.4739 43.6867C66.8351 43.8023 66.2303 43.3877 65.2517 42.681C64.878 42.4091 64.5857 42.1577 64.3887 41.9946C64.7828 41.0364 65.1838 40.085 65.5779 39.1268V39.1132Z" fill="#F9AFB6"/>
<path d="M67.8136 22.6065C67.7865 22.6677 67.7593 22.7356 67.7389 22.8036C66.8487 22.1308 66.1963 20.8872 66.0264 19.6504C66.7331 20.1669 67.4399 20.6833 68.1466 21.1998C68.1738 21.2202 68.2078 21.261 68.235 21.3153C68.4253 21.6619 68.0175 22.1444 67.8136 22.6133V22.6065Z" fill="#E59CA9"/>
<path d="M70.8785 23.9115C70.4639 24.1494 69.9339 24.2649 69.5261 25.2503C69.2611 25.8823 69.4242 27.0919 69.6009 27.9346C69.7096 28.4443 69.6824 28.2404 69.499 27.7375C69.1252 26.7249 68.4252 25.2978 67.1884 24.2309C66.1691 23.3475 64.8779 22.7902 64.7759 22.7494C64.2663 22.532 63.8177 22.3961 63.4847 22.3077C63.9604 21.9543 64.5585 21.4243 65.0885 20.6564C65.3468 20.2826 65.5438 19.9292 65.6933 19.603C66.6244 20.2758 67.5622 20.9486 68.5136 21.6214C69.397 22.2466 70.0086 23.2999 70.8853 23.9115H70.8785Z" fill="#F9AFB6"/>
<path d="M70.6746 23.3609L71.891 22.9464C71.891 22.9464 71.5648 23.3202 71.1367 23.6939C70.6202 24.1424 70.0358 24.3735 69.7708 24.4415C68.7786 24.7065 67.2903 23.6803 66.2234 21.9135C68.8465 23.4017 70.063 23.5648 70.6746 23.3609Z" fill="#E59CA9"/>
<path d="M72.36 17.8632C72.5231 18.3457 73.5425 21.3766 71.8911 22.9532C70.9737 23.8299 69.7029 23.8163 69.4786 23.8095C67.5283 23.7687 66.3526 22.1173 66.0128 21.6416C65.7818 21.3222 64.6605 19.7456 65.0342 17.7001C65.3672 15.8925 66.8487 13.8606 68.5952 13.8334C70.9465 13.7994 72.2037 17.4147 72.36 17.8564V17.8632Z" fill="#F9AFB6"/>
<path d="M70.8513 20.1805C70.9464 20.2553 70.96 20.398 70.8785 20.4863C70.8037 20.5814 70.661 20.595 70.5727 20.5135C70.4843 20.4319 70.4639 20.296 70.5455 20.2077C70.6202 20.1125 70.763 20.099 70.8513 20.1805Z" fill="#64546F"/>
<path d="M72.6251 19.63C72.7202 19.7047 72.7338 19.8474 72.6523 19.9358C72.5775 20.0309 72.4348 20.0445 72.3465 19.963C72.2513 19.8882 72.2377 19.7455 72.3193 19.6571C72.394 19.562 72.5368 19.5484 72.6251 19.63Z" fill="#64546F"/>
<path d="M70.1447 20.031C70.1447 20.031 70.0971 20.0242 70.0835 20.0107C70.0427 19.9767 70.0291 19.9087 70.0699 19.8679C70.165 19.7456 70.3349 19.5825 70.5932 19.4806C70.7019 19.4398 70.8242 19.4126 70.9398 19.399C70.9941 19.399 71.0417 19.4398 71.0485 19.4942C71.0485 19.5486 71.0077 19.5961 70.9534 19.6029C70.8514 19.6097 70.7563 19.6301 70.6611 19.6709C70.4505 19.7524 70.3078 19.8951 70.2262 19.9971C70.2058 20.0243 70.1786 20.0378 70.1447 20.0378V20.031Z" fill="#64546F"/>
<path d="M72.1288 19.1747C72.1288 19.1747 72.0676 19.1611 72.0472 19.1339C72.0133 19.0863 72.0201 19.0252 72.0676 18.9912C72.1967 18.8893 72.3395 18.8145 72.4958 18.7737C72.5501 18.7601 72.6045 18.7873 72.6249 18.8417C72.6385 18.8961 72.6113 18.9504 72.5569 18.9708C72.4278 19.0048 72.3055 19.0659 72.1967 19.1543C72.1764 19.1679 72.156 19.1747 72.1356 19.1747H72.1288Z" fill="#64546F"/>
<path d="M71.9998 21.5328C71.9522 21.5328 71.9114 21.4989 71.8978 21.4581C71.8842 21.4037 71.9182 21.3494 71.9726 21.3358C72.0609 21.3154 72.1153 21.2814 72.1289 21.2406C72.1425 21.2066 72.1289 21.1591 72.0745 21.0436L72.0541 20.996C71.9726 20.8057 71.8978 20.595 71.8638 20.4727C71.8163 20.2892 71.8095 20.0922 71.8503 19.8815C71.8639 19.8271 71.9114 19.7931 71.9726 19.7999C72.0269 19.8135 72.0609 19.8611 72.0541 19.9223C72.0201 20.0989 72.0202 20.2688 72.0609 20.4251C72.0881 20.5339 72.1629 20.7309 72.2444 20.9212L72.2648 20.9688C72.326 21.1047 72.3667 21.2066 72.3192 21.3222C72.292 21.3969 72.2172 21.4921 72.0202 21.5396C72.0134 21.5396 72.0066 21.5396 71.993 21.5396L71.9998 21.5328Z" fill="#64546F"/>
<path d="M71.5853 22.3349C71.3271 22.3349 71.1164 22.2534 70.9873 22.1854C70.9397 22.1582 70.9193 22.097 70.9465 22.0495C70.9737 22.0019 71.0348 21.9815 71.0824 22.0087C71.1911 22.0699 71.3746 22.131 71.6057 22.131C71.8911 22.131 72.1018 22.0087 72.2037 21.9407C72.2513 21.9068 72.3124 21.9204 72.3464 21.9679C72.3804 22.0155 72.3668 22.0767 72.3192 22.1106C72.1969 22.1922 71.9455 22.3281 71.6125 22.3349C71.6057 22.3349 71.5989 22.3349 71.5921 22.3349H71.5853Z" fill="#64546F"/>
<path d="M72.0406 17.0001C71.993 17.0817 71.6533 17.204 70.9669 17.435C70.1038 17.734 69.5534 17.9175 68.935 17.768C68.8058 17.7544 68.5884 17.7272 68.4864 17.8564C68.4049 17.9583 68.235 17.9447 68.2894 18.3932C68.3437 18.8282 68.3437 19.4737 68.2146 19.5009C68.0447 19.5349 67.936 18.4748 67.1477 18.0874C67.039 18.0331 66.7603 17.8971 66.5157 18.0127C66.1895 18.169 66.1419 18.6854 66.1351 18.8146C66.074 19.5417 66.5293 19.9291 66.3662 20.5679C66.339 20.663 66.305 20.7445 66.2575 20.8193C66.0536 21.1319 65.6594 21.1931 65.5167 21.227C65.1701 21.295 64.6401 21.4853 63.8246 22.0085C64.144 21.6348 64.5517 21.0436 64.6537 20.262C64.776 19.2971 64.2459 18.9369 64.1848 17.768C64.1372 16.9118 64.0624 15.6478 64.8779 14.7032C65.7274 13.7246 67.0458 13.6362 67.6642 13.6022C68.0923 13.5751 69.0097 13.5343 69.9883 14.0372C71.3814 14.7575 72.4144 16.3545 72.0338 17.0069L72.0406 17.0001Z" fill="#64546F"/>
<path d="M67.6301 18.6924C67.8476 19.2224 67.7185 19.7797 67.3379 19.936C66.9574 20.0923 66.4749 19.7933 66.2506 19.2632C66.0263 18.7332 66.1622 18.1759 66.5428 18.0196C66.9234 17.8633 67.4059 18.1623 67.6301 18.6924Z" fill="#F9AFB6"/>
<path d="M66.1215 80.1119C65.8564 80.207 65.6933 80.472 65.306 81.6749C65.0206 82.5583 64.8031 83.3466 64.64 84.0126C66.1079 84.5155 68.1602 85.0456 70.661 85.1611C72.625 85.2494 74.3239 85.0524 75.6423 84.8009C75.6423 84.1689 75.6491 83.5301 75.6559 82.8981C75.1258 82.8777 74.4394 82.7826 73.6919 82.4836C71.6532 81.6545 70.7154 79.8876 70.4368 79.3168C69.4242 80.6283 68.6427 80.8866 68.099 80.8458C67.1952 80.7779 66.7263 79.8944 66.1215 80.1187V80.1119Z" fill="#64546F"/>
<path d="M34.6495 31.8896L25.1559 30.8567L28.0305 26.8608L29.6886 36.7486C29.8381 37.6592 29.2265 38.5155 28.3227 38.6718C27.5751 38.7941 26.8616 38.3999 26.5422 37.7543L22.1861 28.7228C21.5338 27.3705 22.1046 25.7395 23.4569 25.0871C23.7152 24.9648 23.9802 24.8832 24.252 24.8425L25.0607 24.7269L34.5068 23.4018H34.5136C36.8513 23.0688 39.0123 24.6998 39.3453 27.0443C39.6715 29.382 38.0473 31.543 35.7028 31.876C35.3494 31.9236 34.9825 31.9304 34.6495 31.8896Z" fill="#F9AFB6"/>
<path d="M29.0636 35.6611C29.2402 35.7631 29.4917 35.9126 29.7907 36.1232C30.5246 36.6465 30.7557 36.9591 30.9664 37.2581C31.1023 37.4552 30.3479 38.8619 30.314 38.8619C30.1849 38.8483 30.1916 39.29 29.8655 39.6298C29.3082 40.2143 28.2345 40.0444 27.8064 39.9764C27.3442 39.9017 27.12 39.8677 26.9229 39.7046C26.4608 39.3172 26.3996 38.6377 26.3317 37.5232C26.3045 37.095 26.3113 36.7417 26.3181 36.5038C27.2355 36.2252 28.1529 35.9466 29.0704 35.6611H29.0636Z" fill="#F9AFB6"/>
<path d="M34.4525 23.361L29.0092 24.1561L29.2742 31.3187H31.4013L34.4525 23.361Z" fill="#C0AEBA"/>
<path d="M20.2562 76.0753L19.366 77.9373L21.7173 80.8187L23.2735 78.848L23.8443 77.6927L20.2562 76.0753Z" fill="#F9AFB6"/>
<path d="M19.3659 77.9374C19.0873 78.1345 18.4961 78.6034 18.1903 79.4324C18.0544 79.8062 18.0068 80.146 18 80.3974C19.2164 81.3624 20.9086 82.5109 23.0968 83.4759C23.8919 83.8225 24.653 84.1079 25.3734 84.3389C26.1685 84.5904 26.8072 83.6662 26.2976 83.007C25.9578 82.5721 25.6112 82.1167 25.2714 81.6614C24.5579 80.7032 23.8987 79.7654 23.2871 78.848C23.0288 79.0043 22.4648 79.2965 21.724 79.2761C20.3037 79.2354 19.4747 78.0801 19.3727 77.9374H19.3659Z" fill="#64546F"/>
<path d="M42.2133 43.5918C44.0686 39.7794 44.5579 37.6116 44.7821 36.3951C45.3258 33.4934 46.4675 27.3636 43.0832 24.1153C42.6143 23.6668 40.9222 22.1785 38.4621 22.1173C35.6691 22.0494 33.7595 23.8706 33.3857 24.2172C32.91 24.6521 32.1353 25.4744 31.1295 27.6694C29.6685 30.8498 29.6617 32.6847 29.0297 34.7098C28.2549 37.1834 26.7259 38.0397 25.5027 39.1814C26.7871 40.1464 28.3569 41.1182 30.2325 41.92C34.6633 43.8093 38.9378 43.9452 42.2201 43.585L42.2133 43.5918Z" fill="#C0AEBA"/>
<path d="M29.8315 31.4208C29.8315 31.4208 29.8179 31.4208 29.8043 31.4208C29.7499 31.4072 29.716 31.3528 29.7296 31.2984C30.0558 30.0072 30.4499 28.8724 31.0207 27.6288C31.9993 25.5017 32.7537 24.6522 33.3041 24.1493L33.3313 24.1222C33.4876 23.9795 33.8546 23.6397 34.3846 23.2795C34.4322 23.2455 34.4934 23.2591 34.5273 23.3067C34.5613 23.3542 34.5477 23.4154 34.5002 23.4494C33.9837 23.796 33.6371 24.1154 33.474 24.2717L33.4468 24.2989C32.91 24.7881 32.176 25.624 31.211 27.7171C30.647 28.9471 30.2528 30.0684 29.9334 31.346C29.9198 31.3936 29.8791 31.4208 29.8315 31.4208Z" fill="#AF9CAA"/>
<path d="M40.0386 38.1416C43.773 38.1416 46.8003 35.5128 46.8003 32.2701C46.8003 29.0273 43.773 26.3986 40.0386 26.3986C36.3042 26.3986 33.2769 29.0273 33.2769 32.2701C33.2769 35.5128 36.3042 38.1416 40.0386 38.1416Z" fill="#C0AEBA"/>
<path d="M44.0344 20.8534V20.867L43.7761 21.4651L43.28 22.6271L42.7636 23.8436L35.8727 24.4076C35.2067 24.462 34.6019 24.0202 34.4524 23.3679C35.4989 21.9068 37.5852 18.9846 37.5852 18.9846L44.0344 20.8534Z" fill="#F9AFB6"/>
<path d="M43.688 21.6211V21.6347L43.4365 22.2328C43.4161 22.2735 43.3822 22.3075 43.3618 22.3347C42.6958 23.191 41.0716 23.3133 39.3319 22.5114C40.2086 22.0901 41.058 21.7231 41.7648 21.4784C42.7162 21.1522 43.4161 21.0435 43.6268 21.3289C43.6812 21.4105 43.7016 21.5056 43.6812 21.6211H43.688Z" fill="#E59CA9"/>
<path d="M43.3957 16.5993C43.6947 17.0478 45.2101 19.3448 44.2383 20.9893C43.6607 21.9747 42.4443 22.2941 41.8055 22.464C41.2278 22.6135 40.1881 22.8921 39.1552 22.4436C37.4902 21.7233 37.0893 19.6642 36.9737 19.0865C36.6339 17.3536 36.865 14.4043 38.5979 13.7383C40.392 13.0519 42.5394 15.2945 43.3957 16.5993Z" fill="#F9AFB6"/>
<path d="M43.1376 18.5701C43.2191 18.6584 43.2191 18.7943 43.1308 18.8759C43.0424 18.9574 42.9065 18.9574 42.825 18.8691C42.7434 18.7807 42.7434 18.6448 42.8318 18.5633C42.9201 18.4817 43.056 18.4817 43.1376 18.5701Z" fill="#64546F"/>
<path d="M42.4647 18.3254C42.4647 18.3254 42.4103 18.3118 42.39 18.2982C42.3492 18.2575 42.3492 18.1963 42.39 18.1555C42.5531 17.9992 42.7433 17.8905 42.954 17.8361C43.0695 17.8089 43.1919 17.7954 43.3142 17.8021C43.3685 17.8021 43.4161 17.8497 43.4093 17.9109C43.4093 17.9652 43.3617 18.006 43.3006 18.006C43.1986 18.006 43.0967 18.006 43.0016 18.0332C42.8249 18.074 42.6618 18.1691 42.5327 18.2982C42.5123 18.3186 42.4851 18.3254 42.4647 18.3254Z" fill="#64546F"/>
<path d="M44.3946 19.6777C44.3946 19.6777 44.3267 19.6641 44.3063 19.6302C44.2791 19.5826 44.2927 19.5214 44.3403 19.4874C44.415 19.4399 44.4558 19.3923 44.4626 19.3447C44.4626 19.3108 44.4286 19.27 44.3471 19.1748L44.3131 19.1341C44.1704 18.971 44.0345 18.8011 43.9665 18.6991C43.8646 18.5428 43.7966 18.3526 43.7694 18.1419C43.7626 18.0875 43.8034 18.0332 43.8578 18.0264C43.9121 18.0264 43.9665 18.0603 43.9733 18.1147C43.9937 18.2982 44.0548 18.4545 44.1364 18.5904C44.1975 18.6856 44.3267 18.8486 44.4626 18.9982L44.4966 19.0389C44.5985 19.1545 44.6732 19.236 44.6597 19.3583C44.6597 19.4331 44.6121 19.5486 44.4422 19.6573C44.4286 19.6709 44.4082 19.6709 44.3878 19.6709L44.3946 19.6777Z" fill="#64546F"/>
<path d="M43.9326 20.6088C43.7695 20.6088 43.6132 20.5816 43.4637 20.5204C43.4093 20.5 43.3821 20.4389 43.4025 20.3913C43.4229 20.3369 43.4841 20.3098 43.5316 20.3301C43.7015 20.3981 43.885 20.4185 44.0617 20.3981C44.1704 20.3845 44.2792 20.3573 44.3811 20.3098C44.4287 20.2894 44.4898 20.3098 44.517 20.3573C44.5374 20.4117 44.517 20.4661 44.4694 20.4932C44.3471 20.5476 44.2248 20.5816 44.0889 20.602C44.0345 20.602 43.9802 20.6088 43.9326 20.6088Z" fill="#64546F"/>
<path d="M43.715 15.4984C42.5462 16.1168 41.3773 16.7285 40.2016 17.3469C40.2016 17.3469 40.7249 18.8147 40.6977 18.8215C40.5346 18.8759 40.3036 17.8362 39.4745 17.5371C39.359 17.4964 39.0668 17.3944 38.8357 17.5371C38.5911 17.6867 38.4959 18.0672 38.5503 18.373C38.6658 19.0526 39.4745 19.2089 39.4745 19.8341C39.4745 19.8953 39.4677 20.0584 39.393 20.2418C39.0939 20.5952 38.7542 20.7855 38.1969 20.9826C37.7824 21.1321 37.0009 21.3156 35.8524 21.0301C36.0834 20.8263 36.3689 20.5001 36.464 20.0584C36.6679 19.1545 35.9 18.706 35.7097 17.6323C35.499 16.4498 36.1038 15.1315 37.028 14.3568C37.9591 13.5752 39.026 13.5141 39.3658 13.5073C39.692 13.5073 40.29 13.4937 40.9152 13.8131C41.7579 14.248 41.8938 14.8936 42.8316 15.281C43.1782 15.4237 43.4976 15.478 43.7082 15.4984H43.715Z" fill="#64546F"/>
<path d="M40.3511 18.237C40.6297 18.7399 40.5618 19.3039 40.2016 19.501C39.8414 19.6981 39.325 19.4602 39.0463 18.9574C38.7677 18.4545 38.8357 17.8904 39.1958 17.6934C39.556 17.4963 40.0725 17.7341 40.3511 18.237Z" fill="#F9AFB6"/>
<path d="M41.7308 15.4575C41.8123 15.573 41.955 15.7565 42.1861 15.9128C42.4715 16.1031 42.7433 16.1575 42.8929 16.1779C42.5259 16.3749 42.1521 16.5652 41.7852 16.7623C41.7308 16.6332 41.6628 16.4293 41.6424 16.1779C41.6221 15.8653 41.6832 15.607 41.7376 15.4643L41.7308 15.4575Z" fill="#F9AFB6"/>
<path d="M37.6057 15.0702L36.8038 15.9877L34.8942 15.7158C33.4603 15.512 32.7943 13.8266 33.705 12.6985C34.6156 11.5704 36.4029 11.8559 36.9125 13.215L37.6057 15.077V15.0702Z" fill="#64546F"/>
<path d="M43.6402 27.9548C43.9664 29.3819 44.3674 30.877 44.7819 32.3653C45.1964 33.8535 45.6314 35.3554 46.0663 36.8368L41.4112 35.634L50.1777 30.7683C50.9796 30.3198 51.9989 30.612 52.4475 31.4139C52.8144 32.0798 52.6785 32.8817 52.1756 33.3982L45.1217 40.5201C44.0683 41.5803 42.3558 41.5871 41.2957 40.5405C41.1326 40.3774 40.9967 40.2007 40.8812 40.0172L40.4666 39.3241C39.6443 37.9445 38.8424 36.5854 38.0473 35.1991C37.2522 33.806 36.4639 32.4196 35.696 30.9246L35.6688 30.877C34.5815 28.7771 35.4038 26.1948 37.5105 25.1074C39.6104 24.0201 42.1927 24.8424 43.28 26.9491C43.4431 27.2685 43.5723 27.6219 43.647 27.9616L43.6402 27.9548Z" fill="#F9AFB6"/>
<path d="M49.3554 31.7197C49.3894 31.5226 49.4505 31.2304 49.5525 30.877C49.7971 30.014 50.0214 29.6878 50.2252 29.3956C50.368 29.1985 51.9446 29.4431 51.9514 29.4771C51.9853 29.6062 52.3931 29.4499 52.828 29.6402C53.5619 29.9732 53.7658 31.0401 53.8406 31.4682C53.9221 31.9236 53.9697 32.1546 53.8745 32.3925C53.6639 32.9565 53.0455 33.2419 52.0125 33.6769C51.6184 33.8467 51.2786 33.9623 51.0543 34.0302C50.4835 33.2623 49.9126 32.4876 49.3418 31.7197H49.3554Z" fill="#F9AFB6"/>
<path d="M44.714 32.141L37.9999 35.1447C37.2183 33.772 36.4436 32.3992 35.6825 30.9246L35.6621 30.877C34.5748 28.7703 35.3971 26.1948 37.5038 25.1074C39.6036 24.0269 42.186 24.8492 43.2665 26.9491C43.4296 27.2685 43.5587 27.6286 43.6403 27.9548C43.9529 29.314 44.3267 30.7275 44.714 32.141Z" fill="#C0AEBA"/>
<path d="M37.9997 35.2399C37.9657 35.2399 37.9317 35.2195 37.9113 35.1855C37.1978 33.9215 36.3823 32.4876 35.594 30.9654L35.5736 30.9178C35.0368 29.878 34.9348 28.6888 35.2882 27.5743C35.6416 26.4598 36.4163 25.5492 37.456 25.0123C39.6035 23.9046 42.247 24.7473 43.3615 26.8947C43.5246 27.2073 43.6537 27.5607 43.7421 27.9277C44.0615 29.3344 44.4624 30.8226 44.8158 32.107C44.8294 32.1614 44.7954 32.2158 44.741 32.2294C44.6867 32.243 44.6323 32.2158 44.6187 32.1546C44.2653 30.8634 43.8644 29.3752 43.545 27.9684C43.4634 27.6219 43.3343 27.2821 43.178 26.9831C42.1179 24.9376 39.5967 24.1289 37.5512 25.189C36.559 25.7055 35.8251 26.5685 35.4853 27.6355C35.1455 28.6956 35.2406 29.8305 35.7571 30.8226L35.7775 30.8702C36.5658 32.3925 37.3745 33.8196 38.088 35.0836C38.1152 35.1311 38.1016 35.1923 38.0473 35.2195C38.0337 35.2263 38.0133 35.2331 37.9997 35.2331V35.2399Z" fill="#AF9CAA"/>
<path d="M30.2257 41.9269C28.3432 41.125 26.7734 40.1532 25.4958 39.1882C24.7687 39.8678 24.1571 40.6425 23.8717 41.9133C23.5047 43.5647 23.8173 44.8627 23.9736 45.6985C24.5444 48.7158 20.2563 76.0754 20.2563 76.0754L23.8445 77.6996C23.8445 77.6996 34.5138 56.395 36.6408 53.1602C39.264 49.1643 41.0241 46.0451 42.2133 43.5987C38.931 43.9588 34.6565 43.8229 30.2257 41.9337V41.9269Z" fill="#F766A1"/>
<path d="M40.8745 77.985L40.46 80.0101L43.4365 82.2323L44.4762 79.9489L44.7413 78.6917L40.8745 77.985Z" fill="#F9AFB6"/>
<path d="M40.4598 80.0101C40.2356 80.2684 39.7802 80.8664 39.6851 81.7498C39.6375 82.144 39.6851 82.4838 39.7327 82.7352C41.1462 83.374 43.0694 84.074 45.4207 84.4817C46.277 84.6244 47.0856 84.7196 47.84 84.7671C48.669 84.8215 49.07 83.7682 48.4108 83.2517C47.9759 82.9119 47.5342 82.5585 47.0856 82.1916C46.1614 81.4372 45.2916 80.6897 44.4761 79.949C44.2654 80.1664 43.7897 80.581 43.0694 80.7441C41.6831 81.0499 40.5957 80.1325 40.4666 80.0169L40.4598 80.0101Z" fill="#64546F"/>
<path d="M37.0416 43.5307C37.0416 43.5307 33.6302 56.1231 33.5486 56.3406C33.4875 56.5105 37.5989 60.2685 39.3522 61.8655L40.8676 77.9782L44.7412 78.6781L48.4652 59.1201C48.7439 58.1754 48.5264 57.1561 47.8944 56.4086L37.0416 43.5171V43.5307Z" fill="#F766A1"/>
<path d="M34.4524 57.122C34.4524 57.122 34.4184 57.122 34.3981 57.1084C34.3505 57.0813 34.3369 57.0133 34.3641 56.9657L39.9502 47.9002C39.9773 47.8527 40.0453 47.8391 40.0929 47.8663C40.1404 47.8935 40.154 47.9614 40.1268 48.009L34.5408 57.0745C34.5408 57.0745 34.4864 57.122 34.4524 57.122Z" fill="#E2397E"/>
</svg>
