<svg width="92" height="100" viewBox="0 0 92 100" fill="none" xmlns="http://www.w3.org/2000/svg">
<path d="M46.0026 92.2547C71.4063 92.2547 92 71.6609 92 46.2572C92 20.8535 71.4063 0.259766 46.0026 0.259766C20.5989 0.259766 0.00512695 20.8535 0.00512695 46.2572C0.00512695 71.6609 20.5989 92.2547 46.0026 92.2547Z" fill="#F3F8FF"/>
<path d="M58.7854 66.5408H55.0542L54.0259 58.9725H57.7571L58.7854 66.5408Z" fill="#BFD2EF"/>
<path d="M58.5973 59.1488C58.6913 59.1488 58.7677 59.2252 58.7736 59.3486L59.8019 66.1942C59.8019 66.2882 59.7255 66.3646 59.6315 66.3646H58.4563C58.3623 66.3646 58.2859 66.2882 58.28 66.1648L57.2517 59.3192C57.2517 59.2252 57.3281 59.1488 57.4221 59.1488H58.5973ZM58.5973 58.9725H57.4221C57.2282 58.9725 57.0754 59.1312 57.0754 59.3192L58.1037 66.1942C58.1037 66.3881 58.2624 66.5408 58.4504 66.5408H59.6256C59.8195 66.5408 59.9723 66.3822 59.9723 66.1942L58.944 59.3192C58.944 59.1253 58.7854 58.9725 58.5973 58.9725Z" fill="#BFD2EF"/>
<path d="M43.9955 46.6858H43.5607V82.8703H43.9955V46.6858Z" fill="#BFD2EF"/>
<path d="M41.7979 56.2638H45.535L47.8266 49.1949H44.0954L41.7979 56.2638Z" fill="#BFD2EF"/>
<path d="M44.4302 49.3712C44.5184 49.3712 44.5889 49.4359 44.6006 49.5181L42.3207 55.8525C42.3207 55.8525 42.309 55.8936 42.309 55.9112C42.309 56.0052 42.2326 56.0816 42.1386 56.0816H40.9634C40.8752 56.0816 40.8047 56.017 40.793 55.9347L43.0729 49.6004C43.0729 49.6004 43.0846 49.5593 43.0846 49.5416C43.0846 49.4476 43.161 49.3712 43.255 49.3712H44.4302ZM44.4302 49.1949H43.255C43.0611 49.1949 42.9083 49.3536 42.9083 49.5416L40.6167 55.9112C40.6167 56.1051 40.7753 56.2579 40.9634 56.2579H42.1386C42.3325 56.2579 42.4853 56.0993 42.4853 55.9112L44.7769 49.5416C44.7769 49.3477 44.6183 49.1949 44.4302 49.1949Z" fill="#BFD2EF"/>
<path d="M45.2294 56.2637H48.9665L49.9948 48.6954H46.2577L45.2294 56.2637Z" fill="#BFD2EF"/>
<path d="M46.5927 48.8717C46.6867 48.8717 46.7631 48.9481 46.769 49.0186L45.7407 55.9171C45.7407 56.0111 45.6643 56.0875 45.5702 56.0875H44.395C44.301 56.0875 44.2246 56.0111 44.2188 55.9406L45.2471 49.0421C45.2471 48.9481 45.3234 48.8717 45.4175 48.8717H46.5927ZM46.5927 48.6954H45.4175C45.2236 48.6954 45.0708 48.8541 45.0708 49.0421L44.0425 55.9171C44.0425 56.111 44.2011 56.2637 44.3892 56.2637H45.5644C45.7583 56.2637 45.9111 56.1051 45.9111 55.9171L46.9394 49.0421C46.9394 48.8482 46.7807 48.6954 46.5927 48.6954Z" fill="#BFD2EF"/>
<path d="M47.2686 56.2637H51.0057L51.987 49.0362C52.0105 48.8541 51.8695 48.6954 51.6873 48.6954H48.2969L47.2686 56.2637Z" fill="#BFD2EF"/>
<path d="M48.6317 48.8717C48.7257 48.8717 48.8021 48.9481 48.808 49.0186L47.7797 55.9171C47.7797 56.0111 47.7033 56.0875 47.6093 56.0875H46.4341C46.3401 56.0875 46.2637 56.0111 46.2578 55.9406L47.2861 49.0421C47.2861 48.9481 47.3625 48.8717 47.4565 48.8717H48.6317ZM48.6317 48.6954H47.4565C47.2626 48.6954 47.1098 48.8541 47.1098 49.0421L46.0815 55.9171C46.0815 56.111 46.2402 56.2637 46.4282 56.2637H47.6034C47.7973 56.2637 47.9501 56.1051 47.9501 55.9171L48.9784 49.0421C48.9784 48.8482 48.8198 48.6954 48.6317 48.6954Z" fill="#BFD2EF"/>
<path d="M56.7935 66.5408H53.0622L52.0339 58.9725H55.7652L56.7935 66.5408Z" fill="#BFD2EF"/>
<path d="M56.6054 59.1488C56.6994 59.1488 56.7758 59.2252 56.7817 59.3486L57.81 66.1942C57.81 66.2882 57.7336 66.3646 57.6396 66.3646H56.4644C56.3703 66.3646 56.2939 66.2882 56.2881 66.1648L55.2598 59.3192C55.2598 59.2252 55.3362 59.1488 55.4302 59.1488H56.6054ZM56.6054 58.9725H55.4302C55.2363 58.9725 55.0835 59.1312 55.0835 59.3192L56.1118 66.1942C56.1118 66.3881 56.2704 66.5408 56.4585 66.5408H57.6337C57.8276 66.5408 57.9804 66.3822 57.9804 66.1942L56.9521 59.3192C56.9521 59.1253 56.7934 58.9725 56.6054 58.9725Z" fill="#BFD2EF"/>
<path d="M54.7545 66.5408H51.0173L50.036 59.3133C50.0125 59.1312 50.1535 58.9725 50.3357 58.9725H53.7262L54.7545 66.5408Z" fill="#BFD2EF"/>
<path d="M54.5664 59.1488C54.6605 59.1488 54.7369 59.2252 54.7427 59.3486L55.771 66.1942C55.771 66.2882 55.6946 66.3646 55.6006 66.3646H54.4254C54.3314 66.3646 54.255 66.2882 54.2491 66.1648L53.2208 59.3192C53.2208 59.2252 53.2972 59.1488 53.3912 59.1488H54.5664ZM54.5664 58.9725H53.3912C53.1973 58.9725 53.0446 59.1312 53.0446 59.3192L54.0729 66.1942C54.0729 66.3881 54.2315 66.5408 54.4195 66.5408H55.5947C55.7887 66.5408 55.9414 66.3822 55.9414 66.1942L54.9131 59.3192C54.9131 59.1253 54.7545 58.9725 54.5664 58.9725Z" fill="#BFD2EF"/>
<path d="M52.0281 52.4502H56.9933V54.3717H52.0281C51.793 54.3717 51.605 54.1836 51.605 53.9486V52.8733C51.605 52.6382 51.793 52.4502 52.0281 52.4502Z" fill="#BFD2EF"/>
<path d="M56.2939 52.5325H61.0183V54.2894H56.2939C56.1 54.2894 55.9473 54.1307 55.9473 53.9427V52.8792C55.9473 52.6852 56.1059 52.5325 56.2939 52.5325Z" fill="white"/>
<path d="M61.4882 54.3716H56.3173C56.0647 54.3716 55.8649 54.166 55.8649 53.9192V52.9085C55.8649 52.6558 56.0705 52.4561 56.3173 52.4561H61.4882C61.5352 52.4561 61.5705 52.4913 61.5705 52.5383C61.5705 52.5853 61.5352 52.6206 61.4882 52.6206H56.3173C56.1528 52.6206 56.0235 52.7499 56.0235 52.9144V53.9251C56.0235 54.0896 56.1528 54.2189 56.3173 54.2189H61.4882C61.5352 54.2189 61.5705 54.2541 61.5705 54.3011C61.5705 54.3481 61.5352 54.3834 61.4882 54.3834V54.3716Z" fill="#BFD2EF"/>
<path d="M44.2012 64.6545H46.8454V66.576H44.2012C43.9661 66.576 43.7781 66.388 43.7781 66.1529V65.0776C43.7781 64.8426 43.9661 64.6545 44.2012 64.6545Z" fill="#BFD2EF"/>
<path d="M46.1462 64.7369H52.7626V66.4939H46.1462C45.9523 66.4939 45.7996 66.3352 45.7996 66.1472V65.0836C45.7996 64.8897 45.9582 64.7369 46.1462 64.7369Z" fill="white"/>
<path d="M53.2326 66.5761H46.1696C45.9169 66.5761 45.7172 66.3704 45.7172 66.1236V65.113C45.7172 64.8603 45.9228 64.6605 46.1696 64.6605H53.2326C53.2796 64.6605 53.3148 64.6958 53.3148 64.7428C53.3148 64.7898 53.2796 64.8251 53.2326 64.8251H46.1696C46.0051 64.8251 45.8758 64.9543 45.8758 65.1189V66.1295C45.8758 66.2941 46.0051 66.4233 46.1696 66.4233H53.2326C53.2796 66.4233 53.3148 66.4586 53.3148 66.5056C53.3148 66.5526 53.2796 66.5879 53.2326 66.5879V66.5761Z" fill="#BFD2EF"/>
<path d="M49.942 46.5623H46.4105V44.6408H49.942C50.1771 44.6408 50.3651 44.8288 50.3651 45.0639V46.1392C50.3651 46.3742 50.1771 46.5623 49.942 46.5623Z" fill="#F3F8FF"/>
<path d="M59.6256 66.5408H58.4504C58.2565 66.5408 58.1037 66.3822 58.1037 66.1942L57.0754 59.3192C57.0754 59.1253 57.2341 58.9725 57.4221 58.9725H58.5973C58.7912 58.9725 58.944 59.1312 58.944 59.3192L59.9723 66.1942C59.9723 66.3881 59.8137 66.5408 59.6256 66.5408Z" fill="#F3F8FF"/>
<path d="M40.9634 56.2637H42.1386C42.3325 56.2637 42.4853 56.105 42.4853 55.917L44.7769 49.5474C44.7769 49.3535 44.6183 49.2007 44.4302 49.2007H43.255C43.0611 49.2007 42.9083 49.3593 42.9083 49.5474L40.6167 55.917C40.6167 56.1109 40.7753 56.2637 40.9634 56.2637Z" fill="#F3F8FF"/>
<path d="M44.3892 56.2637H45.5644C45.7583 56.2637 45.9111 56.1051 45.9111 55.9171L46.9394 49.0421C46.9394 48.8482 46.7807 48.6954 46.5927 48.6954H45.4175C45.2236 48.6954 45.0708 48.8541 45.0708 49.0421L44.0425 55.9171C44.0425 56.111 44.2011 56.2637 44.3892 56.2637Z" fill="#F3F8FF"/>
<path d="M46.4282 56.2637H47.6034C47.7973 56.2637 47.9501 56.1051 47.9501 55.9171L48.9784 49.0421C48.9784 48.8482 48.8198 48.6954 48.6317 48.6954H47.4565C47.2626 48.6954 47.1098 48.8541 47.1098 49.0421L46.0815 55.9171C46.0815 56.111 46.2402 56.2637 46.4282 56.2637Z" fill="#F3F8FF"/>
<path d="M57.6337 66.5408H56.4585C56.2646 66.5408 56.1118 66.3822 56.1118 66.1942L55.0835 59.3192C55.0835 59.1253 55.2421 58.9725 55.4302 58.9725H56.6054C56.7993 58.9725 56.9521 59.1312 56.9521 59.3192L57.9804 66.1942C57.9804 66.3881 57.8217 66.5408 57.6337 66.5408Z" fill="#F3F8FF"/>
<path d="M55.5947 66.5408H54.4195C54.2256 66.5408 54.0729 66.3822 54.0729 66.1942L53.0446 59.3192C53.0446 59.1253 53.2032 58.9725 53.3912 58.9725H54.5664C54.7604 58.9725 54.9131 59.1312 54.9131 59.3192L55.9414 66.1942C55.9414 66.3881 55.7828 66.5408 55.5947 66.5408Z" fill="#F3F8FF"/>
<path d="M49.7069 42.7136H46.1755V40.7922H49.7069C49.942 40.7922 50.13 40.9802 50.13 41.2152V42.2905C50.13 42.5256 49.942 42.7136 49.7069 42.7136Z" fill="#F3F8FF"/>
<path d="M51.2523 44.6351H47.7208V42.7137H51.2523C51.4874 42.7137 51.6754 42.9017 51.6754 43.1367V44.2121C51.6754 44.4471 51.4874 44.6351 51.2523 44.6351Z" fill="#F3F8FF"/>
<path d="M49.942 46.5623H46.4105V44.6408H49.942C50.1771 44.6408 50.3651 44.8288 50.3651 45.0639V46.1392C50.3651 46.3742 50.1771 46.5623 49.942 46.5623Z" fill="#F3F8FF"/>
<path d="M58.5973 59.1488C58.6913 59.1488 58.7677 59.2252 58.7736 59.3486L59.8019 66.1942C59.8019 66.2882 59.7255 66.3646 59.6315 66.3646H58.4563C58.3623 66.3646 58.2859 66.2882 58.28 66.1648L57.2517 59.3192C57.2517 59.2252 57.3281 59.1488 57.4221 59.1488H58.5973ZM58.5973 58.9725H57.4221C57.2282 58.9725 57.0754 59.1312 57.0754 59.3192L58.1037 66.1942C58.1037 66.3881 58.2624 66.5408 58.4504 66.5408H59.6256C59.8195 66.5408 59.9723 66.3822 59.9723 66.1942L58.944 59.3192C58.944 59.1253 58.7854 58.9725 58.5973 58.9725Z" fill="#BFD2EF"/>
<path d="M44.4302 49.3712C44.5184 49.3712 44.5889 49.4359 44.6006 49.5181L42.3207 55.8525C42.3207 55.8525 42.309 55.8936 42.309 55.9112C42.309 56.0052 42.2326 56.0816 42.1386 56.0816H40.9634C40.8752 56.0816 40.8047 56.017 40.793 55.9347L43.0729 49.6004C43.0729 49.6004 43.0846 49.5593 43.0846 49.5416C43.0846 49.4476 43.161 49.3712 43.255 49.3712H44.4302ZM44.4302 49.1949H43.255C43.0611 49.1949 42.9083 49.3536 42.9083 49.5416L40.6167 55.9112C40.6167 56.1051 40.7753 56.2579 40.9634 56.2579H42.1386C42.3325 56.2579 42.4853 56.0993 42.4853 55.9112L44.7769 49.5416C44.7769 49.3477 44.6183 49.1949 44.4302 49.1949Z" fill="#BFD2EF"/>
<path d="M46.5927 48.8717C46.6867 48.8717 46.7631 48.9481 46.769 49.0186L45.7407 55.9171C45.7407 56.0111 45.6643 56.0875 45.5702 56.0875H44.395C44.301 56.0875 44.2246 56.0111 44.2188 55.9406L45.2471 49.0421C45.2471 48.9481 45.3234 48.8717 45.4175 48.8717H46.5927ZM46.5927 48.6954H45.4175C45.2236 48.6954 45.0708 48.8541 45.0708 49.0421L44.0425 55.9171C44.0425 56.111 44.2011 56.2637 44.3892 56.2637H45.5644C45.7583 56.2637 45.9111 56.1051 45.9111 55.9171L46.9394 49.0421C46.9394 48.8482 46.7807 48.6954 46.5927 48.6954Z" fill="#BFD2EF"/>
<path d="M48.6317 48.8717C48.7257 48.8717 48.8021 48.9481 48.808 49.0186L47.7797 55.9171C47.7797 56.0111 47.7033 56.0875 47.6093 56.0875H46.4341C46.3401 56.0875 46.2637 56.0111 46.2578 55.9406L47.2861 49.0421C47.2861 48.9481 47.3625 48.8717 47.4565 48.8717H48.6317ZM48.6317 48.6954H47.4565C47.2626 48.6954 47.1098 48.8541 47.1098 49.0421L46.0815 55.9171C46.0815 56.111 46.2402 56.2637 46.4282 56.2637H47.6034C47.7973 56.2637 47.9501 56.1051 47.9501 55.9171L48.9784 49.0421C48.9784 48.8482 48.8198 48.6954 48.6317 48.6954Z" fill="#BFD2EF"/>
<path d="M56.6054 59.1488C56.6994 59.1488 56.7758 59.2252 56.7817 59.3486L57.81 66.1942C57.81 66.2882 57.7336 66.3646 57.6396 66.3646H56.4644C56.3703 66.3646 56.2939 66.2882 56.2881 66.1648L55.2598 59.3192C55.2598 59.2252 55.3362 59.1488 55.4302 59.1488H56.6054ZM56.6054 58.9725H55.4302C55.2363 58.9725 55.0835 59.1312 55.0835 59.3192L56.1118 66.1942C56.1118 66.3881 56.2704 66.5408 56.4585 66.5408H57.6337C57.8276 66.5408 57.9804 66.3822 57.9804 66.1942L56.9521 59.3192C56.9521 59.1253 56.7934 58.9725 56.6054 58.9725Z" fill="#BFD2EF"/>
<path d="M54.5664 59.1488C54.6605 59.1488 54.7369 59.2252 54.7427 59.3486L55.771 66.1942C55.771 66.2882 55.6946 66.3646 55.6006 66.3646H54.4254C54.3314 66.3646 54.255 66.2882 54.2491 66.1648L53.2208 59.3192C53.2208 59.2252 53.2972 59.1488 53.3912 59.1488H54.5664ZM54.5664 58.9725H53.3912C53.1973 58.9725 53.0446 59.1312 53.0446 59.3192L54.0729 66.1942C54.0729 66.3881 54.2315 66.5408 54.4195 66.5408H55.5947C55.7887 66.5408 55.9414 66.3822 55.9414 66.1942L54.9131 59.3192C54.9131 59.1253 54.7545 58.9725 54.5664 58.9725Z" fill="#BFD2EF"/>
<path d="M49.707 40.9685C49.8422 40.9685 49.9538 41.0802 49.9538 41.2153V42.2906C49.9538 42.4258 49.8422 42.5374 49.707 42.5374H46.3518V40.9685H49.707ZM49.707 40.7922H46.1755V42.7137H49.707C49.9421 42.7137 50.1301 42.5257 50.1301 42.2906V41.2153C50.1301 40.9803 49.9421 40.7922 49.707 40.7922Z" fill="#BFD2EF"/>
<path d="M51.2523 42.8899C51.3875 42.8899 51.4991 43.0015 51.4991 43.1367V44.212C51.4991 44.3472 51.3875 44.4588 51.2523 44.4588H47.8971V42.8899H51.2523ZM51.2523 42.7136H47.7208V44.6351H51.2523C51.4874 44.6351 51.6754 44.447 51.6754 44.212V43.1367C51.6754 42.9017 51.4874 42.7136 51.2523 42.7136Z" fill="#BFD2EF"/>
<path d="M58.5973 59.1488C58.6913 59.1488 58.7677 59.2252 58.7736 59.3486L59.8019 66.1942C59.8019 66.2882 59.7255 66.3646 59.6315 66.3646H58.4563C58.3623 66.3646 58.2859 66.2882 58.28 66.1648L57.2517 59.3192C57.2517 59.2252 57.3281 59.1488 57.4221 59.1488H58.5973ZM58.5973 58.9725H57.4221C57.2282 58.9725 57.0754 59.1312 57.0754 59.3192L58.1037 66.1942C58.1037 66.3881 58.2624 66.5408 58.4504 66.5408H59.6256C59.8195 66.5408 59.9723 66.3822 59.9723 66.1942L58.944 59.3192C58.944 59.1253 58.7854 58.9725 58.5973 58.9725Z" fill="#BFD2EF"/>
<path d="M44.4302 49.3712C44.5184 49.3712 44.5889 49.4359 44.6006 49.5181L42.3207 55.8525C42.3207 55.8525 42.309 55.8936 42.309 55.9112C42.309 56.0052 42.2326 56.0816 42.1386 56.0816H40.9634C40.8752 56.0816 40.8047 56.017 40.793 55.9347L43.0729 49.6004C43.0729 49.6004 43.0846 49.5593 43.0846 49.5416C43.0846 49.4476 43.161 49.3712 43.255 49.3712H44.4302ZM44.4302 49.1949H43.255C43.0611 49.1949 42.9083 49.3536 42.9083 49.5416L40.6167 55.9112C40.6167 56.1051 40.7753 56.2579 40.9634 56.2579H42.1386C42.3325 56.2579 42.4853 56.0993 42.4853 55.9112L44.7769 49.5416C44.7769 49.3477 44.6183 49.1949 44.4302 49.1949Z" fill="#BFD2EF"/>
<path d="M46.5927 48.8717C46.6867 48.8717 46.7631 48.9481 46.769 49.0186L45.7407 55.9171C45.7407 56.0111 45.6643 56.0875 45.5702 56.0875H44.395C44.301 56.0875 44.2246 56.0111 44.2188 55.9406L45.2471 49.0421C45.2471 48.9481 45.3234 48.8717 45.4175 48.8717H46.5927ZM46.5927 48.6954H45.4175C45.2236 48.6954 45.0708 48.8541 45.0708 49.0421L44.0425 55.9171C44.0425 56.111 44.2011 56.2637 44.3892 56.2637H45.5644C45.7583 56.2637 45.9111 56.1051 45.9111 55.9171L46.9394 49.0421C46.9394 48.8482 46.7807 48.6954 46.5927 48.6954Z" fill="#BFD2EF"/>
<path d="M48.6317 48.8717C48.7257 48.8717 48.8021 48.9481 48.808 49.0186L47.7797 55.9171C47.7797 56.0111 47.7033 56.0875 47.6093 56.0875H46.4341C46.3401 56.0875 46.2637 56.0111 46.2578 55.9406L47.2861 49.0421C47.2861 48.9481 47.3625 48.8717 47.4565 48.8717H48.6317ZM48.6317 48.6954H47.4565C47.2626 48.6954 47.1098 48.8541 47.1098 49.0421L46.0815 55.9171C46.0815 56.111 46.2402 56.2637 46.4282 56.2637H47.6034C47.7973 56.2637 47.9501 56.1051 47.9501 55.9171L48.9784 49.0421C48.9784 48.8482 48.8198 48.6954 48.6317 48.6954Z" fill="#BFD2EF"/>
<path d="M56.6054 59.1488C56.6994 59.1488 56.7758 59.2252 56.7817 59.3486L57.81 66.1942C57.81 66.2882 57.7336 66.3646 57.6396 66.3646H56.4644C56.3703 66.3646 56.2939 66.2882 56.2881 66.1648L55.2598 59.3192C55.2598 59.2252 55.3362 59.1488 55.4302 59.1488H56.6054ZM56.6054 58.9725H55.4302C55.2363 58.9725 55.0835 59.1312 55.0835 59.3192L56.1118 66.1942C56.1118 66.3881 56.2704 66.5408 56.4585 66.5408H57.6337C57.8276 66.5408 57.9804 66.3822 57.9804 66.1942L56.9521 59.3192C56.9521 59.1253 56.7934 58.9725 56.6054 58.9725Z" fill="#BFD2EF"/>
<path d="M54.5664 59.1488C54.6605 59.1488 54.7369 59.2252 54.7427 59.3486L55.771 66.1942C55.771 66.2882 55.6946 66.3646 55.6006 66.3646H54.4254C54.3314 66.3646 54.255 66.2882 54.2491 66.1648L53.2208 59.3192C53.2208 59.2252 53.2972 59.1488 53.3912 59.1488H54.5664ZM54.5664 58.9725H53.3912C53.1973 58.9725 53.0446 59.1312 53.0446 59.3192L54.0729 66.1942C54.0729 66.3881 54.2315 66.5408 54.4195 66.5408H55.5947C55.7887 66.5408 55.9414 66.3822 55.9414 66.1942L54.9131 59.3192C54.9131 59.1253 54.7545 58.9725 54.5664 58.9725Z" fill="#BFD2EF"/>
<path d="M49.707 40.9685C49.8422 40.9685 49.9538 41.0802 49.9538 41.2153V42.2906C49.9538 42.4258 49.8422 42.5374 49.707 42.5374H46.3518V40.9685H49.707ZM49.707 40.7922H46.1755V42.7137H49.707C49.9421 42.7137 50.1301 42.5257 50.1301 42.2906V41.2153C50.1301 40.9803 49.9421 40.7922 49.707 40.7922Z" fill="#BFD2EF"/>
<path d="M51.2523 42.8899C51.3875 42.8899 51.4991 43.0015 51.4991 43.1367V44.212C51.4991 44.3472 51.3875 44.4588 51.2523 44.4588H47.8971V42.8899H51.2523ZM51.2523 42.7136H47.7208V44.6351H51.2523C51.4874 44.6351 51.6754 44.447 51.6754 44.212V43.1367C51.6754 42.9017 51.4874 42.7136 51.2523 42.7136Z" fill="#BFD2EF"/>
<path d="M49.942 44.8114C50.0772 44.8114 50.1888 44.9231 50.1888 45.0582V46.1335C50.1888 46.2687 50.0772 46.3803 49.942 46.3803H46.5868V44.8114H49.942ZM49.942 44.6351H46.4105V46.5566H49.942C50.1771 46.5566 50.3651 46.3686 50.3651 46.1335V45.0582C50.3651 44.8232 50.1771 44.6351 49.942 44.6351Z" fill="#BFD2EF"/>
<path d="M62.9515 82.8704H62.5167V46.9856H40.1115V82.8704H39.6766V46.7682C39.6766 46.6507 39.7765 46.5508 39.894 46.5508H62.7341C62.8516 46.5508 62.9515 46.6507 62.9515 46.7682V82.8704Z" fill="#BFD2EF"/>
<path d="M59.2672 46.6858H58.8324V82.8703H59.2672V46.6858Z" fill="#BFD2EF"/>
<path d="M62.734 56.2577H39.8939V56.6925H62.734V56.2577Z" fill="#BFD2EF"/>
<path d="M62.734 66.5409H39.8939V66.9757H62.734V66.5409Z" fill="#BFD2EF"/>
<path d="M55.7241 50.7344V52.3033H50.9352C50.8 52.3033 50.6884 52.1916 50.6884 52.0565V50.9812C50.6884 50.846 50.8 50.7344 50.9352 50.7344H55.7241ZM55.9004 50.5581H50.9352C50.7001 50.5581 50.5121 50.7461 50.5121 50.9812V52.0565C50.5121 52.2915 50.7001 52.4796 50.9352 52.4796H55.9004V50.5581Z" fill="#BFD2EF"/>
<path d="M50.9352 50.5581H55.9004V52.4796H50.9352C50.7001 52.4796 50.5121 52.2915 50.5121 52.0565V50.9812C50.5121 50.7461 50.7001 50.5581 50.9352 50.5581Z" fill="#F3F8FF"/>
<path d="M55.7241 50.7344V52.3033H50.9352C50.8 52.3033 50.6884 52.1916 50.6884 52.0565V50.9812C50.6884 50.846 50.8 50.7344 50.9352 50.7344H55.7241ZM55.9004 50.5581H50.9352C50.7001 50.5581 50.5121 50.7461 50.5121 50.9812V52.0565C50.5121 52.2915 50.7001 52.4796 50.9352 52.4796H55.9004V50.5581Z" fill="#BFD2EF"/>
<path d="M55.7241 50.7344V52.3033H50.9352C50.8 52.3033 50.6884 52.1916 50.6884 52.0565V50.9812C50.6884 50.846 50.8 50.7344 50.9352 50.7344H55.7241ZM55.9004 50.5581H50.9352C50.7001 50.5581 50.5121 50.7461 50.5121 50.9812V52.0565C50.5121 52.2915 50.7001 52.4796 50.9352 52.4796H55.9004V50.5581Z" fill="#BFD2EF"/>
<path d="M55.2011 50.6403H59.9254V52.3972H55.2011C55.0072 52.3972 54.8544 52.2385 54.8544 52.0505V50.9869C54.8544 50.793 55.013 50.6403 55.2011 50.6403Z" fill="white"/>
<path d="M60.4013 52.4795H55.2304C54.9777 52.4795 54.778 52.2739 54.778 52.0271V51.0164C54.778 50.7637 54.9836 50.564 55.2304 50.564H60.4013C60.4483 50.564 60.4836 50.5992 60.4836 50.6462C60.4836 50.6932 60.4483 50.7285 60.4013 50.7285H55.2304C55.0659 50.7285 54.9366 50.8578 54.9366 51.0223V52.033C54.9366 52.1975 55.0659 52.3268 55.2304 52.3268H60.4013C60.4483 52.3268 60.4836 52.362 60.4836 52.409C60.4836 52.456 60.4483 52.4913 60.4013 52.4913V52.4795Z" fill="#BFD2EF"/>
<path d="M47.4153 62.9329V64.5018H42.6263C42.4912 64.5018 42.3795 64.3901 42.3795 64.255V63.1797C42.3795 63.0445 42.4912 62.9329 42.6263 62.9329H47.4153ZM47.5916 62.7566H42.6263C42.3913 62.7566 42.2032 62.9446 42.2032 63.1797V64.255C42.2032 64.49 42.3913 64.678 42.6263 64.678H47.5916V62.7566Z" fill="#BFD2EF"/>
<path d="M42.6263 62.7566H47.5916V64.678H42.6263C42.3913 64.678 42.2032 64.49 42.2032 64.255V63.1797C42.2032 62.9446 42.3913 62.7566 42.6263 62.7566Z" fill="#F3F8FF"/>
<path d="M47.4153 62.9329V64.5018H42.6263C42.4912 64.5018 42.3795 64.3901 42.3795 64.255V63.1797C42.3795 63.0445 42.4912 62.9329 42.6263 62.9329H47.4153ZM47.5916 62.7566H42.6263C42.3913 62.7566 42.2032 62.9446 42.2032 63.1797V64.255C42.2032 64.49 42.3913 64.678 42.6263 64.678H47.5916V62.7566Z" fill="#BFD2EF"/>
<path d="M47.4153 62.9329V64.5018H42.6263C42.4912 64.5018 42.3795 64.3901 42.3795 64.255V63.1797C42.3795 63.0445 42.4912 62.9329 42.6263 62.9329H47.4153ZM47.5916 62.7566H42.6263C42.3913 62.7566 42.2032 62.9446 42.2032 63.1797V64.255C42.2032 64.49 42.3913 64.678 42.6263 64.678H47.5916V62.7566Z" fill="#BFD2EF"/>
<path d="M46.8923 62.839H51.6167V64.5959H46.8923C46.6984 64.5959 46.5457 64.4373 46.5457 64.2492V63.1857C46.5457 62.9918 46.7043 62.839 46.8923 62.839Z" fill="white"/>
<path d="M52.0926 64.6782H46.9217C46.669 64.6782 46.4692 64.4725 46.4692 64.2257V63.215C46.4692 62.9624 46.6749 62.7626 46.9217 62.7626H52.0926C52.1396 62.7626 52.1748 62.7978 52.1748 62.8448C52.1748 62.8918 52.1396 62.9271 52.0926 62.9271H46.9217C46.7572 62.9271 46.6279 63.0564 46.6279 63.2209V64.2316C46.6279 64.3961 46.7572 64.5254 46.9217 64.5254H52.0926C52.1396 64.5254 52.1748 64.5606 52.1748 64.6076C52.1748 64.6547 52.1396 64.6899 52.0926 64.6899V64.6782Z" fill="#BFD2EF"/>
<path d="M60.0546 54.5479C60.1897 54.5479 60.3014 54.6595 60.3014 54.7947V55.87C60.3014 56.0051 60.1897 56.1168 60.0546 56.1168H55.2656V54.5479H60.0546ZM60.0546 54.3716H55.0894V56.293H60.0546C60.2896 56.293 60.4777 56.105 60.4777 55.87V54.7947C60.4777 54.5596 60.2896 54.3716 60.0546 54.3716Z" fill="#BFD2EF"/>
<path d="M60.0547 56.2931H55.0895V54.3716H60.0547C60.2897 54.3716 60.4778 54.5597 60.4778 54.7947V55.87C60.4778 56.1051 60.2897 56.2931 60.0547 56.2931Z" fill="#F3F8FF"/>
<path d="M60.0546 54.5479C60.1897 54.5479 60.3014 54.6595 60.3014 54.7947V55.87C60.3014 56.0051 60.1897 56.1168 60.0546 56.1168H55.2656V54.5479H60.0546ZM60.0546 54.3716H55.0894V56.293H60.0546C60.2896 56.293 60.4777 56.105 60.4777 55.87V54.7947C60.4777 54.5596 60.2896 54.3716 60.0546 54.3716Z" fill="#BFD2EF"/>
<path d="M60.0546 54.5479C60.1897 54.5479 60.3014 54.6595 60.3014 54.7947V55.87C60.3014 56.0051 60.1897 56.1168 60.0546 56.1168H55.2656V54.5479H60.0546ZM60.0546 54.3716H55.0894V56.293H60.0546C60.2896 56.293 60.4777 56.105 60.4777 55.87V54.7947C60.4777 54.5596 60.2896 54.3716 60.0546 54.3716Z" fill="#BFD2EF"/>
<path d="M55.7944 56.2108H51.0701V54.4539H55.7944C55.9883 54.4539 56.1411 54.6125 56.1411 54.8006V55.8641C56.1411 56.058 55.9825 56.2108 55.7944 56.2108Z" fill="white"/>
<path d="M50.5943 54.3715H55.7652C56.0179 54.3715 56.2177 54.5772 56.2177 54.8239V55.8346C56.2177 56.0873 56.012 56.2871 55.7652 56.2871H50.5943C50.5473 56.2871 50.5121 56.2518 50.5121 56.2048C50.5121 56.1578 50.5473 56.1225 50.5943 56.1225H55.7652C55.9298 56.1225 56.059 55.9933 56.059 55.8287V54.8181C56.059 54.6535 55.9298 54.5243 55.7652 54.5243H50.5943C50.5473 54.5243 50.5121 54.489 50.5121 54.442C50.5121 54.395 50.5473 54.3597 50.5943 54.3597V54.3715Z" fill="#BFD2EF"/>
<path d="M49.707 40.9685C49.8422 40.9685 49.9538 41.0802 49.9538 41.2153V42.2906C49.9538 42.4258 49.8422 42.5374 49.707 42.5374H46.3518V40.9685H49.707ZM49.707 40.7922H46.1755V42.7137H49.707C49.9421 42.7137 50.1301 42.5257 50.1301 42.2906V41.2153C50.1301 40.9803 49.9421 40.7922 49.707 40.7922Z" fill="#BFD2EF"/>
<path d="M46.8806 42.6315H40.1408V40.8745H46.8806C47.0745 40.8745 47.2273 41.0332 47.2273 41.2212V42.2848C47.2273 42.4787 47.0686 42.6315 46.8806 42.6315Z" fill="white"/>
<path d="M46.8511 42.7136H39.6648C39.6178 42.7136 39.5825 42.6783 39.5825 42.6313C39.5825 42.5843 39.6178 42.5491 39.6648 42.5491H46.8511C47.0157 42.5491 47.1449 42.4198 47.1449 42.2553V41.2446C47.1449 41.0801 47.0157 40.9508 46.8511 40.9508H39.6648C39.6178 40.9508 39.5825 40.9155 39.5825 40.8685C39.5825 40.8215 39.6178 40.7863 39.6648 40.7863H46.8511C47.1038 40.7863 47.3036 40.9919 47.3036 41.2387V42.2494C47.3036 42.5021 47.0979 42.7018 46.8511 42.7018V42.7136Z" fill="#BFD2EF"/>
<path d="M51.2523 42.8899C51.3875 42.8899 51.4991 43.0015 51.4991 43.1367V44.212C51.4991 44.3472 51.3875 44.4588 51.2523 44.4588H47.8971V42.8899H51.2523ZM51.2523 42.7136H47.7208V44.6351H51.2523C51.4874 44.6351 51.6754 44.447 51.6754 44.212V43.1367C51.6754 42.9017 51.4874 42.7136 51.2523 42.7136Z" fill="#BFD2EF"/>
<path d="M48.4202 44.5529H41.6804V42.7959H48.4202C48.6141 42.7959 48.7668 42.9546 48.7668 43.1426V44.2062C48.7668 44.4001 48.6082 44.5529 48.4202 44.5529Z" fill="white"/>
<path d="M48.3967 44.6351H41.2103C41.1633 44.6351 41.1281 44.5998 41.1281 44.5528C41.1281 44.5058 41.1633 44.4706 41.2103 44.4706H48.3967C48.5612 44.4706 48.6905 44.3413 48.6905 44.1768V43.1661C48.6905 43.0016 48.5612 42.8723 48.3967 42.8723H41.2103C41.1633 42.8723 41.1281 42.837 41.1281 42.79C41.1281 42.743 41.1633 42.7078 41.2103 42.7078H48.3967C48.6494 42.7078 48.8491 42.9134 48.8491 43.1602V44.1709C48.8491 44.4236 48.6435 44.6233 48.3967 44.6233V44.6351Z" fill="#BFD2EF"/>
<path d="M47.1099 46.4742H40.3701V44.7173H47.1099C47.3038 44.7173 47.4565 44.876 47.4565 45.064V46.1276C47.4565 46.3215 47.2979 46.4742 47.1099 46.4742Z" fill="white"/>
<path d="M47.0863 46.5565H39.8999C39.8529 46.5565 39.8176 46.5212 39.8176 46.4742C39.8176 46.4272 39.8529 46.392 39.8999 46.392H47.0863C47.2449 46.392 47.3801 46.2627 47.3801 46.0982V45.0875C47.3801 44.923 47.2508 44.7937 47.0863 44.7937H39.8999C39.8529 44.7937 39.8176 44.7584 39.8176 44.7114C39.8176 44.6644 39.8529 44.6292 39.8999 44.6292H47.0863C47.3389 44.6292 47.5387 44.8348 47.5387 45.0816V46.0923C47.5387 46.3449 47.3331 46.5447 47.0863 46.5447V46.5565Z" fill="#BFD2EF"/>
<path d="M84.0351 58.3015L83.144 58.2645C83.5301 48.5177 83.8049 38.6376 83.9608 28.8983C83.9757 28.1577 83.998 27.3874 84.0277 26.6023C84.1985 22.0326 84.3916 16.8482 81.3469 11.6415C80.3667 9.96766 78.332 6.48667 74.0621 4.56102C69.4283 2.46502 62.292 2.36874 57.5765 7.07918C52.7051 11.9452 53.9972 18.722 54.1606 19.4774L53.2918 19.6626C53.121 18.8553 51.7397 11.6489 56.9453 6.44964C61.9652 1.43554 69.5323 1.53923 74.4334 3.75373C78.9632 5.79788 81.1761 9.58253 82.1192 11.1971C85.2901 16.626 85.0896 21.9437 84.9188 26.6394C84.8891 27.417 84.8594 28.1725 84.852 28.9131C84.696 38.6599 84.4213 48.5473 84.0351 58.3015Z" fill="white"/>
<path d="M47 23.815C47 23.9719 47.0078 24.1446 47.0235 24.3015H59.9765C59.9843 24.1446 60 23.9719 60 23.815C60 20.2208 57.0946 17.3015 53.5 17.3015C49.9054 17.3015 47 20.2208 47 23.815Z" fill="white"/>
<path d="M62.5814 67.3595L60.4778 77.7483C60.4249 78.0069 60.5953 78.2654 60.8538 78.3183C61.1006 78.3653 61.3415 78.2184 61.4121 77.9834L64.45 67.8237C64.6027 67.3125 64.3148 66.7778 63.8036 66.625C63.2924 66.4723 62.7577 66.7602 62.6049 67.2714C62.599 67.3008 62.5873 67.3302 62.5814 67.3537V67.3595Z" fill="#BFD2EF"/>
<path d="M69.8853 64.7095L67.7817 75.0983C67.7288 75.3569 67.8993 75.6154 68.1578 75.6683C68.4046 75.7153 68.6455 75.5684 68.716 75.3334L71.7539 65.1737C71.9067 64.6625 71.6188 64.1278 71.1076 63.975C70.5963 63.8222 70.0616 64.1102 69.9089 64.6214C69.903 64.6508 69.8912 64.6801 69.8853 64.7036V64.7095Z" fill="#BFD2EF"/>
<path d="M79.3576 67.8238L82.3955 77.9835C82.4719 78.2362 82.7421 78.383 82.9948 78.3067C83.2357 78.2361 83.3768 77.9894 83.3298 77.7484L81.2261 67.3596C81.1204 66.8367 80.6092 66.5017 80.0921 66.6075C79.5691 66.7133 79.2342 67.2245 79.3399 67.7416C79.3399 67.771 79.3517 67.8003 79.3634 67.8238H79.3576Z" fill="#BFD2EF"/>
<path d="M82.1016 65.1736L85.1395 75.3332C85.2159 75.5859 85.4862 75.7328 85.7388 75.6564C85.9798 75.5859 86.1208 75.3391 86.0738 75.0982L83.9701 64.7094C83.8644 64.1864 83.3532 63.8515 82.8361 63.9572C82.3131 64.063 81.9782 64.5742 82.084 65.0913C82.084 65.1207 82.0957 65.1501 82.1074 65.1736H82.1016Z" fill="#BFD2EF"/>
<path d="M85.8681 39.6246C85.9504 39.6011 87.39 39.2309 88.4947 40.2534C89.4877 41.1818 89.3585 42.4627 89.3467 42.5979L87.9717 61.2836H84.5107C84.9632 54.062 85.4215 46.8404 85.874 39.6187L85.8681 39.6246Z" fill="#BFD2EF"/>
<path d="M69.1332 58.3986C69.1332 58.3986 69.2273 61.2661 69.2273 61.2896C68.9276 64.7212 66.5125 67.4946 63.3101 68.3349C63.2631 68.3467 63.2161 68.3584 63.1632 68.3702C62.2113 67.9588 61.5708 67.0363 61.4827 66.0197L61.5473 65.1207L61.8528 61.0486C61.9704 59.5561 63.2161 58.3986 64.7145 58.3986H69.1274H69.1332Z" fill="#F3F8FF"/>
<path d="M69.1332 58.3986L69.1097 61.2896C68.8453 64.7564 66.536 67.4946 63.3101 68.3349L63.8683 61.0486C63.9858 59.5561 65.2315 58.3986 66.7299 58.3986H69.1332Z" fill="#BFD2EF"/>
<path d="M85.1337 61.2896H69.1274V42.598C69.1274 40.6648 70.4789 39.237 71.8833 39.7129C73.8576 40.3828 76.3373 40.9057 79.1931 40.8176C81.5141 40.7471 83.5531 40.2829 85.2512 39.7129C86.4147 39.3192 87.5487 40.2476 87.8896 41.6814C88.0012 42.1397 87.9895 42.6215 87.9189 43.0916L85.1337 61.2838V61.2896Z" fill="#F3F8FF"/>
<path d="M85.1336 61.3777H69.1332C69.0862 61.3777 69.045 61.3365 69.045 61.2895V42.5979C69.045 41.4697 69.5092 40.4355 70.2555 39.8949C70.7608 39.5306 71.3543 39.4366 71.9125 39.6246C74.2923 40.4297 76.7426 40.7998 79.187 40.7293C81.2143 40.6647 83.2415 40.2945 85.2158 39.6246C85.6977 39.4601 86.1971 39.5071 86.6555 39.7598C87.2842 40.1065 87.766 40.7998 87.9717 41.6577C88.0716 42.0867 88.0833 42.5744 88.0011 43.1032L85.2158 61.2954C85.21 61.3365 85.1747 61.3718 85.1277 61.3718L85.1336 61.3777ZM69.2213 61.2014H85.0631L87.8365 43.0797C87.9129 42.5744 87.9071 42.1102 87.8072 41.7048C87.6133 40.8939 87.1667 40.2416 86.5791 39.9184C86.1678 39.6893 85.7153 39.6481 85.2805 39.795C83.2885 40.4708 81.2437 40.841 79.1988 40.9056C76.7309 40.982 74.2629 40.6059 71.8596 39.795C71.3543 39.6246 70.8196 39.7128 70.3613 40.0418C69.662 40.5472 69.2213 41.5226 69.2213 42.5979V61.2014Z" fill="#BFD2EF"/>
<path d="M80.5327 61.2897L79.9922 68.5936H64.2797C63.8742 68.5936 63.4982 68.5113 63.1632 68.3644C62.2113 67.9531 61.5708 67.0306 61.4827 66.014C61.4474 65.7202 61.4709 65.4147 61.5473 65.115C61.612 64.8329 61.7295 64.5509 61.8999 64.2806L63.7802 61.2838H80.5269L80.5327 61.2897Z" fill="#F3F8FF"/>
<path d="M80.5327 61.2897H63.7919L62.7401 64.263C62.1525 65.92 63.5922 67.5888 65.5959 67.5888H78.3233C79.5455 67.5888 80.5327 66.7368 80.5327 65.6791V61.2838V61.2897Z" fill="#BFD2EF"/>
<path d="M88.1716 58.3986L87.9542 61.2132C87.6898 64.68 85.2395 67.4946 82.0135 68.3349C81.3613 68.5053 80.6914 68.5934 79.9922 68.5934L80.568 61.0486C80.6855 59.5561 81.9313 58.3986 83.4296 58.3986H88.1775H88.1716Z" fill="#F3F8FF"/>
<path d="M88.1714 58.3986L87.954 61.2132C87.6895 64.68 85.2392 67.4946 82.0133 68.3349L82.5715 61.0486C82.6891 59.5561 83.9348 58.3986 85.4332 58.3986H88.1714Z" fill="#BFD2EF"/>
<path d="M44.7772 58.9568L46.8808 69.3456C46.9337 69.6042 46.7633 69.8627 46.5047 69.9156C46.2579 69.9626 46.017 69.8157 45.9465 69.5807L42.9086 59.421C42.7558 58.9098 43.0438 58.3751 43.555 58.2223C44.0662 58.0696 44.6009 58.3575 44.7537 58.8687C44.7596 58.8981 44.7713 58.9275 44.7772 58.951V58.9568Z" fill="#BFD2EF"/>
<path d="M37.4733 56.3067L39.577 66.6955C39.6298 66.954 39.4594 67.2126 39.2009 67.2655C38.9541 67.3125 38.7132 67.1656 38.6427 66.9305L35.6048 56.7709C35.452 56.2597 35.7399 55.725 36.2511 55.5722C36.7624 55.4194 37.2971 55.7073 37.4498 56.2185C37.4557 56.2479 37.4675 56.2773 37.4733 56.3008V56.3067Z" fill="#BFD2EF"/>
<path d="M28.0011 59.421L24.9632 69.5806C24.8868 69.8333 24.6165 69.9802 24.3638 69.9038C24.1229 69.8333 23.9819 69.5865 24.0289 69.3456L26.1325 58.9568C26.2383 58.4338 26.7495 58.0989 27.2666 58.2047C27.7895 58.3104 28.1245 58.8217 28.0187 59.3388C28.0187 59.3681 28.007 59.3975 27.9952 59.421H28.0011Z" fill="#BFD2EF"/>
<path d="M25.2511 56.771L22.2132 66.9306C22.1368 67.1833 21.8665 67.3302 21.6138 67.2538C21.3729 67.1833 21.2319 66.9365 21.2789 66.6956L23.3825 56.3068C23.4883 55.7838 23.9995 55.4489 24.5166 55.5547C25.0395 55.6604 25.3745 56.1716 25.2687 56.6887C25.2687 56.7181 25.257 56.7475 25.2452 56.771H25.2511Z" fill="#BFD2EF"/>
<path d="M21.4904 31.222C21.4081 31.1985 19.9685 30.8283 18.8638 31.8508C17.8708 32.7792 18 34.0602 18.0118 34.1953L19.3868 52.881H22.8478C22.3953 45.6594 21.937 38.4378 21.4845 31.2162L21.4904 31.222Z" fill="#BFD2EF"/>
<path d="M38.2196 49.9958C38.2196 49.9958 38.1256 52.8633 38.1256 52.8868C38.4253 56.3184 40.8403 59.0919 44.0427 59.9322C44.0898 59.9439 44.1368 59.9557 44.1896 59.9675C45.1416 59.5561 45.7821 58.6336 45.8702 57.617L45.8056 56.718L45.5 52.6459C45.3825 51.1534 44.1368 49.9958 42.6384 49.9958H38.2255H38.2196Z" fill="#F3F8FF"/>
<path d="M22.219 52.8869H38.2253V34.1953C38.2253 32.2621 36.8738 30.8342 35.4694 31.3102C33.4951 31.9801 31.0154 32.503 28.1597 32.4149C25.8386 32.3444 23.7997 31.8802 22.1015 31.3102C20.938 30.9165 19.804 31.8449 19.4632 33.2787C19.3515 33.737 19.3633 34.2188 19.4338 34.6889L22.219 52.8811V52.8869Z" fill="#F3F8FF"/>
<path d="M38.2196 52.9749H22.2134C22.1722 52.9749 22.1311 52.9456 22.1252 52.8985L19.34 34.7064C19.2577 34.1776 19.2695 33.6898 19.3753 33.2609C19.5809 32.403 20.0627 31.7096 20.6915 31.3629C21.1498 31.1103 21.6493 31.0633 22.1311 31.2278C24.1054 31.8977 26.1327 32.2679 28.1599 32.3325C30.6102 32.4089 33.0546 32.0387 35.4344 31.2337C35.9985 31.0456 36.5861 31.1397 37.0914 31.504C37.8377 32.0387 38.3019 33.0729 38.3019 34.2011V52.8927C38.3019 52.9397 38.2608 52.9808 38.2138 52.9808L38.2196 52.9749ZM22.2956 52.7986H38.1374V34.1952C38.1374 33.1199 37.7025 32.1445 36.9974 31.6391C36.5391 31.3101 36.0044 31.2219 35.499 31.3923C33.0958 32.2032 30.6219 32.5793 28.1599 32.5029C26.115 32.4383 24.0702 32.0681 22.0782 31.3923C21.6434 31.2454 21.1968 31.2866 20.7796 31.5157C20.192 31.8389 19.7454 32.4911 19.5515 33.302C19.4516 33.7075 19.4458 34.1717 19.5222 34.677L22.2956 52.7986Z" fill="#BFD2EF"/>
<path d="M26.8259 52.8869L27.3665 60.1907H43.079C43.4844 60.1907 43.8605 60.1085 44.1954 59.9616C45.1473 59.5503 45.7878 58.6277 45.876 57.6112C45.9112 57.3174 45.8877 57.0118 45.8113 56.7121C45.7467 56.4301 45.6292 56.1481 45.4588 55.8778L43.5785 52.881H26.8318L26.8259 52.8869Z" fill="#F3F8FF"/>
<path d="M26.8259 52.8868V57.2821C26.8259 58.3339 27.819 59.1918 29.0353 59.1918H41.7628C42.0801 59.1918 42.3797 59.1507 42.6559 59.0743C43.8723 58.7511 44.7184 57.7698 44.7537 56.6769L44.7008 56.1774C44.6949 56.0775 44.6596 55.9717 44.6244 55.8601L43.5726 52.8868H26.8318H26.8259Z" fill="#BFD2EF"/>
<path d="M19.1812 49.9958L19.3986 52.8105C19.663 56.2773 22.1133 59.0919 25.3392 59.9322C25.9915 60.1026 26.6613 60.1907 27.3606 60.1907L26.7847 52.6459C26.6672 51.1534 25.4215 49.9958 23.9231 49.9958H19.1753H19.1812Z" fill="#F3F8FF"/>
<path d="M19.1813 49.9958L19.3987 52.8105C19.6631 56.2773 22.1134 59.0919 25.3393 59.9322L24.7811 52.6459C24.6636 51.1534 23.4179 49.9958 21.9195 49.9958H19.1813Z" fill="#BFD2EF"/>
<path d="M38.2195 49.99L38.243 52.8869C38.4898 55.5663 40.1527 57.811 42.6441 59.0684C43.8605 58.7453 44.7066 57.764 44.7419 56.671L44.689 56.1716L44.3717 52.646C44.2365 51.1476 42.7793 49.99 41.0224 49.99H38.2136H38.2195Z" fill="#BFD2EF"/>
<path d="M16.0477 99.7402H40.8967L34.0869 94.6469H11.7324L16.0477 99.7402Z" fill="#64546F"/>
<path d="M16.2803 98.874H41.1292L34.3194 93.7806H11.965L16.2803 98.874Z" fill="#AF9CAA"/>
<path d="M21.6384 98.425H32.7234L31.2555 97.1978H20.4192L21.6384 98.425Z" fill="white"/>
<path d="M20.4913 89.6341L20.1705 91.8799L15.2055 92.5216L14.9969 89.0646L20.4913 89.6341Z" fill="#F9AFB6"/>
<path d="M30.3893 89.3131L29.3787 93.083L24.887 93.5963V90.051L30.3893 89.3131Z" fill="#F9AFB6"/>
<path d="M24.903 92.7142C25.1838 92.4335 27.0526 92.6661 27.59 92.1047C27.8307 91.455 27.7344 90.9256 28.1916 90.5005C28.5044 90.2037 29.2825 90.1876 29.6033 90.2117C30.3092 90.2759 30.4616 90.693 30.5257 91.0298C30.9027 93.1394 34.6645 94.3505 34.849 95.4895C34.9132 95.8745 34.7849 96.2675 34.456 96.4921C34.1111 96.7328 33.6298 96.7809 33.0604 96.7648C32.6513 96.7488 33.1566 96.8049 27.5178 96.6606C26.4831 96.6365 26.026 96.5884 24.3175 96.5082C24.1892 96.1793 24.0688 95.6981 24.2533 95.1687C24.4218 94.6794 24.7987 92.8105 24.887 92.7223L24.903 92.7142Z" fill="#64546F"/>
<path d="M13.6012 48.318C13.2002 49.473 12.8072 50.628 12.4061 51.783C10.3447 57.7506 9.91961 64.1754 11.227 70.3596C12.5826 76.7684 14.1467 83.1691 15.037 89.5779L20.4913 89.642L22.5446 61.0473L24.8948 90.0591L30.3972 89.3212C31.6163 84.7572 32.7072 79.4233 33.3328 73.4156C34.2713 64.392 33.8783 56.4673 33.1002 50.1548C29.0897 48.9917 25.0792 47.8287 21.0688 46.6656L13.6093 48.318H13.6012Z" fill="#64546F"/>
<path d="M20.2107 91.2221C20.724 91.6151 20.0663 92.4172 20.0182 93.7006C19.97 95.2005 20.8123 95.6577 20.347 96.2673C19.946 96.7967 19.0156 96.8448 17.652 96.917C16.497 96.9812 15.2056 97.0534 14.6842 96.4197C14.4195 96.0989 14.4596 95.7219 14.5238 95.1845C14.6201 94.2861 14.981 94.23 15.1494 93.4038C15.366 92.313 14.8928 91.5991 15.4222 91.2622C15.6066 91.1499 15.6628 91.2301 15.9355 91.0857C16.505 90.781 16.4007 90.3558 16.8579 90.0912C17.2028 89.8906 17.7081 89.8906 18.053 90.0029C18.6305 90.1874 18.5664 90.6205 19.2482 90.9494C19.7535 91.19 19.946 91.0296 20.2027 91.2221H20.2107Z" fill="#64546F"/>
<path d="M28.1672 29.3402L42.9258 25.1453L42.4445 30.9364L33.5092 24.0704C32.7472 23.4849 32.6028 22.386 33.1883 21.6241C33.6776 20.9824 34.5278 20.7818 35.2337 21.0706L45.6529 25.3618C47.1849 25.9955 47.9228 27.7521 47.2892 29.2921C46.9924 30.014 46.447 30.5594 45.7893 30.8642L45.1716 31.153L31.2793 37.658C29.0495 38.7007 26.3945 37.7382 25.3518 35.5083C24.3091 33.2785 25.2716 30.6236 27.5014 29.5809C27.718 29.4846 27.9586 29.3964 28.1752 29.3322L28.1672 29.3402Z" fill="#B4C7FF"/>
<path d="M16.4649 38.7167L6.24617 27.7039L5.78897 27.2066C4.68207 26.0115 4.74624 24.1426 5.94137 23.0357C6.32637 22.6747 6.79159 22.4421 7.27285 22.3298L18.2937 19.7391C19.2321 19.5225 20.1706 20.1 20.3871 21.0385C20.5716 21.8245 20.1946 22.6106 19.5128 22.9715L9.53476 28.3375L10.5614 22.9635L22.4485 32.1475C24.3976 33.6555 24.7586 36.4548 23.2506 38.4039C21.7427 40.353 18.9434 40.7139 16.9943 39.206C16.8018 39.0616 16.6093 38.8771 16.4488 38.7087L16.4649 38.7167Z" fill="#B4C7FF"/>
<path d="M34.2954 58.1919C31.6886 58.9379 28.1995 59.6598 24.0526 59.732C18.3096 59.8362 13.6334 58.6652 10.5533 57.6144C10.4892 53.7323 10.8261 50.6602 11.1309 48.6069C11.7244 44.6445 12.5827 42.0938 12.8634 37.2813C12.9677 35.5247 12.9677 34.0889 12.9436 33.1505C15.406 32.2842 19.6732 29.7817 19.6732 29.7817C19.6732 29.7817 27.63 29.0036 30.9026 28.5544C31.1432 29.2362 31.3437 29.8458 31.472 30.5517C31.5924 31.1933 31.6325 31.7307 31.6405 32.0355C31.6405 32.1719 31.6405 32.2681 31.6405 32.2842C31.6565 33.5435 34.0708 45.3263 34.4318 52.0318C34.504 53.3954 34.5521 55.529 34.2794 58.1839L34.2954 58.1919Z" fill="#B4C7FF"/>
<path d="M29.4988 30.8323C29.571 33.0221 25.6808 35.0514 25.6808 35.0514C25.6808 35.0514 20.4752 31.6184 21.9029 29.0276C22.1115 28.6426 22.312 28.2255 22.4804 27.7683C22.6569 27.3031 22.7932 26.7978 22.8815 26.2524C22.8975 26.124 22.9216 25.9957 22.9376 25.8674C23.09 24.6161 22.9537 23.5333 22.7692 22.7392C22.7211 22.5306 22.681 22.3381 22.6248 22.1697C22.6007 22.0574 22.5687 21.9611 22.5366 21.8649L22.9938 21.8087L29.4667 21.1029C29.4266 21.2794 29.4025 21.4478 29.3624 21.6403C29.1138 23.1563 28.9293 25.0813 29.0817 27.3031C29.1539 28.3378 29.2742 29.3084 29.4426 30.1907C29.4426 30.1907 29.4426 30.1987 29.4507 30.1987C29.4908 30.4072 29.5068 30.6238 29.5068 30.8323H29.4988Z" fill="#F9AFB6"/>
<path d="M29.4987 30.8323C29.4105 30.8724 29.3142 30.8965 29.226 30.9125C26.8839 31.498 24.0043 29.8778 22.4803 27.7603C22.6568 27.295 22.7932 26.7897 22.8814 26.2443C22.8974 26.116 22.9215 25.9876 22.9375 25.8593C23.0899 24.608 22.9536 23.5252 22.7691 22.7311C22.721 22.5226 22.6809 22.3301 22.6247 22.1616L29.3623 21.6403C29.1137 23.1562 28.9292 25.0813 29.0816 27.3031C29.1538 28.3378 29.2741 29.3083 29.4426 30.1906C29.4426 30.1906 29.4426 30.1986 29.4506 30.1986C29.4907 30.4072 29.5067 30.6237 29.5067 30.8323H29.4987Z" fill="#E59CA9"/>
<path d="M31.1432 24.1346C31.1752 24.9367 31.3036 27.9767 29.2823 29.252C27.9668 30.0782 26.4028 29.7413 25.6568 29.5729C24.951 29.4205 23.0741 29.0034 22.1998 27.4152C21.2774 25.7388 22.0554 23.8379 22.4966 22.7711C23.1864 21.0947 25.2558 17.5494 27.6941 17.9264C30.0202 18.2874 31.063 21.961 31.1512 24.1346H31.1432Z" fill="#F9AFB6"/>
<path d="M26.4189 24.9929C26.459 25.1453 26.3708 25.2897 26.2184 25.3298C26.066 25.3699 25.9216 25.2817 25.8815 25.1293C25.8414 24.9769 25.9296 24.8325 26.082 24.7924C26.2344 24.7523 26.3788 24.8405 26.4189 24.9929Z" fill="#64546F"/>
<path d="M28.9934 25.7148C29.0576 25.8592 28.9934 26.0196 28.849 26.0837C28.7047 26.1479 28.5442 26.0837 28.4801 25.9394C28.4159 25.795 28.4801 25.6346 28.6244 25.5704C28.7688 25.5062 28.9292 25.5704 28.9934 25.7148Z" fill="#64546F"/>
<path d="M26.7477 24.3433C26.7477 24.3433 26.7076 24.3432 26.6835 24.3272C26.5712 24.255 26.4589 24.2069 26.3306 24.1748C26.0498 24.1026 25.8012 24.1347 25.6408 24.1748C25.5766 24.1909 25.5124 24.1588 25.4964 24.0946C25.4804 24.0304 25.5124 23.9663 25.5766 23.9502C25.7691 23.8941 26.0579 23.854 26.3947 23.9422C26.5391 23.9823 26.6835 24.0385 26.8118 24.1187C26.868 24.1507 26.884 24.231 26.8519 24.2871C26.8279 24.3272 26.7878 24.3433 26.7477 24.3433Z" fill="#64546F"/>
<path d="M30.004 25.2575C30.004 25.2575 29.9479 25.2495 29.9238 25.2254C29.8276 25.1372 29.7233 25.065 29.603 25.0169C29.3383 24.8965 29.0816 24.8885 28.9212 24.8965C28.857 24.8965 28.7928 24.8564 28.7928 24.7843C28.7928 24.7201 28.833 24.6559 28.9051 24.6559C29.0976 24.6399 29.4024 24.6479 29.7153 24.7923C29.8516 24.8564 29.9799 24.9447 30.0922 25.0409C30.1404 25.0891 30.1484 25.1612 30.1003 25.2094C30.0762 25.2334 30.0441 25.2495 30.012 25.2495L30.004 25.2575Z" fill="#64546F"/>
<path d="M27.3813 27.4553C27.3331 27.4553 27.285 27.4232 27.269 27.3751C27.2449 27.3109 27.277 27.2468 27.3412 27.2227C27.4855 27.1746 27.6059 27.1345 27.6781 27.1104C27.8064 27.0703 27.8866 27.0382 27.9668 26.9821C28.023 26.942 28.039 26.9179 28.039 26.9019C28.0711 26.8457 28.055 26.7815 28.047 26.7495C28.0229 26.6372 27.9267 26.557 27.8224 26.4607C27.7262 26.3725 27.6299 26.2923 27.5658 26.172C27.4454 25.9474 27.4775 25.6345 27.67 25.2576C27.7021 25.1934 27.7743 25.1774 27.8304 25.2014C27.8866 25.2335 27.9107 25.3057 27.8866 25.3618C27.7342 25.6666 27.7021 25.8992 27.7823 26.0516C27.8224 26.1318 27.9026 26.204 27.9828 26.2762C28.1032 26.3805 28.2395 26.5088 28.2796 26.6933C28.2876 26.7414 28.3197 26.8698 28.2475 27.0061C28.2315 27.0462 28.1914 27.0944 28.1032 27.1666C27.9909 27.2548 27.8866 27.2869 27.7583 27.327C27.67 27.3591 27.5497 27.3911 27.4134 27.4473C27.3973 27.4473 27.3893 27.4473 27.3733 27.4473L27.3813 27.4553Z" fill="#64546F"/>
<path d="M25.729 28.0249C25.6408 28.2094 25.7049 28.4179 25.8654 28.4981C26.0258 28.5783 26.2343 28.4981 26.3226 28.3056C26.4108 28.1211 26.3466 27.9126 26.1862 27.8324C26.0258 27.7522 25.8172 27.8324 25.729 28.0249Z" fill="#64546F"/>
<path d="M21.863 22.1454C21.863 22.9956 22.2721 23.6854 22.7854 23.6854C23.2988 23.6854 23.7159 23.0037 23.7239 22.1534C23.7239 21.3032 23.3148 20.6134 22.8015 20.6134C22.2881 20.6134 21.8711 21.2952 21.863 22.1454Z" fill="#F9AFB6"/>
<path d="M26.1622 19.3462C26.4509 19.3462 26.5311 20.0601 27.3172 21.3274C28.0711 22.5386 28.384 22.4904 28.4481 22.4744C28.7208 22.4022 28.769 21.8167 28.9454 21.8327C29.1059 21.8488 29.0577 22.33 29.3786 22.5065C29.5871 22.6268 29.908 22.5867 30.0443 22.4263C30.2208 22.2097 30.0603 21.8407 30.1325 21.8087C30.1967 21.7846 30.293 22.1135 30.5496 22.322C30.8625 22.5787 31.4319 22.6589 31.6726 22.4423C32.0736 22.0894 31.6244 20.9905 31.2875 20.1563C30.8063 18.9692 30.5657 18.3757 30.0603 17.9426C28.6807 16.7474 26.3707 17.1244 24.943 17.8784C24.3895 18.1671 23.6355 18.496 23.2104 19.3141C22.7452 20.2125 22.7372 21.544 23.3227 21.8488C23.8601 22.1375 24.7184 21.4638 24.7906 21.4076C25.8092 20.6055 25.7691 19.3382 26.1541 19.3462H26.1622Z" fill="#64546F"/>
<path d="M35.2098 21.1027C34.151 20.7177 33.9344 20.8059 33.397 19.7472C33.0361 19.0333 32.7954 18.3675 32.635 17.7981C32.1538 17.5013 31.48 17.1724 30.6458 16.9398C29.3224 16.5708 28.1754 16.627 27.4615 16.7232C27.4214 16.7634 27.1567 17.0922 27.261 17.389C27.3652 17.6777 27.7823 17.7579 27.9668 17.79C28.416 17.8702 28.5924 17.7018 28.7849 17.8382C29.0015 17.9986 28.8652 18.3114 28.9775 18.6804C29.1539 19.2659 29.7395 19.3621 30.3009 19.8033C31.079 20.4129 30.9586 21.0145 31.5442 21.9208C31.9131 22.5064 32.0334 23.2523 33.4211 23.8459C33.774 23.2924 34.8408 21.6561 35.1937 21.1027H35.2098Z" fill="#F9AFB6"/>
<path d="M31.6324 19.1775C31.6324 19.1775 31.6084 19.1775 31.6004 19.1775C31.4319 19.1294 31.2715 19.0572 31.1271 18.969C30.7902 18.7685 30.6138 18.5439 30.4534 18.3514C30.3491 18.215 30.2528 18.1027 30.1245 18.0145C29.8357 17.814 29.4026 17.7979 28.8331 17.9664C28.7689 17.9824 28.7048 17.9503 28.6807 17.8862C28.6647 17.822 28.6968 17.7578 28.7609 17.7338C29.4026 17.5493 29.9079 17.5734 30.2608 17.814C30.4213 17.9263 30.5255 18.0626 30.6378 18.207C30.7902 18.3995 30.9426 18.592 31.2394 18.7685C31.3758 18.8487 31.5201 18.9129 31.6645 18.953C31.7287 18.969 31.7608 19.0412 31.7447 19.1054C31.7287 19.1535 31.6806 19.1936 31.6324 19.1936V19.1775Z" fill="#E59CA9"/>
<path d="M18.478 19.6993C19.601 19.6672 19.7854 19.8196 20.6276 18.9854C21.1971 18.424 21.6303 17.8625 21.9591 17.3732C22.5126 17.2449 23.2505 17.1406 24.1168 17.1887C25.4884 17.2609 26.5551 17.67 27.2048 17.9908C27.2289 18.0389 27.3813 18.44 27.1808 18.6806C26.9883 18.9212 26.5632 18.8651 26.3787 18.841C25.9295 18.7769 25.8092 18.5603 25.5926 18.6325C25.336 18.7127 25.368 19.0576 25.1435 19.3704C24.7905 19.8677 24.205 19.7795 23.5312 20.0121C22.6008 20.341 22.5206 20.9506 21.6864 21.6243C21.149 22.0575 20.7961 22.7392 19.2962 22.8595C19.1357 22.2259 18.6384 20.3329 18.478 19.6993Z" fill="#F9AFB6"/>
<path d="M22.5526 19.0173C22.5526 19.0173 22.5206 19.0173 22.5125 19.0173C22.4484 19.0173 22.3922 18.9611 22.3922 18.8969C22.3922 18.8328 22.4484 18.7766 22.5125 18.7766C22.673 18.7766 22.8254 18.7686 22.9778 18.7365C23.3146 18.6643 23.5232 18.528 23.7317 18.3916C23.8841 18.2873 24.0285 18.1911 24.213 18.143C24.622 18.0227 25.1113 18.159 25.6568 18.536C25.7129 18.5761 25.7209 18.6483 25.6888 18.7044C25.6487 18.7606 25.5765 18.7766 25.5204 18.7365C25.0311 18.3996 24.614 18.2793 24.2771 18.3756C24.1247 18.4157 24.0044 18.5039 23.8601 18.5921C23.6515 18.7285 23.4109 18.8889 23.0259 18.9691C22.8735 19.0012 22.7131 19.0173 22.5526 19.0173Z" fill="#E59CA9"/>
<path d="M71.1883 99.5607H48.9615L55.0552 95.0079H75.0406L71.1883 99.5607Z" fill="#64546F"/>
<path d="M70.9782 98.79H48.7593L54.8529 94.2373H74.8383L70.9782 98.79Z" fill="#AF9CAA"/>
<path d="M66.1928 98.3855H56.2694L57.5848 97.2881H67.2747L66.1928 98.3855Z" fill="white"/>
<path d="M70.9864 94.3542C70.963 94.9691 70.8229 95.8486 70.2236 96.9226C69.8267 96.9226 68.9472 96.9071 67.7797 96.8993C66.1687 96.8993 65.7873 96.8993 65.5071 96.6424C64.9623 96.1521 65.2892 95.1714 65.5304 94.4709C65.725 93.895 65.9351 93.5837 66.1531 93.2334C66.2854 93.0077 66.4255 92.7665 66.55 92.424C66.6668 92.1049 66.7446 91.8403 66.7991 91.5679C66.7991 91.5056 66.8224 91.4433 66.8224 91.3811C66.838 91.3811 66.8458 91.3811 66.8613 91.3811C67.1182 91.42 67.3828 91.3966 67.6786 91.4044C68.9083 91.4667 69.9045 91.1943 70.5505 90.953C70.6206 91.5212 70.6828 91.957 70.7373 92.3228C70.893 93.3502 70.9864 93.7705 70.9708 94.3386L70.9864 94.3542Z" fill="#64546F"/>
<path d="M70.7452 92.3385C70.1303 93.3269 69.3909 94.292 68.2546 94.4944C68.0367 94.5333 67.4996 94.6189 66.9859 94.3465C66.5423 94.1052 66.3088 93.6927 66.1454 93.2335C66.2466 93.0545 66.6279 91.996 66.7914 91.5757C66.8303 91.4667 66.8536 91.3967 66.8536 91.3967C67.1105 91.4356 67.3751 91.4123 67.6709 91.42C68.9006 91.4823 69.8968 91.2099 70.5428 90.9686C70.6129 91.5368 70.6751 91.9727 70.7296 92.3385H70.7452Z" fill="#F9AFB6"/>
<path d="M60.9159 94.3542C60.8926 94.9691 60.7525 95.8486 60.1532 96.9226C59.7563 96.9226 58.8768 96.9071 57.7093 96.8993C56.0982 96.8993 55.7168 96.8993 55.4366 96.6424C54.8918 96.1521 55.2187 95.1714 55.46 94.4709C55.6546 93.895 55.8647 93.5837 56.0827 93.2334C56.215 93.0077 56.355 92.7665 56.4796 92.424C56.5963 92.1049 56.6742 91.8403 56.7286 91.5679C56.7286 91.5056 56.752 91.4433 56.752 91.3811C56.7676 91.3811 56.7753 91.3811 56.7909 91.3811C57.0477 91.42 57.3124 91.3966 57.6081 91.4044C58.8379 91.4667 59.8341 91.1943 60.4801 90.953C60.5501 91.5212 60.6124 91.957 60.6669 92.3228C60.8225 93.3502 60.9159 93.7705 60.9004 94.3386L60.9159 94.3542Z" fill="#64546F"/>
<path d="M60.6822 92.3385C60.0673 93.3269 59.3279 94.292 58.1916 94.4944C57.9737 94.5333 57.4366 94.6189 56.923 94.3465C56.4793 94.1052 56.2458 93.6927 56.0824 93.2335C56.1836 93.0545 56.5649 91.996 56.7284 91.5757C56.7673 91.4667 56.7906 91.3967 56.7906 91.3967C57.0475 91.4356 57.3121 91.4123 57.6079 91.42C58.8376 91.4823 59.8338 91.2099 60.4798 90.9686C60.5499 91.5368 60.6121 91.9727 60.6666 92.3385H60.6822Z" fill="#F9AFB6"/>
<path d="M62.3394 34.0165L54.7749 47.4413L54.4714 47.9705C54.3702 48.1417 54.2301 48.2818 54.0745 48.3829L46.8601 52.7178C46.1364 53.1536 45.2025 52.9201 44.7666 52.1964C44.4476 51.6671 44.4865 51.0134 44.8211 50.5309L49.6462 43.6356L48.9458 44.5773L54.9383 30.3821C55.8255 28.2808 58.2459 27.3003 60.3471 28.1875C62.4484 29.0747 63.429 31.495 62.5418 33.5963C62.4795 33.7441 62.4095 33.8842 62.3317 34.0165H62.3394Z" fill="#E2DE9A"/>
<path d="M80.1459 30.7711L83.2355 45.1142L82.3639 43.6511L88.084 51.6048C88.5743 52.2819 88.4186 53.2313 87.7338 53.7216C87.2046 54.103 86.5197 54.0874 86.0061 53.7528L77.8578 48.3206C77.5388 48.1027 77.3131 47.7992 77.1963 47.4567L76.9862 46.8575L72.2078 32.9814C71.4685 30.8256 72.6125 28.4753 74.7682 27.736C76.9239 26.9967 79.2743 28.1407 80.0136 30.2964C80.0681 30.4443 80.1148 30.6233 80.1459 30.7711Z" fill="#E2DE9A"/>
<path d="M75.5154 56.5546H54.5416C54.2692 55.5351 54.028 54.033 54.4016 52.3442C54.8062 50.5309 55.639 49.8227 56.316 47.9705C57.0631 45.9315 56.9698 44.305 56.9698 42.8808C56.9698 40.3593 57.39 35.8843 58.643 27.8684C61.9505 27.8684 65.0168 26.8256 68.3244 26.8256C71.305 26.8256 73.2896 27.5182 76.2702 27.5182C76.6827 35.9077 76.9318 40.6005 76.0056 42.8808C75.671 43.7135 74.9005 45.3245 75.134 47.4179C75.3441 49.3558 76.2313 50.0562 76.4493 51.9551C76.5816 53.1458 76.4493 54.6868 75.5231 56.5468L75.5154 56.5546Z" fill="#E2DE9A"/>
<path d="M54.5415 56.5546C54.2458 57.8698 53.8722 59.8232 53.701 62.2124C53.234 68.7575 54.6816 72.8199 55.5766 78.5712C56.0824 81.8398 56.5416 86.4859 56.2147 92.2761H60.9543L64.7521 69.9871L66.402 92.2761H71.2971C71.4761 87.0151 72.1688 82.8749 72.7369 80.151C74.2934 72.7032 76.5503 68.0493 76.0289 60.4614C75.9121 58.7648 75.6865 57.3951 75.5308 56.5546H54.5571H54.5415Z" fill="#C0AEBA"/>
<path d="M63.6475 62.3527C63.6086 62.3527 63.5697 62.3294 63.5463 62.2982C63.1027 61.59 62.5734 60.9284 61.9741 60.3525C61.0946 59.4963 60.0751 58.8036 58.9465 58.2977C58.8843 58.2744 58.8609 58.2043 58.8842 58.1421C58.9076 58.0798 58.9777 58.0565 59.0399 58.0798C60.1996 58.6013 61.2348 59.3095 62.1376 60.1812C62.6902 60.7183 63.1805 61.3176 63.6008 61.9558C63.7798 61.4187 64.0367 60.9128 64.3635 60.4692C65.5855 58.8114 67.4612 58.3522 68.2162 58.2355C68.2784 58.2277 68.3407 58.2666 68.3485 58.3289C68.3563 58.3911 68.3173 58.4534 68.2551 58.4612C67.5313 58.5779 65.7256 59.0138 64.5581 60.6015C64.2001 61.0919 63.9277 61.6522 63.7565 62.2593C63.7409 62.306 63.7098 62.3371 63.6631 62.3449C63.6631 62.3449 63.6553 62.3449 63.6475 62.3449V62.3527Z" fill="#AF9CAA"/>
<path d="M64.7444 70.1045C64.6899 70.1045 64.6355 70.0656 64.6277 70.0033L63.5303 62.2591C63.5225 62.1969 63.5692 62.1346 63.6315 62.1268C63.7015 62.119 63.756 62.1657 63.7638 62.228L64.8612 69.9722C64.869 70.0344 64.8223 70.0967 64.76 70.1045C64.76 70.1045 64.7522 70.1045 64.7444 70.1045Z" fill="#AF9CAA"/>
<path d="M62.8298 29.7206C62.5029 29.4716 62.0126 29.1058 62.0049 28.5999C62.0049 28.0785 62.5652 27.9618 62.573 27.3781C62.573 26.7866 62.1683 26.3041 61.6546 25.6815C61.141 25.0745 61.0554 25.1523 60.6585 24.6542C60.2538 24.1484 59.7168 23.4635 59.7869 22.7086C59.8569 22.0004 60.3861 22.0471 60.7441 21.0977C61.141 20.0626 60.7363 19.6268 61.1488 18.9497C61.4212 18.4905 61.9737 18.2882 62.5029 18.2104C63.0322 18.1325 63.5691 18.1637 64.0828 18.0158C64.8299 17.8057 65.4291 17.2687 66.1062 16.8874C66.7833 16.506 67.6783 16.3037 68.3009 16.7706C68.6511 17.0352 68.8456 17.471 69.1569 17.7823C69.7718 18.3971 70.0986 18.1248 70.55 18.5761C71.087 19.1054 70.6823 20.1404 71.1337 21.3934C71.4294 22.2183 71.8108 22.1716 72.4567 23.0978C72.6201 23.3234 74.2934 25.7827 73.3828 27.6349C72.7836 28.8568 71.2349 29.4482 70.3243 29.5961C69.655 29.7128 68.5577 29.7128 66.9389 30.2498C66.9 30.2654 66.8767 30.2732 66.8689 30.2732C64.4174 30.9036 62.8298 29.7128 62.8298 29.7128V29.7206Z" fill="#64546F"/>
<path d="M67.7565 32.8264L67.2584 32.7875C64.7912 32.4996 63.2346 30.2191 63.865 28.0632C63.865 28.0632 63.8676 28.058 63.8728 28.0476C63.9117 27.9387 63.935 27.8375 63.9661 27.7207C64.0595 27.3938 64.1374 27.0358 64.223 26.6778C64.3086 26.2887 64.3865 25.8839 64.4487 25.4636C64.5732 24.7165 64.6433 24.0004 64.6822 23.3389L70.7374 23.9148C70.7219 24.1561 70.7141 24.4051 70.7374 24.6698C70.7374 24.7865 70.7452 24.9033 70.7608 25.0356C70.8075 25.5026 70.8931 25.9462 71.0254 26.3587C71.0332 26.421 71.0565 26.4754 71.0799 26.5377C71.2044 26.9424 71.3601 27.3005 71.5313 27.6429C72.7532 30.1101 70.7452 32.9276 67.7643 32.8264H67.7565Z" fill="#F9AFB6"/>
<path d="M71.0254 26.3587C70.8776 26.8179 70.6285 27.2693 70.2393 27.6351C69.0875 28.7325 67.3674 28.5535 66.5502 28.4679C65.9353 28.3978 64.8457 28.2889 63.9662 27.7129C64.0596 27.386 64.1374 27.028 64.223 26.67C64.3087 26.2808 64.3865 25.8761 64.4488 25.4558C64.5733 24.7087 64.6433 23.9926 64.6822 23.3311L70.7375 23.907C70.7219 24.1483 70.7141 24.3973 70.7375 24.662C70.7375 24.7787 70.7453 24.8955 70.7608 25.0278C70.8075 25.4948 70.8931 25.9384 71.0254 26.3509V26.3587Z" fill="#E59CA9"/>
<path d="M62.2543 22.5302C62.083 23.5186 61.6783 25.8224 63.1026 27.1455C64.2467 28.204 65.9201 28.0328 66.7529 27.9472C67.5779 27.8616 69.2902 27.6826 70.193 26.375C71.1659 24.9663 70.5744 23.1606 70.2163 22.0632C70.1385 21.8141 68.5352 17.0664 65.9357 17.2143C63.772 17.3389 62.5656 20.7712 62.2543 22.538V22.5302Z" fill="#F9AFB6"/>
<path d="M67.2502 24.3274C67.2035 24.452 67.2736 24.5921 67.4059 24.631C67.5382 24.6699 67.6783 24.5998 67.725 24.4753C67.7717 24.3508 67.7016 24.2107 67.5693 24.1718C67.437 24.1329 67.2969 24.2029 67.2502 24.3274Z" fill="#64546F"/>
<path d="M64.2075 24.8176C64.1297 24.9344 64.1686 25.0822 64.2853 25.1523C64.4021 25.2223 64.5577 25.1834 64.6356 25.0745C64.7134 24.9577 64.6745 24.8098 64.5577 24.7398C64.441 24.6697 64.2853 24.7087 64.2075 24.8176Z" fill="#64546F"/>
<path d="M67.0092 23.7593C66.9703 23.7593 66.9236 23.736 66.908 23.6971C66.8769 23.6426 66.9081 23.5725 66.9548 23.5414C67.0793 23.4791 67.2116 23.4324 67.3439 23.4091C67.6552 23.3468 67.9198 23.4013 68.0833 23.4558C68.1456 23.4791 68.1767 23.5414 68.1611 23.6037C68.1378 23.6659 68.0755 23.6971 68.0132 23.6815C67.8731 23.6348 67.6474 23.5881 67.3906 23.6426C67.2739 23.6659 67.1649 23.7048 67.0637 23.7593C67.0481 23.7671 67.0248 23.7749 67.0092 23.7749V23.7593Z" fill="#64546F"/>
<path d="M63.7092 24.2417C63.7092 24.2417 63.6314 24.2261 63.608 24.1872C63.5769 24.1328 63.5925 24.0627 63.647 24.0238C63.7637 23.946 63.8882 23.8915 64.0205 23.8526C64.2618 23.7825 64.5186 23.7747 64.7677 23.8292C64.83 23.8448 64.8689 23.907 64.8533 23.9693C64.8378 24.0316 64.7755 24.0705 64.7132 24.0549C64.5031 24.0082 64.2852 24.016 64.0828 24.0705C63.9738 24.1016 63.8649 24.1483 63.7637 24.2106C63.7481 24.2261 63.7248 24.2261 63.7014 24.2261L63.7092 24.2417Z" fill="#64546F"/>
<path d="M66.0207 26.4132C66.0207 26.4132 65.9974 26.4132 65.9896 26.4132C65.8573 26.382 65.7561 26.3509 65.6861 26.3353C65.5538 26.3042 65.4604 26.2809 65.3514 26.2108C65.2658 26.1563 65.2269 26.1096 65.2113 26.0785C65.1413 25.9618 65.1646 25.8372 65.1724 25.7983C65.2035 25.6271 65.3203 25.5103 65.4292 25.4092C65.4993 25.3391 65.5693 25.2768 65.6005 25.2068C65.6627 25.0745 65.6238 24.8799 65.4759 24.6308C65.4448 24.5764 65.4604 24.5063 65.5149 24.4674C65.5693 24.4363 65.6394 24.4518 65.6783 24.5063C65.8651 24.8254 65.9118 25.0978 65.8106 25.308C65.7561 25.4169 65.6705 25.5026 65.5927 25.5804C65.5071 25.666 65.4214 25.7438 65.4059 25.8372C65.4059 25.8606 65.3903 25.9151 65.4215 25.954C65.4292 25.9695 65.4526 25.9851 65.4837 26.0085C65.5615 26.0552 65.6238 26.0707 65.7328 26.1019C65.8184 26.1252 65.9196 26.1485 66.0597 26.1875C66.1219 26.203 66.1608 26.2653 66.1453 26.3276C66.1297 26.382 66.083 26.4132 66.0285 26.4132H66.0207Z" fill="#64546F"/>
<path d="M66.1143 27.6352C65.7251 27.6352 65.4449 27.4406 65.3904 27.3939C65.336 27.355 65.3282 27.2849 65.3671 27.2304C65.406 27.176 65.4761 27.1682 65.5305 27.2071C65.5928 27.2538 65.9041 27.4717 66.3322 27.3705C66.7525 27.2771 66.9471 26.9425 66.986 26.8724C67.0171 26.8179 67.0872 26.7946 67.1416 26.8257C67.1961 26.8568 67.2195 26.9269 67.1883 26.9814C67.1416 27.067 66.9081 27.4795 66.3789 27.5962C66.2855 27.6196 66.1999 27.6274 66.1143 27.6274V27.6352Z" fill="#64546F"/>
<path d="M71.2048 21.1289C71.0647 20.7787 69.1968 17.1284 68.364 16.7393C67.4923 16.3346 66.0602 16.5758 65.1885 16.8405C64.1066 17.1674 63.1415 17.8211 62.5344 18.6851C61.8962 19.5957 61.6705 20.6853 61.4837 21.7516C61.3748 22.3587 61.2736 22.9657 61.3203 23.5806C61.367 24.1877 61.5849 24.8103 62.0363 25.2695C62.1142 24.8026 62.2932 24.0709 62.7446 23.3471C62.9236 23.0591 63.3828 22.3431 64.1611 21.9072C64.4802 21.7282 64.6514 21.6271 65.1729 21.3858C65.5232 21.2301 67.6012 19.8992 67.6791 20.2806C67.7802 20.7476 68.1538 21.0511 68.3328 21.4792C68.5196 21.9306 68.364 21.9929 68.543 22.7478C68.7531 23.604 69.2045 24.3511 69.3758 24.2889C69.477 24.25 69.3758 23.9542 69.5003 23.4794C69.6248 23.0358 69.9284 22.4209 70.4109 22.3042C70.6133 22.2575 70.8312 22.2808 71.0102 22.1563C71.2904 21.9695 71.3449 21.4792 71.197 21.1289H71.2048Z" fill="#64546F"/>
<path d="M48.6585 51.6363C48.1682 51.2471 47.6779 50.858 47.1875 50.461C46.6894 50.0641 46.2069 49.6594 45.7243 49.2625C45.5609 49.3714 44.9149 49.7761 44.2533 50.0952C44.0821 50.1809 43.7863 50.3132 43.3894 50.4688C43.3116 50.5 43.2337 50.5233 43.1403 50.5544C42.471 50.7724 42.3153 50.7257 42.183 50.858C41.9807 51.0681 41.9962 51.5507 42.2064 51.7686C42.5099 52.0799 43.3271 51.932 44.1988 51.3016C44.1132 52.15 43.7863 52.6092 43.5606 52.8505C43.3038 53.1229 42.9925 53.2941 42.5488 53.5354C42.1285 53.7689 41.7316 54.0568 41.3113 54.2825C41.1946 54.3448 41 54.446 41 54.5861C41 54.7184 41.1946 54.8274 41.3113 54.8896C41.4281 54.9519 41.646 55.0453 41.9573 55.0375C41.9262 55.1309 41.8873 55.3021 41.9807 55.4266C42.0974 55.5823 42.3542 55.5667 42.6422 55.5356C42.8757 55.5123 43.2259 55.45 43.6385 55.271C43.6229 55.3255 43.6151 55.4111 43.654 55.4967C43.654 55.4967 43.6929 55.5979 43.8097 55.6757C44.1054 55.8703 44.6113 55.6524 45.1172 55.3255C45.1717 55.45 45.2418 55.559 45.3507 55.5979C45.6854 55.7146 46.1524 55.1465 46.5026 54.7262C46.9073 54.2358 48.1993 52.3912 48.6585 51.6519V51.6363Z" fill="#F9AFB6"/>
<path d="M43.8018 55.2394C43.7551 55.2394 43.7162 55.2161 43.6928 55.1694C43.6695 55.1071 43.6928 55.0448 43.7551 55.0137C43.9964 54.9047 44.2299 54.7802 44.4556 54.6401C44.8136 54.4066 45.1405 54.1264 45.4285 53.7995C45.4752 53.7528 45.5452 53.7451 45.5919 53.7917C45.6386 53.8384 45.6464 53.9085 45.5997 53.9552C45.2962 54.2976 44.9537 54.5934 44.5801 54.8347C44.3466 54.9826 44.1054 55.1149 43.8485 55.2316C43.8329 55.2316 43.8174 55.2394 43.8018 55.2394Z" fill="#E59CA9"/>
<path d="M45.1872 55.3951C45.1872 55.3951 45.1171 55.3795 45.0938 55.3484C45.0548 55.3017 45.0626 55.2239 45.1093 55.1849C45.3195 55.0215 45.5063 54.8347 45.6853 54.6401C45.7865 54.5234 45.8876 54.3989 45.981 54.2665C46.02 54.2121 46.09 54.2043 46.1445 54.2432C46.199 54.2821 46.2067 54.3522 46.1678 54.4066C46.0666 54.539 45.9655 54.6713 45.8565 54.7958C45.6697 54.9982 45.4674 55.1927 45.2572 55.364C45.2339 55.3795 45.2105 55.3873 45.1872 55.3873V55.3951Z" fill="#E59CA9"/>
<path d="M42.2532 55.0451C42.2065 55.0451 42.1598 55.014 42.1442 54.9673C42.1209 54.905 42.152 54.8427 42.2143 54.8194C42.5022 54.7182 42.7902 54.5859 43.0626 54.4458C43.6619 54.1189 44.2067 53.6986 44.6815 53.1849C44.7282 53.1382 44.7983 53.1382 44.845 53.1849C44.8917 53.2316 44.8917 53.3017 44.845 53.3484C44.3546 53.8776 43.7865 54.3213 43.1638 54.6559C42.8836 54.8038 42.5879 54.9361 42.2843 55.0451C42.2688 55.0451 42.261 55.0451 42.2454 55.0451H42.2532Z" fill="#E59CA9"/>
<path d="M91.0887 52.8814C90.6217 52.7413 90.1859 52.539 89.7267 52.3911C89.2519 52.2432 88.9095 52.1343 88.5981 51.9163C88.3257 51.7295 87.921 51.3404 87.6641 50.5232C88.6448 50.9668 89.4776 50.9512 89.7111 50.5854C89.8745 50.3364 89.7967 49.8538 89.5554 49.6904C89.3998 49.5814 89.2519 49.6592 88.5592 49.5814C88.4658 49.5736 88.3802 49.5581 88.2946 49.5425C88.2323 49.5347 87.7653 49.4647 87.3762 49.3557C86.8236 49.2 86.341 48.951 86.0608 48.8031C85.5783 49.2545 85.0802 49.7449 84.5743 50.2975C84.0761 50.8345 83.6325 51.3637 83.2278 51.8696C83.4613 52.0798 83.6792 52.2588 83.9049 52.4378C83.9049 52.4378 83.8971 52.4378 83.8893 52.43C84.7299 53.3251 85.4538 53.9399 85.9674 54.3369C86.3332 54.6171 86.7535 54.9206 87.1972 54.8039C87.3606 54.7649 87.4774 54.6715 87.5785 54.5781C87.6252 54.6093 88.1156 54.8895 88.5981 54.6638C88.8161 54.5626 88.9484 54.3991 89.0106 54.3057C89.7578 54.5392 90.3805 54.4303 90.5672 54.0956C90.6062 54.0255 90.6373 53.9166 90.6139 53.7454C90.9564 53.8543 91.2833 53.7687 91.4234 53.5508C91.4934 53.4418 91.5401 53.255 91.4623 53.1071C91.3767 52.9437 91.1821 52.897 91.0965 52.8736L91.0887 52.8814Z" fill="#F9AFB6"/>
<path d="M87.446 54.4846C87.446 54.4846 87.3993 54.4846 87.376 54.4613C86.9635 54.1733 86.5665 53.8464 86.1929 53.504C85.9983 53.3249 85.8193 53.1381 85.6403 52.9514C85.5936 52.9047 85.6014 52.8268 85.6403 52.7879C85.687 52.7412 85.7648 52.749 85.8038 52.7879C85.975 52.9747 86.1618 53.1537 86.3486 53.3327C86.7066 53.6674 87.0958 53.9865 87.5005 54.2745C87.555 54.3134 87.5627 54.3834 87.5316 54.4379C87.5083 54.4691 87.4693 54.4846 87.4382 54.4846H87.446Z" fill="#E59CA9"/>
<path d="M88.8314 54.2822C88.8314 54.2822 88.7925 54.2822 88.7691 54.2667C88.5356 54.1188 88.2943 53.9631 88.0686 53.8075C87.3292 53.2938 86.6288 52.7178 85.9828 52.0952C85.9361 52.0485 85.9361 51.9785 85.9828 51.9318C86.0295 51.8851 86.0995 51.8851 86.1462 51.9318C86.7844 52.5466 87.4771 53.1148 88.201 53.6207C88.4267 53.7763 88.6602 53.932 88.8936 54.0721C88.9481 54.1032 88.9637 54.1811 88.9326 54.2355C88.9092 54.2745 88.8703 54.29 88.8314 54.29V54.2822Z" fill="#E59CA9"/>
<path d="M90.3179 53.6285C90.3179 53.6285 90.2946 53.6285 90.2868 53.6285C89.6019 53.4262 88.9481 53.1304 88.3488 52.7413C87.9285 52.4689 87.5238 52.1498 87.1658 51.7917C87.1191 51.745 87.1191 51.675 87.1658 51.6283C87.2125 51.5816 87.2825 51.5816 87.3292 51.6283C87.6795 51.9707 88.0608 52.2821 88.4733 52.5467C89.0493 52.9203 89.6797 53.2083 90.3491 53.4028C90.4113 53.4184 90.4424 53.4884 90.4269 53.5507C90.4113 53.6052 90.3646 53.6363 90.3179 53.6363V53.6285Z" fill="#E59CA9"/>
<path d="M56.9775 43.4575C56.9775 43.4575 56.923 43.4498 56.8996 43.4264C56.8529 43.3875 56.8451 43.3097 56.8918 43.263C57.4522 42.617 57.8102 41.9165 57.9581 41.1849C58.1371 40.282 57.9503 39.5893 57.7635 38.9278C57.6624 38.562 57.5534 38.1806 57.5223 37.7759C57.3822 36.2271 58.3006 34.5381 60.2386 32.7558C60.2853 32.7091 60.3631 32.7169 60.402 32.7558C60.4487 32.8025 60.4409 32.8803 60.402 32.9192C58.5185 34.6471 57.6235 36.2738 57.7558 37.7448C57.7869 38.1261 57.8881 38.4841 57.9893 38.8577C58.1838 39.5504 58.3784 40.2665 58.1916 41.2238C58.036 42.0021 57.6546 42.7337 57.0709 43.4108C57.0475 43.4342 57.0164 43.4498 56.9852 43.4498L56.9775 43.4575Z" fill="#D6CF78"/>
<path d="M71.7493 43.5114C71.7493 43.5114 71.7182 43.5114 71.7026 43.5036C69.679 42.6864 67.4842 42.344 65.3594 42.5308C63.9818 42.6475 62.6354 42.9744 61.3434 43.5036C61.2811 43.527 61.2188 43.5036 61.1877 43.4414C61.1644 43.3791 61.1877 43.3169 61.25 43.2857C62.5653 42.7487 63.9351 42.414 65.3361 42.2895C67.4998 42.1027 69.7335 42.4451 71.7883 43.2857C71.8505 43.3091 71.8739 43.3791 71.8505 43.4414C71.835 43.4881 71.7883 43.5114 71.7416 43.5114H71.7493Z" fill="#D6CF78"/>
<path d="M75.5234 43.1228C75.4689 43.1228 75.4222 43.0839 75.4067 43.0294C75.0876 41.1926 74.7607 39.3558 74.426 37.5035C74.1925 36.2037 73.9512 34.9117 73.7177 33.6197C73.7022 33.5574 73.7489 33.4952 73.8112 33.4874C73.8812 33.4718 73.9357 33.5185 73.9435 33.5808C74.1847 34.8728 74.4182 36.1648 74.6517 37.4645C74.9864 39.3169 75.3133 41.1537 75.6402 42.9905C75.6479 43.0528 75.609 43.1151 75.5468 43.1228C75.5468 43.1228 75.5312 43.1228 75.5234 43.1228Z" fill="#D6CF78"/>
</svg>
