<svg width="92" height="100" viewBox="0 0 92 100" fill="none" xmlns="http://www.w3.org/2000/svg">
<path d="M46.0023 92.2547C71.406 92.2547 91.9998 71.6609 91.9998 46.2572C91.9998 20.8535 71.406 0.259766 46.0023 0.259766C20.5986 0.259766 0.00488281 20.8535 0.00488281 46.2572C0.00488281 71.6609 20.5986 92.2547 46.0023 92.2547Z" fill="#F3F8FF"/>
<path d="M58.7854 66.541H55.0542L54.0259 58.9727H57.7571L58.7854 66.541Z" fill="#BFD2EF"/>
<path d="M58.5971 59.1489C58.6911 59.1489 58.7675 59.2253 58.7734 59.3487L59.8017 66.1943C59.8017 66.2883 59.7253 66.3647 59.6312 66.3647H58.456C58.362 66.3647 58.2856 66.2883 58.2798 66.1649L57.2515 59.3193C57.2515 59.2253 57.3279 59.1489 57.4219 59.1489H58.5971ZM58.5971 58.9727H57.4219C57.228 58.9727 57.0752 59.1313 57.0752 59.3193L58.1035 66.1943C58.1035 66.3882 58.2621 66.541 58.4502 66.541H59.6254C59.8193 66.541 59.9721 66.3823 59.9721 66.1943L58.9438 59.3193C58.9438 59.1254 58.7851 58.9727 58.5971 58.9727Z" fill="#BFD2EF"/>
<path d="M43.9954 46.686H43.5605V82.8705H43.9954V46.686Z" fill="#BFD2EF"/>
<path d="M41.7979 56.2639H45.535L47.8266 49.1951H44.0954L41.7979 56.2639Z" fill="#BFD2EF"/>
<path d="M44.4302 49.3714C44.5184 49.3714 44.5889 49.436 44.6006 49.5183L42.3207 55.8526C42.3207 55.8526 42.309 55.8937 42.309 55.9114C42.309 56.0054 42.2326 56.0818 42.1386 56.0818H40.9634C40.8752 56.0818 40.8047 56.0171 40.793 55.9349L43.0729 49.6005C43.0729 49.6005 43.0846 49.5594 43.0846 49.5418C43.0846 49.4477 43.161 49.3714 43.255 49.3714H44.4302ZM44.4302 49.1951H43.255C43.0611 49.1951 42.9083 49.3537 42.9083 49.5418L40.6167 55.9114C40.6167 56.1053 40.7753 56.258 40.9634 56.258H42.1386C42.3325 56.258 42.4853 56.0994 42.4853 55.9114L44.7769 49.5418C44.7769 49.3478 44.6183 49.1951 44.4302 49.1951Z" fill="#BFD2EF"/>
<path d="M45.2295 56.2639H48.9666L49.9949 48.6956H46.2578L45.2295 56.2639Z" fill="#BFD2EF"/>
<path d="M46.5927 48.8718C46.6867 48.8718 46.7631 48.9482 46.769 49.0187L45.7407 55.9172C45.7407 56.0112 45.6643 56.0876 45.5702 56.0876H44.395C44.301 56.0876 44.2246 56.0112 44.2188 55.9407L45.2471 49.0422C45.2471 48.9482 45.3234 48.8718 45.4175 48.8718H46.5927ZM46.5927 48.6956H45.4175C45.2236 48.6956 45.0708 48.8542 45.0708 49.0422L44.0425 55.9172C44.0425 56.1111 44.2011 56.2639 44.3892 56.2639H45.5644C45.7583 56.2639 45.9111 56.1052 45.9111 55.9172L46.9394 49.0422C46.9394 48.8483 46.7807 48.6956 46.5927 48.6956Z" fill="#BFD2EF"/>
<path d="M47.2686 56.2639H51.0057L51.987 49.0364C52.0105 48.8542 51.8695 48.6956 51.6873 48.6956H48.2969L47.2686 56.2639Z" fill="#BFD2EF"/>
<path d="M48.6317 48.8718C48.7257 48.8718 48.8021 48.9482 48.808 49.0187L47.7797 55.9172C47.7797 56.0112 47.7033 56.0876 47.6093 56.0876H46.4341C46.3401 56.0876 46.2637 56.0112 46.2578 55.9407L47.2861 49.0422C47.2861 48.9482 47.3625 48.8718 47.4565 48.8718H48.6317ZM48.6317 48.6956H47.4565C47.2626 48.6956 47.1098 48.8542 47.1098 49.0422L46.0815 55.9172C46.0815 56.1111 46.2402 56.2639 46.4282 56.2639H47.6034C47.7973 56.2639 47.9501 56.1052 47.9501 55.9172L48.9784 49.0422C48.9784 48.8483 48.8198 48.6956 48.6317 48.6956Z" fill="#BFD2EF"/>
<path d="M56.7933 66.541H53.062L52.0337 58.9727H55.765L56.7933 66.541Z" fill="#BFD2EF"/>
<path d="M56.6049 59.1489C56.6989 59.1489 56.7753 59.2253 56.7812 59.3487L57.8095 66.1943C57.8095 66.2883 57.7331 66.3647 57.6391 66.3647H56.4639C56.3699 66.3647 56.2935 66.2883 56.2876 66.1649L55.2593 59.3193C55.2593 59.2253 55.3357 59.1489 55.4297 59.1489H56.6049ZM56.6049 58.9727H55.4297C55.2358 58.9727 55.083 59.1313 55.083 59.3193L56.1113 66.1943C56.1113 66.3882 56.27 66.541 56.458 66.541H57.6332C57.8271 66.541 57.9799 66.3823 57.9799 66.1943L56.9516 59.3193C56.9516 59.1254 56.7929 58.9727 56.6049 58.9727Z" fill="#BFD2EF"/>
<path d="M54.7547 66.541H51.0175L50.0363 59.3135C50.0128 59.1313 50.1538 58.9727 50.3359 58.9727H53.7264L54.7547 66.541Z" fill="#BFD2EF"/>
<path d="M54.5668 59.1489C54.6608 59.1489 54.7372 59.2253 54.7431 59.3487L55.7714 66.1943C55.7714 66.2883 55.695 66.3647 55.601 66.3647H54.4258C54.3318 66.3647 54.2554 66.2883 54.2495 66.1649L53.2212 59.3193C53.2212 59.2253 53.2976 59.1489 53.3916 59.1489H54.5668ZM54.5668 58.9727H53.3916C53.1977 58.9727 53.0449 59.1313 53.0449 59.3193L54.0732 66.1943C54.0732 66.3882 54.2319 66.541 54.4199 66.541H55.5951C55.789 66.541 55.9418 66.3823 55.9418 66.1943L54.9135 59.3193C54.9135 59.1254 54.7548 58.9727 54.5668 58.9727Z" fill="#BFD2EF"/>
<path d="M52.0281 52.4502H56.9933V54.3717H52.0281C51.793 54.3717 51.605 54.1836 51.605 53.9486V52.8733C51.605 52.6382 51.793 52.4502 52.0281 52.4502Z" fill="#BFD2EF"/>
<path d="M56.2939 52.5325H61.0183V54.2894H56.2939C56.1 54.2894 55.9473 54.1307 55.9473 53.9427V52.8792C55.9473 52.6852 56.1059 52.5325 56.2939 52.5325Z" fill="white"/>
<path d="M61.4881 54.3716H56.3172C56.0645 54.3716 55.8647 54.166 55.8647 53.9192V52.9085C55.8647 52.6558 56.0704 52.4561 56.3172 52.4561H61.4881C61.5351 52.4561 61.5704 52.4913 61.5704 52.5383C61.5704 52.5853 61.5351 52.6206 61.4881 52.6206H56.3172C56.1527 52.6206 56.0234 52.7499 56.0234 52.9144V53.9251C56.0234 54.0896 56.1527 54.2189 56.3172 54.2189H61.4881C61.5351 54.2189 61.5704 54.2541 61.5704 54.3011C61.5704 54.3481 61.5351 54.3834 61.4881 54.3834V54.3716Z" fill="#BFD2EF"/>
<path d="M44.2009 64.6548H46.8451V66.5762H44.2009C43.9659 66.5762 43.7778 66.3882 43.7778 66.1532V65.0779C43.7778 64.8428 43.9659 64.6548 44.2009 64.6548Z" fill="#BFD2EF"/>
<path d="M46.146 64.7371H52.7624V66.494H46.146C45.9521 66.494 45.7993 66.3353 45.7993 66.1473V65.0837C45.7993 64.8898 45.958 64.7371 46.146 64.7371Z" fill="white"/>
<path d="M53.2322 66.5762H46.1692C45.9166 66.5762 45.7168 66.3706 45.7168 66.1238V65.1131C45.7168 64.8604 45.9225 64.6606 46.1692 64.6606H53.2322C53.2792 64.6606 53.3145 64.6959 53.3145 64.7429C53.3145 64.7899 53.2792 64.8252 53.2322 64.8252H46.1692C46.0047 64.8252 45.8754 64.9544 45.8754 65.119V66.1296C45.8754 66.2942 46.0047 66.4234 46.1692 66.4234H53.2322C53.2792 66.4234 53.3145 66.4587 53.3145 66.5057C53.3145 66.5527 53.2792 66.588 53.2322 66.588V66.5762Z" fill="#BFD2EF"/>
<path d="M49.9422 46.5625H46.4107V44.641H49.9422C50.1772 44.641 50.3652 44.8291 50.3652 45.0641V46.1394C50.3652 46.3745 50.1772 46.5625 49.9422 46.5625Z" fill="#F3F8FF"/>
<path d="M59.6254 66.541H58.4502C58.2563 66.541 58.1035 66.3823 58.1035 66.1943L57.0752 59.3193C57.0752 59.1254 57.2338 58.9727 57.4219 58.9727H58.5971C58.791 58.9727 58.9438 59.1313 58.9438 59.3193L59.9721 66.1943C59.9721 66.3882 59.8134 66.541 59.6254 66.541Z" fill="#F3F8FF"/>
<path d="M40.9634 56.2639H42.1386C42.3325 56.2639 42.4853 56.1052 42.4853 55.9172L44.7769 49.5476C44.7769 49.3537 44.6183 49.2009 44.4302 49.2009H43.255C43.0611 49.2009 42.9083 49.3596 42.9083 49.5476L40.6167 55.9172C40.6167 56.1111 40.7753 56.2639 40.9634 56.2639Z" fill="#F3F8FF"/>
<path d="M44.3892 56.2639H45.5644C45.7583 56.2639 45.9111 56.1052 45.9111 55.9172L46.9394 49.0422C46.9394 48.8483 46.7807 48.6956 46.5927 48.6956H45.4175C45.2236 48.6956 45.0708 48.8542 45.0708 49.0422L44.0425 55.9172C44.0425 56.1111 44.2011 56.2639 44.3892 56.2639Z" fill="#F3F8FF"/>
<path d="M46.4282 56.2639H47.6034C47.7973 56.2639 47.9501 56.1052 47.9501 55.9172L48.9784 49.0422C48.9784 48.8483 48.8198 48.6956 48.6317 48.6956H47.4565C47.2626 48.6956 47.1098 48.8542 47.1098 49.0422L46.0815 55.9172C46.0815 56.1111 46.2402 56.2639 46.4282 56.2639Z" fill="#F3F8FF"/>
<path d="M57.6337 66.541H56.4585C56.2646 66.541 56.1118 66.3823 56.1118 66.1943L55.0835 59.3193C55.0835 59.1254 55.2421 58.9727 55.4302 58.9727H56.6054C56.7993 58.9727 56.9521 59.1313 56.9521 59.3193L57.9804 66.1943C57.9804 66.3882 57.8217 66.541 57.6337 66.541Z" fill="#F3F8FF"/>
<path d="M55.5946 66.541H54.4194C54.2255 66.541 54.0727 66.3823 54.0727 66.1943L53.0444 59.3193C53.0444 59.1254 53.2031 58.9727 53.3911 58.9727H54.5663C54.7602 58.9727 54.913 59.1313 54.913 59.3193L55.9413 66.1943C55.9413 66.3882 55.7827 66.541 55.5946 66.541Z" fill="#F3F8FF"/>
<path d="M49.7068 42.7136H46.1753V40.7922H49.7068C49.9418 40.7922 50.1299 40.9802 50.1299 41.2152V42.2905C50.1299 42.5256 49.9418 42.7136 49.7068 42.7136Z" fill="#F3F8FF"/>
<path d="M51.2522 44.6353H47.7207V42.7138H51.2522C51.4873 42.7138 51.6753 42.9018 51.6753 43.1369V44.2122C51.6753 44.4472 51.4873 44.6353 51.2522 44.6353Z" fill="#F3F8FF"/>
<path d="M49.9422 46.5625H46.4107V44.641H49.9422C50.1772 44.641 50.3652 44.8291 50.3652 45.0641V46.1394C50.3652 46.3745 50.1772 46.5625 49.9422 46.5625Z" fill="#F3F8FF"/>
<path d="M58.5971 59.1489C58.6911 59.1489 58.7675 59.2253 58.7734 59.3487L59.8017 66.1943C59.8017 66.2883 59.7253 66.3647 59.6312 66.3647H58.456C58.362 66.3647 58.2856 66.2883 58.2798 66.1649L57.2515 59.3193C57.2515 59.2253 57.3279 59.1489 57.4219 59.1489H58.5971ZM58.5971 58.9727H57.4219C57.228 58.9727 57.0752 59.1313 57.0752 59.3193L58.1035 66.1943C58.1035 66.3882 58.2621 66.541 58.4502 66.541H59.6254C59.8193 66.541 59.9721 66.3823 59.9721 66.1943L58.9438 59.3193C58.9438 59.1254 58.7851 58.9727 58.5971 58.9727Z" fill="#BFD2EF"/>
<path d="M44.4302 49.3714C44.5184 49.3714 44.5889 49.436 44.6006 49.5183L42.3207 55.8526C42.3207 55.8526 42.309 55.8937 42.309 55.9114C42.309 56.0054 42.2326 56.0818 42.1386 56.0818H40.9634C40.8752 56.0818 40.8047 56.0171 40.793 55.9349L43.0729 49.6005C43.0729 49.6005 43.0846 49.5594 43.0846 49.5418C43.0846 49.4477 43.161 49.3714 43.255 49.3714H44.4302ZM44.4302 49.1951H43.255C43.0611 49.1951 42.9083 49.3537 42.9083 49.5418L40.6167 55.9114C40.6167 56.1053 40.7753 56.258 40.9634 56.258H42.1386C42.3325 56.258 42.4853 56.0994 42.4853 55.9114L44.7769 49.5418C44.7769 49.3478 44.6183 49.1951 44.4302 49.1951Z" fill="#BFD2EF"/>
<path d="M46.5927 48.8718C46.6867 48.8718 46.7631 48.9482 46.769 49.0187L45.7407 55.9172C45.7407 56.0112 45.6643 56.0876 45.5702 56.0876H44.395C44.301 56.0876 44.2246 56.0112 44.2188 55.9407L45.2471 49.0422C45.2471 48.9482 45.3234 48.8718 45.4175 48.8718H46.5927ZM46.5927 48.6956H45.4175C45.2236 48.6956 45.0708 48.8542 45.0708 49.0422L44.0425 55.9172C44.0425 56.1111 44.2011 56.2639 44.3892 56.2639H45.5644C45.7583 56.2639 45.9111 56.1052 45.9111 55.9172L46.9394 49.0422C46.9394 48.8483 46.7807 48.6956 46.5927 48.6956Z" fill="#BFD2EF"/>
<path d="M48.6317 48.8718C48.7257 48.8718 48.8021 48.9482 48.808 49.0187L47.7797 55.9172C47.7797 56.0112 47.7033 56.0876 47.6093 56.0876H46.4341C46.3401 56.0876 46.2637 56.0112 46.2578 55.9407L47.2861 49.0422C47.2861 48.9482 47.3625 48.8718 47.4565 48.8718H48.6317ZM48.6317 48.6956H47.4565C47.2626 48.6956 47.1098 48.8542 47.1098 49.0422L46.0815 55.9172C46.0815 56.1111 46.2402 56.2639 46.4282 56.2639H47.6034C47.7973 56.2639 47.9501 56.1052 47.9501 55.9172L48.9784 49.0422C48.9784 48.8483 48.8198 48.6956 48.6317 48.6956Z" fill="#BFD2EF"/>
<path d="M56.6054 59.1489C56.6994 59.1489 56.7758 59.2253 56.7817 59.3487L57.81 66.1943C57.81 66.2883 57.7336 66.3647 57.6396 66.3647H56.4644C56.3703 66.3647 56.2939 66.2883 56.2881 66.1649L55.2598 59.3193C55.2598 59.2253 55.3362 59.1489 55.4302 59.1489H56.6054ZM56.6054 58.9727H55.4302C55.2363 58.9727 55.0835 59.1313 55.0835 59.3193L56.1118 66.1943C56.1118 66.3882 56.2704 66.541 56.4585 66.541H57.6337C57.8276 66.541 57.9804 66.3823 57.9804 66.1943L56.9521 59.3193C56.9521 59.1254 56.7934 58.9727 56.6054 58.9727Z" fill="#BFD2EF"/>
<path d="M54.5663 59.1489C54.6603 59.1489 54.7367 59.2253 54.7426 59.3487L55.7709 66.1943C55.7709 66.2883 55.6945 66.3647 55.6005 66.3647H54.4253C54.3313 66.3647 54.2549 66.2883 54.249 66.1649L53.2207 59.3193C53.2207 59.2253 53.2971 59.1489 53.3911 59.1489H54.5663ZM54.5663 58.9727H53.3911C53.1972 58.9727 53.0444 59.1313 53.0444 59.3193L54.0727 66.1943C54.0727 66.3882 54.2314 66.541 54.4194 66.541H55.5946C55.7885 66.541 55.9413 66.3823 55.9413 66.1943L54.913 59.3193C54.913 59.1254 54.7544 58.9727 54.5663 58.9727Z" fill="#BFD2EF"/>
<path d="M49.7068 40.9685C49.8419 40.9685 49.9536 41.0802 49.9536 41.2153V42.2906C49.9536 42.4258 49.8419 42.5374 49.7068 42.5374H46.3516V40.9685H49.7068ZM49.7068 40.7922H46.1753V42.7137H49.7068C49.9418 42.7137 50.1299 42.5257 50.1299 42.2906V41.2153C50.1299 40.9803 49.9418 40.7922 49.7068 40.7922Z" fill="#BFD2EF"/>
<path d="M51.2522 42.8899C51.3873 42.8899 51.499 43.0015 51.499 43.1367V44.212C51.499 44.3472 51.3873 44.4588 51.2522 44.4588H47.897V42.8899H51.2522ZM51.2522 42.7136H47.7207V44.6351H51.2522C51.4872 44.6351 51.6753 44.447 51.6753 44.212V43.1367C51.6753 42.9017 51.4872 42.7136 51.2522 42.7136Z" fill="#BFD2EF"/>
<path d="M58.5971 59.1489C58.6911 59.1489 58.7675 59.2253 58.7734 59.3487L59.8017 66.1943C59.8017 66.2883 59.7253 66.3647 59.6312 66.3647H58.456C58.362 66.3647 58.2856 66.2883 58.2798 66.1649L57.2515 59.3193C57.2515 59.2253 57.3279 59.1489 57.4219 59.1489H58.5971ZM58.5971 58.9727H57.4219C57.228 58.9727 57.0752 59.1313 57.0752 59.3193L58.1035 66.1943C58.1035 66.3882 58.2621 66.541 58.4502 66.541H59.6254C59.8193 66.541 59.9721 66.3823 59.9721 66.1943L58.9438 59.3193C58.9438 59.1254 58.7851 58.9727 58.5971 58.9727Z" fill="#BFD2EF"/>
<path d="M44.4302 49.3714C44.5184 49.3714 44.5889 49.436 44.6006 49.5183L42.3207 55.8526C42.3207 55.8526 42.309 55.8937 42.309 55.9114C42.309 56.0054 42.2326 56.0818 42.1386 56.0818H40.9634C40.8752 56.0818 40.8047 56.0171 40.793 55.9349L43.0729 49.6005C43.0729 49.6005 43.0846 49.5594 43.0846 49.5418C43.0846 49.4477 43.161 49.3714 43.255 49.3714H44.4302ZM44.4302 49.1951H43.255C43.0611 49.1951 42.9083 49.3537 42.9083 49.5418L40.6167 55.9114C40.6167 56.1053 40.7753 56.258 40.9634 56.258H42.1386C42.3325 56.258 42.4853 56.0994 42.4853 55.9114L44.7769 49.5418C44.7769 49.3478 44.6183 49.1951 44.4302 49.1951Z" fill="#BFD2EF"/>
<path d="M46.5927 48.8718C46.6867 48.8718 46.7631 48.9482 46.769 49.0187L45.7407 55.9172C45.7407 56.0112 45.6643 56.0876 45.5702 56.0876H44.395C44.301 56.0876 44.2246 56.0112 44.2188 55.9407L45.2471 49.0422C45.2471 48.9482 45.3234 48.8718 45.4175 48.8718H46.5927ZM46.5927 48.6956H45.4175C45.2236 48.6956 45.0708 48.8542 45.0708 49.0422L44.0425 55.9172C44.0425 56.1111 44.2011 56.2639 44.3892 56.2639H45.5644C45.7583 56.2639 45.9111 56.1052 45.9111 55.9172L46.9394 49.0422C46.9394 48.8483 46.7807 48.6956 46.5927 48.6956Z" fill="#BFD2EF"/>
<path d="M48.6317 48.8718C48.7257 48.8718 48.8021 48.9482 48.808 49.0187L47.7797 55.9172C47.7797 56.0112 47.7033 56.0876 47.6093 56.0876H46.4341C46.3401 56.0876 46.2637 56.0112 46.2578 55.9407L47.2861 49.0422C47.2861 48.9482 47.3625 48.8718 47.4565 48.8718H48.6317ZM48.6317 48.6956H47.4565C47.2626 48.6956 47.1098 48.8542 47.1098 49.0422L46.0815 55.9172C46.0815 56.1111 46.2402 56.2639 46.4282 56.2639H47.6034C47.7973 56.2639 47.9501 56.1052 47.9501 55.9172L48.9784 49.0422C48.9784 48.8483 48.8198 48.6956 48.6317 48.6956Z" fill="#BFD2EF"/>
<path d="M56.6054 59.1489C56.6994 59.1489 56.7758 59.2253 56.7817 59.3487L57.81 66.1943C57.81 66.2883 57.7336 66.3647 57.6396 66.3647H56.4644C56.3703 66.3647 56.2939 66.2883 56.2881 66.1649L55.2598 59.3193C55.2598 59.2253 55.3362 59.1489 55.4302 59.1489H56.6054ZM56.6054 58.9727H55.4302C55.2363 58.9727 55.0835 59.1313 55.0835 59.3193L56.1118 66.1943C56.1118 66.3882 56.2704 66.541 56.4585 66.541H57.6337C57.8276 66.541 57.9804 66.3823 57.9804 66.1943L56.9521 59.3193C56.9521 59.1254 56.7934 58.9727 56.6054 58.9727Z" fill="#BFD2EF"/>
<path d="M54.5663 59.1489C54.6603 59.1489 54.7367 59.2253 54.7426 59.3487L55.7709 66.1943C55.7709 66.2883 55.6945 66.3647 55.6005 66.3647H54.4253C54.3313 66.3647 54.2549 66.2883 54.249 66.1649L53.2207 59.3193C53.2207 59.2253 53.2971 59.1489 53.3911 59.1489H54.5663ZM54.5663 58.9727H53.3911C53.1972 58.9727 53.0444 59.1313 53.0444 59.3193L54.0727 66.1943C54.0727 66.3882 54.2314 66.541 54.4194 66.541H55.5946C55.7885 66.541 55.9413 66.3823 55.9413 66.1943L54.913 59.3193C54.913 59.1254 54.7544 58.9727 54.5663 58.9727Z" fill="#BFD2EF"/>
<path d="M49.7068 40.9685C49.8419 40.9685 49.9536 41.0802 49.9536 41.2153V42.2906C49.9536 42.4258 49.8419 42.5374 49.7068 42.5374H46.3516V40.9685H49.7068ZM49.7068 40.7922H46.1753V42.7137H49.7068C49.9418 42.7137 50.1299 42.5257 50.1299 42.2906V41.2153C50.1299 40.9803 49.9418 40.7922 49.7068 40.7922Z" fill="#BFD2EF"/>
<path d="M51.2522 42.8899C51.3873 42.8899 51.499 43.0015 51.499 43.1367V44.212C51.499 44.3472 51.3873 44.4588 51.2522 44.4588H47.897V42.8899H51.2522ZM51.2522 42.7136H47.7207V44.6351H51.2522C51.4872 44.6351 51.6753 44.447 51.6753 44.212V43.1367C51.6753 42.9017 51.4872 42.7136 51.2522 42.7136Z" fill="#BFD2EF"/>
<path d="M49.9421 44.8115C50.0773 44.8115 50.1889 44.9232 50.1889 45.0583V46.1336C50.1889 46.2688 50.0773 46.3804 49.9421 46.3804H46.5869V44.8115H49.9421ZM49.9421 44.6353H46.4106V46.5567H49.9421C50.1772 46.5567 50.3652 46.3687 50.3652 46.1336V45.0583C50.3652 44.8233 50.1772 44.6353 49.9421 44.6353Z" fill="#BFD2EF"/>
<path d="M62.9517 82.8704H62.5168V46.9856H40.1116V82.8704H39.6768V46.7682C39.6768 46.6507 39.7766 46.5508 39.8942 46.5508H62.7342C62.8518 46.5508 62.9517 46.6507 62.9517 46.7682V82.8704Z" fill="#BFD2EF"/>
<path d="M59.2673 46.686H58.8325V82.8705H59.2673V46.686Z" fill="#BFD2EF"/>
<path d="M62.7341 56.2578H39.894V56.6926H62.7341V56.2578Z" fill="#BFD2EF"/>
<path d="M62.7341 66.541H39.894V66.9758H62.7341V66.541Z" fill="#BFD2EF"/>
<path d="M55.7242 50.7346V52.3035H50.9353C50.8001 52.3035 50.6885 52.1919 50.6885 52.0567V50.9814C50.6885 50.8463 50.8001 50.7346 50.9353 50.7346H55.7242ZM55.9005 50.5583H50.9353C50.7002 50.5583 50.5122 50.7464 50.5122 50.9814V52.0567C50.5122 52.2918 50.7002 52.4798 50.9353 52.4798H55.9005V50.5583Z" fill="#BFD2EF"/>
<path d="M50.9353 50.5583H55.9005V52.4798H50.9353C50.7002 52.4798 50.5122 52.2918 50.5122 52.0567V50.9814C50.5122 50.7464 50.7002 50.5583 50.9353 50.5583Z" fill="#F3F8FF"/>
<path d="M55.7242 50.7346V52.3035H50.9353C50.8001 52.3035 50.6885 52.1919 50.6885 52.0567V50.9814C50.6885 50.8463 50.8001 50.7346 50.9353 50.7346H55.7242ZM55.9005 50.5583H50.9353C50.7002 50.5583 50.5122 50.7464 50.5122 50.9814V52.0567C50.5122 52.2918 50.7002 52.4798 50.9353 52.4798H55.9005V50.5583Z" fill="#BFD2EF"/>
<path d="M55.7242 50.7346V52.3035H50.9353C50.8001 52.3035 50.6885 52.1919 50.6885 52.0567V50.9814C50.6885 50.8463 50.8001 50.7346 50.9353 50.7346H55.7242ZM55.9005 50.5583H50.9353C50.7002 50.5583 50.5122 50.7464 50.5122 50.9814V52.0567C50.5122 52.2918 50.7002 52.4798 50.9353 52.4798H55.9005V50.5583Z" fill="#BFD2EF"/>
<path d="M55.2012 50.6406H59.9255V52.3976H55.2012C55.0073 52.3976 54.8545 52.2389 54.8545 52.0509V50.9873C54.8545 50.7934 55.0132 50.6406 55.2012 50.6406Z" fill="white"/>
<path d="M60.4017 52.4798H55.2308C54.9781 52.4798 54.7783 52.2741 54.7783 52.0273V51.0167C54.7783 50.764 54.984 50.5642 55.2308 50.5642H60.4017C60.4487 50.5642 60.4839 50.5995 60.4839 50.6465C60.4839 50.6935 60.4487 50.7287 60.4017 50.7287H55.2308C55.0662 50.7287 54.937 50.858 54.937 51.0225V52.0332C54.937 52.1977 55.0662 52.327 55.2308 52.327H60.4017C60.4487 52.327 60.4839 52.3623 60.4839 52.4093C60.4839 52.4563 60.4487 52.4915 60.4017 52.4915V52.4798Z" fill="#BFD2EF"/>
<path d="M47.4152 62.9331V64.502H42.6262C42.4911 64.502 42.3794 64.3904 42.3794 64.2552V63.1799C42.3794 63.0448 42.4911 62.9331 42.6262 62.9331H47.4152ZM47.5914 62.7568H42.6262C42.3912 62.7568 42.2031 62.9449 42.2031 63.1799V64.2552C42.2031 64.4903 42.3912 64.6783 42.6262 64.6783H47.5914V62.7568Z" fill="#BFD2EF"/>
<path d="M42.6262 62.7568H47.5914V64.6783H42.6262C42.3912 64.6783 42.2031 64.4903 42.2031 64.2552V63.1799C42.2031 62.9449 42.3912 62.7568 42.6262 62.7568Z" fill="#F3F8FF"/>
<path d="M47.4152 62.9331V64.502H42.6262C42.4911 64.502 42.3794 64.3904 42.3794 64.2552V63.1799C42.3794 63.0448 42.4911 62.9331 42.6262 62.9331H47.4152ZM47.5914 62.7568H42.6262C42.3912 62.7568 42.2031 62.9449 42.2031 63.1799V64.2552C42.2031 64.4903 42.3912 64.6783 42.6262 64.6783H47.5914V62.7568Z" fill="#BFD2EF"/>
<path d="M47.4152 62.9331V64.502H42.6262C42.4911 64.502 42.3794 64.3904 42.3794 64.2552V63.1799C42.3794 63.0448 42.4911 62.9331 42.6262 62.9331H47.4152ZM47.5914 62.7568H42.6262C42.3912 62.7568 42.2031 62.9449 42.2031 63.1799V64.2552C42.2031 64.4903 42.3912 64.6783 42.6262 64.6783H47.5914V62.7568Z" fill="#BFD2EF"/>
<path d="M46.8921 62.8391H51.6164V64.596H46.8921C46.6982 64.596 46.5454 64.4374 46.5454 64.2494V63.1858C46.5454 62.9919 46.7041 62.8391 46.8921 62.8391Z" fill="white"/>
<path d="M52.0926 64.6783H46.9217C46.669 64.6783 46.4692 64.4726 46.4692 64.2258V63.2151C46.4692 62.9625 46.6749 62.7627 46.9217 62.7627H52.0926C52.1396 62.7627 52.1748 62.798 52.1748 62.845C52.1748 62.892 52.1396 62.9272 52.0926 62.9272H46.9217C46.7572 62.9272 46.6279 63.0565 46.6279 63.221V64.2317C46.6279 64.3962 46.7572 64.5255 46.9217 64.5255H52.0926C52.1396 64.5255 52.1748 64.5608 52.1748 64.6078C52.1748 64.6548 52.1396 64.69 52.0926 64.69V64.6783Z" fill="#BFD2EF"/>
<path d="M60.0546 54.5479C60.1897 54.5479 60.3014 54.6595 60.3014 54.7947V55.87C60.3014 56.0051 60.1897 56.1168 60.0546 56.1168H55.2656V54.5479H60.0546ZM60.0546 54.3716H55.0894V56.293H60.0546C60.2896 56.293 60.4777 56.105 60.4777 55.87V54.7947C60.4777 54.5596 60.2896 54.3716 60.0546 54.3716Z" fill="#BFD2EF"/>
<path d="M60.055 56.2932H55.0897V54.3718H60.055C60.29 54.3718 60.478 54.5598 60.478 54.7948V55.8701C60.478 56.1052 60.29 56.2932 60.055 56.2932Z" fill="#F3F8FF"/>
<path d="M60.0546 54.5479C60.1897 54.5479 60.3014 54.6595 60.3014 54.7947V55.87C60.3014 56.0051 60.1897 56.1168 60.0546 56.1168H55.2656V54.5479H60.0546ZM60.0546 54.3716H55.0894V56.293H60.0546C60.2896 56.293 60.4777 56.105 60.4777 55.87V54.7947C60.4777 54.5596 60.2896 54.3716 60.0546 54.3716Z" fill="#BFD2EF"/>
<path d="M60.0546 54.5479C60.1897 54.5479 60.3014 54.6595 60.3014 54.7947V55.87C60.3014 56.0051 60.1897 56.1168 60.0546 56.1168H55.2656V54.5479H60.0546ZM60.0546 54.3716H55.0894V56.293H60.0546C60.2896 56.293 60.4777 56.105 60.4777 55.87V54.7947C60.4777 54.5596 60.2896 54.3716 60.0546 54.3716Z" fill="#BFD2EF"/>
<path d="M55.7944 56.2109H51.0701V54.454H55.7944C55.9883 54.454 56.1411 54.6127 56.1411 54.8007V55.8643C56.1411 56.0582 55.9825 56.2109 55.7944 56.2109Z" fill="white"/>
<path d="M50.5945 54.3716H55.7654C56.018 54.3716 56.2178 54.5773 56.2178 54.8241V55.8347C56.2178 56.0874 56.0122 56.2872 55.7654 56.2872H50.5945C50.5475 56.2872 50.5122 56.2519 50.5122 56.2049C50.5122 56.1579 50.5475 56.1227 50.5945 56.1227H55.7654C55.9299 56.1227 56.0592 55.9934 56.0592 55.8289V54.8182C56.0592 54.6537 55.9299 54.5244 55.7654 54.5244H50.5945C50.5475 54.5244 50.5122 54.4891 50.5122 54.4421C50.5122 54.3951 50.5475 54.3599 50.5945 54.3599V54.3716Z" fill="#BFD2EF"/>
<path d="M49.7068 40.9685C49.8419 40.9685 49.9536 41.0802 49.9536 41.2153V42.2906C49.9536 42.4258 49.8419 42.5374 49.7068 42.5374H46.3516V40.9685H49.7068ZM49.7068 40.7922H46.1753V42.7137H49.7068C49.9418 42.7137 50.1299 42.5257 50.1299 42.2906V41.2153C50.1299 40.9803 49.9418 40.7922 49.7068 40.7922Z" fill="#BFD2EF"/>
<path d="M46.8809 42.6316H40.1411V40.8747H46.8809C47.0748 40.8747 47.2275 41.0333 47.2275 41.2213V42.2849C47.2275 42.4788 47.0689 42.6316 46.8809 42.6316Z" fill="white"/>
<path d="M46.8511 42.7137H39.6648C39.6178 42.7137 39.5825 42.6785 39.5825 42.6314C39.5825 42.5844 39.6178 42.5492 39.6648 42.5492H46.8511C47.0157 42.5492 47.1449 42.4199 47.1449 42.2554V41.2447C47.1449 41.0802 47.0157 40.9509 46.8511 40.9509H39.6648C39.6178 40.9509 39.5825 40.9157 39.5825 40.8686C39.5825 40.8216 39.6178 40.7864 39.6648 40.7864H46.8511C47.1038 40.7864 47.3036 40.992 47.3036 41.2388V42.2495C47.3036 42.5022 47.0979 42.702 46.8511 42.702V42.7137Z" fill="#BFD2EF"/>
<path d="M51.2522 42.8899C51.3873 42.8899 51.499 43.0015 51.499 43.1367V44.212C51.499 44.3472 51.3873 44.4588 51.2522 44.4588H47.897V42.8899H51.2522ZM51.2522 42.7136H47.7207V44.6351H51.2522C51.4872 44.6351 51.6753 44.447 51.6753 44.212V43.1367C51.6753 42.9017 51.4872 42.7136 51.2522 42.7136Z" fill="#BFD2EF"/>
<path d="M48.4199 44.553H41.6801V42.7961H48.4199C48.6138 42.7961 48.7666 42.9547 48.7666 43.1427V44.2063C48.7666 44.4002 48.608 44.553 48.4199 44.553Z" fill="white"/>
<path d="M48.3966 44.6351H41.2102C41.1632 44.6351 41.1279 44.5998 41.1279 44.5528C41.1279 44.5058 41.1632 44.4706 41.2102 44.4706H48.3966C48.5611 44.4706 48.6904 44.3413 48.6904 44.1768V43.1661C48.6904 43.0016 48.5611 42.8723 48.3966 42.8723H41.2102C41.1632 42.8723 41.1279 42.837 41.1279 42.79C41.1279 42.743 41.1632 42.7078 41.2102 42.7078H48.3966C48.6492 42.7078 48.849 42.9134 48.849 43.1602V44.1709C48.849 44.4236 48.6434 44.6233 48.3966 44.6233V44.6351Z" fill="#BFD2EF"/>
<path d="M47.1099 46.4744H40.3701V44.7174H47.1099C47.3038 44.7174 47.4565 44.8761 47.4565 45.0641V46.1277C47.4565 46.3216 47.2979 46.4744 47.1099 46.4744Z" fill="white"/>
<path d="M47.086 46.5567H39.8997C39.8526 46.5567 39.8174 46.5215 39.8174 46.4745C39.8174 46.4275 39.8526 46.3922 39.8997 46.3922H47.086C47.2447 46.3922 47.3798 46.2629 47.3798 46.0984V45.0877C47.3798 44.9232 47.2506 44.7939 47.086 44.7939H39.8997C39.8526 44.7939 39.8174 44.7587 39.8174 44.7117C39.8174 44.6647 39.8526 44.6294 39.8997 44.6294H47.086C47.3387 44.6294 47.5385 44.8351 47.5385 45.0818V46.0925C47.5385 46.3452 47.3328 46.545 47.086 46.545V46.5567Z" fill="#BFD2EF"/>
<path d="M84.0351 58.3015L83.144 58.2645C83.5301 48.5177 83.8049 38.6376 83.9608 28.8983C83.9757 28.1577 83.998 27.3874 84.0277 26.6023C84.1985 22.0326 84.3916 16.8482 81.3469 11.6415C80.3667 9.96766 78.332 6.48667 74.0621 4.56102C69.4283 2.46502 62.292 2.36874 57.5765 7.07918C52.7051 11.9452 53.9972 18.722 54.1606 19.4774L53.2918 19.6626C53.121 18.8553 51.7397 11.6489 56.9453 6.44964C61.9652 1.43554 69.5323 1.53923 74.4334 3.75373C78.9632 5.79788 81.1761 9.58253 82.1192 11.1971C85.2901 16.626 85.0896 21.9437 84.9188 26.6394C84.8891 27.417 84.8594 28.1725 84.852 28.9131C84.696 38.6599 84.4213 48.5473 84.0351 58.3015Z" fill="white"/>
<path d="M47 23.815C47 23.9719 47.0078 24.1446 47.0235 24.3015H59.9765C59.9843 24.1446 60 23.9719 60 23.815C60 20.2208 57.0946 17.3015 53.5 17.3015C49.9054 17.3015 47 20.2208 47 23.815Z" fill="white"/>
<path d="M62.581 67.3597L60.4774 77.7485C60.4245 78.007 60.5949 78.2655 60.8535 78.3184C61.1003 78.3654 61.3412 78.2185 61.4117 77.9835L64.4496 67.8239C64.6024 67.3127 64.3144 66.7779 63.8032 66.6252C63.292 66.4724 62.7573 66.7603 62.6045 67.2715C62.5986 67.3009 62.5869 67.3303 62.581 67.3538V67.3597Z" fill="#BFD2EF"/>
<path d="M69.8852 64.7095L67.7816 75.0983C67.7287 75.3569 67.8991 75.6154 68.1577 75.6683C68.4045 75.7153 68.6454 75.5684 68.7159 75.3334L71.7538 65.1737C71.9066 64.6625 71.6186 64.1278 71.1074 63.975C70.5962 63.8222 70.0615 64.1102 69.9087 64.6214C69.9029 64.6508 69.8911 64.6801 69.8852 64.7036V64.7095Z" fill="#BFD2EF"/>
<path d="M79.357 67.8237L82.3949 77.9834C82.4712 78.236 82.7415 78.3829 82.9942 78.3065C83.2351 78.236 83.3762 77.9892 83.3291 77.7483L81.2255 67.3595C81.1198 66.8366 80.6085 66.5016 80.0915 66.6074C79.5685 66.7132 79.2336 67.2244 79.3393 67.7415C79.3393 67.7708 79.3511 67.8002 79.3628 67.8237H79.357Z" fill="#BFD2EF"/>
<path d="M82.1011 65.1736L85.139 75.3332C85.2154 75.5859 85.4857 75.7328 85.7383 75.6564C85.9793 75.5859 86.1203 75.3391 86.0733 75.0982L83.9697 64.7094C83.8639 64.1864 83.3527 63.8515 82.8356 63.9572C82.3126 64.063 81.9777 64.5742 82.0835 65.0913C82.0835 65.1207 82.0952 65.1501 82.107 65.1736H82.1011Z" fill="#BFD2EF"/>
<path d="M85.8676 39.6246C85.9499 39.6011 87.3895 39.2309 88.4942 40.2534C89.4872 41.1818 89.358 42.4627 89.3462 42.5979L87.9712 61.2836H84.5103C84.9627 54.062 85.421 46.8404 85.8735 39.6187L85.8676 39.6246Z" fill="#BFD2EF"/>
<path d="M69.133 58.3987C69.133 58.3987 69.227 61.2662 69.227 61.2897C68.9273 64.7213 66.5123 67.4948 63.3099 68.335C63.2628 68.3468 63.2158 68.3585 63.163 68.3703C62.211 67.959 61.5706 67.0364 61.4824 66.0199L61.547 65.1208L61.8526 61.0488C61.9701 59.5563 63.2158 58.3987 64.7142 58.3987H69.1271H69.133Z" fill="#F3F8FF"/>
<path d="M69.1327 58.3987L69.1092 61.2897C68.8448 64.7565 66.5355 67.4948 63.3096 68.335L63.8678 61.0488C63.9853 59.5563 65.231 58.3987 66.7294 58.3987H69.1327Z" fill="#BFD2EF"/>
<path d="M85.1332 61.2895H69.127V42.5979C69.127 40.6647 70.4784 39.2368 71.8828 39.7128C73.8571 40.3827 76.3368 40.9056 79.1926 40.8175C81.5136 40.747 83.5526 40.2828 85.2507 39.7128C86.4142 39.3191 87.5483 40.2475 87.8891 41.6813C88.0007 42.1396 87.989 42.6214 87.9185 43.0915L85.1332 61.2836V61.2895Z" fill="#F3F8FF"/>
<path d="M85.133 61.3777H69.1326C69.0856 61.3777 69.0444 61.3365 69.0444 61.2895V42.5979C69.0444 41.4697 69.5086 40.4355 70.2549 39.8949C70.7602 39.5306 71.3537 39.4366 71.9119 39.6246C74.2917 40.4297 76.742 40.7998 79.1864 40.7293C81.2137 40.6647 83.2409 40.2945 85.2152 39.6246C85.6971 39.4601 86.1965 39.5071 86.6549 39.7598C87.2836 40.1065 87.7654 40.7998 87.9711 41.6577C88.071 42.0867 88.0827 42.5744 88.0004 43.1032L85.2152 61.2954C85.2093 61.3365 85.1741 61.3718 85.1271 61.3718L85.133 61.3777ZM69.2207 61.2014H85.0624L87.8359 43.0797C87.9123 42.5744 87.9064 42.1102 87.8065 41.7048C87.6126 40.8939 87.1661 40.2416 86.5785 39.9184C86.1671 39.6893 85.7147 39.6481 85.2799 39.795C83.2879 40.4708 81.243 40.841 79.1982 40.9056C76.7303 40.982 74.2623 40.6059 71.859 39.795C71.3537 39.6246 70.819 39.7128 70.3607 40.0418C69.6614 40.5472 69.2207 41.5226 69.2207 42.5979V61.2014Z" fill="#BFD2EF"/>
<path d="M80.5324 61.2896L79.9918 68.5935H64.2793C63.8739 68.5935 63.4978 68.5112 63.1629 68.3643C62.211 67.953 61.5705 67.0304 61.4823 66.0139C61.4471 65.7201 61.4706 65.4145 61.547 65.1149C61.6116 64.8328 61.7291 64.5508 61.8995 64.2805L63.7798 61.2837H80.5265L80.5324 61.2896Z" fill="#F3F8FF"/>
<path d="M80.5321 61.2896H63.7913L62.7395 64.2628C62.1519 65.9199 63.5915 67.5887 65.5953 67.5887H78.3227C79.5449 67.5887 80.5321 66.7366 80.5321 65.679V61.2837V61.2896Z" fill="#BFD2EF"/>
<path d="M88.1711 58.3987L87.9537 61.2133C87.6893 64.6801 85.239 67.4948 82.013 68.335C81.3608 68.5054 80.6909 68.5936 79.9917 68.5936L80.5675 61.0488C80.6851 59.5563 81.9308 58.3987 83.4292 58.3987H88.177H88.1711Z" fill="#F3F8FF"/>
<path d="M88.1713 58.3987L87.9538 61.2133C87.6894 64.6801 85.2391 67.4948 82.0132 68.335L82.5714 61.0488C82.6889 59.5563 83.9346 58.3987 85.433 58.3987H88.1713Z" fill="#BFD2EF"/>
<path d="M44.7772 58.9571L46.8808 69.3459C46.9337 69.6044 46.7633 69.863 46.5047 69.9158C46.2579 69.9629 46.017 69.816 45.9465 69.5809L42.9086 59.4213C42.7558 58.9101 43.0438 58.3754 43.555 58.2226C44.0662 58.0698 44.6009 58.3577 44.7537 58.8689C44.7596 58.8983 44.7713 58.9277 44.7772 58.9512V58.9571Z" fill="#BFD2EF"/>
<path d="M37.473 56.3069L39.5766 66.6957C39.6295 66.9543 39.4591 67.2128 39.2005 67.2657C38.9537 67.3127 38.7128 67.1658 38.6423 66.9308L35.6044 56.7711C35.4516 56.2599 35.7396 55.7252 36.2508 55.5724C36.762 55.4197 37.2967 55.7076 37.4495 56.2188C37.4553 56.2482 37.4671 56.2775 37.473 56.3011V56.3069Z" fill="#BFD2EF"/>
<path d="M28.0012 59.4211L24.9633 69.5808C24.8869 69.8334 24.6166 69.9803 24.364 69.9039C24.123 69.8334 23.982 69.5866 24.029 69.3457L26.1326 58.9569C26.2384 58.434 26.7496 58.099 27.2667 58.2048C27.7897 58.3106 28.1246 58.8218 28.0188 59.3389C28.0188 59.3683 28.0071 59.3976 27.9953 59.4211H28.0012Z" fill="#BFD2EF"/>
<path d="M25.2507 56.771L22.2128 66.9306C22.1364 67.1833 21.8661 67.3302 21.6135 67.2538C21.3725 67.1833 21.2315 66.9365 21.2785 66.6956L23.3821 56.3068C23.4879 55.7838 23.9991 55.4489 24.5162 55.5547C25.0392 55.6604 25.3741 56.1716 25.2683 56.6887C25.2683 56.7181 25.2566 56.7475 25.2448 56.771H25.2507Z" fill="#BFD2EF"/>
<path d="M21.4903 31.2223C21.408 31.1988 19.9684 30.8286 18.8637 31.851C17.8706 32.7794 17.9999 34.0604 18.0117 34.1955L19.3867 52.8813H22.8476C22.3952 45.6596 21.9369 38.438 21.4844 31.2164L21.4903 31.2223Z" fill="#BFD2EF"/>
<path d="M38.2195 49.9961C38.2195 49.9961 38.1255 52.8636 38.1255 52.8871C38.4252 56.3187 40.8402 59.0922 44.0426 59.9324C44.0896 59.9442 44.1366 59.9559 44.1895 59.9677C45.1414 59.5564 45.7819 58.6338 45.8701 57.6173L45.8054 56.7183L45.4999 52.6462C45.3824 51.1537 44.1366 49.9961 42.6383 49.9961H38.2254H38.2195Z" fill="#F3F8FF"/>
<path d="M22.2189 52.8872H38.2252V34.1956C38.2252 32.2624 36.8737 30.8345 35.4693 31.3104C33.495 31.9803 31.0153 32.5033 28.1595 32.4151C25.8385 32.3446 23.7995 31.8804 22.1014 31.3104C20.9379 30.9167 19.8039 31.8452 19.463 33.2789C19.3514 33.7372 19.3631 34.2191 19.4337 34.6891L22.2189 52.8813V52.8872Z" fill="#F3F8FF"/>
<path d="M38.2193 52.9751H22.213C22.1719 52.9751 22.1307 52.9457 22.1249 52.8987L19.3396 34.7065C19.2574 34.1777 19.2691 33.69 19.3749 33.261C19.5805 32.4031 20.0624 31.7097 20.6911 31.3631C21.1494 31.1104 21.6489 31.0634 22.1307 31.2279C24.1051 31.8978 26.1323 32.268 28.1595 32.3326C30.6098 32.409 33.0542 32.0388 35.434 31.2338C35.9981 31.0458 36.5857 31.1398 37.0911 31.5041C37.8373 32.0388 38.3015 33.073 38.3015 34.2012V52.8928C38.3015 52.9398 38.2604 52.9809 38.2134 52.9809L38.2193 52.9751ZM22.2953 52.7988H38.137V34.1953C38.137 33.12 37.7022 32.1446 36.9971 31.6392C36.5387 31.3102 36.004 31.222 35.4987 31.3924C33.0954 32.2033 30.6216 32.5794 28.1595 32.503C26.1147 32.4384 24.0698 32.0682 22.0778 31.3924C21.643 31.2455 21.1964 31.2867 20.7792 31.5158C20.1916 31.839 19.7451 32.4913 19.5512 33.3021C19.4513 33.7076 19.4454 34.1718 19.5218 34.6771L22.2953 52.7988Z" fill="#BFD2EF"/>
<path d="M26.8257 52.887L27.3663 60.1909H43.0787C43.4842 60.1909 43.8603 60.1086 44.1952 59.9617C45.1471 59.5504 45.7876 58.6278 45.8757 57.6113C45.911 57.3175 45.8875 57.0119 45.8111 56.7123C45.7465 56.4302 45.6289 56.1482 45.4585 55.8779L43.5782 52.8811H26.8316L26.8257 52.887Z" fill="#F3F8FF"/>
<path d="M26.8257 52.887V57.2822C26.8257 58.334 27.8187 59.1919 29.0351 59.1919H41.7625C42.0798 59.1919 42.3795 59.1508 42.6557 59.0744C43.872 58.7512 44.7182 57.7699 44.7534 56.677L44.7005 56.1775C44.6946 56.0776 44.6594 55.9719 44.6241 55.8602L43.5723 52.887H26.8316H26.8257Z" fill="#BFD2EF"/>
<path d="M19.1812 49.9961L19.3986 52.8107C19.663 56.2776 22.1133 59.0922 25.3392 59.9324C25.9915 60.1028 26.6613 60.191 27.3606 60.191L26.7847 52.6462C26.6672 51.1537 25.4215 49.9961 23.9231 49.9961H19.1753H19.1812Z" fill="#F3F8FF"/>
<path d="M19.1812 49.9961L19.3986 52.8107C19.663 56.2776 22.1133 59.0922 25.3392 59.9324L24.781 52.6462C24.6635 51.1537 23.4178 49.9961 21.9194 49.9961H19.1812Z" fill="#BFD2EF"/>
<path d="M38.2192 49.99L38.2428 52.8869C38.4895 55.5663 40.1525 57.811 42.6439 59.0684C43.8602 58.7453 44.7064 57.764 44.7416 56.671L44.6887 56.1716L44.3714 52.646C44.2363 51.1476 42.779 49.99 41.0221 49.99H38.2134H38.2192Z" fill="#BFD2EF"/>
<path d="M16.0477 99.7403H40.8967L34.0869 94.647H11.7324L16.0477 99.7403Z" fill="#21111D"/>
<path d="M16.2801 98.8741H41.1291L34.3193 93.7808H11.9648L16.2801 98.8741Z" fill="#A6C5FF"/>
<path d="M21.6381 98.425H32.7231L31.2553 97.1978H20.4189L21.6381 98.425Z" fill="white"/>
<path d="M20.4914 89.6339L20.1706 91.8798L15.2056 92.5215L14.9971 89.0645L20.4914 89.6339Z" fill="#FEBBBA"/>
<path d="M30.3896 89.313L29.3789 93.0828L24.8872 93.5962V90.0509L30.3896 89.313Z" fill="#FEBBBA"/>
<path d="M24.903 92.7141C25.1838 92.4334 27.0526 92.666 27.59 92.1045C27.8307 91.4548 27.7344 90.9254 28.1916 90.5003C28.5044 90.2036 29.2825 90.1875 29.6033 90.2116C30.3092 90.2757 30.4616 90.6928 30.5257 91.0297C30.9027 93.1392 34.6645 94.3504 34.849 95.4894C34.9132 95.8744 34.7849 96.2674 34.456 96.492C34.1111 96.7326 33.6298 96.7808 33.0604 96.7647C32.6513 96.7487 33.1566 96.8048 27.5178 96.6604C26.4831 96.6364 26.026 96.5883 24.3175 96.508C24.1892 96.1792 24.0688 95.6979 24.2533 95.1685C24.4218 94.6793 24.7987 92.8104 24.887 92.7221L24.903 92.7141Z" fill="#21111D"/>
<path d="M13.6014 48.3179C13.2003 49.4729 12.8073 50.6279 12.4062 51.7829C10.3448 57.7505 9.91973 64.1753 11.2271 70.3595C12.5827 76.7682 14.1468 83.169 15.0371 89.5777L20.4914 89.6419L22.5447 61.0471L24.8949 90.059L30.3973 89.321C31.6165 84.7571 32.7073 79.4232 33.333 73.4155C34.2714 64.3919 33.8784 56.4672 33.1003 50.1547C29.0899 48.9916 25.0794 47.8286 21.0689 46.6655L13.6094 48.3179H13.6014Z" fill="#21111D"/>
<path d="M20.2109 91.222C20.7243 91.615 20.0665 92.4171 20.0184 93.7005C19.9703 95.2004 20.8125 95.6576 20.3473 96.2672C19.9462 96.7966 19.0158 96.8447 17.6522 96.9169C16.4972 96.981 15.2058 97.0532 14.6845 96.4196C14.4198 96.0987 14.4599 95.7217 14.524 95.1843C14.6203 94.286 14.9812 94.2298 15.1497 93.4037C15.3662 92.3128 14.893 91.599 15.4224 91.2621C15.6069 91.1498 15.663 91.23 15.9357 91.0856C16.5052 90.7808 16.401 90.3557 16.8582 90.091C17.2031 89.8905 17.7084 89.8905 18.0533 90.0028C18.6308 90.1873 18.5666 90.6204 19.2484 90.9493C19.7537 91.1899 19.9462 91.0295 20.2029 91.222H20.2109Z" fill="#21111D"/>
<path d="M28.1672 29.3403L42.9258 25.1454L42.4445 30.9365L33.5092 24.0706C32.7472 23.485 32.6028 22.3862 33.1883 21.6242C33.6776 20.9825 34.5278 20.782 35.2337 21.0707L45.6529 25.3619C47.1849 25.9956 47.9228 27.7522 47.2892 29.2922C46.9924 30.0141 46.447 30.5595 45.7893 30.8643L45.1716 31.1531L31.2793 37.6581C29.0495 38.7008 26.3945 37.7383 25.3518 35.5085C24.3091 33.2786 25.2716 30.6237 27.5014 29.581C27.718 29.4847 27.9586 29.3965 28.1752 29.3323L28.1672 29.3403Z" fill="#2E4B9F"/>
<path d="M16.4649 38.7167L6.24617 27.7039L5.78897 27.2066C4.68207 26.0115 4.74624 24.1426 5.94137 23.0357C6.32637 22.6747 6.79159 22.4421 7.27285 22.3298L18.2937 19.7391C19.2321 19.5225 20.1706 20.1 20.3871 21.0385C20.5716 21.8245 20.1946 22.6106 19.5128 22.9715L9.53476 28.3375L10.5614 22.9635L22.4485 32.1475C24.3976 33.6555 24.7586 36.4548 23.2506 38.4039C21.7427 40.353 18.9434 40.7139 16.9943 39.206C16.8018 39.0616 16.6093 38.8771 16.4488 38.7087L16.4649 38.7167Z" fill="#2E4B9F"/>
<path d="M34.2954 58.1919C31.6886 58.9379 28.1995 59.6598 24.0526 59.732C18.3096 59.8362 13.6334 58.6652 10.5533 57.6144C10.4892 53.7323 10.8261 50.6602 11.1309 48.6069C11.7244 44.6445 12.5827 42.0938 12.8634 37.2813C12.9677 35.5247 12.9677 34.0889 12.9436 33.1505C15.406 32.2842 19.6732 29.7817 19.6732 29.7817C19.6732 29.7817 27.63 29.0036 30.9026 28.5544C31.1432 29.2362 31.3437 29.8458 31.472 30.5517C31.5924 31.1933 31.6325 31.7307 31.6405 32.0355C31.6405 32.1719 31.6405 32.2681 31.6405 32.2842C31.6565 33.5435 34.0708 45.3263 34.4318 52.0318C34.504 53.3954 34.5521 55.529 34.2794 58.1839L34.2954 58.1919Z" fill="#2E4B9F"/>
<path d="M29.499 30.8322C29.5712 33.0219 25.681 35.0513 25.681 35.0513C25.681 35.0513 20.4754 31.6183 21.9032 29.0275C22.1117 28.6425 22.3122 28.2254 22.4807 27.7682C22.6571 27.303 22.7935 26.7977 22.8817 26.2522C22.8978 26.1239 22.9218 25.9956 22.9379 25.8672C23.0903 24.616 22.9539 23.5331 22.7694 22.7391C22.7213 22.5305 22.6812 22.338 22.6251 22.1696C22.601 22.0573 22.5689 21.961 22.5368 21.8648L22.994 21.8086L29.4669 21.1028C29.4268 21.2792 29.4028 21.4477 29.3627 21.6402C29.114 23.1562 28.9295 25.0812 29.0819 27.303C29.1541 28.3377 29.2744 29.3082 29.4429 30.1905C29.4429 30.1905 29.4429 30.1986 29.4509 30.1986C29.491 30.4071 29.507 30.6237 29.507 30.8322H29.499Z" fill="#FEBBBA"/>
<path d="M29.4988 30.8322C29.4106 30.8723 29.3144 30.8963 29.2261 30.9124C26.884 31.4979 24.0045 29.8777 22.4805 27.7601C22.6569 27.2949 22.7933 26.7896 22.8815 26.2442C22.8976 26.1158 22.9216 25.9875 22.9377 25.8592C23.0901 24.6079 22.9537 23.5251 22.7692 22.731C22.7211 22.5224 22.681 22.3299 22.6249 22.1615L29.3625 21.6401C29.1138 23.1561 28.9293 25.0811 29.0817 27.3029C29.1539 28.3376 29.2742 29.3082 29.4427 30.1905C29.4427 30.1905 29.4427 30.1985 29.4507 30.1985C29.4908 30.4071 29.5068 30.6236 29.5068 30.8322H29.4988Z" fill="#E59CA9"/>
<path d="M31.1432 24.1345C31.1752 24.9366 31.3036 27.9766 29.2823 29.2519C27.9668 30.0781 26.4028 29.7412 25.6568 29.5727C24.951 29.4203 23.0741 29.0033 22.1998 27.4151C21.2774 25.7387 22.0554 23.8377 22.4966 22.771C23.1864 21.0946 25.2558 17.5493 27.6941 17.9263C30.0202 18.2872 31.063 21.9608 31.1512 24.1345H31.1432Z" fill="#FEBBBA"/>
<path d="M26.4191 24.9927C26.4592 25.1451 26.371 25.2894 26.2186 25.3295C26.0662 25.3696 25.9218 25.2814 25.8817 25.129C25.8416 24.9766 25.9299 24.8322 26.0823 24.7921C26.2347 24.752 26.379 24.8403 26.4191 24.9927Z" fill="#21111D"/>
<path d="M28.9938 25.7147C29.058 25.859 28.9938 26.0195 28.8494 26.0836C28.705 26.1478 28.5446 26.0836 28.4804 25.9392C28.4163 25.7949 28.4804 25.6345 28.6248 25.5703C28.7692 25.5061 28.9296 25.5703 28.9938 25.7147Z" fill="#21111D"/>
<path d="M26.748 24.343C26.748 24.343 26.7079 24.343 26.6839 24.327C26.5716 24.2548 26.4593 24.2067 26.3309 24.1746C26.0502 24.1024 25.8016 24.1345 25.6411 24.1746C25.577 24.1906 25.5128 24.1585 25.4968 24.0944C25.4807 24.0302 25.5128 23.966 25.577 23.95C25.7695 23.8938 26.0582 23.8537 26.3951 23.942C26.5395 23.9821 26.6839 24.0382 26.8122 24.1184C26.8684 24.1505 26.8844 24.2307 26.8523 24.2869C26.8282 24.327 26.7881 24.343 26.748 24.343Z" fill="#21111D"/>
<path d="M30.0041 25.2574C30.0041 25.2574 29.948 25.2494 29.9239 25.2253C29.8277 25.1371 29.7234 25.0649 29.6031 25.0167C29.3384 24.8964 29.0817 24.8884 28.9213 24.8964C28.8571 24.8964 28.793 24.8563 28.793 24.7841C28.793 24.72 28.8331 24.6558 28.9053 24.6558C29.0978 24.6398 29.4026 24.6478 29.7154 24.7922C29.8517 24.8563 29.9801 24.9446 30.0924 25.0408C30.1405 25.0889 30.1485 25.1611 30.1004 25.2092C30.0763 25.2333 30.0442 25.2494 30.0121 25.2494L30.0041 25.2574Z" fill="#21111D"/>
<path d="M27.3815 27.4549C27.3334 27.4549 27.2853 27.4229 27.2692 27.3747C27.2452 27.3106 27.2772 27.2464 27.3414 27.2223C27.4858 27.1742 27.6061 27.1341 27.6783 27.11C27.8066 27.0699 27.8868 27.0379 27.9671 26.9817C28.0232 26.9416 28.0392 26.9175 28.0392 26.9015C28.0713 26.8453 28.0553 26.7812 28.0473 26.7491C28.0232 26.6368 27.9269 26.5566 27.8227 26.4603C27.7264 26.3721 27.6302 26.2919 27.566 26.1716C27.4457 25.947 27.4778 25.6342 27.6703 25.2572C27.7024 25.193 27.7745 25.177 27.8307 25.2011C27.8868 25.2331 27.9109 25.3053 27.8868 25.3615C27.7344 25.6663 27.7024 25.8989 27.7826 26.0513C27.8227 26.1315 27.9029 26.2037 27.9831 26.2759C28.1034 26.3801 28.2398 26.5085 28.2799 26.693C28.2879 26.7411 28.32 26.8694 28.2478 27.0058C28.2317 27.0459 28.1916 27.094 28.1034 27.1662C27.9911 27.2544 27.8868 27.2865 27.7585 27.3266C27.6703 27.3587 27.55 27.3908 27.4136 27.4469C27.3976 27.4469 27.3895 27.4469 27.3735 27.4469L27.3815 27.4549Z" fill="#21111D"/>
<path d="M25.7292 28.0246C25.641 28.2091 25.7052 28.4177 25.8656 28.4979C26.026 28.5781 26.2346 28.4979 26.3228 28.3054C26.411 28.1209 26.3469 27.9124 26.1864 27.8321C26.026 27.7519 25.8175 27.8321 25.7292 28.0246Z" fill="#21111D"/>
<path d="M21.8633 22.1453C21.8633 22.9955 22.2723 23.6853 22.7857 23.6853C23.299 23.6853 23.7161 23.0035 23.7241 22.1533C23.7241 21.3031 23.3151 20.6133 22.8017 20.6133C22.2884 20.6133 21.8713 21.2951 21.8633 22.1453Z" fill="#FEBBBA"/>
<path d="M26.1627 19.3461C26.4514 19.3461 26.5316 20.06 27.3177 21.3273C28.0716 22.5385 28.3845 22.4903 28.4486 22.4743C28.7213 22.4021 28.7695 21.8166 28.9459 21.8326C29.1063 21.8486 29.0582 22.3299 29.379 22.5064C29.5876 22.6267 29.9084 22.5866 30.0448 22.4262C30.2213 22.2096 30.0608 21.8406 30.133 21.8085C30.1972 21.7845 30.2935 22.1133 30.5501 22.3219C30.8629 22.5786 31.4324 22.6588 31.6731 22.4422C32.0741 22.0893 31.6249 20.9904 31.288 20.1562C30.8068 18.9691 30.5662 18.3756 30.0608 17.9424C28.6812 16.7473 26.3712 17.1243 24.9435 17.8783C24.39 18.167 23.636 18.4959 23.2109 19.314C22.7457 20.2124 22.7377 21.5439 23.3232 21.8486C23.8606 22.1374 24.7189 21.4636 24.7911 21.4075C25.8097 20.6054 25.7696 19.3381 26.1546 19.3461H26.1627Z" fill="#21111D"/>
<path d="M35.2098 21.1027C34.151 20.7177 33.9344 20.8059 33.397 19.7472C33.0361 19.0333 32.7954 18.3675 32.635 17.7981C32.1538 17.5013 31.48 17.1724 30.6458 16.9398C29.3224 16.5708 28.1754 16.627 27.4615 16.7232C27.4214 16.7634 27.1567 17.0922 27.261 17.389C27.3652 17.6777 27.7823 17.7579 27.9668 17.79C28.416 17.8702 28.5924 17.7018 28.7849 17.8382C29.0015 17.9986 28.8652 18.3114 28.9775 18.6804C29.1539 19.2659 29.7395 19.3621 30.3009 19.8033C31.079 20.4129 30.9586 21.0145 31.5442 21.9208C31.9131 22.5064 32.0334 23.2523 33.4211 23.8459C33.774 23.2924 34.8408 21.6561 35.1937 21.1027H35.2098Z" fill="#FEBBBA"/>
<path d="M31.6326 19.1775C31.6326 19.1775 31.6085 19.1775 31.6005 19.1775C31.432 19.1294 31.2716 19.0572 31.1272 18.969C30.7904 18.7685 30.6139 18.5439 30.4535 18.3514C30.3492 18.215 30.253 18.1027 30.1246 18.0145C29.8359 17.814 29.4027 17.7979 28.8332 17.9664C28.7691 17.9824 28.7049 17.9503 28.6808 17.8862C28.6648 17.822 28.6969 17.7578 28.761 17.7338C29.4027 17.5493 29.908 17.5734 30.261 17.814C30.4214 17.9263 30.5257 18.0626 30.638 18.207C30.7904 18.3995 30.9428 18.592 31.2395 18.7685C31.3759 18.8487 31.5203 18.9129 31.6646 18.953C31.7288 18.969 31.7609 19.0412 31.7449 19.1054C31.7288 19.1535 31.6807 19.1936 31.6326 19.1936V19.1775Z" fill="#E59CA9"/>
<path d="M18.478 19.6993C19.601 19.6672 19.7854 19.8196 20.6276 18.9854C21.1971 18.424 21.6303 17.8625 21.9591 17.3732C22.5126 17.2449 23.2505 17.1406 24.1168 17.1887C25.4884 17.2609 26.5551 17.67 27.2048 17.9908C27.2289 18.0389 27.3813 18.44 27.1808 18.6806C26.9883 18.9212 26.5632 18.8651 26.3787 18.841C25.9295 18.7769 25.8092 18.5603 25.5926 18.6325C25.336 18.7127 25.368 19.0576 25.1435 19.3704C24.7905 19.8677 24.205 19.7795 23.5312 20.0121C22.6008 20.341 22.5206 20.9506 21.6864 21.6243C21.149 22.0575 20.7961 22.7392 19.2962 22.8595C19.1357 22.2259 18.6384 20.3329 18.478 19.6993Z" fill="#FEBBBA"/>
<path d="M22.5525 19.0174C22.5525 19.0174 22.5204 19.0174 22.5124 19.0174C22.4482 19.0174 22.3921 18.9612 22.3921 18.8971C22.3921 18.8329 22.4482 18.7768 22.5124 18.7768C22.6728 18.7768 22.8252 18.7687 22.9776 18.7366C23.3145 18.6645 23.5231 18.5281 23.7316 18.3917C23.884 18.2875 24.0284 18.1912 24.2129 18.1431C24.6219 18.0228 25.1112 18.1591 25.6566 18.5361C25.7128 18.5762 25.7208 18.6484 25.6887 18.7046C25.6486 18.7607 25.5764 18.7767 25.5203 18.7366C25.031 18.3998 24.6139 18.2795 24.277 18.3757C24.1246 18.4158 24.0043 18.504 23.8599 18.5923C23.6514 18.7286 23.4108 18.889 23.0258 18.9693C22.8734 19.0013 22.7129 19.0174 22.5525 19.0174Z" fill="#E59CA9"/>
<path d="M71.1881 99.5608H48.9614L55.0551 95.0081H75.0405L71.1881 99.5608Z" fill="#21111D"/>
<path d="M70.9782 98.79H48.7593L54.8529 94.2373H74.8383L70.9782 98.79Z" fill="#A6C5FF"/>
<path d="M66.193 98.3855H56.2695L57.5849 97.2881H67.2748L66.193 98.3855Z" fill="white"/>
<path d="M70.9864 94.3541C70.963 94.9689 70.8229 95.8484 70.2236 96.9225C69.8267 96.9225 68.9472 96.9069 67.7797 96.8992C66.1687 96.8992 65.7873 96.8992 65.5071 96.6423C64.9623 96.152 65.2892 95.1713 65.5304 94.4708C65.725 93.8949 65.9351 93.5836 66.1531 93.2333C66.2854 93.0076 66.4255 92.7663 66.55 92.4239C66.6668 92.1048 66.7446 91.8401 66.7991 91.5677C66.7991 91.5055 66.8224 91.4432 66.8224 91.3809C66.838 91.3809 66.8458 91.3809 66.8613 91.3809C67.1182 91.4199 67.3828 91.3965 67.6786 91.4043C68.9083 91.4666 69.9045 91.1942 70.5505 90.9529C70.6206 91.521 70.6828 91.9569 70.7373 92.3227C70.893 93.3501 70.9864 93.7703 70.9708 94.3385L70.9864 94.3541Z" fill="#21111D"/>
<path d="M70.7448 92.3386C70.13 93.327 69.3906 94.2921 68.2542 94.4945C68.0363 94.5334 67.4993 94.619 66.9856 94.3466C66.5419 94.1053 66.3085 93.6928 66.145 93.2336C66.2462 93.0546 66.6276 91.9961 66.791 91.5758C66.8299 91.4669 66.8533 91.3968 66.8533 91.3968C67.1101 91.4357 67.3747 91.4124 67.6705 91.4202C68.9002 91.4824 69.8965 91.21 70.5425 90.9688C70.6125 91.5369 70.6748 91.9728 70.7292 92.3386H70.7448Z" fill="#FEBBBA"/>
<path d="M60.9156 94.3541C60.8922 94.9689 60.7521 95.8484 60.1528 96.9225C59.7559 96.9225 58.8764 96.9069 57.7089 96.8992C56.0979 96.8992 55.7165 96.8992 55.4363 96.6423C54.8915 96.152 55.2184 95.1713 55.4596 94.4708C55.6542 93.8949 55.8644 93.5836 56.0823 93.2333C56.2146 93.0076 56.3547 92.7663 56.4792 92.4239C56.596 92.1048 56.6738 91.8401 56.7283 91.5677C56.7283 91.5055 56.7516 91.4432 56.7516 91.3809C56.7672 91.3809 56.775 91.3809 56.7905 91.3809C57.0474 91.4199 57.312 91.3965 57.6078 91.4043C58.8375 91.4666 59.8337 91.1942 60.4797 90.9529C60.5498 91.521 60.612 91.9569 60.6665 92.3227C60.8222 93.3501 60.9156 93.7703 60.9 94.3385L60.9156 94.3541Z" fill="#21111D"/>
<path d="M60.6818 92.3386C60.0669 93.327 59.3276 94.2921 58.1912 94.4945C57.9733 94.5334 57.4363 94.619 56.9226 94.3466C56.479 94.1053 56.2455 93.6928 56.082 93.2336C56.1832 93.0546 56.5646 91.9961 56.728 91.5758C56.7669 91.4669 56.7903 91.3968 56.7903 91.3968C57.0471 91.4357 57.3118 91.4124 57.6075 91.4202C58.8372 91.4824 59.8335 91.21 60.4795 90.9688C60.5495 91.5369 60.6118 91.9728 60.6663 92.3386H60.6818Z" fill="#FEBBBA"/>
<path d="M62.3393 34.0165L54.7747 47.4413L54.4712 47.9705C54.3701 48.1417 54.23 48.2818 54.0743 48.3829L46.86 52.7178C46.1362 53.1536 45.2023 52.9201 44.7665 52.1964C44.4474 51.6671 44.4864 51.0134 44.821 50.5309L49.6461 43.6356L48.9457 44.5773L54.9382 30.3821C55.8254 28.2808 58.2457 27.3003 60.347 28.1875C62.4483 29.0747 63.4289 31.495 62.5417 33.5963C62.4794 33.7441 62.4094 33.8842 62.3315 34.0165H62.3393Z" fill="#FFC466"/>
<path d="M80.1458 30.7711L83.2354 45.1142L82.3638 43.6511L88.0839 51.6048C88.5742 52.2819 88.4185 53.2313 87.7337 53.7216C87.2045 54.103 86.5196 54.0874 86.006 53.7528L77.8577 48.3206C77.5386 48.1027 77.3129 47.7992 77.1962 47.4567L76.9861 46.8575L72.2077 32.9814C71.4683 30.8256 72.6123 28.4753 74.7681 27.736C76.9238 26.9967 79.2741 28.1407 80.0135 30.2964C80.068 30.4443 80.1146 30.6233 80.1458 30.7711Z" fill="#FFC466"/>
<path d="M75.5155 56.5547H54.5418C54.2694 55.5352 54.0281 54.0332 54.4017 52.3444C54.8064 50.5311 55.6391 49.8229 56.3162 47.9706C57.0633 45.9316 56.9699 44.3051 56.9699 42.8809C56.9699 40.3594 57.3901 35.8845 58.6431 27.8685C61.9506 27.8685 65.0169 26.8257 68.3245 26.8257C71.3052 26.8257 73.2897 27.5183 76.2704 27.5183C76.6828 35.9078 76.9319 40.6006 76.0058 42.8809C75.6711 43.7136 74.9007 45.3246 75.1341 47.4181C75.3443 49.3559 76.2315 50.0563 76.4494 51.9552C76.5817 53.146 76.4494 54.6869 75.5233 56.5469L75.5155 56.5547Z" fill="#FFC466"/>
<path d="M54.5414 56.5547C54.2457 57.8699 53.8721 59.8233 53.7009 62.2125C53.2339 68.7576 54.6815 72.82 55.5764 78.5713C56.0823 81.8399 56.5415 86.486 56.2146 92.2762H60.9541L64.752 69.9872L66.4019 92.2762H71.297C71.476 87.0152 72.1687 82.875 72.7368 80.1511C74.2933 72.7033 76.5502 68.0494 76.0288 60.4615C75.912 58.7649 75.6863 57.3952 75.5307 56.5547H54.5569H54.5414Z" fill="#333261"/>
<path d="M63.6471 62.3528C63.6082 62.3528 63.5693 62.3295 63.546 62.2984C63.1023 61.5901 62.5731 60.9285 61.9738 60.3526C61.0943 59.4964 60.0747 58.8038 58.9462 58.2979C58.8839 58.2745 58.8605 58.2045 58.8839 58.1422C58.9072 58.0799 58.9773 58.0566 59.0396 58.0799C60.1992 58.6014 61.2344 59.3097 62.1372 60.1814C62.6898 60.7184 63.1801 61.3177 63.6004 61.9559C63.7794 61.4189 64.0363 60.913 64.3632 60.4693C65.5851 58.8115 67.4609 58.3523 68.2158 58.2356C68.2781 58.2278 68.3403 58.2667 68.3481 58.329C68.3559 58.3912 68.317 58.4535 68.2547 58.4613C67.5309 58.578 65.7252 59.0139 64.5578 60.6016C64.1997 61.092 63.9273 61.6524 63.7561 62.2594C63.7405 62.3061 63.7094 62.3373 63.6627 62.3451C63.6627 62.3451 63.6549 62.3451 63.6471 62.3451V62.3528Z" fill="#081A3C"/>
<path d="M64.7443 70.1045C64.6898 70.1045 64.6353 70.0656 64.6276 70.0033L63.5301 62.2591C63.5224 62.1969 63.5691 62.1346 63.6313 62.1268C63.7014 62.119 63.7559 62.1657 63.7637 62.228L64.8611 69.9722C64.8689 70.0344 64.8222 70.0967 64.7599 70.1045C64.7599 70.1045 64.7521 70.1045 64.7443 70.1045Z" fill="#081A3C"/>
<path d="M62.8299 29.7206C62.5031 29.4716 62.0128 29.1058 62.005 28.5999C62.005 28.0785 62.5653 27.9618 62.5731 27.3781C62.5731 26.7866 62.1684 26.3041 61.6548 25.6815C61.1411 25.0745 61.0555 25.1523 60.6586 24.6542C60.2539 24.1484 59.7169 23.4635 59.787 22.7086C59.857 22.0004 60.3862 22.0471 60.7442 21.0977C61.1411 20.0626 60.7364 19.6268 61.1489 18.9497C61.4213 18.4905 61.9739 18.2882 62.5031 18.2104C63.0323 18.1325 63.5693 18.1637 64.0829 18.0158C64.83 17.8057 65.4293 17.2687 66.1063 16.8874C66.7834 16.506 67.6784 16.3037 68.301 16.7706C68.6512 17.0352 68.8458 17.471 69.1571 17.7823C69.7719 18.3971 70.0987 18.1248 70.5501 18.5761C71.0871 19.1054 70.6824 20.1404 71.1338 21.3934C71.4295 22.2183 71.8109 22.1716 72.4568 23.0978C72.6202 23.3234 74.2935 25.7827 73.3829 27.6349C72.7837 28.8568 71.235 29.4482 70.3244 29.5961C69.6551 29.7128 68.5578 29.7128 66.9391 30.2498C66.9001 30.2654 66.8768 30.2732 66.869 30.2732C64.4175 30.9036 62.8299 29.7128 62.8299 29.7128V29.7206Z" fill="#21111D"/>
<path d="M67.7565 32.8264L67.2584 32.7875C64.7912 32.4996 63.2346 30.2191 63.865 28.0632C63.865 28.0632 63.8676 28.058 63.8728 28.0476C63.9117 27.9387 63.935 27.8375 63.9661 27.7207C64.0595 27.3938 64.1374 27.0358 64.223 26.6778C64.3086 26.2887 64.3865 25.8839 64.4487 25.4636C64.5732 24.7165 64.6433 24.0004 64.6822 23.3389L70.7374 23.9148C70.7219 24.1561 70.7141 24.4051 70.7374 24.6698C70.7374 24.7865 70.7452 24.9033 70.7608 25.0356C70.8075 25.5026 70.8931 25.9462 71.0254 26.3587C71.0332 26.421 71.0565 26.4754 71.0799 26.5377C71.2044 26.9424 71.3601 27.3005 71.5313 27.6429C72.7532 30.1101 70.7452 32.9276 67.7643 32.8264H67.7565Z" fill="#FEBBBA"/>
<path d="M71.0256 26.3587C70.8777 26.8179 70.6286 27.2693 70.2395 27.6351C69.0876 28.7325 67.3675 28.5535 66.5503 28.4679C65.9354 28.3978 64.8458 28.2889 63.9663 27.7129C64.0597 27.386 64.1375 27.028 64.2232 26.67C64.3088 26.2808 64.3866 25.8761 64.4489 25.4558C64.5734 24.7087 64.6434 23.9926 64.6824 23.3311L70.7376 23.907C70.722 24.1483 70.7142 24.3973 70.7376 24.662C70.7376 24.7787 70.7454 24.8955 70.7609 25.0278C70.8076 25.4948 70.8933 25.9384 71.0256 26.3509V26.3587Z" fill="#E59CA9"/>
<path d="M62.2544 22.5302C62.0832 23.5186 61.6784 25.8224 63.1027 27.1455C64.2469 28.204 65.9202 28.0328 66.753 27.9472C67.578 27.8616 69.2903 27.6826 70.1931 26.375C71.166 24.9663 70.5745 23.1606 70.2165 22.0632C70.1386 21.8141 68.5353 17.0664 65.9358 17.2143C63.7721 17.3389 62.5657 20.7712 62.2544 22.538V22.5302Z" fill="#FEBBBA"/>
<path d="M67.2503 24.3273C67.2036 24.4518 67.2737 24.5919 67.406 24.6308C67.5383 24.6698 67.6784 24.5997 67.7251 24.4752C67.7718 24.3507 67.7017 24.2106 67.5694 24.1716C67.4371 24.1327 67.297 24.2028 67.2503 24.3273Z" fill="#21111D"/>
<path d="M64.2075 24.8176C64.1297 24.9344 64.1686 25.0822 64.2853 25.1523C64.4021 25.2223 64.5577 25.1834 64.6356 25.0745C64.7134 24.9577 64.6745 24.8098 64.5577 24.7398C64.441 24.6697 64.2853 24.7087 64.2075 24.8176Z" fill="#21111D"/>
<path d="M67.0092 23.7593C66.9703 23.7593 66.9236 23.736 66.908 23.6971C66.8769 23.6426 66.9081 23.5725 66.9548 23.5414C67.0793 23.4791 67.2116 23.4324 67.3439 23.4091C67.6552 23.3468 67.9198 23.4013 68.0833 23.4558C68.1456 23.4791 68.1767 23.5414 68.1611 23.6037C68.1378 23.6659 68.0755 23.6971 68.0132 23.6815C67.8731 23.6348 67.6474 23.5881 67.3906 23.6426C67.2739 23.6659 67.1649 23.7048 67.0637 23.7593C67.0481 23.7671 67.0248 23.7749 67.0092 23.7749V23.7593Z" fill="#21111D"/>
<path d="M63.7093 24.2417C63.7093 24.2417 63.6315 24.2261 63.6081 24.1872C63.577 24.1328 63.5926 24.0627 63.6471 24.0238C63.7638 23.946 63.8883 23.8915 64.0207 23.8526C64.2619 23.7825 64.5188 23.7747 64.7678 23.8292C64.8301 23.8448 64.869 23.907 64.8534 23.9693C64.8379 24.0316 64.7756 24.0705 64.7134 24.0549C64.5032 24.0082 64.2853 24.016 64.0829 24.0705C63.974 24.1016 63.865 24.1483 63.7638 24.2106C63.7483 24.2261 63.7249 24.2261 63.7015 24.2261L63.7093 24.2417Z" fill="#21111D"/>
<path d="M66.021 26.4133C66.021 26.4133 65.9976 26.4133 65.9899 26.4133C65.8575 26.3822 65.7564 26.351 65.6863 26.3355C65.554 26.3043 65.4606 26.281 65.3516 26.2109C65.266 26.1565 65.2271 26.1098 65.2115 26.0786C65.1415 25.9619 65.1649 25.8373 65.1726 25.7984C65.2038 25.6272 65.3205 25.5105 65.4295 25.4093C65.4995 25.3392 65.5696 25.277 65.6007 25.2069C65.663 25.0746 65.624 24.88 65.4762 24.631C65.445 24.5765 65.4606 24.5064 65.5151 24.4675C65.5696 24.4364 65.6396 24.452 65.6785 24.5064C65.8653 24.8256 65.912 25.098 65.8109 25.3081C65.7564 25.4171 65.6708 25.5027 65.5929 25.5805C65.5073 25.6661 65.4217 25.744 65.4061 25.8374C65.4061 25.8607 65.3906 25.9152 65.4217 25.9541C65.4295 25.9697 65.4528 25.9852 65.484 26.0086C65.5618 26.0553 65.6241 26.0708 65.733 26.102C65.8186 26.1253 65.9198 26.1487 66.0599 26.1876C66.1222 26.2032 66.1611 26.2654 66.1455 26.3277C66.13 26.3822 66.0833 26.4133 66.0288 26.4133H66.021Z" fill="#21111D"/>
<path d="M66.1143 27.6352C65.7251 27.6352 65.4449 27.4406 65.3904 27.3939C65.336 27.355 65.3282 27.2849 65.3671 27.2304C65.406 27.176 65.4761 27.1682 65.5305 27.2071C65.5928 27.2538 65.9041 27.4717 66.3322 27.3705C66.7525 27.2771 66.9471 26.9425 66.986 26.8724C67.0171 26.8179 67.0872 26.7946 67.1416 26.8257C67.1961 26.8568 67.2195 26.9269 67.1883 26.9814C67.1416 27.067 66.9081 27.4795 66.3789 27.5962C66.2855 27.6196 66.1999 27.6274 66.1143 27.6274V27.6352Z" fill="#21111D"/>
<path d="M71.2048 21.1291C71.0647 20.7788 69.1968 17.1286 68.364 16.7394C67.4923 16.3347 66.0602 16.576 65.1885 16.8406C64.1066 17.1675 63.1415 17.8213 62.5344 18.6852C61.8962 19.5958 61.6705 20.6854 61.4837 21.7517C61.3748 22.3588 61.2736 22.9659 61.3203 23.5807C61.367 24.1878 61.5849 24.8105 62.0363 25.2697C62.1142 24.8027 62.2932 24.0711 62.7446 23.3472C62.9236 23.0593 63.3828 22.3432 64.1611 21.9074C64.4802 21.7284 64.6514 21.6272 65.1729 21.3859C65.5232 21.2302 67.6012 19.8993 67.6791 20.2807C67.7802 20.7477 68.1538 21.0512 68.3328 21.4793C68.5196 21.9307 68.364 21.993 68.543 22.7479C68.7531 23.6041 69.2045 24.3513 69.3758 24.289C69.477 24.2501 69.3758 23.9543 69.5003 23.4796C69.6248 23.0359 69.9284 22.4211 70.4109 22.3043C70.6133 22.2576 70.8312 22.281 71.0102 22.1564C71.2904 21.9696 71.3449 21.4793 71.197 21.1291H71.2048Z" fill="#21111D"/>
<path d="M48.6585 51.6363C48.1682 51.2471 47.6779 50.858 47.1875 50.461C46.6894 50.0641 46.2069 49.6594 45.7243 49.2625C45.5609 49.3714 44.9149 49.7761 44.2533 50.0952C44.0821 50.1809 43.7863 50.3132 43.3894 50.4688C43.3116 50.5 43.2337 50.5233 43.1403 50.5544C42.471 50.7724 42.3153 50.7257 42.183 50.858C41.9807 51.0681 41.9962 51.5507 42.2064 51.7686C42.5099 52.0799 43.3271 51.932 44.1988 51.3016C44.1132 52.15 43.7863 52.6092 43.5606 52.8505C43.3038 53.1229 42.9925 53.2941 42.5488 53.5354C42.1285 53.7689 41.7316 54.0568 41.3113 54.2825C41.1946 54.3448 41 54.446 41 54.5861C41 54.7184 41.1946 54.8274 41.3113 54.8896C41.4281 54.9519 41.646 55.0453 41.9573 55.0375C41.9262 55.1309 41.8873 55.3021 41.9807 55.4266C42.0974 55.5823 42.3542 55.5667 42.6422 55.5356C42.8757 55.5123 43.2259 55.45 43.6385 55.271C43.6229 55.3255 43.6151 55.4111 43.654 55.4967C43.654 55.4967 43.6929 55.5979 43.8097 55.6757C44.1054 55.8703 44.6113 55.6524 45.1172 55.3255C45.1717 55.45 45.2418 55.559 45.3507 55.5979C45.6854 55.7146 46.1524 55.1465 46.5026 54.7262C46.9073 54.2358 48.1993 52.3912 48.6585 51.6519V51.6363Z" fill="#FEBBBA"/>
<path d="M43.8019 55.2393C43.7552 55.2393 43.7163 55.2159 43.693 55.1692C43.6696 55.107 43.693 55.0447 43.7552 55.0136C43.9965 54.9046 44.23 54.7801 44.4557 54.64C44.8137 54.4065 45.1406 54.1263 45.4286 53.7994C45.4753 53.7527 45.5453 53.7449 45.592 53.7916C45.6387 53.8383 45.6465 53.9084 45.5998 53.9551C45.2963 54.2975 44.9538 54.5933 44.5802 54.8346C44.3468 54.9824 44.1055 55.1148 43.8486 55.2315C43.8331 55.2315 43.8175 55.2393 43.8019 55.2393Z" fill="#E59CA9"/>
<path d="M45.1872 55.395C45.1872 55.395 45.1171 55.3794 45.0938 55.3483C45.0548 55.3016 45.0626 55.2237 45.1093 55.1848C45.3195 55.0214 45.5063 54.8346 45.6853 54.64C45.7865 54.5233 45.8876 54.3987 45.981 54.2664C46.02 54.2119 46.09 54.2042 46.1445 54.2431C46.199 54.282 46.2067 54.352 46.1678 54.4065C46.0666 54.5388 45.9655 54.6711 45.8565 54.7957C45.6697 54.998 45.4674 55.1926 45.2572 55.3638C45.2339 55.3794 45.2105 55.3872 45.1872 55.3872V55.395Z" fill="#E59CA9"/>
<path d="M42.2529 55.0451C42.2062 55.0451 42.1595 55.014 42.144 54.9673C42.1206 54.905 42.1518 54.8427 42.214 54.8194C42.502 54.7182 42.79 54.5859 43.0624 54.4458C43.6617 54.1189 44.2065 53.6986 44.6813 53.1849C44.7279 53.1382 44.798 53.1382 44.8447 53.1849C44.8914 53.2316 44.8914 53.3017 44.8447 53.3484C44.3544 53.8776 43.7862 54.3213 43.1636 54.6559C42.8834 54.8038 42.5876 54.9361 42.2841 55.0451C42.2685 55.0451 42.2607 55.0451 42.2452 55.0451H42.2529Z" fill="#E59CA9"/>
<path d="M91.0889 52.8813C90.622 52.7412 90.1861 52.5389 89.7269 52.391C89.2521 52.2431 88.9097 52.1341 88.5984 51.9162C88.326 51.7294 87.9212 51.3403 87.6644 50.523C88.6451 50.9667 89.4779 50.9511 89.7113 50.5853C89.8748 50.3362 89.797 49.8537 89.5557 49.6902C89.4 49.5813 89.2521 49.6591 88.5594 49.5813C88.466 49.5735 88.3804 49.5579 88.2948 49.5424C88.2326 49.5346 87.7656 49.4645 87.3764 49.3556C86.8238 49.1999 86.3413 48.9509 86.0611 48.803C85.5785 49.2544 85.0804 49.7447 84.5745 50.2973C84.0764 50.8344 83.6327 51.3636 83.228 51.8695C83.4615 52.0797 83.6795 52.2587 83.9052 52.4377C83.9052 52.4377 83.8974 52.4377 83.8896 52.4299C84.7302 53.3249 85.454 53.9398 85.9677 54.3367C86.3335 54.6169 86.7538 54.9205 87.1974 54.8037C87.3608 54.7648 87.4776 54.6714 87.5788 54.578C87.6255 54.6092 88.1158 54.8893 88.5984 54.6636C88.8163 54.5625 88.9486 54.399 89.0109 54.3056C89.7581 54.5391 90.3807 54.4301 90.5675 54.0955C90.6064 54.0254 90.6375 53.9165 90.6142 53.7452C90.9566 53.8542 91.2835 53.7686 91.4236 53.5507C91.4937 53.4417 91.5404 53.2549 91.4625 53.107C91.3769 52.9436 91.1823 52.8969 91.0967 52.8735L91.0889 52.8813Z" fill="#FEBBBA"/>
<path d="M87.4463 54.4845C87.4463 54.4845 87.3996 54.4845 87.3762 54.4611C86.9637 54.1732 86.5667 53.8463 86.1932 53.5038C85.9986 53.3248 85.8196 53.138 85.6406 52.9512C85.5939 52.9045 85.6017 52.8267 85.6406 52.7878C85.6873 52.7411 85.7651 52.7489 85.804 52.7878C85.9752 52.9746 86.162 53.1536 86.3488 53.3326C86.7069 53.6673 87.096 53.9864 87.5007 54.2744C87.5552 54.3133 87.563 54.3833 87.5319 54.4378C87.5085 54.4689 87.4696 54.4845 87.4385 54.4845H87.4463Z" fill="#E59CA9"/>
<path d="M88.8314 54.2822C88.8314 54.2822 88.7925 54.2822 88.7691 54.2667C88.5356 54.1188 88.2943 53.9631 88.0686 53.8075C87.3292 53.2938 86.6288 52.7178 85.9828 52.0952C85.9361 52.0485 85.9361 51.9785 85.9828 51.9318C86.0295 51.8851 86.0995 51.8851 86.1462 51.9318C86.7844 52.5466 87.4771 53.1148 88.201 53.6207C88.4267 53.7763 88.6602 53.932 88.8936 54.0721C88.9481 54.1032 88.9637 54.1811 88.9326 54.2355C88.9092 54.2745 88.8703 54.29 88.8314 54.29V54.2822Z" fill="#E59CA9"/>
<path d="M90.318 53.6285C90.318 53.6285 90.2947 53.6285 90.2869 53.6285C89.602 53.4262 88.9482 53.1304 88.3489 52.7413C87.9286 52.4689 87.5239 52.1498 87.1659 51.7917C87.1192 51.745 87.1192 51.675 87.1659 51.6283C87.2126 51.5816 87.2826 51.5816 87.3293 51.6283C87.6796 51.9707 88.061 52.2821 88.4735 52.5467C89.0494 52.9203 89.6798 53.2083 90.3492 53.4028C90.4114 53.4184 90.4426 53.4884 90.427 53.5507C90.4114 53.6052 90.3647 53.6363 90.318 53.6363V53.6285Z" fill="#E59CA9"/>
<path d="M56.9773 43.4575C56.9773 43.4575 56.9229 43.4498 56.8995 43.4264C56.8528 43.3875 56.845 43.3097 56.8917 43.263C57.4521 42.617 57.8101 41.9165 57.958 41.1849C58.137 40.282 57.9502 39.5893 57.7634 38.9278C57.6622 38.562 57.5533 38.1806 57.5222 37.7759C57.3821 36.2271 58.3005 34.5381 60.2385 32.7558C60.2852 32.7091 60.363 32.7169 60.4019 32.7558C60.4486 32.8025 60.4408 32.8803 60.4019 32.9192C58.5184 34.6471 57.6233 36.2738 57.7557 37.7448C57.7868 38.1261 57.888 38.4841 57.9891 38.8577C58.1837 39.5504 58.3783 40.2665 58.1915 41.2238C58.0358 42.0021 57.6545 42.7337 57.0707 43.4108C57.0474 43.4342 57.0162 43.4498 56.9851 43.4498L56.9773 43.4575Z" fill="#EDAD48"/>
<path d="M71.7492 43.5113C71.7492 43.5113 71.7181 43.5113 71.7025 43.5035C69.6789 42.6863 67.4841 42.3438 65.3593 42.5306C63.9817 42.6474 62.6352 42.9743 61.3432 43.5035C61.281 43.5269 61.2187 43.5035 61.1876 43.4413C61.1642 43.379 61.1876 43.3167 61.2498 43.2856C62.5652 42.7486 63.935 42.4139 65.336 42.2894C67.4997 42.1026 69.7334 42.445 71.7881 43.2856C71.8504 43.3089 71.8737 43.379 71.8504 43.4413C71.8348 43.488 71.7881 43.5113 71.7414 43.5113H71.7492Z" fill="#EDAD48"/>
<path d="M75.5235 43.1228C75.4691 43.1228 75.4224 43.0839 75.4068 43.0294C75.0877 41.1926 74.7608 39.3558 74.4261 37.5035C74.1926 36.2037 73.9514 34.9117 73.7179 33.6197C73.7023 33.5574 73.749 33.4952 73.8113 33.4874C73.8813 33.4718 73.9358 33.5185 73.9436 33.5808C74.1849 34.8728 74.4183 36.1648 74.6518 37.4645C74.9865 39.3169 75.3134 41.1537 75.6403 42.9905C75.6481 43.0528 75.6092 43.1151 75.5469 43.1228C75.5469 43.1228 75.5313 43.1228 75.5235 43.1228Z" fill="#EDAD48"/>
</svg>
