<svg width="23" height="24" viewBox="0 0 23 24" fill="none" xmlns="http://www.w3.org/2000/svg">
<g clip-path="url(#clip0_1214_3758)">
<path d="M1.70996 6.83004C2.15996 5.81004 2.82996 4.93004 3.59996 4.13004C5.98996 1.64004 8.89996 0.410037 12.36 0.510037C14.96 0.590037 17.28 1.46004 19.25 3.19004C19.51 3.41004 19.58 3.54004 19.29 3.82004C18.36 4.70004 17.47 5.62004 16.57 6.52004C16.46 6.63004 16.39 6.76004 16.2 6.58004C14.44 4.88004 10.89 4.35004 8.19996 6.16004C6.93996 7.00004 6.02996 8.09004 5.50996 9.51004C5.48996 9.57004 5.44996 9.62004 5.42996 9.67004C5.17996 9.49004 4.91996 9.30004 4.66996 9.12004C3.67996 8.37004 2.73996 7.56004 1.71996 6.84004L1.70996 6.83004Z" fill="#E94436"/>
<path d="M5.40995 14.23C5.81995 15.34 6.41995 16.33 7.29995 17.13C9.66995 19.28 13.05 19.57 15.89 17.88C16.65 18.47 17.4 19.06 18.16 19.64C18.6 19.97 18.99 20.36 19.4799 20.62C19.59 20.78 19.43 20.83 19.35 20.9C17.66 22.33 15.7 23.17 13.51 23.43C10.38 23.8 7.52995 23.07 5.02995 21.15C3.61995 20.07 2.49995 18.71 1.69995 17.1C2.93995 16.14 4.16995 15.19 5.40995 14.23Z" fill="#35A853"/>
<path d="M19.4899 20.6198C18.9899 20.3698 18.5999 19.9798 18.1699 19.6398C17.4099 19.0598 16.6599 18.4698 15.8999 17.8798C15.8599 17.7098 16.0099 17.6798 16.0999 17.6098C17.0599 16.8398 17.6999 15.8598 18.0599 14.6898C18.1499 14.3798 18.1299 14.2798 17.7699 14.2798C15.9599 14.2998 14.1399 14.2798 12.3299 14.2998C12.0399 14.2998 11.9399 14.2398 11.9399 13.9198C11.9599 12.6698 11.9599 11.4098 11.9399 10.1598C11.9399 9.84978 12.0199 9.77979 12.3299 9.77979C15.6499 9.78979 18.9799 9.78979 22.2999 9.77979C22.6299 9.77979 22.7499 9.85979 22.7999 10.1998C23.3199 14.0398 22.5099 17.4698 19.7999 20.3598C19.7099 20.4598 19.5999 20.5298 19.4999 20.6198H19.4899Z" fill="#4385F3"/>
<path d="M5.4099 14.2301C4.1699 15.1901 2.9399 16.1401 1.6999 17.1001C1.1199 16.0601 0.819896 14.9301 0.619896 13.7701C0.219896 11.4201 0.659896 9.1901 1.5899 7.0301C1.6199 6.9701 1.6599 6.9101 1.6999 6.8501C2.7199 7.5601 3.6599 8.3801 4.6499 9.1301C4.8999 9.3201 5.1599 9.5001 5.4099 9.6801C5.1399 10.5901 4.9799 11.5101 5.0499 12.4701C5.0899 13.0801 5.2599 13.6601 5.4099 14.2401V14.2301Z" fill="#FABC07"/>
</g>
<defs>
<clipPath id="clip0_1214_3758">
<rect width="23" height="24" fill="white"/>
</clipPath>
</defs>
</svg>
