<svg width="28" height="25" viewBox="0 0 28 25" fill="none" xmlns="http://www.w3.org/2000/svg">
<path d="M5.43755 1.03189L0.0777588 6.8867L16.5474 10.3745L18.3422 2.88596L5.43755 1.03189Z" fill="#969696"/>
<path opacity="0.44" d="M5.7127 1.45721L0.352905 7.31203L16.8222 10.7999L18.6174 3.31128L5.7127 1.45721ZM16.0849 9.60184L1.70636 6.90014L5.91063 2.11885L17.3631 3.89837L16.0845 9.60222L16.0849 9.60184Z" fill="#5A5A5A"/>
<path d="M16.5474 10.3746L18.3422 2.886L23.6047 2.08533L27.646 8.0788L16.5474 10.3746Z" fill="#797979"/>
<path opacity="0.44" d="M23.5056 2.60532L18.2431 3.40599L16.4479 10.8946L27.5466 8.59879L23.5052 2.60569L23.5056 2.60532ZM19.0441 4.05346L23.302 3.40561L26.0075 8.12018L17.8729 9.89112L19.0441 4.05346Z" fill="#5A5A5A"/>
<path d="M16.4994 10.4286L27.5731 8.00015L27.922 18.8532L16.4994 23.7109V10.4286Z" fill="#797979"/>
<path opacity="0.44" d="M17.7592 13.427C17.9161 13.5116 18.1279 13.4781 18.2509 13.3495C18.3739 13.2209 18.3977 13.0077 18.306 12.8548C18.706 12.9745 19.1417 12.9722 19.5402 12.8477C19.396 12.4989 19.1246 12.204 18.7888 12.0314C18.9423 12.0422 19.0836 11.9114 19.1123 11.7601C19.141 11.6087 19.0728 11.4503 18.9632 11.3418C18.8536 11.2334 18.7079 11.1692 18.5599 11.1268C18.2401 11.0351 17.8688 11.0447 17.6068 11.2498C17.3574 11.4451 17.2541 11.7828 17.2661 12.0996C17.2791 12.4463 17.4103 13.2395 17.7588 13.4274L17.7592 13.427Z" fill="#5A5A5A"/>
<path opacity="0.44" d="M17.5445 20.1053C17.612 19.8771 17.7697 19.6207 18.0071 19.636C18.217 19.6498 18.3482 19.8753 18.3854 20.0821C18.599 19.7504 18.9256 19.4928 19.2979 19.3624C19.3691 19.7262 19.3274 20.1108 19.1805 20.4512C19.3572 20.3699 19.5786 20.3147 19.7355 20.4296C19.8738 20.5306 19.9051 20.727 19.8809 20.8966C19.825 21.2876 19.5473 21.6104 19.2435 21.8632C18.9487 22.1084 18.6076 22.3149 18.2289 22.3746C18.1025 22.3947 17.9698 22.3973 17.8498 22.3533C17.6425 22.2777 17.5046 22.0726 17.4506 21.8587C17.3839 21.594 17.4476 21.3544 17.4547 21.0927C17.464 20.7501 17.4454 20.4404 17.5445 20.1049V20.1053Z" fill="#5A5A5A"/>
<path d="M17.7592 13.2943C17.9161 13.379 18.1279 13.3454 18.2509 13.2168C18.3739 13.0882 18.3977 12.875 18.306 12.7222C18.706 12.8418 19.1417 12.8396 19.5402 12.7151C19.396 12.3662 19.1246 12.0713 18.7888 11.8988C18.9423 11.9096 19.0836 11.7787 19.1123 11.6274C19.141 11.4761 19.0728 11.3176 18.9632 11.2095C18.8536 11.1011 18.7079 11.037 18.5599 10.9945C18.2401 10.9028 17.8688 10.9125 17.6068 11.1175C17.3574 11.3128 17.2541 11.6505 17.2661 11.9673C17.2791 12.314 17.4103 13.1072 17.7588 13.2951L17.7592 13.2943Z" fill="#C5C5C5"/>
<path d="M17.2929 20.1053C17.3604 19.8771 17.5181 19.6207 17.7555 19.636C17.9654 19.6498 18.0966 19.8753 18.1342 20.0821C18.3478 19.7504 18.6743 19.4928 19.0467 19.3624C19.1179 19.7262 19.0762 20.1108 18.9293 20.4512C19.106 20.3699 19.3274 20.3147 19.4843 20.4296C19.6226 20.5306 19.6539 20.727 19.6297 20.8966C19.5738 21.2876 19.2961 21.6104 18.9923 21.8632C18.6974 22.1084 18.3564 22.3149 17.9777 22.3746C17.8513 22.3947 17.7186 22.3973 17.5986 22.3533C17.3913 22.2777 17.2534 22.0726 17.1994 21.8587C17.1326 21.594 17.1964 21.3544 17.2035 21.0927C17.2128 20.7501 17.1941 20.4404 17.2933 20.1049L17.2929 20.1053Z" fill="#C5C5C5"/>
<path opacity="0.44" d="M26.2602 18.8461C26.0645 18.9262 25.8561 18.9941 25.6451 18.9766C25.4342 18.959 25.2198 18.8386 25.1471 18.64C25.0745 18.4413 25.1978 18.1781 25.4081 18.1535C25.0167 18.0376 24.6734 17.7666 24.4698 17.4129C24.8571 17.3141 25.2757 17.3424 25.6463 17.4919C25.4513 17.3208 25.4476 16.9898 25.6116 16.7892C25.7756 16.5883 26.069 16.5197 26.3191 16.5876C26.5696 16.6554 26.7761 16.8418 26.9103 17.064C27.135 17.436 27.1667 17.9183 26.9926 18.3164C26.8186 18.7149 26.4432 19.019 26.0171 19.1066C25.9646 19.1175 25.8822 19.0873 25.909 19.041L26.2598 18.8461H26.2602Z" fill="#5A5A5A"/>
<path opacity="0.44" d="M25.6034 9.32973C25.3764 9.35769 25.1561 9.43895 24.9656 9.56568C24.7901 9.68236 24.6305 9.85829 24.6238 10.0693C24.6171 10.2799 24.8374 10.492 25.032 10.4107C24.7968 10.7682 24.6935 11.2103 24.7464 11.6348C25.1971 11.5592 25.6108 11.2863 25.858 10.9024C25.8278 11.0515 25.9434 11.205 26.0898 11.2464C26.2363 11.2874 26.3977 11.2326 26.5137 11.1339C26.6296 11.0354 26.706 10.8983 26.7664 10.7585C26.8797 10.4946 26.9423 10.2094 26.9498 9.92241C26.9535 9.77554 26.9419 9.62346 26.8745 9.49263C26.7436 9.23841 26.4343 9.12696 26.1484 9.11577C25.8345 9.1031 25.5173 9.18548 25.2485 9.34874L25.6034 9.33011V9.32973Z" fill="#5A5A5A"/>
<path d="M25.7092 9.08596C25.4822 9.11391 25.2619 9.19518 25.0715 9.32191C24.8959 9.43858 24.7364 9.61452 24.7296 9.8255C24.7229 10.0361 24.9432 10.2482 25.1378 10.1669C24.9026 10.5244 24.7993 10.9665 24.8523 11.3911C25.3029 11.3154 25.7167 11.0425 25.9638 10.6586C25.9336 10.8077 26.0492 10.9613 26.1957 11.0026C26.3422 11.0437 26.5036 10.9889 26.6195 10.8901C26.7354 10.7917 26.8122 10.6545 26.8722 10.5147C26.9855 10.2508 27.0482 9.96565 27.0556 9.67863C27.0593 9.53177 27.0478 9.37969 26.9803 9.24885C26.8491 8.99463 26.5401 8.88318 26.2542 8.872C25.9403 8.85933 25.6231 8.9417 25.3544 9.10497L25.7092 9.08633V9.08596Z" fill="#C5C5C5"/>
<path d="M26.3658 18.7414C26.1701 18.8215 25.9617 18.8893 25.7507 18.8718C25.5397 18.8543 25.3254 18.7339 25.2527 18.5352C25.18 18.3365 25.3034 18.0734 25.5137 18.0488C25.1223 17.9329 24.779 17.6619 24.5754 17.3081C24.9627 17.2093 25.3813 17.2377 25.7518 17.3871C25.5569 17.2161 25.5532 16.8851 25.7172 16.6845C25.8812 16.4836 26.1745 16.415 26.4247 16.4829C26.6752 16.5507 26.8817 16.7371 27.0158 16.9592C27.2406 17.3312 27.2723 17.8136 27.0982 18.2117C26.9241 18.6101 26.5488 18.9143 26.1227 19.0019C26.0702 19.0127 25.9878 18.9825 26.0146 18.9363L26.3654 18.7414H26.3658Z" fill="#C5C5C5"/>
<path d="M0.522827 7.15735V16.7203L16.4796 23.9185V10.6366L0.522827 7.15735Z" fill="#969696"/>
<path opacity="0.44" d="M2.17406 15.2423C2.34478 15.3653 2.37012 15.4459 2.42454 15.6494C2.79431 15.4067 3.09848 15.3273 3.53945 15.2942C3.50925 15.643 3.3732 16.0113 3.12159 16.2652C3.31132 16.2566 3.37506 16.2212 3.53497 16.3241C3.72508 16.4463 3.79925 16.6879 3.82162 16.9126C3.85367 17.2347 3.8 17.5806 3.59461 17.8311C3.56442 17.868 3.52864 17.9038 3.48279 17.915C3.4511 17.9228 3.41793 17.918 3.3855 17.9127C2.75965 17.8151 2.14349 17.6555 1.54858 17.4375C1.43936 17.3972 1.32493 17.351 1.25559 17.2574C1.18999 17.1687 1.17657 17.0535 1.16539 16.944C1.12476 16.5488 1.00473 15.9282 1.23584 15.5711C1.42333 15.2811 1.84753 15.0071 2.17406 15.2423Z" fill="#5A5A5A"/>
<path opacity="0.44" d="M13.1882 20.4292C13.0019 20.0881 12.9262 19.6874 12.9754 19.3016C13.4 19.2248 13.8588 19.3739 14.1563 19.6863C14.1354 19.3486 14.4944 19.0444 14.8242 19.1201C15.1832 19.2025 15.3595 19.6058 15.4382 19.9658C15.5243 20.3595 15.5589 20.762 15.582 21.1642C15.5947 21.389 15.6025 21.6227 15.5146 21.8296C15.1884 22.5967 14.157 22.3772 13.6471 21.9563C13.3295 21.6943 12.4867 20.7166 13.1882 20.4292Z" fill="#5A5A5A"/>
<path opacity="0.44" d="M13.3421 11.6024C13.1916 11.8965 13.3261 12.3211 13.6411 12.421C13.3343 12.6167 13.0816 12.8966 12.9183 13.2217C13.3194 13.2828 13.7395 13.2131 14.0996 13.0252C14.1026 13.3003 14.2867 13.565 14.5435 13.6637C14.8004 13.7625 15.1142 13.6891 15.301 13.4867C15.4545 13.3201 15.5168 13.0904 15.5645 12.8687C15.6592 12.4296 15.7069 11.9304 15.4419 11.5674C15.0494 11.0295 13.6728 10.9564 13.3421 11.6024Z" fill="#5A5A5A"/>
<path opacity="0.44" d="M2.1559 10.6109C2.3885 10.5952 2.59575 10.3988 2.62408 10.1673C2.8399 10.3932 3.08517 10.5911 3.35169 10.7544C3.33827 10.461 3.28385 10.1692 3.19029 9.89071C3.49744 9.8471 3.73115 9.51498 3.66778 9.21118C3.66219 9.18509 3.65436 9.15825 3.63535 9.13961C3.6156 9.12023 3.58689 9.11315 3.56006 9.10681C2.91445 8.95622 2.26884 8.80525 1.62287 8.65466C1.58671 9.13663 1.29186 10.6694 2.1559 10.6109Z" fill="#5A5A5A"/>
<path d="M2.02243 15.2423C2.19315 15.3653 2.2185 15.4459 2.27293 15.6494C2.6427 15.4067 2.94686 15.3273 3.38782 15.2942C3.35763 15.643 3.22158 16.0113 2.96997 16.2652C3.1597 16.2566 3.22344 16.2212 3.38335 16.3241C3.57345 16.4463 3.64763 16.6879 3.67 16.9126C3.70206 17.2347 3.64838 17.5806 3.44336 17.8311C3.41317 17.868 3.37739 17.9038 3.33154 17.915C3.29985 17.9228 3.26668 17.918 3.23425 17.9127C2.6084 17.8151 1.99224 17.6555 1.39733 17.4375C1.28812 17.3972 1.17368 17.351 1.10434 17.2574C1.03874 17.1687 1.02532 17.0535 1.01414 16.944C0.973512 16.5488 0.853486 15.9282 1.08459 15.5711C1.27209 15.2811 1.69628 15.0071 2.02281 15.2423H2.02243Z" fill="#A0A0A0"/>
<path d="M13.4081 20.4292C13.2217 20.0881 13.146 19.6874 13.1952 19.3016C13.6198 19.2248 14.0787 19.3739 14.3761 19.6863C14.3553 19.3486 14.7142 19.0444 15.0441 19.1201C15.4031 19.2025 15.5794 19.6058 15.658 19.9658C15.7441 20.3595 15.7788 20.762 15.8019 21.1642C15.8146 21.389 15.8224 21.6227 15.7344 21.8296C15.4083 22.5967 14.3769 22.3772 13.8669 21.9563C13.5494 21.6943 12.7066 20.7166 13.4081 20.4292Z" fill="#A0A0A0"/>
<path d="M13.4424 11.4012C13.2918 11.6953 13.4264 12.1198 13.7413 12.2197C13.4346 12.4154 13.1818 12.6954 13.0186 13.0204C13.4196 13.0815 13.8397 13.0118 14.1994 12.8239C14.2024 13.099 14.3866 13.3637 14.6434 13.4625C14.9002 13.5613 15.2141 13.4878 15.4004 13.2854C15.554 13.1188 15.6163 12.8892 15.664 12.6674C15.7587 12.2283 15.8064 11.7292 15.5413 11.3661C15.1488 10.8282 13.7723 10.7552 13.4416 11.4012H13.4424Z" fill="#A0A0A0"/>
<path d="M1.95192 10.2776C2.18452 10.262 2.39176 10.0655 2.42009 9.83407C2.63592 10.06 2.88119 10.2579 3.1477 10.4212C3.13466 10.1278 3.07986 9.83593 2.98667 9.55749C3.29382 9.51388 3.52754 9.18175 3.46417 8.87796C3.45858 8.85187 3.45075 8.82503 3.43174 8.80639C3.41199 8.78701 3.38328 8.77993 3.35644 8.77359C2.71084 8.623 2.06523 8.47203 1.41925 8.32144C1.3831 8.80341 1.08825 10.3362 1.95229 10.2776H1.95192Z" fill="#A0A0A0"/>
<path d="M27.6462 8.0788L16.5475 10.3746L16.4998 24.5L27.9224 19.4138L27.6465 8.0788H27.6462ZM26.8757 18.716L17.6911 22.6105V11.4496L26.6457 9.2675L26.8757 18.7156V18.716Z" fill="#9C9C9C"/>
<path d="M1.03687 16.9432L1.43124 16.6763V8.32854L1.03687 8.23721V16.9432Z" fill="#9C9C9C"/>
<path d="M1.43124 16.6763L15.2495 21.9645V22.6109L1.03687 16.9432L1.43124 16.6763Z" fill="#C2C2C2"/>
<path d="M26.8756 18.716L26.6456 9.26785L26.2844 9.35582L26.58 18.4942L26.8756 18.716Z" fill="#C1C1C1"/>
<path d="M17.691 22.0119L26.5801 18.4942L26.8756 18.716L17.691 22.6109V22.0119Z" fill="#C2C2C2"/>
<path opacity="0.44" d="M6.23556 12.1328C5.97352 12.4515 5.30779 12.5701 4.95665 12.3535C4.94659 12.7635 5.26417 13.2231 5.58921 13.4736C5.77671 13.6182 6.12635 13.676 6.36081 13.7066C6.59564 13.7371 6.85396 13.6611 6.99635 13.4721C6.88453 13.9127 6.97473 14.3846 7.1585 14.8002C7.34264 15.2158 7.42986 15.6982 7.70085 16.0631C8.43368 15.6836 8.94025 14.8453 8.77922 14.0357C8.91826 14.4498 9.4211 14.5989 9.85573 14.6437C10.2904 14.6884 10.741 14.4592 10.9613 14.0823C10.5558 13.8922 10.1189 13.6719 9.93066 13.2656C9.80355 12.9909 9.81249 12.6755 9.82405 12.3729C9.84902 11.7161 9.94184 10.9091 9.96681 10.2523C9.96905 10.1934 7.65239 9.95743 7.43843 9.91531C7.24274 9.87655 6.5032 9.61972 6.37721 9.78448C6.25942 9.93842 6.49761 11.8145 6.23556 12.1332V12.1328Z" fill="#5A5A5A"/>
<path d="M6.03247 11.8145C5.75552 12.1206 5.25677 12.2469 4.91608 12.0139C4.88663 12.4229 5.14942 12.8001 5.46216 13.0658C5.64257 13.2191 5.85019 13.351 6.08316 13.3928C6.31613 13.4345 6.5778 13.3708 6.72914 13.1889C6.59681 13.6235 6.66391 14.0995 6.82829 14.5233C6.99231 14.9471 7.24764 15.3281 7.50111 15.7057C8.25109 15.3616 8.7215 14.4916 8.59924 13.6757C8.71852 14.0958 9.09798 14.4297 9.53 14.495C9.96202 14.5602 10.4231 14.353 10.6609 13.9865C10.2647 13.7774 9.83902 13.5366 9.67016 13.1218C9.5561 12.8415 9.57994 12.5265 9.60604 12.2249C9.66232 11.57 9.71861 10.9151 9.77452 10.2601C9.77937 10.2013 7.55106 9.70922 7.33934 9.65666C7.14588 9.60858 6.41938 9.31708 6.28557 9.4755C6.16069 9.62386 6.3098 11.5089 6.03284 11.8149L6.03247 11.8145Z" fill="#C1C1C1"/>
<path opacity="0.44" d="M2.00333 16.8951V9.00097L15.2494 12.5902V11.5372L1.43115 8.32852V16.6763L2.00333 16.8951Z" fill="#5A5A5A"/>
<path d="M0.0777588 6.88672L0.264881 17.6387L16.4993 24.5L16.5471 10.3746L0.0777588 6.88672ZM15.2495 22.6109L1.03685 16.9432V8.2372L15.2495 11.5372V22.6109Z" fill="#C1C1C1"/>
<path opacity="0.44" d="M1.04104 7.60078C1.04104 7.81138 0.903494 7.9821 0.734264 7.9821C0.565035 7.9821 0.42749 7.81138 0.42749 7.60078C0.42749 7.39017 0.565035 7.21945 0.734264 7.21945C0.903494 7.21945 1.04104 7.39017 1.04104 7.60078Z" fill="#5A5A5A"/>
<path d="M0.620495 7.91963C0.789922 7.91963 0.927269 7.74891 0.927269 7.53831C0.927269 7.32771 0.789922 7.15698 0.620495 7.15698C0.451068 7.15698 0.313721 7.32771 0.313721 7.53831C0.313721 7.74891 0.451068 7.91963 0.620495 7.91963Z" fill="#C2C2C2"/>
<path d="M0.428617 7.37751C0.408488 7.41404 0.395073 7.45616 0.399919 7.49791C0.404765 7.53965 0.429738 7.58028 0.468877 7.59594C0.478942 7.60004 0.48975 7.60228 0.50056 7.60041C0.531126 7.59557 0.547154 7.56314 0.565419 7.53816C0.587784 7.50797 0.619469 7.48449 0.655253 7.47293C0.676873 7.46585 0.70073 7.46212 0.716758 7.44609C0.731668 7.43156 0.736512 7.40845 0.733157 7.38794C0.729802 7.36744 0.71974 7.34843 0.707812 7.33091C0.629534 7.21685 0.484903 7.27537 0.428617 7.37751Z" fill="white"/>
<path opacity="0.44" d="M2.49881 9.29296C2.49881 9.44169 2.4019 9.56209 2.28224 9.56209C2.16259 9.56209 2.06567 9.44169 2.06567 9.29296C2.06567 9.14423 2.16259 9.02383 2.28224 9.02383C2.4019 9.02383 2.49881 9.14423 2.49881 9.29296Z" fill="#5A5A5A"/>
<path d="M2.41861 9.24923C2.41861 9.39796 2.3217 9.51836 2.20204 9.51836C2.08239 9.51836 1.98547 9.39796 1.98547 9.24923C1.98547 9.1005 2.08239 8.9801 2.20204 8.9801C2.3217 8.9801 2.41861 9.1005 2.41861 9.24923Z" fill="#C2C2C2"/>
<path d="M2.0667 9.13568C2.05254 9.1614 2.04284 9.19122 2.0462 9.22066C2.04955 9.25011 2.06745 9.27881 2.09466 9.28962C2.10174 9.29223 2.10957 9.29409 2.11702 9.29298C2.13864 9.28962 2.14982 9.26651 2.16287 9.24899C2.17853 9.22774 2.20089 9.21134 2.22624 9.20314C2.24152 9.1983 2.25829 9.19569 2.26985 9.18413C2.28029 9.1737 2.28364 9.15767 2.28141 9.14313C2.27917 9.12859 2.27172 9.11517 2.26352 9.10287C2.20835 9.02236 2.10621 9.06373 2.06633 9.13568H2.0667Z" fill="white"/>
<path opacity="0.44" d="M2.66458 16.3116C2.66458 16.4604 2.56767 16.5808 2.44801 16.5808C2.32836 16.5808 2.23145 16.4604 2.23145 16.3116C2.23145 16.1629 2.32836 16.0425 2.44801 16.0425C2.56767 16.0425 2.66458 16.1629 2.66458 16.3116Z" fill="#5A5A5A"/>
<path d="M2.5845 16.2674C2.5845 16.4161 2.48759 16.5365 2.36793 16.5365C2.24828 16.5365 2.15137 16.4161 2.15137 16.2674C2.15137 16.1187 2.24828 15.9983 2.36793 15.9983C2.48759 15.9983 2.5845 16.1187 2.5845 16.2674Z" fill="#C2C2C2"/>
<path d="M2.23211 16.154C2.21795 16.1797 2.20863 16.2095 2.21162 16.2389C2.21497 16.2684 2.23286 16.2971 2.26044 16.3079C2.26753 16.3105 2.27535 16.3124 2.28281 16.3113C2.30443 16.3079 2.31561 16.2848 2.32866 16.2673C2.34432 16.246 2.36668 16.2296 2.39203 16.2214C2.40731 16.2166 2.42408 16.214 2.43564 16.2024C2.44608 16.192 2.44943 16.1759 2.44719 16.1614C2.44496 16.1469 2.4375 16.1335 2.4293 16.1212C2.37413 16.0406 2.272 16.082 2.23211 16.154Z" fill="white"/>
<path opacity="0.44" d="M14.6655 20.7571C14.6655 20.9807 14.5194 21.1619 14.3393 21.1619C14.1593 21.1619 14.0132 20.9807 14.0132 20.7571C14.0132 20.5334 14.1593 20.3519 14.3393 20.3519C14.5194 20.3519 14.6655 20.5331 14.6655 20.7571Z" fill="#5A5A5A"/>
<path d="M14.5446 20.6912C14.5446 20.9148 14.3989 21.0964 14.2185 21.0964C14.0381 21.0964 13.8923 20.9152 13.8923 20.6912C13.8923 20.4672 14.0385 20.286 14.2185 20.286C14.3985 20.286 14.5446 20.4672 14.5446 20.6912Z" fill="#C2C2C2"/>
<path d="M14.015 20.5196C13.9934 20.5584 13.9793 20.6031 13.9845 20.6475C13.9893 20.6918 14.0162 20.7351 14.0575 20.7515C14.068 20.7556 14.0799 20.7582 14.0911 20.7563C14.1235 20.7515 14.1407 20.7168 14.16 20.69C14.1835 20.6579 14.2174 20.6333 14.2555 20.6206C14.2782 20.6132 14.3039 20.6091 14.3211 20.5923C14.3371 20.5766 14.342 20.5524 14.3386 20.5304C14.3352 20.5084 14.3244 20.4883 14.3118 20.47C14.2286 20.3489 14.0751 20.4111 14.015 20.5196Z" fill="white"/>
<path opacity="0.44" d="M14.9686 12.3381C14.9686 12.5618 14.8225 12.7429 14.6424 12.7429C14.4624 12.7429 14.3163 12.5618 14.3163 12.3381C14.3163 12.1145 14.4624 11.9329 14.6424 11.9329C14.8225 11.9329 14.9686 12.1141 14.9686 12.3381Z" fill="#5A5A5A"/>
<path d="M14.848 12.2722C14.848 12.4959 14.7022 12.6774 14.5218 12.6774C14.3414 12.6774 14.1957 12.4963 14.1957 12.2722C14.1957 12.0482 14.3418 11.8671 14.5218 11.8671C14.7019 11.8671 14.848 12.0482 14.848 12.2722Z" fill="#C2C2C2"/>
<path d="M14.3182 12.101C14.2965 12.1398 14.2824 12.1845 14.2876 12.2289C14.2924 12.2732 14.3193 12.3165 14.3606 12.3329C14.3715 12.337 14.383 12.3396 14.3942 12.3377C14.4266 12.3329 14.4438 12.2982 14.4631 12.2714C14.4866 12.2393 14.5206 12.2147 14.5586 12.2021C14.5813 12.1946 14.607 12.1905 14.6242 12.1737C14.6398 12.1581 14.6451 12.1338 14.6417 12.1118C14.6383 12.0899 14.6275 12.0697 14.6149 12.0515C14.5317 11.9303 14.3782 11.9926 14.3182 12.101Z" fill="white"/>
<path opacity="0.44" d="M18.6544 12.0182C18.6544 12.2418 18.5086 12.4233 18.3282 12.4233C18.1478 12.4233 18.0021 12.2422 18.0021 12.0182C18.0021 11.7941 18.1482 11.613 18.3282 11.613C18.5083 11.613 18.6544 11.7941 18.6544 12.0182Z" fill="#5A5A5A"/>
<path d="M18.5334 11.9524C18.5334 12.1761 18.3873 12.3576 18.2073 12.3576C18.0272 12.3576 17.8811 12.1764 17.8811 11.9524C17.8811 11.7284 18.0268 11.5476 18.2073 11.5476C18.3877 11.5476 18.5334 11.7288 18.5334 11.9524Z" fill="#C1C1C1"/>
<path d="M18.0039 11.7811C17.9823 11.8199 17.9682 11.8646 17.9734 11.9089C17.9782 11.9533 18.0051 11.9965 18.0464 12.0129C18.0569 12.017 18.0688 12.0196 18.08 12.0178C18.1124 12.0129 18.1296 11.9783 18.1489 11.9514C18.1724 11.9194 18.2063 11.8948 18.2444 11.8821C18.2671 11.8746 18.2928 11.8705 18.31 11.8538C18.3256 11.8381 18.3308 11.8139 18.3275 11.7919C18.3241 11.7699 18.3133 11.7498 18.3006 11.7315C18.2175 11.6104 18.0639 11.6726 18.0039 11.7811Z" fill="#C2C2C2"/>
<path opacity="0.44" d="M18.4629 21.3142C18.643 21.3142 18.789 21.1328 18.789 20.909C18.789 20.6852 18.643 20.5038 18.4629 20.5038C18.2827 20.5038 18.1367 20.6852 18.1367 20.909C18.1367 21.1328 18.2827 21.3142 18.4629 21.3142Z" fill="#5A5A5A"/>
<path d="M18.6684 20.8429C18.6684 21.0666 18.5223 21.2481 18.3423 21.2481C18.1622 21.2481 18.0161 21.0669 18.0161 20.8429C18.0161 20.6189 18.1622 20.4381 18.3423 20.4381C18.5223 20.4381 18.6684 20.6193 18.6684 20.8429Z" fill="#C1C1C1"/>
<path d="M18.1386 20.672C18.117 20.7107 18.1028 20.7555 18.108 20.7998C18.1129 20.8442 18.1397 20.8874 18.1811 20.9038C18.1915 20.9079 18.2034 20.9105 18.2146 20.9087C18.2471 20.9038 18.2642 20.8691 18.2836 20.8423C18.3071 20.8102 18.341 20.7856 18.379 20.773C18.4017 20.7655 18.4275 20.7614 18.4446 20.7446C18.4603 20.729 18.4655 20.7048 18.4621 20.6828C18.4588 20.6608 18.448 20.6406 18.4353 20.6224C18.3522 20.5012 18.1986 20.5635 18.1386 20.672Z" fill="#C2C2C2"/>
<path opacity="0.44" d="M25.7763 10.536C25.9428 10.536 26.0778 10.3683 26.0778 10.1614C26.0778 9.95446 25.9428 9.78674 25.7763 9.78674C25.6097 9.78674 25.4747 9.95446 25.4747 10.1614C25.4747 10.3683 25.6097 10.536 25.7763 10.536Z" fill="#5A5A5A"/>
<path d="M25.9658 10.1002C25.9658 10.3071 25.8308 10.4748 25.6642 10.4748C25.4976 10.4748 25.3627 10.3071 25.3627 10.1002C25.3627 9.89335 25.4976 9.72562 25.6642 9.72562C25.8308 9.72562 25.9658 9.89335 25.9658 10.1002Z" fill="#C1C1C1"/>
<path d="M25.4762 9.94181C25.4561 9.97797 25.4434 10.019 25.4479 10.06C25.4524 10.101 25.4774 10.1409 25.5158 10.1561C25.5255 10.1599 25.5363 10.1621 25.5467 10.1606C25.5769 10.1561 25.5926 10.1241 25.6104 10.0995C25.6324 10.0697 25.6634 10.0469 25.6988 10.0354C25.72 10.0283 25.7435 10.0249 25.7595 10.0093C25.7741 9.99474 25.7789 9.97237 25.7756 9.95225C25.7726 9.93212 25.7622 9.91348 25.7506 9.89633C25.6738 9.78413 25.5318 9.84191 25.4762 9.94218V9.94181Z" fill="#C2C2C2"/>
<path opacity="0.44" d="M26.1064 18.3243C26.2729 18.3243 26.4079 18.1566 26.4079 17.9497C26.4079 17.7428 26.2729 17.5751 26.1064 17.5751C25.9398 17.5751 25.8048 17.7428 25.8048 17.9497C25.8048 18.1566 25.9398 18.3243 26.1064 18.3243Z" fill="#5A5A5A"/>
<path d="M26.2963 17.8889C26.2963 18.0957 26.1614 18.2635 25.9948 18.2635C25.8282 18.2635 25.6932 18.0957 25.6932 17.8889C25.6932 17.682 25.8282 17.5143 25.9948 17.5143C26.1614 17.5143 26.2963 17.682 26.2963 17.8889Z" fill="#C1C1C1"/>
<path d="M25.8063 17.7305C25.7862 17.7667 25.7735 17.8077 25.778 17.8487C25.7825 17.8897 25.8074 17.9296 25.8458 17.9449C25.8555 17.9486 25.8663 17.9508 25.8768 17.9493C25.907 17.9449 25.9226 17.9128 25.9405 17.8882C25.9621 17.8584 25.9934 17.8357 26.0289 17.8241C26.0501 17.817 26.0736 17.8137 26.0896 17.798C26.1042 17.7835 26.109 17.7611 26.1056 17.741C26.1027 17.7205 26.0922 17.7022 26.0807 17.6851C26.0039 17.5729 25.8619 17.6306 25.8063 17.7309V17.7305Z" fill="#C2C2C2"/>
<path opacity="0.44" d="M1.09805 17.2046C1.09805 17.4152 0.960505 17.5859 0.791276 17.5859C0.622046 17.5859 0.484497 17.4152 0.484497 17.2046C0.484497 16.994 0.622046 16.8232 0.791276 16.8232C0.960505 16.8232 1.09805 16.994 1.09805 17.2046Z" fill="#5A5A5A"/>
<path d="M0.984276 17.1426C0.984276 17.3532 0.846731 17.5239 0.677502 17.5239C0.508272 17.5239 0.370728 17.3532 0.370728 17.1426C0.370728 16.932 0.508272 16.7613 0.677502 16.7613C0.846731 16.7613 0.984276 16.932 0.984276 17.1426Z" fill="#C2C2C2"/>
<path d="M0.485525 16.9813C0.465024 17.0178 0.451977 17.0599 0.456822 17.1017C0.461668 17.1434 0.486646 17.1841 0.525785 17.1997C0.535849 17.2038 0.546658 17.2061 0.557468 17.2042C0.588034 17.1994 0.604062 17.1669 0.622327 17.142C0.644319 17.1118 0.676377 17.0883 0.712161 17.0767C0.733781 17.0696 0.757633 17.0659 0.773661 17.0499C0.788572 17.0353 0.79342 17.0122 0.790065 16.9917C0.78671 16.9712 0.776644 16.9522 0.764716 16.9347C0.686811 16.8206 0.541811 16.8792 0.485525 16.9813Z" fill="white"/>
<path opacity="0.44" d="M16.1741 11.1052C16.1741 11.3728 15.9996 11.5898 15.7842 11.5898C15.5687 11.5898 15.3943 11.3728 15.3943 11.1052C15.3943 10.8375 15.5687 10.6206 15.7842 10.6206C15.9996 10.6206 16.1741 10.8375 16.1741 11.1052Z" fill="#5A5A5A"/>
<path d="M16.0297 11.0261C16.0297 11.2937 15.8552 11.5107 15.6398 11.5107C15.4243 11.5107 15.2499 11.2937 15.2499 11.0261C15.2499 10.7585 15.4243 10.5415 15.6398 10.5415C15.8552 10.5415 16.0297 10.7585 16.0297 11.0261Z" fill="#C2C2C2"/>
<path d="M15.3958 10.8215C15.37 10.8681 15.3533 10.9214 15.3592 10.9744C15.3652 11.0273 15.3973 11.0791 15.4468 11.0989C15.4595 11.1037 15.4733 11.1067 15.4871 11.1048C15.5259 11.0989 15.5464 11.0575 15.5695 11.0254C15.5978 10.987 15.6381 10.9576 15.6835 10.9427C15.7107 10.9337 15.7413 10.9289 15.7618 10.9088C15.7808 10.8901 15.7868 10.861 15.7827 10.835C15.7786 10.8085 15.7655 10.7846 15.7506 10.7626C15.6515 10.6176 15.4677 10.6922 15.3958 10.8219V10.8215Z" fill="white"/>
<path opacity="0.44" d="M8.11861 14.0862C8.11861 14.4265 7.89645 14.7027 7.62247 14.7027C7.3485 14.7027 7.12634 14.4269 7.12634 14.0862C7.12634 13.7455 7.3485 13.4697 7.62247 13.4697C7.89645 13.4697 8.11861 13.7455 8.11861 14.0862Z" fill="#5A5A5A"/>
<path d="M7.43852 14.6023C7.71252 14.6023 7.93465 14.3263 7.93465 13.9858C7.93465 13.6453 7.71252 13.3693 7.43852 13.3693C7.16451 13.3693 6.94238 13.6453 6.94238 13.9858C6.94238 14.3263 7.16451 14.6023 7.43852 14.6023Z" fill="#C2C2C2"/>
<path d="M7.12828 13.7254C7.09548 13.7846 7.07386 13.8525 7.08168 13.9199C7.08914 13.9874 7.13014 14.0534 7.19314 14.078C7.20917 14.0843 7.22706 14.088 7.2442 14.0854C7.29378 14.078 7.31987 14.025 7.34932 13.9848C7.3851 13.9356 7.43654 13.8983 7.49432 13.8793C7.52898 13.8677 7.56813 13.8618 7.59422 13.8361C7.61845 13.8122 7.62627 13.7753 7.62106 13.7421C7.61584 13.7086 7.59906 13.678 7.58005 13.6501C7.45369 13.4655 7.21997 13.5606 7.12865 13.7254H7.12828Z" fill="white"/>
<path opacity="0.44" d="M17.6909 11.0658C17.6909 11.3334 17.5165 11.5503 17.301 11.5503C17.0856 11.5503 16.9111 11.3334 16.9111 11.0658C16.9111 10.7981 17.0856 10.5812 17.301 10.5812C17.5165 10.5812 17.6909 10.7981 17.6909 11.0658Z" fill="#5A5A5A"/>
<path d="M17.1565 11.4712C17.3718 11.4712 17.5464 11.2542 17.5464 10.9866C17.5464 10.719 17.3718 10.502 17.1565 10.502C16.9412 10.502 16.7666 10.719 16.7666 10.9866C16.7666 11.2542 16.9412 11.4712 17.1565 11.4712Z" fill="#C2C2C2"/>
<path d="M16.913 10.7821C16.8873 10.8287 16.8705 10.882 16.8765 10.9349C16.8824 10.9878 16.9145 11.0396 16.9641 11.0594C16.9767 11.0642 16.9905 11.0672 17.0043 11.0654C17.0431 11.0594 17.0636 11.018 17.0871 10.986C17.1154 10.9476 17.1556 10.9181 17.2011 10.9032C17.2283 10.8943 17.2589 10.8894 17.2794 10.8693C17.2984 10.8507 17.3044 10.8216 17.3003 10.7955C17.2962 10.7694 17.2831 10.7452 17.2682 10.7232C17.1691 10.5782 16.9853 10.6527 16.9134 10.7821H16.913Z" fill="white"/>
<path opacity="0.44" d="M17.6189 23.3949C17.6189 23.6626 17.4445 23.8795 17.229 23.8795C17.0136 23.8795 16.8391 23.6626 16.8391 23.3949C16.8391 23.1273 17.0136 22.9103 17.229 22.9103C17.4445 22.9103 17.6189 23.1273 17.6189 23.3949Z" fill="#5A5A5A"/>
<path d="M17.4745 23.3158C17.4745 23.5834 17.3 23.8003 17.0846 23.8003C16.8691 23.8003 16.6947 23.5834 16.6947 23.3158C16.6947 23.0481 16.8691 22.8312 17.0846 22.8312C17.3 22.8312 17.4745 23.0481 17.4745 23.3158Z" fill="#C2C2C2"/>
<path d="M16.841 23.1109C16.8152 23.1575 16.7985 23.2108 16.8044 23.2637C16.8104 23.3167 16.8425 23.3685 16.892 23.3882C16.9047 23.3934 16.9185 23.3961 16.9319 23.3942C16.9707 23.3882 16.9912 23.3469 17.0143 23.3148C17.0426 23.2764 17.0829 23.247 17.1283 23.232C17.1556 23.2231 17.1861 23.2183 17.2066 23.1981C17.2256 23.1795 17.2316 23.1504 17.2275 23.1243C17.2234 23.0979 17.2104 23.074 17.1954 23.052C17.0963 22.907 16.9125 22.9816 16.8406 23.1113L16.841 23.1109Z" fill="white"/>
<path opacity="0.44" d="M27.4878 19.2426C27.662 19.2426 27.8032 19.0672 27.8032 18.8509C27.8032 18.6345 27.662 18.4591 27.4878 18.4591C27.3137 18.4591 27.1725 18.6345 27.1725 18.8509C27.1725 19.0672 27.3137 19.2426 27.4878 19.2426Z" fill="#5A5A5A"/>
<path d="M27.6867 18.7872C27.6867 19.0038 27.5455 19.179 27.3714 19.179C27.1973 19.179 27.056 19.0034 27.056 18.7872C27.056 18.571 27.1973 18.3954 27.3714 18.3954C27.5455 18.3954 27.6867 18.571 27.6867 18.7872Z" fill="#C2C2C2"/>
<path d="M27.174 18.6213C27.1531 18.6589 27.1393 18.7022 27.1442 18.745C27.149 18.7879 27.1751 18.8296 27.215 18.8457C27.2254 18.8498 27.2366 18.852 27.2474 18.8505C27.2787 18.8457 27.2955 18.8121 27.3141 18.7864C27.3369 18.7551 27.3697 18.7316 27.4066 18.7193C27.4286 18.7122 27.4535 18.7081 27.4699 18.6917C27.4852 18.6764 27.4901 18.6533 27.4871 18.6321C27.4837 18.6108 27.4733 18.5915 27.461 18.5736C27.3809 18.4562 27.2321 18.5165 27.174 18.6213Z" fill="white"/>
<path opacity="0.44" d="M27.5465 8.78425C27.5465 9.00082 27.4052 9.17601 27.2311 9.17601C27.057 9.17601 26.9158 9.00045 26.9158 8.78425C26.9158 8.56805 27.057 8.39249 27.2311 8.39249C27.4052 8.39249 27.5465 8.56805 27.5465 8.78425Z" fill="#5A5A5A"/>
<path d="M27.1142 9.11244C27.2883 9.11244 27.4295 8.93705 27.4295 8.72068C27.4295 8.50432 27.2883 8.32892 27.1142 8.32892C26.94 8.32892 26.7988 8.50432 26.7988 8.72068C26.7988 8.93705 26.94 9.11244 27.1142 9.11244Z" fill="#C2C2C2"/>
<path d="M26.9173 8.55463C26.8964 8.59228 26.8826 8.63552 26.8874 8.67838C26.8923 8.72125 26.9184 8.763 26.9583 8.77903C26.9687 8.78313 26.9799 8.78536 26.9907 8.78387C27.022 8.77903 27.0388 8.74548 27.0574 8.71976C27.0802 8.68845 27.113 8.66496 27.1499 8.65266C27.1719 8.64521 27.1968 8.64148 27.2132 8.62508C27.2285 8.6098 27.2334 8.58669 27.2304 8.56544C27.227 8.54419 27.2166 8.52481 27.2043 8.50692C27.1241 8.3895 26.9754 8.44989 26.9173 8.55463Z" fill="white"/>
<path opacity="0.44" d="M16.3185 23.4344C16.3185 23.7021 16.144 23.919 15.9286 23.919C15.7131 23.919 15.5387 23.7021 15.5387 23.4344C15.5387 23.1668 15.7131 22.9499 15.9286 22.9499C16.144 22.9499 16.3185 23.1668 16.3185 23.4344Z" fill="#5A5A5A"/>
<path d="M16.1743 23.3553C16.1743 23.6229 15.9999 23.8399 15.7844 23.8399C15.569 23.8399 15.3945 23.6229 15.3945 23.3553C15.3945 23.0877 15.569 22.8707 15.7844 22.8707C15.9999 22.8707 16.1743 23.0877 16.1743 23.3553Z" fill="#C2C2C2"/>
<path d="M15.5406 23.1504C15.5148 23.197 15.498 23.2503 15.504 23.3032C15.51 23.3562 15.542 23.408 15.5916 23.4277C15.6043 23.4326 15.6181 23.4356 15.6319 23.4337C15.6706 23.4277 15.6911 23.3864 15.7143 23.3547C15.7426 23.3163 15.7828 23.2868 15.8283 23.2719C15.8555 23.263 15.8861 23.2581 15.9066 23.238C15.9256 23.2194 15.9316 23.1903 15.9275 23.1642C15.9234 23.1381 15.9103 23.1139 15.8954 23.0919C15.7963 22.9469 15.6125 23.0214 15.5406 23.1512V23.1504Z" fill="white"/>
<path d="M6.08948 9.14201V9.64225C6.08948 9.64225 6.34593 10.0198 6.82454 10.1179C7.30316 10.2159 8.15452 10.2879 8.67004 10.1179C9.18518 9.9479 9.44312 9.72686 9.44312 9.72686L9.48524 9.23557L7.41349 9.53191L7.53426 9.19047L7.52494 8.65073L6.94718 8.7208L6.08948 9.14239V9.14201Z" fill="#A0A0A0"/>
<path d="M6.89947 8.49182C6.89947 8.49182 6.09022 8.85004 6.08948 9.1419C6.08873 9.53292 7.25358 9.76365 7.91484 9.69096C8.5761 9.61865 9.48487 9.23546 9.48487 9.23546L8.78112 9.00249C8.78112 9.00249 8.22646 9.27013 7.63565 9.20266C7.04484 9.13519 6.87598 9.04163 7.00868 8.897C7.14138 8.75237 7.52457 8.65061 7.52457 8.65061L6.89909 8.49219L6.89947 8.49182Z" fill="#C2C2C2"/>
<path opacity="0.44" d="M17.691 12.4706L25.8838 10.2363L26.0507 18.716L26.5801 18.4942L26.2845 9.35583L17.691 11.45V12.4706Z" fill="#5A5A5A"/>
<path d="M5.4375 1.03191L11.6759 0.500366L23.6047 2.08531L18.3422 2.88598L5.4375 1.03191Z" fill="#959595"/>
<path d="M23.6047 2.08533L18.3422 2.886L16.547 10.3746L27.6457 7.93865L23.6043 2.08533H23.6047ZM19.1432 3.53384L23.4012 2.886L26.1066 7.60056L17.972 9.37151L19.1432 3.53384Z" fill="#9C9C9C"/>
<path d="M5.43755 1.03189L0.0777588 6.77898L16.5471 10.3745L18.3422 2.88596L5.43755 1.03189ZM15.8098 9.17615L1.43122 6.47444L5.63549 1.69315L17.0879 3.47267L15.8094 9.17652L15.8098 9.17615Z" fill="#C1C1C1"/>
<path d="M11.6759 0.500373L5.4375 1.03154L18.3422 2.88561L23.6047 2.08494L11.6759 0.5V0.500373ZM18.107 2.36972L7.95879 1.03154L11.6692 0.715451L20.6137 1.91012L18.107 2.36972Z" fill="#C2C2C2"/>
<path d="M0.0777588 6.88675L16.5474 10.3746L27.6461 8.07881V7.93866L16.613 10.1002L0.0777588 6.77866V6.88675Z" fill="#7B7B7B"/>
<path d="M6.09034 8.192L6.12203 8.69111C6.12203 8.69111 6.40196 9.05156 6.88579 9.11903C7.36963 9.1865 8.22397 9.20402 8.72756 9.00199C9.23115 8.79995 9.5793 8.68738 9.5793 8.68738L9.53494 7.99742L7.43635 8.49728L7.53513 8.14876L7.49152 7.6105L6.91934 7.71711L6.08997 8.19237L6.09034 8.192Z" fill="#A0A0A0"/>
<path d="M6.85703 7.4921C6.85703 7.4921 6.07201 7.901 6.0899 8.19212C6.11376 8.5824 7.29128 8.73858 7.94658 8.62452C8.60188 8.51045 9.5345 7.99755 9.5345 7.99755L8.8259 7.86448C8.8259 7.86448 8.23061 8.18467 7.63682 8.15485C7.04303 8.12503 6.86858 8.04228 6.99159 7.88945C7.1146 7.73662 7.49108 7.61063 7.49108 7.61063L6.85665 7.49247L6.85703 7.4921Z" fill="#C2C2C2"/>
</svg>
