<svg width="240" height="239" viewBox="0 0 240 239" fill="none" xmlns="http://www.w3.org/2000/svg">
<g clip-path="url(#clip0_1215_7289)">
<path d="M3.12769 12.5392V24.6288H121.539V12.5392C121.539 7.8138 117.708 3.98267 112.983 3.98267H11.6842C6.95882 3.98267 3.12769 7.8138 3.12769 12.5392Z" fill="#F2F4FF"/>
<path d="M3.12769 24.6179H121.539V228.176H11.6842C6.95882 228.176 3.12769 224.345 3.12769 219.619V24.6179Z" fill="white"/>
<path d="M121.539 114.909H3.12769V152.105H121.539V114.909Z" fill="#F2F4FF"/>
<path d="M3.12769 189.301H121.539V228.176H11.6842C6.95882 228.176 3.12769 224.345 3.12769 219.619V189.301Z" fill="#F2F4FF"/>
<path d="M112.983 1.35503H11.6842C5.52352 1.35503 0.5 6.36752 0.5 12.5393V219.619C0.5 225.78 5.51248 230.803 11.6842 230.803H121.539C122.986 230.803 124.167 229.633 124.167 228.176V12.5282C124.167 6.36751 119.155 1.34399 112.983 1.34399V1.35503ZM5.75538 12.5393C5.75538 9.27123 8.4162 6.59937 11.6953 6.59937H112.994C116.262 6.59937 118.934 9.26019 118.934 12.5393V22.0012H5.76643V12.5393H5.75538ZM118.923 225.559H11.6953C8.42724 225.559 5.75538 222.898 5.75538 219.619V27.2455H118.923V225.559Z" fill="#2B5D96"/>
<path d="M62.3391 40.0969H15.0295V98.9219H62.3391V40.0969Z" fill="white"/>
<path d="M55.3946 51.4909C52.6896 48.7859 47.655 53.8978 44.2765 58.0822C42.5211 57.751 40.6441 57.5964 38.6899 57.5964C36.7357 57.5964 34.8588 57.751 33.1033 58.0822C29.7249 53.8978 24.6903 48.7859 21.9854 51.4909C19.0927 54.3836 19.8876 61.1736 22.3166 65.5568C21.3781 67.5552 20.8592 69.9952 20.8592 72.932C20.8592 84.4806 28.8527 88.2676 38.701 88.2676C48.5493 88.2676 56.5428 84.4806 56.5428 72.932C56.5428 69.9841 56.0128 67.5552 55.0854 65.5568C57.5144 61.1736 58.3093 54.3836 55.4167 51.4909H55.3946Z" fill="#ADBED9"/>
<path d="M62.3391 101.539H15.0296C13.5832 101.539 12.4019 100.368 12.4019 98.911V40.075C12.4019 38.6286 13.5722 37.4473 15.0296 37.4473H62.3391C63.7854 37.4473 64.9668 38.6176 64.9668 40.075V98.911C64.9668 100.357 63.7964 101.539 62.3391 101.539ZM17.6573 96.2943H59.7224V42.7027H17.6573V96.2943Z" fill="#2B5D96"/>
<path d="M109.958 44.0054H75.897C74.4507 44.0054 73.2693 42.8351 73.2693 41.3777C73.2693 39.9203 74.4396 38.75 75.897 38.75H109.958C111.404 38.75 112.585 39.9203 112.585 41.3777C112.585 42.8351 111.415 44.0054 109.958 44.0054Z" fill="#53C7FE"/>
<path d="M100.087 56.2605H85.7564C84.31 56.2605 83.1287 55.0902 83.1287 53.6328C83.1287 52.1754 84.299 51.0051 85.7564 51.0051H100.087C101.534 51.0051 102.715 52.1754 102.715 53.6328C102.715 55.0902 101.545 56.2605 100.087 56.2605Z" fill="#446993"/>
<path d="M109.958 79.7552H75.897C74.4507 79.7552 73.2693 78.5848 73.2693 77.1275C73.2693 75.6701 74.4396 74.4998 75.897 74.4998H109.958C111.404 74.4998 112.585 75.6701 112.585 77.1275C112.585 78.5848 111.415 79.7552 109.958 79.7552Z" fill="#53C7FE"/>
<path d="M90.2279 92.0215H75.897C74.4506 92.0215 73.2693 90.8512 73.2693 89.3938C73.2693 87.9364 74.4396 86.7661 75.897 86.7661H90.2279C91.6742 86.7661 92.8555 87.9364 92.8555 89.3938C92.8555 90.8512 91.6852 92.0215 90.2279 92.0215Z" fill="#446993"/>
<path d="M99.6014 129.991H21.9299C20.4836 129.991 19.3022 128.82 19.3022 127.363C19.3022 125.905 20.4726 124.735 21.9299 124.735H99.6014C101.048 124.735 102.229 125.905 102.229 127.363C102.229 128.82 101.059 129.991 99.6014 129.991Z" fill="#53C7FE"/>
<path d="M54.6105 142.257H21.9299C20.4836 142.257 19.3022 141.087 19.3022 139.629C19.3022 138.172 20.4726 137.001 21.9299 137.001H54.6105C56.0568 137.001 57.2382 138.172 57.2382 139.629C57.2382 141.087 56.0679 142.257 54.6105 142.257Z" fill="#446993"/>
<path d="M99.6014 167.198H21.9299C20.4836 167.198 19.3022 166.027 19.3022 164.57C19.3022 163.113 20.4726 161.942 21.9299 161.942H99.6014C101.048 161.942 102.229 163.113 102.229 164.57C102.229 166.027 101.059 167.198 99.6014 167.198Z" fill="#53C7FE"/>
<path d="M54.6105 179.453H21.9299C20.4836 179.453 19.3022 178.283 19.3022 176.825C19.3022 175.368 20.4726 174.198 21.9299 174.198H54.6105C56.0568 174.198 57.2382 175.368 57.2382 176.825C57.2382 178.283 56.0679 179.453 54.6105 179.453Z" fill="#446993"/>
<path d="M99.6014 204.394H21.9299C20.4836 204.394 19.3022 203.224 19.3022 201.766C19.3022 200.309 20.4726 199.139 21.9299 199.139H99.6014C101.048 199.139 102.229 200.309 102.229 201.766C102.229 203.224 101.059 204.394 99.6014 204.394Z" fill="#53C7FE"/>
<path d="M54.6105 216.66H21.9299C20.4836 216.66 19.3022 215.49 19.3022 214.032C19.3022 212.575 20.4726 211.405 21.9299 211.405H54.6105C56.0568 211.405 57.2382 212.575 57.2382 214.032C57.2382 215.49 56.0679 216.66 54.6105 216.66Z" fill="#446993"/>
<path d="M19.2141 14.2948C19.2141 11.9762 17.3372 10.1104 15.0297 10.1104C12.7221 10.1104 10.8452 11.9873 10.8452 14.2948C10.8452 16.6023 12.7221 18.4792 15.0297 18.4792C17.3372 18.4792 19.2141 16.6023 19.2141 14.2948Z" fill="#FFC466"/>
<path d="M25.9156 18.4792C28.2266 18.4792 30.1001 16.6058 30.1001 14.2948C30.1001 11.9838 28.2266 10.1104 25.9156 10.1104C23.6046 10.1104 21.7312 11.9838 21.7312 14.2948C21.7312 16.6058 23.6046 18.4792 25.9156 18.4792Z" fill="#FF80A9"/>
<path d="M32.0874 72.1261C30.6411 72.1261 29.4597 70.9558 29.4597 69.4984V67.6878C29.4597 66.2414 30.63 65.0601 32.0874 65.0601C33.5448 65.0601 34.7151 66.2304 34.7151 67.6878V69.4984C34.7151 70.9448 33.5448 72.1261 32.0874 72.1261Z" fill="#446993"/>
<path d="M45.27 72.1261C43.8237 72.1261 42.6423 70.9558 42.6423 69.4984V67.6878C42.6423 66.2414 43.8127 65.0601 45.27 65.0601C46.7274 65.0601 47.8977 66.2304 47.8977 67.6878V69.4984C47.8977 70.9448 46.7274 72.1261 45.27 72.1261Z" fill="#446993"/>
<path d="M222.335 69.2883C213.06 60.0141 183.493 76.8843 170.454 85.0766C164.006 84.0056 155.693 83.564 146.165 83.6081C136.648 83.564 128.323 84.0056 121.886 85.0766C108.858 76.8954 79.2909 60.0031 70.0057 69.2883C60.7867 78.5073 71.3195 103.813 76.7074 115.074C70.3259 125.861 67.9852 137.675 67.9852 147.854C67.9852 156.654 69.0341 165.442 71.1429 174.23C75.2611 191.388 88.8191 204.559 106.109 208.059C107.18 208.28 108.262 208.479 109.333 208.677C105.402 215.324 101.991 224.289 101.991 235.385H190.328C190.328 224.289 186.916 215.324 182.985 208.677C184.056 208.479 185.138 208.269 186.209 208.059C203.499 204.559 217.057 191.388 221.175 174.23C223.284 165.442 224.333 156.654 224.333 147.854C224.333 137.675 222.003 125.861 215.611 115.063C221.01 103.791 231.531 78.4963 222.323 69.2883H222.335Z" fill="#ADBED9"/>
<path d="M136.714 89.8904C136.714 104.453 140.953 116.256 146.164 116.256C151.376 116.256 155.626 104.453 155.626 89.8904C155.626 87.892 155.549 85.9488 155.395 84.094C149.245 83.818 143.106 83.818 136.957 84.094C136.802 85.9599 136.725 87.903 136.725 89.8793L136.714 89.8904Z" fill="#446993"/>
<path d="M157.018 85.0986C157.018 99.6503 161.246 111.464 166.468 111.464C171.691 111.464 175.61 100.478 175.908 86.6443C172.662 85.7942 169.306 85.198 165.872 84.8447C162.924 84.5576 159.988 84.3258 157.04 84.1602C157.029 84.4693 157.029 84.7784 157.029 85.0876L157.018 85.0986Z" fill="#446993"/>
<path d="M116.443 86.534C116.708 100.423 120.837 111.475 125.883 111.475C130.928 111.475 135.334 99.6615 135.334 85.1098C135.334 84.8006 135.334 84.4915 135.323 84.1824C131.944 84.359 128.555 84.635 125.176 84.9994C122.195 85.3085 119.291 85.8385 116.454 86.534H116.443Z" fill="#446993"/>
<path d="M80.8807 91.7011C80.8807 91.7011 79.3792 95.1127 79.1252 98.9438C78.8934 102.477 81.0242 105.182 83.8065 106.308C89.6581 99.6504 96.8897 94.2073 105.049 90.4203C104.972 88.4993 104.166 86.6223 102.609 85.1981C96.3377 79.5011 87.6708 73.3514 81.5432 75.8466C70.8557 80.2077 80.8697 91.7011 80.8697 91.7011H80.8807Z" fill="white"/>
<path d="M211.47 91.7011C211.47 91.7011 212.972 95.1127 213.226 98.9438C213.458 102.477 211.327 105.182 208.545 106.308C202.693 99.6504 195.461 94.2073 187.302 90.4203C187.38 88.4993 188.186 86.6223 189.742 85.1981C196.013 79.5011 204.68 73.3514 210.808 75.8466C221.495 80.2077 211.481 91.7011 211.481 91.7011H211.47Z" fill="white"/>
<path d="M111.552 206.414C109.918 206.127 108.273 205.807 106.639 205.487C90.4862 202.219 77.5576 189.71 73.7044 173.612C71.6618 165.078 70.624 156.411 70.624 147.843C70.624 138.359 72.788 120.274 87.3065 105.612C88.3223 104.586 88.3223 102.918 87.2844 101.903C86.2576 100.887 84.5905 100.887 83.5748 101.925C67.7424 117.923 65.3796 137.564 65.3796 147.843C65.3796 156.819 66.4616 165.906 68.6035 174.838C72.9205 192.812 87.3176 206.801 105.325 210.565C101.383 218.327 99.3851 226.652 99.3851 235.385C99.3851 236.831 100.555 238.013 102.013 238.013C103.47 238.013 104.64 236.842 104.64 235.385C104.64 226.983 106.683 218.978 110.724 211.581C110.856 211.603 110.978 211.614 111.11 211.614C112.358 211.614 113.462 210.72 113.694 209.45C113.948 208.026 112.998 206.668 111.563 206.414H111.552Z" fill="#446993"/>
<path d="M224.189 67.4336C219.287 62.5315 210.333 62.7744 196.83 68.1954C187.07 72.1148 176.946 77.9443 169.902 82.3385C163.719 81.4001 155.781 80.9474 146.187 80.9805C136.57 80.9364 128.632 81.389 122.449 82.3275C115.416 77.9333 105.292 72.1038 95.5207 68.1843C82.0179 62.7633 73.0639 62.5204 68.1618 67.4225C58.0816 77.5027 67.7092 102.311 74.3557 116.189L79.0922 113.926C68.9568 92.7389 66.2629 76.7409 71.8826 71.1212C76.9282 66.0645 93.2353 70.9776 115.03 83.9284C111.154 85.0656 107.445 86.4126 103.989 87.9693C102.664 88.5655 102.079 90.1112 102.675 91.4361C103.271 92.761 104.828 93.3461 106.142 92.7499C109.576 91.2042 113.285 89.8573 117.161 88.7532C123.343 86.9977 133.092 86.1365 146.187 86.2028C159.248 86.1476 169.019 87.0088 175.191 88.7532C179.066 89.8573 182.776 91.2042 186.22 92.7499C186.574 92.9045 186.938 92.9818 187.291 92.9818C188.296 92.9818 189.245 92.4077 189.687 91.4361C190.283 90.1112 189.687 88.5655 188.373 87.9693C184.917 86.4126 181.208 85.0656 177.344 83.9284C199.149 70.9776 215.445 66.0645 220.491 71.1101C225.724 76.3434 223.748 90.5749 215.257 109.609C213.403 106.981 211.261 104.398 208.788 101.903C207.772 100.876 206.105 100.865 205.078 101.881C204.051 102.896 204.04 104.564 205.056 105.59C219.563 120.252 221.738 138.348 221.738 147.821C221.738 156.389 220.7 165.056 218.658 173.59C214.794 189.676 201.865 202.186 185.723 205.465C175.886 207.452 165.905 208.711 156.068 209.207C154.622 209.285 153.507 210.51 153.584 211.957C153.65 213.359 154.809 214.452 156.201 214.452C156.245 214.452 156.289 214.452 156.333 214.452C164.735 214.032 173.225 213.05 181.649 211.57C185.69 218.979 187.733 226.972 187.733 235.374C187.733 236.82 188.903 238.002 190.361 238.002C191.818 238.002 192.988 236.831 192.988 235.374C192.988 226.641 190.99 218.305 187.048 210.554C205.056 206.79 219.453 192.801 223.77 174.827C225.912 165.895 226.994 156.808 226.994 147.832C226.994 140.225 225.691 127.495 218.614 114.92C225.216 100.843 234.016 77.2157 224.211 67.4115L224.189 67.4336Z" fill="#446993"/>
<path d="M93.5556 170.134H79.6995C78.2531 170.134 77.0718 168.964 77.0718 167.507C77.0718 166.049 78.2421 164.879 79.6995 164.879H93.5556C95.0019 164.879 96.1833 166.049 96.1833 167.507C96.1833 168.964 95.0129 170.134 93.5556 170.134Z" fill="#446993"/>
<path d="M82.2167 183.151C81.1458 183.151 80.1521 182.5 79.7546 181.44C79.2467 180.082 79.9423 178.569 81.3003 178.073L92.6391 173.877C93.9972 173.369 95.5097 174.065 96.0066 175.423C96.5144 176.781 95.8189 178.293 94.4609 178.79L83.122 182.986C82.8239 183.096 82.5148 183.151 82.2167 183.151Z" fill="#446993"/>
<path d="M190.339 170.134H176.482C175.036 170.134 173.855 168.964 173.855 167.507C173.855 166.049 175.025 164.879 176.482 164.879H190.339C191.785 164.879 192.966 166.049 192.966 167.507C192.966 168.964 191.796 170.134 190.339 170.134Z" fill="#446993"/>
<path d="M187.821 183.151C187.523 183.151 187.214 183.096 186.916 182.986L175.577 178.79C174.219 178.282 173.524 176.781 174.031 175.423C174.528 174.065 176.041 173.369 177.399 173.877L188.738 178.073C190.096 178.581 190.791 180.082 190.283 181.44C189.897 182.5 188.892 183.151 187.821 183.151Z" fill="#446993"/>
<path d="M114.732 137.84H107.467C106.02 137.84 104.839 136.67 104.839 135.213C104.839 133.755 106.009 132.585 107.467 132.585H114.732C116.178 132.585 117.359 133.755 117.359 135.213C117.359 136.67 116.189 137.84 114.732 137.84Z" fill="white"/>
<path d="M162.571 137.84H155.306C153.86 137.84 152.679 136.67 152.679 135.213C152.679 133.755 153.849 132.585 155.306 132.585H162.571C164.018 132.585 165.199 133.755 165.199 135.213C165.199 136.67 164.029 137.84 162.571 137.84Z" fill="white"/>
<path d="M150.161 171.437C150.15 172 150.128 172.541 150.073 173.093C149.952 174.462 149.709 175.787 149.344 177.068C147.247 184.554 141.362 189.886 134.495 189.776C130.476 189.699 126.866 187.777 124.194 184.675C124.006 184.465 123.84 184.255 123.664 184.024C121.003 180.623 119.391 175.997 119.479 170.907C119.645 160.65 126.556 159.381 135.014 159.535C143.493 159.679 150.338 161.18 150.161 171.448V171.437Z" fill="#446993"/>
<path d="M149.344 177.057C147.247 184.543 141.362 189.875 134.495 189.765C130.476 189.688 126.865 187.767 124.194 184.664C125.739 177.797 130.619 172.541 136.924 171.813C141.605 171.283 146.087 173.347 149.344 177.057Z" fill="#FF80A9"/>
<path d="M147.202 159.447C144.453 157.769 140.987 157.206 137.641 157.007V153.353H138.911C140.357 153.353 141.539 152.182 141.539 150.725C141.539 149.267 140.368 148.097 138.911 148.097H131.127C129.681 148.097 128.499 149.267 128.499 150.725C128.499 152.182 129.67 153.353 131.127 153.353H132.397V156.908C126.17 157.029 117.061 158.542 116.851 170.874C116.752 176.45 118.474 181.738 121.687 185.779C125.022 189.964 129.559 192.315 134.45 192.404C134.539 192.404 134.627 192.404 134.715 192.404C144.508 192.404 152.579 183.085 152.778 171.492C152.877 165.829 151 161.777 147.191 159.458L147.202 159.447ZM134.55 187.148C131.249 187.093 128.135 185.448 125.794 182.5C123.332 179.409 122.019 175.313 122.096 170.951C122.217 164.04 125.22 161.975 134.969 162.152C138.315 162.207 142.069 162.461 144.464 163.93C145.822 164.758 147.622 166.436 147.534 171.393C147.379 180.204 141.539 187.259 134.539 187.148H134.55Z" fill="#446993"/>
<path d="M176.913 153.518C176.913 148.031 172.983 143.582 168.147 143.582C163.311 143.582 159.38 148.031 159.38 153.518C159.38 159.005 163.311 163.455 168.147 163.455C172.983 163.455 176.913 159.005 176.913 153.518Z" fill="#446993"/>
<path d="M110.658 153.518C110.658 148.031 106.727 143.582 101.891 143.582C97.0555 143.582 93.125 148.031 93.125 153.518C93.125 159.005 97.0555 163.455 101.891 163.455C106.727 163.455 110.658 159.005 110.658 153.518Z" fill="#446993"/>
<path d="M227.112 89.0118C229.292 80.7218 229.912 72.4418 225.502 68.6918C218.652 62.8518 212.452 66.7018 205.902 69.0918C205.142 62.1718 205.842 54.8918 197.562 51.3518C192.242 49.0718 185.102 53.3018 178.642 58.9318C164.102 55.9418 151.672 58.5518 146.422 67.0118C138.092 80.4418 150.982 103.512 175.222 118.542C199.452 133.572 225.852 134.882 234.182 121.452C239.432 112.992 236.252 100.692 227.112 89.0018V89.0118Z" fill="#446993"/>
<path d="M162.312 76.8719C162.572 81.0119 168.782 92.8619 184.952 102.892C201.112 112.912 214.483 113.212 218.312 111.612C218.312 111.612 220.393 107.602 222.693 101.982C217.323 102.842 205.342 101.502 191.242 92.7519C177.132 84.0019 170.612 73.8519 168.992 68.6719C164.972 73.2319 162.312 76.8719 162.312 76.8719Z" fill="white"/>
<path d="M229.702 88.4719C232.302 77.8519 231.422 70.5919 227.052 66.8719C220.172 61.0019 213.712 63.4419 207.992 65.7219C207.502 59.5919 206.822 52.7219 198.502 49.1619C193.232 46.9019 186.332 49.3319 177.972 56.3719C162.382 53.4519 149.892 56.9219 144.402 65.7519C139.902 73.0119 140.652 82.8019 146.532 93.3219C152.162 103.402 161.902 113.072 173.962 120.552C186.022 128.032 199.012 132.462 210.542 133.032C211.382 133.072 212.212 133.092 213.022 133.092C223.832 133.092 232.002 129.442 236.192 122.692C241.672 113.862 239.232 101.122 229.692 88.4519L229.702 88.4719ZM196.632 53.5419C202.172 55.9119 202.762 59.9719 203.282 66.4119C203.312 66.7519 203.342 67.1019 203.362 67.4519C201.002 68.1819 198.522 68.5819 196.002 67.8519C194.742 67.4919 193.422 68.2119 193.062 69.4719C192.702 70.7319 193.422 72.0519 194.682 72.4119C199.142 73.7019 203.262 72.5819 206.712 71.3219C207.652 70.9819 208.582 70.6019 209.482 70.2519C215.472 67.8619 219.382 66.5919 223.962 70.5019C230.342 75.9319 223.002 97.0119 216.632 109.662C212.782 110.562 200.922 110.022 186.192 100.882C171.462 91.7419 165.702 81.3519 164.802 77.5019C173.302 66.1719 188.932 50.2419 196.632 53.5419ZM232.162 120.212C228.612 125.942 221.022 128.812 210.782 128.312C200.042 127.782 187.862 123.602 176.472 116.542C165.092 109.482 155.932 100.422 150.682 91.0319C145.682 82.0819 144.882 74.0019 148.442 68.2819C152.452 61.8319 161.632 59.0419 173.472 60.5019C166.222 67.5819 160.622 75.1619 160.392 75.4819C160.062 75.9319 159.902 76.4819 159.932 77.0419C160.292 82.7319 167.902 95.1419 183.692 104.932C195.302 112.132 206.212 114.742 213.262 114.742C215.802 114.742 217.832 114.402 219.222 113.822C219.732 113.602 220.162 113.212 220.412 112.722C220.592 112.372 224.902 103.992 228.022 94.3519C234.592 104.312 236.172 113.772 232.162 120.232V120.212Z" fill="#294F79"/>
<path d="M152.098 28.9824L151.088 29.6024L150.468 28.5924C147.908 24.4024 142.438 23.0924 138.248 25.6524C134.058 28.2124 132.748 33.6824 135.308 37.8724L138.698 43.4124C142.288 49.2824 149.968 51.1324 155.838 47.5324L161.378 44.1424C165.568 41.5824 166.878 36.1124 164.318 31.9224C161.758 27.7324 156.288 26.4224 152.098 28.9824Z" fill="#FFA6CA"/>
</g>
<defs>
<clipPath id="clip0_1215_7289">
<rect width="240" height="238" fill="white" transform="translate(0 0.5)"/>
</clipPath>
</defs>
</svg>
