<svg width="24" height="26" viewBox="0 0 24 26" fill="none" xmlns="http://www.w3.org/2000/svg">
<path d="M10.7076 1.02516C11.0643 0.68791 11.5366 0.5 12.0275 0.5C12.5184 0.5 12.9907 0.68791 13.3474 1.02516L22.654 9.82258C23.2303 10.3663 23.555 11.1252 23.555 11.9167V22.6181C23.555 23.3824 23.2514 24.1155 22.711 24.6559C22.1705 25.1964 21.4375 25.5 20.6732 25.5H16.8306C16.452 25.5 16.0771 25.4254 15.7274 25.2804C15.3776 25.1355 15.0598 24.923 14.7922 24.6552C14.5245 24.3874 14.3123 24.0695 14.1676 23.7196C14.0229 23.3698 13.9485 22.9948 13.9488 22.6162V17.8131C13.9488 17.5583 13.8476 17.314 13.6674 17.1338C13.4873 16.9536 13.2429 16.8524 12.9881 16.8524H11.0669C10.8121 16.8524 10.5678 16.9536 10.3876 17.1338C10.2075 17.314 10.1063 17.5583 10.1063 17.8131V22.6162C10.1063 23.3805 9.80264 24.1135 9.26218 24.654C8.72172 25.1945 7.98871 25.4981 7.22438 25.4981H3.38188C2.61756 25.4981 1.88454 25.1945 1.34408 24.654C0.803626 24.1135 0.5 23.3805 0.5 22.6162V11.9148C0.5 11.1233 0.826613 10.3644 1.40299 9.82066L10.7076 1.02516ZM12.0275 2.41999L2.72097 11.2193C2.62649 11.3089 2.5512 11.4167 2.49968 11.5363C2.44816 11.6559 2.42148 11.7846 2.42125 11.9148V22.6162C2.42125 22.871 2.52246 23.1153 2.70261 23.2955C2.88277 23.4756 3.12711 23.5768 3.38188 23.5768H7.22438C7.47916 23.5768 7.7235 23.4756 7.90365 23.2955C8.0838 23.1153 8.18501 22.871 8.18501 22.6162V17.8131C8.18501 17.0487 8.48864 16.3157 9.02909 15.7753C9.56955 15.2348 10.3026 14.9312 11.0669 14.9312H12.9881C13.7525 14.9312 14.4855 15.2348 15.0259 15.7753C15.5664 16.3157 15.87 17.0487 15.87 17.8131V22.6162C15.87 22.871 15.9712 23.1153 16.1514 23.2955C16.3315 23.4756 16.5759 23.5768 16.8306 23.5768H20.6732C20.9279 23.5768 21.1723 23.4756 21.3524 23.2955C21.5326 23.1153 21.6338 22.871 21.6338 22.6162V11.9148C21.6338 11.7843 21.6073 11.6552 21.5557 11.5353C21.5042 11.4153 21.4288 11.3072 21.3341 11.2174L12.0275 2.41999Z" fill="#BCBABD"/>
</svg>
