<svg width="212" height="221" viewBox="0 0 212 221" fill="none" xmlns="http://www.w3.org/2000/svg">
<path d="M196.9 5.6081C186.23 -5.0619 152.23 14.3481 137.24 23.7681C129.83 22.5381 120.26 22.0281 109.31 22.0781C98.36 22.0281 88.8 22.5381 81.38 23.7681C66.4 14.3581 32.4 -5.0619 21.72 5.6081C11.12 16.2081 23.23 45.3081 29.43 58.2581C22.09 70.6681 19.41 84.2481 19.41 95.9481C19.41 106.068 20.62 116.178 23.04 126.278C27.77 146.008 43.37 161.158 63.25 165.178C68.29 166.198 73.32 167.048 78.36 167.728C70.41 173.928 65.59 182.058 65.59 190.958C65.59 210.388 88.56 220.678 116.88 220.678C145.2 220.678 168.17 210.388 168.17 190.958C168.17 181.058 162.2 172.108 152.61 165.718C153.53 165.548 154.45 165.368 155.37 165.178C175.25 161.148 190.85 145.998 195.58 126.278C198 116.168 199.21 106.068 199.21 95.9481C199.21 84.2481 196.53 70.6581 189.18 58.2481C195.39 45.2881 207.49 16.1981 196.89 5.6081H196.9Z" fill="#ADBED9"/>
<path d="M98.4502 29.2979C98.4502 46.0479 103.32 59.6179 109.31 59.6179C115.3 59.6179 120.19 46.0479 120.19 29.2979C120.19 26.9979 120.1 24.7679 119.92 22.6279C112.85 22.3079 105.79 22.3079 98.7202 22.6379C98.5402 24.7779 98.4502 27.0079 98.4502 29.2979Z" fill="#446993"/>
<path d="M121.79 23.798C121.79 40.538 126.65 54.118 132.65 54.118C138.65 54.118 143.17 41.488 143.5 25.578C139.77 24.608 135.91 23.908 131.96 23.508C128.57 23.178 125.19 22.908 121.8 22.728C121.79 23.088 121.79 23.438 121.79 23.788V23.798Z" fill="#446993"/>
<path d="M75.1299 25.4378C75.4399 41.4078 80.1799 54.1178 85.9799 54.1178C91.7799 54.1178 96.8399 40.5378 96.8399 23.7978C96.8399 23.4378 96.8399 23.0878 96.8299 22.7378C92.9399 22.9478 89.0399 23.2678 85.1599 23.6778C81.7399 24.0378 78.3899 24.6378 75.1299 25.4478V25.4378Z" fill="#446993"/>
<path d="M34.2401 31.3782C34.2401 31.3782 32.5101 35.3082 32.2301 39.6982C31.9601 43.7682 34.4101 46.8682 37.6201 48.1682C44.3501 40.5082 52.6701 34.2482 62.0501 29.9082C61.9601 27.6982 61.0401 25.5382 59.2401 23.9082C52.0301 17.3582 42.0701 10.2882 35.0101 13.1582C22.7201 18.1782 34.2401 31.3882 34.2401 31.3882V31.3782Z" fill="white"/>
<path d="M184.41 31.3782C184.41 31.3782 186.14 35.3082 186.42 39.6982C186.69 43.7682 184.24 46.8682 181.03 48.1682C174.3 40.5082 165.98 34.2482 156.6 29.9082C156.69 27.6982 157.61 25.5382 159.41 23.9082C166.62 17.3582 176.58 10.2882 183.64 13.1582C195.93 18.1782 184.41 31.3882 184.41 31.3882V31.3782Z" fill="white"/>
<path d="M198.65 3.86803C193.19 -1.60197 183.09 -1.27197 167.79 4.86803C156.52 9.38803 144.82 16.148 136.73 21.198C129.63 20.098 120.47 19.568 109.33 19.618C98.2001 19.568 89.0301 20.098 81.9201 21.198C73.8401 16.148 62.1501 9.39803 50.8701 4.86803C35.5701 -1.27197 25.47 -1.60197 20.0001 3.86803C8.93005 14.938 19.1301 42.098 26.6601 58.128C18.4601 72.568 16.9601 87.218 16.9601 95.958C16.9601 106.238 18.2001 116.638 20.6601 126.868C23.0901 137.008 28.3201 146.188 35.7701 153.398C43.2301 160.628 52.57 165.538 62.78 167.608C78.22 170.728 93.8801 172.308 109.33 172.308C124.78 172.308 140.44 170.728 155.88 167.608C166.09 165.538 175.43 160.628 182.89 153.398C190.34 146.188 195.56 137.008 198 126.868C200.45 116.638 201.7 106.238 201.7 95.958C201.7 87.218 200.2 72.568 192 58.128C199.55 42.108 209.76 14.958 198.67 3.86803H198.65ZM193.19 125.718C190.97 134.948 186.22 143.298 179.45 149.868C172.66 156.438 164.17 160.908 154.89 162.788C139.77 165.848 124.44 167.398 109.32 167.398C94.2001 167.398 78.87 165.848 63.75 162.788C54.47 160.908 45.9701 156.438 39.1901 149.868C32.4101 143.308 27.6601 134.958 25.4501 125.718C23.0901 115.868 21.8901 105.848 21.8901 95.958C21.8901 84.968 24.4001 63.998 41.2301 46.998C42.1901 46.028 42.1801 44.478 41.2101 43.518C40.2401 42.558 38.6901 42.568 37.7301 43.538C34.6601 46.638 32.0401 49.868 29.7901 53.148C19.6101 30.578 17.2201 13.608 23.4801 7.34803C29.5601 1.26803 49.0201 7.12803 74.8801 22.648C74.7401 22.688 74.5901 22.718 74.4501 22.758C69.7301 24.098 65.2101 25.738 61.0201 27.628C59.7801 28.188 59.2301 29.638 59.7901 30.878C60.3501 32.118 61.8001 32.668 63.0401 32.108C67.0101 30.318 71.3001 28.768 75.7901 27.488C82.9401 25.458 94.2101 24.458 109.32 24.528C124.42 24.458 135.68 25.458 142.83 27.488C147.32 28.768 151.61 30.318 155.58 32.108C155.91 32.258 156.25 32.328 156.59 32.328C157.53 32.328 158.43 31.788 158.83 30.878C159.39 29.638 158.83 28.178 157.6 27.628C153.41 25.738 148.89 24.108 144.17 22.758C144.04 22.718 143.89 22.688 143.76 22.648C151.21 18.188 160.58 13.048 169.6 9.42803C182.5 4.24803 191.34 3.52803 195.15 7.33803C201.42 13.608 199.03 30.578 188.83 53.138C186.58 49.868 183.96 46.638 180.89 43.528C179.93 42.558 178.38 42.558 177.41 43.508C176.44 44.468 176.44 46.018 177.39 46.988C194.22 63.988 196.73 84.958 196.73 95.948C196.73 105.838 195.53 115.858 193.17 125.708L193.19 125.718Z" fill="#446993"/>
<path d="M49.4098 103.288H33.4798C31.9998 103.288 30.7998 102.088 30.7998 100.608C30.7998 99.1282 31.9998 97.9282 33.4798 97.9282H49.4098C50.8898 97.9282 52.0898 99.1282 52.0898 100.608C52.0898 102.088 50.8898 103.288 49.4098 103.288Z" fill="#446993"/>
<path d="M36.3701 118.258C35.2801 118.258 34.25 117.588 33.85 116.508C33.34 115.118 34.0401 113.578 35.4301 113.058L48.47 108.228C49.86 107.708 51.4 108.418 51.92 109.808C52.44 111.198 51.73 112.738 50.34 113.258L37.3001 118.088C36.9901 118.198 36.6801 118.258 36.3701 118.258Z" fill="#446993"/>
<path d="M160.71 103.288H144.78C143.3 103.288 142.1 102.088 142.1 100.608C142.1 99.1282 143.3 97.9282 144.78 97.9282H160.71C162.19 97.9282 163.39 99.1282 163.39 100.608C163.39 102.088 162.19 103.288 160.71 103.288Z" fill="#446993"/>
<path d="M157.809 118.258C157.499 118.258 157.189 118.208 156.879 118.088L143.839 113.258C142.449 112.748 141.739 111.198 142.259 109.808C142.769 108.418 144.319 107.708 145.709 108.228L158.749 113.058C160.139 113.568 160.849 115.118 160.329 116.508C159.929 117.588 158.899 118.258 157.809 118.258Z" fill="#446993"/>
<path d="M73.7599 67.2083C73.6399 67.2083 73.5099 67.2083 73.3799 67.1783L65.0199 65.8983C63.6799 65.6883 62.7599 64.4383 62.9599 63.0883C63.1699 61.7483 64.4199 60.8283 65.7599 61.0283L74.1199 62.3083C75.4599 62.5183 76.3799 63.7683 76.1799 65.1183C75.9899 66.3383 74.9499 67.2083 73.7499 67.2083H73.7599Z" fill="white"/>
<path d="M120.42 67.2081C119.23 67.2081 118.18 66.3382 117.99 65.1181C117.78 63.7781 118.71 62.5181 120.05 62.3081L128.41 61.0281C129.75 60.8181 131.01 61.7481 131.21 63.0881C131.42 64.4281 130.49 65.6881 129.15 65.8981L120.79 67.1781C120.66 67.1981 120.54 67.2081 120.41 67.2081H120.42Z" fill="white"/>
<path d="M144.6 83.818C144.04 84.808 142.88 85.298 141.78 84.988C138.98 84.198 132.62 82.968 120.5 83.278C119.65 83.308 118.83 82.868 118.36 82.138C117.9 81.408 117.85 80.498 118.23 79.718C118.4 79.368 122.67 71.068 137.98 68.478C139.42 68.238 140.79 69.308 140.85 70.818C140.9 72.068 139.95 73.128 138.72 73.338C132.47 74.408 128.5 76.468 126.06 78.308C135.01 78.428 140.28 79.418 143.14 80.238C144.66 80.678 145.37 82.428 144.6 83.808V83.818Z" fill="#446993"/>
<path d="M49.6003 83.8179C48.8303 82.4379 49.5303 80.6879 51.0603 80.2479C53.9203 79.4279 59.1903 78.4379 68.1403 78.3179C65.7003 76.4879 61.7203 74.4179 55.4703 73.3479C54.2403 73.1379 53.2903 72.068 53.3403 70.828C53.4003 69.308 54.7703 68.2379 56.2103 68.4879C71.5103 71.0779 75.7803 79.378 75.9603 79.728C76.3403 80.498 76.2903 81.418 75.8303 82.148C75.3703 82.878 74.5603 83.308 73.6903 83.288C61.5703 82.978 55.2103 84.1979 52.4103 84.9979C51.3103 85.3079 50.1503 84.828 49.5903 83.828L49.6003 83.8179Z" fill="#446993"/>
<path d="M74.3701 110.328C74.3701 99.8882 84.5401 91.4282 97.0901 91.4282C109.64 91.4282 119.81 99.8882 119.81 110.328C119.81 120.768 109.64 121.128 97.0901 121.128C84.5401 121.128 74.3701 120.768 74.3701 110.328Z" fill="white"/>
<path d="M118.5 113.478C111.83 109.438 94.2997 101.208 75.6197 112.088L73.1396 107.838C94.0996 95.6279 113.63 104.778 121.05 109.268L118.5 113.478Z" fill="#446993"/>
<path d="M99.5502 89.0779V83.7579H101.57C102.93 83.7579 104.03 82.6579 104.03 81.2979C104.03 79.9379 102.93 78.8379 101.57 78.8379H92.6202C91.2602 78.8379 90.1602 79.9379 90.1602 81.2979C90.1602 82.6579 91.2602 83.7579 92.6202 83.7579H94.6302V89.0779C81.8902 90.1279 71.9102 99.2579 71.9102 110.328C71.9102 116.178 74.7102 120.098 80.2402 121.968C84.6502 123.468 90.4802 123.588 97.1002 123.588C103.72 123.588 109.55 123.468 113.96 121.968C119.48 120.088 122.29 116.178 122.29 110.328C122.29 99.2579 112.3 90.1279 99.5702 89.0779H99.5502ZM97.0901 118.668C82.1401 118.668 76.8302 117.408 76.8302 110.328C76.8302 101.268 85.9201 93.8879 97.0901 93.8879C108.26 93.8879 117.35 101.258 117.35 110.328C117.35 117.408 112.04 118.668 97.0901 118.668Z" fill="#446993"/>
<path d="M141.65 205.828C140.88 205.828 140.13 205.468 139.64 204.798C138.85 203.688 139.11 202.158 140.21 201.368C143.91 198.728 146.73 194.488 148.57 188.768C148.99 187.478 150.37 186.758 151.67 187.178C152.96 187.598 153.67 188.978 153.26 190.278C151.09 197.028 147.66 202.108 143.08 205.378C142.65 205.688 142.15 205.838 141.65 205.838V205.828Z" fill="#446993"/>
<path d="M32.15 125.908H39.93C56.33 125.908 69.62 142.758 69.62 163.538C69.62 184.318 56.33 201.178 39.93 201.178H32.15C15.75 201.178 2.45996 184.328 2.45996 163.538C2.45996 142.748 15.75 125.908 32.15 125.908Z" fill="#767576"/>
<path d="M39.93 203.638H32.15C14.42 203.638 0 185.648 0 163.538C0 141.428 14.42 123.438 32.15 123.438H39.93C57.66 123.438 72.08 141.428 72.08 163.538C72.08 185.648 57.66 203.638 39.93 203.638ZM32.15 128.368C17.13 128.368 4.92001 144.148 4.92001 163.538C4.92001 182.928 17.14 198.708 32.15 198.708H39.93C54.95 198.708 67.16 182.928 67.16 163.538C67.16 144.148 54.94 128.368 39.93 128.368H32.15Z" fill="#525252"/>
<path d="M39.9197 188.968C32.7197 188.968 26.3197 182.438 23.6197 172.328C22.8397 169.448 22.4297 166.408 22.4297 163.548C22.4297 160.688 22.8397 157.648 23.6197 154.758C26.3097 144.658 32.7097 138.128 39.9097 138.128C41.2697 138.128 42.3697 139.228 42.3697 140.588C42.3697 141.948 41.2697 143.048 39.9097 143.048C34.3297 143.048 30.0897 149.568 28.3697 156.038C27.6997 158.528 27.3397 161.118 27.3397 163.548C27.3397 165.978 27.6897 168.578 28.3597 171.058C30.0897 177.528 34.3197 184.058 39.8997 184.058C41.2597 184.058 42.3597 185.158 42.3597 186.518C42.3597 187.878 41.2597 188.978 39.8997 188.978L39.9197 188.968Z" fill="#525252"/>
<path d="M37.3701 163.538C37.3701 165.668 37.6801 167.858 38.2401 169.948H154.73C158.72 169.948 161.95 167.078 161.95 163.538C161.95 159.998 158.72 157.128 154.73 157.128H38.2401C37.6801 159.218 37.3701 161.408 37.3701 163.538Z" fill="white"/>
<path d="M154.73 172.418H38.2404C37.1304 172.418 36.1504 171.668 35.8604 170.598C35.2304 168.278 34.9004 165.838 34.9004 163.548C34.9004 161.258 35.2304 158.818 35.8604 156.498C36.1504 155.428 37.1204 154.678 38.2404 154.678H154.73C160.07 154.678 164.41 158.658 164.41 163.548C164.41 168.438 160.07 172.418 154.73 172.418ZM40.2004 167.498H154.73C157.36 167.498 159.49 165.728 159.49 163.548C159.49 161.368 157.35 159.598 154.73 159.598H40.2004C39.9504 160.928 39.8304 162.268 39.8304 163.548C39.8304 164.828 39.9604 166.168 40.2004 167.498Z" fill="#446993"/>
<path d="M171.34 125.908H179.12C195.52 125.908 208.81 142.758 208.81 163.538C208.81 184.318 195.52 201.178 179.12 201.178H171.34C154.94 201.178 141.65 184.328 141.65 163.538C141.65 142.748 154.94 125.908 171.34 125.908Z" fill="#767576"/>
<path d="M179.12 203.638H171.34C153.61 203.638 139.19 185.648 139.19 163.538C139.19 141.428 153.61 123.438 171.34 123.438H179.12C196.85 123.438 211.27 141.428 211.27 163.538C211.27 185.648 196.85 203.638 179.12 203.638ZM171.34 128.368C156.32 128.368 144.11 144.148 144.11 163.538C144.11 182.928 156.33 198.708 171.34 198.708H179.12C194.14 198.708 206.35 182.928 206.35 163.538C206.35 144.148 194.13 128.368 179.12 128.368H171.34Z" fill="#525252"/>
<path d="M179.121 188.968C171.921 188.968 165.521 182.438 162.821 172.328C162.041 169.448 161.631 166.408 161.631 163.548C161.631 160.688 162.041 157.648 162.821 154.758C165.511 144.658 171.911 138.128 179.111 138.128C180.471 138.128 181.571 139.228 181.571 140.588C181.571 141.948 180.471 143.048 179.111 143.048C173.531 143.048 169.291 149.568 167.571 156.038C166.901 158.528 166.541 161.118 166.541 163.548C166.541 165.978 166.891 168.578 167.561 171.058C169.291 177.528 173.521 184.058 179.101 184.058C180.461 184.058 181.561 185.158 181.561 186.518C181.561 187.878 180.461 188.978 179.101 188.978L179.121 188.968Z" fill="#525252"/>
<path d="M179.61 163.538C179.61 165.668 179.92 167.858 180.48 169.948H186.98C188.75 169.948 190.35 169.228 191.52 168.058C192.67 166.908 193.39 165.298 193.39 163.528C193.39 159.988 190.52 157.118 186.98 157.118H180.48C179.92 159.208 179.61 161.398 179.61 163.528V163.538Z" fill="white"/>
<path d="M186.99 172.418H180.49C179.38 172.418 178.4 171.668 178.11 170.598C177.48 168.278 177.15 165.838 177.15 163.548C177.15 161.258 177.48 158.818 178.11 156.498C178.4 155.428 179.37 154.678 180.49 154.678H186.99C191.88 154.678 195.86 158.658 195.86 163.548C195.86 165.918 194.94 168.148 193.27 169.818C191.59 171.498 189.36 172.428 186.99 172.428V172.418ZM182.45 167.498H186.99C188.04 167.498 189.04 167.088 189.79 166.338C190.53 165.598 190.94 164.608 190.94 163.548C190.94 161.368 189.17 159.598 186.99 159.598H182.45C182.2 160.928 182.08 162.268 182.08 163.548C182.08 164.828 182.21 166.168 182.45 167.498Z" fill="#446993"/>
<path d="M86.8001 201.948L72.5301 207.098C47.9001 207.098 43.0701 151.088 57.5601 148.188C68.9201 145.918 75.6201 159.058 77.5601 184.888L86.8001 201.948Z" fill="#ADBED9"/>
<path d="M72.5298 209.568C65.3898 209.568 59.1498 205.498 54.4998 197.798C50.7398 191.568 48.1798 183.228 47.2998 174.308C46.0198 161.338 48.5398 147.488 57.0798 145.788C61.0998 144.988 64.7198 145.788 67.8498 148.158C74.4798 153.198 78.5698 165.498 80.0098 184.718C80.1098 186.078 79.0998 187.258 77.7398 187.358C76.3798 187.468 75.1998 186.448 75.0998 185.088C73.4498 162.968 68.6298 154.928 64.8698 152.078C62.8898 150.568 60.6498 150.088 58.0398 150.618C53.5598 151.518 50.9898 161.708 52.1898 173.828C53.6598 188.678 60.6498 204.648 72.5298 204.648C82.4598 204.648 89.1498 198.828 92.4098 187.338C92.7798 186.028 94.1398 185.268 95.4498 185.638C96.7598 186.008 97.5198 187.368 97.1498 188.678C93.2698 202.338 84.7598 209.558 72.5398 209.558L72.5298 209.568Z" fill="#446993"/>
<path d="M134.17 184.898L129.14 207.108C104.51 207.108 99.6699 151.098 114.17 148.198C125.54 145.928 132.23 159.068 134.17 184.898Z" fill="#ADBED9"/>
<path d="M129.14 209.568C122 209.568 115.76 205.498 111.11 197.798C107.35 191.568 104.79 183.228 103.9 174.308C102.62 161.338 105.14 147.498 113.69 145.788C117.71 144.988 121.33 145.788 124.46 148.158C131.09 153.188 135.18 165.488 136.62 184.718C136.72 186.078 135.71 187.258 134.35 187.358C132.99 187.468 131.81 186.448 131.71 185.088C130.05 162.968 125.23 154.928 121.48 152.078C119.5 150.568 117.26 150.098 114.65 150.618C110.17 151.518 107.6 161.708 108.8 173.828C110.27 188.678 117.26 204.658 129.14 204.658C133.44 204.658 137.17 203.558 140.22 201.378C141.33 200.588 142.86 200.848 143.65 201.948C144.44 203.058 144.18 204.588 143.08 205.378C139.18 208.158 134.49 209.568 129.14 209.568Z" fill="#446993"/>
</svg>
