<svg width="21" height="25" viewBox="0 0 21 25" fill="none" xmlns="http://www.w3.org/2000/svg">
<path d="M15.3805 2.33789H11.8877V13.0385H15.3805V2.33789Z" fill="#E94311"/>
<path d="M8.39515 2.33789H4.90234V13.0385H8.39515V2.33789Z" fill="#E94311"/>
<path d="M15.849 2.76286H4.43338C3.81978 2.76286 3.3208 2.25542 3.3208 1.63142C3.3208 1.00742 3.81978 0.5 4.43338 0.5H15.849C16.4626 0.5 16.9616 1.00742 16.9616 1.63142C16.9616 2.25542 16.4626 2.76286 15.849 2.76286Z" fill="#FFC33D"/>
<path d="M15.3774 2.7627H4.90234V3.3627H15.3774V2.7627Z" fill="#A53E11"/>
<path d="M11.8878 2.33789H8.39502V13.0385H11.8878V2.33789Z" fill="#FFFAFF"/>
<path d="M11.8878 2.7627H8.39502V3.3627H11.8878V2.7627Z" fill="#FFDEA3"/>
<path d="M16.9616 1.63135C16.9616 2.25535 16.4626 2.76278 15.849 2.76278H4.43338C3.81978 2.76278 3.3208 2.25535 3.3208 1.63135" fill="#EE7C1C"/>
<path d="M17.1034 17.2827L19.9893 14.3479L17.1034 11.4164V7.26786H13.024L10.1414 4.33301L7.25546 7.26786H3.17602V11.4164L0.293457 14.3479L3.17602 17.2827V21.4313H7.25546L10.1414 24.3627L13.024 21.4313H17.1034V17.2827Z" fill="#FFC33D"/>
<path d="M3.17578 7.26807L10.1412 14.3481L7.25521 7.26807H3.17578Z" fill="#75D4FC"/>
<path d="M10.1413 4.33301V14.3479L7.25537 7.26786L10.1413 4.33301Z" fill="#51B0D4"/>
<path d="M0.293457 14.3479H10.1414L3.17602 11.4165L0.293457 14.3479Z" fill="#9BE7FE"/>
<path d="M3.17578 7.26807L10.1412 14.3481L3.17578 11.4166V7.26807Z" fill="#3283A9"/>
<path d="M17.1036 7.26807L10.1416 14.3481L17.1036 11.4166V7.26807Z" fill="#75D4FC"/>
<path d="M19.9895 14.3479H10.1416L17.1036 11.4165L19.9895 14.3479Z" fill="#9BE7FE"/>
<path d="M10.1416 4.33301V14.3479L13.0242 7.26786L10.1416 4.33301Z" fill="#9BE7FE"/>
<path d="M17.1036 7.26807L10.1416 14.3481L13.0242 7.26807H17.1036Z" fill="#51B0D4"/>
<path d="M17.1036 21.4311L10.1416 14.3477L13.0242 21.4311H17.1036Z" fill="#75D4FC"/>
<path d="M10.1416 24.3625V14.3477L13.0242 21.4311L10.1416 24.3625Z" fill="#9BE7FE"/>
<path d="M19.9895 14.3477H10.1416L17.1036 17.2825L19.9895 14.3477Z" fill="#75D4FC"/>
<path d="M17.1036 21.4311L10.1416 14.3477L17.1036 17.2825V21.4311Z" fill="#51B0D4"/>
<path d="M3.17578 21.4311L10.1412 14.3477L3.17578 17.2825V21.4311Z" fill="#75D4FC"/>
<path d="M0.293457 14.3477H10.1414L3.17602 17.2825L0.293457 14.3477Z" fill="#51B0D4"/>
<path d="M10.1413 24.3625V14.3477L7.25537 21.4311L10.1413 24.3625Z" fill="#75D4FC"/>
<path d="M3.17578 21.4311L10.1412 14.3477L7.25521 21.4311H3.17578Z" fill="#3283A9"/>
<path d="M10.1411 21.0681C13.789 21.0681 16.7491 18.0613 16.7491 14.3481H10.1411V21.0681Z" fill="#9BE7FE"/>
<path d="M10.1412 7.62793C6.49332 7.62793 3.5332 10.6348 3.5332 14.3479H10.1412V7.62793Z" fill="#3283A9"/>
<path d="M10.1411 7.62793V14.3479H16.7491C16.7491 10.6382 13.7924 7.62793 10.1411 7.62793Z" fill="#51B0D4"/>
<path d="M3.5332 14.3481C3.5332 18.0579 6.48995 21.0681 10.1412 21.0681V14.3481H3.5332Z" fill="#51B0D4"/>
<path d="M16.1272 15.3421C16.6668 11.9801 14.4242 8.80982 11.1183 8.26108C7.81229 7.71234 4.69484 9.99293 4.15525 13.3549C3.61565 16.7169 5.85824 19.8872 9.16421 20.436C12.4702 20.9847 15.5876 18.7041 16.1272 15.3421Z" fill="#84D9FE"/>
<path d="M10.1415 18.6334C12.469 18.6334 14.3558 16.7147 14.3558 14.3477C14.3558 11.9808 12.469 10.062 10.1415 10.062C7.81405 10.062 5.92725 11.9808 5.92725 14.3477C5.92725 16.7147 7.81405 18.6334 10.1415 18.6334Z" fill="#51B0D4"/>
<path d="M10.1414 10.062C8.86023 10.062 7.71395 10.6449 6.94189 11.5603C7.68024 10.9192 8.63434 10.5283 9.68286 10.5283C12.0091 10.5283 13.8971 12.4483 13.8971 14.814C13.8971 15.8769 13.5162 16.8506 12.8823 17.6014C13.7859 16.8163 14.3557 15.6506 14.3557 14.3477C14.3557 11.982 12.4677 10.062 10.1414 10.062Z" fill="#3283A9"/>
<path d="M15.6739 1.36423H13.3307C13.1622 1.36423 13.0239 1.22365 13.0239 1.05223C13.0239 0.880797 13.1622 0.740234 13.3307 0.740234H15.6739C15.8424 0.740234 15.9807 0.880797 15.9807 1.05223C15.9807 1.22365 15.8424 1.36423 15.6739 1.36423Z" fill="#F5F8FF"/>
<path d="M12.1945 1.36033C12.3639 1.36033 12.5013 1.22064 12.5013 1.04833C12.5013 0.876017 12.3639 0.736328 12.1945 0.736328C12.0251 0.736328 11.8877 0.876017 11.8877 1.04833C11.8877 1.22064 12.0251 1.36033 12.1945 1.36033Z" fill="#F5F8FF"/>
</svg>
