<svg width="64" height="64" viewBox="0 0 64 64" fill="none" xmlns="http://www.w3.org/2000/svg">
<path d="M41.3557 60.638C28.2725 64.8732 14.3636 59.6647 7.01688 48.8054L5.37411 49.3362C13.0512 61.0627 27.9039 66.7342 41.8659 62.2159C55.8279 57.6975 64.5402 44.3991 63.8913 30.3987L62.2486 30.9296C62.6585 44.0334 54.4388 56.4028 41.3557 60.638Z" fill="#C8D5F3"/>
<path fill-rule="evenodd" clip-rule="evenodd" d="M40.3972 57.6739C28.9627 61.3753 16.8263 57.0369 10.1137 47.8026L9.279 48.071C16.1627 57.7388 28.7769 62.3073 40.6508 58.4614C52.5277 54.6185 60.072 43.5261 59.9835 31.6581L59.1489 31.9265C59.1223 43.3403 51.8287 53.9696 40.3942 57.671L40.3972 57.6739ZM23.4475 5.30602C11.3553 9.21975 3.75789 20.6513 4.13246 32.7611L4.95236 32.4957C4.69577 20.8341 12.0484 9.86565 23.7041 6.09348C35.3597 2.32132 47.7439 6.90159 54.368 16.5016L55.1879 16.2362C48.3957 6.20261 35.5426 1.38934 23.4475 5.30307V5.30602Z" fill="#7F9EE3"/>
<path d="M22.7455 3.13238C36.0469 -1.17361 50.2007 4.27671 57.4471 15.5047L59.0781 14.9768C51.5102 2.88169 36.4126 -3.03758 22.2353 1.55155C8.05799 6.14067 -0.71031 19.7812 0.245266 34.0175L1.87623 33.4896C1.1684 20.144 9.44711 7.43542 22.7485 3.12943L22.7455 3.13238Z" fill="#C8D5F3"/>
<path d="M38.8539 54.2928L36.8886 52.3538L34.0771 52.8374L35.4459 50.4924L34.0864 48.1474L36.8932 48.6354L38.8631 46.7007L39.233 49.348L41.8087 50.5011L39.2284 51.6455L38.8539 54.2928Z" fill="#7F9EE3"/>
<path d="M30.3314 55.0357L28.9349 53.6581L26.9419 54.0036L27.913 52.3409L26.9465 50.6739L28.9395 51.0194L30.336 49.6504L30.5996 51.5247L32.4307 52.3452L30.5996 53.1571L30.3314 55.0357Z" fill="#7F9EE3"/>
<path d="M46.2242 50.2291L44.8323 48.8558L42.8394 49.1969L43.8058 47.5343L42.844 45.8716L44.837 46.2171L46.2335 44.8438L46.497 46.7224L48.3236 47.5386L46.4924 48.3548L46.2242 50.2291Z" fill="#7F9EE3"/>
<path d="M25.1206 8.9458L27.0858 10.8849L29.8927 10.4012L28.5285 12.7462L29.888 15.0912L27.0812 14.6032L25.1113 16.5379L24.7414 13.8906L22.1611 12.7376L24.7414 11.5931L25.1206 8.9458Z" fill="#7F9EE3"/>
<path d="M33.6428 8.20312L35.0347 9.57645L37.0277 9.23528L36.0612 10.8979L37.0277 12.5649L35.0347 12.2194L33.6336 13.5885L33.37 11.7098L31.5435 10.8936L33.3746 10.0817L33.6428 8.20312Z" fill="#7F9EE3"/>
<path d="M17.7451 13.0098L19.1416 14.3831L21.1346 14.0419L20.1635 15.7046L21.13 17.3673L19.137 17.0218L17.7405 18.3951L17.4769 16.5165L15.6504 15.7003L17.4815 14.8841L17.7451 13.0098Z" fill="#7F9EE3"/>
<path d="M19.3985 41.6134L17.4028 35.1376C17.199 34.4762 16.8861 34.0591 16.4642 33.8863C16.0505 33.6977 15.4829 33.7146 14.7614 33.937C14.1481 34.126 13.5806 34.3996 13.059 34.7579C12.5373 35.1161 12.0888 35.498 11.7133 35.9033L11.1074 33.9372C11.4043 33.6613 11.8334 33.3447 12.3949 32.9874C12.9683 32.6263 13.6579 32.3216 14.4636 32.0733C15.101 31.8769 15.6842 31.7827 16.2134 31.7908C16.751 31.7832 17.2007 31.9606 17.5626 32.3232C18.0835 32.347 18.5087 32.5517 18.8382 32.9374C19.176 33.3073 19.445 33.817 19.6452 34.4663L21.6352 40.9241L19.3985 41.6134ZM16.4416 42.7221C15.3954 43.0445 14.5137 43.0463 13.7966 42.7274C13.0914 42.4049 12.6018 41.7986 12.3275 40.9087C12.0236 39.9226 12.1352 39.0455 12.6622 38.2774C13.1975 37.4935 14.2242 36.8085 15.7421 36.2222L17.8928 35.3816L18.4209 37.0953L16.5408 37.8524C15.6528 38.2183 15.0733 38.5812 14.8024 38.9412C14.5278 39.2892 14.459 39.6857 14.5962 40.1306C14.7259 40.5515 14.9564 40.8294 15.2876 40.9643C15.6272 41.0835 16.0315 41.0709 16.5005 40.9263C16.6689 40.8745 16.8215 40.8143 16.9584 40.7457C17.1036 40.6615 17.2368 40.5809 17.358 40.5041L18.0719 41.9235C17.8694 42.0781 17.6252 42.2257 17.3394 42.3665C17.0535 42.5072 16.7543 42.6258 16.4416 42.7221ZM17.7753 33.2057L16.1735 32.4945C16.5129 32.2713 16.7774 32.0187 16.967 31.7364C17.1648 31.4384 17.2119 31.121 17.1081 30.7843L19.1825 30.1451C19.2974 30.5179 19.3207 30.8925 19.2524 31.2691C19.1924 31.63 19.0372 31.9807 18.7866 32.3212C18.5443 32.6461 18.2072 32.9409 17.7753 33.2057Z" fill="#7F9EE3"/>
<path d="M16.6605 30.5075C16.0111 30.7076 15.4477 30.7166 14.9702 30.5346C14.4807 30.3563 14.1507 29.9905 13.9803 29.4373C13.8098 28.8841 13.8766 28.3961 14.1808 27.9731C14.473 27.5539 14.9438 27.2442 15.5932 27.0441C16.2546 26.8403 16.83 26.8275 17.3195 27.0059C17.797 27.1879 18.121 27.5556 18.2914 28.1087C18.4619 28.6619 18.4011 29.1481 18.1089 29.5674C17.8047 29.9903 17.3219 30.3037 16.6605 30.5075ZM16.3603 29.5334C16.6369 29.4482 16.827 29.3172 16.9305 29.1404C17.0303 28.9517 17.0451 28.743 16.9746 28.5145C16.9042 28.286 16.7765 28.1279 16.5914 28.0401C16.4026 27.9403 16.1699 27.933 15.8934 28.0182C15.6288 28.0997 15.4466 28.2349 15.3468 28.4237C15.2432 28.6004 15.2267 28.803 15.2971 29.0315C15.3675 29.26 15.4971 29.4242 15.6858 29.524C15.8709 29.6118 16.0957 29.6149 16.3603 29.5334Z" fill="#7F9EE3"/>
<path d="M27.0435 39.2575L24.9756 32.5471C24.8089 32.006 24.5621 31.6541 24.2355 31.4914C23.9172 31.313 23.4694 31.3127 22.8921 31.4906C22.4833 31.6166 22.123 31.7934 21.8113 32.0212C21.4959 32.2369 21.2078 32.4771 20.947 32.7418L20.3634 30.8478C20.5788 30.6497 20.9026 30.4182 21.3345 30.1534C21.7664 29.8887 22.3011 29.6581 22.9384 29.4616C23.5878 29.2615 24.1887 29.1817 24.741 29.2222C25.2897 29.2506 25.7709 29.4447 26.1846 29.8044C26.5946 30.1521 26.9145 30.6987 27.1442 31.4443L29.3344 38.5515L27.0435 39.2575Z" fill="#7F9EE3"/>
<path d="M34.6361 37.1152C34.1791 37.256 33.754 37.308 33.3608 37.2712C32.9676 37.2343 32.6266 37.0892 32.3378 36.8359C32.0454 36.5705 31.8213 36.1852 31.6657 35.6801L29.2253 27.7613L31.5162 27.0553L33.8676 34.6855C33.9454 34.9381 34.057 35.1078 34.2023 35.1947C34.3439 35.2696 34.5349 35.27 34.7754 35.1958C34.8716 35.1662 34.9701 35.1227 35.071 35.0653C35.1838 35.0042 35.2828 34.9407 35.3679 34.875L36.0873 36.3124C35.8959 36.5031 35.6753 36.6632 35.4256 36.7929C35.1759 36.9225 34.9127 37.0299 34.6361 37.1152Z" fill="#7F9EE3"/>
<path d="M40.9672 35.2037C40.2577 35.4223 39.5439 35.5632 38.826 35.6265C38.1044 35.6777 37.4522 35.6548 36.8693 35.5579L36.9572 33.5359C37.2468 33.5784 37.5743 33.6157 37.9398 33.6479C38.3136 33.6644 38.7058 33.6554 39.1166 33.621C39.5394 33.5829 39.9492 33.5027 40.346 33.3804C40.8872 33.2136 41.2882 32.9979 41.5489 32.7332C41.806 32.4564 41.8808 32.1437 41.7734 31.795C41.6992 31.5544 41.5599 31.3801 41.3554 31.272C41.1472 31.1518 40.8645 31.0677 40.5074 31.0198C40.1502 30.9718 39.721 30.9461 39.2195 30.9426C38.4636 30.9254 37.8044 30.8586 37.2419 30.7422C36.6756 30.6139 36.2088 30.4022 35.8413 30.1072C35.4702 29.8003 35.1957 29.3581 35.0178 28.7809C34.8325 28.1796 34.8272 27.6282 35.0018 27.1267C35.1885 26.6215 35.5491 26.168 36.0837 25.7662C36.6183 25.3645 37.3065 25.0339 38.1483 24.7745C38.7856 24.5781 39.3855 24.4524 39.948 24.3976C40.5105 24.3428 40.968 24.3532 41.3205 24.4289L41.8875 26.2689C41.6534 26.2356 41.3592 26.221 41.0049 26.2248C40.6506 26.2287 40.2777 26.258 39.8864 26.3127C39.4914 26.3555 39.1135 26.4324 38.7527 26.5436C38.1514 26.7289 37.7343 26.9562 37.5012 27.2255C37.2765 27.4791 37.2068 27.7442 37.292 28.0208C37.3587 28.2373 37.4943 28.3996 37.6989 28.5077C37.9117 28.6002 38.2129 28.6588 38.6024 28.6836C38.9919 28.7084 39.4808 28.7355 40.0693 28.7648C40.7335 28.784 41.3289 28.8573 41.8554 28.9847C42.3902 29.0964 42.8372 29.3076 43.1963 29.6183C43.5674 29.9253 43.8419 30.3674 44.0198 30.9447C44.1828 31.4738 44.2085 32.0058 44.0968 32.5406C43.9971 33.0717 43.7031 33.5705 43.2148 34.037C42.7265 34.5035 41.9773 34.8924 40.9672 35.2037Z" fill="#7F9EE3"/>
<path d="M39.008 23.3837C38.6472 23.4949 38.3202 23.5232 38.0269 23.4688C37.7299 23.4023 37.4745 23.2571 37.2606 23.0333L36.5922 24.0689C35.8586 24.295 35.2216 24.3003 34.6813 24.085C34.1251 23.8614 33.7414 23.4068 33.5302 22.7213C33.382 22.2403 33.3619 21.812 33.47 21.4363C33.5781 21.0606 33.7722 20.7506 34.0524 20.5062C34.3289 20.2498 34.6596 20.0624 35.0444 19.9438L39.4458 18.5874L39.8238 19.814L35.8012 21.0536C35.5487 21.1315 35.3623 21.2745 35.2422 21.4827C35.1063 21.6826 35.0883 21.9449 35.1884 22.2696C35.2625 22.5101 35.3819 22.684 35.5467 22.7912C35.6994 22.9022 35.896 22.9206 36.1365 22.8465L36.7882 21.7568L37.149 21.6456C37.2592 21.875 37.4064 22.0535 37.5906 22.1811C37.7747 22.3087 37.981 22.3373 38.2095 22.2669C38.414 22.2039 38.5518 22.0956 38.6229 21.942C38.6821 21.7921 38.6802 21.6149 38.6172 21.4105L38.5393 21.1579L40.1087 20.6743L40.2087 20.999C40.4015 21.6243 40.3878 22.1355 40.1678 22.5325C39.9357 22.9332 39.5491 23.2169 39.008 23.3837Z" fill="#7F9EE3"/>
<path d="M47.8423 32.8479L46.536 28.6089L45.3815 28.9647L44.9146 27.4494L48.1615 26.4488L49.39 30.4353L49.5523 30.3853C50.0093 30.2445 50.3589 30.0116 50.6012 29.6868C50.8434 29.362 50.9705 28.941 50.9823 28.4238C50.9941 27.9066 50.8869 27.2812 50.6609 26.5477C50.4126 25.7419 50.1121 25.1301 49.7594 24.7121C49.4068 24.294 48.9866 24.0416 48.499 23.9549C48.0114 23.8681 47.4429 23.9248 46.7935 24.1249C46.1802 24.3139 45.641 24.5723 45.1757 24.9C44.7225 25.224 44.3263 25.5831 43.9869 25.9774L43.381 24.0112C43.6871 23.6799 44.1185 23.3494 44.6753 23.0198C45.2284 22.6782 45.8778 22.3925 46.6234 22.1627C47.7538 21.8144 48.727 21.7251 49.5431 21.895C50.3712 22.0612 51.0643 22.473 51.6225 23.1306C52.1807 23.7881 52.6321 24.6761 52.9767 25.7945C53.3029 26.8527 53.4263 27.8089 53.3471 28.6628C53.2762 29.5011 52.9574 30.2182 52.3905 30.8143C51.8357 31.4066 50.987 31.8788 49.8446 32.2309L47.8423 32.8479Z" fill="#7F9EE3"/>
</svg>
