<svg width="66" height="64" viewBox="0 0 66 64" fill="none" xmlns="http://www.w3.org/2000/svg">
<path d="M32.1714 60.3672C48.6795 60.3672 62.062 46.9847 62.062 30.4766C62.062 13.9684 48.6795 0.585938 32.1714 0.585938C15.6633 0.585938 2.28076 13.9684 2.28076 30.4766C2.28076 46.9847 15.6633 60.3672 32.1714 60.3672Z" fill="#FFC735"/>
<path d="M32.1938 54.5535C45.4828 54.5535 56.2557 43.7806 56.2557 30.4916C56.2557 17.2026 45.4828 6.42969 32.1938 6.42969C18.9047 6.42969 8.13184 17.2026 8.13184 30.4916C8.13184 43.7806 18.9047 54.5535 32.1938 54.5535Z" fill="#FFE46A"/>
<path d="M32.1938 55.4544C18.4327 55.4544 7.23633 44.258 7.23633 30.497C7.23633 16.7359 18.4327 5.53955 32.1938 5.53955C45.9548 5.53955 57.1512 16.7359 57.1512 30.497C57.1512 44.258 45.9548 55.4544 32.1938 55.4544ZM32.1938 7.33055C19.4183 7.33055 9.02733 17.7215 9.02733 30.497C9.02733 43.2724 19.4183 53.6634 32.1938 53.6634C44.9692 53.6634 55.3602 43.2724 55.3602 30.497C55.3602 17.7215 44.9692 7.33055 32.1938 7.33055Z" fill="#FFF385"/>
<path d="M32.1937 50.5314C43.2615 50.5314 52.2338 41.5591 52.2338 30.4913C52.2338 19.4234 43.2615 10.4512 32.1937 10.4512C21.1258 10.4512 12.1536 19.4234 12.1536 30.4913C12.1536 41.5591 21.1258 50.5314 32.1937 50.5314Z" fill="#FFE46A"/>
<path d="M32.1938 51.284C20.7324 51.284 11.4065 41.9581 11.4065 30.4967C11.4065 19.0354 20.7324 9.70947 32.1938 9.70947C43.6551 9.70947 52.981 19.0354 52.981 30.4967C52.981 41.9581 43.6551 51.284 32.1938 51.284ZM32.1938 11.1984C21.5537 11.1984 12.9008 19.8514 12.9008 30.4914C12.9008 41.1314 21.5537 49.7844 32.1938 49.7844C42.8338 49.7844 51.4867 41.1314 51.4867 30.4914C51.4867 19.8514 42.8338 11.1984 32.1938 11.1984Z" fill="#FFF385"/>
<path d="M32.1937 40.2518C35.6327 41.6666 38.3933 42.3713 40.8414 43.2721C41.0904 41.301 41.0586 38.1853 40.6824 34.4231C43.3742 31.5458 45.2606 28.7534 46.1879 26.8193C44.8314 25.9291 41.4507 25.023 37.5773 24.2971C35.675 20.7575 33.6297 17.753 32.1884 16.6509C30.7524 17.753 28.7018 20.7575 26.7995 24.2971C22.9261 25.023 19.5455 25.9291 18.189 26.8193C19.1163 28.7534 21.0026 31.5458 23.6944 34.4231C23.3129 38.18 23.2864 41.301 23.5355 43.2721C25.9835 42.3713 28.7442 41.6666 32.1831 40.2518H32.1937Z" fill="#FFF385"/>
<path d="M34.1275 25.6364V38H31.8878V27.8157H31.8153L28.9237 29.663V27.6104L31.9964 25.6364H34.1275Z" fill="#EFA422"/>
<path d="M38.3032 61.4417C35.6803 62.6657 32.9143 62.2842 32.1195 60.5886C31.3247 58.8929 32.8083 56.5244 35.4259 55.295C38.0489 54.071 40.8148 54.4525 41.6096 56.1482C42.4045 57.8438 40.9208 60.2123 38.3032 61.4364V61.4417Z" fill="#FFE46A"/>
<path d="M44.3491 52.9478C46.3573 51.0561 48.9802 50.5739 50.2043 51.8721C51.4283 53.1703 50.7977 55.7614 48.7895 57.6531C46.7812 59.5448 44.1583 60.027 42.9343 58.7288C41.7103 57.4306 42.3408 54.8394 44.3491 52.9478Z" fill="#FFE46A"/>
<path d="M51.0468 48.4385C52.2709 46.1123 54.4858 44.8724 55.9906 45.6672C57.4955 46.462 57.7234 48.9843 56.4993 51.3104C55.2753 53.6366 53.0604 54.8765 51.5555 54.0817C50.0507 53.2869 49.8228 50.7647 51.0468 48.4385Z" fill="#FFE46A"/>
<path d="M55.6992 42.2545C56.1549 39.8011 57.8081 38.0525 59.3977 38.3492C60.9874 38.646 61.9041 40.8715 61.4484 43.3248C60.9927 45.7782 59.3395 47.5268 57.7498 47.23C56.1602 46.9333 55.2435 44.7078 55.6992 42.2545Z" fill="#FFE46A"/>
<path d="M58.3221 34.9583C58.1314 32.6056 59.2123 30.5973 60.7331 30.4702C62.2538 30.343 63.6474 32.1552 63.8382 34.5079C64.0289 36.8605 62.948 38.8688 61.4272 38.996C59.9012 39.1178 58.5129 37.3109 58.3221 34.9583Z" fill="#FFE46A"/>
<path d="M58.9156 27.2432C58.2003 25.129 58.7355 23.0413 60.1025 22.5803C61.4696 22.1193 63.1547 23.4546 63.87 25.5688C64.5853 27.683 64.0502 29.7708 62.6831 30.2318C61.316 30.6928 59.631 29.3574 58.9156 27.2432Z" fill="#FFE46A"/>
<path d="M57.5485 19.8461C56.4039 18.0869 56.3933 16.0627 57.5326 15.3209C58.6718 14.5791 60.5211 15.4004 61.6657 17.1596C62.8102 18.9188 62.8208 20.943 61.6815 21.6848C60.5423 22.4266 58.693 21.6053 57.5485 19.8461Z" fill="#FFE46A"/>
<path d="M54.3479 13.4662C52.8431 12.1998 52.2867 10.3823 53.108 9.40729C53.9293 8.43231 55.8104 8.67075 57.3152 9.93717C58.8201 11.2036 59.3765 13.0211 58.5552 13.9961C57.7339 14.971 55.8528 14.7326 54.3479 13.4662Z" fill="#FFE46A"/>
<path d="M49.4306 8.7397C47.7032 8.11974 46.6276 6.70495 47.0303 5.5869C47.433 4.46885 49.1604 4.06613 50.8878 4.68609C52.6152 5.30606 53.6909 6.72085 53.2882 7.8389C52.8855 8.95694 51.1581 9.35966 49.4306 8.7397Z" fill="#FFE46A"/>
<path d="M26.0841 61.4417C28.7071 62.6657 31.473 62.2842 32.2679 60.5886C33.0627 58.8929 31.579 56.5244 28.9614 55.295C26.3385 54.071 23.5725 54.4525 22.7777 56.1482C21.9829 57.8438 23.4665 60.2123 26.0841 61.4364V61.4417Z" fill="#FFE46A"/>
<path d="M20.0382 52.9478C18.03 51.0561 15.4071 50.5739 14.1831 51.8721C12.959 53.1703 13.5896 55.7614 15.5978 57.6531C17.6061 59.5448 20.229 60.027 21.453 58.7288C22.677 57.4306 22.0465 54.8394 20.0382 52.9478Z" fill="#FFE46A"/>
<path d="M13.3406 48.4385C12.1166 46.1123 9.9017 44.8724 8.39683 45.6672C6.89197 46.462 6.66414 48.9843 7.88817 51.3104C9.11219 53.6366 11.3271 54.8765 12.8319 54.0817C14.3368 53.2869 14.5647 50.7647 13.3406 48.4385Z" fill="#FFE46A"/>
<path d="M8.68813 42.2545C8.23243 39.8011 6.57921 38.0525 4.98957 38.3492C3.39992 38.646 2.48323 40.8715 2.93893 43.3248C3.39463 45.7782 5.04785 47.5268 6.63749 47.23C8.22714 46.9333 9.14383 44.7078 8.68813 42.2545Z" fill="#FFE46A"/>
<path d="M6.06525 34.9583C6.25601 32.6056 5.17503 30.5973 3.65427 30.4702C2.12821 30.3483 0.739926 32.1552 0.549169 34.5079C0.358411 36.8605 1.43936 38.8688 2.96012 38.996C4.48618 39.1178 5.8745 37.3109 6.06525 34.9583Z" fill="#FFE46A"/>
<path d="M5.47184 27.2432C6.18717 25.129 5.65197 23.0413 4.28487 22.5803C2.91778 22.1193 1.23276 23.4546 0.517425 25.5688C-0.197915 27.683 0.33726 29.7708 1.70435 30.2318C3.07145 30.6928 4.75649 29.3574 5.47184 27.2432Z" fill="#FFE46A"/>
<path d="M6.83898 19.8461C7.98353 18.0869 7.99414 16.0627 6.8549 15.3209C5.71565 14.5791 3.86637 15.4004 2.72183 17.1596C1.57728 18.9188 1.56667 20.943 2.70592 21.6848C3.84516 22.4266 5.69444 21.6053 6.83898 19.8461Z" fill="#FFE46A"/>
<path d="M10.0394 13.4662C11.5442 12.1998 12.1006 10.3823 11.2793 9.40729C10.458 8.43231 8.57687 8.67075 7.07201 9.93717C5.56715 11.2036 5.01079 13.0211 5.83211 13.9961C6.65342 14.971 8.5345 14.7326 10.0394 13.4662Z" fill="#FFE46A"/>
<path d="M14.9567 8.7397C16.6841 8.11974 17.7597 6.70495 17.357 5.5869C16.9543 4.46885 15.2269 4.06613 13.4995 4.68609C11.7721 5.30606 10.6964 6.72085 11.0991 7.8389C11.5019 8.95694 13.2292 9.35966 14.9567 8.7397Z" fill="#FFE46A"/>
<path d="M33.6615 53.5996H30.726C28.4785 53.5996 26.6565 55.4216 26.6565 57.6691V59.8522C26.6565 62.0997 28.4785 63.9217 30.726 63.9217H33.6615C35.909 63.9217 37.731 62.0997 37.731 59.8522V57.6691C37.731 55.4216 35.909 53.5996 33.6615 53.5996Z" fill="#FFAA00"/>
</svg>
