<svg width="32" height="26" viewBox="0 0 32 26" fill="none" xmlns="http://www.w3.org/2000/svg">
<path d="M29.3235 3.625H26.2353V2.58333C26.2353 2.0308 26.0184 1.50089 25.6323 1.11019C25.2462 0.719493 24.7225 0.5 24.1765 0.5H7.70588C7.15985 0.5 6.63618 0.719493 6.25007 1.11019C5.86397 1.50089 5.64706 2.0308 5.64706 2.58333V3.625H2.55882C2.01279 3.625 1.48912 3.84449 1.10302 4.23519C0.716911 4.6259 0.5 5.1558 0.5 5.70833V7.79167C0.5 9.173 1.04228 10.4978 2.00754 11.4745C2.48549 11.9582 3.05289 12.3418 3.67736 12.6035C4.30183 12.8653 4.97114 13 5.64706 13H6.11673C6.72311 14.9446 7.87929 16.6667 9.44238 17.9536C11.0055 19.2404 12.9069 20.0356 14.9118 20.2409V23.4167H11.8235C11.5505 23.4167 11.2887 23.5264 11.0956 23.7218C10.9026 23.9171 10.7941 24.1821 10.7941 24.4583C10.7941 24.7346 10.9026 24.9996 11.0956 25.1949C11.2887 25.3903 11.5505 25.5 11.8235 25.5H20.0588C20.3318 25.5 20.5937 25.3903 20.7867 25.1949C20.9798 24.9996 21.0882 24.7346 21.0882 24.4583C21.0882 24.1821 20.9798 23.9171 20.7867 23.7218C20.5937 23.5264 20.3318 23.4167 20.0588 23.4167H16.9706V20.237C21.0805 19.8164 24.4904 16.8984 25.7309 13H26.2353C27.6004 13 28.9096 12.4513 29.8748 11.4745C30.8401 10.4978 31.3824 9.173 31.3824 7.79167V5.70833C31.3824 5.1558 31.1654 4.6259 30.7793 4.23519C30.3932 3.84449 29.8696 3.625 29.3235 3.625ZM5.64706 10.9167C4.82801 10.9167 4.0425 10.5874 3.46335 10.0014C2.88419 9.41532 2.55882 8.62047 2.55882 7.79167V5.70833H5.64706V9.875C5.64706 10.2222 5.66379 10.5694 5.69724 10.9167H5.64706ZM24.1765 9.75781C24.1765 14.3828 20.5105 18.1745 16.0042 18.2083H15.9412C13.757 18.2083 11.6624 17.3304 10.1179 15.7676C8.57353 14.2048 7.70588 12.0851 7.70588 9.875V2.58333H24.1765V9.75781ZM29.3235 7.79167C29.3235 8.62047 28.9982 9.41532 28.419 10.0014C27.8398 10.5874 27.0543 10.9167 26.2353 10.9167H26.171C26.2132 10.5319 26.2347 10.145 26.2353 9.75781V5.70833H29.3235V7.79167Z" fill="#BCBABD"/>
</svg>
