<svg width="73" height="72" viewBox="0 0 73 72" fill="none" xmlns="http://www.w3.org/2000/svg">
<g clip-path="url(#clip0_4044_24169)">
<path d="M27.7069 0.0149784H28.6913C29.2163 0.343103 29.6775 0.740605 30.0619 1.22998C30.2569 1.47748 30.4219 1.76811 30.7575 1.86373C30.7913 2.11873 30.99 2.2631 31.1419 2.4356C35.1375 6.99185 39.1744 11.5125 43.1119 16.1175C44.91 18.2194 47.0419 18.9094 49.7269 18.5194C53.0775 18.0337 56.4525 17.715 59.8144 17.3062C61.2488 17.1319 62.6963 17.0456 64.1156 16.7419C65.8031 16.7156 67.4644 16.4194 69.1331 16.2131C70.755 16.0125 71.2988 16.2487 71.985 17.5856V18.4294C71.6982 18.9375 71.415 19.4494 71.1225 19.9556C70.1831 21.5756 69.2419 23.1919 68.3006 24.81C66.7313 27.4256 65.1525 30.0375 63.5981 32.6625C62.7675 34.0631 61.8356 35.4112 61.3088 36.9731C60.7519 37.2487 60.7163 37.8431 60.5738 38.3212C60.21 39.5419 59.3794 40.1344 58.1925 40.35C58.1944 40.0931 58.215 39.8344 58.1963 39.5775C58.0444 37.395 55.89 36.1894 54.1257 37.1156C53.835 37.1569 53.61 37.3162 53.3982 37.5075C52.1363 38.64 52.1288 40.545 53.3156 41.7431C54.3319 42.7687 56.595 42.8381 57.6394 41.3381C59.1938 41.6756 60.3938 42.4087 60.7481 44.1C60.78 44.2556 60.87 44.4 60.93 44.55C61.0444 44.8387 61.2506 44.9269 61.5413 44.8294C61.9538 45.7425 62.3663 46.6556 62.7788 47.5687C63.6806 49.5637 64.5806 51.5587 65.4806 53.5537C65.2556 53.6137 65.0231 53.655 64.8075 53.7394C61.545 55.0219 58.1438 55.6725 54.6675 55.9856C54.6357 55.9256 54.585 55.8675 54.5719 55.8037C54.3507 54.6056 53.5613 53.8762 52.4681 53.8706C51.3806 53.865 50.5013 54.7144 50.3156 55.9462C48.9469 55.9894 47.6138 55.6762 46.2638 55.5412C46.2619 55.2169 46.275 54.8906 46.2544 54.5681C46.1306 52.6819 44.0306 51.4725 42.3169 52.2937C41.4431 52.5544 41.0044 53.2481 40.6238 53.9981C38.9513 53.4844 37.3556 52.7944 35.8538 51.8925C39.0994 49.4906 42.7369 48.5981 46.7175 49.1531C47.895 49.3181 49.0519 49.6369 50.22 49.8806C50.6025 49.9612 50.9719 49.9519 51.2494 49.6181C51.525 49.2881 51.4969 48.9319 51.33 48.5644C51.2438 48.3731 51.1594 48.18 51.0807 47.985C49.6482 44.4731 49.2525 40.845 49.8769 37.1062C50.2631 34.7962 51.0563 32.6325 52.2225 30.6037C52.4306 30.2419 52.5638 29.8781 52.3256 29.4825C52.08 29.0756 51.6863 29.0531 51.2738 29.0962C50.5988 29.1675 49.9257 29.2425 49.2507 29.3212C44.9982 29.8181 41.1731 28.8037 37.8169 26.1094C36.5475 25.0894 35.5519 23.8106 34.4775 22.6069C34.2075 22.3031 33.8963 22.1344 33.4856 22.2319C33.06 22.3331 32.8931 22.6669 32.8125 23.0494C32.6888 23.6212 32.5781 24.195 32.4769 24.7706C31.9125 27.9469 30.5513 30.705 28.2713 33.0187C26.2913 35.0287 23.8069 36.1425 21.2475 37.1512C20.5856 36.4256 20.2969 35.5012 19.9238 34.6256C18.8944 32.2125 18.0806 29.7319 17.7075 27.1219C17.895 27.03 18.0769 26.925 18.27 26.8462C20.475 25.9631 21.75 24.3412 22.2056 22.0181C23.46 15.6206 24.735 9.22686 26.0025 2.83123C26.0588 2.58186 26.1375 2.33436 26.1694 2.08123C26.295 1.10248 26.7338 0.361855 27.7031 0.0112305L27.7069 0.0149784ZM47.1394 24.3637C47.7431 23.4937 47.6175 22.3256 46.8244 21.4294C45.8625 20.3419 44.6006 20.0644 43.4569 20.685C42.3075 21.15 41.7 22.1437 41.7656 23.4487C41.8219 24.5625 42.6919 25.6725 43.7588 25.995C45.2213 26.4356 46.7644 25.6912 47.1413 24.3637H47.1394ZM29.2481 7.45498C28.1119 7.88061 27.3375 9.07123 27.4369 10.2375C27.5513 11.5744 28.5938 12.7087 29.8913 12.9262C30.9675 13.1062 32.535 12.42 32.8894 11.25C33.4294 10.2487 33.2419 8.91185 32.4431 8.08498C31.59 7.19998 30.315 6.94873 29.2481 7.45685V7.45498ZM66.9563 22.9537C67.5244 22.0931 67.3781 20.85 66.6094 19.9987C65.67 18.9581 64.4119 18.6844 63.2719 19.2712C62.0363 19.7981 61.4906 20.7394 61.5825 22.1906C61.6519 23.295 62.49 24.2831 63.6263 24.6037C65.0569 25.0069 66.5888 24.2494 66.9581 22.9556L66.9563 22.9537ZM23.7694 26.0175C22.2581 26.6719 21.6188 28.1925 22.215 29.715C22.6294 30.7687 23.7094 31.5037 24.84 31.5019C26.0269 31.4981 26.9981 30.8606 27.4125 29.8087C27.9769 28.8056 27.7706 27.4612 26.9194 26.5856C26.0981 25.7419 24.8081 25.5094 23.7694 26.0194V26.0175ZM55.2188 25.1737C56.3606 25.1531 57.36 24.1312 57.3525 22.995C57.345 21.9131 56.2444 20.8237 55.17 20.835C54.0113 20.8462 52.9725 21.9225 53.0119 23.0681C53.0513 24.2119 54.0825 25.1962 55.2169 25.1756L55.2188 25.1737ZM39.5138 17.5462C39.5006 16.3669 38.4656 15.3319 37.32 15.3525C36.2606 15.3712 35.1431 16.5187 35.175 17.5556C35.2125 18.7312 36.2475 19.7119 37.4344 19.6931C38.5181 19.6762 39.525 18.6375 39.5138 17.5462ZM57.2625 50.205C58.5656 50.2144 59.4694 49.3575 59.4731 48.1031C59.4788 46.9031 58.5544 45.9881 57.3319 45.9787C56.1919 45.9693 55.1194 47.0025 55.1475 48.1087C55.1756 49.2356 56.3119 50.3831 57.2625 50.205ZM59.2069 33.0544C60.4613 33.0637 61.4381 32.1356 61.4344 30.9356C61.4306 29.8519 60.4181 28.8431 59.3138 28.8281C58.1325 28.8112 57.1256 29.7506 57.0919 30.9C57.0581 32.0737 58.0106 33.045 59.205 33.0544H59.2069ZM27.4519 17.58C26.2144 17.5744 25.3256 18.4481 25.3163 19.6762C25.3088 20.9044 26.1956 21.8025 27.4181 21.8062C28.6575 21.81 29.5388 20.94 29.5425 19.71C29.5463 18.4687 28.68 17.5856 27.4519 17.58Z" fill="#FCCA6A"/>
<path d="M17.7113 27.1257C18.0844 29.7357 18.8982 32.2163 19.9276 34.6294C20.3007 35.5032 20.5894 36.4294 21.2513 37.155C20.5688 37.8806 20.6401 38.3757 21.4932 38.8669C21.8344 39.0638 22.1701 39.2757 22.5076 39.48C22.5563 39.5382 22.6069 39.5963 22.6557 39.6544L22.6519 39.645C22.7157 39.7932 22.7588 39.9525 22.8469 40.0857C24.8813 43.1888 27.2832 45.96 30.2363 48.2307C30.3301 48.4913 30.4332 48.75 30.5138 49.0144C30.9751 50.5463 31.0069 52.1419 31.1907 53.715C31.2432 54.1707 31.2638 54.6263 31.7701 54.8082C32.2838 54.9919 32.6513 54.7107 33.0132 54.3769C33.9376 53.5238 34.8151 52.6144 35.8576 51.8982C37.3594 52.7982 38.9551 53.49 40.6276 54.0019C40.6051 54.1632 40.5863 54.3244 40.5601 54.4838C40.3276 55.8938 41.2407 57.2757 42.6769 57.6807C44.0457 58.0669 45.4932 57.3338 46.0257 55.9857C46.1063 55.8394 46.1888 55.6913 46.2694 55.545C47.6194 55.68 48.9526 55.995 50.3213 55.95C50.3269 56.9419 50.8219 57.6244 51.6957 58.0257C52.4982 58.395 53.2388 58.1982 53.8988 57.6525C54.42 57.2232 54.5682 56.6138 54.6713 55.9875C58.1475 55.6744 61.5488 55.0238 64.8113 53.7413C65.0269 53.6569 65.2594 53.6175 65.4844 53.5557C65.5932 53.7282 65.7038 53.9007 65.8126 54.0732C65.3176 55.2319 64.6894 56.3082 63.8363 57.2438C63.0675 56.0982 61.7757 55.7213 60.4632 56.2575C59.2875 56.7188 58.6894 57.6375 58.6707 58.8432C58.6519 60.0169 59.2125 60.9338 60.3244 61.4438C59.8951 61.9969 59.3982 62.475 58.8076 62.8557C58.7007 62.8107 58.5976 62.7488 58.4869 62.7225C54.5682 61.8319 50.6513 60.9394 46.7307 60.0619C44.5313 59.5707 42.6394 60.1444 40.9913 61.6894C38.2969 64.2169 35.55 66.6882 32.8538 69.2138C32.0044 70.0088 31.0576 70.7082 30.3451 71.6438C27.4219 71.3382 24.6094 70.6219 21.9394 69.3732C21.8813 68.58 21.8363 67.7869 21.7632 66.9957C21.3619 62.6907 20.9063 58.3875 20.5669 54.0769C20.3738 51.6225 19.2901 49.8469 17.1451 48.6544C11.6869 45.6169 6.24193 42.5532 0.791302 39.5025C0.549427 39.3675 0.320684 39.1838 0.0131836 39.2325V34.5938C0.435059 34.62 0.774432 34.3875 1.13631 34.2319C6.66381 31.8657 12.1876 29.4938 17.7113 27.1238V27.1257ZM26.6101 49.2263C27.1782 48.3282 26.8219 46.7907 26.0607 46.0707C25.1794 45.2382 23.9307 44.9907 22.9032 45.5119C21.7688 45.9582 20.9982 47.1863 21.135 48.3282C21.3076 49.7625 22.2769 50.7582 23.7151 50.9775C24.8944 51.1557 26.1113 50.4207 26.6119 49.2282L26.6101 49.2263ZM10.5807 37.8394C11.0757 36.75 10.8451 35.5257 9.98443 34.6894C9.14443 33.8738 7.90318 33.6525 6.88505 34.1382C5.64193 34.6594 4.91256 35.8932 5.10194 37.1569C5.29131 38.4263 6.32256 39.4313 7.63319 39.6225C8.85006 39.7988 10.0763 39.0582 10.5826 37.8394H10.5807ZM30.3638 66.4988C30.8644 65.3569 30.5944 64.0725 29.6832 63.2588C28.8113 62.4807 27.5194 62.3044 26.5782 62.8369C26.2876 62.8782 26.0663 63.0507 25.8563 63.2363C24.9882 64.0032 24.6451 65.2482 25.0107 66.2888C25.4269 67.4738 26.4563 68.2444 27.6957 68.2969C28.7851 68.3438 29.8557 67.62 30.3638 66.4988ZM15.4894 35.8707C16.7457 35.8782 17.7038 34.9575 17.6963 33.7482C17.6907 32.6644 16.6744 31.6538 15.5776 31.6407C14.3232 31.6257 13.3688 32.5388 13.3688 33.7575C13.3688 34.98 14.2538 35.8632 15.4894 35.8707ZM17.0082 40.4907C15.8063 40.4982 14.9007 41.4244 14.9138 42.6357C14.9288 43.8563 15.8251 44.7282 17.0607 44.7207C18.2288 44.715 19.2338 43.7438 19.2413 42.6132C19.2488 41.4638 18.2176 40.4832 17.0063 40.4907H17.0082ZM28.2769 56.7263C28.2769 55.5075 27.3563 54.5682 26.1638 54.5663C25.0482 54.5663 24.0413 55.6032 24.0469 56.7507C24.0526 57.9507 25.0126 58.92 26.1826 58.905C27.3807 58.89 28.2807 57.9544 28.2788 56.7263H28.2769ZM37.6988 59.4132C37.6988 58.2282 36.7932 57.2644 35.6626 57.2438C34.4869 57.2213 33.4632 58.245 33.4688 59.4319C33.4763 60.6057 34.4588 61.5919 35.6101 61.5825C36.8176 61.5713 37.7007 60.6563 37.6988 59.4132Z" fill="#F3A939"/>
<path d="M17.7113 27.1256C12.1857 29.4956 6.66193 31.8675 1.13631 34.2337C0.776307 34.3875 0.435059 34.6218 0.0131836 34.5956V33.7518C0.251309 33.6506 0.153804 33.4293 0.172554 33.2625C0.847554 27.0937 2.90256 21.435 6.53818 16.395C11.4357 9.60934 17.9138 5.05496 26.0044 2.83496C24.7369 9.23059 23.4619 15.6243 22.2076 22.0218C21.7519 24.345 20.4769 25.9668 18.2719 26.85C18.0788 26.9268 17.8969 27.0318 17.7094 27.1256H17.7113ZM13.7457 16.4887C13.5357 16.515 13.4438 16.6387 13.3801 16.8C13.2094 17.235 13.0069 17.6587 12.8701 18.1031C12.6282 18.8812 12.1444 19.3818 11.3663 19.6293C10.9219 19.77 10.4944 19.9631 10.0613 20.1356C9.90943 20.1975 9.7388 20.265 9.73505 20.4581C9.7313 20.655 9.90568 20.7262 10.0557 20.7862C10.4663 20.9512 10.8769 21.12 11.2988 21.2587C12.0863 21.5175 12.6244 21.9993 12.8682 22.815C13.0013 23.2612 13.2076 23.6831 13.3782 24.1181C13.4419 24.2793 13.5338 24.4275 13.7213 24.4162C13.8713 24.4068 13.9501 24.27 14.0044 24.135C14.0738 23.9606 14.1657 23.7937 14.2088 23.6137C14.5388 22.2112 15.3713 21.3131 16.7982 20.9981C16.8882 20.9775 16.9801 20.9437 17.0607 20.9006C17.2763 20.7825 17.6307 20.7806 17.6326 20.4637C17.6344 20.1431 17.2876 20.0812 17.0607 20.0325C15.4182 19.68 14.4807 18.6525 14.1001 17.0531C14.0682 16.9181 14.0044 16.7887 13.9351 16.6687C13.8919 16.5937 13.8076 16.5431 13.7476 16.4868L13.7457 16.4887Z" fill="#C82323"/>
<path d="M58.8075 62.8537C59.3981 62.4731 59.895 61.995 60.3243 61.4419C61.0818 61.0781 61.4475 60.3225 62.0025 59.7562C62.7731 59.0344 63.4837 58.2694 63.8343 57.2419C64.6875 56.3062 65.3137 55.23 65.8106 54.0712C65.9025 53.94 66.0112 53.8162 66.0862 53.6737C71.0006 44.3719 71.7375 34.7494 68.3006 24.8081C69.2418 23.19 70.1831 21.5737 71.1225 19.9537C71.415 19.4475 71.6981 18.9375 71.985 18.4275C71.985 36.0787 71.9831 53.7281 71.9962 71.3794C71.9962 71.865 71.9231 72 71.3943 72C60.2512 71.9794 49.1081 71.985 37.965 71.985C38.0325 71.8069 38.1918 71.8575 38.3212 71.8462C40.7737 71.6287 43.1812 71.1731 45.5325 70.44C50.5143 68.8875 54.9637 66.4012 58.8056 62.8537H58.8075Z" fill="#FEFDFD"/>
<path d="M71.9869 17.5856C71.3006 16.2488 70.7569 16.0125 69.135 16.2131C67.4662 16.4194 65.805 16.7156 64.1175 16.7419C59.5219 10.185 53.415 5.67188 45.7912 3.225C40.8862 1.65188 35.8669 1.25625 30.7594 1.86187C30.4219 1.76625 30.2569 1.47562 30.0637 1.22812C29.6794 0.738748 29.2162 0.341251 28.6931 0.0131264C42.9375 0.0131264 57.1818 0.016875 71.4262 0C71.9081 0 72.0037 0.0937514 72.0019 0.575626C71.9812 6.24563 71.9887 11.9137 71.9887 17.5837L71.9869 17.5856Z" fill="#FEFEFD"/>
<path d="M26.0061 2.83485C17.9155 5.05485 11.4373 9.60923 6.53983 16.3949C2.90233 21.433 0.849206 27.0936 0.174206 33.2624C0.155456 33.4292 0.25296 33.6505 0.0148354 33.7517C0.0148354 22.7061 0.018584 11.6605 0.00170898 0.61673C0.00170898 0.119855 0.0917053 -0.000144496 0.60733 0.0017305C9.64108 0.0223555 18.673 0.016728 27.7067 0.016728C26.7373 0.367353 26.3005 1.10798 26.173 2.08673C26.1411 2.33985 26.0623 2.58735 26.0061 2.83673V2.83485Z" fill="#FEFDFD"/>
<path d="M0.0131836 39.2324C0.320684 39.1836 0.551302 39.3674 0.791302 39.5024C6.24193 42.553 11.6869 45.6168 17.1451 48.6543C19.2901 49.8468 20.3738 51.6224 20.5669 54.0768C20.9063 58.3874 21.3619 62.6886 21.7632 66.9955C21.8363 67.7868 21.8813 68.5799 21.9394 69.373C17.9644 67.7793 14.4094 65.5143 11.2894 62.5874C5.31569 56.983 1.67255 50.1355 0.405052 42.028C0.281302 41.2368 0.345059 40.4118 0.0131836 39.6543V39.2324ZM17.2969 55.7286C17.2069 55.3874 16.9276 55.3386 16.6951 55.2674C15.3882 54.8661 14.2744 54.283 13.9463 52.7811C13.8676 52.4211 13.8019 51.8324 13.3894 51.8193C12.8926 51.8024 12.8738 52.4268 12.7726 52.7924C12.4276 54.0411 11.6588 54.8118 10.4082 55.1174C10.2957 55.1455 10.1851 55.1924 10.0819 55.2468C9.84756 55.3705 9.45568 55.3536 9.45943 55.7118C9.46506 56.068 9.84944 56.0961 10.0951 56.1543C11.6082 56.518 12.5438 57.4349 12.8851 58.9555C12.9001 59.023 12.9282 59.0886 12.9582 59.1524C13.0463 59.3361 13.0744 59.5855 13.3369 59.6061C13.6201 59.6268 13.6876 59.3755 13.7288 59.1861C14.1076 57.4836 15.1463 56.458 16.8451 56.083C16.9557 56.0586 17.0644 55.9968 17.1563 55.9274C17.2219 55.8768 17.2576 55.7849 17.2951 55.7286H17.2969Z" fill="#C92323"/>
<path d="M0.0131532 39.6543C0.346903 40.4118 0.281272 41.2368 0.405022 42.0281C1.67252 50.1356 5.31378 56.983 11.2894 62.5874C14.4094 65.5143 17.9644 67.7793 21.9394 69.373C24.6075 70.6199 27.42 71.3362 30.345 71.6437C31.0069 71.7899 31.7119 71.6774 32.3457 71.9849C21.7557 71.9849 11.1657 71.9812 0.575653 71.998C0.0937782 71.998 -0.00184821 71.9043 2.67915e-05 71.4224C0.0169018 60.8324 0.0131532 50.2443 0.0131532 39.6543Z" fill="#FEFDFD"/>
<path d="M32.3456 71.9849C31.7118 71.6774 31.0068 71.7899 30.345 71.6436C31.0575 70.7061 32.0043 70.0087 32.8537 69.2137C35.55 66.688 38.295 64.2168 40.9912 61.6893C42.6393 60.1443 44.5312 59.5687 46.7306 60.0618C50.6512 60.9393 54.57 61.8318 58.4869 62.7224C58.5975 62.7468 58.7006 62.8105 58.8075 62.8555C54.9656 66.403 50.5162 68.8893 45.5343 70.4418C43.1831 71.1749 40.7756 71.6305 38.3231 71.848C38.1937 71.8593 38.0343 71.8087 37.9668 71.9868H32.3437L32.3456 71.9849Z" fill="#C82322"/>
<path d="M22.5057 39.4781C22.1682 39.2737 21.8344 39.0637 21.4913 38.865C20.6401 38.3737 20.5688 37.8787 21.2494 37.1531C23.8069 36.1443 26.2913 35.0287 28.2732 33.0206C30.5532 30.7087 31.9144 27.9506 32.4788 24.7725C32.5801 24.1968 32.6926 23.6231 32.8144 23.0512C32.8969 22.6706 33.0619 22.3368 33.4876 22.2337C33.8982 22.1362 34.2094 22.3049 34.4794 22.6087C35.5538 23.8124 36.5494 25.0912 37.8188 26.1112C41.1751 28.8056 45.0019 29.82 49.2526 29.3231C49.9257 29.2443 50.6007 29.1712 51.2757 29.0981C51.6882 29.055 52.0819 29.0775 52.3276 29.4843C52.5657 29.88 52.4326 30.2437 52.2244 30.6056C51.0582 32.6343 50.2651 34.7981 49.8788 37.1081C49.2526 40.8468 49.6482 44.475 51.0825 47.9868C51.1613 48.1818 51.2457 48.375 51.3319 48.5662C51.4988 48.9337 51.5269 49.29 51.2513 49.62C50.9719 49.9537 50.6044 49.9612 50.2219 49.8824C49.0538 49.6387 47.8969 49.3181 46.7194 49.1549C42.7369 48.5999 39.1013 49.4943 35.8557 51.8943C34.8132 52.6125 33.9357 53.5218 33.0113 54.3731C32.6494 54.7068 32.2819 54.9881 31.7682 54.8043C31.2619 54.6224 31.2413 54.1668 31.1888 53.7112C31.0069 52.1381 30.9732 50.5425 30.5119 49.0106C30.4313 48.7462 30.3282 48.4875 30.2344 48.2268C30.1801 48.0262 30.1444 47.8181 30.0694 47.625C28.8207 44.4206 26.7301 41.9212 23.7732 40.1625C23.4207 39.9525 23.1094 39.6337 22.6519 39.6431L22.6557 39.6524C22.6651 39.5456 22.5863 39.5118 22.5076 39.4781H22.5057ZM40.9369 35.6231C40.9501 35.3193 40.7232 35.2387 40.5019 35.1506C39.8288 34.8824 39.1651 34.5899 38.4826 34.3537C37.6444 34.0631 37.1138 33.5099 36.8232 32.6793C36.5907 32.0193 36.3113 31.3743 36.0507 30.7237C35.9644 30.5081 35.9044 30.255 35.6101 30.2456C35.3101 30.2362 35.2407 30.4875 35.1544 30.7031C34.8844 31.3743 34.5976 32.04 34.3576 32.7225C34.0726 33.5306 33.5401 34.0575 32.7394 34.3481C32.0382 34.6031 31.3482 34.8918 30.6544 35.1693C30.4576 35.2481 30.2457 35.3325 30.2494 35.5931C30.2532 35.8481 30.4538 35.9325 30.6582 36.0112C31.3969 36.3 32.1338 36.5981 32.8726 36.8868C33.5644 37.1587 34.0426 37.635 34.3069 38.3325C34.5563 38.9868 34.8094 39.6412 35.0813 40.2862C35.1919 40.5468 35.2013 40.9425 35.6176 40.9237C36.0169 40.9068 36.0207 40.515 36.1313 40.2543C36.3863 39.6525 36.6282 39.045 36.8513 38.43C37.1326 37.6537 37.6482 37.1343 38.4244 36.8475C39.1257 36.5887 39.8157 36.3 40.5113 36.0281C40.7101 35.9493 40.9107 35.8781 40.9369 35.6212V35.6231Z" fill="#F42D2C"/>
<path d="M30.7576 1.86375C35.8651 1.25625 40.8845 1.65187 45.7895 3.22687C53.4132 5.67375 59.5201 10.1869 64.1157 16.7437C62.6982 17.0475 61.2507 17.1338 59.8144 17.3081C56.4526 17.7169 53.0776 18.0356 49.7269 18.5213C47.0419 18.9113 44.9101 18.2213 43.1119 16.1194C39.1744 11.5144 35.1357 6.99375 31.142 2.4375C30.9901 2.265 30.7894 2.12063 30.7576 1.86563V1.86375Z" fill="#C82322"/>
<path d="M68.3026 24.8081C71.7394 34.7494 71.0025 44.3737 66.0882 53.6737C66.0132 53.8144 65.9044 53.9381 65.8125 54.0712C65.7038 53.8987 65.5932 53.7262 65.4844 53.5537C64.5844 51.5587 63.6825 49.5637 62.7825 47.5687C62.37 46.6556 61.9575 45.7425 61.545 44.8294C61.7363 44.3044 61.9407 43.785 62.1151 43.2544C62.3607 42.5119 62.8369 42.03 63.5888 41.7956C64.0332 41.6569 64.4588 41.4637 64.89 41.2856C65.0382 41.2237 65.2107 41.1581 65.2032 40.9556C65.1975 40.7606 65.0344 40.695 64.8807 40.6331C64.4907 40.4775 64.1119 40.2919 63.7107 40.1719C62.8576 39.915 62.3419 39.3675 62.0494 38.5275C61.8619 37.9894 61.7475 37.3987 61.3107 36.9712C61.8357 35.4075 62.7694 34.0612 63.6 32.6606C65.1544 30.0356 66.7351 27.4256 68.3026 24.8081Z" fill="#C92323"/>
<path d="M61.3107 36.9714C61.7475 37.3989 61.8619 37.9895 62.0494 38.5276C62.3419 39.3676 62.8576 39.9151 63.7107 40.172C64.1101 40.292 64.4907 40.4776 64.8807 40.6332C65.0344 40.6951 65.1975 40.7607 65.2032 40.9557C65.2107 41.1564 65.0382 41.2239 64.89 41.2857C64.4588 41.4639 64.0332 41.657 63.5888 41.7957C62.8369 42.0301 62.3607 42.512 62.1151 43.2545C61.9388 43.7851 61.7363 44.3045 61.545 44.8295C61.2544 44.927 61.0482 44.8389 60.9338 44.5482C60.8738 44.3982 60.7838 44.2539 60.7519 44.0982C60.3975 42.407 59.1976 41.6739 57.6432 41.3364C57.5063 41.207 57.3357 41.1039 57.2794 40.9051C57.4857 40.6464 57.8063 40.5901 58.08 40.4514C58.1232 40.4157 58.1663 40.382 58.2094 40.3464H58.1963C59.3813 40.1307 60.2138 39.5382 60.5775 38.3176C60.72 37.8395 60.7557 37.2451 61.3125 36.9695L61.3107 36.9714Z" fill="#FB5E91"/>
<path d="M55.2188 25.1737C54.0825 25.1943 53.0532 24.21 53.0138 23.0662C52.9744 21.9206 54.0132 20.8462 55.1719 20.8331C56.2463 20.8218 57.3469 21.9112 57.3544 22.9931C57.3619 24.1312 56.3625 25.1531 55.2207 25.1718L55.2188 25.1737Z" fill="#F3AA3A"/>
<path d="M39.5137 17.5463C39.525 18.6357 38.5181 19.6763 37.4344 19.6932C36.2475 19.712 35.2125 18.7313 35.175 17.5557C35.1431 16.5188 36.2587 15.3713 37.32 15.3526C38.4656 15.332 39.5006 16.367 39.5137 17.5463Z" fill="#F3AA3A"/>
<path d="M54.6713 55.9857C54.5682 56.612 54.4182 57.2213 53.8988 57.6507C53.2388 58.1963 52.4982 58.3932 51.6957 58.0238C50.8238 57.6226 50.3269 56.9382 50.3213 55.9482C50.505 54.7163 51.3844 53.867 52.4738 53.8726C53.5669 53.8782 54.3563 54.6057 54.5775 55.8057C54.5888 55.8695 54.6394 55.9276 54.6732 55.9876L54.6713 55.9857Z" fill="#D98801"/>
<path d="M57.2625 50.2051C56.3119 50.3851 55.1738 49.2357 55.1475 48.1088C55.1194 47.0026 56.1919 45.9694 57.3319 45.9788C58.5563 45.9882 59.4788 46.9032 59.4731 48.1032C59.4675 49.3576 58.5656 50.2145 57.2625 50.2051Z" fill="#F3AA3A"/>
<path d="M59.2069 33.0544C58.0125 33.045 57.06 32.0737 57.0938 30.9C57.1256 29.7525 58.1344 28.8112 59.3156 28.8281C60.4181 28.845 61.4325 29.8519 61.4363 30.9356C61.44 32.1356 60.4631 33.0637 59.2088 33.0544H59.2069Z" fill="#F3AA3A"/>
<path d="M27.4519 17.5801C28.6801 17.5857 29.5482 18.4689 29.5426 19.7101C29.5388 20.9401 28.6576 21.8101 27.4182 21.8064C26.1957 21.8026 25.3088 20.9026 25.3163 19.6764C25.3238 18.4482 26.2144 17.5745 27.4519 17.5801Z" fill="#F3AA3A"/>
<path d="M46.0257 55.9838C45.4932 57.3338 44.0457 58.065 42.6769 57.6788C41.2426 57.2738 40.3276 55.8919 40.5601 54.4819C40.5863 54.3225 40.6051 54.1594 40.6276 54C41.0082 53.25 41.4469 52.5563 42.3207 52.2957C42.1838 52.8432 42.1144 53.385 42.2869 53.9438C42.7876 55.575 44.1244 56.31 46.0257 55.9838Z" fill="#FCDEA5"/>
<path d="M27.4144 29.8069C27 30.8588 26.0288 31.4981 24.8419 31.5C23.7113 31.5019 22.6294 30.7669 22.2169 29.7131C21.6188 28.1906 22.2581 26.67 23.7713 26.0156C23.4506 27.2831 23.7619 28.35 24.7744 29.1975C25.5525 29.8481 26.4769 29.8556 27.4162 29.8069H27.4144Z" fill="#FCDEA5"/>
<path d="M66.9563 22.9537C66.5869 24.2474 65.0569 25.0049 63.6244 24.6018C62.4882 24.283 61.652 23.293 61.5807 22.1887C61.4888 20.7393 62.0344 19.798 63.2701 19.2693C63.3188 19.918 63.1426 20.5818 63.4013 21.2137C63.9995 22.6668 65.1938 23.2499 66.9544 22.9518L66.9563 22.9537Z" fill="#FCDEA5"/>
<path d="M32.8893 11.2499C32.535 12.4218 30.9675 13.1062 29.8912 12.9262C28.5937 12.7087 27.5512 11.5743 27.4368 10.2374C27.3356 9.07117 28.1118 7.88054 29.2481 7.45679C28.9125 8.91366 29.34 10.1005 30.5118 10.873C31.2393 11.3512 32.0737 11.2705 32.8893 11.2518V11.2499Z" fill="#FCDEA5"/>
<path d="M47.1394 24.3638C46.7625 25.6913 45.2194 26.4357 43.7569 25.9951C42.69 25.6726 41.8219 24.5626 41.7637 23.4488C41.6981 22.1438 42.3037 21.1501 43.455 20.6851C43.4756 21.2419 43.3819 21.8026 43.5206 22.3557C43.8394 23.6176 45.1481 24.8119 47.1394 24.3657V24.3638Z" fill="#FCDEA5"/>
<path d="M32.8893 11.25C32.0737 11.2687 31.2375 11.3512 30.5118 10.8712C29.3381 10.0987 28.9125 8.91186 29.2481 7.45498C30.315 6.94686 31.5881 7.19811 32.4431 8.08311C33.2418 8.91186 33.4312 10.2469 32.8893 11.2481V11.25Z" fill="#FCF5BB"/>
<path d="M47.1394 24.3637C45.15 24.81 43.8394 23.6156 43.5207 22.3537C43.3819 21.8025 43.4757 21.24 43.455 20.6831C44.6007 20.0625 45.8607 20.3418 46.8225 21.4275C47.6175 22.3237 47.7432 23.4937 47.1376 24.3618L47.1394 24.3637Z" fill="#FCF5BB"/>
<path d="M27.4143 29.8069C26.475 29.8556 25.5506 29.8481 24.7725 29.1975C23.76 28.35 23.4487 27.2831 23.7693 26.0156C24.81 25.5056 26.0981 25.7381 26.9193 26.5819C27.7706 27.4575 27.9768 28.8019 27.4125 29.805L27.4143 29.8069Z" fill="#FCF5BB"/>
<path d="M46.0257 55.9837C44.1245 56.3099 42.7876 55.5731 42.287 53.9437C42.1145 53.3849 42.1838 52.843 42.3207 52.2955C44.0363 51.4743 46.1363 52.6837 46.2582 54.5699C46.2788 54.8924 46.2657 55.2187 46.2676 55.543C46.187 55.6893 46.1045 55.8374 46.0238 55.9837H46.0257Z" fill="#FCF5BB"/>
<path d="M66.9563 22.9538C65.1957 23.2519 64.0013 22.6688 63.4032 21.2156C63.1426 20.5838 63.3188 19.9181 63.2719 19.2713C64.4119 18.6844 65.6701 18.9581 66.6094 19.9988C67.3782 20.85 67.5244 22.0931 66.9563 22.9538Z" fill="#FCF5BB"/>
<path d="M57.2775 40.907C57.3356 41.1038 57.5044 41.207 57.6412 41.3382C56.5987 42.8382 54.3337 42.7688 53.3175 41.7432C52.1306 40.5451 52.1362 38.6401 53.4 37.5076C53.6119 37.3163 53.8369 37.1588 54.1275 37.1157C54.1275 37.3013 54.1537 37.4907 54.1275 37.6726C53.8687 39.5157 55.4494 40.9595 57.2756 40.907H57.2775Z" fill="#FCDEA5"/>
<path d="M57.2776 40.9069C55.4513 40.9575 53.8707 39.5138 54.1294 37.6725C54.1557 37.4906 54.1294 37.3013 54.1294 37.1156C55.8938 36.1894 58.0463 37.395 58.2001 39.5775C58.2188 39.8344 58.1982 40.0931 58.1963 40.35H58.2094C58.1663 40.3856 58.1232 40.4194 58.0801 40.455C57.8063 40.5938 57.4857 40.65 57.2795 40.9088L57.2776 40.9069Z" fill="#FCF5BB"/>
<path d="M15.4894 35.8706C14.2538 35.8631 13.3688 34.9799 13.3688 33.7574C13.3688 32.5387 14.3232 31.6256 15.5775 31.6406C16.6744 31.6537 17.6907 32.6643 17.6963 33.7481C17.7038 34.9574 16.7456 35.8799 15.4894 35.8706Z" fill="#D98801"/>
<path d="M17.0081 40.4905C18.2175 40.483 19.2506 41.4636 19.2431 42.613C19.2356 43.7436 18.2306 44.7149 17.0625 44.7205C15.8268 44.728 14.9287 43.8561 14.9156 42.6355C14.9006 41.4243 15.8062 40.4961 17.01 40.4905H17.0081Z" fill="#D98801"/>
<path d="M28.2769 56.7262C28.2769 57.9543 27.3788 58.888 26.1807 58.9049C25.0126 58.9199 24.0507 57.9505 24.0451 56.7505C24.0394 55.6012 25.0463 54.5643 26.1619 54.5662C27.3544 54.568 28.2732 55.5074 28.2751 56.7262H28.2769Z" fill="#D98801"/>
<path d="M37.6988 59.4131C37.6988 60.6563 36.8175 61.5713 35.61 61.5825C34.4588 61.5938 33.4763 60.6056 33.4688 59.4319C33.4613 58.2431 34.4869 57.2213 35.6625 57.2438C36.795 57.2644 37.6988 58.2281 37.6988 59.4131Z" fill="#D98801"/>
<path d="M22.6519 39.6432C23.1094 39.6339 23.4206 39.9545 23.7731 40.1626C26.7319 41.9214 28.8207 44.4207 30.0694 47.6251C30.1444 47.8182 30.18 48.0264 30.2344 48.227C27.2813 45.9564 24.8794 43.187 22.845 40.082C22.7588 39.9489 22.7138 39.7895 22.65 39.6414L22.6519 39.6432Z" fill="#FCCA6A"/>
<path d="M30.3638 66.4988C29.8556 67.62 28.7831 68.3419 27.6956 68.2969C26.4563 68.2444 25.4269 67.4738 25.0106 66.2888C24.645 65.2482 24.9881 64.0032 25.8563 63.2363C26.0663 63.0507 26.2875 62.8782 26.5781 62.8369C26.6138 63.555 26.4975 64.2807 26.805 64.9838C27.27 66.0394 28.7081 66.96 30.3638 66.5007V66.4988Z" fill="#FCDEA5"/>
<path d="M6.8832 34.14C7.90132 33.6543 9.14257 33.8737 9.98257 34.6912C10.8432 35.5275 11.0757 36.75 10.5788 37.8412C9.84382 38.0025 9.11444 38.0906 8.40944 37.7081C6.99381 36.9393 6.54757 35.9006 6.88132 34.1418L6.8832 34.14Z" fill="#FCF5BB"/>
<path d="M26.61 49.2263C26.1113 50.4206 24.8925 51.1556 23.7131 50.9756C22.2769 50.7581 21.3057 49.7606 21.1332 48.3263C20.9963 47.1844 21.7669 45.9563 22.9013 45.51C22.8188 46.0594 22.7063 46.6031 22.8769 47.1638C23.3682 48.7931 24.555 49.4569 26.61 49.2244V49.2263Z" fill="#FCDEA5"/>
<path d="M6.88319 34.1401C6.54944 35.8988 6.99568 36.9376 8.41131 37.7063C9.11443 38.0888 9.84381 38.0007 10.5807 37.8394C10.0744 39.0582 8.85006 39.7988 7.63131 39.6226C6.32069 39.4332 5.28944 38.4282 5.10006 37.1569C4.91256 35.8932 5.64006 34.6594 6.88319 34.1382V34.1401Z" fill="#FCDEA5"/>
<path d="M30.3638 66.4987C28.7081 66.9581 27.27 66.0393 26.805 64.9818C26.4956 64.2806 26.6137 63.5549 26.5781 62.8349C27.5194 62.3043 28.8094 62.4787 29.6831 63.2568C30.5944 64.0687 30.8644 65.355 30.3638 66.4968V66.4987Z" fill="#FCF5BB"/>
<path d="M26.61 49.2262C24.5569 49.4587 23.3682 48.795 22.8769 47.1656C22.7082 46.6031 22.8188 46.0612 22.9013 45.5119C23.9288 44.9925 25.1775 45.2381 26.0588 46.0706C26.82 46.7906 27.1763 48.3281 26.6082 49.2262H26.61Z" fill="#FCF5BB"/>
<path d="M63.8362 57.242C63.4856 58.2695 62.7731 59.0345 62.0043 59.7564C61.53 59.687 61.2075 59.3814 60.9581 59.0157C60.3881 58.1757 60.1387 57.2626 60.4631 56.2557C61.7756 55.7195 63.0675 56.0982 63.8362 57.242Z" fill="#FCF5BB"/>
<path d="M60.4632 56.2556C60.1388 57.2625 60.3882 58.1756 60.9582 59.0156C61.2057 59.3812 61.5282 59.6887 62.0044 59.7562C61.4494 60.3225 61.0838 61.0781 60.3263 61.4419C59.2144 60.9319 58.6538 60.015 58.6726 58.8412C58.6913 57.6337 59.2894 56.7169 60.4651 56.2556H60.4632Z" fill="#FCDEA5"/>
<path d="M22.5056 39.478C22.5844 39.5118 22.6631 39.5437 22.6537 39.6524C22.605 39.5943 22.5544 39.5362 22.5056 39.478Z" fill="#FCCA6A"/>
<path d="M13.7456 16.4888C13.8056 16.545 13.89 16.5956 13.9331 16.6706C14.0043 16.7906 14.0662 16.92 14.0981 17.055C14.4787 18.6525 15.4181 19.6819 17.0587 20.0344C17.2856 20.0831 17.6325 20.145 17.6306 20.4656C17.6287 20.7825 17.2725 20.7844 17.0587 20.9025C16.9781 20.9475 16.8862 20.9813 16.7962 21C15.3693 21.315 14.5369 22.2131 14.2069 23.6156C14.1637 23.7956 14.0718 23.9625 14.0025 24.1369C13.9481 24.2738 13.8675 24.4088 13.7193 24.4181C13.5337 24.4294 13.44 24.2813 13.3762 24.12C13.2056 23.685 12.9993 23.2631 12.8662 22.8169C12.6225 22.0013 12.0843 21.5194 11.2968 21.2606C10.8768 21.1219 10.4662 20.9531 10.0537 20.7881C9.90372 20.7281 9.72934 20.6569 9.73309 20.46C9.73684 20.2669 9.90748 20.1975 10.0594 20.1375C10.4925 19.9631 10.92 19.7719 11.3643 19.6313C12.1406 19.3838 12.6262 18.8831 12.8681 18.105C13.005 17.6606 13.2075 17.2369 13.3781 16.8019C13.4418 16.6425 13.5337 16.5188 13.7437 16.4906L13.7456 16.4888Z" fill="#FDF0F0"/>
<path d="M17.2969 55.7288C17.2594 55.785 17.2237 55.8769 17.1581 55.9276C17.0662 55.9969 16.9575 56.0588 16.8469 56.0832C15.15 56.4582 14.1094 57.4819 13.7306 59.1863C13.6894 59.3738 13.6219 59.6269 13.3387 59.6063C13.0762 59.5857 13.0481 59.3363 12.96 59.1526C12.93 59.0888 12.9019 59.0232 12.8869 58.9557C12.5437 57.4351 11.6081 56.5182 10.0969 56.1544C9.85123 56.0944 9.46687 56.0682 9.46124 55.7119C9.45562 55.3538 9.84937 55.3707 10.0837 55.2469C10.1869 55.1926 10.2975 55.1457 10.41 55.1176C11.6606 54.8119 12.4294 54.0432 12.7744 52.7926C12.8756 52.4251 12.8944 51.8026 13.3912 51.8194C13.8037 51.8326 13.8694 52.4213 13.9481 52.7813C14.2762 54.2832 15.39 54.8663 16.6969 55.2676C16.9294 55.3388 17.2087 55.3875 17.2987 55.7288H17.2969Z" fill="#FB5E91"/>
<path d="M40.9369 35.6232C40.9107 35.8801 40.7101 35.9513 40.5113 36.0301C39.8157 36.3019 39.1257 36.5907 38.4244 36.8494C37.6482 37.1344 37.1326 37.6538 36.8513 38.4319C36.6282 39.0469 36.3882 39.6544 36.1313 40.2563C36.0207 40.5188 36.0169 40.9088 35.6176 40.9257C35.2013 40.9444 35.1919 40.5488 35.0813 40.2882C34.8094 39.6432 34.5563 38.9888 34.3069 38.3344C34.0407 37.6369 33.5644 37.1607 32.8726 36.8888C32.1338 36.6001 31.3969 36.3019 30.6582 36.0132C30.4557 35.9344 30.2532 35.8519 30.2494 35.5951C30.2457 35.3344 30.4576 35.2501 30.6544 35.1713C31.3482 34.8938 32.0382 34.6051 32.7394 34.3501C33.5419 34.0594 34.0726 33.5307 34.3576 32.7244C34.5976 32.0419 34.8844 31.3763 35.1544 30.7051C35.2407 30.4894 35.3101 30.2382 35.6101 30.2476C35.9044 30.2569 35.9644 30.5101 36.0507 30.7257C36.3113 31.3763 36.5907 32.0194 36.8232 32.6813C37.1157 33.5101 37.6444 34.0651 38.4826 34.3557C39.1651 34.5919 39.8288 34.8844 40.5019 35.1526C40.7213 35.2407 40.9501 35.3213 40.9369 35.6251V35.6232Z" fill="#FCF4BA"/>
</g>
<defs>
<clipPath id="clip0_4044_24169">
<rect width="72.1875" height="72" fill="white"/>
</clipPath>
</defs>
</svg>
