<svg width="30" height="25" viewBox="0 0 30 25" fill="none" xmlns="http://www.w3.org/2000/svg">
<path d="M1.34912 10.8664L9.92823 9.57965L22.1295 11.6924L13.4241 13.6015L1.34912 10.8664Z" fill="#4F382F"/>
<path d="M10.0451 9.39185L0.983643 10.6536L13.4618 13.3955L22.1869 11.5908L10.0451 9.39185ZM2.37467 10.7205L9.92816 9.57968L20.9327 11.5908L13.4615 13.0026L2.37467 10.7205Z" fill="#FFCE55"/>
<path d="M20.6734 0.552231C20.8293 0.513551 20.991 0.502417 21.1516 0.500365C21.3901 0.497142 21.633 0.514137 21.8572 0.596186C22.0814 0.677942 22.2871 0.831493 22.392 1.0457C22.4951 1.25639 22.4928 1.50136 22.4823 1.7355C22.4811 1.76509 22.479 1.79645 22.4617 1.82048C22.436 1.8571 22.3856 1.86443 22.341 1.86883C22.1728 1.88465 22.0046 1.90077 21.8367 1.91659C21.8036 1.70942 21.9234 1.4832 21.8311 1.29478C21.7497 1.12863 21.5413 1.07354 21.3567 1.05713C21.1648 1.04013 20.9658 1.04599 20.7876 1.11954C20.6095 1.1931 20.4551 1.3443 20.4181 1.53331C20.4047 1.60217 20.4023 1.68246 20.3475 1.72612C20.31 1.75601 20.2584 1.75923 20.2104 1.75982C19.108 1.77506 20.126 0.687905 20.6737 0.552231H20.6734Z" fill="#C6923E"/>
<path d="M14.9983 1.4249L9.92822 9.57969L22.1295 11.6925L27.6526 1.8791L14.9983 1.4249Z" fill="#4F382F"/>
<path d="M27.6525 1.87909L29.016 6.37274L26.1636 11.3936L22.1869 11.5908L27.6525 1.87909Z" fill="#705143"/>
<path d="M15.2221 1.87735L16.2586 5.29352L13.7684 9.67699L10.7507 9.23715L15.2221 1.87735Z" fill="#705143"/>
<path opacity="0.44" d="M27.2806 1.87909L21.8147 11.5908L25.7917 11.3938L28.6441 6.37274L27.2806 1.87909ZM25.5503 10.6399L23.1597 10.8365L27.0987 3.54937L27.9408 6.13011L25.5503 10.6402V10.6399Z" fill="#4F382F"/>
<path d="M27.6526 1.87909L22.1866 11.5908L26.1637 11.3938L29.0161 6.37274L27.6526 1.87909ZM25.9222 10.6399L23.5317 10.8365L27.4706 3.54937L28.3128 6.13011L25.9222 10.6402V10.6399Z" fill="#C6923E"/>
<path d="M14.9983 1.4249L9.92822 9.57969L22.1295 11.6925L27.6526 1.8791L14.998 1.4249H14.9983ZM21.9238 10.8664L10.7508 9.23714L15.2749 1.8791L26.6193 2.27967L21.9238 10.8664Z" fill="#FFCE55"/>
<path d="M16.2586 5.29346L24.7067 5.77696L21.9238 10.8663L13.7684 9.67693L16.2586 5.29346Z" fill="#936C58"/>
<path d="M20.2523 0.552231C20.4082 0.513551 20.57 0.502417 20.7306 0.500365C20.9691 0.497142 21.212 0.514137 21.4362 0.596186C21.6604 0.677942 21.8661 0.831493 21.971 1.0457C22.0741 1.25639 22.0718 1.50136 22.0612 1.7355C22.0598 1.76509 22.058 1.79645 22.0407 1.82048C22.0149 1.8571 21.9645 1.86443 21.92 1.86883C21.7518 1.88465 21.5836 1.90077 21.4157 1.91659C21.3826 1.70942 21.5024 1.4832 21.4101 1.29478C21.3287 1.12863 21.1203 1.07354 20.9357 1.05713C20.7438 1.04013 20.5448 1.04599 20.3666 1.11954C20.1885 1.1931 20.034 1.3443 19.9971 1.53331C19.9836 1.60217 19.9813 1.68246 19.9265 1.72612C19.889 1.75601 19.8374 1.75923 19.7894 1.75982C19.414 1.76509 19.2891 1.74898 19.2976 1.57931C19.3287 0.960133 19.8916 0.641899 20.2526 0.552524L20.2523 0.552231Z" fill="#FFCE55"/>
<path d="M14.7644 7.31238L12.3645 7.99514L11.5715 9.78293L12.5043 11.0957L12.4922 11.1162L14.0901 11.3152L15.2884 9.76945L14.7644 7.31238Z" fill="#EB95FF"/>
<path d="M12.6483 11.1268L12.6542 11.1174L11.7212 9.80461L12.5144 8.01683L14.7834 7.37128L14.7643 7.31238L12.3694 7.98694L11.5764 9.77444L12.5091 11.0872L12.4968 11.1077L12.6483 11.1268Z" fill="white"/>
<path d="M14.7644 7.31234L11.9425 7.16846L12.3645 7.9951L14.7644 7.31234Z" fill="#EB95FF"/>
<path opacity="0.4" d="M14.0098 7.27395L12.4855 7.70764L12.2174 7.18223L11.9425 7.16846L12.3645 7.9951L14.7644 7.31234L14.0098 7.27395Z" fill="white"/>
<path d="M11.9424 7.16846L10.569 9.73601L11.5714 9.78289L11.7118 9.46642L12.3644 7.9951L11.9424 7.16846Z" fill="#BB59FF"/>
<path d="M16.1765 9.66279L15.2883 9.76945L14.7644 7.31238L16.1765 9.66279Z" fill="#BB59FF"/>
<path d="M11.5714 9.78291L12.5042 11.0957L12.0092 11.9244L10.569 9.73602L11.5714 9.78291Z" fill="#843AD9"/>
<path d="M12.5042 11.0957L14.0901 11.3152L14.6694 12.1855L12.0093 11.9244L12.5042 11.0957Z" fill="#BB59FF"/>
<path d="M15.2883 9.76944L14.0901 11.3152L14.6694 12.1855L16.1765 9.66278L15.2883 9.76944Z" fill="#843AD9"/>
<path opacity="0.2" d="M11.5715 9.78296L12.7188 9.8275L14.0901 11.3152L12.5043 11.0957L11.5715 9.78296Z" fill="#68297C"/>
<path opacity="0.5" d="M11.4672 9.77796C11.4672 9.77796 12.0928 10.7168 12.1121 10.9911C12.1315 11.2654 12.0093 11.9241 12.0093 11.9241L12.5042 11.0954L11.5812 9.76624L11.4672 9.77766V9.77796Z" fill="#68297C"/>
<path opacity="0.5" d="M11.8373 7.34462C11.8373 7.34462 12.111 7.55912 12.0342 8.01156C11.9571 8.4643 11.4672 9.77767 11.4672 9.77767L11.5794 9.78734L12.3644 7.99486L11.9425 7.16821L11.837 7.34462H11.8373Z" fill="#68297C"/>
<path d="M10.569 9.73606L11.5793 9.78764L11.6092 9.71936L10.569 9.73606Z" fill="white"/>
<path opacity="0.1" d="M12.1731 10.1439C11.8689 10.5342 11.3057 10.604 10.9154 10.2998C10.5251 9.99565 10.4554 9.43244 10.7595 9.04212C11.0637 8.6518 11.6269 8.58206 12.0172 8.88623C12.4075 9.1904 12.4773 9.75361 12.1731 10.1439Z" fill="white"/>
<path opacity="0.2" d="M12.0686 10.0183C11.8438 10.3063 11.4283 10.3579 11.1403 10.1334C10.8522 9.90867 10.8007 9.49315 11.0254 9.2051C11.2499 8.91705 11.6657 8.86547 11.9537 9.09023C12.2418 9.31498 12.2934 9.73051 12.0686 10.0186V10.0183Z" fill="white"/>
<path opacity="0.7" d="M11.826 9.25374C11.6801 9.39498 11.5471 9.61154 11.2452 9.4152C11.2986 9.51952 11.3657 9.62677 11.3627 9.75072C11.3604 9.8612 11.3109 10.0115 11.2532 10.1038C11.3411 10.0238 11.3868 9.92127 11.5172 9.87145C11.6145 9.83453 11.7249 9.84127 11.8128 9.8949C11.7616 9.77446 11.6766 9.72083 11.7062 9.56992C11.7173 9.51249 11.7317 9.45389 11.7522 9.40114C11.7733 9.34634 11.8319 9.28129 11.8281 9.2262L11.826 9.25374Z" fill="white"/>
<path d="M11.6502 9.70529C11.6695 9.61914 11.6391 9.61211 11.5989 9.62969C11.5198 9.5116 11.3232 9.87672 11.5054 9.86353C11.5673 9.85913 11.6382 9.75863 11.6502 9.705V9.70529Z" fill="white"/>
<path opacity="0.5" d="M12.3736 11.2979L13.3444 11.5288C14.2557 11.7811 14.4699 12.1656 14.4699 12.1656L14.6695 12.1852L14.0902 11.3152L12.5043 11.0954L12.3733 11.2979H12.3736Z" fill="#68297C"/>
<path d="M12.5042 11.0957L12.0093 11.9244L12.6534 11.1162L12.5042 11.0957Z" fill="white"/>
<path d="M11.958 9.34406L11.8804 11.8378L13.3432 13.1359L14.8772 12.6451L14.893 12.6629L15.5676 11.2007L14.4582 9.58991L11.958 9.34406Z" fill="#EB95FF"/>
<path d="M14.9507 12.5173L14.9434 12.5091L13.4094 12.9997L11.9466 11.7015L12.0198 9.34351L11.958 9.34409L11.8739 11.8305L13.3367 13.1286L14.8707 12.6381L14.8866 12.6559L14.9507 12.5173Z" fill="white"/>
<path d="M11.958 9.34406L10.9646 11.989L11.8803 11.8378L11.958 9.34406Z" fill="#EB95FF"/>
<path opacity="0.4" d="M11.6922 10.0511L11.643 11.6353L11.0613 11.7314L10.9646 11.989L11.8803 11.8378L11.958 9.34406L11.6922 10.0511Z" fill="white"/>
<path d="M10.9646 11.989L12.9944 14.0768L13.3431 13.1359L13.0844 12.9062L11.8803 11.8378L10.9646 11.989Z" fill="#BB59FF"/>
<path d="M14.6258 8.71143L14.4582 9.58994L11.958 9.34408L14.6258 8.71143Z" fill="#BB59FF"/>
<path d="M13.3431 13.1359L14.8771 12.6451L15.5165 13.3683L12.9944 14.0768L13.3431 13.1359Z" fill="#843AD9"/>
<path d="M14.8772 12.6451L15.5676 11.2007L16.5724 10.9127L15.5166 13.3683L14.8772 12.6451Z" fill="#BB59FF"/>
<path d="M14.4581 9.58994L15.5675 11.2007L16.5724 10.9127L14.6257 8.71143L14.4581 9.58994Z" fill="#843AD9"/>
<path opacity="0.5" d="M14.9589 9.56825L14.8836 9.00299L14.614 8.69824L14.4464 9.57675L15.5558 11.1873L15.8128 11.1137L14.9589 9.56825Z" fill="#68297C"/>
<path opacity="0.2" d="M15.5676 11.2007L14.4582 9.5899L13.3444 10.103L15.5676 11.2007Z" fill="#68297C"/>
<path opacity="0.4" d="M13.9781 9.54279L14.1715 9.56183L13.7815 12.9956L13.3431 13.1359L12.9891 12.8218L13.9781 9.54279Z" fill="white"/>
<path opacity="0.2" d="M13.3431 13.1359L13.734 12.056L15.5675 11.2007L14.8772 12.645L13.3431 13.1359Z" fill="#68297C"/>
<path opacity="0.4" d="M14.8772 12.6451L14.8792 10.2015L15.5676 11.2007L14.8772 12.6451Z" fill="white"/>
<path opacity="0.4" d="M12.1807 12.1042L12.8772 9.43463L12.9686 9.44342L12.5933 12.4704L12.1807 12.1042Z" fill="white"/>
<path opacity="0.5" d="M13.3068 13.2338C13.3068 13.2338 14.3913 12.9223 14.6585 12.987C14.9258 13.0518 15.5165 13.368 15.5165 13.368L14.8771 12.6448L13.3305 13.1212L13.3068 13.2335V13.2338Z" fill="#68297C"/>
<path opacity="0.5" d="M11.1006 12.1428C11.1006 12.1428 11.388 11.9471 11.7959 12.1578C12.2038 12.3685 13.3068 13.2338 13.3068 13.2338L13.3502 13.1298L11.8803 11.8378L10.9646 11.989L11.1006 12.1428Z" fill="#68297C"/>
<path d="M12.9944 14.0769L13.3501 13.1298L13.2942 13.0803L12.9944 14.0769Z" fill="white"/>
<path d="M14.4464 9.57675L14.6257 8.71143L14.3069 9.57528L14.4464 9.57675Z" fill="white"/>
<path opacity="0.1" d="M13.87 12.672C14.1496 13.0805 14.0453 13.6381 13.6371 13.9177C13.2286 14.1973 12.6709 14.0929 12.3914 13.6847C12.1118 13.2763 12.2162 12.7186 12.6246 12.4391C13.0331 12.1595 13.5908 12.2638 13.8703 12.6723L13.87 12.672Z" fill="white"/>
<path opacity="0.2" d="M13.7186 12.7337C13.9249 13.0352 13.8481 13.4469 13.5466 13.6532C13.245 13.8595 12.8333 13.7827 12.627 13.4812C12.4207 13.1797 12.4978 12.768 12.799 12.5617C13.1006 12.3554 13.5123 12.4324 13.7186 12.7337Z" fill="white"/>
<path opacity="0.7" d="M12.9165 12.733C13.0068 12.915 13.1729 13.1075 12.8943 13.3352C13.01 13.3162 13.1322 13.2848 13.2497 13.3249C13.354 13.3607 13.4824 13.4536 13.5527 13.5365C13.5032 13.4287 13.4191 13.3537 13.4115 13.2145C13.4056 13.1104 13.4457 13.0073 13.5237 12.9399C13.3933 12.9522 13.3165 13.017 13.1817 12.9431C13.1302 12.915 13.0792 12.8836 13.0346 12.8479C12.9889 12.811 12.9444 12.7357 12.8907 12.7225L12.9165 12.7327V12.733Z" fill="white"/>
<path d="M13.2936 13.0375C13.2174 12.9926 13.2016 13.0196 13.206 13.0635C13.0694 13.1031 13.3575 13.4011 13.4006 13.2235C13.4152 13.1635 13.3408 13.0653 13.2936 13.0375Z" fill="white"/>
<path opacity="0.1" d="M14.8839 9.21689C15.0926 9.52164 15.0146 9.93804 14.7099 10.1467C14.4051 10.3553 13.9887 10.2774 13.7801 9.97262C13.5714 9.66786 13.6494 9.25146 13.9541 9.04282C14.2589 8.83418 14.6753 8.91213 14.8839 9.21689Z" fill="white"/>
<path opacity="0.2" d="M14.7706 9.26298C14.9247 9.48803 14.8673 9.79542 14.6423 9.94926C14.4172 10.1034 14.1098 10.046 13.956 9.82091C13.8018 9.59587 13.8593 9.28847 14.0843 9.13463C14.3094 8.9805 14.6168 9.03793 14.7706 9.26298Z" fill="white"/>
<path opacity="0.7" d="M14.1719 9.26268C14.2393 9.39836 14.3632 9.54224 14.1552 9.7122C14.2416 9.69784 14.3328 9.67439 14.4204 9.70458C14.4983 9.73124 14.5941 9.8004 14.6466 9.86252C14.6097 9.78194 14.547 9.72626 14.5411 9.62223C14.5367 9.54458 14.5666 9.4678 14.6249 9.41711C14.5276 9.42619 14.4702 9.47455 14.3697 9.41946C14.3313 9.39836 14.2929 9.37491 14.2601 9.34854C14.2258 9.321 14.1927 9.26474 14.1528 9.25507L14.1722 9.26268H14.1719Z" fill="white"/>
<path d="M14.4533 9.4898C14.3964 9.45639 14.3844 9.47661 14.3879 9.50943C14.286 9.53903 14.501 9.76144 14.5333 9.6287C14.5441 9.58387 14.4887 9.5106 14.4533 9.4898Z" fill="white"/>
<path opacity="0.5" d="M15.0302 12.8311L15.5447 11.9761C16.0616 11.1843 16.493 11.0967 16.493 11.0967L16.5724 10.9124L15.5676 11.2004L14.8772 12.6451L15.0302 12.8311Z" fill="#68297C"/>
<path d="M14.8772 12.6451L15.5166 13.3683L14.942 12.5094L14.8772 12.6451Z" fill="white"/>
<path d="M5.96331 8.88867L4.25317 10.7055L4.48906 12.6468L5.96331 13.2956V13.3193L6.96841 12.6708L7.2043 10.7295L5.96331 8.88867Z" fill="#EB95FF"/>
<path d="M6.10309 13.2484V13.2373L4.62884 12.5888L4.39295 10.6472L6.0099 8.9294L5.96331 8.88867L4.25317 10.6958L4.48906 12.6371L5.96302 13.2859V13.3099L6.10309 13.2484Z" fill="white"/>
<path d="M5.96326 8.88867L3.46692 10.212L4.25312 10.7055L5.96326 8.88867Z" fill="#EB95FF"/>
<path opacity="0.4" d="M5.29573 9.24265L4.20946 10.3966L3.70984 10.0834L3.46692 10.212L4.25312 10.7055L5.96326 8.88867L5.29573 9.24265Z" fill="white"/>
<path d="M3.46692 10.212L3.60435 13.1206L4.48902 12.6468L4.44711 12.3033L4.25312 10.7054L3.46692 10.212Z" fill="#BB59FF"/>
<path d="M7.91192 10.1821L7.20425 10.7295L5.96326 8.88867L7.91192 10.1821Z" fill="#BB59FF"/>
<path d="M4.48903 12.6468L5.96328 13.2956V14.2608L3.60437 13.1206L4.48903 12.6468Z" fill="#843AD9"/>
<path d="M5.96326 13.2956L6.96836 12.6708L7.91192 13.1206L5.96326 14.2608V13.2956Z" fill="#BB59FF"/>
<path d="M7.20427 10.7295L6.96838 12.6708L7.91195 13.1206V10.1821L7.20427 10.7295Z" fill="#843AD9"/>
<path opacity="0.5" d="M7.59371 11.0448L7.91195 10.5716V10.1646L7.20427 10.7116L6.96838 12.653L7.20984 12.7681L7.59371 11.0448Z" fill="#68297C"/>
<path opacity="0.2" d="M6.96846 12.6708L7.20435 10.7295L6.49902 10.3758L6.96846 12.6708Z" fill="#68297C"/>
<path opacity="0.4" d="M6.87607 10.3758L7.00822 10.5185L4.91011 12.8323L4.48903 12.6468L4.43188 12.1774L6.87607 10.3758Z" fill="white"/>
<path opacity="0.2" d="M4.48901 12.6468L5.49704 12.0967L6.96836 12.6708L5.96326 13.2955L4.48901 12.6468Z" fill="#68297C"/>
<path opacity="0.4" d="M5.96326 13.2956L7.11487 11.4662L6.96836 12.6708L5.96326 13.2956Z" fill="white"/>
<path opacity="0.4" d="M4.30151 11.104L6.59185 9.56555L6.65456 9.63295L4.36803 11.6514L4.30151 11.104Z" fill="white"/>
<path opacity="0.5" d="M4.39697 12.6963C4.39697 12.6963 5.41555 13.1816 5.57291 13.4069C5.73027 13.6326 5.96323 14.2608 5.96323 14.2608V13.2956L4.48898 12.6277L4.39697 12.6963Z" fill="#68297C"/>
<path opacity="0.5" d="M3.46692 10.4174C3.46692 10.4174 3.81211 10.4611 3.97797 10.8892C4.14382 11.3173 4.397 12.696 4.397 12.696L4.49839 12.6468L4.25312 10.7054L3.46692 10.212V10.4174Z" fill="#68297C"/>
<path d="M3.60437 13.1206L4.49841 12.6468L4.48903 12.5729L3.60437 13.1206Z" fill="white"/>
<path d="M7.20427 10.7116L7.91194 10.1821L7.10083 10.6178L7.20427 10.7116Z" fill="white"/>
<path opacity="0.1" d="M5.1909 12.6486C5.12994 13.1397 4.68219 13.4884 4.19107 13.4275C3.69995 13.3665 3.35124 12.9188 3.41219 12.4276C3.47314 11.9365 3.92089 11.5878 4.41201 11.6488C4.90314 11.7097 5.25185 12.1575 5.1909 12.6486Z" fill="white"/>
<path opacity="0.2" d="M5.03659 12.5944C4.99146 12.9568 4.66122 13.2144 4.29844 13.1693C3.93596 13.1242 3.67839 12.7936 3.72351 12.4311C3.76864 12.0687 4.09889 11.8111 4.46166 11.8562C4.82414 11.9013 5.08172 12.2316 5.03659 12.5944Z" fill="white"/>
<path opacity="0.7" d="M4.43615 12.0625C4.38311 12.2585 4.38018 12.5129 4.02063 12.4988C4.11997 12.561 4.23249 12.6187 4.29374 12.7265C4.34824 12.8226 4.38282 12.9771 4.38077 13.0858C4.41534 12.9721 4.40186 12.8604 4.48831 12.7508C4.55278 12.6691 4.65124 12.6184 4.75409 12.6193C4.6483 12.5422 4.54779 12.5396 4.49593 12.3951C4.476 12.34 4.45842 12.2826 4.44875 12.2266C4.43879 12.1686 4.45549 12.0827 4.42413 12.0376L4.43644 12.0625H4.43615Z" fill="white"/>
<path d="M4.51679 12.5404C4.48925 12.4563 4.45965 12.466 4.43386 12.502C4.30522 12.4414 4.32368 12.8554 4.47372 12.7508C4.52441 12.7154 4.53379 12.5926 4.51679 12.5407V12.5404Z" fill="white"/>
<path opacity="0.1" d="M7.77013 10.7318C7.72441 11.0984 7.39036 11.3586 7.02377 11.3132C6.65719 11.2675 6.86583 10.9335 6.91125 10.5669C6.95696 10.2003 6.82217 9.94007 7.18875 9.98549C7.55533 10.0309 7.81555 10.3653 7.77013 10.7318Z" fill="white"/>
<path opacity="0.2" d="M7.6552 10.6918C7.6215 10.9626 7.37506 11.1545 7.1043 11.1208C6.83354 11.0871 7.11045 10.8407 7.14415 10.5699C7.17785 10.2992 6.95544 10.1072 7.2262 10.1409C7.49667 10.1746 7.6889 10.4211 7.6552 10.6918Z" fill="white"/>
<path opacity="0.7" d="M7.20681 10.2945C7.16725 10.4407 7.1649 10.6306 6.89648 10.6203C6.97062 10.6669 7.05443 10.7097 7.10014 10.7903C7.14087 10.8618 7.16666 10.9772 7.1649 11.0584C7.19069 10.9737 7.18073 10.8902 7.24519 10.8084C7.29325 10.7475 7.3668 10.7097 7.44358 10.7103C7.36446 10.6525 7.28973 10.6508 7.25076 10.5429C7.23582 10.5016 7.22263 10.4588 7.2156 10.4169C7.20827 10.3736 7.22058 10.3097 7.19714 10.2757L7.20651 10.2942L7.20681 10.2945Z" fill="white"/>
<path d="M7.26716 10.6513C7.24665 10.5886 7.22438 10.5959 7.20533 10.6226C7.10951 10.5772 7.12328 10.8863 7.23493 10.8081C7.27273 10.7817 7.27976 10.69 7.26716 10.651V10.6513Z" fill="white"/>
<path opacity="0.5" d="M5.95452 13.5365L6.90629 13.237C7.81791 12.9861 7.73029 13.2065 7.73029 13.2065L7.91168 13.1209L6.96812 12.6708L5.96272 13.2956L5.95422 13.5365H5.95452Z" fill="#68297C"/>
<path d="M5.96326 13.2956V14.2608L6.10157 13.2367L5.96326 13.2956Z" fill="white"/>
<path d="M11.7285 8.8526L9.29602 9.40702L8.4093 11.1503L9.27111 12.5105L9.25792 12.5304L10.8432 12.8141L12.1217 11.334L11.7285 8.8526Z" fill="#EB95FF"/>
<path d="M9.4135 12.5495L9.41965 12.5404L8.55755 11.1799L9.44456 9.43661L11.7446 8.91238L11.7285 8.8526L9.30127 9.39911L8.41455 11.1421L9.27665 12.5026L9.26317 12.5225L9.4135 12.5495Z" fill="white"/>
<path d="M11.7285 8.85258L8.91858 8.55896L9.296 9.40699L11.7285 8.85258Z" fill="#EB95FF"/>
<path opacity="0.4" d="M10.9774 8.77404L9.43197 9.12627L9.19227 8.58768L8.91858 8.55896L9.296 9.40699L11.7285 8.85258L10.9774 8.77404Z" fill="white"/>
<path d="M8.91871 8.55902L7.41077 11.0504L8.40942 11.1503L8.56619 10.8417L9.29614 9.40705L8.91871 8.55902Z" fill="#BB59FF"/>
<path d="M13.0139 11.2745L12.1216 11.334L11.7284 8.8526L13.0139 11.2745Z" fill="#BB59FF"/>
<path d="M8.4093 11.1503L9.27111 12.5105L8.73281 13.312L7.41064 11.0504L8.4093 11.1503Z" fill="#843AD9"/>
<path d="M9.27109 12.5105L10.8432 12.8141L11.3754 13.7137L8.73279 13.3119L9.27109 12.5105Z" fill="#BB59FF"/>
<path d="M12.1216 11.334L10.8431 12.8141L11.3753 13.7137L13.0139 11.2745L12.1216 11.334Z" fill="#843AD9"/>
<path opacity="0.5" d="M12.2691 11.8131L12.7968 11.5978L13.0239 11.2599L12.1314 11.3194L10.8531 12.7995L10.9891 13.0295L12.2691 11.8131Z" fill="#68297C"/>
<path opacity="0.2" d="M10.8431 12.8141L12.1216 11.334L11.3439 10.386L10.8431 12.8141Z" fill="#68297C"/>
<path opacity="0.4" d="M12.0461 10.8575L12.0766 11.0497L8.65545 11.5388L8.4093 11.1503L8.6238 10.7286L12.0461 10.8575Z" fill="white"/>
<path opacity="0.2" d="M8.4093 11.1503L9.55271 11.2558L10.8432 12.8141L9.27111 12.5105L8.4093 11.1503Z" fill="#68297C"/>
<path opacity="0.4" d="M9.27112 12.5105L11.6365 11.8961L10.8432 12.8141L9.27112 12.5105Z" fill="white"/>
<path opacity="0.4" d="M9.11402 9.76514H11.8732L11.8876 9.85598L8.86377 10.2566L9.11402 9.76514Z" fill="white"/>
<path opacity="0.5" d="M8.30518 11.1397C8.30518 11.1397 8.88011 12.1105 8.88509 12.3854C8.88978 12.6603 8.733 13.3117 8.733 13.3117L9.2713 12.5105L8.42004 11.1342L8.30547 11.1397H8.30518Z" fill="#68297C"/>
<path opacity="0.5" d="M8.80392 8.72981C8.80392 8.72981 9.06589 8.95838 8.96508 9.40642C8.86428 9.85418 8.30518 11.14 8.30518 11.14L8.41682 11.1555L9.29592 9.4073L8.91849 8.55927L8.80392 8.72981Z" fill="#68297C"/>
<path d="M7.41064 11.0504L8.41692 11.1556L8.45062 11.0887L7.41064 11.0504Z" fill="white"/>
<path d="M12.1314 11.3193L13.014 11.2745L12.0977 11.184L12.1314 11.3193Z" fill="white"/>
<path opacity="0.1" d="M8.99095 11.543C8.66627 11.9166 8.10043 11.9564 7.72681 11.6318C7.35319 11.3071 7.31334 10.7412 7.63802 10.3676C7.9627 9.994 8.52854 9.95415 8.90216 10.2788C9.27578 10.6035 9.31563 11.1694 8.99095 11.543Z" fill="white"/>
<path opacity="0.2" d="M8.89325 11.4121C8.65355 11.6878 8.23598 11.7174 7.95994 11.4777C7.6842 11.238 7.65489 10.8205 7.8943 10.5444C8.134 10.2687 8.55157 10.2394 8.82761 10.4788C9.10335 10.7185 9.13295 11.136 8.89325 11.4121Z" fill="white"/>
<path opacity="0.7" d="M8.69142 10.6355C8.53816 10.7686 8.3937 10.9781 8.10301 10.7659C8.15077 10.8729 8.21202 10.9833 8.20264 11.1073C8.19444 11.2172 8.137 11.3649 8.07458 11.454C8.1666 11.3789 8.21759 11.2787 8.35062 11.2359C8.44967 11.204 8.55955 11.2169 8.64453 11.2752C8.5997 11.1521 8.51765 11.0941 8.55516 10.945C8.56952 10.8881 8.5868 10.8307 8.60995 10.7788C8.63398 10.7252 8.69581 10.6634 8.69493 10.608L8.69142 10.6355Z" fill="white"/>
<path d="M8.49211 11.0774C8.51614 10.9924 8.48596 10.9839 8.44464 10.9995C8.37168 10.8773 8.1563 11.2315 8.33915 11.228C8.40098 11.2269 8.47717 11.1302 8.49211 11.0774Z" fill="white"/>
<path opacity="0.1" d="M12.59 11.652C12.3476 11.9309 11.9254 11.9605 11.6464 11.7182C11.3674 11.4758 11.3378 11.0536 11.5802 10.7746C11.8225 10.4957 12.2448 10.4661 12.5237 10.7084C12.8027 10.9507 12.8323 11.373 12.59 11.652Z" fill="white"/>
<path opacity="0.2" d="M12.517 11.5541C12.3383 11.7601 12.0262 11.7818 11.8205 11.603C11.6145 11.4243 11.5928 11.1122 11.7715 10.9065C11.9503 10.7005 12.2624 10.6788 12.4681 10.8575C12.6741 11.0363 12.6958 11.3484 12.517 11.5541Z" fill="white"/>
<path opacity="0.7" d="M12.3664 10.9747C12.2521 11.0741 12.1442 11.2306 11.9271 11.0723C11.9629 11.1523 12.0086 11.2347 12.0015 11.327C11.9954 11.409 11.9526 11.5192 11.906 11.5857C11.9746 11.5297 12.0127 11.455 12.112 11.4231C12.1861 11.3993 12.2679 11.4087 12.3315 11.4524C12.2981 11.3604 12.2368 11.3173 12.2647 11.2059C12.2752 11.1634 12.2884 11.1207 12.3057 11.0817C12.3236 11.0415 12.3699 10.9955 12.369 10.9542L12.3664 10.9747Z" fill="white"/>
<path d="M12.2175 11.3044C12.2353 11.2408 12.2131 11.2347 12.182 11.2461C12.1275 11.155 11.9666 11.4193 12.1032 11.4167C12.1495 11.4158 12.2063 11.3437 12.2175 11.3044Z" fill="white"/>
<path opacity="0.5" d="M9.12957 12.7057L10.0866 12.9878C10.9833 13.2882 11.1767 13.6835 11.1767 13.6835L11.3751 13.7137L10.8429 12.8141L9.27081 12.5105L9.12927 12.7057H9.12957Z" fill="#68297C"/>
<path d="M9.27109 12.5105L8.73279 13.3119L9.41878 12.5392L9.27109 12.5105Z" fill="white"/>
<path d="M18.8176 9.20898L16.4818 10.0863L15.838 11.933L16.8753 13.1649L16.8648 13.1863L18.4741 13.2537L19.5414 11.6148L18.8176 9.20898Z" fill="#EB95FF"/>
<path d="M17.0219 13.1843L17.0266 13.1743L15.9893 11.9424L16.6331 10.0957L18.8413 9.26612L18.8176 9.20898L16.486 10.0778L15.8422 11.9245L16.8798 13.1564L16.8692 13.1778L17.0219 13.1843Z" fill="white"/>
<path d="M18.8175 9.20898L15.9933 9.29689L16.4818 10.0863L18.8175 9.20898Z" fill="#EB95FF"/>
<path opacity="0.4" d="M18.0624 9.23243L16.5788 9.78978L16.2684 9.28839L15.9933 9.29689L16.4818 10.0863L18.8175 9.20898L18.0624 9.23243Z" fill="white"/>
<path d="M15.9934 9.29688L14.8353 11.9687L15.8381 11.933L15.9521 11.6063L16.4819 10.0863L15.9934 9.29688Z" fill="#BB59FF"/>
<path d="M20.4176 11.4354L19.5414 11.6148L18.8176 9.20898L20.4176 11.4354Z" fill="#BB59FF"/>
<path d="M15.8381 11.933L16.8754 13.1649L16.4502 14.0314L14.8353 11.9687L15.8381 11.933Z" fill="#843AD9"/>
<path d="M16.8754 13.1649L18.4742 13.2537L19.1226 14.0733L16.4502 14.0314L16.8754 13.1649Z" fill="#BB59FF"/>
<path d="M19.5413 11.6148L18.4741 13.2537L19.1226 14.0733L20.4175 11.4354L19.5413 11.6148Z" fill="#843AD9"/>
<path opacity="0.5" d="M19.7521 12.0699L20.2462 11.785L20.4255 11.4196L19.5493 11.599L18.4818 13.2379L18.648 13.4474L19.7521 12.0699Z" fill="#68297C"/>
<path opacity="0.2" d="M18.4741 13.2537L19.5413 11.6148L18.6429 10.7802L18.4741 13.2537Z" fill="#68297C"/>
<path opacity="0.4" d="M19.4025 11.153L19.4584 11.339L16.1346 12.2849L15.838 11.933L15.9936 11.4864L19.4025 11.153Z" fill="white"/>
<path opacity="0.2" d="M15.838 11.933L16.9852 11.8835L18.4741 13.2537L16.8753 13.1649L15.838 11.933Z" fill="#68297C"/>
<path opacity="0.4" d="M16.8754 13.1649L19.1361 12.2369L18.4741 13.2537L16.8754 13.1649Z" fill="white"/>
<path opacity="0.4" d="M16.3496 10.4655L19.0836 10.0936L19.11 10.1818L16.168 10.9862L16.3496 10.4655Z" fill="white"/>
<path opacity="0.5" d="M15.7336 11.9368C15.7336 11.9368 16.4343 12.8212 16.4762 13.0931C16.5181 13.3648 16.4501 14.0314 16.4501 14.0314L16.8756 13.1649L15.8465 11.916L15.7336 11.9368Z" fill="#68297C"/>
<path opacity="0.5" d="M15.903 9.48149C15.903 9.48149 16.1934 9.67284 16.1539 10.1303C16.1143 10.5877 15.7336 11.9368 15.7336 11.9368H15.8465L16.4818 10.0863L15.9936 9.29688L15.903 9.48119V9.48149Z" fill="#68297C"/>
<path d="M14.8353 11.9688L15.8466 11.9371L15.8706 11.8665L14.8353 11.9688Z" fill="white"/>
<path d="M19.5493 11.5989L20.4176 11.4354L19.4974 11.4694L19.5493 11.5989Z" fill="white"/>
<path opacity="0.1" d="M16.4674 12.2436C16.1961 12.6577 15.6408 12.7734 15.2267 12.5021C14.8127 12.2307 14.6969 11.6754 14.9683 11.2614C15.2396 10.8473 15.7949 10.7316 16.209 11.0029C16.623 11.2743 16.7388 11.8296 16.4674 12.2436Z" fill="white"/>
<path opacity="0.2" d="M16.3528 12.1275C16.1527 12.4332 15.7425 12.5185 15.4368 12.3183C15.1312 12.1182 15.0459 11.7079 15.2461 11.4026C15.4462 11.097 15.8564 11.0117 16.1618 11.2118C16.4674 11.412 16.5527 11.8222 16.3526 12.1275H16.3528Z" fill="white"/>
<path opacity="0.7" d="M16.0481 11.3853C15.9142 11.538 15.7993 11.7648 15.4825 11.594C15.5444 11.6936 15.6197 11.795 15.6273 11.9186C15.634 12.0288 15.5971 12.1827 15.547 12.2794C15.6282 12.1926 15.6651 12.0863 15.7911 12.0262C15.8852 11.9813 15.9956 11.9793 16.0877 12.0253C16.0267 11.9093 15.9376 11.863 15.9546 11.7103C15.9611 11.652 15.9704 11.5928 15.9866 11.538C16.0033 11.4814 16.056 11.412 16.0478 11.3575V11.3853H16.0481Z" fill="white"/>
<path d="M15.9101 11.85C15.9224 11.7624 15.8913 11.758 15.8526 11.7791C15.7641 11.6677 15.5983 12.0478 15.7788 12.02C15.84 12.0106 15.9024 11.9045 15.9101 11.8503V11.85Z" fill="white"/>
<path opacity="0.1" d="M20.0483 11.8665C19.8459 12.1753 19.4312 12.2618 19.1224 12.0593C18.8135 11.8568 18.7271 11.4422 18.9295 11.1333C19.132 10.8242 19.5467 10.738 19.8555 10.9405C20.1644 11.143 20.2508 11.5576 20.0483 11.8665Z" fill="white"/>
<path opacity="0.2" d="M19.9627 11.7796C19.8133 12.0076 19.5074 12.0715 19.2791 11.922C19.0511 11.7726 18.9872 11.4664 19.1367 11.2384C19.2861 11.0104 19.5921 10.9465 19.8203 11.096C20.0483 11.2454 20.1122 11.5513 19.9627 11.7796Z" fill="white"/>
<path opacity="0.7" d="M19.7353 11.2255C19.6354 11.3395 19.5498 11.5089 19.3134 11.3811C19.3594 11.4555 19.4159 11.5312 19.4215 11.6235C19.4265 11.7058 19.3989 11.8207 19.3617 11.8928C19.4221 11.828 19.4499 11.7486 19.544 11.7037C19.614 11.6703 19.6966 11.6686 19.7655 11.7032C19.7198 11.6167 19.6536 11.5818 19.6662 11.4679C19.6709 11.4242 19.6782 11.3799 19.6902 11.3395C19.7025 11.2973 19.7421 11.2454 19.7359 11.2047V11.2255H19.7353Z" fill="white"/>
<path d="M19.6322 11.5725C19.6413 11.5072 19.6185 11.5039 19.5895 11.5195C19.5232 11.4365 19.3996 11.7199 19.5344 11.6991C19.5801 11.6921 19.6267 11.6129 19.6322 11.5722V11.5725Z" fill="white"/>
<path opacity="0.5" d="M16.7616 13.3774L17.7479 13.528C18.6769 13.7047 18.9218 14.0704 18.9218 14.0704L19.1226 14.0736L18.4741 13.254L16.8756 13.1652L16.7616 13.3777V13.3774Z" fill="#68297C"/>
<path d="M16.8754 13.1649L16.4502 14.0314L17.0257 13.1731L16.8754 13.1649Z" fill="white"/>
<path d="M1.73767 18.5593L2.0477 18.3495V11.7871L1.73767 11.7153V18.5593Z" fill="#C6923E"/>
<path opacity="0.44" d="M1.74088 11.215C1.74088 11.3806 1.63275 11.5148 1.49971 11.5148C1.36667 11.5148 1.25854 11.3806 1.25854 11.215C1.25854 11.0494 1.36667 10.9152 1.49971 10.9152C1.63275 10.9152 1.74088 11.0494 1.74088 11.215Z" fill="#4F382F"/>
<path d="M1.65152 11.1662C1.65152 11.3317 1.54339 11.4659 1.41035 11.4659C1.27732 11.4659 1.16919 11.3317 1.16919 11.1662C1.16919 11.0006 1.27732 10.8664 1.41035 10.8664C1.54339 10.8664 1.65152 11.0006 1.65152 11.1662Z" fill="#FFCE55"/>
<path d="M1.25943 11.0394C1.2436 11.0682 1.23306 11.1013 1.23686 11.1341C1.24067 11.1669 1.26031 11.1988 1.29108 11.2109C1.29899 11.2141 1.30749 11.2158 1.31598 11.2144C1.34001 11.2106 1.35261 11.1851 1.36697 11.1654C1.38455 11.1417 1.40946 11.1235 1.43759 11.1142C1.45459 11.1086 1.47334 11.1057 1.48594 11.0931C1.49766 11.0816 1.50147 11.0638 1.49884 11.0473C1.4962 11.0309 1.48829 11.0163 1.47891 11.0025C1.41737 10.9128 1.30368 10.9589 1.25943 11.0391V11.0394Z" fill="white"/>
<path opacity="0.44" d="M1.78568 18.7649C1.78568 18.9304 1.67755 19.0646 1.54451 19.0646C1.41147 19.0646 1.30334 18.9304 1.30334 18.7649C1.30334 18.5993 1.41147 18.4651 1.54451 18.4651C1.67755 18.4651 1.78568 18.5993 1.78568 18.7649Z" fill="#4F382F"/>
<path d="M1.69595 18.7161C1.69595 18.8817 1.58783 19.0159 1.45479 19.0159C1.32175 19.0159 1.21362 18.8817 1.21362 18.7161C1.21362 18.5505 1.32175 18.4163 1.45479 18.4163C1.58783 18.4163 1.69595 18.5505 1.69595 18.7161Z" fill="#FFCE55"/>
<path d="M1.30423 18.5891C1.2884 18.6178 1.27786 18.6509 1.28166 18.6837C1.28547 18.7165 1.30511 18.7485 1.33588 18.7605C1.34379 18.7637 1.35229 18.7655 1.36078 18.764C1.38481 18.7602 1.39741 18.7347 1.41177 18.7151C1.42935 18.6913 1.45426 18.6732 1.48239 18.6638C1.49939 18.6582 1.51814 18.6553 1.53074 18.6427C1.54246 18.6313 1.54627 18.6131 1.54364 18.597C1.541 18.5809 1.53309 18.5659 1.52371 18.5521C1.46217 18.4625 1.34848 18.5085 1.30423 18.5888V18.5891Z" fill="white"/>
<path opacity="0.44" d="M14.3043 23.6313C14.3043 23.8417 14.1672 24.0123 13.9978 24.0123C13.8284 24.0123 13.6913 23.8417 13.6913 23.6313C13.6913 23.4209 13.8284 23.2504 13.9978 23.2504C14.1672 23.2504 14.3043 23.4209 14.3043 23.6313Z" fill="#4F382F"/>
<path d="M14.1909 23.5691C14.1909 23.7794 14.0538 23.95 13.8844 23.95C13.715 23.95 13.5779 23.7794 13.5779 23.5691C13.5779 23.3587 13.715 23.1881 13.8844 23.1881C14.0538 23.1881 14.1909 23.3587 14.1909 23.5691Z" fill="#FFCE55"/>
<path d="M13.6928 23.408C13.6725 23.4446 13.6593 23.4865 13.664 23.5281C13.6687 23.5697 13.6939 23.6105 13.7329 23.626C13.7429 23.6298 13.7537 23.6322 13.7645 23.6307C13.795 23.626 13.8111 23.5935 13.8296 23.5686C13.8519 23.5384 13.8835 23.5152 13.9193 23.5035C13.9407 23.4965 13.9647 23.4927 13.9808 23.4769C13.9957 23.4622 14.0004 23.4393 13.9972 23.4188C13.994 23.3983 13.9837 23.3793 13.972 23.362C13.8941 23.248 13.7496 23.3066 13.693 23.4083L13.6928 23.408Z" fill="white"/>
<path opacity="0.44" d="M13.2821 23.6622C13.2821 23.8726 13.145 24.0431 12.9756 24.0431C12.8062 24.0431 12.6691 23.8726 12.6691 23.6622C12.6691 23.4518 12.8062 23.2812 12.9756 23.2812C13.145 23.2812 13.2821 23.4518 13.2821 23.6622Z" fill="#4F382F"/>
<path d="M13.1688 23.6001C13.1688 23.8105 13.0317 23.9811 12.8623 23.9811C12.6929 23.9811 12.5558 23.8105 12.5558 23.6001C12.5558 23.3897 12.6929 23.2192 12.8623 23.2192C13.0317 23.2192 13.1688 23.3897 13.1688 23.6001Z" fill="#FFCE55"/>
<path d="M12.6705 23.4389C12.6503 23.4755 12.6371 23.5174 12.6418 23.559C12.6465 23.6006 12.6717 23.6413 12.7107 23.6569C12.7206 23.6607 12.7315 23.663 12.7423 23.6616C12.7728 23.6569 12.7889 23.6243 12.8071 23.5994C12.8294 23.5693 12.861 23.5461 12.8968 23.5344C12.9181 23.5274 12.9422 23.5235 12.9583 23.5077C12.9732 23.4931 12.9779 23.4702 12.9747 23.4497C12.9715 23.4292 12.9612 23.4101 12.9495 23.3929C12.8716 23.2789 12.7271 23.3375 12.6705 23.4394V23.4389Z" fill="white"/>
<path d="M1.3335 10.8664V18.3841L13.4088 24.0429V13.6016L1.3335 10.8664Z" fill="#936C58"/>
<path d="M13.601 13.5831L22.1297 11.6412L22.404 20.1734L13.4243 23.9919L13.601 13.5831Z" fill="#705143"/>
<path opacity="0.44" d="M14.4147 15.7952C14.5381 15.8617 14.7045 15.8353 14.8012 15.7342C14.8979 15.6328 14.9167 15.4655 14.8446 15.3453C15.159 15.4394 15.5016 15.4377 15.8148 15.3398C15.7014 15.0655 15.4881 14.8337 15.2241 14.698C15.3448 14.7065 15.4559 14.6037 15.4784 14.4847C15.501 14.3657 15.4474 14.2412 15.3615 14.1562C15.2754 14.071 15.1608 14.0206 15.0445 13.9871C14.793 13.9151 14.5012 13.9227 14.2952 14.0838C14.0991 14.2374 14.018 14.5029 14.0273 14.752C14.0376 15.0245 14.1407 15.6481 14.4147 15.7957V15.7952Z" fill="#4F382F"/>
<path opacity="0.44" d="M14.2459 21.0451C14.299 20.8658 14.4229 20.6642 14.6096 20.6762C14.7746 20.687 14.8777 20.8643 14.9073 21.027C15.0752 20.7662 15.3319 20.5637 15.6247 20.4611C15.6806 20.7471 15.6478 21.0498 15.5324 21.3171C15.6713 21.2532 15.8453 21.2098 15.9687 21.3001C16.0774 21.3795 16.102 21.5339 16.083 21.6672C16.039 21.9746 15.8207 22.2284 15.5819 22.4271C15.3501 22.6199 15.082 22.7822 14.7842 22.8291C14.6849 22.8449 14.5806 22.847 14.4862 22.8124C14.3233 22.7529 14.2149 22.5918 14.1724 22.4236C14.1199 22.2155 14.1701 22.0271 14.1756 21.8214C14.1829 21.5521 14.1683 21.3086 14.2462 21.0448L14.2459 21.0451Z" fill="#4F382F"/>
<path d="M14.4147 15.6908C14.5381 15.7574 14.7045 15.731 14.8012 15.6299C14.8979 15.5285 14.9167 15.3612 14.8446 15.241C15.159 15.3351 15.5016 15.3333 15.8148 15.2355C15.7014 14.9612 15.4881 14.7294 15.2241 14.5937C15.3448 14.6022 15.4559 14.4994 15.4784 14.3804C15.501 14.2614 15.4474 14.1369 15.3615 14.0519C15.2754 13.9666 15.1608 13.9162 15.0445 13.8828C14.793 13.8107 14.5012 13.8184 14.2952 13.9795C14.0991 14.1331 14.018 14.3986 14.0273 14.6476C14.0376 14.9202 14.1407 15.5437 14.4147 15.6914V15.6908Z" fill="#BA863C"/>
<path d="M14.0482 21.0451C14.1013 20.8658 14.2252 20.6642 14.4119 20.6762C14.5769 20.687 14.68 20.8643 14.7093 21.027C14.8772 20.7662 15.1339 20.5637 15.4267 20.4611C15.4826 20.7471 15.4498 21.0498 15.3344 21.3171C15.4733 21.2532 15.6473 21.2098 15.7707 21.3001C15.8794 21.3795 15.904 21.5339 15.885 21.6672C15.841 21.9746 15.6227 22.2284 15.3839 22.4271C15.1521 22.6199 14.884 22.7822 14.5863 22.8291C14.4869 22.8449 14.3829 22.847 14.2882 22.8124C14.1253 22.7529 14.0169 22.5918 13.9744 22.4236C13.9219 22.2155 13.9721 22.0271 13.9776 21.8214C13.9849 21.5521 13.9703 21.3086 14.0482 21.0448V21.0451Z" fill="#BA863C"/>
<path opacity="0.44" d="M21.0974 20.0553C20.9435 20.1183 20.7797 20.1716 20.6139 20.1579C20.448 20.1441 20.2795 20.0494 20.2224 19.8933C20.1652 19.7371 20.2622 19.5302 20.4275 19.5109C20.1198 19.4197 19.8499 19.2067 19.6899 18.9286C19.9944 18.8509 20.3235 18.8732 20.6148 18.9907C20.4615 18.8562 20.4586 18.596 20.5875 18.4384C20.7164 18.2804 20.9471 18.2265 21.1437 18.2798C21.3406 18.3332 21.5029 18.4797 21.6084 18.6543C21.7851 18.9468 21.81 19.326 21.6732 19.6389C21.5363 19.9522 21.2413 20.1913 20.9063 20.2601C20.865 20.2686 20.8002 20.2449 20.8213 20.2086L21.0971 20.0553H21.0974Z" fill="#4F382F"/>
<path opacity="0.44" d="M20.5814 12.5742C20.4029 12.5961 20.2297 12.66 20.08 12.7597C19.942 12.8514 19.8165 12.9897 19.8113 13.1555C19.806 13.3211 19.9792 13.4878 20.1321 13.424C19.9472 13.705 19.8664 14.0525 19.9077 14.3863C20.262 14.3268 20.5872 14.1123 20.7815 13.8105C20.7578 13.9277 20.8486 14.0484 20.9638 14.0809C21.0789 14.1132 21.2058 14.0701 21.2969 13.9924C21.3881 13.9151 21.4484 13.8073 21.4956 13.6974C21.5847 13.4899 21.6339 13.2657 21.6398 13.0401C21.6427 12.9246 21.6336 12.8051 21.5806 12.7022C21.4775 12.5024 21.2345 12.4148 21.0098 12.406C20.763 12.396 20.5137 12.4608 20.3024 12.5891L20.5814 12.5745V12.5742Z" fill="#4F382F"/>
<path d="M20.6646 12.3825C20.4862 12.4045 20.313 12.4684 20.1632 12.568C20.0252 12.6597 19.8998 12.798 19.8945 12.9639C19.8893 13.1297 20.0624 13.2962 20.2154 13.2323C20.0305 13.5133 19.9493 13.8609 19.9909 14.1946C20.3452 14.1351 20.6705 13.9206 20.8648 13.6188C20.841 13.736 20.9319 13.8568 21.047 13.8893C21.1622 13.9218 21.2891 13.8784 21.3802 13.8008C21.4713 13.7234 21.5314 13.6156 21.5789 13.5057C21.668 13.2982 21.7172 13.0741 21.723 12.8484C21.726 12.733 21.7169 12.6134 21.6639 12.5106C21.5607 12.3107 21.3178 12.2231 21.093 12.2143C20.8463 12.2044 20.5969 12.2691 20.3856 12.3975L20.6646 12.3828V12.3825Z" fill="#BA863C"/>
<path d="M21.1806 19.9729C21.0268 20.0359 20.863 20.0892 20.6971 20.0755C20.5313 20.0617 20.3628 19.9671 20.3056 19.8109C20.2485 19.6547 20.3455 19.4478 20.5108 19.4285C20.2031 19.3373 19.9332 19.1243 19.7732 18.8462C20.0777 18.7686 20.4067 18.7908 20.698 18.9083C20.5447 18.7738 20.5418 18.5136 20.6708 18.356C20.7997 18.198 21.0303 18.1441 21.2269 18.1974C21.4238 18.2508 21.5862 18.3973 21.6917 18.5719C21.8684 18.8644 21.8933 19.2436 21.7564 19.5565C21.6196 19.8698 21.3245 20.1089 20.9896 20.1777C20.9483 20.1862 20.8835 20.1628 20.9046 20.1262L21.1803 19.9729H21.1806Z" fill="#BA863C"/>
<path opacity="0.44" d="M2.63172 17.2222C2.76593 17.3189 2.78585 17.3822 2.82863 17.5422C3.11932 17.3517 3.35844 17.289 3.70509 17.263C3.68136 17.5372 3.5744 17.8268 3.3766 18.0263C3.52576 18.0196 3.57587 17.9917 3.70158 18.0726C3.85102 18.1687 3.90934 18.3583 3.92692 18.5353C3.95212 18.7885 3.90992 19.0604 3.74876 19.2573C3.72502 19.2863 3.69689 19.3145 3.66085 19.3233C3.63594 19.3294 3.60986 19.3256 3.58436 19.3215C3.09236 19.2447 2.60798 19.1193 2.1403 18.9479C2.05444 18.9162 1.96448 18.8799 1.90998 18.8064C1.8584 18.7366 1.84786 18.6461 1.83906 18.5599C1.80712 18.2493 1.71277 17.7614 1.89445 17.4807C2.04184 17.2527 2.37531 17.0373 2.63201 17.2222H2.63172Z" fill="#4F382F"/>
<path opacity="0.44" d="M10.8213 21.3001C10.6748 21.032 10.6153 20.717 10.654 20.4137C10.9878 20.353 11.3485 20.4708 11.5823 20.7161C11.5659 20.4506 11.8481 20.2115 12.1075 20.271C12.3896 20.3357 12.5282 20.6528 12.5901 20.9358C12.6578 21.245 12.685 21.5618 12.7032 21.8779C12.7134 22.0546 12.7193 22.2384 12.6501 22.401C12.3937 23.0041 11.5829 22.8312 11.1821 22.5006C10.9324 22.2946 10.2698 21.526 10.8213 21.3001Z" fill="#4F382F"/>
<path opacity="0.44" d="M10.9423 14.3608C10.8239 14.592 10.9297 14.9258 11.1773 15.0043C10.9362 15.1581 10.7375 15.3779 10.6091 15.6337C10.9244 15.6818 11.2547 15.627 11.5377 15.4793C11.5401 15.6955 11.6849 15.9036 11.8868 15.9813C12.0887 16.0589 12.3354 16.0012 12.4819 15.8421C12.6026 15.7111 12.6516 15.5306 12.6891 15.3562C12.7635 15.011 12.801 14.6187 12.5927 14.3332C12.2841 13.9104 11.2019 13.853 10.942 14.3608H10.9423Z" fill="#4F382F"/>
<path opacity="0.44" d="M2.61726 13.5814C2.80011 13.569 2.96303 13.4146 2.9853 13.2326C3.15497 13.4102 3.34779 13.5658 3.5573 13.6942C3.54675 13.4636 3.50397 13.2341 3.43042 13.0152C3.67188 12.9809 3.85561 12.7198 3.80579 12.481C3.8014 12.4605 3.79525 12.4394 3.7803 12.4248C3.76477 12.4095 3.74221 12.4039 3.72111 12.399C3.21358 12.2806 2.70605 12.1619 2.19822 12.0435C2.1698 12.4224 1.93801 13.6274 2.61726 13.5814Z" fill="#4F382F"/>
<path d="M2.51245 17.2222C2.64666 17.3189 2.66659 17.3822 2.70937 17.5422C3.00006 17.3517 3.23917 17.289 3.58583 17.263C3.5621 17.5372 3.45514 17.8268 3.25734 18.0263C3.4065 18.0196 3.4566 17.9917 3.58232 18.0726C3.73176 18.1687 3.79008 18.3583 3.80766 18.5353C3.83286 18.7885 3.79066 19.0604 3.62949 19.2573C3.60576 19.2863 3.57763 19.3145 3.54158 19.3233C3.51668 19.3294 3.4906 19.3256 3.4651 19.3215C2.9731 19.2447 2.48872 19.1193 2.02104 18.9479C1.93518 18.9162 1.84522 18.8799 1.79072 18.8064C1.73914 18.7366 1.72859 18.6461 1.7198 18.5599C1.68786 18.2493 1.5935 17.7614 1.77518 17.4807C1.92258 17.2527 2.25605 17.0373 2.51275 17.2222H2.51245Z" fill="#C9943F"/>
<path d="M10.9942 21.3001C10.8477 21.032 10.7882 20.717 10.8269 20.4137C11.1606 20.353 11.5214 20.4708 11.7552 20.7161C11.7388 20.4506 12.021 20.2115 12.2803 20.271C12.5625 20.3357 12.7011 20.6528 12.7629 20.9358C12.8306 21.245 12.8579 21.5618 12.876 21.8779C12.886 22.0546 12.8922 22.2384 12.823 22.401C12.5666 23.0041 11.7558 22.8312 11.3549 22.5006C11.1052 22.2946 10.4427 21.526 10.9942 21.3001Z" fill="#C9943F"/>
<path d="M11.0212 14.2026C10.9028 14.4338 11.0086 14.7676 11.2562 14.8461C11.015 14.9999 10.8163 15.22 10.688 15.4755C11.0033 15.5236 11.3335 15.4688 11.6166 15.3211C11.619 15.5373 11.7637 15.7454 11.9656 15.8231C12.1675 15.9007 12.4142 15.843 12.5608 15.6839C12.6815 15.5529 12.7304 15.3724 12.7679 15.198C12.8424 14.8528 12.8799 14.4605 12.6715 14.175C12.363 13.7522 11.2808 13.6948 11.0209 14.2026H11.0212Z" fill="#C9943F"/>
<path d="M2.45698 13.3193C2.63983 13.307 2.80276 13.1526 2.82503 12.9706C2.99469 13.1482 3.18751 13.3038 3.39703 13.4321C3.38648 13.2015 3.34369 12.9721 3.27014 12.7532C3.5116 12.7189 3.69533 12.4578 3.64552 12.219C3.64112 12.1985 3.63497 12.1774 3.62002 12.1627C3.60449 12.1475 3.58193 12.1419 3.56083 12.1369C3.0533 12.0186 2.54577 11.8999 2.03794 11.7815C2.00952 12.1604 1.77773 13.3653 2.45698 13.3193Z" fill="#C9943F"/>
<path d="M22.1871 11.5908L13.4621 13.3955L13.4246 24.5L22.4042 20.5016L22.1874 11.5908H22.1871ZM21.5814 19.953L14.3611 23.0149V14.2409L21.4006 12.5255L21.5814 19.953Z" fill="#C6923E"/>
<path d="M2.0477 18.3495L12.4418 22.5068V23.0149L1.73767 18.5594L2.0477 18.3495Z" fill="#FFCE55"/>
<path d="M21.5815 19.953L21.4007 12.5255L21.1165 12.5947L21.3491 19.7786L21.5815 19.953Z" fill="#E5AC45"/>
<path d="M14.3611 22.544L21.349 19.7787L21.5814 19.953L14.3611 23.0149V22.544Z" fill="#FFCE55"/>
<path opacity="0.44" d="M5.82455 14.7778C5.61854 15.0283 5.09519 15.1215 4.81915 14.9512C4.81124 15.2736 5.0609 15.6349 5.31643 15.8318C5.46382 15.9455 5.73869 15.9909 5.923 16.0146C6.10762 16.0387 6.31069 15.9792 6.42263 15.8303C6.33472 16.1767 6.40563 16.5477 6.55009 16.8744C6.69485 17.2011 6.76342 17.5803 6.97646 17.8672C7.55256 17.5689 7.48194 16.9099 7.35535 16.2734C7.46465 16.599 7.85995 16.7162 8.20162 16.7513C8.5433 16.7865 8.89758 16.6063 9.07076 16.31C8.75194 16.1606 8.4085 15.9874 8.26052 15.668C8.1606 15.452 8.16763 15.2041 8.17672 14.9662C8.19635 14.4499 8.26931 13.8154 8.28895 13.2991C8.29071 13.2528 6.93836 13.0673 6.77016 13.0342C6.61632 13.0037 6.03494 12.8018 5.9359 12.9314C5.8433 13.0524 6.03055 14.5272 5.82455 14.7778Z" fill="#4F382F"/>
<path d="M5.66481 14.5275C5.44708 14.7681 5.05501 14.8672 4.78718 14.6843C4.76403 15.0058 4.97061 15.3023 5.21647 15.5112C5.35829 15.6317 5.52151 15.7354 5.70466 15.7682C5.8878 15.801 6.09381 15.7509 6.21248 15.6079C6.10846 15.9496 6.1615 16.3238 6.29043 16.657C6.41936 16.9902 6.62009 17.2897 6.81935 17.5865C7.40893 17.316 7.30989 16.6324 7.21377 15.9906C7.30755 16.3209 7.60585 16.5834 7.94548 16.6347C8.2851 16.686 8.64758 16.5231 8.83454 16.235C8.52304 16.0706 8.1884 15.8813 8.05566 15.5552C7.96599 15.3348 7.98474 15.0872 8.00526 14.8502C8.0495 14.3353 8.09346 13.8204 8.13771 13.3056C8.14151 13.2593 6.85862 12.8725 6.69218 12.8312C6.54009 12.7934 5.96897 12.5642 5.86378 12.6888C5.76561 12.8054 5.88282 14.2872 5.6651 14.5278L5.66481 14.5275Z" fill="#E5AC45"/>
<path opacity="0.44" d="M2.49741 18.5219V12.3157L12.4418 15.1373V14.3095L2.04761 11.7871V18.3496L2.49741 18.5219Z" fill="#4F382F"/>
<path opacity="0.44" d="M2.88713 12.5454C2.88713 12.6624 2.81095 12.757 2.71688 12.757C2.62282 12.757 2.54663 12.6624 2.54663 12.5454C2.54663 12.4285 2.62282 12.3339 2.71688 12.3339C2.81095 12.3339 2.88713 12.4285 2.88713 12.5454Z" fill="#4F382F"/>
<path d="M2.8239 12.5109C2.8239 12.6278 2.74771 12.7225 2.65365 12.7225C2.55959 12.7225 2.4834 12.6278 2.4834 12.5109C2.4834 12.394 2.55959 12.2993 2.65365 12.2993C2.74771 12.2993 2.8239 12.394 2.8239 12.5109Z" fill="#FFCE55"/>
<path d="M2.54716 12.4215C2.53602 12.4417 2.5284 12.4651 2.53104 12.4883C2.53368 12.5114 2.54774 12.534 2.56943 12.5425C2.575 12.5448 2.58115 12.546 2.58701 12.5451C2.60401 12.5425 2.6128 12.5243 2.62305 12.5105C2.63536 12.4938 2.65294 12.481 2.67287 12.4742C2.68488 12.4704 2.69807 12.4684 2.70715 12.4596C2.71536 12.4514 2.718 12.4388 2.71624 12.4273C2.71448 12.4159 2.70862 12.4053 2.70217 12.3957C2.6588 12.3324 2.57851 12.3649 2.54716 12.4215Z" fill="white"/>
<path opacity="0.44" d="M3.01726 18.0628C3.01726 18.1797 2.94107 18.2743 2.84701 18.2743C2.75295 18.2743 2.67676 18.1797 2.67676 18.0628C2.67676 17.9458 2.75295 17.8512 2.84701 17.8512C2.94107 17.8512 3.01726 17.9458 3.01726 18.0628Z" fill="#4F382F"/>
<path d="M2.95403 18.0281C2.95403 18.145 2.87784 18.2397 2.78378 18.2397C2.68971 18.2397 2.61353 18.145 2.61353 18.0281C2.61353 17.9112 2.68971 17.8165 2.78378 17.8165C2.87784 17.8165 2.95403 17.9112 2.95403 18.0281Z" fill="#FFCE55"/>
<path d="M2.67741 17.9388C2.66627 17.959 2.65865 17.9825 2.66129 18.0056C2.66393 18.0288 2.67799 18.0513 2.69968 18.0598C2.70525 18.0622 2.7114 18.0633 2.71726 18.0625C2.73426 18.0598 2.74305 18.0417 2.7533 18.0279C2.76561 18.0112 2.78319 17.9983 2.80312 17.9918C2.81513 17.988 2.82832 17.986 2.8374 17.9772C2.84561 17.969 2.84824 17.9564 2.84649 17.945C2.84473 17.9335 2.83887 17.923 2.83242 17.9133C2.78905 17.85 2.70876 17.8825 2.67741 17.9391V17.9388Z" fill="white"/>
<path opacity="0.44" d="M11.9828 21.5574C11.9828 21.7332 11.8679 21.8759 11.7264 21.8759C11.5848 21.8759 11.47 21.7332 11.47 21.5574C11.47 21.3816 11.5848 21.2389 11.7264 21.2389C11.8679 21.2389 11.9828 21.3813 11.9828 21.5574Z" fill="#4F382F"/>
<path d="M11.8877 21.5058C11.8877 21.6816 11.7728 21.824 11.6313 21.824C11.4897 21.824 11.3749 21.6816 11.3749 21.5058C11.3749 21.33 11.4897 21.1873 11.6313 21.1873C11.7728 21.1873 11.8877 21.33 11.8877 21.5058Z" fill="#FFCE55"/>
<path d="M11.4714 21.371C11.4544 21.4015 11.4433 21.4367 11.4474 21.4716C11.4512 21.5064 11.4723 21.5404 11.5048 21.5533C11.513 21.5565 11.5224 21.5586 11.5312 21.5571C11.5567 21.5533 11.5702 21.5261 11.5854 21.505C11.6039 21.4795 11.6305 21.4604 11.6604 21.4505C11.6783 21.4446 11.6985 21.4414 11.712 21.4282C11.7243 21.4159 11.7284 21.3968 11.7258 21.3795C11.7231 21.3623 11.7143 21.3464 11.7047 21.3321C11.6393 21.2368 11.5186 21.2858 11.4714 21.371Z" fill="white"/>
<path opacity="0.44" d="M12.2211 14.9393C12.2211 15.1151 12.1062 15.2578 11.9647 15.2578C11.8231 15.2578 11.7083 15.1151 11.7083 14.9393C11.7083 14.7634 11.8231 14.6207 11.9647 14.6207C12.1062 14.6207 12.2211 14.7631 12.2211 14.9393Z" fill="#4F382F"/>
<path d="M12.1262 14.8874C12.1262 15.0632 12.0113 15.2059 11.8698 15.2059C11.7283 15.2059 11.6134 15.0635 11.6134 14.8874C11.6134 14.7113 11.7283 14.5688 11.8698 14.5688C12.0113 14.5688 12.1262 14.7116 12.1262 14.8874Z" fill="#FFCE55"/>
<path d="M11.7097 14.7529C11.6927 14.7836 11.6816 14.8185 11.6857 14.8534C11.6895 14.8883 11.7106 14.9223 11.7431 14.9351C11.7513 14.9384 11.7607 14.9404 11.7695 14.939C11.795 14.9351 11.8084 14.9079 11.8237 14.8868C11.8421 14.8616 11.8688 14.8423 11.8987 14.8323C11.9166 14.8264 11.9368 14.8232 11.9503 14.81C11.9626 14.7977 11.9667 14.7787 11.964 14.7614C11.9614 14.7441 11.9526 14.7283 11.9429 14.7139C11.8776 14.6187 11.7569 14.6676 11.7097 14.7529Z" fill="white"/>
<path opacity="0.44" d="M14.8624 15.0064C15.004 15.0064 15.1188 14.8638 15.1188 14.6879C15.1188 14.512 15.004 14.3694 14.8624 14.3694C14.7208 14.3694 14.606 14.512 14.606 14.6879C14.606 14.8638 14.7208 15.0064 14.8624 15.0064Z" fill="#4F382F"/>
<path d="M15.0234 14.636C15.0234 14.8118 14.9086 14.9545 14.767 14.9545C14.6255 14.9545 14.5106 14.8118 14.5106 14.636C14.5106 14.4602 14.6255 14.3174 14.767 14.3174C14.9086 14.3174 15.0234 14.4599 15.0234 14.636Z" fill="#E5AC45"/>
<path d="M14.6072 14.5015C14.5902 14.532 14.579 14.5671 14.5831 14.602C14.5869 14.6369 14.608 14.6708 14.6406 14.6837C14.6491 14.687 14.6581 14.689 14.6669 14.6876C14.6924 14.6837 14.7059 14.6565 14.7211 14.6354C14.7396 14.6102 14.7663 14.5909 14.7962 14.5809C14.814 14.575 14.8343 14.5718 14.8477 14.5586C14.86 14.5463 14.8641 14.5273 14.8615 14.51C14.8589 14.4927 14.8501 14.4769 14.8404 14.4625C14.7751 14.3673 14.6543 14.4162 14.6072 14.5015Z" fill="#FFCE55"/>
<path opacity="0.44" d="M14.9683 21.9953C15.1099 21.9953 15.2247 21.8527 15.2247 21.6768C15.2247 21.5009 15.1099 21.3583 14.9683 21.3583C14.8267 21.3583 14.7119 21.5009 14.7119 21.6768C14.7119 21.8527 14.8267 21.9953 14.9683 21.9953Z" fill="#4F382F"/>
<path d="M14.8731 21.9436C15.0147 21.9436 15.1295 21.801 15.1295 21.625C15.1295 21.4491 15.0147 21.3065 14.8731 21.3065C14.7315 21.3065 14.6167 21.4491 14.6167 21.625C14.6167 21.801 14.7315 21.9436 14.8731 21.9436Z" fill="#E5AC45"/>
<path d="M14.7134 21.4904C14.6964 21.5209 14.6852 21.5561 14.6893 21.5909C14.6931 21.6258 14.7142 21.6598 14.7468 21.6727C14.755 21.6759 14.7643 21.678 14.7731 21.6765C14.7986 21.6727 14.8121 21.6452 14.8273 21.6243C14.8458 21.5989 14.8725 21.5798 14.9024 21.5698C14.9202 21.564 14.9405 21.5608 14.9539 21.5476C14.9662 21.5353 14.9703 21.5162 14.9677 21.4989C14.9651 21.4816 14.9563 21.4658 14.9466 21.4515C14.8813 21.3562 14.7605 21.4052 14.7134 21.4904Z" fill="#FFCE55"/>
<path opacity="0.44" d="M20.9544 13.228C20.9544 13.3907 20.8483 13.5225 20.7173 13.5225C20.5863 13.5225 20.4802 13.3907 20.4802 13.228C20.4802 13.0654 20.5863 12.9335 20.7173 12.9335C20.8483 12.9335 20.9544 13.0654 20.9544 13.228Z" fill="#4F382F"/>
<path d="M20.8662 13.1799C20.8662 13.3425 20.7601 13.4744 20.6292 13.4744C20.4982 13.4744 20.3921 13.3425 20.3921 13.1799C20.3921 13.0172 20.4982 12.8854 20.6292 12.8854C20.7601 12.8854 20.8662 13.0172 20.8662 13.1799Z" fill="#E5AC45"/>
<path d="M20.4814 13.0554C20.4655 13.0838 20.4556 13.1161 20.4591 13.1483C20.4626 13.1805 20.4822 13.2119 20.5124 13.2239C20.52 13.2268 20.5285 13.2286 20.5367 13.2274C20.5605 13.2239 20.5728 13.1987 20.5868 13.1794C20.6038 13.1559 20.6285 13.1381 20.6563 13.129C20.673 13.1234 20.6915 13.1208 20.7041 13.1085C20.7155 13.097 20.7193 13.0795 20.7167 13.0636C20.7143 13.0478 20.7061 13.0332 20.697 13.0197C20.6367 12.9315 20.525 12.9769 20.4814 13.0557V13.0554Z" fill="#FFCE55"/>
<path opacity="0.44" d="M21.2136 19.3505C21.2136 19.5132 21.1076 19.645 20.9766 19.645C20.8456 19.645 20.7395 19.5132 20.7395 19.3505C20.7395 19.1879 20.8456 19.056 20.9766 19.056C21.1076 19.056 21.2136 19.1879 21.2136 19.3505Z" fill="#4F382F"/>
<path d="M21.1261 19.3028C21.1261 19.4654 21.02 19.5973 20.889 19.5973C20.7581 19.5973 20.652 19.4654 20.652 19.3028C20.652 19.1402 20.7581 19.0083 20.889 19.0083C21.02 19.0083 21.1261 19.1402 21.1261 19.3028Z" fill="#E5AC45"/>
<path d="M20.741 19.1782C20.7254 19.2066 20.7152 19.2389 20.7187 19.2711C20.7222 19.3033 20.7419 19.3347 20.772 19.3467C20.7797 19.3496 20.7882 19.3514 20.7964 19.3502C20.8201 19.3467 20.8324 19.3215 20.8465 19.3022C20.8635 19.2787 20.8881 19.2609 20.9159 19.2518C20.9326 19.2462 20.9511 19.2436 20.9634 19.2313C20.9748 19.2198 20.9786 19.2023 20.9763 19.1864C20.9739 19.1706 20.9657 19.156 20.9567 19.1425C20.8963 19.0543 20.7846 19.0997 20.741 19.1785V19.1782Z" fill="#FFCE55"/>
<path opacity="0.44" d="M6.83574 16.3138C6.83574 16.5813 7.12994 16.7985 6.91456 16.7985C6.69918 16.7985 6.52454 16.5816 6.52454 16.3138C6.52454 16.0459 6.69918 15.8291 6.91456 15.8291C7.12994 15.8291 6.83574 16.0459 6.83574 16.3138Z" fill="#4F382F"/>
<path d="M7.16018 16.2344C7.16018 16.502 6.98553 16.7191 6.77015 16.7191C6.55477 16.7191 6.38013 16.5023 6.38013 16.2344C6.38013 15.9666 6.55477 15.7498 6.77015 15.7498C6.98553 15.7498 7.16018 15.9666 7.16018 16.2344Z" fill="#FFCE55"/>
<path d="M6.52642 16.0298C6.50063 16.0764 6.48363 16.1298 6.48979 16.1828C6.49565 16.2358 6.52788 16.2877 6.5774 16.3073C6.59 16.3123 6.60407 16.3153 6.61755 16.3132C6.65652 16.3071 6.67704 16.2657 6.70019 16.2341C6.72832 16.1954 6.76875 16.1661 6.81417 16.1512C6.84143 16.1421 6.8722 16.1374 6.89271 16.1172C6.91175 16.0984 6.91791 16.0694 6.91381 16.0433C6.9097 16.0169 6.89652 15.9929 6.88157 15.9709C6.78223 15.8259 6.5985 15.9006 6.52671 16.0301L6.52642 16.0298Z" fill="white"/>
<path opacity="0.44" d="M14.3611 13.9389C14.3611 14.1493 14.2239 14.3198 14.0546 14.3198C13.8852 14.3198 13.748 14.1493 13.748 13.9389C13.748 13.7285 13.8852 13.5579 14.0546 13.5579C14.2239 13.5579 14.3611 13.7285 14.3611 13.9389Z" fill="#4F382F"/>
<path d="M14.2474 13.877C14.2474 14.0874 14.1103 14.258 13.9409 14.258C13.7715 14.258 13.6344 14.0874 13.6344 13.877C13.6344 13.6666 13.7715 13.4961 13.9409 13.4961C14.1103 13.4961 14.2474 13.6666 14.2474 13.877Z" fill="#FFCE55"/>
<path d="M13.7491 13.7158C13.7289 13.7525 13.7157 13.7944 13.7204 13.836C13.7251 13.8776 13.7503 13.9183 13.7893 13.9338C13.7993 13.9377 13.8101 13.94 13.8209 13.9385C13.8514 13.9339 13.8675 13.9013 13.8857 13.8764C13.908 13.8462 13.9396 13.8231 13.9754 13.8114C13.9968 13.8043 14.0208 13.8005 14.0369 13.7847C14.0518 13.77 14.0565 13.7472 14.0533 13.7267C14.0501 13.7059 14.0398 13.6871 14.0281 13.6698C13.9502 13.5558 13.8057 13.6144 13.7491 13.7164V13.7158Z" fill="white"/>
<path opacity="0.44" d="M13.9967 23.7991C14.166 23.7991 14.3032 23.6286 14.3032 23.4182C14.3032 23.2078 14.166 23.0372 13.9967 23.0372C13.8274 23.0372 13.6902 23.2078 13.6902 23.4182C13.6902 23.6286 13.8274 23.7991 13.9967 23.7991Z" fill="#4F382F"/>
<path d="M13.8832 23.7372C14.0525 23.7372 14.1897 23.5667 14.1897 23.3563C14.1897 23.1459 14.0525 22.9753 13.8832 22.9753C13.7139 22.9753 13.5767 23.1459 13.5767 23.3563C13.5767 23.5667 13.7139 23.7372 13.8832 23.7372Z" fill="#FFCE55"/>
<path d="M13.6913 23.1949C13.6711 23.2315 13.6579 23.2734 13.6626 23.315C13.6673 23.3567 13.6925 23.3974 13.7314 23.4129C13.7414 23.4167 13.7522 23.4191 13.7631 23.4176C13.7936 23.4129 13.8097 23.3804 13.8278 23.3555C13.8501 23.3253 13.8818 23.3021 13.9175 23.2904C13.9389 23.2834 13.9629 23.2796 13.979 23.2638C13.994 23.2491 13.9987 23.2263 13.9955 23.2057C13.9922 23.1849 13.982 23.1662 13.9703 23.1489C13.8923 23.0349 13.7478 23.0935 13.6913 23.1955V23.1949Z" fill="white"/>
<path opacity="0.44" d="M22.0627 20.367C22.1996 20.367 22.3106 20.2291 22.3106 20.059C22.3106 19.8889 22.1996 19.751 22.0627 19.751C21.9258 19.751 21.8148 19.8889 21.8148 20.059C21.8148 20.2291 21.9258 20.367 22.0627 20.367Z" fill="#4F382F"/>
<path d="M22.2191 20.009C22.2191 20.1793 22.108 20.317 21.9712 20.317C21.8343 20.317 21.7233 20.179 21.7233 20.009C21.7233 19.8391 21.8343 19.701 21.9712 19.701C22.108 19.701 22.2191 19.8391 22.2191 20.009Z" fill="#FFCE55"/>
<path d="M21.8161 19.8785C21.7997 19.9081 21.7888 19.9421 21.7926 19.9758C21.7964 20.0095 21.817 20.0423 21.8483 20.0549C21.8565 20.0581 21.8653 20.0599 21.8738 20.0587C21.8984 20.0549 21.9116 20.0285 21.9263 20.0083C21.9441 19.9837 21.9699 19.9652 21.9989 19.9555C22.0162 19.9497 22.0359 19.9468 22.0487 19.9339C22.0608 19.9218 22.0646 19.9037 22.0622 19.887C22.0596 19.8703 22.0514 19.855 22.0417 19.841C21.9787 19.7487 21.8618 19.7961 21.8161 19.8785Z" fill="white"/>
<path opacity="0.44" d="M21.8609 12.4532C21.9979 12.4532 22.1088 12.3153 22.1088 12.1452C22.1088 11.9751 21.9979 11.8372 21.8609 11.8372C21.724 11.8372 21.613 11.9751 21.613 12.1452C21.613 12.3153 21.724 12.4532 21.8609 12.4532Z" fill="#4F382F"/>
<path d="M21.769 12.4033C21.9059 12.4033 22.0169 12.2654 22.0169 12.0953C22.0169 11.9252 21.9059 11.7874 21.769 11.7874C21.6321 11.7874 21.5211 11.9252 21.5211 12.0953C21.5211 12.2654 21.6321 12.4033 21.769 12.4033Z" fill="#FFCE55"/>
<path d="M21.6142 11.9647C21.5978 11.9943 21.5869 12.0283 21.5907 12.062C21.5945 12.0957 21.6151 12.1285 21.6464 12.1411C21.6546 12.1444 21.6634 12.1461 21.6719 12.1449C21.6965 12.1411 21.7097 12.1148 21.7244 12.0945C21.7422 12.0699 21.768 12.0515 21.797 12.0418C21.8143 12.0362 21.8339 12.033 21.8468 12.0201C21.8589 12.0081 21.8627 11.9899 21.8603 11.9732C21.8577 11.9565 21.8495 11.9413 21.8398 11.9272C21.7768 11.8349 21.6599 11.8824 21.6142 11.9647Z" fill="white"/>
<path opacity="0.44" d="M14.3611 15.0432L20.8016 13.2868L20.9329 19.953L21.349 19.7786L21.1164 12.5947L14.3611 14.2409V15.0432Z" fill="#4F382F"/>
<path d="M0.983643 10.6536L2.48338 10.7418L13.4618 13.0026L20.933 11.5907H22.1872L13.4618 13.3955L0.983643 10.6536Z" fill="#FFCE55"/>
<path d="M0.983643 10.6536L1.13074 19.1061L13.4243 24.5L13.57 13.4184L0.983643 10.6536ZM12.4418 23.0149L1.73761 18.5593V11.7153L12.4418 14.3095V23.0149Z" fill="#E5AC45"/>
<path opacity="0.44" d="M13.1688 13.9699C13.1688 14.1803 13.0317 14.3508 12.8623 14.3508C12.6929 14.3508 12.5558 14.1803 12.5558 13.9699C12.5558 13.7595 12.6929 13.5889 12.8623 13.5889C13.0317 13.5889 13.1688 13.7595 13.1688 13.9699Z" fill="#4F382F"/>
<path d="M13.0552 13.9078C13.0552 14.1182 12.918 14.2887 12.7486 14.2887C12.5793 14.2887 12.4421 14.1182 12.4421 13.9078C12.4421 13.6974 12.5793 13.5269 12.7486 13.5269C12.918 13.5269 13.0552 13.6974 13.0552 13.9078Z" fill="#FFCE55"/>
<path d="M12.5569 13.7469C12.5367 13.7835 12.5235 13.8254 12.5282 13.867C12.5329 13.9087 12.5581 13.9494 12.597 13.9649C12.607 13.9687 12.6178 13.9711 12.6287 13.9696C12.6592 13.9649 12.6753 13.9324 12.6937 13.9072C12.716 13.877 12.7477 13.8539 12.7834 13.8421C12.8048 13.8351 12.8288 13.8313 12.8449 13.8155C12.8599 13.8008 12.8646 13.778 12.8613 13.7575C12.8581 13.7366 12.8479 13.7179 12.8361 13.7006C12.7582 13.5866 12.6137 13.6452 12.5572 13.7469H12.5569Z" fill="white"/>
<path opacity="0.44" d="M13.256 23.3925C13.256 23.6029 13.1188 23.7734 12.9495 23.7734C12.7801 23.7734 12.6429 23.6029 12.6429 23.3925C12.6429 23.1821 12.7801 23.0115 12.9495 23.0115C13.1188 23.0115 13.256 23.1821 13.256 23.3925Z" fill="#4F382F"/>
<path d="M13.1424 23.3305C13.1424 23.5409 13.0053 23.7115 12.8359 23.7115C12.6666 23.7115 12.5294 23.5409 12.5294 23.3305C12.5294 23.1201 12.6666 22.9496 12.8359 22.9496C13.0053 22.9496 13.1424 23.1201 13.1424 23.3305Z" fill="#FFCE55"/>
<path d="M12.6442 23.1692C12.6239 23.2058 12.6108 23.2477 12.6155 23.2893C12.6201 23.3309 12.6453 23.3717 12.6843 23.3872C12.6943 23.391 12.7051 23.3934 12.7157 23.3919C12.7461 23.3872 12.7623 23.3547 12.7807 23.3295C12.803 23.2993 12.8346 23.2761 12.8704 23.2644C12.8918 23.2574 12.9158 23.2536 12.9319 23.2378C12.9469 23.2231 12.9516 23.2003 12.9483 23.1797C12.9451 23.1589 12.9349 23.1402 12.9231 23.1229C12.8452 23.0089 12.7007 23.0675 12.6442 23.1695V23.1692Z" fill="white"/>
<path d="M1.73767 11.7153L2.0477 11.7871V18.3495L1.73767 18.5593V11.7153Z" fill="#C6923E"/>
<path d="M5.70972 12.4264V12.8197C5.70972 12.8197 5.91132 13.1165 6.28758 13.1936C6.66354 13.2707 6.86426 13.3272 7.26953 13.1936C7.6745 13.06 7.87728 12.8862 7.87728 12.8862L7.91039 12.5L6.75057 12.7329L6.84551 12.4642L6.83818 12.0399L6.38398 12.095L5.70972 12.4264Z" fill="#C9943F"/>
<path d="M6.34611 11.9155C6.34611 11.9155 5.70994 12.1971 5.70935 12.4265C5.70876 12.7339 6.62449 12.9153 7.14433 12.8584C7.66417 12.8016 7.90973 12.5001 7.90973 12.5001L7.35648 12.3169C7.35648 12.3169 7.3893 12.5273 6.92485 12.4743C6.46039 12.4212 6.32765 12.3477 6.43197 12.234C6.53629 12.1203 6.83753 12.0403 6.83753 12.0403L6.34582 11.9158L6.34611 11.9155Z" fill="#FFCE55"/>
</svg>
