<svg width="350" height="82" viewBox="0 0 350 82" fill="none" xmlns="http://www.w3.org/2000/svg">
<g clip-path="url(#clip0_1265_6889)">
<path d="M290.441 68.9979C290.441 68.9979 284.836 63.2672 295.735 59.2732C306.63 55.2791 313.023 56.4673 313.237 51.6018C313.451 46.7362 309.19 31.6826 321.118 27.2102C333.046 22.7358 343.945 23.7434 350 25.4268V69H290.446L290.441 68.9979Z" fill="#9BE7DE"/>
<path d="M24.5889 64.0886C24.321 64.1644 24.0532 64.2453 23.7853 64.3211C23.3152 64.4576 23.1131 63.7247 23.5831 63.5882C23.851 63.5124 24.1189 63.4315 24.3867 63.3557C24.8568 63.2193 25.059 63.9521 24.5889 64.0886Z" fill="#E996AA"/>
<path d="M18.691 66.3428C18.4989 66.459 18.3069 66.5753 18.1148 66.6865C17.6953 66.9392 17.3162 66.2821 17.7307 66.0294C17.9227 65.9132 18.1148 65.7969 18.3069 65.6857C18.7264 65.433 19.1054 66.0901 18.691 66.3428Z" fill="#E996AA"/>
<path d="M555 69H-195V193.58H555V69Z" fill="#D4DFF8"/>
<path d="M212.251 42.9525L207.032 33.5C207.032 33.5 204.597 36.5705 202.719 39.7213L209.552 47.0677C211.107 44.7808 212.251 42.9525 212.251 42.9525Z" fill="#141416"/>
<path d="M194.951 60.0231C193.866 57.8634 192.942 55.62 192.127 53.2861C187.202 55.332 184.301 58.9382 181.932 61.1984C181.199 61.8982 180.381 62.598 179.574 63.2543C180.333 64.8013 181.012 66.3583 181.774 67.8718C183.916 66.3918 189.905 62.9228 194.955 60.0231H194.951Z" fill="#FF80A9"/>
<path d="M181.774 67.8675C181.011 66.354 180.332 64.797 179.573 63.25C177.248 65.1318 175 66.6252 175 66.6252C175.07 71.2929 180.384 77.9997 180.384 77.9997C180.384 77.9997 181.158 76.8947 181.066 74.8589C180.974 72.8231 179.577 69.8497 181.066 68.4099C181.194 68.286 181.44 68.1018 181.774 67.8675Z" fill="#141416"/>
<path d="M202.722 39.7177C201.948 41.0202 201.266 42.3362 200.895 43.4512C199.627 47.2717 199.627 51.3065 195.38 52.2474C194.202 52.5086 193.128 52.8635 192.127 53.2787C192.941 55.6126 193.869 57.856 194.951 60.0157C198.328 58.077 201.281 56.3927 202.384 55.7331C204.167 54.665 207.295 50.379 209.554 47.0608L202.722 39.7144V39.7177Z" fill="#FEBBBA"/>
<path d="M214.797 20.521C214.797 20.521 218.637 19.6404 218.593 17.3534C218.549 15.0665 213.326 15.8868 209.809 16.8847C206.292 17.8825 201.059 20.2565 200.901 21.4017C200.743 22.5502 208.474 28.7548 211.107 30.593C213.741 32.4313 213.931 32.4916 214.456 31.544C214.98 30.5964 213.939 29.9602 213.711 29.7995C213.484 29.6387 214.023 29.632 214.016 29.2637C214.008 28.8954 213.374 28.5371 213.106 28.6242C212.838 28.7112 212.285 29.0494 212.285 29.0494C212.285 29.0494 207.11 23.1094 207.458 22.6272C207.807 22.145 214.793 20.521 214.793 20.521H214.797Z" fill="#FEBBBA"/>
<path d="M208.672 29.5649C208.672 29.5649 205.738 33.9379 207.124 38.4348C208.51 42.9317 217.594 44.6193 217.594 44.6193L223.547 36.4827L217.209 29.9298L208.675 29.5615L208.672 29.5649Z" fill="#141416"/>
<path d="M213.634 14.7432L212.812 15.1684C211.235 16.7589 211.485 16.9129 211.235 20.3049C210.986 23.6968 208.661 29.5732 208.661 29.5732L216.216 30.4539C216.216 30.4539 220.532 24.42 221.53 21.6141C221.852 20.7067 221.662 19.816 221.24 18.9956C221.086 19.0894 220.914 19.1664 220.708 19.2133C217.422 20.0303 214.866 17.5156 213.634 14.7465V14.7432Z" fill="#4874D7"/>
<path d="M222.526 7.87023C222.068 7.54544 222.196 7.13023 221.004 5.27522C219.812 3.4202 216.768 4.32427 216.768 4.32427L216.108 7.60906C216.108 7.60906 215.98 6.97286 214.817 7.95729C213.655 8.94172 214.902 10.5088 214.902 10.5088L214.154 14.4733L213.647 14.7345C214.88 17.5036 217.436 20.0182 220.722 19.2012C220.927 19.1544 221.103 19.0773 221.254 18.9836C220.37 17.2659 218.477 15.8495 218.14 15.2334C217.641 14.3226 218.646 11.6908 218.646 11.6908C218.646 11.6908 219.713 11.7142 220.803 11.4832C221.895 11.2521 222.324 8.85132 222.324 8.85132L222.603 8.84127C223.036 8.91159 223.34 8.56335 223.516 8.33231C223.692 8.10127 222.985 8.19168 222.526 7.87023Z" fill="#FEBBBA"/>
<path d="M214.488 8.35192C214.488 8.35192 214.81 7.67219 215.61 7.72911C216.409 7.78604 216.563 7.72911 216.563 7.72911L220.685 4.89301C220.685 4.89301 219.706 4.10614 218.936 4.11284C218.936 4.11284 213.776 7.16993 213.644 7.33735C213.512 7.50477 213.662 9.26603 214.403 9.55399C214.403 9.55399 214.157 8.74703 214.484 8.35526L214.488 8.35192Z" fill="#FF80A9"/>
<path d="M218.934 4.10801C218.934 4.10801 216.998 3.72964 215.721 4.38927C214.445 5.04891 214.196 6.17397 213.598 6.29116C213.004 6.40836 209.223 4.89488 206.887 6.29116C204.55 7.68745 204.209 9.93758 206.08 11.4879C207.95 13.0382 206.971 14.2336 206.333 14.7425C205.695 15.2515 204.591 18.8209 206.674 20.1368C208.757 21.4561 211.144 21.1648 211.144 21.1648C211.144 21.1648 211.39 18.1211 211.687 17.15C211.984 16.179 212.582 15.2883 213.11 15.0138C213.642 14.7392 214.361 14.4345 214.361 14.4345L215.182 10.3997C215.182 10.3997 214.093 9.17079 214.482 8.35044C214.871 7.53008 215.182 7.45306 215.182 7.45306L218.93 4.10801H218.934Z" fill="#141416"/>
<path d="M221.973 7.01953C221.973 7.01953 222.135 7.75952 222.612 7.93029C223.088 8.10106 223.774 8.16133 223.646 8.33545C223.517 8.50957 222.872 8.83771 222.593 8.84441L222.314 8.85445L221.973 7.01953Z" fill="#FF9895"/>
<path d="M219.809 11.6308C219.809 11.6308 216.967 11.0615 216.861 11.0615C216.754 11.0615 218.225 13.0069 218.225 13.0069L218.694 11.8484L219.809 11.6308Z" fill="#FF9895"/>
<path d="M220.609 7.24743C220.609 7.24743 220.495 6.98626 220.282 7.02309C220.07 7.05992 220.11 7.40481 220.282 7.47847C220.455 7.55214 220.569 7.48851 220.609 7.24408V7.24743Z" fill="#141416"/>
<path d="M219.735 8.57324C219.735 8.57324 219.941 8.72392 219.988 8.85451C220.04 8.98509 220.337 9.65478 220.744 9.72844C221.151 9.80211 221.356 9.83224 221.232 9.88582C221.107 9.93939 220.66 9.97957 220.418 9.88582C220.175 9.79206 219.552 8.98175 219.735 8.57324Z" fill="#141416"/>
<path d="M216.414 21.191C216.414 21.191 215.519 17.6685 213.014 17.6685C210.509 17.6685 211.313 22.45 212.343 25.6778C213.374 28.9057 215.879 33.7274 217.133 33.8915C218.387 34.0555 225.322 27.1076 227.379 24.7403C229.437 22.3696 229.51 22.1955 228.48 21.6999C227.449 21.201 226.734 22.1419 226.554 22.3462C226.375 22.5504 226.375 22.0616 225.971 22.0616C225.568 22.0616 225.164 22.6341 225.256 22.8786C225.344 23.123 225.707 23.6387 225.707 23.6387C225.707 23.6387 219.11 28.2561 218.589 27.9313C218.068 27.6032 216.414 21.1977 216.414 21.1977V21.191Z" fill="#FEBBBA"/>
<path d="M223.543 63.9492C223.854 62.9614 225.971 59.017 228.112 54.9788L220.734 54.5938C219.516 60.4602 219.435 63.8487 218.746 66.0754C218.647 66.3969 218.551 66.7049 218.456 66.9962C219.908 67.2072 221.335 67.4951 222.762 67.8066C222.839 66.4002 223.224 64.9571 223.543 63.9492Z" fill="#FF80A9"/>
<path d="M224.136 71.6859C222.97 70.8421 222.684 69.3487 222.765 67.8118C221.338 67.5004 219.912 67.2091 218.459 67.0015C217.913 68.7426 217.517 69.9313 217.517 69.9313C217.517 69.9313 225.6 75.9752 225.831 75.9049C226.062 75.8346 226.37 73.3032 224.136 71.6892V71.6859Z" fill="#141416"/>
<path d="M232.909 45.0399C232.755 43.7742 223.099 37.0908 223.099 37.0908L218.269 43.6939C218.269 43.6939 224.907 46.8682 224.675 47.4977C224.444 48.1305 221.98 48.6227 220.751 54.526C220.748 54.5461 220.744 54.5661 220.74 54.5862L228.119 54.9713C230.543 50.4007 232.997 45.7096 232.916 45.0366L232.909 45.0399Z" fill="#FEBBBA"/>
<path d="M216.442 8.45893C216.442 8.45893 215.701 7.42092 214.616 7.78255C213.53 8.14417 213.871 9.96571 215.038 10.0695C216.204 10.1733 216.596 8.63639 216.442 8.45893Z" fill="#FF9895"/>
<path d="M216.093 20.2947C216.093 20.2947 214.725 17.4252 212.774 17.6662C210.823 17.9073 211.238 20.2947 211.238 20.2947H216.093Z" fill="#FF9895"/>
<path d="M223.546 36.4834L221.081 45.1122L218.269 43.6992L223.546 36.4834Z" fill="#FF9895"/>
<path d="M-28.5857 39.1193C-28.5857 39.1193 -5.25361 19.2995 15.8968 23.1602C37.0472 27.021 39.529 56.2418 63.2658 57.7926C87.0026 59.3433 91.1649 48.2271 111.067 52.9405C130.969 57.6539 132.199 75.7044 143.595 75.423C154.99 75.1317 162.779 70.4134 168.323 75.7386C173.867 81.0539 175.295 84.5301 175.295 84.5301L-20.4685 107.701L-28.3189 41.3735" fill="#5BC3B6"/>
</g>
<defs>
<clipPath id="clip0_1265_6889">
<path d="M0 0H350V66C350 74.8366 342.837 82 334 82H16C7.16343 82 0 74.8366 0 66V0Z" fill="white"/>
</clipPath>
</defs>
</svg>
