<svg width="28" height="24" viewBox="0 0 28 24" fill="none" xmlns="http://www.w3.org/2000/svg">
<rect x="5.66235" y="1.06885" width="16.1943" height="22.9312" fill="#184FA0"/>
<rect x="0.766602" y="1.06885" width="4.51933" height="12.0486" fill="#D28800"/>
<rect x="2.27319" y="12.7285" width="3.01289" height="10.1053" fill="#D28800"/>
<rect x="21.8564" y="1.06885" width="4.51933" height="12.0486" fill="#D28800"/>
<rect x="21.8564" y="12.7285" width="3.01289" height="10.1053" fill="#D28800"/>
<rect x="5.28662" y="11.563" width="16.5709" height="2.33198" fill="#FBB603"/>
<mask id="mask0_4044_25781" style="mask-type:alpha" maskUnits="userSpaceOnUse" x="0" y="0" width="28" height="24">
<path d="M26.1173 0H22.2571C22.0011 0 21.7556 0.104885 21.5747 0.291721C21.3936 0.47846 21.292 0.731799 21.292 0.995952V1.9919H5.85094V0.995952C5.85094 0.731817 5.74931 0.478482 5.56827 0.291721C5.38732 0.104875 5.14184 0 4.88587 0H1.02561C0.769669 0 0.52419 0.104885 0.343221 0.291721C0.16217 0.47846 0.0605469 0.731799 0.0605469 0.995952V12.9474C0.0605469 13.2115 0.16218 13.4648 0.343221 13.6516C0.52417 13.8384 0.769651 13.9433 1.02561 13.9433V22.9069C1.02561 23.171 1.12725 23.4244 1.30829 23.6111C1.48923 23.798 1.73472 23.9028 1.99068 23.9028H25.1522C25.4082 23.9028 25.6537 23.798 25.8346 23.6111C26.0157 23.4244 26.1173 23.171 26.1173 22.9069V13.9433C26.3733 13.9433 26.6187 13.8384 26.7997 13.6516C26.9808 13.4649 27.0824 13.2115 27.0824 12.9474V0.995952C27.0824 0.731817 26.9807 0.478482 26.7997 0.291721C26.6188 0.104875 26.3733 0 26.1173 0ZM23.2221 1.9919H25.1522V11.9514H23.2221V1.9919ZM21.292 3.98381V11.9514H17.4317V10.9555C17.4317 10.4272 17.2284 9.9205 16.8664 9.54703C16.5045 9.17346 16.0135 8.96356 15.5016 8.96356H11.6413C11.1294 8.96356 10.6385 9.17344 10.2766 9.54703C9.91459 9.9205 9.7112 10.4272 9.7112 10.9555V11.9514H5.85094V3.98381H21.292ZM15.5016 14.9393H11.6413V10.9555H15.5016V14.9393ZM1.99068 1.9919H3.92081V11.9514H1.99068V1.9919ZM2.95574 13.9433H4.88587V21.9109H2.95574V13.9433ZM6.816 13.9433H9.7112V14.9393C9.7112 15.4676 9.91457 15.9742 10.2766 16.3477C10.6385 16.7213 11.1295 16.9312 11.6413 16.9312H12.6064V17.9271C12.6064 18.283 12.7904 18.6117 13.0889 18.7897C13.3875 18.9676 13.7554 18.9676 14.054 18.7897C14.3526 18.6118 14.5365 18.283 14.5365 17.9271V16.9312H15.5016C16.0135 16.9312 16.5045 16.7213 16.8664 16.3477C17.2283 15.9742 17.4317 15.4675 17.4317 14.9393V13.9433H20.3269V21.9109H6.816V13.9433ZM24.1872 21.9109H22.2571V13.9433H24.1872V21.9109Z" fill="black"/>
</mask>
<g mask="url(#mask0_4044_25781)">
<path fill-rule="evenodd" clip-rule="evenodd" d="M6.06086 -7.48193H-5.63623V13.8946H-4.90474V33.3277H6.79235V11.9512H6.06086V-7.48193Z" fill="#FBB603"/>
<path fill-rule="evenodd" clip-rule="evenodd" d="M32.7786 -7.48193H20.7271V13.8946H21.4807V33.3277H33.5323V11.9512H32.7786V-7.48193Z" fill="#FBB603"/>
</g>
<rect x="9.80542" y="8.84229" width="7.53222" height="8.16194" rx="3.76611" fill="#FBCF04"/>
<path d="M13.572 10.7852C11.9308 10.7852 12.4323 12.3658 12.8881 13.1561C12.3411 14.9069 12.6602 15.1015 12.8881 14.9799C13.344 15.0407 14.29 15.1258 14.4268 14.9799C14.5635 14.834 14.3698 13.5817 14.2558 12.9737C14.7117 12.2442 15.2132 10.7852 13.572 10.7852Z" fill="#DB8E00"/>
</svg>
