<svg width="16" height="16" viewBox="0 0 16 16" fill="none" xmlns="http://www.w3.org/2000/svg">
<path d="M8 3.90283V14.0001" stroke="#767676"/>
<path d="M3.33325 6L5.99992 6.66667" stroke="#767676" stroke-linecap="round"/>
<path d="M12.6667 6L10.0001 6.66667" stroke="#767676" stroke-linecap="round"/>
<path d="M3.33325 8.6665L5.99992 9.33317" stroke="#767676" stroke-linecap="round"/>
<path d="M12.6667 8.6665L10.0001 9.33317" stroke="#767676" stroke-linecap="round"/>
<path d="M13.3879 2.01199L13.4053 2.51169L13.3879 2.01199ZM10.9999 2.32513L10.8565 1.84613L10.9999 2.32513ZM9.11581 3.202L8.86536 2.76925L8.86536 2.76925L9.11581 3.202ZM2.65485 2.05009L2.62418 2.54915L2.65485 2.05009ZM4.66659 2.32513L4.79416 1.84167L4.66659 2.32513ZM6.85475 3.25047L6.62103 3.69248L6.85475 3.25047ZM9.08497 13.3797L9.32017 13.8209V13.8209L9.08497 13.3797ZM11.3333 12.4224L11.2057 11.939H11.2057L11.3333 12.4224ZM13.3233 12.1487L13.3546 12.6477L13.3233 12.1487ZM6.91486 13.3797L6.67966 13.8209V13.8209L6.91486 13.3797ZM4.66659 12.4224L4.79416 11.939L4.66659 12.4224ZM2.67649 12.1487L2.64528 12.6477H2.64528L2.67649 12.1487ZM15.1666 7.02575C15.1666 6.74961 14.9427 6.52575 14.6666 6.52575C14.3904 6.52575 14.1666 6.74961 14.1666 7.02575H15.1666ZM13.3705 1.5123C12.6116 1.53873 11.6196 1.61768 10.8565 1.84613L11.1433 2.80412C11.7761 2.61469 12.6594 2.53767 13.4053 2.51169L13.3705 1.5123ZM10.8565 1.84613C10.1932 2.04472 9.44702 2.43262 8.86536 2.76925L9.36626 3.63475C9.93323 3.30662 10.5965 2.96782 11.1433 2.80412L10.8565 1.84613ZM2.62418 2.54915C3.26817 2.58873 3.99754 2.66569 4.53901 2.80858L4.79416 1.84167C4.15362 1.67265 3.34336 1.59146 2.68553 1.55103L2.62418 2.54915ZM4.53901 2.80858C5.18042 2.97783 5.96982 3.34814 6.62103 3.69248L7.08848 2.80846C6.42483 2.45753 5.55169 2.04157 4.79416 1.84167L4.53901 2.80858ZM9.32017 13.8209C9.98085 13.4687 10.7991 13.0805 11.4608 12.9059L11.2057 11.939C10.4254 12.1448 9.52174 12.5802 8.84978 12.9384L9.32017 13.8209ZM11.4608 12.9059C11.9961 12.7646 12.7154 12.6877 13.3546 12.6477L13.2921 11.6497C12.6387 11.6905 11.8393 11.7718 11.2057 11.939L11.4608 12.9059ZM7.15006 12.9384C6.4781 12.5802 5.57439 12.1448 4.79416 11.939L4.53901 12.9059C5.20072 13.0805 6.01899 13.4687 6.67966 13.8209L7.15006 12.9384ZM4.79416 11.939C4.16053 11.7718 3.36109 11.6905 2.7077 11.6497L2.64528 12.6477C3.28445 12.6877 4.00369 12.7646 4.53901 12.9059L4.79416 11.939ZM14.1666 10.7626C14.1666 11.2197 13.7877 11.6187 13.2921 11.6497L13.3546 12.6477C14.3374 12.5863 15.1666 11.7867 15.1666 10.7626H14.1666ZM15.1666 3.28896C15.1666 2.31342 14.3897 1.47679 13.3705 1.5123L13.4053 2.51169C13.8152 2.49741 14.1666 2.83457 14.1666 3.28896H15.1666ZM0.833252 10.7626C0.833252 11.7867 1.66244 12.5863 2.64528 12.6477L2.7077 11.6497C2.21212 11.6187 1.83325 11.2197 1.83325 10.7626H0.833252ZM8.84978 12.9384C8.32159 13.22 7.67825 13.22 7.15006 12.9384L6.67966 13.8209C7.50187 14.2592 8.49797 14.2592 9.32017 13.8209L8.84978 12.9384ZM8.86536 2.76925C8.31997 3.08489 7.64102 3.10063 7.08848 2.80846L6.62103 3.69248C7.48251 4.14801 8.52724 4.12033 9.36626 3.63475L8.86536 2.76925ZM1.83325 3.33203C1.83325 2.86724 2.20154 2.52317 2.62418 2.54915L2.68553 1.55103C1.6467 1.48718 0.833252 2.33259 0.833252 3.33203H1.83325ZM15.1666 10.7626V7.02575H14.1666V10.7626H15.1666ZM15.1666 10.7626V3.28896H14.1666V10.7626H15.1666ZM1.83325 9.3335V3.33203H0.833252V9.3335H1.83325ZM1.83325 10.7626V9.3335H0.833252V10.7626H1.83325Z" fill="#767676"/>
</svg>
