<svg width="276" height="276" viewBox="0 0 276 276" fill="none" xmlns="http://www.w3.org/2000/svg">
<path d="M258.397 46.2107C251.392 34.077 216.241 43.3336 200.605 48.087C194.226 45.2099 185.845 42.458 175.963 39.8311C166.206 37.2042 157.449 35.3279 150.569 34.5773C139.436 22.5687 113.543 -3.07462 101.409 3.9304C89.4007 10.9354 93.1534 39.8311 95.6551 52.9655C86.1483 62.3472 80.3942 73.8554 77.6423 84.363C75.2656 93.4945 73.8896 102.751 73.6394 112.383C73.139 131.146 83.5215 148.534 100.283 156.915C113.293 163.42 126.677 168.423 140.437 172.176C154.197 175.928 168.332 178.18 182.843 179.056C201.606 180.182 219.244 170.425 228.25 153.913C232.878 145.407 236.381 136.65 238.758 127.644C241.51 117.136 242.385 104.377 238.758 91.4931C247.389 81.3608 265.277 58.2193 258.272 46.2107H258.397Z" fill="#ADBED9"/>
<path d="M183.969 48.9626C179.966 63.9733 172.335 74.9812 166.956 73.4801C161.578 71.979 160.452 58.7195 164.455 43.7088C164.955 41.7074 165.58 39.7059 166.331 37.8296C172.711 39.2056 179.09 40.9568 185.345 42.9583C184.969 44.9597 184.594 46.9611 183.969 48.9626Z" fill="#446993"/>
<path d="M164.329 38.455C160.327 53.4657 152.696 64.4736 147.317 62.9725C142.189 61.5966 140.938 49.0876 144.44 34.8274C148.068 34.8274 151.695 35.2027 155.323 35.703C158.45 36.2034 161.578 36.8288 164.58 37.4543C164.58 37.8295 164.455 38.0797 164.329 38.455Z" fill="#446993"/>
<path d="M205.734 51.089C201.606 65.3492 194.351 75.6065 189.097 74.2305C183.718 72.7295 182.592 59.47 186.595 44.4592C186.595 44.0839 186.72 43.8338 186.845 43.4585C190.223 44.5843 193.725 45.8352 197.103 47.0861C200.105 48.2119 202.982 49.5879 205.609 51.089H205.734Z" fill="#446993"/>
<path d="M241.009 66.2248C241.009 66.2248 241.634 70.1026 240.759 74.2305C240.008 77.9832 237.131 80.1097 233.879 80.485C229.626 71.9789 223.746 64.3484 216.366 58.2191C216.992 56.2176 218.368 54.5915 220.369 53.4657C228.375 49.3377 239.007 45.3348 244.636 49.713C254.393 57.2183 240.884 66.2248 240.884 66.2248H241.009Z" fill="white"/>
<path d="M106.413 30.199C106.413 30.199 103.911 33.3262 102.66 37.204C101.409 40.8316 102.91 44.209 105.412 46.0854C113.293 40.8316 122.299 37.204 131.681 35.5779C132.181 33.5764 131.806 31.4499 130.555 29.5736C125.677 21.9431 118.421 13.1868 111.416 14.0625C99.1576 15.5635 106.288 30.199 106.288 30.199H106.413Z" fill="white"/>
<path d="M260.899 44.7095C253.643 32.0754 224.372 37.7045 200.73 44.9596C194.601 42.3328 186.595 39.5808 176.713 37.079C166.831 34.327 158.575 32.7009 151.946 31.9503C135.058 13.8124 112.542 -5.70161 99.9083 1.55358C87.0241 8.93386 89.5259 35.8281 92.403 52.2148C81.6453 63.2227 76.7668 75.9819 74.6403 83.8625C72.1385 93.1191 70.7625 102.751 70.5123 112.633C70.0119 132.522 81.1449 151.036 98.9076 159.917C112.042 166.422 125.677 171.675 139.687 175.428C153.572 179.181 168.082 181.557 182.718 182.433C183.718 182.433 184.844 182.433 185.845 182.433C204.483 182.433 221.871 172.176 230.877 155.539C235.505 146.908 239.258 137.901 241.635 128.519C243.761 120.639 245.888 107.254 242.135 92.2435C246.763 86.7396 252.768 78.984 257.146 70.9783C263.275 59.7202 264.651 50.8389 261.024 44.7095H260.899ZM240.009 85.4887C238.883 82.3614 237.382 79.2342 235.505 75.9819C234.63 74.6059 232.878 74.1055 231.503 74.856C230.127 75.6066 229.626 77.4829 230.377 78.8589C241.26 97.8725 238.508 117.136 235.881 126.893C233.504 135.65 230.001 144.406 225.623 152.537C217.242 168.048 200.48 177.304 182.968 176.179C168.708 175.303 154.698 173.051 141.188 169.424C127.678 165.796 114.294 160.793 101.535 154.413C85.8983 146.657 76.0162 130.146 76.5166 112.633C76.7668 103.251 78.1428 94.1198 80.3944 85.2385C83.0213 75.4815 90.2765 57.4686 109.165 46.4607C110.541 45.5851 111.041 43.8338 110.291 42.4579C109.415 41.0819 107.664 40.5815 106.288 41.332C103.161 43.2084 100.284 45.2098 97.6567 47.3363C94.2793 25.5708 96.1557 10.56 102.911 6.68225C109.415 2.92957 124.676 12.4364 143.314 31.5751C139.186 31.5751 135.058 32.0754 131.181 32.7009C129.555 32.9511 128.429 34.4521 128.679 36.0783C128.929 37.7045 130.43 38.8303 132.056 38.5801C136.059 37.9546 140.187 37.5794 144.44 37.4543C151.32 37.4543 161.577 39.2055 174.962 42.8331C188.472 46.3356 198.229 49.9632 204.108 53.4657C207.736 55.7173 211.238 58.094 214.365 60.5958C214.866 61.0962 215.616 61.2213 216.242 61.2213C216.867 61.2213 217.993 60.846 218.493 60.0955C219.494 58.8446 219.369 56.9682 218.118 55.9675C215.116 53.4657 211.738 51.089 208.236 48.9625C234.004 41.7073 251.892 41.207 255.645 47.7116C259.523 54.4665 253.643 68.3514 239.758 85.4887H240.009Z" fill="#446993"/>
<path d="M195.008 130.203C199.486 127.597 201.004 121.854 198.397 117.376C195.791 112.898 190.048 111.38 185.57 113.987C181.092 116.593 179.574 122.336 182.181 126.814C184.787 131.292 190.53 132.81 195.008 130.203Z" fill="#605C5D"/>
<path d="M125.688 112.496C130.447 110.447 132.643 104.928 130.594 100.169C128.544 95.4101 123.025 93.2138 118.266 95.2632C113.507 97.3127 111.311 102.832 113.36 107.591C115.41 112.35 120.929 114.546 125.688 112.496Z" fill="#605C5D"/>
<path d="M209.737 144.656C209.486 144.656 209.236 144.656 208.986 144.656L194.726 140.778C193.1 140.403 192.224 138.777 192.599 137.151C192.975 135.525 194.601 134.649 196.227 135.024L210.487 138.902C212.113 139.277 212.989 140.903 212.614 142.53C212.238 143.906 211.113 144.781 209.737 144.781V144.656Z" fill="#446993"/>
<path d="M203.482 157.415C202.857 157.415 202.231 157.29 201.731 156.915L191.223 149.409C189.847 148.409 189.597 146.657 190.473 145.281C191.473 143.905 193.225 143.655 194.601 144.531L205.108 152.036C206.484 153.037 206.734 154.788 205.859 156.164C205.233 157.04 204.358 157.415 203.482 157.415Z" fill="#446993"/>
<path d="M110.04 117.887C109.79 117.887 109.54 117.887 109.29 117.887L95.0296 114.009C93.4034 113.634 92.5278 112.008 92.9031 110.382C93.2784 108.756 94.9045 107.88 96.5307 108.255L110.791 112.133C112.417 112.508 113.293 114.134 112.917 115.761C112.542 117.137 111.416 118.012 110.04 118.012V117.887Z" fill="#446993"/>
<path d="M94.6542 128.144C93.1531 128.144 91.9022 127.019 91.6521 125.392C91.527 123.766 92.6527 122.265 94.2789 122.14L107.163 120.889C108.789 120.764 110.29 121.89 110.415 123.516C110.541 125.142 109.415 126.643 107.789 126.768L94.9044 128.019C94.9044 128.019 94.7793 128.019 94.6542 128.019V128.144Z" fill="#446993"/>
<path d="M190.098 103.627C189.848 103.627 189.598 103.627 189.347 103.627L181.842 101.625C180.216 101.25 179.34 99.6238 179.716 97.9976C180.091 96.3715 181.717 95.4958 183.343 95.8711L190.849 97.8726C192.475 98.2478 193.35 99.874 192.975 101.5C192.6 102.876 191.474 103.752 190.098 103.752V103.627Z" fill="white"/>
<path d="M140.687 90.4922C140.437 90.4922 140.187 90.4922 139.937 90.4922L132.431 88.4907C130.805 88.1155 129.93 86.4893 130.305 84.8631C130.68 83.237 132.306 82.3613 133.933 82.7366L141.438 84.738C143.064 85.1133 143.94 86.7395 143.564 88.3656C143.189 89.7416 142.063 90.6172 140.687 90.6172V90.4922Z" fill="white"/>
<path d="M170.584 119.888C170.584 119.888 167.457 129.895 161.452 136.525C157.7 140.653 152.946 143.405 147.192 141.654C141.813 140.028 139.437 135.524 138.686 130.521C137.185 121.389 140.687 110.381 140.687 110.381C140.437 114.009 142.689 117.386 146.191 118.512C150.319 119.888 154.823 117.511 156.199 113.383C154.823 117.511 157.199 122.015 161.327 123.391C164.83 124.516 168.582 123.015 170.459 120.013L170.584 119.888Z" fill="#446993"/>
<path d="M161.577 136.525C157.825 140.653 153.071 143.405 147.317 141.654C141.938 140.028 139.562 135.525 138.811 130.521C142.564 126.393 147.317 123.516 153.071 125.392C158.45 127.144 160.827 131.522 161.577 136.525Z" fill="#FF80A9"/>
<path d="M171.835 117.136C170.459 116.511 168.833 117.011 168.082 118.262C166.831 120.264 164.454 121.139 162.328 120.389C161.077 120.013 160.076 119.138 159.451 117.887C158.95 116.886 158.825 115.76 158.95 114.634L159.826 114.885C160.076 114.885 160.326 114.885 160.577 114.885C161.828 114.885 163.078 114.009 163.454 112.633C163.829 111.007 162.953 109.381 161.327 109.005L153.321 106.879C151.695 106.504 150.069 107.379 149.694 109.005C149.319 110.632 150.194 112.258 151.82 112.633L153.071 113.008C151.945 115.135 149.444 116.136 147.192 115.385C144.94 114.634 143.564 112.633 143.69 110.381C143.69 108.88 142.689 107.504 141.313 107.254C139.812 107.004 138.436 107.88 137.935 109.256C137.685 110.006 132.432 126.643 137.81 137.026C139.687 140.653 142.564 143.155 146.442 144.281C147.943 144.781 149.444 145.031 150.945 145.031C153.196 145.031 155.448 144.406 157.7 143.28C168.082 137.901 173.336 121.264 173.586 120.514C174.086 119.138 173.336 117.512 171.96 116.886L171.835 117.136ZM154.823 138.276C152.571 139.402 150.444 139.652 148.068 138.902C145.691 138.151 144.065 136.775 142.939 134.524C140.813 130.521 140.938 124.517 141.688 119.388C142.689 120.264 143.94 120.889 145.316 121.264C148.318 122.265 151.445 121.765 153.947 120.389C153.947 120.389 153.947 120.639 154.072 120.639C155.448 123.266 157.7 125.142 160.452 126.018C161.828 126.393 163.204 126.643 164.454 126.518C162.078 131.021 158.7 136.025 154.697 138.151L154.823 138.276Z" fill="#446993"/>
<path d="M136.059 171.925C85.2722 171.925 43.9927 184.935 43.9927 201.071C43.9927 250.231 85.1471 273.123 136.059 273.123C186.97 273.123 228.124 250.231 228.124 201.071C228.124 151.911 186.97 171.925 136.059 171.925Z" fill="#DDFCFC"/>
<path d="M136.059 276C109.039 276 85.8978 269.745 69.2609 257.862C50.8727 244.728 41.1157 225.089 41.1157 200.946C41.1157 176.804 51.1229 183.559 70.1365 177.555C87.7741 171.925 111.166 168.923 136.059 168.923C160.952 168.923 184.343 172.051 201.981 177.555C220.994 183.559 231.002 191.69 231.002 200.946C231.002 224.963 221.245 244.728 202.857 257.862C186.22 269.745 163.078 276 136.059 276ZM136.059 174.803C111.791 174.803 89.025 177.805 71.8878 183.184C56.2516 188.062 46.9949 194.692 46.9949 200.946C46.9949 223.337 55.6261 240.85 72.6383 252.984C88.2745 264.116 110.165 269.996 135.934 269.996C161.702 269.996 183.593 264.116 199.229 252.984C216.241 240.85 224.872 223.337 224.872 200.946C224.872 178.555 188.346 174.803 135.809 174.803H136.059Z" fill="#93F6F8"/>
<path d="M164.329 198.194C164.329 198.194 158.575 165.296 193.35 144.781C193.35 144.781 169.333 174.302 185.72 204.949C185.72 204.949 182.718 180.807 205.859 166.046C205.859 166.046 195.727 190.439 200.856 200.571C200.856 200.571 178.715 217.833 164.204 198.319L164.329 198.194Z" fill="#89D770"/>
<path d="M181.591 210.453C180.465 210.453 179.339 210.453 178.214 210.203C171.709 209.327 166.205 205.825 161.827 199.945C161.577 199.57 161.326 199.195 161.326 198.694C161.326 198.319 159.825 189.688 162.828 178.43C165.579 168.048 172.96 153.287 191.723 142.279C192.974 141.529 194.6 141.779 195.476 142.905C196.352 144.03 196.477 145.657 195.476 146.657C195.476 146.657 189.722 153.912 185.969 164.545C182.717 173.927 181.966 182.933 183.717 191.439C185.844 182.808 191.098 171.8 204.107 163.419C205.233 162.669 206.609 162.794 207.61 163.669C208.61 164.545 208.986 165.921 208.485 167.047C205.858 173.426 199.729 191.815 203.357 199.07C203.982 200.321 203.607 201.822 202.481 202.697C201.981 203.073 192.474 210.328 181.341 210.328L181.591 210.453ZM167.206 196.943C170.583 201.196 174.461 203.573 179.089 204.324C180.215 204.449 181.216 204.574 182.341 204.449C176.087 191.564 175.462 177.054 180.715 162.293C181.466 160.042 182.467 157.915 183.342 155.914C176.212 162.544 171.334 170.549 168.832 179.681C166.455 188.062 166.955 194.942 167.206 197.068V196.943ZM199.854 174.677C188.846 185.935 188.596 199.32 188.721 203.323C192.474 202.197 195.601 200.446 197.352 199.32C195.976 194.441 196.477 187.562 198.728 178.68C199.103 177.304 199.479 176.053 199.854 174.802V174.677Z" fill="#6DB850"/>
<path d="M174.712 198.444C174.712 198.444 179.965 192.065 188.722 196.443C188.722 196.443 201.606 184.935 217.242 201.071C216.241 202.822 210.612 207.826 194.726 212.329C187.221 214.456 178.715 216.207 169.583 217.333L174.712 198.444Z" fill="#D4AFB7"/>
<path d="M215.116 203.073C209.486 197.193 203.732 194.692 197.978 195.567C193.6 196.193 190.848 198.569 190.723 198.695C189.847 199.445 188.471 199.695 187.471 199.07C181.091 195.943 177.464 199.82 177.088 200.321L172.46 196.568C174.586 193.941 180.591 190.063 188.471 193.066C192.85 190.314 205.359 184.434 219.494 198.945L215.241 203.073H215.116Z" fill="#B78E98"/>
<path d="M175.337 203.198C175.337 208.452 173.461 213.33 170.333 217.083L138.936 219.209C134.558 215.206 131.806 209.452 131.806 203.073C131.806 191.064 141.563 181.307 153.571 181.307C165.58 181.307 175.337 191.064 175.337 203.073V203.198Z" fill="#FFBF8C"/>
<path d="M136.935 221.586C131.806 216.958 128.804 210.203 128.804 203.323C128.804 189.688 139.937 178.555 153.571 178.555C167.206 178.555 178.339 189.688 178.339 203.323C178.339 216.958 176.338 214.706 172.585 219.209C171.584 220.46 166.956 216.707 168.082 215.457C170.959 212.079 172.46 207.826 172.46 203.448C172.46 193.066 164.079 184.685 153.697 184.685C143.314 184.685 134.933 193.066 134.933 203.448C134.933 213.83 137.185 213.83 141.063 217.333C142.313 218.459 137.685 222.211 137.06 221.711L136.935 221.586Z" fill="#FF9D6F"/>
<path d="M101.159 185.56C101.534 177.054 104.536 171.925 110.791 172.676C110.791 172.676 108.039 147.033 128.428 149.785C148.818 152.537 139.561 176.554 139.561 176.554C149.568 177.93 147.442 191.564 139.561 208.076L118.921 205.95L101.284 185.685L101.159 185.56Z" fill="#89D770"/>
<path d="M139.561 211.079C139.186 211.079 138.686 211.079 138.31 210.828C136.809 210.078 136.184 208.327 136.934 206.826C142.689 194.942 144.815 185.56 142.689 181.558C142.313 180.807 141.438 179.806 139.311 179.556C138.436 179.556 137.56 178.931 137.185 178.18C136.684 177.43 136.684 176.429 136.934 175.553C136.934 175.553 141.062 164.545 137.185 157.916C135.559 155.164 132.556 153.412 128.178 152.912C123.8 152.287 120.548 153.162 118.171 155.414C113.543 159.917 113.418 169.299 113.793 172.551C113.793 173.427 113.543 174.302 112.917 175.053C112.292 175.678 111.416 175.928 110.416 175.928C108.539 175.678 107.538 176.304 107.038 176.679C105.412 178.055 104.411 181.307 104.161 185.936C104.161 187.562 102.66 188.813 101.034 188.813C99.4077 188.813 98.1567 187.312 98.1567 185.685C98.532 179.181 100.158 174.678 103.16 172.176C104.411 171.05 105.912 170.425 107.664 170.174C107.664 165.421 108.539 156.79 113.918 151.411C117.546 147.783 122.549 146.407 128.804 147.283C135.058 148.159 139.436 150.785 142.063 155.164C145.941 161.668 144.44 170.425 143.314 174.928C145.19 175.803 146.691 177.179 147.692 179.056C150.945 185.06 149.068 195.317 142.063 209.703C141.563 210.703 140.437 211.329 139.436 211.329L139.561 211.079Z" fill="#6DB850"/>
<path d="M118.547 218.834C103.286 217.833 89.0254 215.582 77.392 212.329C76.5164 212.079 75.6408 211.829 74.7652 211.579C72.1383 203.448 73.0139 197.569 79.2684 196.193C79.2684 196.193 67.6351 173.301 87.6494 168.548C107.664 163.795 107.539 189.563 107.539 189.563C117.421 187.186 120.173 200.821 118.672 218.959L118.547 218.834Z" fill="#89D770"/>
<path d="M115.669 218.584C116.795 205.449 115.419 195.943 112.041 192.94C111.416 192.315 110.29 191.689 108.164 192.19C107.288 192.44 106.287 192.19 105.662 191.564C104.911 190.939 104.536 190.188 104.536 189.188C104.536 189.188 104.536 177.429 98.4067 172.551C95.9049 170.549 92.5275 170.049 88.2744 171.05C84.0214 172.05 81.2694 174.052 79.8934 176.929C77.1414 182.808 80.3938 191.564 81.8949 194.441C82.2701 195.192 82.2701 196.193 81.8949 197.068C81.5196 197.944 80.769 198.444 79.8934 198.694C78.0171 199.195 77.3916 199.945 77.0164 200.571C76.0157 202.447 76.1407 205.825 77.6418 210.328C78.1422 211.829 72.5132 213.705 72.0128 212.204C70.0114 206.075 70.0114 201.196 72.0128 197.819C72.8884 196.318 74.0142 195.192 75.5153 194.316C73.8891 189.938 71.5124 181.432 74.6397 174.552C76.7662 169.924 81.0192 166.797 87.0235 165.296C93.1529 163.795 98.2816 164.795 102.284 167.922C108.289 172.676 109.915 181.307 110.415 185.935C112.542 186.06 114.418 186.811 116.044 188.187C121.173 192.565 123.049 202.948 121.673 218.834C121.548 220.335 115.669 219.96 115.794 218.334L115.669 218.584Z" fill="#6DB850"/>
<path d="M150.444 215.707C150.444 216.832 150.444 217.958 150.194 218.959L106.538 217.708C106.538 217.083 106.538 216.332 106.538 215.707C106.538 203.573 116.42 193.691 128.553 193.691C140.687 193.691 150.569 203.573 150.569 215.707H150.444Z" fill="#FF80A9"/>
<path d="M153.196 219.46L147.317 218.584C147.442 217.583 147.567 216.708 147.567 215.707C147.567 205.199 139.061 196.693 128.553 196.693C118.046 196.693 109.54 205.199 109.54 215.707C109.54 226.214 109.54 216.833 109.54 217.458L103.661 217.958C103.661 217.208 103.661 216.332 103.661 215.707C103.661 201.947 114.919 190.689 128.679 190.689C142.438 190.689 153.696 201.947 153.696 215.707C153.696 229.467 153.696 218.209 153.446 219.334L153.196 219.46Z" fill="#F6608E"/>
<path d="M136.059 222.337C130.18 222.337 124.176 222.086 118.422 221.711C102.785 220.71 88.4001 218.459 76.6417 215.081C75.7661 214.831 74.8904 214.581 73.8897 214.206C60.7553 210.078 54.1255 205.45 52.3743 202.322C51.8739 201.447 51.8739 200.321 52.3743 199.32C53.1248 198.069 55.7517 194.692 65.0083 190.689C66.5094 190.064 68.2607 190.689 68.8861 192.19C69.5116 193.691 68.8861 195.442 67.385 196.068C63.132 197.819 60.6302 199.57 59.1292 200.696C61.3808 202.573 66.5094 205.45 75.766 208.327C76.6417 208.577 77.5173 208.827 78.3929 209.077C89.7761 212.329 103.786 214.581 118.922 215.457C124.551 215.832 130.43 215.957 136.184 215.957C157.7 215.957 178.339 213.455 194.101 208.952C208.736 204.824 214.115 200.321 214.866 199.07C215.741 197.694 217.492 197.194 218.994 198.069C220.37 198.945 220.87 200.696 220.119 202.072C218.243 205.45 210.863 210.453 195.852 214.706C179.59 219.335 158.45 221.961 136.309 221.961L136.059 222.337Z" fill="#93F6F8"/>
<path d="M39.7404 145.532C35.4873 161.418 39.3651 176.304 48.2465 178.68C57.2529 181.057 68.0106 170.174 72.2637 154.288C76.5167 138.402 72.6389 123.516 63.7576 121.139C54.8762 118.762 43.9934 129.645 39.7404 145.532Z" fill="#ADBED9"/>
<path d="M50.873 181.932C49.7472 181.932 48.6214 181.807 47.4956 181.557C36.7379 178.68 32.1096 162.544 36.863 144.781C39.1146 136.65 42.9924 129.395 47.8709 124.391C53.1247 119.012 59.1289 116.761 64.5078 118.262C69.8866 119.763 74.0146 124.516 75.8909 131.897C77.6422 138.651 77.392 146.907 75.1404 155.038C70.8874 170.925 60.63 181.932 50.873 181.932ZM42.6171 146.282C38.8644 160.292 41.8666 173.802 49.1218 175.803C56.377 177.804 65.7587 167.547 69.5114 153.537C71.3877 146.282 71.6379 139.152 70.1368 133.398C68.7608 128.269 66.259 124.892 63.0067 124.016C59.7544 123.14 55.8766 124.767 52.1239 128.519C47.996 132.772 44.6186 139.027 42.6171 146.282Z" fill="#446993"/>
<path d="M60.2544 127.018L72.8885 137.151L83.0207 145.281C88.6497 140.278 96.5304 138.402 103.41 140.778C103.41 140.778 132.431 151.286 126.427 161.043C124.3 164.545 120.172 164.545 115.794 163.169C119.922 167.047 121.798 171.8 119.922 174.928C118.046 178.055 112.917 178.68 107.663 176.679C110.916 179.931 112.792 183.559 110.665 187.061C104.661 196.943 82.02 175.928 82.02 175.928C76.8913 170.925 74.8899 163.044 76.7662 155.789L50.1222 144.031C44.6182 141.529 42.4917 134.774 45.6189 129.645C48.7462 124.517 55.7512 123.266 60.5046 127.018H60.2544Z" fill="white"/>
<path d="M129.554 155.414C126.302 146.157 106.538 138.777 104.286 137.901C97.1558 135.524 89.1501 137.025 83.0207 141.529L62.1308 124.767C59.2537 122.39 55.3759 121.389 51.7483 122.14C48.1207 122.765 44.8684 125.017 42.867 128.144C40.8655 131.396 40.4903 135.274 41.6161 138.777C42.7419 142.404 45.3687 145.281 48.7462 146.782L73.1386 157.665C72.0128 165.171 74.2644 172.926 79.7684 178.18C81.3946 179.681 95.7798 192.69 105.537 192.69C106.037 192.69 106.412 192.69 106.913 192.69C109.54 192.315 111.541 190.939 112.917 188.687C114.293 186.436 114.668 183.934 113.918 181.432C113.918 180.932 113.668 180.557 113.417 180.056C113.793 180.056 114.168 180.056 114.543 180.056C118.046 180.056 120.798 178.805 122.299 176.429C123.925 173.802 123.425 170.299 121.423 166.922C121.924 166.922 122.299 166.922 122.799 166.797C125.426 166.296 127.427 164.795 128.803 162.544C130.179 160.292 130.43 157.79 129.554 155.414ZM51.1229 141.279C49.2465 140.403 47.8706 138.902 47.2451 136.9C46.6197 134.899 46.8698 132.898 47.9956 131.146C48.9963 129.395 50.7476 128.269 52.749 127.894C54.7505 127.519 56.7519 128.019 58.3781 129.395L78.5175 145.657C77.767 146.532 77.0164 147.533 76.391 148.659C75.7655 149.66 75.1401 150.785 74.7648 151.911L51.1229 141.404V141.279ZM123.8 159.542C123.3 160.417 122.674 160.793 121.673 161.043C118.171 161.793 111.666 158.916 104.161 153.662C102.785 152.662 100.908 153.037 100.033 154.413C99.0322 155.789 99.4074 157.665 100.783 158.541C103.41 160.417 106.538 162.419 109.79 164.045C109.79 164.045 109.915 164.17 110.04 164.295C115.919 167.923 118.046 172.301 117.295 173.552C116.545 174.803 111.541 174.928 105.662 171.3C105.662 171.3 105.537 171.3 105.412 171.175C102.535 169.048 99.2823 167.172 96.4053 165.671C94.9042 164.92 93.1529 165.546 92.4024 166.922C91.6519 168.423 92.2773 170.174 93.6533 170.925C101.909 175.178 107.288 179.681 108.289 183.058C108.539 184.059 108.414 184.81 107.914 185.56C107.538 186.311 106.913 186.561 106.162 186.686C100.908 187.437 89.7755 179.181 83.8963 173.802C78.2673 168.298 77.2666 158.791 81.5196 151.661C85.8978 144.531 94.7791 141.028 102.285 143.53C109.79 146.282 122.174 152.412 123.925 157.415C124.175 158.166 124.175 158.791 123.675 159.542H123.8Z" fill="#E3E3E3"/>
<path d="M58.0029 136.4C51.123 130.896 50.1223 120.764 55.6262 113.884C61.1302 107.004 68.7606 109.005 75.6406 114.509C82.5205 120.013 86.023 127.018 80.519 133.898C75.0151 140.778 64.8828 141.779 58.0029 136.275V136.4Z" fill="#ADBED9"/>
<path d="M68.01 143.03C63.7569 143.03 59.5039 141.529 56.1265 138.777C52.2487 135.65 49.7469 131.021 49.2466 126.018C48.7462 121.014 50.1222 116.01 53.3745 112.133C56.6269 108.13 60.7548 106.254 65.5082 106.754C69.386 107.129 73.3888 109.005 77.5168 112.383C81.6448 115.76 84.3967 119.263 85.5225 123.015C86.8985 127.519 86.0229 132.022 82.7706 136.025C79.6433 139.903 75.015 142.404 70.0114 142.905C69.386 142.905 68.6354 142.905 68.01 142.905V143.03ZM64.1322 112.633C61.7555 112.633 59.7541 113.759 58.0028 115.885C55.8763 118.637 54.8756 122.015 55.2509 125.392C55.6261 128.895 57.2523 131.897 60.0043 134.148C62.7562 136.275 66.1337 137.276 69.5111 136.9C73.0136 136.525 76.0157 134.899 78.2673 132.147C80.2688 129.77 80.7691 127.269 80.0186 124.767C79.268 122.265 77.1415 119.513 73.8892 117.011C70.6369 114.384 67.6347 112.883 65.0078 112.633C64.7577 112.633 64.5075 112.633 64.2573 112.633H64.1322Z" fill="#446993"/>
<path d="M217.367 245.603C208.235 244.352 201.856 235.846 203.107 226.715C204.358 217.583 212.864 211.204 221.995 212.454C231.127 213.705 233.253 221.586 232.002 230.718C230.752 239.849 226.499 246.854 217.367 245.478V245.603Z" fill="#ADBED9"/>
<path d="M219.493 248.731C218.618 248.731 217.867 248.731 216.992 248.606C211.738 247.855 207.235 245.103 203.982 240.975C200.855 236.722 199.479 231.593 200.23 226.34C200.98 221.086 203.732 216.583 207.86 213.33C212.113 210.203 217.242 208.827 222.496 209.578C232.127 210.954 236.756 218.834 235.004 231.218C234.254 236.722 232.503 241.1 229.876 244.102C227.249 247.23 223.621 248.731 219.493 248.731ZM219.744 215.332C216.741 215.332 213.864 216.333 211.488 218.084C208.611 220.335 206.609 223.463 206.109 227.09C205.608 230.718 206.484 234.345 208.736 237.223C210.987 240.1 214.115 242.101 217.742 242.601C220.994 243.102 223.496 242.226 225.373 240.1C227.124 237.973 228.5 234.596 229 230.343C230.877 216.708 223.872 215.707 221.62 215.457C220.994 215.457 220.369 215.332 219.618 215.332H219.744Z" fill="#446993"/>
</svg>
