<svg width="320" height="277" viewBox="0 0 320 277" fill="none" xmlns="http://www.w3.org/2000/svg">
<path d="M267.674 261.167C298.652 239.31 321.614 195.266 319.743 143.567C316.517 54.444 244.055 11.4029 217.874 4.20638C191.691 -2.99017 165.314 0.295381 157.796 14.0444C147.272 33.2874 138.832 35.7799 116.697 34.7835C104.73 34.245 58.8886 20.8855 21.0562 74.9147C-7.38133 115.527 -10.4605 204.28 34.8436 261.165H267.676L267.674 261.167Z" fill="#EBF3FA"/>
<path d="M240.079 108.431H294.145C301.194 108.431 306.925 114.166 306.925 121.219V170.115H240.079V108.431Z" fill="#F3F8FF"/>
<path d="M306.925 170.39H240.079C239.933 170.39 239.805 170.262 239.805 170.115V108.432C239.805 108.285 239.933 108.157 240.079 108.157H294.145C301.34 108.157 307.199 114.019 307.199 121.219V170.115C307.199 170.262 307.071 170.39 306.925 170.39ZM240.354 169.84H306.65V121.219C306.65 114.312 301.048 108.706 294.145 108.706H240.354V169.84Z" fill="#BFD2EF"/>
<path d="M306.925 170.39C306.778 170.39 306.65 170.262 306.65 170.115V121.219C306.65 114.313 301.048 108.707 294.145 108.707C287.243 108.707 281.641 114.313 281.641 121.219V170.115C281.641 170.262 281.512 170.39 281.366 170.39C281.219 170.39 281.091 170.262 281.091 170.115V121.219C281.091 114.019 286.95 108.157 294.145 108.157C301.341 108.157 307.2 114.019 307.2 121.219V170.115C307.2 170.262 307.071 170.39 306.925 170.39Z" fill="#BFD2EF"/>
<path d="M111.881 72.8356H223.62C241.782 72.8356 256.539 87.6015 256.539 105.775V170.115H78.9622V105.775C78.9622 87.6015 93.719 72.8356 111.881 72.8356Z" fill="#F3F8FF"/>
<path d="M256.539 170.39H78.9621C78.8157 170.39 78.6875 170.262 78.6875 170.116V105.776C78.6875 87.4555 93.5725 72.5613 111.881 72.5613H223.62C241.928 72.5613 256.813 87.4555 256.813 105.776V170.116C256.813 170.262 256.685 170.39 256.539 170.39ZM79.2368 169.841H256.264V105.776C256.264 87.7669 241.617 73.1109 223.62 73.1109H111.881C93.8838 73.1109 79.2368 87.7669 79.2368 105.776V169.841Z" fill="#BFD2EF"/>
<path d="M76.2168 108.431H117.503C124.552 108.431 130.283 114.166 130.283 121.219V170.115H63.4373V121.219C63.4373 114.166 69.1679 108.431 76.2168 108.431Z" fill="#F3F8FF"/>
<path d="M130.282 170.39H63.4368C63.2903 170.39 63.1621 170.262 63.1621 170.115V121.219C63.1621 114.019 69.0209 108.157 76.2163 108.157H117.503C124.698 108.157 130.557 114.019 130.557 121.219V170.115C130.557 170.262 130.429 170.39 130.282 170.39ZM63.7114 169.84H130.007V121.219C130.007 114.312 124.405 108.706 117.503 108.706H76.2163C69.3139 108.706 63.7114 114.312 63.7114 121.219V169.84Z" fill="#BFD2EF"/>
<path d="M130.282 170.39C130.136 170.39 130.008 170.262 130.008 170.115V121.219C130.008 114.312 124.405 108.706 117.503 108.706C110.6 108.706 104.998 114.312 104.998 121.219V170.115C104.998 170.262 104.87 170.39 104.723 170.39C104.577 170.39 104.449 170.262 104.449 170.115V121.219C104.449 114.019 110.308 108.157 117.503 108.157C124.698 108.157 130.557 114.019 130.557 121.219V170.115C130.557 170.262 130.429 170.39 130.282 170.39Z" fill="#BFD2EF"/>
<path d="M256.54 129.976H130.283C130.136 129.976 130.008 129.848 130.008 129.701C130.008 129.554 130.136 129.426 130.283 129.426H256.54C256.686 129.426 256.815 129.554 256.815 129.701C256.815 129.848 256.686 129.976 256.54 129.976Z" fill="#BFD2EF"/>
<path d="M116.587 108.706H78.9807C78.8342 108.706 78.7061 108.578 78.7061 108.432C78.7061 108.285 78.8342 108.157 78.9807 108.157H116.587C116.733 108.157 116.862 108.285 116.862 108.432C116.862 108.578 116.733 108.706 116.587 108.706Z" fill="#BFD2EF"/>
<path d="M125.595 72.8357C127.774 76.9211 129.733 82.3987 131.326 88.1696C136.196 105.867 133.102 121.329 130.685 129.701C131.674 129.664 133.102 129.646 134.804 129.811C137.441 130.049 145.479 130.764 150.22 135.545C153.571 138.916 154.212 143.166 154.816 151.704C155.493 161.23 151.832 165.352 154.505 170.115C154.505 170.115 174.168 170.243 178.416 170.115C176.274 167.972 173.418 170.5 171.971 165.608C170.598 160.919 171.294 157.493 173.308 142.085C174.718 131.35 174.937 128.62 173.106 125.927C170.159 121.604 165.453 122.556 163.092 119.991C159.54 116.144 161.609 104.658 183.634 72.8357C164.208 73.0006 145.003 72.6708 125.577 72.8357H125.595Z" fill="white"/>
<path d="M163.934 71.6081C163.403 74.2096 156.519 74.466 149.818 74.7408C144.106 74.979 140.078 75.0889 138.247 72.4325C137.057 70.6921 137.075 68.1456 138.027 66.3686C140.334 62.0267 148.097 62.4114 152.143 63.2358C159.302 64.6831 164.575 68.4387 163.934 71.6081Z" fill="#BFD2EF"/>
<path d="M150.807 87.5103C151.082 86.4111 150.386 85.3119 149.324 84.9272C143.74 82.912 139.694 78.8999 138.906 74.1184C138.705 72.9275 138.632 71.1138 139.327 68.8605L139.053 65.0865C136.819 66.8086 135.537 70.3078 135.354 71.4803C134.604 76.6099 137.68 82.0509 143.062 85.6966C143.557 86.0081 149.031 89.5255 150.496 88.0416C150.606 87.9317 150.715 87.7668 150.789 87.492L150.807 87.5103Z" fill="#BFD2EF"/>
<path d="M153.168 73.3669C153.717 74.3928 154.999 76.3348 157.342 77.3607C162.066 79.3942 168.218 76.3347 168.254 74.4111C168.254 73.6966 167.412 72.8173 166.588 72.7074C165.819 72.6158 165.179 73.202 164.922 73.3852C163.934 74.1547 161.737 74.4111 156.482 72.0479C155.383 72.4875 154.266 72.9272 153.168 73.3486V73.3669Z" fill="#BFD2EF"/>
<path d="M174.461 72.7261C174.461 73.5138 173.894 74.1367 171.752 74.1367C169.61 74.1367 166.717 73.4955 166.717 72.7261C166.717 71.9566 169.61 71.3154 171.752 71.3154C173.894 71.3154 174.461 71.9566 174.461 72.7261Z" fill="#BFD2EF"/>
<path d="M170.762 68.6955C170.359 72.3412 165.361 75.1625 161.535 73.7885C159.429 73.0373 157.36 70.8939 157.488 68.6955C157.69 64.8483 164.519 61.3858 168.29 63.7124C169.902 64.7017 170.982 66.7719 170.762 68.6955Z" fill="#BFD2EF"/>
<path d="M159.888 61.1478L158.863 66.0026L163.586 64.4638L159.888 61.1478Z" fill="#BFD2EF"/>
<path d="M170.873 62.2836L167.229 63.3095L169.848 65.9293L170.873 62.2836Z" fill="#BFD2EF"/>
<path d="M256.667 170.39C256.52 170.39 256.392 170.262 256.392 170.115V108.432C256.392 108.285 256.52 108.157 256.667 108.157C256.813 108.157 256.941 108.285 256.941 108.432V170.115C256.941 170.262 256.813 170.39 256.667 170.39Z" fill="#BFD2EF"/>
<path d="M258.608 98.9237C259.725 102.954 260.512 106.527 261.08 109.421C263.021 119.314 262.819 123.931 263.35 126.367C263.35 126.44 263.387 126.55 263.35 126.569C263.13 126.697 258.645 120.725 257.381 112.719C256.429 106.636 257.674 101.635 258.59 98.9237H258.608Z" fill="white"/>
<path d="M234.148 103.687C237.718 102.514 240.849 101.708 243.412 101.14C252.164 99.1801 256.265 99.5098 258.407 98.9786C258.462 98.9786 258.572 98.9419 258.59 98.9786C258.7 99.235 253.5 104.145 246.415 105.372C241.032 106.307 236.546 104.786 234.129 103.705L234.148 103.687Z" fill="white"/>
<path d="M263.35 126.55C259.743 127.888 255.459 129.17 250.589 130.068C246.286 130.855 242.35 131.203 238.89 131.295C237.388 129.133 235.338 125.598 234.093 120.761C232.115 113.03 233.379 106.545 234.129 103.65C237.626 103.595 241.691 103.284 246.14 102.441C250.937 101.543 255.111 100.243 258.572 98.9052C257.931 101.726 257.034 107.204 258.315 113.891C259.45 119.882 261.831 124.187 263.332 126.532L263.35 126.55Z" fill="white"/>
<path d="M239.181 118.984C239.071 118.984 238.98 118.929 238.943 118.837C236.984 114.899 235.19 110.813 233.634 106.673C233.579 106.526 233.634 106.38 233.798 106.325C233.945 106.288 234.091 106.325 234.146 106.49C235.593 110.337 237.24 114.129 239.035 117.811C239.657 113.415 240.463 109.036 241.433 104.768C241.451 104.658 241.561 104.566 241.671 104.548C241.799 104.548 241.909 104.603 241.946 104.713C243.63 108.67 245.534 112.554 247.585 116.273C248.372 111.748 249.343 107.223 250.514 102.844C250.551 102.734 250.642 102.661 250.752 102.642C250.862 102.642 250.972 102.697 251.027 102.789C253.096 107.021 255.439 111.125 257.984 115.008C258.076 115.137 258.039 115.302 257.911 115.393C257.783 115.485 257.618 115.448 257.527 115.32C255.091 111.638 252.858 107.735 250.862 103.705C249.709 108.102 248.757 112.609 248.006 117.134C247.988 117.244 247.896 117.335 247.786 117.353C247.676 117.372 247.567 117.317 247.493 117.225C245.406 113.525 243.484 109.659 241.781 105.72C240.829 109.989 240.06 114.386 239.456 118.764C239.456 118.892 239.346 118.984 239.236 119.002H239.2L239.181 118.984Z" fill="#BFD2EF"/>
<path d="M239.713 122.025C239.603 122.025 239.512 121.97 239.475 121.878C237.424 117.958 235.557 113.873 233.891 109.714C233.836 109.567 233.891 109.421 234.037 109.348C234.184 109.293 234.33 109.348 234.385 109.494C235.923 113.341 237.662 117.152 239.53 120.816C240.079 116.456 240.793 112.096 241.69 107.845C241.709 107.735 241.818 107.644 241.928 107.625C242.056 107.625 242.166 107.68 242.203 107.79C243.979 111.747 245.975 115.613 248.135 119.332C248.831 114.825 249.728 110.337 250.808 105.958C250.826 105.848 250.936 105.757 251.046 105.757C251.156 105.757 251.266 105.812 251.321 105.903C253.499 110.135 255.953 114.221 258.608 118.068C258.699 118.196 258.663 118.361 258.534 118.453C258.406 118.544 258.241 118.508 258.15 118.379C255.623 114.715 253.261 110.831 251.156 106.801C250.094 111.18 249.233 115.668 248.556 120.175C248.556 120.285 248.446 120.376 248.336 120.395C248.227 120.413 248.098 120.358 248.043 120.266C245.846 116.584 243.832 112.718 242.038 108.78C241.178 113.048 240.482 117.408 239.951 121.769C239.951 121.897 239.841 121.988 239.731 122.007C239.731 122.007 239.695 122.007 239.676 122.007L239.713 122.025Z" fill="#BFD2EF"/>
<path d="M240.299 125.066C240.208 125.066 240.116 125.011 240.061 124.92C237.919 121.018 235.942 116.932 234.202 112.773C234.147 112.627 234.202 112.462 234.349 112.407C234.495 112.352 234.642 112.407 234.715 112.554C236.344 116.419 238.157 120.211 240.134 123.875C240.61 119.534 241.251 115.192 242.057 110.96C242.075 110.85 242.167 110.758 242.295 110.74C242.405 110.74 242.533 110.795 242.569 110.887C244.437 114.844 246.542 118.709 248.794 122.41C249.399 117.94 250.222 113.451 251.211 109.109C251.229 109 251.321 108.908 251.449 108.89C251.559 108.89 251.669 108.926 251.724 109.036C254.012 113.25 256.576 117.317 259.34 121.146C259.432 121.274 259.395 121.439 259.285 121.53C259.157 121.622 258.992 121.604 258.901 121.476C256.264 117.83 253.793 113.946 251.596 109.952C250.625 114.312 249.838 118.801 249.252 123.271C249.252 123.381 249.142 123.472 249.032 123.509C248.923 123.527 248.794 123.491 248.739 123.381C246.451 119.717 244.345 115.851 242.441 111.912C241.654 116.163 241.031 120.486 240.592 124.828C240.592 124.956 240.482 125.048 240.372 125.066C240.372 125.066 240.336 125.066 240.317 125.066H240.299Z" fill="#BFD2EF"/>
<path d="M240.958 128.108C240.866 128.108 240.775 128.053 240.72 127.961C238.486 124.059 236.417 119.974 234.586 115.833C234.531 115.687 234.586 115.54 234.733 115.467C234.879 115.412 235.026 115.467 235.099 115.613C236.802 119.479 238.724 123.271 240.775 126.935C241.159 122.648 241.727 118.325 242.459 114.093C242.477 113.983 242.569 113.891 242.697 113.873C242.825 113.873 242.935 113.91 242.99 114.02C244.967 117.977 247.146 121.842 249.508 125.506C250.039 121.054 250.753 116.603 251.668 112.261C251.687 112.151 251.778 112.059 251.888 112.041C251.998 112.041 252.108 112.078 252.163 112.169C254.561 116.365 257.234 120.413 260.127 124.206C260.219 124.334 260.2 124.499 260.072 124.59C259.944 124.682 259.779 124.664 259.688 124.535C256.941 120.908 254.36 117.061 252.053 113.067C251.174 117.409 250.46 121.861 249.966 126.312C249.966 126.422 249.874 126.532 249.764 126.551C249.654 126.587 249.526 126.532 249.471 126.441C247.091 122.795 244.876 118.948 242.88 115.009C242.166 119.241 241.635 123.564 241.269 127.851C241.269 127.979 241.177 128.071 241.049 128.089C241.031 128.089 241.013 128.089 240.994 128.089L240.958 128.108Z" fill="#BFD2EF"/>
<path d="M241.672 131.112C241.58 131.112 241.489 131.057 241.434 130.984C239.109 127.1 236.948 123.033 235.008 118.874C234.934 118.728 235.008 118.581 235.136 118.508C235.264 118.435 235.447 118.508 235.502 118.636C237.296 122.502 239.31 126.294 241.452 129.939C241.764 125.671 242.258 121.384 242.917 117.189C242.935 117.079 243.027 116.969 243.137 116.951C243.265 116.951 243.375 116.987 243.43 117.097C245.499 121.054 247.787 124.902 250.241 128.547C250.68 124.132 251.321 119.699 252.145 115.375C252.163 115.265 252.254 115.174 252.364 115.155C252.474 115.137 252.584 115.192 252.639 115.283C255.147 119.46 257.948 123.491 260.933 127.246C261.024 127.375 261.006 127.54 260.896 127.631C260.786 127.723 260.603 127.704 260.512 127.595C257.656 124.004 254.964 120.175 252.547 116.199C251.742 120.523 251.138 124.956 250.698 129.372C250.698 129.481 250.607 129.591 250.497 129.61C250.387 129.628 250.259 129.61 250.204 129.5C247.732 125.872 245.407 122.044 243.32 118.105C242.697 122.318 242.221 126.605 241.928 130.874C241.928 131.002 241.837 131.094 241.727 131.112C241.709 131.112 241.69 131.112 241.654 131.112H241.672Z" fill="#BFD2EF"/>
<path d="M240.611 123.948C236.638 125.231 233.104 126.184 230.23 126.88C220.435 129.243 215.821 129.243 213.422 129.866C213.349 129.884 213.239 129.921 213.221 129.884C213.093 129.664 218.86 124.938 226.788 123.326C232.811 122.116 237.864 123.142 240.611 123.948Z" fill="white"/>
<path d="M234.807 99.7107C236.125 103.228 237.077 106.324 237.755 108.871C240.08 117.536 239.934 121.658 240.556 123.783C240.574 123.838 240.611 123.948 240.574 123.966C240.336 124.095 235.192 119.093 233.654 112.077C232.482 106.746 233.819 102.184 234.789 99.729L234.807 99.7107Z" fill="white"/>
<path d="M213.239 129.884C211.756 126.33 210.291 122.117 209.193 117.28C208.222 113.03 207.71 109.091 207.472 105.647C209.559 104.053 213.001 101.855 217.78 100.407C225.414 98.0989 231.951 99.0882 234.862 99.7111C235.063 103.21 235.557 107.241 236.583 111.674C237.681 116.419 239.164 120.541 240.647 123.949C237.791 123.417 232.298 122.776 225.671 124.333C219.739 125.726 215.528 128.29 213.257 129.884H213.239Z" fill="white"/>
<path d="M213.642 109.146C212.653 109.146 211.903 108.56 211.225 108.01C210.42 107.387 209.669 106.783 208.589 107.076C208.442 107.113 208.296 107.039 208.259 106.893C208.222 106.746 208.296 106.6 208.442 106.563C209.779 106.178 210.731 106.929 211.573 107.589C212.379 108.212 213.129 108.816 214.209 108.523C215.29 108.23 215.637 107.333 216.004 106.38C216.388 105.391 216.809 104.273 218.164 103.907C219.519 103.522 220.453 104.273 221.295 104.933C222.101 105.555 222.851 106.16 223.931 105.867C225.012 105.574 225.359 104.676 225.726 103.723C226.11 102.734 226.55 101.617 227.886 101.25C229.241 100.865 230.175 101.617 231.017 102.276C231.822 102.899 232.573 103.504 233.653 103.21C233.8 103.174 233.946 103.247 233.983 103.394C234.02 103.54 233.946 103.687 233.8 103.723C232.445 104.108 231.511 103.357 230.669 102.698C229.863 102.075 229.113 101.47 228.014 101.763C226.934 102.056 226.586 102.954 226.22 103.907C225.836 104.896 225.396 106.013 224.06 106.398C222.705 106.765 221.771 106.032 220.929 105.372C220.123 104.749 219.372 104.145 218.292 104.438C217.212 104.731 216.864 105.629 216.498 106.581C216.114 107.571 215.692 108.688 214.338 109.055C214.081 109.128 213.843 109.146 213.624 109.146H213.642Z" fill="#BFD2EF"/>
<path d="M214.484 112.206C213.495 112.206 212.744 111.62 212.067 111.088C211.261 110.465 210.511 109.861 209.43 110.154C209.284 110.191 209.138 110.099 209.101 109.971C209.064 109.824 209.138 109.678 209.284 109.641C210.621 109.256 211.573 110.007 212.415 110.667C213.22 111.29 213.971 111.894 215.051 111.601C216.131 111.308 216.479 110.41 216.845 109.458C217.23 108.468 217.651 107.351 219.006 106.984C220.361 106.6 221.295 107.351 222.137 108.01C222.942 108.633 223.693 109.238 224.773 108.945C225.853 108.652 226.201 107.754 226.567 106.801C226.952 105.812 227.391 104.695 228.728 104.31C230.083 103.925 231.016 104.676 231.859 105.336C232.664 105.959 233.415 106.563 234.513 106.27C234.66 106.233 234.806 106.325 234.843 106.453C234.88 106.6 234.806 106.746 234.66 106.783C233.305 107.168 232.371 106.417 231.529 105.757C230.724 105.134 229.973 104.53 228.893 104.823C227.812 105.116 227.465 106.014 227.098 106.966C226.714 107.955 226.274 109.073 224.938 109.458C223.583 109.824 222.649 109.091 221.807 108.432C221.002 107.809 220.251 107.204 219.171 107.497C218.09 107.791 217.743 108.688 217.376 109.641C216.992 110.63 216.571 111.748 215.216 112.114C214.96 112.187 214.722 112.206 214.502 112.206H214.484Z" fill="#BFD2EF"/>
<path d="M215.326 115.265C214.337 115.265 213.587 114.678 212.909 114.129C212.104 113.506 211.353 112.901 210.273 113.194C210.126 113.231 209.98 113.158 209.943 113.011C209.907 112.865 209.98 112.718 210.126 112.681C211.463 112.297 212.415 113.048 213.257 113.707C214.063 114.33 214.813 114.935 215.894 114.642C216.974 114.349 217.322 113.451 217.688 112.498C218.072 111.509 218.493 110.391 219.848 110.025C221.203 109.64 222.137 110.391 222.979 111.051C223.785 111.674 224.535 112.278 225.615 111.985C226.696 111.692 227.044 110.794 227.41 109.842C227.794 108.853 228.234 107.735 229.57 107.369C230.925 106.984 231.859 107.735 232.701 108.395C233.507 109.017 234.257 109.604 235.337 109.329C235.484 109.292 235.63 109.365 235.667 109.512C235.704 109.659 235.63 109.805 235.484 109.842C234.129 110.208 233.195 109.475 232.353 108.816C231.548 108.193 230.797 107.588 229.717 107.882C228.636 108.175 228.289 109.072 227.922 110.025C227.538 111.014 227.099 112.132 225.762 112.498C224.407 112.883 223.473 112.132 222.631 111.472C221.826 110.849 221.075 110.245 219.995 110.538C218.914 110.831 218.567 111.729 218.2 112.681C217.816 113.671 217.395 114.788 216.04 115.155C215.784 115.228 215.546 115.246 215.326 115.246V115.265Z" fill="#BFD2EF"/>
<path d="M216.168 118.324C215.179 118.324 214.429 117.738 213.751 117.188C212.946 116.565 212.195 115.961 211.115 116.254C210.968 116.309 210.822 116.217 210.785 116.071C210.749 115.924 210.822 115.778 210.968 115.741C212.305 115.356 213.257 116.107 214.099 116.767C214.905 117.39 215.655 117.994 216.736 117.701C217.816 117.408 218.164 116.51 218.53 115.558C218.914 114.569 219.335 113.451 220.69 113.085C222.045 112.7 222.979 113.451 223.821 114.111C224.627 114.733 225.377 115.338 226.458 115.045C227.538 114.752 227.886 113.854 228.252 112.901C228.636 111.912 229.076 110.795 230.412 110.428C231.767 110.043 232.701 110.795 233.543 111.454C234.349 112.077 235.099 112.682 236.198 112.388C236.344 112.352 236.491 112.425 236.527 112.572C236.564 112.718 236.491 112.865 236.344 112.901C235.008 113.286 234.056 112.535 233.213 111.875C232.408 111.253 231.657 110.648 230.559 110.941C229.478 111.234 229.131 112.132 228.764 113.085C228.38 114.074 227.941 115.191 226.604 115.576C225.249 115.961 224.315 115.21 223.473 114.55C222.668 113.927 221.917 113.323 220.837 113.616C219.757 113.909 219.409 114.807 219.042 115.759C218.658 116.749 218.237 117.866 216.882 118.233C216.626 118.306 216.388 118.324 216.168 118.324Z" fill="#BFD2EF"/>
<path d="M217.011 121.402C216.022 121.402 215.272 120.816 214.594 120.284C213.789 119.662 213.038 119.057 211.958 119.35C211.811 119.405 211.665 119.313 211.628 119.167C211.592 119.02 211.665 118.874 211.811 118.837C213.166 118.452 214.1 119.204 214.942 119.863C215.748 120.486 216.498 121.091 217.579 120.797C218.659 120.504 219.007 119.607 219.373 118.654C219.757 117.665 220.178 116.547 221.533 116.181C222.888 115.796 223.822 116.547 224.664 117.207C225.47 117.83 226.22 118.434 227.301 118.141C228.381 117.848 228.729 116.95 229.095 115.998C229.479 115.008 229.919 113.891 231.255 113.506C232.61 113.14 233.544 113.872 234.386 114.532C235.192 115.155 235.942 115.759 237.022 115.466C237.169 115.43 237.315 115.521 237.352 115.649C237.389 115.796 237.315 115.943 237.169 115.979C235.814 116.346 234.88 115.613 234.038 114.953C233.233 114.33 232.482 113.726 231.383 114.019C230.303 114.312 229.955 115.21 229.589 116.162C229.205 117.152 228.765 118.269 227.429 118.636C226.074 119.02 225.14 118.269 224.298 117.61C223.492 116.987 222.742 116.382 221.661 116.675C220.581 116.969 220.233 117.866 219.867 118.819C219.483 119.808 219.062 120.926 217.707 121.292C217.45 121.365 217.212 121.384 216.993 121.384L217.011 121.402Z" fill="#BFD2EF"/>
<path d="M217.853 124.461C216.864 124.461 216.113 123.875 215.436 123.326C214.63 122.703 213.88 122.098 212.799 122.391C212.653 122.428 212.506 122.355 212.47 122.208C212.433 122.061 212.506 121.915 212.653 121.878C213.989 121.493 214.941 122.245 215.784 122.904C216.589 123.527 217.34 124.132 218.42 123.838C219.5 123.545 219.848 122.648 220.214 121.695C220.599 120.706 221.02 119.588 222.375 119.222C223.711 118.837 224.663 119.588 225.506 120.248C226.311 120.871 227.062 121.475 228.142 121.182C229.222 120.889 229.57 119.991 229.936 119.039C230.321 118.049 230.76 116.932 232.097 116.565C233.452 116.181 234.385 116.932 235.228 117.591C236.033 118.214 236.784 118.819 237.864 118.526C238.011 118.489 238.157 118.581 238.194 118.709C238.23 118.855 238.157 119.002 238.011 119.039C236.656 119.423 235.722 118.672 234.88 118.013C234.074 117.39 233.323 116.785 232.243 117.078C231.163 117.371 230.815 118.269 230.449 119.222C230.065 120.211 229.625 121.329 228.289 121.695C226.934 122.061 226 121.329 225.158 120.669C224.352 120.046 223.601 119.442 222.521 119.735C221.441 120.028 221.093 120.926 220.727 121.878C220.343 122.867 219.921 123.985 218.567 124.351C218.31 124.425 218.072 124.443 217.853 124.443V124.461Z" fill="#BFD2EF"/>
<path d="M218.695 127.521C217.706 127.521 216.956 126.935 216.278 126.385C215.473 125.762 214.722 125.158 213.642 125.451C213.495 125.488 213.349 125.414 213.312 125.268C213.276 125.121 213.349 124.975 213.495 124.938C214.832 124.553 215.784 125.304 216.626 125.964C217.432 126.587 218.182 127.191 219.263 126.898C220.343 126.605 220.691 125.707 221.057 124.755C221.441 123.765 221.863 122.648 223.217 122.281C224.572 121.897 225.506 122.648 226.348 123.307C227.154 123.93 227.904 124.535 228.985 124.242C230.065 123.949 230.413 123.051 230.779 122.098C231.163 121.109 231.603 119.992 232.939 119.607C234.294 119.222 235.228 119.973 236.07 120.633C236.876 121.256 237.626 121.842 238.725 121.567C238.871 121.53 239.018 121.622 239.054 121.75C239.091 121.897 239.018 122.043 238.871 122.08C237.517 122.465 236.583 121.714 235.741 121.054C234.935 120.431 234.184 119.827 233.104 120.12C232.024 120.413 231.676 121.311 231.31 122.263C230.925 123.252 230.486 124.37 229.149 124.755C227.795 125.139 226.861 124.388 226.019 123.729C225.213 123.106 224.462 122.501 223.382 122.794C222.302 123.088 221.954 123.985 221.588 124.938C221.203 125.927 220.782 127.045 219.427 127.411C219.171 127.484 218.933 127.503 218.713 127.503L218.695 127.521Z" fill="#BFD2EF"/>
<path d="M88.2086 170.72H82.3865C82.6977 159.288 83.8878 150.787 85.2976 150.787C86.7073 150.787 87.8974 159.288 88.2086 170.72Z" fill="white"/>
<path d="M86.9455 142.892C86.9455 139.264 86.2131 136.333 85.316 136.333C84.4188 136.333 83.6865 139.264 83.6865 142.892C83.6865 146.519 84.4188 149.45 85.316 149.45C86.2131 149.45 86.9455 146.519 86.9455 142.892Z" fill="white"/>
<path d="M88.4103 149.597C88.4103 151.319 87.0188 152.711 85.2978 152.711C83.5768 152.711 82.1853 151.319 82.1853 149.597C82.1853 147.875 83.5768 146.482 85.2978 146.482C87.0188 146.482 88.4103 147.875 88.4103 149.597Z" fill="white"/>
<path d="M88.4103 136.333C88.4103 138.056 87.0188 139.448 85.2978 139.448C83.5768 139.448 82.1853 138.056 82.1853 136.333C82.1853 134.611 83.5768 133.219 85.2978 133.219C87.0188 133.219 88.4103 134.611 88.4103 136.333Z" fill="white"/>
<path d="M86.9455 127.851C86.9455 124.223 86.2131 121.292 85.316 121.292C84.4188 121.292 83.6865 124.223 83.6865 127.851C83.6865 131.478 84.4188 134.409 85.316 134.409C86.2131 134.409 86.9455 131.478 86.9455 127.851Z" fill="white"/>
<path d="M88.4103 121.292C88.4103 123.014 87.0188 124.407 85.2978 124.407C83.5768 124.407 82.1853 123.014 82.1853 121.292C82.1853 119.57 83.5768 118.178 85.2978 118.178C87.0188 118.178 88.4103 119.57 88.4103 121.292Z" fill="white"/>
<path d="M86.9455 112.81C86.9455 109.183 86.2131 106.252 85.316 106.252C84.4188 106.252 83.6865 109.183 83.6865 112.81C83.6865 116.438 84.4188 119.369 85.316 119.369C86.2131 119.369 86.9455 116.438 86.9455 112.81Z" fill="white"/>
<path d="M88.4103 106.252C88.4103 107.974 87.0188 109.366 85.2978 109.366C83.5768 109.366 82.1853 107.974 82.1853 106.252C82.1853 104.529 83.5768 103.137 85.2978 103.137C87.0188 103.137 88.4103 104.529 88.4103 106.252Z" fill="white"/>
<path d="M86.9455 97.7877C86.9455 94.1604 86.2131 91.2291 85.316 91.2291C84.4188 91.2291 83.6865 94.1604 83.6865 97.7877C83.6865 101.415 84.4188 104.346 85.316 104.346C86.2131 104.346 86.9455 101.415 86.9455 97.7877Z" fill="white"/>
<path d="M88.4103 91.2299C88.4103 92.9519 87.0188 94.3443 85.2978 94.3443C83.5768 94.3443 82.1853 92.9519 82.1853 91.2299C82.1853 89.5078 83.5768 88.1155 85.2978 88.1155C87.0188 88.1155 88.4103 89.5078 88.4103 91.2299Z" fill="white"/>
<path d="M86.9455 84.5974C86.9455 80.97 86.2131 78.0388 85.316 78.0388C84.4188 78.0388 83.6865 80.97 83.6865 84.5974C83.6865 88.2247 84.4188 91.156 85.316 91.156C86.2131 91.156 86.9455 88.2247 86.9455 84.5974Z" fill="white"/>
<path d="M88.4103 78.0387C88.4103 79.7608 87.0188 81.1531 85.2978 81.1531C83.5768 81.1531 82.1853 79.7608 82.1853 78.0387C82.1853 76.3166 83.5768 74.9243 85.2978 74.9243C87.0188 74.9243 88.4103 76.3166 88.4103 78.0387Z" fill="white"/>
<path d="M86.9455 69.5564C86.9455 65.929 86.2131 62.9978 85.316 62.9978C84.4188 62.9978 83.6865 65.929 83.6865 69.5564C83.6865 73.1838 84.4188 76.1149 85.316 76.1149C86.2131 76.1149 86.9455 73.1838 86.9455 69.5564Z" fill="white"/>
<path d="M88.4103 62.9976C88.4103 64.7197 87.0188 66.112 85.2978 66.112C83.5768 66.112 82.1853 64.7197 82.1853 62.9976C82.1853 61.2755 83.5768 59.8832 85.2978 59.8832C87.0188 59.8832 88.4103 61.2755 88.4103 62.9976Z" fill="white"/>
<path d="M86.9455 47.9568C86.9455 38.8151 86.2131 31.4138 85.316 31.4138C84.4188 31.4138 83.6865 38.8151 83.6865 47.9568C83.6865 57.0985 84.4188 64.4998 85.316 64.4998C86.2131 64.4998 86.9455 57.0985 86.9455 47.9568Z" fill="white"/>
<path d="M97.8579 23.4999H72.7566V55.963H97.8579V23.4999Z" fill="white"/>
<path d="M96.7222 170.72H74.825C74.825 169.676 75.6855 168.815 76.7291 168.815H94.7998C95.8434 168.815 96.7039 169.676 96.7039 170.72H96.7222Z" fill="white"/>
<path d="M182.719 133.383L161.206 165.004C157.929 169.822 161.188 176.362 166.992 176.655L169.006 176.747L179.478 165.242L182.719 133.383Z" fill="#FFF5CA"/>
<path d="M254.764 149.011C245.573 171.38 241.234 195.471 242.003 219.69H211.134C210.365 194.793 214.851 170.042 224.298 147.014C224.701 146.025 225.653 145.42 226.678 145.42H252.347C252.695 145.42 253.025 145.512 253.372 145.64H253.427C254.709 146.208 255.295 147.692 254.764 148.993V149.011Z" fill="#CCBF64"/>
<path d="M242.058 219.689H215.766V224.892H242.058V219.689Z" fill="#AF9CAA"/>
<path d="M216.407 219.689H167.779V224.892H216.407V219.689Z" fill="#C0AEBA"/>
<path d="M169.188 268.421L167.779 224.892H172.978L171.55 268.421H169.188Z" fill="#C0AEBA"/>
<path d="M212.636 268.421L211.208 224.893H216.407L214.998 268.421H212.636Z" fill="#C0AEBA"/>
<path d="M194.693 268.421L193.283 224.892H198.482L197.073 268.421H194.693Z" fill="#AF9CAA"/>
<path d="M238.139 268.421L236.711 224.892H241.911L240.501 268.421H238.139Z" fill="#AF9CAA"/>
<path d="M177.867 205.034H238.048V219.708H167.779V215.146C167.779 209.577 172.301 205.034 177.885 205.034H177.867Z" fill="#D6CD78"/>
<path d="M254.764 149.011C245.536 171.38 241.197 195.47 242.003 219.69V220.148C240.282 220.203 238.542 220.257 236.803 220.312C236.803 220.111 236.766 219.891 236.766 219.69C235.997 194.793 240.483 170.042 249.93 147.014C250.333 146.025 251.285 145.42 252.311 145.42C252.658 145.42 253.025 145.512 253.354 145.64H253.391C254.691 146.208 255.295 147.692 254.746 148.992L254.764 149.011Z" fill="#C0AEBA"/>
<path d="M150.092 258.656L152.106 253.6L164.501 258.253L163.97 266.314L150.092 258.656Z" fill="#F9AFB6"/>
<path d="M186.948 258.656L188.944 253.6L201.357 258.253L200.808 266.314L186.948 258.656Z" fill="#F9AFB6"/>
<path d="M164.813 261.972C164.227 261.404 163.184 262.705 158.826 262.43C156.758 262.302 155.549 260.708 155.366 260.195C155.549 258.949 155.696 257.996 154.744 257.135C154.084 256.549 151.173 256.604 150.661 257.007C150.056 257.484 150.221 257.978 150.075 258.638C149.819 259.737 148.866 260.415 147.255 261.587C146.102 262.412 145.754 262.448 142.129 264.317C138.852 266.002 138.119 266.515 137.918 267.266C137.918 267.34 137.533 268.622 138.705 269.41C139.419 269.886 140.426 269.978 141.598 269.959C142.44 269.941 145.571 270.033 157.307 269.758C159.467 269.703 162.433 269.611 165.985 269.465C166.26 268.824 166.498 267.871 166.113 266.808C165.765 265.856 164.978 262.137 164.795 261.972H164.813Z" fill="#64546F"/>
<path d="M187.626 258.638L201.138 261.368L213.166 214.34C214.65 208.569 211.043 202.725 205.239 201.424C199.197 200.087 193.301 204.209 192.496 210.346L187.626 258.638Z" fill="#A3829A"/>
<path d="M164.501 258.253L150.092 255.963L148.975 205.968C148.865 200.014 153.717 195.141 159.667 195.232C165.856 195.324 170.634 200.692 170.012 206.847L164.501 258.272V258.253Z" fill="#A3829A"/>
<path d="M231.31 132.028C236.364 140.382 230.596 146.024 231.402 163.593C232.116 178.982 236.931 182.719 233.929 191.202C231.017 199.446 223.474 204.3 217.78 207.085L202.639 205.308C186.161 203.366 173.473 189.699 172.979 173.12C172.979 172.991 172.979 172.918 172.979 172.753C172.777 164.418 172.21 141.426 187.058 129.023C194.272 122.996 206.136 118.618 217.396 122.135C219.794 122.886 227.191 125.213 231.329 132.046L231.31 132.028Z" fill="#FFF5CA"/>
<path d="M173.088 175.3C172.923 175.3 172.795 175.171 172.777 175.006C172.722 174.384 172.685 173.742 172.667 173.101V172.735C172.575 169.199 172.411 162.604 173.509 155.441C173.527 155.276 173.692 155.166 173.875 155.184C174.04 155.202 174.168 155.367 174.132 155.551C173.051 162.677 173.198 169.217 173.289 172.735V173.028C173.326 173.724 173.363 174.347 173.399 174.97C173.399 175.135 173.289 175.3 173.106 175.318C173.106 175.318 173.106 175.318 173.088 175.318V175.3Z" fill="#E2E2AF"/>
<path d="M213.551 118.196C213.258 121.036 213.551 123.601 214.118 125.708C214.118 125.744 214.118 125.763 214.118 125.781L202.272 132.834C198.208 135.252 193.393 131.149 195.132 126.752C195.132 126.752 195.48 125.726 195.901 124.498C196.249 123.472 196.67 122.263 196.945 121.421C197.018 121.274 197.054 121.128 197.091 120.999C197.201 120.706 197.274 120.486 197.329 120.358C197.421 120.175 197.494 119.973 197.585 119.79C197.695 119.515 197.823 119.241 197.933 118.966C198.245 118.215 198.501 117.464 198.794 116.694C199.087 115.87 199.361 115.027 199.581 114.239C199.782 113.561 199.966 112.884 200.149 112.224C200.222 111.986 200.277 111.803 200.332 111.583C200.423 111.235 200.497 110.905 200.57 110.593C200.643 110.374 200.68 110.172 200.698 109.971C200.808 109.494 200.918 109.055 201.009 108.597C201.009 108.45 201.064 108.285 201.101 108.157C201.247 107.369 201.375 106.636 201.467 105.904C201.577 105.079 201.687 104.273 201.76 103.522L201.796 103.211C201.833 102.899 201.87 102.624 201.888 102.331L204.03 103.192L204.817 103.485L207.674 104.658H207.71L212.892 106.765L213.532 107.021C213.642 107.442 213.752 117.005 213.679 117.335C213.679 117.463 213.624 117.628 213.624 117.757C213.587 117.922 213.569 118.086 213.551 118.251V118.196Z" fill="#F9AFB6"/>
<path d="M212.233 117.811C211.042 119.515 209.376 121.036 207.436 122.227C203.865 124.443 199.435 125.524 195.901 124.498C196.249 123.472 196.67 122.263 196.945 121.421C197.018 121.274 197.055 121.127 197.091 120.999C197.201 120.706 197.293 120.486 197.347 120.358C197.439 120.175 197.512 119.992 197.585 119.79C197.695 119.515 197.824 119.24 197.933 118.966C198.245 118.215 198.501 117.463 198.794 116.694C199.087 115.87 199.361 115.027 199.581 114.239C199.783 113.561 199.966 112.883 200.149 112.224C200.222 111.986 200.277 111.803 200.332 111.583C200.423 111.235 200.497 110.905 200.57 110.593C200.643 110.374 200.68 110.172 200.698 109.97C200.808 109.494 200.918 109.054 201.009 108.596C201.009 108.45 201.064 108.285 201.101 108.157C201.247 107.369 201.375 106.636 201.467 105.903C201.577 105.079 201.687 104.273 201.76 103.522L213.77 108.084C213.88 108.45 212.287 117.793 212.233 117.848V117.811Z" fill="#E59CA9"/>
<path d="M214.558 113.634C214.558 115.008 214.301 116.382 213.606 117.702C213.496 117.94 213.349 118.178 213.203 118.398C211.738 120.596 209.468 121.695 207.417 122.208C205.33 122.758 203.462 122.703 202.968 122.685C202.089 122.685 199.435 122.593 196.945 121.402C195.681 120.798 194.436 119.9 193.502 118.526C190.884 114.715 192.422 109.989 193.319 107.222C194.748 102.826 199.087 94.3801 204.634 94.8381C209.871 95.2594 212.525 103.265 213.514 106.984C213.624 107.406 213.715 107.772 213.77 108.047C213.88 108.413 213.917 108.67 213.935 108.798C214.1 109.622 214.283 110.502 214.393 111.418C214.503 112.151 214.558 112.902 214.558 113.653V113.634Z" fill="#F9AFB6"/>
<path d="M201.576 110.978C201.375 111.271 201.448 111.693 201.759 111.894C202.052 112.096 202.473 112.022 202.675 111.711C202.876 111.418 202.803 110.996 202.492 110.795C202.199 110.593 201.778 110.667 201.576 110.978Z" fill="#64546F"/>
<path d="M195.278 110.52C195.022 110.776 195.04 111.198 195.297 111.454C195.553 111.711 195.974 111.692 196.23 111.436C196.487 111.179 196.468 110.758 196.212 110.502C195.956 110.245 195.535 110.263 195.278 110.52Z" fill="#64546F"/>
<path d="M204.121 109.842C204.121 109.842 204.011 109.842 203.957 109.787C203.499 109.458 202.95 109.256 202.419 109.22C202.126 109.201 201.814 109.22 201.521 109.275C201.375 109.311 201.229 109.22 201.192 109.055C201.155 108.908 201.265 108.762 201.412 108.725C201.759 108.652 202.126 108.633 202.474 108.652C203.114 108.707 203.737 108.945 204.286 109.329C204.414 109.421 204.433 109.586 204.359 109.714C204.304 109.788 204.213 109.824 204.14 109.824L204.121 109.842Z" fill="#64546F"/>
<path d="M196.211 108.779C196.211 108.779 196.138 108.779 196.101 108.761C195.589 108.523 195.04 108.431 194.49 108.468C194.197 108.486 193.904 108.56 193.611 108.688C193.465 108.743 193.318 108.688 193.245 108.541C193.19 108.395 193.245 108.248 193.392 108.175C193.721 108.028 194.069 107.955 194.435 107.918C195.076 107.863 195.735 107.973 196.339 108.248C196.486 108.303 196.541 108.468 196.468 108.614C196.413 108.706 196.321 108.779 196.211 108.779Z" fill="#64546F"/>
<path d="M197.567 115.687C197.567 115.687 197.439 115.668 197.402 115.632C197.127 115.412 196.908 115.229 196.761 115.119C196.487 114.899 196.285 114.752 196.102 114.459C195.956 114.239 195.919 114.093 195.919 114.001C195.882 113.653 196.047 113.378 196.102 113.305C196.34 112.92 196.743 112.755 197.091 112.609C197.329 112.517 197.567 112.426 197.713 112.279C198.025 112.004 198.134 111.436 198.043 110.649C198.043 110.502 198.134 110.355 198.281 110.337C198.427 110.337 198.574 110.429 198.592 110.575C198.702 111.565 198.537 112.261 198.098 112.682C197.86 112.902 197.585 113.012 197.311 113.122C196.999 113.25 196.725 113.36 196.578 113.598C196.542 113.653 196.45 113.8 196.468 113.946C196.468 113.965 196.468 114.038 196.578 114.166C196.706 114.368 196.871 114.496 197.091 114.679C197.256 114.807 197.494 114.99 197.768 115.21C197.878 115.302 197.896 115.485 197.805 115.595C197.75 115.668 197.677 115.705 197.585 115.705L197.567 115.687Z" fill="#64546F"/>
<path d="M199.233 119.075C199.05 119.075 198.867 119.075 198.666 119.039C197.494 118.892 196.689 118.306 196.304 117.958C196.194 117.866 196.176 117.683 196.286 117.573C196.396 117.463 196.56 117.445 196.67 117.555C197 117.848 197.714 118.361 198.739 118.507C199.966 118.654 200.918 118.196 201.376 117.903C201.504 117.83 201.668 117.848 201.76 117.976C201.833 118.104 201.797 118.269 201.687 118.361C201.247 118.654 200.369 119.094 199.252 119.094L199.233 119.075Z" fill="#64546F"/>
<path d="M215.712 107.699C215.254 109.659 213.936 111.015 212.746 110.74C211.555 110.465 210.97 108.652 211.427 106.71C211.885 104.75 213.203 103.394 214.393 103.669C215.583 103.943 216.169 105.757 215.712 107.699Z" fill="#F9AFB6"/>
<path d="M199.545 100.279C199.545 100.279 200.057 103.101 201.851 104.658C202.95 105.61 204.415 105.757 205.605 105.684C205.513 105.629 204.708 105.207 204.579 104.328C204.524 103.962 204.616 103.65 204.689 103.485C205.11 103.943 205.806 104.585 206.813 105.098C208.388 105.885 209.852 105.922 210.585 105.867C209.797 105.446 209.321 104.804 209.431 104.291C209.578 103.54 211.024 103.156 211.793 103.559C212.69 104.017 213.056 105.72 212.287 107.662C212.672 107.241 213.185 106.581 213.514 105.684C214.613 102.661 212.745 99.6382 212.104 98.6122C211.5 97.6413 209.047 93.7208 204.305 93.3177C200.149 92.9513 195.755 95.4062 194.967 98.3741C194.51 100.096 195.26 102.13 193.814 103.595C193.374 104.053 192.862 104.291 192.532 104.42C193.136 104.603 194.217 104.841 195.443 104.511C198.428 103.742 199.453 100.517 199.526 100.279H199.545Z" fill="#64546F"/>
<path d="M181.456 153.243C182.188 151.246 184.422 150.22 186.509 150.696L201.815 158.849L213.551 134.391C213.936 133.805 214.43 133.201 214.943 132.669C219.062 128.547 225.745 128.547 229.864 132.669C232.171 134.978 232.647 137.872 232.959 140.126C233.014 140.565 233.068 141.005 233.087 141.445C233.49 147.454 230.267 151.814 226.496 156.504C219.941 164.656 209.798 173.468 209.798 173.468C207.876 175.392 204.8 175.813 202.383 174.311L183.177 158.134C181.584 157.145 180.797 155.111 181.493 153.188L181.456 153.243Z" fill="#FFF5CA"/>
<path d="M205.55 175.593C204.397 175.593 203.225 175.281 202.181 174.622L182.939 158.427C181.181 157.328 180.43 155.129 181.163 153.132C181.932 151.026 184.257 149.835 186.582 150.384C186.6 150.384 186.637 150.384 186.655 150.421L201.669 158.427L213.258 134.281C213.697 133.603 214.192 132.98 214.704 132.486C216.755 130.434 219.483 129.298 222.376 129.298C225.269 129.298 227.997 130.434 230.047 132.486C230.175 132.614 230.175 132.816 230.047 132.925C229.919 133.054 229.718 133.054 229.608 132.925C227.667 130.984 225.104 129.921 222.376 129.921C219.648 129.921 217.084 130.984 215.144 132.925C214.668 133.402 214.192 133.988 213.789 134.593L202.071 159.013C202.071 159.013 201.961 159.141 201.888 159.178C201.815 159.196 201.723 159.196 201.65 159.16L186.381 151.026C184.403 150.604 182.389 151.612 181.73 153.389C181.108 155.111 181.73 156.98 183.286 157.951L202.529 174.146C204.744 175.538 207.637 175.208 209.523 173.321C209.633 173.211 219.739 164.418 226.202 156.375C228.051 154.085 229.791 151.832 231.036 149.395C231.109 149.23 231.31 149.175 231.457 149.249C231.603 149.322 231.677 149.523 231.603 149.67C230.34 152.162 228.564 154.452 226.715 156.76C220.215 164.839 210.072 173.688 209.981 173.779C208.772 174.988 207.179 175.611 205.55 175.611V175.593Z" fill="#E2E2AF"/>
<path d="M191.837 216.85C210.329 219.671 226.715 211.848 232.61 199.299C235.759 192.631 235.247 185.834 234.35 181.382C222.705 188.399 213.295 189.736 206.722 189.608C196.267 189.388 189.75 185.394 176.86 187.758C170.763 188.875 165.49 191.019 164.575 191.385C159.357 193.528 155.201 196.075 152.088 198.273C155.494 203.183 161.023 209.375 168.566 210.2C179.222 211.354 188.157 202.908 191.562 205.821C192.551 206.664 192.203 208.862 191.837 216.85Z" fill="#A3829A"/>
<path d="M201.376 261.973C200.808 261.405 201.193 263.145 196.945 262.871C194.913 262.742 193.723 261.149 193.558 260.636C193.741 259.39 193.887 258.437 192.954 257.576C192.313 256.99 188.029 256.605 187.516 257.008C186.912 257.485 187.077 257.979 186.93 258.639C186.692 259.738 185.063 262.449 181.492 264.336C178.288 266.022 177.556 266.535 177.355 267.286C177.355 267.359 176.988 268.641 178.124 269.429C178.819 269.906 179.808 269.997 180.961 269.979C181.785 269.961 182.481 270.052 193.997 269.777C196.121 269.722 199.032 269.631 202.511 269.484C202.786 268.843 203.024 267.89 202.639 266.828C202.291 265.875 201.522 262.156 201.339 261.991L201.376 261.973Z" fill="#64546F"/>
<path d="M175.56 158.189C174.754 158.024 174.022 157.804 173.363 157.529C173.143 157.401 172.923 157.291 172.685 157.181C172.41 157.053 172.154 156.943 171.879 156.833C171.879 156.833 171.861 156.815 171.843 156.815C169.353 155.789 167.064 155.532 165.417 155.514C164.886 155.349 164.501 154.964 164.464 154.506C164.428 154.012 164.794 153.609 164.977 153.425C165.453 152.931 166.021 152.748 166.497 152.674C166.607 152.674 166.716 152.638 166.808 152.638C168.199 152.509 171.587 152.839 176.017 153.627L175.56 158.189Z" fill="#F9AFB6"/>
<path d="M187.68 151.338C186.966 154.269 186.234 157.218 185.52 160.149C184.769 159.563 183.597 158.812 182.059 158.317C179.24 157.42 176.786 157.914 175.688 158.208C175.651 158.189 175.614 158.189 175.56 158.171C174.754 158.006 174.022 157.786 173.362 157.511C172.831 157.31 172.337 157.09 171.879 156.834L171.843 156.815C170.58 156.137 169.609 155.386 168.859 154.8C167.98 154.122 167.192 153.389 166.497 152.657C165.856 151.997 165.325 151.319 164.831 150.66C164.41 150.073 164.025 149.505 163.695 148.956C163.421 148.498 163.183 148.058 162.963 147.655C162.597 146.959 163.055 146.025 163.805 146.025H163.824C164.245 146.025 164.556 146.245 164.684 146.336C164.757 146.263 164.94 146.061 165.215 145.878C165.453 145.732 165.764 145.567 166.131 145.512C166.954 145.383 167.577 145.786 167.797 145.915C167.797 145.915 167.815 145.951 167.833 145.951C168.108 145.75 168.566 145.475 169.097 145.512C169.133 145.512 169.17 145.512 169.206 145.512C169.463 145.548 169.682 145.658 169.866 145.787C170.177 146.006 170.396 146.336 170.543 146.519C171.605 147.93 172.52 148.883 173.051 149.414C172.612 148.901 172.008 148.022 172.227 147.454C172.392 147.032 172.978 146.922 173.033 146.904C173.637 146.794 174.131 147.215 174.681 147.692C175.834 148.699 176.566 149.451 176.75 149.615C176.75 149.615 177.299 150.055 177.995 150.385C179.313 150.989 180.961 150.238 182.187 150C183.396 149.762 185.19 149.835 187.698 151.283L187.68 151.338Z" fill="#F9AFB6"/>
<path d="M176.018 153.902C176.018 153.902 175.981 153.902 175.963 153.902C171.862 153.169 168.273 152.784 166.827 152.931C166.754 152.931 166.681 152.931 166.607 152.949H166.534C166.369 152.986 166.241 152.876 166.223 152.729C166.204 152.583 166.296 152.436 166.461 152.418H166.534C166.534 152.418 166.717 152.381 166.79 152.381C168.292 152.235 171.844 152.62 176.073 153.371C176.219 153.389 176.329 153.536 176.293 153.682C176.274 153.81 176.146 153.902 176.018 153.902Z" fill="#E59CA9"/>
<path d="M169.993 152.986C169.993 152.986 169.883 152.986 169.847 152.949C168.712 152.217 167.686 151.301 166.808 150.238C165.965 149.23 165.251 148.076 164.702 146.849C164.647 146.702 164.702 146.537 164.848 146.482C164.995 146.409 165.141 146.482 165.215 146.629C165.746 147.82 166.423 148.919 167.247 149.908C168.089 150.934 169.078 151.795 170.158 152.51C170.286 152.583 170.323 152.766 170.231 152.894C170.176 152.968 170.085 153.023 169.993 153.023V152.986Z" fill="#E59CA9"/>
<path d="M172.997 152.564C172.997 152.564 172.887 152.564 172.85 152.528C171.715 151.795 170.69 150.879 169.811 149.816C168.969 148.809 168.255 147.654 167.706 146.427C167.651 146.28 167.706 146.116 167.852 146.061C167.98 145.987 168.145 146.061 168.218 146.207C168.749 147.398 169.427 148.497 170.251 149.486C171.093 150.512 172.082 151.373 173.162 152.088C173.29 152.179 173.327 152.344 173.235 152.473C173.18 152.546 173.089 152.601 172.997 152.601V152.564Z" fill="#E59CA9"/>
<path d="M175.798 151.868C175.798 151.868 175.725 151.868 175.689 151.85C175.451 151.74 175.194 151.593 174.938 151.447C174.37 151.08 173.821 150.641 173.345 150.146C173.235 150.036 173.235 149.853 173.345 149.761C173.455 149.651 173.62 149.651 173.73 149.761C174.187 150.238 174.682 150.641 175.213 150.971C175.451 151.117 175.689 151.245 175.908 151.355C176.036 151.429 176.11 151.593 176.036 151.722C175.982 151.813 175.89 151.887 175.78 151.887L175.798 151.868Z" fill="#E59CA9"/>
<path d="M192.441 206.261C192.441 206.261 192.349 206.261 192.312 206.224C192.184 206.151 192.129 205.986 192.202 205.858C194.07 202.523 196.395 199.464 199.142 196.789C201.998 193.986 205.238 191.641 208.79 189.809C208.918 189.736 209.083 189.809 209.156 189.919C209.23 190.047 209.156 190.212 209.047 190.286C205.55 192.099 202.346 194.426 199.526 197.174C196.835 199.812 194.528 202.817 192.697 206.114C192.642 206.206 192.55 206.261 192.459 206.261H192.441Z" fill="#876B81"/>
<path d="M171.477 141.738C172.85 141.481 174.15 141.701 175.249 142.287C176.347 141.719 177.647 141.481 179.02 141.738C181.272 142.177 183.085 143.991 183.506 146.244C184.184 149.89 181.419 153.078 177.885 153.078C177.409 153.078 176.952 153.023 176.494 152.913C175.67 152.711 174.809 152.711 173.967 152.913C173.528 153.023 173.052 153.078 172.576 153.078C169.06 153.078 166.278 149.89 166.955 146.244C167.376 143.991 169.189 142.177 171.441 141.738H171.477Z" fill="#F766A1"/>
<path d="M174.864 137.762C174.15 139.429 174.993 141.389 174.993 141.389C174.993 141.389 177.006 140.657 177.721 138.99C178.435 137.322 177.592 135.362 177.592 135.362C177.592 135.362 175.578 136.095 174.846 137.762H174.864Z" fill="#B3AC15"/>
<path d="M175.268 142.58C175.14 142.58 175.03 142.488 174.993 142.36C174.865 141.829 174.426 140.455 173.052 139.557C171.533 138.568 169.958 138.843 169.5 138.953C169.354 138.989 169.208 138.898 169.171 138.751C169.134 138.605 169.226 138.458 169.372 138.421C169.867 138.293 171.643 137.982 173.345 139.099C174.902 140.107 175.396 141.627 175.524 142.232C175.561 142.378 175.469 142.525 175.323 142.562C175.304 142.562 175.286 142.562 175.268 142.562V142.58Z" fill="#AF9CAA"/>
<path d="M43.2973 142.067C43.2241 141.903 43.1142 141.756 43.0044 141.609H65.2312C66.2748 141.609 67.2635 142.214 67.6663 143.24C77.3516 166.836 81.9471 192.21 81.1599 217.729H58.0542C58.7133 191.807 53.6967 166.049 43.279 142.049L43.2973 142.067Z" fill="#CCBF64"/>
<path d="M55.3269 223.078H113.091V217.747H55.3269V223.078Z" fill="#C0AEBA"/>
<path d="M111.643 267.706L113.09 223.096H107.762L109.208 267.706H111.643Z" fill="#C0AEBA"/>
<path d="M59.1896 269.739L60.6543 223.096H55.3264L56.7728 269.739H59.1896Z" fill="#C0AEBA"/>
<path d="M101.134 269.739L102.599 223.096H97.2712L98.7176 269.739H101.134Z" fill="#AF9CAA"/>
<path d="M67.9037 267.706L69.3501 223.096H64.0222L65.4686 267.706H67.9037Z" fill="#AF9CAA"/>
<path d="M113.091 217.747H60.6548V202.706H102.747C108.459 202.706 113.091 207.341 113.091 213.057V217.729V217.747Z" fill="#D6CD78"/>
<path d="M41.3198 141.628H44.7801C45.8237 141.628 46.8124 142.232 47.2152 143.258C56.9005 166.855 61.496 192.228 60.7087 217.748H55.3992C56.0583 192.008 51.0051 166.488 40.862 142.617C40.4959 141.774 41.3014 141.609 41.3014 141.609L41.3198 141.628Z" fill="#C0AEBA"/>
<path d="M109.337 256.256L108.604 259.645C108.604 259.645 113.768 264.298 114.024 264.262C114.262 264.225 118.381 259.132 118.381 259.132L117.521 256.128L109.337 256.238V256.256Z" fill="#F9AFB6"/>
<path d="M128.745 269.74H118.675C113.988 268.897 110.07 267.578 107.067 266.369C106.921 265.746 106.792 264.922 106.866 263.969C107.031 261.826 108.092 260.305 108.605 259.664C108.935 259.939 111.663 262.082 115.013 261.203C116.752 260.763 117.888 259.682 118.382 259.151C120.451 260.873 122.63 262.632 124.955 264.409C126.072 265.252 127.17 266.076 128.269 266.864C129.276 267.615 129.331 268.897 128.745 269.74Z" fill="#F766A1"/>
<path d="M75.1542 241.893L73.8359 243.634L74.0007 252.702L79.9694 251.273L81.4524 245.814L75.1542 241.893Z" fill="#F9AFB6"/>
<path d="M73.8361 243.634C73.0122 243.597 71.163 243.615 69.3321 244.733C68.5082 245.227 67.904 245.814 67.5012 246.308C68.38 249.991 69.8997 254.754 72.646 259.884C73.6347 261.752 74.6783 263.438 75.7219 264.977C76.857 266.662 79.4935 265.838 79.4935 263.804C79.4935 262.448 79.5118 261.074 79.5484 259.664C79.6216 256.751 79.7681 253.948 79.9695 251.273C79.2372 251.182 77.7175 250.907 76.3261 249.734C73.6713 247.518 73.8178 244.055 73.8361 243.615V243.634Z" fill="#F766A1"/>
<path d="M83.3568 184.881C83.009 187.08 82.7526 190.615 83.8695 194.682C86.0299 202.469 91.7605 206.664 93.6097 207.91C99.4868 208.569 105.364 209.229 111.241 209.888C110.417 223.408 109.319 256.256 109.319 256.256L117.503 256.146C117.503 256.146 130.099 223.665 136.635 209.229C139.821 202.194 136.727 193.913 129.733 190.67C121.787 186.988 113.841 183.324 105.877 179.642L83.3385 184.9L83.3568 184.881Z" fill="#B4C7FF"/>
<path d="M67.208 176.784C66.2377 178.781 64.9744 182.097 64.8828 186.329C64.718 194.408 68.984 200.087 70.3937 201.791C75.8315 204.117 81.2692 206.444 86.7069 208.789C82.0198 221.503 73.8541 243.634 73.8541 243.634L80.9579 247.701C80.9579 247.701 100.805 227.421 111.222 215.476C116.294 209.668 115.726 200.838 109.959 195.727C103.404 189.919 96.8499 184.094 90.3137 178.286L67.2263 176.802L67.208 176.784Z" fill="#B4C7FF"/>
<path d="M111.204 215.751C111.204 215.751 111.076 215.732 111.021 215.677C110.911 215.586 110.893 215.403 111.003 215.293C115.965 209.613 115.397 200.93 109.776 195.928L99.7613 187.025C99.6515 186.933 99.6331 186.75 99.743 186.64C99.8528 186.53 100.018 186.512 100.127 186.622L110.142 195.525C116.001 200.728 116.569 209.76 111.424 215.677C111.369 215.732 111.296 215.769 111.223 215.769L111.204 215.751Z" fill="#8AA8FF"/>
<path d="M115.269 138.147L117.942 167.459L111.809 161.303L133.797 169.621C135.573 170.298 136.47 172.277 135.811 174.072C135.299 175.446 133.98 176.289 132.589 176.307H109.081C106.389 176.326 104.119 174.512 103.441 172.021L102.947 170.17L95.2757 141.756C93.811 136.315 97.0334 130.709 102.471 129.243C107.909 127.778 113.511 131.002 114.976 136.443C115.122 137.011 115.232 137.615 115.287 138.183L115.269 138.147Z" fill="#F766A1"/>
<path d="M109.667 181.382C92.6217 187.831 67.2091 176.784 67.2091 176.784C65.3233 169.492 63.8952 163.044 62.815 157.694C60.2334 144.833 59.7025 138.55 63.2361 133.53C63.822 132.687 64.4079 132.064 64.774 131.698C67.6485 129.536 75.1002 124.59 85.8474 123.912C98.4255 123.124 107.488 128.693 110.345 130.599C110.253 132.211 110.528 135.893 111.37 139.063C112.468 144.027 113.439 145.658 113.878 148.039C115.471 156.741 110.454 160.112 109.539 172.625C109.264 176.472 109.484 179.586 109.667 181.4V181.382Z" fill="#F766A1"/>
<path d="M109.41 176.289C109.264 176.289 109.135 176.161 109.135 176.014C109.135 174.879 109.19 173.724 109.264 172.589C109.685 166.781 110.966 162.989 112.102 159.636C113.401 155.752 114.445 152.693 113.603 148.076C113.42 147.032 113.127 146.153 112.742 145.017C112.285 143.625 111.699 141.884 111.095 139.118C111.058 138.971 111.149 138.825 111.296 138.788C111.442 138.751 111.589 138.843 111.626 138.99C112.23 141.719 112.797 143.46 113.255 144.834C113.639 145.988 113.932 146.886 114.134 147.966C114.994 152.73 113.951 155.844 112.614 159.801C111.497 163.135 110.216 166.891 109.795 172.625C109.721 173.743 109.666 174.879 109.666 176.014C109.666 176.161 109.538 176.289 109.392 176.289H109.41Z" fill="#E2397E"/>
<path d="M101.171 128.987C100.952 129.756 99.8166 135.93 95.7887 137.213C91.1383 138.678 84.126 134.593 81.8191 126.184C82.4233 125.671 85.3527 116.694 85.1147 115.503C85.1696 115.632 85.6274 115.797 86.3231 115.961C89.3807 116.658 97.1069 117.427 97.1069 117.427C97.1069 117.427 98.7914 122.703 100.11 126.422C100.769 128.236 100.897 128.712 101.171 128.987Z" fill="#F9AFB6"/>
<path d="M83.7599 106.288C87.2484 106.288 90.0764 103.458 90.0764 99.9674C90.0764 96.4767 87.2484 93.647 83.7599 93.647C80.2714 93.647 77.4434 96.4767 77.4434 99.9674C77.4434 103.458 80.2714 106.288 83.7599 106.288Z" fill="#64546F"/>
<path d="M99.6336 124.81C93.848 126.129 88.5202 124.425 86.195 120.761C84.895 118.728 84.7486 116.42 84.9316 114.697C85.2429 114.588 85.5175 114.459 85.8288 114.349C88.9046 115.046 96.631 115.815 96.631 115.815C96.631 115.815 98.3154 121.091 99.6336 124.81Z" fill="#E59CA9"/>
<path d="M101.08 107.607C103.844 112.077 104.448 118.269 102.379 119.845C101.592 120.45 100.109 120.596 98.791 122.08C98.553 122.355 98.1502 122.849 97.4362 123.069C96.6306 123.307 95.8982 123.033 95.6236 122.941C93.5913 122.263 91.7238 123.088 90.2591 122.978C87.1283 122.758 84.5651 118.16 83.6313 115.21C82.1117 110.465 82.4596 102.441 87.5128 100.242C92.4195 98.099 98.5347 103.467 101.098 107.607H101.08Z" fill="#F9AFB6"/>
<path d="M93.28 114.092C93.5363 114.312 93.573 114.678 93.3716 114.935C93.1519 115.191 92.7857 115.228 92.5294 115.027C92.273 114.807 92.2364 114.44 92.4378 114.184C92.6575 113.927 93.0237 113.891 93.28 114.092Z" fill="#64546F"/>
<path d="M99.3225 111.931C99.5789 112.151 99.6155 112.517 99.4141 112.774C99.1944 113.03 98.8282 113.067 98.5719 112.865C98.3155 112.645 98.2789 112.279 98.4803 112.022C98.7 111.766 99.0662 111.729 99.3225 111.931Z" fill="#64546F"/>
<path d="M90.2224 114.147C90.2224 114.147 90.0942 114.147 90.0393 114.147C89.9111 114.074 89.8562 113.928 89.9111 113.781C90.0942 113.396 90.4421 112.847 91.0646 112.425C91.3392 112.242 91.6321 112.096 91.9617 112.004C92.0715 111.986 92.2546 112.041 92.2912 112.187C92.3278 112.334 92.2546 112.48 92.1082 112.517C91.8335 112.59 91.5955 112.718 91.3575 112.865C90.8266 113.213 90.5336 113.689 90.3871 114.001C90.3505 114.074 90.2773 114.129 90.204 114.147H90.2224Z" fill="#64546F"/>
<path d="M99.817 110.667C99.817 110.667 99.7071 110.667 99.6705 110.667C99.4142 110.575 99.1396 110.52 98.865 110.502C98.2242 110.465 97.7115 110.667 97.4003 110.832C97.2721 110.905 97.1074 110.832 97.0341 110.722C96.9609 110.594 97.0341 110.429 97.144 110.356C97.5285 110.154 98.1326 109.934 98.8833 109.952C99.2128 109.952 99.5424 110.026 99.8536 110.136C100 110.191 100.073 110.337 100.018 110.484C99.9818 110.575 99.9086 110.63 99.8354 110.649L99.817 110.667Z" fill="#64546F"/>
<path d="M97.5099 117.28C97.3817 117.317 97.2536 117.243 97.1986 117.134C97.1437 117.005 97.1986 116.84 97.3268 116.785C97.5465 116.676 97.693 116.547 97.7113 116.437C97.7296 116.327 97.638 116.199 97.4549 115.924L97.3817 115.815C97.0521 115.32 96.7409 114.807 96.5761 114.514C96.3564 114.038 96.2283 113.506 96.2283 112.92C96.2283 112.773 96.3381 112.645 96.5029 112.645C96.6494 112.645 96.7775 112.773 96.7775 112.92C96.7775 113.433 96.8691 113.873 97.0705 114.276C97.1986 114.55 97.5099 115.063 97.8211 115.521L97.8944 115.631C98.1324 115.979 98.2971 116.218 98.2422 116.547C98.1873 116.84 97.9493 117.097 97.5648 117.28C97.5648 117.28 97.5282 117.28 97.5099 117.298V117.28Z" fill="#64546F"/>
<path d="M97.5823 120.541C97.5823 120.541 97.4541 120.56 97.3992 120.578C96.6668 120.706 96.0443 120.578 95.6599 120.468C95.5134 120.413 95.4401 120.267 95.495 120.138C95.55 119.992 95.6965 119.919 95.8246 119.974C96.1542 120.083 96.6851 120.193 97.3076 120.065C98.0583 119.919 98.5527 119.552 98.8639 119.277C98.9738 119.167 99.1385 119.186 99.2484 119.277C99.3582 119.387 99.3399 119.552 99.2484 119.662C98.9188 119.974 98.3695 120.377 97.6189 120.56L97.5823 120.541Z" fill="#64546F"/>
<path d="M80.2997 110.099C80.0617 108.523 80.1715 107.296 80.2265 106.911C80.318 106.087 80.9405 101.268 84.5656 98.8869C89.6189 95.5892 96.3565 99.5281 98.8099 101.818C100.86 103.723 101.41 105.885 101.446 106.746C101.446 107.149 101.373 107.314 101.263 107.369C100.769 107.68 99.8535 106.013 98.4986 106.032C97.3635 106.032 97.2353 107.186 95.8073 107.424C94.6721 107.607 94.4341 107.021 93.1159 107.021C91.1202 107.021 89.6372 108.487 89.4541 108.67C88.6119 109.531 88.264 110.557 87.6049 112.627C87.074 114.257 86.781 115.65 86.6712 115.631C86.4881 115.595 87.6598 111.931 86.3599 110.978C85.5177 110.355 83.577 110.905 83.046 112.041C82.094 114.056 86.0853 116.932 85.1882 118.288C85.1516 118.361 85.0966 118.361 85.0966 118.379C84.3093 118.727 81.0138 114.734 80.2997 110.117V110.099Z" fill="#64546F"/>
<path d="M86.781 112.297C86.8542 113.928 86.0669 115.302 85.0233 115.339C83.9614 115.394 83.046 114.111 82.9727 112.481C82.8995 110.85 83.6868 109.476 84.7304 109.44C85.7923 109.385 86.7078 110.667 86.781 112.297Z" fill="#F9AFB6"/>
<path d="M107.562 162.109C107.562 162.109 107.507 162.109 107.489 162.109C103.9 161.028 100.183 160.479 96.4484 160.534C93.4823 160.552 90.5163 160.955 87.6235 161.688C87.477 161.725 87.3306 161.633 87.294 161.486C87.2573 161.34 87.3489 161.193 87.4953 161.157C90.4247 160.405 93.4457 160.021 96.4484 159.984H96.7962C100.458 159.984 104.12 160.515 107.653 161.578C107.8 161.615 107.873 161.779 107.836 161.926C107.8 162.054 107.69 162.128 107.58 162.128L107.562 162.109Z" fill="#E2397E"/>
<path d="M80.0606 135.729L91.2655 159.746L81.3422 156.76L103.423 150.678C105.253 150.165 107.158 151.246 107.67 153.096C108.055 154.507 107.505 155.954 106.407 156.778L88.0432 170.482C85.2969 172.534 81.4154 171.966 79.3648 169.218V169.181L78.1198 167.496L62.5391 146.061C59.2252 141.499 60.2322 135.106 64.7911 131.79C69.35 128.474 75.7397 129.481 79.0536 134.043C79.4381 134.574 79.786 135.161 80.0423 135.729H80.0606Z" fill="#F766A1"/>
<path d="M88.9043 154.965C88.7944 154.965 88.7028 154.91 88.6479 154.8L79.8048 135.839C79.5302 135.271 79.1823 134.684 78.8344 134.19C76.4909 130.965 72.4813 129.463 68.5998 130.343C68.435 130.361 68.3069 130.288 68.2703 130.141C68.2337 129.994 68.3252 129.848 68.4717 129.811C72.5545 128.895 76.8022 130.489 79.2738 133.878C79.64 134.391 80.0062 134.996 80.2991 135.619L89.0507 154.378L103.35 150.44C104.302 150.183 105.309 150.293 106.169 150.788C107.03 151.282 107.652 152.07 107.927 153.041C107.964 153.188 107.89 153.334 107.744 153.371C107.597 153.426 107.451 153.334 107.414 153.188C106.957 151.502 105.199 150.513 103.515 150.971L88.9958 154.983C88.9958 154.983 88.9409 154.983 88.9225 154.983L88.9043 154.965Z" fill="#E2397E"/>
<path d="M106.133 156.87C106.133 156.87 115.14 150.293 115.397 149.432C115.525 148.974 115.488 148.37 115.122 147.93C114.719 147.435 113.987 147.197 113.456 147.399C112.888 147.619 112.888 148.223 112.284 149.029C111.79 149.707 111.186 150.11 110.746 150.367C111.076 148.791 111.479 147.527 111.827 146.611C112.596 144.522 113.053 144.156 113.493 143.991C114.298 143.698 115.14 144.138 115.562 144.376C115.635 144.431 116.147 144.742 116.623 144.522C117.246 144.266 117.283 143.387 117.283 143.295C117.283 142.434 116.495 141.555 115.269 141.097C115.562 140.785 115.58 140.309 115.324 139.997C115.104 139.723 114.738 139.613 114.39 139.723C114.317 139.484 114.17 139.173 113.841 138.953C113.328 138.605 112.669 138.788 112.01 138.99C109.922 139.613 108.861 139.924 108.549 140.126C107.14 141.023 106.462 142.269 106.041 143.057C104.631 145.695 105.199 146.428 103.899 148.498C103.148 149.689 100.915 150.971 100.915 150.971L106.169 156.815L106.133 156.87Z" fill="#F9AFB6"/>
<path d="M110.857 152.675C110.857 152.675 110.802 152.675 110.783 152.675C110.637 152.638 110.564 152.473 110.6 152.327L113.035 144.486C113.072 144.339 113.237 144.266 113.383 144.302C113.53 144.339 113.603 144.504 113.566 144.651L111.131 152.491C111.095 152.601 110.985 152.693 110.875 152.693L110.857 152.675Z" fill="#AF9CAA"/>
<path d="M113.53 141.279C113.53 141.279 113.475 141.279 113.456 141.279C113.31 141.243 113.237 141.078 113.273 140.931L115.177 134.776C115.214 134.629 115.379 134.556 115.525 134.592C115.672 134.629 115.745 134.794 115.708 134.94L113.804 141.096C113.768 141.206 113.658 141.297 113.548 141.297L113.53 141.279Z" fill="#AF9CAA"/>
<path d="M109.703 143.771C109.703 143.771 109.593 143.771 109.556 143.716C109.428 143.625 109.392 143.46 109.483 143.332C109.886 142.727 110.765 141.646 112.284 141.115C112.98 140.858 113.731 140.767 114.482 140.822C114.628 140.822 114.756 140.968 114.738 141.115C114.738 141.261 114.591 141.371 114.445 141.371C113.767 141.335 113.09 141.426 112.468 141.646C111.113 142.122 110.307 143.112 109.941 143.661C109.886 143.735 109.794 143.79 109.721 143.79L109.703 143.771Z" fill="#E59CA9"/>
<path d="M108.88 142.562C108.88 142.562 108.771 142.562 108.716 142.507C108.587 142.416 108.569 142.251 108.661 142.122C109.118 141.481 109.686 140.932 110.327 140.51C111.389 139.814 112.469 139.576 113.165 139.484C113.33 139.484 113.458 139.576 113.458 139.722C113.458 139.869 113.366 140.016 113.22 140.016C112.579 140.089 111.608 140.309 110.62 140.95C110.016 141.335 109.503 141.848 109.082 142.434C109.027 142.507 108.935 142.544 108.862 142.544L108.88 142.562Z" fill="#E59CA9"/>
<path d="M246.433 175.978H53.8428L38.8662 191.22H233.104L246.433 175.978Z" fill="#796A84"/>
<path d="M45.6767 191.22H42.3262V276.5H45.6767V191.22Z" fill="#796A84"/>
<path d="M60.6545 191.22H57.304V270.564H60.6545V191.22Z" fill="#796A84"/>
<path d="M226.989 276.481H230.339V191.202H226.989V276.481Z" fill="#796A84"/>
<path d="M242.148 276.5H245.499V177.26H242.148V276.5Z" fill="#796A84"/>
<path d="M233.086 191.22H38.8662V193.62H233.086V191.22Z" fill="#796A84"/>
<path d="M246.432 178.359L233.085 193.602V191.22L246.432 175.978V178.359Z" fill="#796A84"/>
<path d="M106.572 191.202C116.472 191.202 124.497 188.282 124.497 184.68C124.497 181.078 116.472 178.158 106.572 178.158C96.6732 178.158 88.6482 181.078 88.6482 184.68C88.6482 188.282 96.6732 191.202 106.572 191.202Z" fill="white"/>
<path d="M192.037 191.569C201.936 191.569 209.961 188.649 209.961 185.047C209.961 181.445 201.936 178.525 192.037 178.525C182.138 178.525 174.113 181.445 174.113 185.047C174.113 188.649 182.138 191.569 192.037 191.569Z" fill="white"/>
<path d="M102.325 182.207C102.582 182.683 102.124 183.398 101.318 183.819C100.513 184.24 99.6705 184.204 99.4142 183.746C99.1579 183.269 99.6156 182.555 100.403 182.134C101.208 181.712 102.051 181.749 102.307 182.207H102.325Z" fill="#B3AC15"/>
<path d="M100.22 183.306C100.641 183.617 100.549 184.46 100 185.193C99.4508 185.907 98.6818 186.237 98.2424 185.926C97.8212 185.614 97.9128 184.771 98.4621 184.039C99.0114 183.324 99.7803 182.994 100.22 183.306Z" fill="#B3AC15"/>
<path d="M101.611 182.573C101.629 183.104 102.398 183.489 103.295 183.453C104.192 183.416 104.906 182.94 104.888 182.408C104.87 181.877 104.101 181.492 103.204 181.529C102.307 181.566 101.593 182.042 101.611 182.573Z" fill="#B3AC15"/>
<path d="M102.27 182.61C102.344 183.013 102.417 183.544 102.38 184.13C102.38 184.222 102.38 184.313 102.362 184.387C102.014 183.782 101.959 183.196 101.959 182.866C101.428 183.141 100.916 183.416 100.385 183.69C100.659 184.002 100.989 184.423 101.245 184.955C101.282 185.028 101.318 185.119 101.355 185.193C101.208 185.138 101.044 185.046 100.897 184.955C100.311 184.57 99.9818 184.057 99.8353 183.764C99.4875 184.24 99.1579 184.735 98.8101 185.211C99.1945 185.358 99.6705 185.596 100.147 185.944C100.568 186.255 101.483 187.556 101.739 187.849L104.486 186.567C104.358 186.274 103.607 184.845 103.607 184.277C103.607 183.562 103.863 183.031 104.046 182.738C103.46 182.701 102.856 182.683 102.27 182.646V182.61Z" fill="#B3AC15"/>
<path d="M108.111 187.447C107.873 186.97 108.313 186.256 109.118 185.835C109.924 185.413 110.766 185.45 111.004 185.926C111.242 186.402 110.803 187.117 109.997 187.538C109.192 187.96 108.349 187.923 108.111 187.447Z" fill="#B3AC15"/>
<path d="M110.215 186.366C109.794 186.054 109.904 185.193 110.435 184.479C110.966 183.764 111.772 183.435 112.193 183.746C112.614 184.057 112.504 184.918 111.973 185.633C111.424 186.347 110.636 186.677 110.215 186.366Z" fill="#B3AC15"/>
<path d="M108.824 187.08C108.806 186.549 108.056 186.146 107.14 186.201C106.243 186.237 105.529 186.695 105.547 187.226C105.566 187.758 106.316 188.161 107.232 188.106C108.147 188.051 108.843 187.611 108.824 187.08Z" fill="#B3AC15"/>
<path d="M108.166 187.044C108.092 186.641 108.037 186.109 108.074 185.523C108.074 185.431 108.074 185.34 108.092 185.267C108.44 185.871 108.495 186.457 108.495 186.787C109.026 186.512 109.539 186.238 110.07 185.963C109.795 185.651 109.484 185.23 109.209 184.699C109.173 184.625 109.136 184.534 109.099 184.46C109.246 184.534 109.411 184.607 109.557 184.717C110.143 185.102 110.472 185.615 110.619 185.926C110.967 185.45 111.315 184.973 111.663 184.479C111.278 184.332 110.802 184.094 110.326 183.746C109.905 183.435 108.989 182.134 108.733 181.841L105.969 183.123C106.097 183.416 106.847 184.845 106.829 185.431C106.829 186.146 106.554 186.677 106.39 186.97C106.976 187.007 107.58 187.044 108.166 187.062V187.044Z" fill="#B3AC15"/>
<path d="M170.397 170.628C171.166 170.006 176.127 166.818 177.592 166.616C178.544 166.47 179.441 166.891 180.027 167.789C180.32 168.247 180.576 168.65 180.778 169.016C182.664 172.405 182.682 174.824 183.286 176.894C183.286 176.949 183.359 177.132 183.323 177.37C183.268 177.81 182.993 178.14 182.92 178.231C182.499 178.726 182.481 178.286 182.371 178.286C182.298 178.488 182.206 178.799 181.785 179.111C181.217 179.514 180.741 179.294 180.284 178.561C180.155 178.653 179.771 178.909 179.295 178.836C178.801 178.763 178.544 178.378 178.471 178.25C178.068 177.663 177.684 177.059 177.281 176.473C177.189 176.912 177.08 177.26 176.768 177.462C176.329 177.737 174.516 175.666 173.29 175.831C172.869 175.886 172.887 177.572 171.477 177.425C169.371 177.205 168.694 177.04 168.694 177.04C168.694 177.04 170.122 170.976 170.379 170.665L170.397 170.628Z" fill="#F9AFB6"/>
<path d="M177.281 176.729C177.281 176.729 177.116 176.692 177.062 176.619C176.586 175.978 176.073 175.41 175.487 174.934C174.956 174.494 174.388 174.128 173.784 173.853C173.638 173.798 173.583 173.633 173.656 173.486C173.711 173.34 173.876 173.285 174.022 173.358C174.663 173.651 175.286 174.054 175.835 174.512C176.439 175.025 177.007 175.612 177.501 176.289C177.592 176.418 177.556 176.583 177.446 176.674C177.391 176.711 177.336 176.729 177.281 176.729Z" fill="#E59CA9"/>
<path d="M180.283 178.817C180.155 178.817 180.045 178.726 180.008 178.597C179.697 177.059 179.184 175.685 178.47 174.494C177.738 173.248 176.804 172.277 175.724 171.581C175.596 171.508 175.559 171.324 175.651 171.196C175.724 171.068 175.907 171.031 176.035 171.123C177.189 171.874 178.177 172.9 178.946 174.219C179.697 175.465 180.228 176.894 180.539 178.488C180.576 178.634 180.466 178.781 180.319 178.817C180.319 178.817 180.283 178.817 180.265 178.817H180.283Z" fill="#E59CA9"/>
<path d="M182.335 178.066C182.206 178.066 182.097 177.975 182.06 177.865C181.694 176.436 181.199 175.099 180.614 173.871C179.991 172.625 179.277 171.49 178.435 170.5C178.343 170.39 178.362 170.207 178.471 170.116C178.581 170.024 178.764 170.042 178.856 170.152C179.716 171.178 180.467 172.351 181.108 173.651C181.73 174.915 182.225 176.289 182.609 177.755C182.646 177.902 182.554 178.048 182.408 178.085C182.39 178.085 182.371 178.085 182.335 178.085V178.066Z" fill="#E59CA9"/>
<path d="M117.576 127.76C117.832 128.236 117.375 128.95 116.569 129.372C115.763 129.793 114.921 129.757 114.665 129.299C114.408 128.822 114.866 128.108 115.672 127.686C116.477 127.265 117.32 127.302 117.576 127.76Z" fill="#B3AC15"/>
<path d="M115.471 128.858C115.892 129.17 115.8 130.012 115.251 130.745C114.702 131.46 113.933 131.789 113.494 131.478C113.072 131.166 113.164 130.324 113.713 129.591C114.263 128.876 115.032 128.547 115.471 128.858Z" fill="#B3AC15"/>
<path d="M116.862 128.126C116.88 128.657 117.649 129.042 118.546 129.005C119.443 128.968 120.158 128.492 120.139 127.961C120.121 127.429 119.352 127.045 118.455 127.081C117.558 127.118 116.844 127.594 116.862 128.126Z" fill="#B3AC15"/>
<path d="M117.522 128.163C117.595 128.566 117.668 129.097 117.632 129.683C117.632 129.775 117.632 129.866 117.613 129.94C117.266 129.335 117.211 128.749 117.211 128.419C116.68 128.694 116.167 128.969 115.636 129.243C115.911 129.555 116.24 129.976 116.497 130.508C116.533 130.581 116.57 130.672 116.606 130.746C116.46 130.672 116.295 130.599 116.149 130.508C115.563 130.123 115.233 129.61 115.087 129.317C114.739 129.793 114.409 130.288 114.062 130.764C114.446 130.911 114.922 131.149 115.398 131.497C115.819 131.808 116.735 133.109 116.991 133.402L119.737 132.12C119.609 131.827 118.858 130.398 118.858 129.83C118.858 129.115 119.115 128.584 119.298 128.291C118.712 128.254 118.108 128.236 117.522 128.199V128.163Z" fill="#B3AC15"/>
<path d="M116.075 135.417C115.819 135.417 115.544 135.381 115.288 135.271C114.08 134.831 113.457 133.494 113.897 132.303L114.409 130.911C114.464 130.764 114.611 130.691 114.757 130.746C114.904 130.801 114.977 130.947 114.922 131.094L114.409 132.486C114.08 133.402 114.556 134.428 115.471 134.758C116.386 135.088 117.412 134.611 117.741 133.695L118.254 132.303C118.309 132.156 118.455 132.083 118.602 132.138C118.748 132.193 118.822 132.34 118.767 132.486L118.254 133.878C117.906 134.831 117.009 135.417 116.075 135.417Z" fill="#AF9CAA"/>
<path d="M115.379 135.307C115.379 135.307 115.324 135.307 115.288 135.307C115.141 135.252 115.068 135.106 115.123 134.959L116.404 131.423C116.459 131.277 116.606 131.204 116.752 131.259C116.899 131.314 116.972 131.46 116.917 131.607L115.635 135.142C115.599 135.252 115.489 135.326 115.379 135.326V135.307Z" fill="#AF9CAA"/>
<path d="M139.18 168.815C138.301 168.21 137.55 168.009 136.323 167.679C134.401 167.166 132.79 167.147 130.996 167.166C130.117 167.166 128.89 167.239 127.425 167.404C126.675 170.207 125.942 172.955 125.192 175.758C125.576 175.685 128.414 175.703 129.146 175.611C133.302 175.959 136.983 176.784 137.99 176.82C138.63 176.839 139.289 176.491 139.161 175.795C139.07 175.355 138.868 175.428 137.66 174.329C137.294 173.999 135.719 173.724 135.719 173.724C135.847 173.541 136.818 173.065 138.813 174.036C140.278 174.769 141.706 175.593 142.329 176.436C142.384 176.509 142.658 176.894 143.171 177.114C143.922 177.443 144.983 177.352 145.203 176.894C145.313 176.656 140.333 169.621 139.18 168.833V168.815Z" fill="#F9AFB6"/>
</svg>
