<svg width="196" height="196" viewBox="0 0 196 196" fill="none" xmlns="http://www.w3.org/2000/svg">
<g clip-path="url(#clip0_664_9010)">
<path d="M22.4526 125.016C23.0301 123.115 24.6546 122.77 26.287 122.358C29.2922 121.596 29.2846 121.568 28.5014 118.629C28.3267 117.977 28.1187 117.33 27.9934 116.669C27.7206 115.232 28.4943 113.998 29.823 113.677C31.0903 113.367 32.3405 114.024 32.776 115.344C33.1968 116.625 33.5363 117.94 33.8374 119.257C34.0163 120.037 34.3277 120.282 35.1258 120.025C36.3613 119.629 37.6232 119.299 38.8889 119.016C40.4093 118.669 41.6958 119.446 42.0193 120.83C42.3295 122.149 41.6103 123.377 40.1806 123.821C38.9418 124.204 37.6843 124.55 36.4175 124.829C35.6069 125.007 35.4299 125.361 35.6764 126.136C36.0512 127.325 36.3626 128.536 36.6488 129.749C37.0197 131.311 36.3497 132.577 34.9951 132.979C33.58 133.397 32.3015 132.618 31.8226 131.008C31.4809 129.861 31.1301 128.713 30.9073 127.543C30.7177 126.546 30.2585 126.41 29.3914 126.716C28.5595 127.008 27.6618 127.119 26.8393 127.43C25.4021 127.975 24.1145 127.854 22.9371 126.841L22.4519 125.03L22.4526 125.016Z" fill="#38D0BE"/>
<path d="M182.604 104.742C182.09 106.204 181.046 107.01 179.519 107.186C178.461 107.31 178.049 107.787 178.52 108.834C178.647 109.115 178.697 109.43 178.765 109.735C179.136 111.374 178.43 112.685 176.996 113.03C175.622 113.36 174.428 112.592 173.949 111.06C173.825 110.662 173.691 110.262 173.626 109.857C173.504 109.048 173.117 108.811 172.341 109.101C171.808 109.3 171.247 109.446 170.682 109.528C169.34 109.72 168.123 108.911 167.872 107.637C167.605 106.285 168.17 105.318 169.408 104.741C169.454 104.72 169.509 104.714 169.555 104.693C170.313 104.382 171.419 104.564 171.812 103.859C172.2 103.165 171.514 102.296 171.387 101.484C171.174 100.109 171.872 98.9301 173.123 98.5604C174.43 98.1756 175.701 98.8617 176.21 100.231C176.227 100.278 176.237 100.331 176.254 100.379C176.977 102.514 176.983 102.551 179.271 102.059C180.429 101.809 181.249 102.375 182.115 102.932L182.6 104.743L182.604 104.742Z" fill="#38D0BE"/>
<path d="M77.8578 90.4703C79.9419 86.6895 81.8856 82.8515 83.4002 78.7963C86.4285 70.6992 87.5508 62.3146 87.4375 53.7134C87.4004 50.9669 87.2519 48.2072 87.768 45.4807C88.463 41.7961 90.7764 39.8692 94.514 39.5061C99.4251 39.0313 102.346 41.6262 104.168 46.172C106.524 52.0329 106.589 58.2184 106.574 64.391C106.563 68.3926 106.283 72.3845 105.706 76.3481C105.517 77.641 105.82 77.8057 107.039 77.4749C118.543 74.3493 130.057 71.2812 141.572 68.1958C145.722 67.084 149.468 68.8625 150.681 72.519C152.23 77.1766 150.773 80.5607 146.414 82.4361C146.337 82.4697 146.279 82.5586 146.143 82.6943C149.999 84.2537 152.714 86.7095 152.754 91.1721C152.78 93.8612 151.02 96.084 147.594 97.8174C151.397 99.3736 154.124 101.757 154.208 106.161C154.262 108.989 152.64 111.11 149.044 112.971C151.58 113.965 153.635 115.373 154.891 117.853C156.879 121.781 155 126.65 150.768 127.805C137.561 131.4 124.34 134.96 111.095 138.414C107.615 139.321 104.206 138.625 100.952 137.073C96.9663 135.173 92.9405 133.366 88.9292 131.516C88.7384 130.868 88.5315 130.225 88.3539 129.578C84.8529 116.544 81.3518 103.51 77.8538 90.4713L77.8578 90.4703Z" fill="#FEC09E"/>
<path d="M77.8577 90.4702C81.3587 103.504 84.8557 116.539 88.3578 129.577C88.5325 130.229 88.7383 130.868 88.9332 131.515C89.8725 135.085 90.7687 138.671 91.7725 142.224C92.0701 143.27 91.8671 143.639 90.7994 143.921C81.9936 146.233 73.1997 148.59 64.4176 150.99C63.3159 151.29 63.0216 150.98 62.7509 149.97C58.2681 133.127 53.7571 116.292 49.219 99.4682C48.9656 98.5224 49.0752 98.1264 50.1025 97.8554C59.3602 95.4266 68.6068 92.9404 77.8537 90.4713L77.8577 90.4702Z" fill="#4874D7"/>
<path d="M62.6105 73.6043C50.3596 70.5933 38.3036 67.6336 26.2516 64.6729C20.5022 63.2586 14.7583 61.8169 8.99953 60.4482C7.92589 60.1924 7.7278 59.9522 8.44571 59.0092C13.6809 52.1454 18.8885 45.2587 24.0869 38.3702C24.5387 37.7703 24.8377 37.3408 25.6132 38.0777C37.8667 49.7757 50.143 61.446 62.4145 73.1306C62.4771 73.1871 62.485 73.2972 62.6105 73.6043Z" fill="#FF80A9"/>
<path d="M129.365 50.554C130.327 44.2441 131.236 38.298 132.136 32.35C133.312 24.6024 134.494 16.8576 135.635 9.10653C135.799 7.99704 135.976 7.64335 137.05 8.46417C143.856 13.6761 150.698 18.848 157.544 24.0148C158.188 24.5023 158.688 24.791 157.781 25.5906C148.551 33.7274 139.353 41.8991 130.146 50.0557C130.007 50.1794 129.83 50.2612 129.365 50.554Z" fill="#FF80A9"/>
<path d="M163.913 140.192C164.246 139.839 164.687 139.941 165.086 139.951C173.023 140.175 180.955 140.413 188.892 140.655C189.04 140.658 189.186 140.736 189.326 140.776C189.528 141.209 189.193 141.471 189.028 141.757C186.516 146.131 183.989 150.497 181.472 154.868C181.135 155.459 180.922 156.146 180.049 155.318C174.696 150.248 169.309 145.212 163.937 140.168L163.914 140.196L163.913 140.192Z" fill="#FF80A9"/>
<path d="M60.6517 163.128C58.931 171.63 57.2012 180.13 55.5078 188.637C55.3384 189.502 55.0019 189.566 54.2432 189.343C50.3052 188.185 46.3546 187.061 42.4014 185.959C41.6042 185.737 41.3289 185.53 41.978 184.765C48.0487 177.574 54.0967 170.363 60.152 163.163C60.2145 163.09 60.325 163.052 60.4141 162.998C60.4917 163.046 60.5682 163.09 60.6517 163.128Z" fill="#FF80A9"/>
<path d="M76.9766 38.8692C77.3614 40.1766 76.6871 41.4918 75.3001 41.9497C74.2146 42.3096 73.1089 42.6749 71.9856 42.8292C70.5214 43.0317 70.3712 43.7104 70.8335 44.9367C71.2004 45.9038 71.4199 46.9321 71.6533 47.9479C72.011 49.5085 71.3228 50.7714 69.9547 51.1552C68.5855 51.535 67.3126 50.7933 66.8545 49.2769C66.4778 48.032 66.1363 46.7733 65.8452 45.5098C65.6763 44.7829 65.3548 44.5973 64.6408 44.8145C63.397 45.1952 62.1373 45.5327 60.8737 45.8239C59.3303 46.1813 58.0567 45.4528 57.697 44.0782C57.3403 42.6986 58.0887 41.4671 59.6172 41.0057C60.662 40.687 61.7113 40.3368 62.7849 40.1742C64.1449 39.9694 64.3264 39.3427 63.8851 38.1626C63.5041 37.1431 63.2677 36.0676 63.0294 35.0013C62.6832 33.4678 63.4359 32.1877 64.8169 31.8522C66.1446 31.5267 67.3755 32.2407 67.823 33.6694C68.2118 34.9111 68.5494 36.1708 68.8324 37.4365C69.0105 38.23 69.3396 38.4438 70.1308 38.1929C71.3714 37.8001 72.6322 37.4666 73.8979 37.1835C75.3578 36.8527 76.5957 37.5606 76.9806 38.8681L76.9766 38.8692Z" fill="#38D0BE"/>
<path d="M38.7438 90.2054C38.9734 90.7564 38.5765 91.0137 38.3022 91.2943C35.4532 94.249 32.5827 97.1879 29.745 100.153C29.1987 100.722 28.7706 100.927 28.3508 100.069C28.3048 99.9777 28.2358 99.897 28.1777 99.809C27.0107 98.0296 25.288 96.3818 24.8399 94.4356C24.4007 92.5388 25.7434 90.4665 26.2767 88.4645C26.9041 86.105 27.6238 83.7683 28.2735 81.4115C28.4908 80.6286 28.7703 80.4804 29.395 81.0894C32.3689 83.9937 35.3636 86.8794 38.3485 89.7764C38.4954 89.9225 38.6325 90.0799 38.7478 90.2043L38.7438 90.2054Z" fill="#FFC466"/>
<path d="M112.965 19.0675C113.333 18.9733 113.58 19.2047 113.84 19.3549C116.364 20.8053 118.872 22.2771 121.408 23.7071C122.027 24.0545 122.213 24.3454 121.809 25.0274C120.318 27.5277 118.867 30.0476 117.442 32.5862C117.069 33.2555 116.782 33.3452 116.162 32.8472C113.405 30.6397 110.612 28.4763 107.839 26.2903C107.505 26.0261 106.95 25.8211 107.488 25.2198C109.215 23.2775 110.916 21.3204 112.632 19.3682C112.731 19.2553 112.861 19.1602 112.961 19.0685L112.965 19.0675Z" fill="#FFC466"/>
<path d="M135.539 160.175C135.092 160.26 134.926 159.933 134.717 159.731C131.722 156.845 128.74 153.943 125.738 151.063C125.157 150.503 125.056 150.142 125.839 149.652C127.558 148.583 129.252 147.465 130.907 146.301C131.448 145.923 131.832 146.036 132.317 146.315C134.837 147.784 137.352 149.25 139.893 150.683C140.493 151.022 140.735 151.298 140.318 151.997C138.823 154.498 137.389 157.035 135.93 159.557C135.799 159.777 135.653 159.989 135.538 160.171L135.539 160.175Z" fill="#FFC466"/>
<path d="M158.719 63.5927C157.306 64.0187 156.031 63.2346 155.53 61.639C155.089 60.2301 154.196 59.6842 152.852 60.0013C151.169 60.4005 149.888 59.7732 149.482 58.3549C149.062 56.8843 149.858 55.5237 151.641 55.1925C153.305 54.8805 153.759 54.2886 153.155 52.6301C152.528 50.9043 153.291 49.5482 154.763 49.1495C156.24 48.7537 157.579 49.5509 157.903 51.3536C158.212 53.0868 158.892 53.3877 160.496 52.82C162.206 52.2151 163.575 52.9956 163.951 54.478C164.31 55.9001 163.505 57.0952 161.855 57.5889C160.538 57.985 160.039 58.9037 160.359 60.345C160.708 61.9208 160.071 63.1828 158.719 63.5927Z" fill="#38D0BE"/>
<path d="M100.55 174.903C99.3022 175.268 98.0191 174.632 97.5226 173.359C97.3336 172.879 97.1875 172.366 97.1072 171.857C96.9677 171.015 96.6082 170.671 95.7387 171.016C95.2588 171.205 94.7433 171.326 94.2313 171.411C92.8635 171.635 91.6847 170.89 91.338 169.629C90.9913 168.367 91.6458 167.139 92.9206 166.616C93.7206 166.285 94.952 166.486 95.2701 165.693C95.5284 165.063 94.9607 164.12 94.8287 163.305C94.6078 161.95 95.3853 160.762 96.6534 160.44C97.9203 160.113 99.1332 160.776 99.6431 162.067C99.943 162.832 99.7956 163.924 100.457 164.347C101.144 164.788 102.015 164.076 102.826 163.949C104.271 163.722 105.502 164.47 105.82 165.8C106.125 167.068 105.443 168.256 104.142 168.764C103.377 169.064 102.275 168.894 101.88 169.595C101.489 170.291 102.178 171.158 102.301 171.971C102.51 173.347 101.81 174.531 100.557 174.897L100.55 174.903Z" fill="#38D0BE"/>
<path d="M60.4089 162.995C60.4794 162.92 60.551 162.849 60.6215 162.774C60.6275 162.893 60.6365 163.007 60.6466 163.125C60.5631 163.087 60.4865 163.043 60.4089 162.995Z" fill="#E52A50"/>
<path d="M163.936 140.164L163.913 140.045C163.912 140.093 163.916 140.139 163.916 140.187L163.936 140.164Z" fill="#E52A50"/>
</g>
<defs>
<clipPath id="clip0_664_9010">
<rect width="160" height="160" fill="white" transform="translate(0.0205078 41.411) rotate(-15)"/>
</clipPath>
</defs>
</svg>
