<svg width="390" height="197" viewBox="0 0 390 197" fill="none" xmlns="http://www.w3.org/2000/svg">
<path d="M396.45 86.27C394.37 86.27 392.39 86.68 390.56 87.4C387 82.33 381.12 79 374.45 79C365.95 79 358.73 84.4 355.98 91.94C354.36 91.27 352.59 90.9 350.73 90.9C343.14 90.9 337 97.05 337 104.63C337 112.21 343.15 118.36 350.73 118.36H396.45C405.31 118.36 412.5 111.17 412.5 102.31C412.5 93.45 405.31 86.26 396.45 86.26V86.27Z" fill="white"/>
<path d="M82.45 7.27C80.37 7.27 78.39 7.68 76.56 8.4C73 3.33 67.12 0 60.45 0C51.95 0 44.73 5.4 41.98 12.94C40.36 12.27 38.59 11.9 36.73 11.9C29.14 11.9 23 18.05 23 25.63C23 33.21 29.15 39.36 36.73 39.36H82.45C91.31 39.36 98.5 32.17 98.5 23.31C98.5 14.45 91.31 7.26 82.45 7.26V7.27Z" fill="white"/>
<path d="M21.45 164.27C19.37 164.27 17.39 164.68 15.56 165.4C12 160.33 6.12001 157 -0.549988 157C-9.04999 157 -16.27 162.4 -19.02 169.94C-20.64 169.27 -22.41 168.9 -24.27 168.9C-31.86 168.9 -38 175.05 -38 182.63C-38 190.21 -31.85 196.36 -24.27 196.36H21.45C30.31 196.36 37.5 189.17 37.5 180.31C37.5 171.45 30.31 164.26 21.45 164.26V164.27Z" fill="white"/>
</svg>
