<svg width="64" height="64" viewBox="0 0 64 64" fill="none" xmlns="http://www.w3.org/2000/svg">
<rect width="64" height="64" rx="12" fill="white"/>
<path fill-rule="evenodd" clip-rule="evenodd" d="M40 19.6665C39.4477 19.6665 39 19.2188 39 18.6665C39 18.1142 39.4477 17.6665 40 17.6665H45.3334C45.7378 17.6665 46.1025 17.9101 46.2572 18.2838C46.412 18.6575 46.3265 19.0876 46.0405 19.3736L42.4142 22.9998H45.3334C45.8856 22.9998 46.3334 23.4476 46.3334 23.9998C46.3334 24.5521 45.8856 24.9998 45.3334 24.9998H40C39.5956 24.9998 39.2309 24.7562 39.0761 24.3825C38.9214 24.0088 39.0069 23.5787 39.2929 23.2927L42.9191 19.6665H40ZM34 27.6665C33.4477 27.6665 33 27.2188 33 26.6665C33 26.1142 33.4477 25.6665 34 25.6665H38C38.4045 25.6665 38.7691 25.9101 38.9239 26.2838C39.0787 26.6575 38.9931 27.0876 38.7071 27.3736L36.4142 29.6665H38C38.5523 29.6665 39 30.1142 39 30.6665C39 31.2188 38.5523 31.6665 38 31.6665H34C33.5956 31.6665 33.2309 31.4229 33.0761 31.0492C32.9214 30.6755 33.0069 30.2454 33.2929 29.9594L35.5858 27.6665H34Z" fill="url(#paint0_linear_174_10263)"/>
<path d="M32.0003 45.3332C39.3641 45.3332 45.3337 39.3636 45.3337 31.9998C45.3337 31.3829 44.409 31.281 44.09 31.809C42.5723 34.3207 39.8157 35.9998 36.667 35.9998C31.8805 35.9998 28.0003 32.1196 28.0003 27.3332C28.0003 24.1844 29.6795 21.4279 32.1912 19.9102C32.7192 19.5911 32.6172 18.6665 32.0003 18.6665C24.6365 18.6665 18.667 24.636 18.667 31.9998C18.667 39.3636 24.6365 45.3332 32.0003 45.3332Z" fill="url(#paint1_linear_174_10263)"/>
<defs>
<linearGradient id="paint0_linear_174_10263" x1="33" y1="24.6665" x2="46.3334" y2="24.6665" gradientUnits="userSpaceOnUse">
<stop stop-color="#FEE189"/>
<stop offset="0.989583" stop-color="#FFC400"/>
</linearGradient>
<linearGradient id="paint1_linear_174_10263" x1="18.667" y1="31.9998" x2="45.3337" y2="31.9998" gradientUnits="userSpaceOnUse">
<stop stop-color="#FEE189"/>
<stop offset="0.989583" stop-color="#FFC400"/>
</linearGradient>
</defs>
</svg>
