<svg width="64" height="62" viewBox="0 0 64 62" fill="none" xmlns="http://www.w3.org/2000/svg">
<rect width="64" height="61.569" rx="12" fill="white"/>
<path d="M15.4788 39.8412C14.4538 37.7396 13.6721 35.5598 13.3064 33.2414C13.1264 32.1013 12.9878 30.9569 13.0114 29.7991C13.59 21.4865 15.5725 17.7606 21.4046 12.4419C23.9369 10.5394 26.7863 9.34626 29.8657 8.67669C30.3259 8.5764 30.7816 8.4127 31.2683 8.45989C31.2771 8.61327 31.2329 8.74306 31.1267 8.86252C30.7344 9.29906 30.3981 9.77986 30.0515 10.2548C27.6874 13.5038 26.2465 17.1274 25.8763 21.1183C25.658 23.478 25.8232 25.854 26.4323 28.168C27.5429 32.386 29.6755 35.9713 33.0292 38.8073C34.9199 40.4061 37.0452 41.58 39.3636 42.4104C41.095 43.0298 42.881 43.3837 44.7246 43.5253C46.2348 43.6418 47.7199 43.5799 49.2198 43.4221C50.0959 43.3306 50.941 43.0534 51.8258 43.0563C50.9129 44.7037 49.6564 46.0605 48.2081 47.236C45.0269 49.8169 41.3487 51.131 37.2929 51.4849C36.5762 51.5469 35.8638 51.5661 35.1471 51.5646C25.7239 50.9543 21.3567 48.5032 15.4773 39.8397L15.4788 39.8412Z" fill="#FFC466"/>
<path d="M51.826 43.0548C50.9411 43.0518 50.0946 43.3291 49.22 43.4205C47.7201 43.5783 46.235 43.6403 44.7248 43.5238C42.8812 43.3822 41.0952 43.0282 39.3638 42.4088C37.0454 41.5785 34.9216 40.4045 33.0294 38.8058C29.6757 35.9697 27.5431 32.3859 26.4325 28.1664C25.8234 25.8524 25.6582 23.475 25.8765 21.1168C26.2467 17.1259 27.6876 13.5023 30.0517 10.2532C30.3968 9.77832 30.7331 9.29753 31.1269 8.86098C31.2345 8.74152 31.2773 8.61174 31.2685 8.45836C31.8702 8.19436 32.5235 8.20321 33.1548 8.1457C34.2889 8.04098 35.4304 7.96282 36.5719 8.02181C36.7917 8.03361 37.1102 7.89497 37.2002 8.19584C37.2754 8.44656 36.9746 8.54832 36.8108 8.67516C34.8803 10.1721 33.314 11.9876 32.0737 14.0833C30.3231 17.0433 29.3586 20.2245 29.4972 23.6889C29.8231 31.852 35.3626 38.3309 43.2116 39.7541C46.3176 40.3175 49.3542 40.0343 52.3496 39.1023C52.4897 39.058 52.6283 39.0093 52.7714 38.9725C53.0147 38.912 53.2773 38.7586 53.4955 38.9975C53.702 39.2247 53.5855 39.4798 53.4911 39.7217C53.0413 40.8853 52.6048 42.0563 51.826 43.0548Z" fill="#FFC466"/>
<path d="M49.7461 25.0856C50.8641 25.0856 51.8478 25.0826 52.8329 25.087C53.1264 25.087 53.4243 25.0826 53.7134 25.1239C54.1809 25.1903 54.4361 25.5103 54.4479 25.9572C54.4597 26.4055 54.2149 26.7993 53.7562 26.82C51.6973 26.9129 49.634 26.932 47.5767 26.8141C46.8643 26.7728 46.6608 25.9144 47.1711 25.3215C48.3849 23.9131 49.6149 22.5179 50.8375 21.1168C51.0617 20.8602 51.2814 20.5977 51.5926 20.2363C51.0455 20.2363 50.631 20.2363 50.2166 20.2363C49.3878 20.2334 48.5589 20.2526 47.7315 20.2157C47.2094 20.1921 46.8584 19.7747 46.8761 19.3101C46.8938 18.8603 47.2389 18.5167 47.7374 18.4607C47.8289 18.4503 47.9218 18.4518 48.0132 18.4518C49.7815 18.4518 51.5484 18.4548 53.3167 18.4489C53.7665 18.4489 54.1632 18.5255 54.3727 18.9857C54.5865 19.4532 54.3535 19.7924 54.0615 20.1257C52.8462 21.5091 51.6369 22.8969 50.426 24.2847C50.2255 24.5148 50.0308 24.7493 49.7447 25.0856H49.7461Z" fill="#5F5A5A"/>
<path d="M41.62 28.0013C42.1583 28.0013 42.5211 27.988 42.8839 28.0042C43.4237 28.0278 43.7644 28.3685 43.7703 28.8611C43.7762 29.3522 43.4428 29.7445 42.9149 29.7578C41.8294 29.7843 40.7424 29.7755 39.6555 29.7622C39.2765 29.7578 38.9859 29.5631 38.8414 29.2018C38.7057 28.864 38.7706 28.5499 39.0095 28.277C39.6142 27.5883 40.2204 26.9025 40.915 26.1135C40.4652 26.1135 40.1274 26.1238 39.7912 26.1105C39.1482 26.0869 38.7632 25.7285 38.7794 25.1858C38.7957 24.6667 39.1673 24.3437 39.7956 24.3363C40.7896 24.326 41.7837 24.3363 42.7792 24.3319C43.1803 24.3304 43.5122 24.4528 43.6877 24.8304C43.872 25.2256 43.7658 25.5796 43.4827 25.8967C42.8957 26.5545 42.3146 27.2152 41.62 27.9983V28.0013Z" fill="#5E5959"/>
<path d="M43.1571 14.0892C42.6556 14.0892 42.2766 14.101 41.899 14.0862C41.3681 14.0641 41.0112 13.7161 40.9964 13.2338C40.9817 12.7338 41.3519 12.3371 41.9049 12.3268C42.9535 12.3076 44.0036 12.3209 45.0537 12.3209C45.4357 12.3209 45.7439 12.4713 45.9076 12.8223C46.0787 13.1881 46.0153 13.5376 45.7439 13.8459C45.1496 14.5184 44.5567 15.1924 43.862 15.9799C44.3222 15.9799 44.6584 15.9725 44.9947 15.9814C45.6171 15.9976 45.9828 16.3206 45.9917 16.8515C46.002 17.4105 45.6362 17.7438 44.9755 17.7482C43.9815 17.7556 42.9875 17.7453 41.9934 17.7527C41.5657 17.7556 41.2413 17.6081 41.0672 17.1996C40.9006 16.8073 41.0363 16.4858 41.2988 16.1893C41.8932 15.5212 42.4846 14.8517 43.16 14.0892H43.1571Z" fill="#5E5959"/>
<path d="M20.1662 53.541C17.83 53.4363 15.7299 52.6443 13.9144 51.2019C10.978 48.8702 9.51203 45.7937 9.54447 42.0314C9.59019 36.8253 13.5943 32.1236 18.7385 31.2298C18.9893 31.1856 19.2326 31.0676 19.4981 31.1222C19.734 31.2829 20.0187 31.277 20.2812 31.3242C25.7056 32.2976 29.8425 37.2928 29.4649 43.0417C29.3499 44.7923 28.906 46.4072 28.0565 47.9101C26.8161 50.1002 25.0419 51.7181 22.7206 52.7313C21.8947 53.0926 21.0245 53.2902 20.1676 53.541H20.1662ZM20.3756 34.9847C20.2104 34.9892 20.0423 34.9788 19.88 35.001C15.5765 35.6115 12.7802 39.595 13.6415 43.8838C14.1946 46.6388 16.7165 49.1032 19.3757 49.4882C20.234 49.7433 21.0953 49.7168 21.9772 49.5884C25.1968 49.118 27.8647 46.4736 28.2098 43.083C28.5859 39.3694 26.3073 36.1395 22.6984 35.1676C21.9507 34.9656 21.172 34.7724 20.3785 34.9833L20.3756 34.9847Z" fill="#92B1F7"/>
<path d="M20.1661 53.5409C21.023 53.2917 21.8932 53.0926 22.7191 52.7313C25.0404 51.7181 26.8161 50.0987 28.055 47.9101C28.906 46.4087 29.3484 44.7923 29.4634 43.0417C29.841 37.2928 25.7041 32.2976 20.2797 31.3242C20.0187 31.277 19.7326 31.2829 19.4966 31.1221C21.5318 30.7933 23.4786 31.1487 25.3487 31.9466C27.3574 32.8034 28.9723 34.1573 30.2112 35.9581C30.2731 36.0481 30.3483 36.1277 30.4177 36.2118C31.1713 37.5435 31.7833 38.9254 32.0105 40.4578C32.5974 44.4192 31.4279 47.7862 28.5608 50.5529C26.7409 52.3095 24.5066 53.2224 22.0244 53.569C21.405 53.5586 20.7856 53.5498 20.1661 53.5395V53.5409Z" fill="#5596FA"/>
<path d="M19.3743 49.4882C16.7152 49.1032 14.1933 46.6373 13.6402 43.8838C12.7789 39.5936 15.5752 35.6115 19.8787 35.001C20.0409 34.9774 20.2091 34.9892 20.3742 34.9847C20.4524 35.0275 20.5262 35.0806 20.6087 35.1116C21.7296 35.5157 22.7767 36.0776 23.5835 36.9463C25.2928 38.7868 26.0553 40.974 25.5583 43.4768C25.1055 45.7554 23.8504 47.4868 21.7783 48.6136C21.0128 49.0295 20.1707 49.1873 19.3728 49.4896L19.3743 49.4882ZM21.7193 40.3251C21.7193 39.6614 21.7296 38.9992 21.7163 38.3355C21.7045 37.7589 21.3609 37.4064 20.8462 37.4064C20.3344 37.4064 19.979 37.7589 19.9554 38.3296C19.9362 38.8075 19.9657 39.2883 19.9451 39.7661C19.9288 40.1614 20.1309 40.7012 19.8463 40.9121C19.5955 41.0994 19.1457 40.7336 18.777 40.6318C18.7593 40.6274 18.7416 40.6245 18.7239 40.6186C18.1782 40.4681 17.7373 40.6761 17.5647 41.1643C17.4039 41.6156 17.6148 42.0801 18.1178 42.2718C18.9083 42.5727 19.7047 42.8588 20.5085 43.1184C21.1839 43.3367 21.6942 42.965 21.7149 42.2586C21.7326 41.6141 21.7193 40.9696 21.7193 40.3251Z" fill="#EEEFEF"/>
<path d="M19.374 49.4882C20.1704 49.1843 21.014 49.028 21.7795 48.6121C23.8516 47.4853 25.1052 45.7524 25.5594 43.4753C26.0579 40.9725 25.294 38.7854 23.5847 36.9448C22.7779 36.0761 21.7308 35.5127 20.6099 35.1101C20.5273 35.0806 20.4536 35.026 20.3754 34.9833C21.1704 34.7724 21.9476 34.9656 22.6953 35.1676C26.3042 36.1395 28.5843 39.3694 28.2068 43.083C27.8631 46.4736 25.1937 49.118 21.9742 49.5884C21.0922 49.7168 20.2309 49.7433 19.3726 49.4882H19.374Z" fill="#DADADB"/>
<path d="M21.7193 40.3251C21.7193 40.9695 21.734 41.6155 21.7149 42.2585C21.6942 42.965 21.1854 43.3352 20.5085 43.1184C19.7047 42.8588 18.9083 42.5727 18.1178 42.2718C17.6148 42.0801 17.4039 41.617 17.5647 41.1642C17.7387 40.6761 18.1797 40.4681 18.7239 40.6185C18.7416 40.623 18.7593 40.6259 18.777 40.6318C19.1457 40.7336 19.5941 41.0993 19.8463 40.912C20.1309 40.7011 19.9288 40.1613 19.9451 39.7661C19.9642 39.2882 19.9347 38.8075 19.9554 38.3296C19.979 37.7589 20.3344 37.4064 20.8462 37.4064C21.3609 37.4064 21.7045 37.7589 21.7163 38.3355C21.7296 38.9977 21.7193 39.6614 21.7193 40.3251Z" fill="#5E5959"/>
</svg>
