<svg width="64" height="42" viewBox="0 0 64 42" fill="none" xmlns="http://www.w3.org/2000/svg">
<path d="M24.8648 9.41767C24.7102 9.43661 24.5963 9.48239 24.5089 9.61816C23.566 10.93 22.7746 12.3682 21.8739 13.7022C23.0337 14.3273 26.8269 15.4719 25.2956 17.3521C24.2544 18.6308 21.4884 16.348 20.3785 15.846C20.0757 16.2975 19.8072 16.7838 19.5059 17.2321C20.3301 17.6694 22.5826 18.5424 23.065 19.2417C23.7534 20.241 22.9104 21.5671 21.746 21.3414C20.7126 21.1409 19.0002 19.8685 18.0105 19.3743C17.742 19.7769 17.5079 20.271 17.2628 20.6341C18.1682 21.4266 20.9483 21.976 21.0107 23.3463C21.0529 24.273 20.2521 24.9565 19.3483 24.7655C18.4179 24.5682 16.7274 23.3052 15.7674 22.9027C15.6316 23.1063 14.8012 24.2288 14.6841 24.2651C12.2458 24.2888 9.78887 24.3377 7.37248 24.685C4.75004 25.0623 1.19101 25.7916 0.50106 28.8274L0.0639992 30.7171V34.6243C0.220097 34.6843 0.193546 34.8643 0.188866 35.0032L27.392 34.9732L57.895 18.113C57.7701 17.5162 57.6687 16.7885 57.5204 16.2217C56.8039 13.4875 55.6628 10.6064 54.2798 8.15473C53.7865 7.28014 53.2464 6.31716 52.6595 5.5073C51.9664 4.5522 51.1048 3.69814 50.2915 2.85986C44.942 9.15403 36.4862 10.99 28.5612 10.027C27.7151 9.92442 25.4876 9.33715 24.8663 9.41451L24.8648 9.41767Z" fill="#FB6E51"/>
<path d="M0.18726 35.006C0.184139 35.115 0.18259 35.2223 0.0623932 35.2586V36.0148C0.463566 35.9438 0.271557 36.22 0.307457 36.4553C0.457314 37.453 0.600922 40.2093 1.75136 40.4209C10.9096 40.4177 20.071 40.4461 29.2277 40.4272L33.7264 37.8492C33.8794 37.745 34.0511 37.7956 34.2134 37.7798C34.1447 37.4656 34.3773 37.524 34.5428 37.4261C39.0446 34.7866 43.6261 32.2702 48.1717 29.7128C49.1566 29.1586 52.3082 27.059 53.1574 26.939C54.478 25.9113 56.1841 25.3051 57.5578 24.3926C58.1666 23.9885 58.663 23.6885 58.6458 22.8471C58.6255 21.8241 58.3336 19.9187 58.1432 18.8704C58.1088 18.6826 57.9418 18.3432 57.8934 18.1143L27.3904 34.9745L0.18726 35.0045V35.006Z" fill="#E5E7EB"/>
<path d="M0.0624245 35.2574C0.18262 35.2227 0.182608 35.1138 0.187291 35.0049C0.191974 34.8675 0.218522 34.686 0.0624245 34.626V35.2559V35.2574Z" fill="#FEFEFE"/>
<path d="M24.8649 9.41755C25.4861 9.34019 27.7121 9.92746 28.5597 10.0301C36.4863 10.9931 44.9421 9.15707 50.29 2.86291C49.4315 1.97885 47.5802 -0.150778 46.269 0.119175C45.579 0.261255 45.2606 1.07269 44.8095 1.54313C41.0943 5.42035 36.0914 6.35019 30.9105 5.88764C29.9271 5.79924 28.4098 5.2767 27.4748 5.56717C26.98 5.7203 25.3378 8.19408 25.0319 8.76872C24.9148 8.98973 24.8165 9.14759 24.8649 9.41755Z" fill="#E8573F"/>
<path d="M53.1576 26.9394C52.3084 27.0594 49.1568 29.159 48.1718 29.7132L59.7059 29.7179C61.3699 29.7937 61.8241 27.4446 60.2397 27.0247C59.4108 26.8052 54.1316 26.8021 53.1576 26.9394Z" fill="#EC5564"/>
<path d="M34.2118 37.7783C34.0495 37.7941 33.8778 37.7436 33.7248 37.8478L29.2261 40.4257C32.9272 40.4178 37.557 40.7683 41.1332 40.4305C42.805 40.2726 43.1375 38.6024 41.7201 37.8099C39.3178 37.9251 36.572 37.5478 34.2103 37.7783H34.2118Z" fill="#EC5564"/>
<path d="M57.5189 16.2248C57.6672 16.7915 57.7671 17.5177 57.8936 18.116C57.942 18.3449 58.109 18.6843 58.1433 18.8722C59.6013 18.7159 61.5119 19.0964 62.9137 18.8422C64.1515 18.618 64.228 16.5184 62.7888 16.2548C61.2528 15.9738 59.1236 16.4016 57.5221 16.2248H57.5189Z" fill="#EC5564"/>
<path d="M19.5059 17.2334C19.0251 17.9501 18.4928 18.6542 18.0105 19.3757C19.0001 19.8698 20.7125 21.1422 21.7459 21.3427C22.9104 21.5684 23.7533 20.2424 23.0649 19.2431C22.5841 18.5437 20.3301 17.6707 19.5059 17.2334Z" fill="#464B54"/>
<path d="M15.7658 22.9058C16.7258 23.3083 18.4148 24.5713 19.3467 24.7686C20.2505 24.9596 21.0513 24.2761 21.0091 23.3494C20.9483 21.9791 18.1666 21.4313 17.2612 20.6372C16.7695 21.3681 16.2529 22.178 15.7658 22.9058Z" fill="#464B54"/>
<path d="M52.6579 5.5105C53.2448 6.32036 53.7849 7.28177 54.2782 8.15793C55.6425 8.00007 58.7707 8.85728 58.5241 6.57926C58.4757 6.13408 58.0168 5.59891 57.575 5.51682C56.1873 5.26107 54.1237 5.69363 52.6579 5.5105Z" fill="#EC5564"/>
<path d="M21.874 13.7037C21.4057 14.3983 20.8625 15.1277 20.3786 15.846C21.49 16.3496 24.2545 18.6308 25.2957 17.352C26.827 15.4718 23.0338 14.3273 21.874 13.7021V13.7037Z" fill="#464B54"/>
</svg>
