<svg width="21" height="20" viewBox="0 0 21 20" fill="none" xmlns="http://www.w3.org/2000/svg">
<path d="M6.96153 0.301758H2.34668C1.52398 0.301758 0.857056 0.968686 0.857056 1.79138V18.2084C0.857056 19.0311 1.52398 19.6981 2.34668 19.6981H6.96153C7.78423 19.6981 8.45116 19.0311 8.45116 18.2084V1.79138C8.45116 0.968686 7.78423 0.301758 6.96153 0.301758Z" fill="#4874D7"/>
<path d="M18.6533 0.301514H14.0385C13.2158 0.301514 12.5488 0.968442 12.5488 1.79114V18.2082C12.5488 19.0309 13.2158 19.6978 14.0385 19.6978H18.6533C19.476 19.6978 20.1429 19.0309 20.1429 18.2082V1.79114C20.1429 0.968442 19.476 0.301514 18.6533 0.301514Z" fill="#4874D7"/>
</svg>
