<svg width="390" height="137" viewBox="0 0 390 137" fill="none" xmlns="http://www.w3.org/2000/svg">
<path d="M123.972 18.6552C118.654 18.6552 113.593 19.7073 108.915 21.5549C99.8146 8.54496 84.7836 0 67.7331 0C46.0047 0 27.5482 13.8567 20.5184 33.2048C16.3772 31.4855 11.8526 30.5361 7.09791 30.5361C-12.3043 30.5361 -28 46.3173 -28 65.7681C-28 85.2188 -12.2788 101 7.09791 101H123.972C146.62 101 165 82.5501 165 59.8148C165 37.0795 146.62 18.6296 123.972 18.6296V18.6552Z" fill="white"/>
<path d="M252 125C252 91.3038 224.472 64 190.5 64C156.528 64 129 91.3165 129 125H252Z" fill="#FF4B4B"/>
<rect x="187" y="5" width="6" height="49" rx="3" fill="#FF4B4B"/>
<rect x="224.717" y="27.4565" width="6" height="33" rx="3" transform="rotate(21 224.717 27.4565)" fill="#FF4B4B"/>
<rect x="271.45" y="29.6338" width="6" height="55.3055" rx="3" transform="rotate(42 271.45 29.6338)" fill="#FF4B4B"/>
<rect width="6" height="33" rx="3" transform="matrix(-0.93358 0.358368 0.358368 0.93358 155.192 27)" fill="#FF4B4B"/>
<rect width="6" height="55.3055" rx="3" transform="matrix(-0.743145 0.669131 0.669131 0.743145 108.459 29.1768)" fill="#FF4B4B"/>
<rect width="6" height="32.936" rx="3" transform="matrix(-0.453991 0.891007 0.891007 0.453991 100.655 74.1558)" fill="#FF4B4B"/>
<path d="M374.609 56.2858C369.375 56.2858 364.392 57.3171 359.787 59.128C350.828 46.3758 336.03 38 319.245 38C297.854 38 279.685 51.5823 272.764 70.5473C268.687 68.862 264.233 67.9314 259.552 67.9314C240.452 67.9314 225 83.4002 225 102.466C225 121.531 240.477 137 259.552 137H374.609C396.906 137 415 118.915 415 96.6303C415 74.3453 396.906 56.2607 374.609 56.2607V56.2858Z" fill="white"/>
</svg>
