<svg width="65" height="64" viewBox="0 0 65 64" fill="none" xmlns="http://www.w3.org/2000/svg">
<g id="Group">
<g id="Vector">
<path d="M41.8559 60.638C28.7728 64.8732 14.8638 59.6647 7.51712 48.8054L5.87436 49.3362C13.5514 61.0627 28.4041 66.7342 42.3662 62.2159C56.3282 57.6975 65.0404 44.3991 64.3916 30.3987L62.7488 30.9296C63.1588 44.0334 54.9391 56.4028 41.8559 60.638Z" fill="#C8D5F3"/>
<path fill-rule="evenodd" clip-rule="evenodd" d="M40.8974 57.6739C29.4629 61.3753 17.3265 57.0369 10.6139 47.8026L9.77924 48.071C16.6629 57.7388 29.2771 62.3073 41.151 58.4614C53.0279 54.6185 60.5722 43.5261 60.4838 31.6581L59.6491 31.9265C59.6226 43.3403 52.3289 53.9696 40.8944 57.671L40.8974 57.6739ZM23.9477 5.30602C11.8556 9.21975 4.25814 20.6513 4.6327 32.7611L5.45261 32.4957C5.19602 20.8341 12.5486 9.86565 24.2043 6.09348C35.86 2.32132 48.2441 6.90159 54.8683 16.5016L55.6882 16.2362C48.8959 6.20261 36.0428 1.38934 23.9477 5.30307V5.30602Z" fill="#7F9EE3"/>
<path d="M23.2458 3.13238C36.5472 -1.17361 50.7009 4.27671 57.9474 15.5047L59.5783 14.9768C52.0104 2.88169 36.9129 -3.03758 22.7356 1.55155C8.55823 6.14067 -0.210066 19.7812 0.74551 34.0175L2.37648 33.4896C1.66864 20.144 9.94735 7.43542 23.2487 3.12943L23.2458 3.13238Z" fill="#C8D5F3"/>
</g>
<g id="Group_2">
<path id="Vector_2" d="M39.3541 54.2931L37.3889 52.354L34.5774 52.8377L35.9461 50.4927L34.5866 48.1477L37.3935 48.6357L39.3634 46.7009L39.7333 49.3482L42.3089 50.5013L39.7287 51.6458L39.3541 54.2931Z" fill="#7F9EE3"/>
<path id="Vector_3" d="M30.8319 55.036L29.4354 53.6583L27.4424 54.0038L28.4134 52.3411L27.447 50.6741L29.44 51.0196L30.8365 49.6506L31.1001 51.5249L32.9312 52.3455L31.1001 53.1574L30.8319 55.036Z" fill="#7F9EE3"/>
<path id="Vector_4" d="M46.7249 50.2293L45.3331 48.856L43.3401 49.1972L44.3065 47.5345L43.3447 45.8718L45.3377 46.2173L46.7342 44.844L46.9978 46.7226L48.8243 47.5388L46.9931 48.355L46.7249 50.2293Z" fill="#7F9EE3"/>
</g>
<g id="Group_3">
<path id="Vector_5" d="M25.6211 8.94629L27.5863 10.8854L30.3931 10.4017L29.029 12.7467L30.3885 15.0917L27.5817 14.6037L25.6118 16.5384L25.2419 13.8911L22.6616 12.738L25.2419 11.5936L25.6211 8.94629Z" fill="#7F9EE3"/>
<path id="Vector_6" d="M34.1435 8.20337L35.5354 9.57669L37.5284 9.23552L36.562 10.8982L37.5284 12.5652L35.5354 12.2197L34.1343 13.5887L33.8707 11.7101L32.0442 10.8939L33.8753 10.082L34.1435 8.20337Z" fill="#7F9EE3"/>
<path id="Vector_7" d="M18.2456 13.01L19.6421 14.3833L21.6351 14.0422L20.664 15.7048L21.6305 17.3675L19.6375 17.022L18.241 18.3953L17.9774 16.5167L16.1509 15.7005L17.982 14.8843L18.2456 13.01Z" fill="#7F9EE3"/>
</g>
<g id="&#224;&#184;&#170;&#224;&#184;&#179;&#224;&#185;&#128;&#224;&#184;&#163;&#224;&#185;&#135;&#224;&#184;&#136;">
<path d="M19.8987 41.6137L17.9031 35.1379C17.6992 34.4764 17.3864 34.0593 16.9644 33.8865C16.5508 33.6979 15.9832 33.7148 15.2616 33.9372C14.6483 34.1262 14.0809 34.3998 13.5592 34.7581C13.0376 35.1164 12.589 35.4982 12.2136 35.9036L11.6077 33.9374C11.9045 33.6616 12.3337 33.345 12.8951 32.9876C13.4685 32.6265 14.1581 32.3219 14.9638 32.0736C15.6012 31.8772 16.1845 31.783 16.7137 31.7911C17.2512 31.7835 17.7009 31.9609 18.0628 32.3234C18.5837 32.3472 19.0089 32.552 19.3384 32.9376C19.6763 33.3076 19.9453 33.8172 20.1454 34.4666L22.1355 40.9244L19.8987 41.6137ZM16.9419 42.7224C15.8956 43.0448 15.0139 43.0466 14.2968 42.7277C13.5917 42.4051 13.102 41.7989 12.8278 40.909C12.5239 39.9229 12.6354 39.0458 13.1625 38.2776C13.6978 37.4938 14.7244 36.8087 16.2424 36.2224L18.3931 35.3819L18.9211 37.0955L17.0411 37.8527C16.1531 38.2185 15.5736 38.5814 15.3027 38.9414C15.028 39.2894 14.9593 39.6859 15.0964 40.1308C15.2261 40.5517 15.4566 40.8297 15.7879 40.9646C16.1275 41.0838 16.5318 41.0711 17.0008 40.9266C17.1691 40.8747 17.3218 40.8145 17.4586 40.746C17.6039 40.6617 17.7371 40.5812 17.8582 40.5043L18.5721 41.9237C18.3696 42.0783 18.1254 42.226 17.8396 42.3667C17.5538 42.5075 17.2545 42.626 16.9419 42.7224ZM18.2755 33.2059L16.6738 32.4947C17.0132 32.2716 17.2777 32.0189 17.4672 31.7366C17.6651 31.4386 17.7121 31.1213 17.6084 30.7846L19.6828 30.1453C19.7977 30.5181 19.821 30.8928 19.7527 31.2694C19.6927 31.6302 19.5374 31.9809 19.2868 32.3215C19.0446 32.6463 18.7075 32.9411 18.2755 33.2059Z" fill="#7F9EE3"/>
<path d="M17.1607 30.5077C16.5113 30.7079 15.9479 30.7169 15.4704 30.5348C14.981 30.3565 14.651 29.9907 14.4805 29.4376C14.31 28.8844 14.3769 28.3963 14.6811 27.9734C14.9733 27.5541 15.444 27.2445 16.0934 27.0444C16.7548 26.8405 17.3303 26.8278 17.8198 27.0061C18.2973 27.1882 18.6212 27.5558 18.7917 28.109C18.9622 28.6622 18.9013 29.1484 18.6091 29.5676C18.3049 29.9905 17.8221 30.3039 17.1607 30.5077ZM16.8605 29.5337C17.1371 29.4484 17.3272 29.3174 17.4307 29.1407C17.5306 28.9519 17.5453 28.7433 17.4749 28.5148C17.4045 28.2863 17.2767 28.1281 17.0917 28.0403C16.9029 27.9405 16.6702 27.9332 16.3936 28.0184C16.129 28.1 15.9468 28.2351 15.847 28.4239C15.7435 28.6006 15.7269 28.8033 15.7973 29.0318C15.8677 29.2602 15.9973 29.4244 16.1861 29.5242C16.3712 29.6121 16.596 29.6152 16.8605 29.5337Z" fill="#7F9EE3"/>
<path d="M27.5438 39.2577L25.4759 32.5474C25.3091 32.0062 25.0624 31.6543 24.7357 31.4916C24.4174 31.3132 23.9696 31.3129 23.3924 31.4908C22.9835 31.6168 22.6232 31.7937 22.3116 32.0214C21.9962 32.2371 21.7081 32.4773 21.4473 32.742L20.8636 30.848C21.0791 30.6499 21.4028 30.4185 21.8347 30.1537C22.2667 29.8889 22.8013 29.6583 23.4387 29.4619C24.0881 29.2618 24.6889 29.1819 25.2413 29.2224C25.7899 29.2509 26.2711 29.4449 26.6848 29.8046C27.0948 30.1523 27.4147 30.699 27.6445 31.4446L29.8347 38.5517L27.5438 39.2577Z" fill="#7F9EE3"/>
<path d="M35.1363 37.1154C34.6794 37.2562 34.2543 37.3082 33.8611 37.2714C33.4678 37.2346 33.1269 37.0895 32.8381 36.8361C32.5456 36.5707 32.3216 36.1855 32.1659 35.6804L29.7256 27.7615L32.0164 27.0555L34.3679 34.6858C34.4457 34.9383 34.5572 35.108 34.7025 35.195C34.8441 35.2698 35.0352 35.2702 35.2757 35.1961C35.3719 35.1664 35.4704 35.1229 35.5712 35.0655C35.6841 35.0044 35.783 34.941 35.8681 34.8753L36.5876 36.3127C36.3962 36.5033 36.1756 36.6635 35.9258 36.7931C35.6761 36.9228 35.4129 37.0302 35.1363 37.1154Z" fill="#7F9EE3"/>
<path d="M41.4674 35.2039C40.7579 35.4225 40.0442 35.5635 39.3263 35.6267C38.6047 35.6779 37.9524 35.6551 37.3695 35.5582L37.4574 33.5362C37.747 33.5786 38.0746 33.6159 38.44 33.6481C38.8138 33.6646 39.2061 33.6557 39.6168 33.6213C40.0396 33.5832 40.4494 33.5029 40.8463 33.3806C41.3874 33.2139 41.7884 32.9981 42.0492 32.7334C42.3063 32.4567 42.3811 32.144 42.2736 31.7952C42.1995 31.5547 42.0602 31.3804 41.8557 31.2722C41.6474 31.152 41.3648 31.068 41.0076 31.02C40.6505 30.972 40.2212 30.9463 39.7198 30.9428C38.9639 30.9256 38.3047 30.8588 37.7421 30.7425C37.1758 30.6141 36.709 30.4025 36.3416 30.1075C35.9705 29.8005 35.6959 29.3584 35.5181 28.7812C35.3328 28.1799 35.3274 27.6285 35.5021 27.1269C35.6887 26.6217 36.0494 26.1682 36.5839 25.7665C37.1185 25.3647 37.8067 25.0341 38.6485 24.7747C39.2859 24.5783 39.8858 24.4527 40.4483 24.3979C41.0107 24.343 41.4682 24.3535 41.8208 24.4292L42.3878 26.2691C42.1537 26.2359 41.8595 26.2212 41.5051 26.2251C41.1508 26.2289 40.778 26.2582 40.3866 26.313C39.9916 26.3557 39.6137 26.4327 39.2529 26.5438C38.6517 26.7291 38.2345 26.9565 38.0015 27.2258C37.7768 27.4794 37.707 27.7445 37.7923 28.0211C37.859 28.2375 37.9946 28.3998 38.1991 28.508C38.4119 28.6004 38.7131 28.659 39.1026 28.6838C39.4921 28.7086 39.9811 28.7357 40.5695 28.7651C41.2338 28.7842 41.8292 28.8575 42.3556 28.985C42.8904 29.0967 43.3374 29.3079 43.6965 29.6186C44.0676 29.9256 44.3421 30.3677 44.52 30.9449C44.6831 31.474 44.7088 32.006 44.597 32.5408C44.4973 33.0719 44.2034 33.5707 43.7151 34.0372C43.2268 34.5037 42.4776 34.8926 41.4674 35.2039Z" fill="#7F9EE3"/>
<path d="M39.5082 23.3839C39.1475 23.4951 38.8204 23.5235 38.5271 23.469C38.2301 23.4025 37.9747 23.2574 37.7609 23.0336L37.0924 24.0692C36.3589 24.2952 35.7219 24.3006 35.1815 24.0852C34.6254 23.8616 34.2417 23.407 34.0305 22.7216C33.8822 22.2406 33.8621 21.8122 33.9702 21.4365C34.0783 21.0609 34.2725 20.7509 34.5527 20.5065C34.8292 20.2501 35.1599 20.0626 35.5447 19.944L39.9461 18.5876L40.3241 19.8143L36.3015 21.0539C36.049 21.1317 35.8626 21.2747 35.7424 21.483C35.6065 21.6828 35.5886 21.9451 35.6886 22.2698C35.7627 22.5103 35.8822 22.6842 36.0469 22.7915C36.1996 22.9024 36.3962 22.9209 36.6367 22.8467L37.2885 21.7571L37.6493 21.6459C37.7595 21.8753 37.9066 22.0538 38.0908 22.1814C38.275 22.309 38.4813 22.3375 38.7098 22.2671C38.9142 22.2041 39.052 22.0958 39.1232 21.9422C39.1823 21.7923 39.1804 21.6151 39.1174 21.4107L39.0396 21.1582L40.6089 20.6745L40.709 20.9992C40.9017 21.6246 40.888 22.1357 40.668 22.5327C40.436 22.9334 40.0494 23.2172 39.5082 23.3839Z" fill="#7F9EE3"/>
<path d="M48.3426 32.8482L47.0362 28.6091L45.8818 28.9649L45.4148 27.4497L48.6617 26.4491L49.8902 30.4356L50.0526 30.3855C50.5096 30.2447 50.8592 30.0119 51.1014 29.687C51.3437 29.3622 51.4707 28.9412 51.4825 28.424C51.4943 27.9068 51.3872 27.2815 51.1611 26.5479C50.9128 25.7422 50.6123 25.1303 50.2597 24.7123C49.907 24.2943 49.4869 24.0419 48.9993 23.9551C48.5117 23.8684 47.9432 23.9251 47.2938 24.1252C46.6805 24.3142 46.1412 24.5725 45.676 24.9002C45.2228 25.2243 44.8265 25.5834 44.4871 25.9777L43.8812 24.0115C44.1873 23.6801 44.6188 23.3497 45.1756 23.02C45.7287 22.6784 46.378 22.3927 47.1236 22.163C48.254 21.8146 49.2273 21.7254 50.0434 21.8952C50.8715 22.0614 51.5646 22.4733 52.1228 23.1308C52.6809 23.7884 53.1323 24.6764 53.477 25.7947C53.8031 26.853 53.9266 27.8091 53.8474 28.6631C53.7765 29.5013 53.4576 30.2185 52.8907 30.8145C52.3359 31.4069 51.4873 31.8791 50.3448 32.2311L48.3426 32.8482Z" fill="#7F9EE3"/>
</g>
</g>
</svg>
