<svg width="64" height="64" viewBox="0 0 64 64" fill="none" xmlns="http://www.w3.org/2000/svg">
<rect width="64" height="64" rx="12" fill="white"/>
<path d="M29.3337 39.7779C29.3337 42.8462 26.9458 45.3335 24.0003 45.3335C21.0548 45.3335 18.667 42.8462 18.667 39.7779C18.667 37.8582 20.7549 35.2959 22.318 33.6466C23.2433 32.6703 24.7574 32.6703 25.6827 33.6466C27.2458 35.2959 29.3337 37.8582 29.3337 39.7779Z" fill="url(#paint0_linear_174_10276)"/>
<path d="M45.3337 39.7779C45.3337 42.8462 42.9458 45.3335 40.0003 45.3335C37.0548 45.3335 34.667 42.8462 34.667 39.7779C34.667 37.8582 36.7549 35.2959 38.318 33.6466C39.2433 32.6703 40.7574 32.6703 41.6827 33.6466C43.2458 35.2959 45.3337 37.8582 45.3337 39.7779Z" fill="url(#paint1_linear_174_10276)"/>
<path d="M37.3337 26.4446C37.3337 29.5128 34.9458 32.0001 32.0003 32.0001C29.0548 32.0001 26.667 29.5128 26.667 26.4446C26.667 24.5248 28.7549 21.9625 30.318 20.3133C31.2433 19.337 32.7574 19.337 33.6827 20.3133C35.2458 21.9625 37.3337 24.5248 37.3337 26.4446Z" fill="url(#paint2_linear_174_10276)"/>
<defs>
<linearGradient id="paint0_linear_174_10276" x1="18.667" y1="32.4573" x2="45.3337" y2="32.4573" gradientUnits="userSpaceOnUse">
<stop stop-color="#00FFF0"/>
<stop offset="1" stop-color="#0083FE"/>
</linearGradient>
<linearGradient id="paint1_linear_174_10276" x1="18.667" y1="32.4573" x2="45.3337" y2="32.4573" gradientUnits="userSpaceOnUse">
<stop stop-color="#00FFF0"/>
<stop offset="1" stop-color="#0083FE"/>
</linearGradient>
<linearGradient id="paint2_linear_174_10276" x1="18.667" y1="32.4573" x2="45.3337" y2="32.4573" gradientUnits="userSpaceOnUse">
<stop stop-color="#00FFF0"/>
<stop offset="1" stop-color="#0083FE"/>
</linearGradient>
</defs>
</svg>
