<svg width="25" height="28" viewBox="0 0 25 28" fill="none" xmlns="http://www.w3.org/2000/svg">
<path d="M17.7579 6.97973V1.5M6.79845 6.97973V1.5M6.11331 12.4595H18.443M6.11331 19.3081H18.443M23.3876 20.8703V9.91081C23.3932 9.16799 23.2516 8.43141 22.9712 7.74354C22.6907 7.05567 22.2769 6.4301 21.7536 5.90288C21.2303 5.37567 20.6078 4.95723 19.922 4.6717C19.2363 4.38616 18.5008 4.23917 17.7579 4.23919H6.79845C6.05914 4.23937 5.32711 4.38516 4.64414 4.66824C3.96118 4.95133 3.34067 5.36616 2.81802 5.88905C2.29538 6.41195 1.88084 7.03266 1.59809 7.71576C1.31533 8.39886 1.16989 9.13096 1.17007 9.87027V20.8297C1.16472 21.5724 1.30639 22.3089 1.58691 22.9966C1.86744 23.6843 2.28127 24.3097 2.80458 24.8368C3.32788 25.3639 3.9503 25.7822 4.63599 26.0676C5.32167 26.3531 6.05707 26.5 6.7998 26.5H17.7593C19.2524 26.5 20.6843 25.9069 21.7401 24.8511C22.7959 23.7953 23.3876 22.3634 23.3876 20.8703Z" stroke="#BCBABD" stroke-width="2.25" stroke-linecap="round" stroke-linejoin="round"/>
</svg>
