<svg width="23" height="36" viewBox="0 0 23 36" fill="none" xmlns="http://www.w3.org/2000/svg">
<path d="M16.2278 28.4824L12.2437 32.4665C11.3162 33.394 10.0839 33.902 8.77644 33.902C7.46461 33.902 6.2367 33.3896 5.30915 32.4665L3.54238 30.6997C2.61482 29.7722 2.10688 28.5398 2.10688 27.2324C2.10688 25.925 2.61924 24.6927 3.54238 23.7651L6.20137 21.1062C7.5397 23.001 9.2623 24.5249 9.56265 24.7899C9.76141 24.9621 10.0043 25.046 10.2473 25.046C10.5432 25.046 10.8347 24.9224 11.0423 24.6839C11.4222 24.2466 11.3736 23.5841 10.9319 23.2042C9.8365 22.259 6.69606 19.0965 6.67398 17.0647C6.66956 16.6451 6.80207 16.3315 7.11126 16.0532C8.29499 14.9799 11.0379 16.3712 14.4478 19.7722C14.4522 19.7767 14.4566 19.7811 14.461 19.7855L16.2278 21.5523C17.1553 22.4798 17.6633 23.7077 17.6633 25.0195C17.6633 26.3314 17.1553 27.5593 16.2322 28.4868L16.2278 28.4824ZM15.9539 18.3147C15.9539 18.3147 15.9451 18.3014 15.9407 18.297C15.6624 18.0187 15.3753 17.7404 15.0838 17.4666C16.219 15.9869 18.1801 14.0435 19.5184 14.5514C19.832 14.6707 20.0352 14.8827 20.1809 15.2493C20.6845 16.5125 20.2825 19.0081 19.1297 22.1088C18.7852 21.3579 18.3082 20.6689 17.7119 20.0682L15.9584 18.3147H15.9539Z" fill="#ADBED9"/>
<path fill-rule="evenodd" clip-rule="evenodd" d="M19.6553 26.2165C21.1438 23.0805 23.3567 17.5461 22.1244 14.4675C21.7622 13.5665 21.1173 12.9128 20.2605 12.5903C17.4866 11.5391 14.7525 14.4587 13.4937 16.0885C10.8038 13.9463 7.81355 12.5726 5.69784 14.4896C4.95138 15.1654 4.56269 16.062 4.57152 17.0779C4.58036 17.7802 4.78354 18.509 5.10597 19.2245L2.05388 22.2766C0.728797 23.6017 0 25.3596 0 27.228C0 27.948 0.110424 28.6503 0.318019 29.3216L0.924363 30.6997L1.68727 31.7863C1.80653 31.9232 1.92578 32.0557 2.05388 32.1838L3.82065 33.9506C5.14131 35.2712 6.89924 36 8.77202 36C10.6404 36 12.4027 35.2712 13.7234 33.9506L16.2101 31.4638L18.3082 29.2863C19.006 28.3852 19.4654 27.334 19.6553 26.2165ZM12.2437 32.4665L16.2278 28.4824L16.2322 28.4868C17.1553 27.5593 17.6633 26.3314 17.6633 25.0195C17.6633 23.7077 17.1553 22.4798 16.2278 21.5523L14.461 19.7855L14.4478 19.7722C11.0379 16.3712 8.29499 14.9799 7.11126 16.0532C6.80207 16.3315 6.66956 16.6451 6.67398 17.0647C6.69606 19.0965 9.8365 22.259 10.9319 23.2042C11.3736 23.5841 11.4222 24.2466 11.0423 24.6839C10.8347 24.9224 10.5432 25.046 10.2473 25.046C10.0043 25.046 9.76141 24.9621 9.56265 24.7899C9.2623 24.5249 7.5397 23.001 6.20137 21.1062L3.54238 23.7651C2.61924 24.6927 2.10688 25.925 2.10688 27.2324C2.10688 28.5398 2.61482 29.7722 3.54238 30.6997L5.30915 32.4665C6.2367 33.3896 7.46461 33.902 8.77644 33.902C10.0839 33.902 11.3162 33.394 12.2437 32.4665ZM15.9407 18.297C15.9451 18.3014 15.9539 18.3147 15.9539 18.3147H15.9584L17.7119 20.0682C18.3082 20.6689 18.7852 21.3579 19.1297 22.1088C20.2825 19.0081 20.6845 16.5125 20.1809 15.2493C20.0352 14.8827 19.832 14.6707 19.5184 14.5514C18.1801 14.0435 16.219 15.9869 15.0838 17.4666C15.3753 17.7404 15.6624 18.0187 15.9407 18.297Z" fill="#446993"/>
<path d="M11.8533 1.19865L12.2376 1.58292L12.6219 1.19865C14.212 -0.395858 16.7914 -0.400283 18.386 1.18981C19.9805 2.7799 19.9849 5.3594 18.3948 6.95391L16.2923 9.0652C14.0618 11.3002 10.4443 11.3046 8.20935 9.07403L6.09806 6.97158C4.50355 5.38149 4.49913 2.80199 6.08923 1.20748C7.67932 -0.387029 10.2588 -0.391441 11.8533 1.19865Z" fill="#FD80A6"/>
</svg>
