<svg width="23" height="36" viewBox="0 0 23 36" fill="none" xmlns="http://www.w3.org/2000/svg">
<path fill-rule="evenodd" clip-rule="evenodd" d="M19.6553 26.2165C21.1438 23.0805 23.3567 17.5461 22.1244 14.4675C21.7622 13.5665 21.1173 12.9128 20.2605 12.5903C17.4866 11.5391 14.7525 14.4587 13.4937 16.0885C10.8038 13.9463 7.81355 12.5726 5.69784 14.4896C4.95138 15.1654 4.56269 16.062 4.57152 17.0779C4.58036 17.7802 4.78354 18.509 5.10597 19.2245L2.05388 22.2766C0.728797 23.6017 0 25.3596 0 27.228C0 27.948 0.110424 28.6503 0.318019 29.3216L0.924363 30.6997L1.68727 31.7863C1.80653 31.9232 1.92578 32.0557 2.05388 32.1838L3.82065 33.9506C5.14131 35.2712 6.89924 36 8.77202 36C10.6404 36 12.4027 35.2712 13.7234 33.9506L16.2101 31.4638L18.3082 29.2863C19.006 28.3852 19.4654 27.334 19.6553 26.2165ZM12.2437 32.4665L16.2278 28.4824L16.2322 28.4868C17.1553 27.5593 17.6633 26.3314 17.6633 25.0195C17.6633 23.7077 17.1553 22.4798 16.2278 21.5523L14.461 19.7855L14.4478 19.7722C11.0379 16.3712 8.29499 14.9799 7.11126 16.0532C6.80207 16.3315 6.66956 16.6451 6.67398 17.0647C6.69606 19.0965 9.8365 22.259 10.9319 23.2042C11.3736 23.5841 11.4222 24.2466 11.0423 24.6839C10.8347 24.9224 10.5432 25.046 10.2473 25.046C10.0043 25.046 9.76141 24.9621 9.56265 24.7899C9.2623 24.5249 7.5397 23.001 6.20137 21.1062L3.54238 23.7651C2.61924 24.6927 2.10688 25.925 2.10688 27.2324C2.10688 28.5398 2.61482 29.7722 3.54238 30.6997L5.30915 32.4665C6.2367 33.3896 7.46461 33.902 8.77644 33.902C10.0838 33.902 11.3162 33.394 12.2437 32.4665ZM15.9407 18.297C15.9451 18.3014 15.9539 18.3147 15.9539 18.3147H15.9584L17.7119 20.0682C18.3082 20.6689 18.7852 21.3579 19.1297 22.1088C20.2825 19.0081 20.6845 16.5125 20.1809 15.2493C20.0352 14.8827 19.832 14.6707 19.5184 14.5514C18.1801 14.0435 16.219 15.9869 15.0838 17.4666C15.3753 17.7404 15.6624 18.0187 15.9407 18.297Z" fill="#446993"/>
<path d="M11.5305 2.29003L12.2376 2.99713L12.9447 2.29004L13.329 1.90577L13.33 1.90478C14.5303 0.701062 16.4767 0.698056 17.6798 1.8979C18.8835 3.09828 18.8865 5.04461 17.6867 6.24778L17.6862 6.24829L15.5845 8.35879C15.5843 8.35899 15.5841 8.35918 15.584 8.35937C13.7433 10.203 10.7594 10.2063 8.91576 8.36622L8.91498 8.36544L6.80419 6.26349C6.80412 6.26342 6.80405 6.26335 6.80398 6.26328C5.60047 5.06288 5.59754 3.11671 6.79732 1.91361C7.99752 0.710067 9.94346 0.706896 11.1467 1.90623C11.1469 1.9064 11.147 1.90657 11.1472 1.90674L11.5305 2.29003Z" stroke="#446993" stroke-width="2"/>
</svg>
