<svg width="24" height="25" viewBox="0 0 24 25" fill="none" xmlns="http://www.w3.org/2000/svg">
<g clip-path="url(#clip0_3243_7623)">
<path d="M13.0401 1.2191C13.1961 0.689098 13.7531 0.386098 14.2811 0.540098C16.1241 1.0801 17.3951 2.3491 17.9581 4.2111C18.1181 4.7401 17.8181 5.2981 17.2901 5.4581C17.1941 5.4871 17.0961 5.5011 17.0001 5.5011C16.5711 5.5011 16.1741 5.2221 16.0431 4.7901C15.6701 3.5561 14.9321 2.8161 13.7201 2.4611C13.1901 2.3061 12.8861 1.7501 13.0411 1.2201L13.0401 1.2191ZM24.0001 8.4841V14.6541C24.0001 17.0351 23.0311 19.3621 21.3421 21.0401L20.5271 21.8501C18.8061 23.5591 16.4231 24.5001 14.0011 24.5001C11.5471 24.4791 9.27613 23.4941 7.56513 21.7341L0.842129 14.8161C-0.121871 13.8511 -0.276871 12.3101 0.492129 11.2401C0.730129 10.9101 1.03313 10.6411 1.37713 10.4471L1.03313 10.1031C0.0581292 9.1281 -0.0968707 7.5861 0.674129 6.5171C1.02613 6.0281 1.52013 5.6761 2.07913 5.4991C1.95213 4.7891 2.08413 4.0481 2.51313 3.4521C2.98713 2.7941 3.71813 2.3791 4.51913 2.3151C5.23013 2.2601 5.91713 2.4921 6.46113 2.9371C6.51213 2.8431 6.56013 2.7471 6.62313 2.6591C7.09713 2.0011 7.82813 1.5871 8.62813 1.5221C9.43713 1.4581 10.2141 1.7461 10.7821 2.3141L18.0001 9.5321V8.5931C18.0001 7.0761 19.0761 5.7581 20.5041 5.5261C21.3831 5.3851 22.2721 5.6291 22.9431 6.2001C23.6151 6.7711 24.0001 7.6041 24.0001 8.4861V8.4841ZM22.0001 8.4841C22.0001 8.1901 21.8721 7.9121 21.6471 7.7221C21.4191 7.5291 21.1261 7.4511 20.8241 7.4981C20.3621 7.5731 19.9991 8.0531 19.9991 8.5911V11.9451C19.9991 12.3491 19.7551 12.7141 19.3821 12.8691C19.0071 13.0231 18.5781 12.9381 18.2921 12.6521L9.36813 3.7271C9.21513 3.5741 9.00413 3.5001 8.78913 3.5151C8.66313 3.5251 8.42413 3.5791 8.24613 3.8271C8.04613 4.1051 8.11213 4.5461 8.39613 4.8301L13.4471 9.8811C13.8381 10.2721 13.8381 10.9041 13.4471 11.2951C13.2521 11.4901 12.9961 11.5881 12.7401 11.5881C12.4841 11.5881 12.2281 11.4901 12.0331 11.2951L5.25813 4.5211C5.10613 4.3691 4.89913 4.2921 4.67913 4.3091C4.55313 4.3191 4.31413 4.3731 4.13613 4.6211C3.93613 4.8991 4.00213 5.3391 4.28613 5.6241L10.9961 12.3341C11.3871 12.7251 11.3871 13.3571 10.9961 13.7481C10.8011 13.9431 10.5451 14.0411 10.2891 14.0411C10.0331 14.0411 9.77713 13.9431 9.58213 13.7481L3.41913 7.5851C3.26713 7.4331 3.04713 7.3551 2.84113 7.3731C2.71513 7.3831 2.47613 7.4371 2.29713 7.6861C2.09713 7.9641 2.16313 8.4041 2.44713 8.6891L8.54413 14.7861C8.93513 15.1771 8.93513 15.8091 8.54413 16.2001C8.15313 16.5911 7.52113 16.5911 7.13013 16.2001L3.23913 12.3091C3.08713 12.1571 2.87513 12.0811 2.66013 12.0971C2.53413 12.1071 2.29513 12.1611 2.11613 12.4091C1.91613 12.6871 1.98213 13.1281 2.26713 13.4121L8.99913 20.3411C10.3341 21.7151 12.1241 22.4811 14.0401 22.4981C15.9251 22.5011 17.7581 21.7811 19.1181 20.4321L19.9331 19.6221C21.2471 18.3171 22.0001 16.5071 22.0001 14.6551V8.4841ZM4.28113 21.5401C3.06913 21.1851 2.33013 20.4451 1.95813 19.2111C1.79813 18.6821 1.24013 18.3861 0.711129 18.5431C0.182129 18.7031 -0.116871 19.2611 0.0431293 19.7901C0.605129 21.6521 1.87713 22.9211 3.72013 23.4611C3.81413 23.4881 3.90813 23.5021 4.00113 23.5021C4.43413 23.5021 4.83313 23.2191 4.96013 22.7821C5.11513 22.2521 4.81113 21.6961 4.28113 21.5401Z" fill="#B2997B"/>
<path d="M22.0001 8.4841C22.0001 8.1901 21.8721 7.9121 21.6471 7.7221C21.4191 7.5291 21.1261 7.4511 20.8241 7.4981C20.3621 7.5731 19.9991 8.0531 19.9991 8.5911V11.9451C19.9991 12.3491 19.7551 12.7141 19.3821 12.8691C19.0071 13.0231 18.5781 12.9381 18.2921 12.6521L9.36813 3.7271C9.21513 3.5741 9.00413 3.5001 8.78913 3.5151C8.66313 3.5251 8.42413 3.5791 8.24613 3.8271C8.04613 4.1051 8.11213 4.5461 8.39613 4.8301L13.4471 9.8811C13.8381 10.2721 13.8381 10.9041 13.4471 11.2951C13.2521 11.4901 12.9961 11.5881 12.7401 11.5881C12.4841 11.5881 12.2281 11.4901 12.0331 11.2951L5.25813 4.5211C5.10613 4.3691 4.89913 4.2921 4.67913 4.3091C4.55313 4.3191 4.31413 4.3731 4.13613 4.6211C3.93613 4.8991 4.00213 5.3391 4.28613 5.6241L10.9961 12.3341C11.3871 12.7251 11.3871 13.3571 10.9961 13.7481C10.8011 13.9431 10.5451 14.0411 10.2891 14.0411C10.0331 14.0411 9.77713 13.9431 9.58213 13.7481L3.41913 7.5851C3.26713 7.4331 3.04713 7.3551 2.84113 7.3731C2.71513 7.3831 2.47613 7.4371 2.29713 7.6861C2.09713 7.9641 2.16313 8.4041 2.44713 8.6891L8.54413 14.7861C8.93513 15.1771 8.93513 15.8091 8.54413 16.2001C8.15313 16.5911 7.52113 16.5911 7.13013 16.2001L3.23913 12.3091C3.08713 12.1571 2.87513 12.0811 2.66013 12.0971C2.53413 12.1071 2.29513 12.1611 2.11613 12.4091C1.91613 12.6871 1.98213 13.1281 2.26713 13.4121L8.99913 20.3411C10.3341 21.7151 12.1241 22.4811 14.0401 22.4981C15.9251 22.5011 17.7581 21.7811 19.1181 20.4321L19.9331 19.6221C21.2471 18.3171 22.0001 16.5071 22.0001 14.6551V8.4841Z" fill="#FFDEB7"/>
</g>
<defs>
<clipPath id="clip0_3243_7623">
<rect width="24" height="24" fill="white" transform="translate(0 0.5)"/>
</clipPath>
</defs>
</svg>
