<svg width="64" height="65" viewBox="0 0 64 65" fill="none" xmlns="http://www.w3.org/2000/svg">
<rect y="0.56897" width="64" height="64" rx="12" fill="white"/>
<g clip-path="url(#clip0_1297_6104)">
<path d="M45.5709 56.5614H28.2334C27.9996 56.3789 27.7209 56.4927 27.4646 56.4477C24.8234 55.9802 22.5596 54.7989 20.7284 52.8377C20.1609 52.2302 19.5946 51.6002 19.3146 50.7852C22.2884 50.7752 25.2621 50.7664 28.2359 50.7564C28.3134 50.7627 28.3909 50.7727 28.4684 50.7727C33.7946 50.7689 39.1209 50.7752 44.4471 50.7552C47.6134 50.7427 50.1596 48.1877 50.1671 45.0202C50.1809 38.6477 50.1834 32.2752 50.1646 25.9027C50.1584 23.8052 49.1884 22.2014 47.4546 21.0489C46.2796 20.2689 44.9609 20.1164 43.5946 20.1752C43.5671 19.9439 43.5309 19.7127 43.5146 19.4814C43.3296 16.8577 40.7859 14.4264 38.1546 14.3939C36.2846 14.3714 34.4146 14.3914 32.5446 14.3939C30.2084 14.3939 27.8721 14.3902 25.5359 14.3939C25.3984 14.3939 25.2571 14.4189 25.1221 14.4502C22.2759 15.0989 20.5296 17.1777 20.3446 20.1327C19.4271 20.1102 18.5221 20.1852 17.6434 20.4702C17.5946 19.7814 17.6521 19.0927 17.7684 18.4214C18.1346 16.2952 18.9646 14.3752 20.3784 12.7114C21.8971 10.9239 23.7721 9.71892 26.0084 9.03892C26.7396 8.81642 27.4959 8.75267 28.2346 8.58142C33.9509 8.58142 39.6684 8.58142 45.3846 8.58142C45.4559 8.60892 45.5259 8.65517 45.5984 8.66142C47.2121 8.79642 48.7121 9.29017 50.1071 10.0989C52.8409 11.6827 54.6421 13.9989 55.5359 17.0302C55.7434 17.7339 55.8009 18.4639 55.9746 19.1714V45.9752C55.8121 46.2727 55.8546 46.6114 55.8059 46.9277C55.1296 51.3039 51.6246 55.1277 47.2884 56.1877C46.7196 56.3264 46.1446 56.4402 45.5721 56.5652L45.5709 56.5614Z" fill="#93B1F7"/>
<path d="M28.2335 8.57647C27.496 8.74772 26.7385 8.81147 26.0072 9.03397C23.771 9.71397 21.896 10.9202 20.3772 12.7065C18.9635 14.3702 18.1348 16.289 17.7673 18.4165C17.651 19.0877 17.5935 19.7765 17.6423 20.4652C17.5573 20.5027 17.471 20.539 17.386 20.5777C15.181 21.5915 13.8297 23.2727 13.8072 25.7265C13.7485 32.2227 13.7885 38.7215 13.7872 45.219C13.7872 45.8515 13.9122 46.4615 14.156 47.0402C15.1172 49.3277 16.8522 50.5577 19.3135 50.7827C19.5935 51.599 20.161 52.229 20.7272 52.8352C22.5585 54.7965 24.8222 55.9777 27.4635 56.4452C27.7197 56.4902 27.9985 56.3777 28.2322 56.559H18.3923C18.1285 56.394 17.8185 56.4452 17.5335 56.3865C13.1972 55.494 10.2522 52.9727 8.64975 48.8577C8.321 48.014 8.20975 47.119 7.98975 46.249V18.8827C8.156 18.6215 8.10725 18.3127 8.1685 18.029C9.09975 13.7465 11.601 10.8152 15.6885 9.23397C16.5322 8.90772 17.4285 8.79397 18.2985 8.57397H28.2322L28.2335 8.57647Z" fill="#93B1F7"/>
<path d="M43.5947 20.1727C44.9609 20.1139 46.2797 20.2664 47.4547 21.0464C49.1897 22.1989 50.1584 23.8027 50.1646 25.9002C50.1834 32.2727 50.1809 38.6452 50.1671 45.0177C50.1609 48.1852 47.6134 50.7402 44.4471 50.7527C39.1209 50.7739 33.7946 50.7664 28.4684 50.7702C28.3909 50.7702 28.3134 50.7589 28.2359 50.7539C28.1834 50.7239 28.1334 50.6777 28.0771 50.6652C26.7734 50.3627 25.6821 49.7064 24.8159 48.6889C24.3709 48.1652 23.9784 47.6064 23.8271 46.9152C24.6409 46.9177 25.4584 46.9377 26.1771 46.4552C27.5896 45.6814 28.2746 44.4877 28.2446 42.8802C28.3384 42.4102 28.3384 41.9414 28.2446 41.4714C28.2446 40.0039 28.2446 38.5364 28.2459 37.0689C28.3371 36.6002 28.3397 36.1302 28.2434 35.6614C28.2434 35.3964 28.2634 35.1302 28.2371 34.8689C28.0534 33.0202 27.1571 31.6602 25.4521 30.8677C24.8459 30.4602 24.1409 30.4452 23.4521 30.3702C23.4584 28.6852 23.4659 27.0002 23.4721 25.3152C24.0859 25.5777 24.6984 25.8452 25.3721 25.9127C26.9246 26.0689 28.4796 25.9802 30.0334 25.9764C30.6821 25.9952 31.3321 26.0364 31.9796 25.9539C32.6309 25.9864 33.2809 26.0227 33.9309 25.9377C35.3472 25.9352 36.7646 25.9639 38.1796 25.9227C39.4697 25.8852 40.5959 25.3739 41.5659 24.5314C42.8884 23.3827 43.4996 21.8977 43.5934 20.1739L43.5947 20.1727ZM41.3559 46.4452C41.9796 46.1539 42.4422 45.6827 42.8159 45.1189C43.2647 44.4427 43.3909 43.6564 43.5709 42.8877C43.7434 42.4277 43.8471 41.9489 43.9359 41.4664C44.2971 40.0014 44.6584 38.5352 45.0184 37.0702C45.2022 36.6214 45.3121 36.1577 45.3084 35.6702C45.6296 33.7452 44.2984 31.5202 42.3846 30.7864C42.3334 30.7552 42.2846 30.7152 42.2296 30.6939C38.9184 29.4239 35.4234 32.0764 35.6859 35.6602C35.6234 36.1302 35.6309 36.6014 35.6809 37.0727C35.6809 38.5389 35.6834 40.0052 35.6834 41.4714C35.6259 41.9427 35.6271 42.4127 35.6834 42.8839C35.6984 43.0389 35.7146 43.1939 35.7296 43.3489C35.7471 44.2739 36.1159 45.0439 36.7609 45.6927C36.8434 45.7764 36.9259 45.8602 37.0084 45.9427C38.2584 47.0389 40.0521 47.2464 41.3559 46.4464V46.4452Z" fill="#707789"/>
<path d="M23.8272 46.9152C23.9784 47.6052 24.3709 48.1652 24.8159 48.689C25.6822 49.7077 26.7734 50.3627 28.0772 50.6652C28.1347 50.679 28.1834 50.724 28.2359 50.754C25.2622 50.764 22.2884 50.774 19.3147 50.7827C16.8534 50.5577 15.1184 49.3277 14.1572 47.0402C13.9134 46.4615 13.7884 45.8515 13.7884 45.219C13.7884 38.7215 13.7497 32.224 13.8084 25.7265C13.8309 23.2727 15.1809 21.5902 17.3872 20.5777C17.4722 20.539 17.5584 20.5027 17.6434 20.4652C18.5222 20.1802 19.4272 20.104 20.3447 20.1277C20.4597 22.4165 21.4859 24.154 23.4722 25.314C23.4659 26.999 23.4584 28.684 23.4522 30.369C23.3447 30.3815 23.2359 30.3977 23.1284 30.404C20.4184 30.559 18.3497 32.9665 18.6159 35.659C18.6609 36.144 18.7597 36.6165 18.9272 37.074C19.2884 38.539 19.6497 40.0052 20.0109 41.4702C20.1334 41.939 20.2572 42.4077 20.3797 42.8765C20.5547 43.709 20.7197 44.5452 21.2209 45.2627C21.8597 46.1765 22.7709 46.6615 23.8284 46.9127L23.8272 46.9152Z" fill="#707789"/>
<path d="M30.0346 25.9765C30.0246 25.4565 30.0159 24.9353 30.0059 24.4153C30.0121 23.0115 30.0059 21.6078 30.0271 20.2053C30.0509 18.709 31.4584 17.824 32.8221 18.4278C32.8184 18.5453 32.7596 18.6365 32.6734 18.7078C32.0921 19.1903 31.9721 19.8365 31.9771 20.549C31.9909 22.3503 31.9809 24.1528 31.9796 25.954C31.3321 26.0365 30.6821 25.9953 30.0334 25.9765H30.0346Z" fill="#FD8971"/>
<path d="M31.9812 25.954C31.9812 24.1527 31.9924 22.3502 31.9787 20.549C31.9737 19.8352 32.0937 19.1902 32.6749 18.7077C32.7599 18.6365 32.8187 18.5452 32.8237 18.4277C33.6074 18.8215 33.9274 19.4915 33.9299 20.3315C33.9374 22.2002 33.9324 24.069 33.9337 25.9377C33.2837 26.0227 32.6324 25.9865 31.9824 25.954H31.9812Z" fill="#FC9D8A"/>
<path d="M35.73 43.3465C35.9375 43.3327 36.0562 43.4465 36.085 43.634C36.1725 44.2052 36.4162 44.7052 36.7125 45.1927C36.79 45.3215 36.7475 45.5227 36.7612 45.6902C36.1162 45.0415 35.7475 44.2715 35.73 43.3465Z" fill="#E0EFF8"/>
</g>
<defs>
<clipPath id="clip0_1297_6104">
<rect width="48.125" height="48" fill="white" transform="translate(7.9375 8.56897)"/>
</clipPath>
</defs>
</svg>
